<svg width="512" height="512" viewBox="0 0 512 512" fill="none" xmlns="http://www.w3.org/2000/svg">
<path d="M0 0H512V512H0V0Z" fill="white"/>
<path fill-rule="evenodd" clip-rule="evenodd" d="M256 97C168.187 97 97 168.187 97 256C97 343.813 168.187 415 256 415C343.813 415 415 343.813 415 256C415 168.187 343.813 97 256 97ZM106 256C106 176.471 176.471 106 256 106C335.529 106 406 176.471 406 256C406 335.529 335.529 406 256 406C176.471 406 106 335.529 106 256Z" fill="#000085"/>
<path d="M247 256C247 251.029 251.029 247 256 247C260.971 247 265 251.029 265 256C265 260.971 260.971 265 256 265C251.029 265 247 260.971 247 256Z" fill="#A80000"/>
<path fill-rule="evenodd" clip-rule="evenodd" d="M256 247C251.029 247 247 251.029 247 256C247 260.971 251.029 265 256 265C260.971 265 265 260.971 265 256C265 251.029 260.971 247 256 247Z" fill="#A80000"/>
<path fill-rule="evenodd" clip-rule="evenodd" d="M256 181C214.579 181 181 214.579 181 256C181 297.421 214.579 331 256 331C297.421 331 331 297.421 331 256C331 214.579 297.421 181 256 181ZM296.232 238.355C298.859 237.502 301.679 238.939 302.533 241.565C303.386 244.191 301.949 247.012 299.323 247.865C297.784 248.365 296.179 248.079 294.942 247.229L275.933 254.292L289.456 256.329C289.456 256.329 291.031 257.049 291.025 257.922C291.018 258.795 289.432 259.491 289.432 259.491L275.714 259.387C275.667 259.664 275.614 259.939 275.556 260.212L296.967 266.506C296.967 266.506 302.135 266.943 305.195 265.936C312.614 263.495 315.445 257.287 316.704 249.579C317.475 244.854 315.373 237.393 315.373 237.393C315.373 237.393 312.688 230.122 309.287 226.753C303.738 221.256 297.698 217.602 290.362 220.284C287.287 221.408 283.525 225.135 283.525 225.135L270.145 241.86C270.376 242.092 270.601 242.328 270.821 242.571L281.397 234.764C281.397 234.764 283.089 234.394 283.608 235.097C284.126 235.799 283.275 237.308 283.275 237.308L273.72 246.718L273.758 246.791L273.781 246.834L293.063 241.445C293.564 240.03 294.694 238.855 296.232 238.355ZM285.787 288.919C287.411 291.153 286.915 294.28 284.681 295.903C282.447 297.526 279.32 297.031 277.697 294.797C276.746 293.488 276.523 291.873 276.949 290.433L264.357 274.538L266.599 288.028C266.599 288.028 266.401 289.749 265.569 290.013C264.736 290.276 263.584 288.983 263.584 288.983L259.384 275.715C259.126 275.759 258.867 275.798 258.606 275.832L259.242 298.317C259.242 298.317 260.423 303.367 262.326 305.966C266.94 312.268 273.719 313.042 281.439 311.857C286.171 311.13 292.617 306.826 292.617 306.826C292.617 306.826 298.703 302.025 300.856 297.75C304.369 290.774 305.977 283.9 301.16 277.751C299.14 275.175 294.434 272.749 294.434 272.749L273.868 264.994C273.743 265.243 273.612 265.49 273.476 265.733L284.618 273.699C284.618 273.699 285.493 275.195 284.985 275.905C284.477 276.616 282.779 276.272 282.779 276.272L270.643 269.971L281.869 286.859C283.37 286.898 284.837 287.61 285.787 288.919ZM233.438 294.796C231.814 297.031 228.688 297.526 226.454 295.903C224.22 294.28 223.724 291.153 225.347 288.919C226.298 287.61 227.765 286.898 229.266 286.859L240.492 269.971L228.355 276.272C228.355 276.272 226.657 276.616 226.149 275.905C225.641 275.195 226.516 273.7 226.516 273.7L238.282 265.287C238.188 265.107 238.096 264.925 238.007 264.742L237.982 264.724L216.296 272.454C216.296 272.454 211.858 275.138 209.975 277.751C205.407 284.087 206.766 290.773 210.279 297.749C212.432 302.025 218.518 306.825 218.518 306.825C218.518 306.825 224.964 311.13 229.695 311.856C237.416 313.042 244.45 312.447 248.809 305.965C250.636 303.249 251.488 298.023 251.488 298.023L252.526 275.699C252.282 275.657 252.04 275.61 251.8 275.558L247.551 288.982C247.551 288.982 246.399 290.275 245.566 290.012C244.734 289.748 244.536 288.027 244.536 288.027L246.778 274.538L234.186 290.433C234.612 291.873 234.388 293.488 233.438 294.796ZM212.43 247.866C209.803 247.013 208.366 244.192 209.219 241.566C210.073 238.939 212.894 237.502 215.52 238.356C217.058 238.855 218.189 240.03 218.69 241.446L238.188 246.895L238.196 246.88L228.477 237.308C228.477 237.308 227.625 235.799 228.144 235.097C228.663 234.394 230.355 234.764 230.355 234.764L241.08 242.681C241.292 242.443 241.51 242.211 241.733 241.984L228.382 224.66C228.382 224.66 224.458 221.268 221.391 220.284C213.954 217.898 208.014 221.257 202.465 226.753C199.064 230.122 196.379 237.394 196.379 237.394C196.379 237.394 194.277 244.854 195.049 249.579C196.307 257.287 199.046 263.794 206.558 265.936C209.706 266.834 214.939 266.03 214.939 266.03L236.428 260.136C236.376 259.887 236.328 259.637 236.285 259.386L222.321 259.492C222.321 259.492 220.735 258.796 220.728 257.923C220.722 257.049 222.297 256.33 222.297 256.33L235.819 254.293L216.811 247.229C215.573 248.08 213.968 248.366 212.43 247.866ZM251 213.001C251 210.24 253.238 208.001 256 208.001C258.761 208.001 261 210.24 261 213.001C261 214.619 260.231 216.057 259.04 216.971L259.848 236.37C259.927 236.385 260.006 236.401 260.084 236.417C260.147 236.43 260.209 236.444 260.271 236.457L266 225C266 225 267.171 223.724 268 224C268.828 224.276 269 226 269 226L264.962 238.115C265.291 238.28 265.614 238.454 265.933 238.637L278 221.001C278 221.001 280.012 216.221 280 213C279.972 205.19 274.942 200.579 268 197C263.745 194.807 256 194.5 256 194.5C256 194.5 248.255 194.806 244 197C237.057 200.579 231.715 205.195 231.999 213C232.118 216.272 234.5 221.001 234.5 221.001L246.093 238.622C246.403 238.445 246.718 238.276 247.038 238.116L243 226.001C243 226.001 243.171 224.277 244 224.001C244.828 223.725 246 225.001 246 225.001L251.728 236.457C251.868 236.427 252.009 236.398 252.151 236.37L252.959 216.971C251.768 216.057 251 214.619 251 213.001ZM243 256C243 248.82 248.82 243 256 243C263.18 243 269 248.82 269 256C269 263.18 263.18 269 256 269C248.82 269 243 263.18 243 256Z" fill="#A80000"/>
<path fill-rule="evenodd" clip-rule="evenodd" d="M256 247C251.029 247 247 251.029 247 256C247 260.971 251.029 265 256 265C260.971 265 265 260.971 265 256C265 251.029 260.971 247 256 247Z" fill="#A80000"/>
<path fill-rule="evenodd" clip-rule="evenodd" d="M256 112C176.471 112 112 176.471 112 256C112 335.529 176.471 400 256 400C335.529 400 400 335.529 400 256C400 176.471 335.529 112 256 112ZM174 256C174 210.713 210.713 174 256 174C301.287 174 338 210.713 338 256C338 301.287 301.287 338 256 338C210.713 338 174 301.287 174 256ZM120.416 231.961C118.376 243.529 159.989 252.016 168.034 253.546C168.108 250.836 168.304 248.157 168.618 245.513C162 244.227 142.344 240.052 143.066 235.955C143.789 231.857 163.694 234.658 170.35 235.712C170.97 233.083 171.709 230.499 172.559 227.966C164.514 226.657 122.457 220.386 120.416 231.961ZM168.594 266.277C168.286 263.632 168.096 260.952 168.028 258.241C159.701 259.83 118.5 268.291 120.529 279.803C122.555 291.293 164.013 285.198 172.49 283.827C171.646 281.293 170.915 278.708 170.301 276.077C163.489 277.151 143.897 279.875 143.18 275.809C142.462 271.74 161.845 267.594 168.594 266.277ZM177.68 296.165C176.458 293.787 175.341 291.345 174.335 288.847C167.512 292.903 130.988 315.253 136.886 325.467C142.835 335.772 181.064 314.865 187.5 311.247C185.813 309.159 184.22 306.991 182.727 304.752C177.049 307.909 158.909 317.613 156.804 313.967C154.708 310.336 172.036 299.55 177.68 296.165ZM196.135 320.5C194.168 318.673 192.285 316.758 190.492 314.761C185.316 321.1 158.889 354.355 167.888 361.906C176.947 369.507 205.427 337.228 210.496 331.337C208.193 329.943 205.958 328.446 203.8 326.853C199.454 331.858 185.877 346.976 182.672 344.287C179.476 341.605 191.923 325.697 196.135 320.5ZM221.064 336.792C218.589 335.721 216.174 334.539 213.823 333.253C210.795 342.003 198.035 380.877 208.868 384.82C219.674 388.753 234.839 350.971 238.195 342.198C235.547 341.654 232.943 340.991 230.388 340.215C227.784 346.946 220.544 364.594 216.735 363.207C212.921 361.819 218.738 343.603 221.064 336.792ZM251.037 343.862C248.331 343.712 245.657 343.439 243.022 343.05C243.186 352.684 244.553 393 256 393C267.447 393 268.814 352.684 268.978 343.05C266.343 343.439 263.669 343.712 260.963 343.862C260.811 351.18 260.028 370 256 370C251.972 370 251.189 351.18 251.037 343.862ZM282.846 339.83C280.306 340.643 277.716 341.343 275.082 341.926C278.673 351.265 293.606 388.11 304.284 384.223C315.132 380.275 302.32 341.295 299.316 332.619C296.98 333.942 294.577 335.162 292.114 336.272C294.457 343.142 300.217 361.227 296.417 362.61C292.647 363.982 285.518 346.712 282.846 339.83ZM310.483 325.11C308.384 326.768 306.207 328.331 303.959 329.795C309.423 336.128 337.442 367.714 346.414 360.186C355.672 352.418 327.437 317.446 323.417 312.562C321.684 314.626 319.857 316.609 317.944 318.505C321.919 323.391 334.884 339.836 331.63 342.567C328.42 345.26 314.807 330.093 310.483 325.11ZM330.764 302.438C329.346 304.716 327.827 306.925 326.213 309.057C332.377 312.527 370.938 333.68 376.915 323.327C383.111 312.596 342.486 288.471 338.668 286.236C337.739 288.775 336.697 291.259 335.547 293.682C340.464 296.606 359.171 308.062 356.997 311.827C354.852 315.543 336.056 305.394 330.764 302.438ZM341.909 275.155C341.325 277.789 340.622 280.378 339.807 282.917C346.683 284.053 390.286 290.781 392.365 278.99C394.481 266.991 349.625 258.305 343.991 257.263C343.953 259.978 343.792 262.663 343.513 265.313C349.37 266.429 370.463 270.754 369.715 274.996C368.972 279.208 347.969 276.133 341.909 275.155ZM343.314 244.962C343.645 247.602 343.858 250.277 343.949 252.984C351.638 251.529 393.759 243.009 391.707 231.373C389.639 219.642 346.472 226.241 339.258 227.428C340.125 229.957 340.881 232.538 341.519 235.165C347.905 234.144 368.324 231.215 369.056 235.367C369.786 239.504 349.737 243.721 343.314 244.962ZM334.05 215.313C335.287 217.681 336.419 220.113 337.441 222.602C342.845 219.414 381.397 196.182 375.351 185.708C369.161 174.987 328.025 198.055 324.115 200.28C325.817 202.358 327.426 204.515 328.935 206.745C333.832 203.999 353.249 193.428 355.432 197.208C357.596 200.957 339.068 212.325 334.05 215.313ZM315.618 191.271C317.59 193.088 319.479 194.995 321.278 196.984C325.009 192.458 353.665 157.088 344.348 149.27C334.873 141.32 304.155 176.994 301.195 180.477C303.504 181.861 305.744 183.349 307.909 184.933C311.543 180.711 326.215 164.079 329.564 166.889C332.894 169.683 319.244 186.834 315.618 191.271ZM290.895 175.19C293.369 176.26 295.784 177.44 298.134 178.724C300.525 171.918 314.578 130.436 303.368 126.356C292.185 122.285 276.334 162.893 273.734 169.788C276.381 170.329 278.985 170.99 281.54 171.763C283.826 165.776 291.529 146.523 295.502 147.969C299.478 149.416 292.985 169.156 290.895 175.19ZM260.982 168.139C263.686 168.29 266.358 168.563 268.992 168.952C268.907 161.597 267.903 118 256 118C244.097 118 243.093 161.597 243.008 168.952C245.642 168.563 248.314 168.29 251.018 168.139C251.119 161.734 251.772 141 256 141C260.228 141 260.881 161.734 260.982 168.139ZM230.212 171.839C232.764 171.058 235.366 170.39 238.011 169.84C235.075 162.102 219.519 122.716 208.498 126.728C197.418 130.761 211.018 171.334 213.644 178.845C215.991 177.554 218.404 176.366 220.876 175.289C218.693 168.955 212.446 149.767 216.364 148.341C220.273 146.918 227.794 165.539 230.212 171.839ZM202.527 186.104C204.652 184.476 206.854 182.942 209.126 181.509C204.501 176.119 175.521 143.085 166.367 150.765C157.066 158.57 185.612 193.837 189.419 198.456C191.179 196.422 193.03 194.47 194.966 192.605C191.154 187.929 177.861 171.145 181.152 168.384C184.42 165.642 198.477 181.42 202.527 186.104ZM181.931 208.464C183.384 206.204 184.938 204.016 186.586 201.904C180.477 198.464 141.849 177.262 135.866 187.624C129.812 198.11 168.463 221.384 173.795 224.528C174.76 222.009 175.838 219.545 177.022 217.142C171.802 214.028 153.641 202.837 155.785 199.124C157.918 195.429 176.523 205.448 181.931 208.464Z" fill="#000085"/>
</svg>
