<svg width="512" height="512" viewBox="0 0 512 512" fill="none" xmlns="http://www.w3.org/2000/svg">
<path d="M1 1H511V511H1V1Z" fill="white" stroke="white" stroke-width="2"/>
<path d="M283.834 409.918H282.834H274.851H273.851V408.918V378.674L266.025 391.391V408.918V409.738L265.221 409.899L256.009 411.741L255.813 411.78L255.616 411.741L246.404 409.899L245.601 409.738V408.918V391.391L237.775 378.674V408.918V409.918H236.775H228.791H227.791V408.918V368.105L221.135 359.231C220.756 359.435 220.243 359.712 219.625 360.052C218.216 360.825 216.259 361.922 214.062 363.213C209.657 365.803 204.339 369.149 200.559 372.231C193.519 377.971 186.369 387.236 180.951 395.13C178.25 399.065 175.994 402.638 174.413 405.227C173.623 406.521 173.002 407.569 172.579 408.292C172.512 408.407 172.449 408.514 172.392 408.612C172.784 408.873 173.316 409.225 173.964 409.641C175.43 410.584 177.486 411.859 179.845 413.191C184.595 415.872 190.459 418.715 195.198 419.604C199.836 420.474 205.152 419.171 209.402 417.578C211.509 416.788 213.317 415.94 214.597 415.29C215.237 414.966 215.744 414.691 216.088 414.499C216.261 414.403 216.393 414.327 216.481 414.277C216.524 414.251 216.557 414.232 216.579 414.219L216.602 414.205L216.607 414.202L216.608 414.202L216.608 414.202L216.608 414.202L217.18 413.859L217.717 414.255L217.717 414.255L217.717 414.255L217.718 414.257L217.725 414.262L217.754 414.283C217.779 414.301 217.818 414.33 217.87 414.367C217.973 414.441 218.126 414.551 218.324 414.692C218.721 414.973 219.299 415.376 220.021 415.86C221.465 416.829 223.477 418.12 225.753 419.41C228.031 420.7 230.556 421.981 233.028 422.936C235.514 423.896 237.875 424.5 239.845 424.5C243.828 424.5 247.608 422.497 250.46 420.396C251.873 419.355 253.027 418.312 253.828 417.53C254.228 417.139 254.538 416.815 254.746 416.591C254.851 416.479 254.929 416.391 254.981 416.333C255.007 416.304 255.026 416.283 255.038 416.269L255.051 416.254L255.053 416.251L255.053 416.251L255.054 416.251L255.054 416.251L255.813 415.365L256.571 416.251L256.572 416.251L256.572 416.251L256.572 416.251L256.574 416.254L256.587 416.269C256.599 416.283 256.618 416.304 256.644 416.333C256.696 416.391 256.775 416.479 256.879 416.591C257.087 416.815 257.397 417.139 257.797 417.53C258.598 418.312 259.752 419.355 261.165 420.396C264.017 422.497 267.797 424.5 271.78 424.5C273.75 424.5 276.111 423.896 278.597 422.936C281.069 421.981 283.595 420.7 285.873 419.41C288.148 418.12 290.16 416.829 291.604 415.86C292.326 415.376 292.904 414.973 293.301 414.692C293.5 414.551 293.653 414.441 293.755 414.367C293.807 414.33 293.846 414.301 293.871 414.283L293.9 414.262L293.907 414.257L293.908 414.255L293.908 414.255L293.908 414.255L294.445 413.859L283.834 409.918ZM283.834 409.918V408.918V368.105L290.49 359.231C290.87 359.435 291.382 359.712 292 360.052C293.409 360.825 295.366 361.922 297.563 363.213C301.968 365.803 307.287 369.149 311.067 372.231C318.107 377.971 325.256 387.236 330.674 395.13C333.375 399.065 335.631 402.638 337.212 405.227C338.002 406.521 338.623 407.569 339.046 408.292C339.113 408.407 339.176 408.514 339.233 408.612M283.834 409.918L339.233 408.612M295.017 414.202L295.017 414.202L295.017 414.202ZM295.017 414.202L295.018 414.202L295.023 414.205L295.046 414.219C295.068 414.232 295.101 414.251 295.145 414.277C295.232 414.327 295.364 414.403 295.537 414.499C295.882 414.691 296.388 414.966 297.028 415.29C298.309 415.94 300.116 416.788 302.224 417.578C306.474 419.171 311.789 420.474 316.427 419.604C321.166 418.715 327.03 415.872 331.78 413.191C334.139 411.859 336.195 410.584 337.661 409.641C338.309 409.225 338.841 408.873 339.233 408.612M295.017 414.202L339.233 408.612M295.225 369.536L294.469 368.748L293.75 369.569L289.451 374.482L288.835 375.187L289.497 375.848L303.008 389.359L303.621 389.972L304.315 389.452L309.228 385.767L310.131 385.09L309.35 384.275L295.225 369.536ZM314.377 390.56L313.793 389.669L312.941 390.308L308.028 393.993L307.258 394.571L307.806 395.362L318.86 411.33L319.287 411.946L319.998 411.709L325.526 409.867L326.757 409.456L326.046 408.37L314.377 390.56ZM217.875 369.569L217.156 368.748L216.4 369.536L202.275 384.275L201.494 385.09L202.397 385.767L207.31 389.452L208.004 389.972L208.617 389.359L222.128 375.848L222.79 375.187L222.174 374.482L217.875 369.569ZM198.684 390.308L197.832 389.669L197.248 390.56L185.579 408.37L184.868 409.456L186.1 409.867L191.627 411.709L192.338 411.946L192.765 411.33L203.819 395.362L204.368 394.571L203.597 393.993L198.684 390.308Z" fill="#969696" stroke="white" stroke-width="2"/>
<path d="M267.732 435.118V430.184H276.334V437.492V438.151L276.94 438.411L311.709 453.351L285.241 454.862L278.077 446.911L276.334 444.976V447.58V455.888V456.317L276.645 456.613L279.822 459.636H276.087H275.271L275.107 460.435L271.894 476.158L268.969 455.746L268.888 455.179L268.357 454.962L263.991 453.182L263.561 453.006L263.149 453.223L245.062 462.717L244.676 462.92L244.562 463.341L240.835 477.082L239.033 464.646L238.898 463.716L237.96 463.793L227.973 464.619L237.303 459.124L237.9 458.772L237.78 458.089L236.533 450.968L236.336 449.842L235.246 450.188L220.379 454.903L200.35 456.809L236.03 437.181L236.548 436.896V436.305V430.184H244.687L245.789 436.478L245.882 437.009L246.377 437.223L260.098 443.157L260.767 443.446L261.247 442.898L267.484 435.777L267.732 435.494V435.118ZM247.28 445.53L245.774 444.649V446.393V452.921V454.164L246.989 453.898L255.097 452.117L257.593 451.569L255.387 450.278L247.28 445.53ZM258.416 383.471L258.386 383.58L258.38 383.693C258.173 388.257 257.713 392.188 257.105 394.955C256.8 396.346 256.467 397.39 256.138 398.064C256.014 398.316 255.904 398.488 255.818 398.597C255.731 398.488 255.621 398.316 255.498 398.064C255.168 397.39 254.836 396.346 254.53 394.955C253.922 392.188 253.462 388.257 253.255 383.693L253.25 383.58L253.22 383.471C252.207 379.817 249.73 375.762 247.715 372.504L247.558 372.251L247.288 372.124C241.21 369.285 235.894 363.848 232.083 358.444C230.184 355.751 228.678 353.093 227.651 350.815C226.606 348.498 226.111 346.692 226.111 345.662C226.111 344.889 226.393 343.647 227.011 342.038C227.619 340.453 228.52 338.593 229.679 336.611C231.999 332.644 235.321 328.246 239.315 324.638L239.622 324.36L239.643 323.947C240.077 315.391 247.153 308.586 255.818 308.586C264.482 308.586 271.558 315.391 271.992 323.947L272.013 324.36L272.321 324.638C276.315 328.246 279.636 332.644 281.956 336.611C283.116 338.593 284.016 340.453 284.624 342.038C285.242 343.647 285.524 344.889 285.524 345.662C285.524 346.692 285.029 348.498 283.984 350.815C282.957 353.093 281.451 355.751 279.552 358.444C275.741 363.848 270.425 369.285 264.347 372.124L264.077 372.251L263.92 372.504C261.905 375.762 259.428 379.817 258.416 383.471ZM255.685 398.734C255.685 398.734 255.685 398.734 255.687 398.733C255.685 398.734 255.685 398.735 255.685 398.734ZM255.948 398.733C255.95 398.734 255.951 398.734 255.951 398.734C255.951 398.735 255.95 398.734 255.948 398.733ZM264.886 331.269L263.415 330.485V332.151V341.363V341.934L263.906 342.224L263.906 342.224L263.906 342.224L263.906 342.224L263.907 342.224L263.911 342.226L263.934 342.241C263.956 342.254 263.989 342.274 264.033 342.302C264.12 342.357 264.248 342.441 264.403 342.548C264.715 342.763 265.128 343.069 265.541 343.434C265.958 343.803 266.352 344.212 266.643 344.63C266.938 345.055 267.083 345.425 267.102 345.727C267.123 346.05 267.011 346.453 266.729 346.931C266.451 347.403 266.05 347.874 265.614 348.305C265.182 348.731 264.741 349.093 264.406 349.35C264.239 349.477 264.1 349.577 264.005 349.644C263.985 349.658 263.967 349.671 263.951 349.682C263.929 349.697 263.911 349.709 263.898 349.718L263.872 349.736L263.867 349.739L263.867 349.739L263.867 349.739L263.866 349.739L263.866 349.739L263.415 350.035V350.575V360.401V362.13L264.914 361.268L264.415 360.401C264.914 361.268 264.914 361.268 264.915 361.268L264.916 361.267L264.918 361.266L264.926 361.261L264.957 361.243C264.983 361.228 265.02 361.206 265.069 361.177C265.166 361.119 265.306 361.035 265.483 360.925C265.837 360.706 266.34 360.386 266.941 359.979C268.141 359.166 269.743 357.999 271.34 356.588C272.932 355.181 274.548 353.506 275.751 351.671C276.951 349.843 277.79 347.778 277.697 345.619C277.609 343.568 276.687 341.644 275.458 339.957C274.224 338.263 272.629 336.736 271.076 335.462C269.518 334.184 267.976 333.139 266.824 332.414C266.248 332.051 265.767 331.767 265.429 331.573C265.26 331.475 265.126 331.4 265.034 331.349C264.988 331.324 264.952 331.304 264.927 331.291L264.898 331.275L264.89 331.271L264.887 331.27L264.887 331.269C264.886 331.269 264.886 331.269 264.415 332.151L264.886 331.269ZM248.22 332.151V330.485L246.749 331.269L247.22 332.151C246.749 331.269 246.749 331.269 246.749 331.269L246.748 331.27L246.745 331.271L246.737 331.275L246.708 331.291C246.684 331.304 246.648 331.324 246.602 331.349C246.509 331.4 246.375 331.475 246.206 331.573C245.868 331.767 245.387 332.051 244.811 332.414C243.66 333.139 242.117 334.184 240.559 335.462C239.006 336.736 237.411 338.263 236.178 339.957C234.948 341.644 234.027 343.568 233.938 345.619C233.845 347.778 234.685 349.843 235.884 351.671C237.087 353.506 238.703 355.181 240.295 356.588C241.892 357.999 243.494 359.166 244.694 359.979C245.296 360.386 245.798 360.706 246.152 360.925C246.33 361.035 246.47 361.119 246.567 361.177C246.615 361.206 246.653 361.228 246.679 361.243L246.709 361.261L246.717 361.266L246.72 361.267L246.721 361.268C246.721 361.268 246.721 361.268 247.22 360.401L246.721 361.268L248.22 362.13V360.401V350.575V350.035L247.769 349.739L247.769 349.739L247.769 349.739L247.769 349.739L247.768 349.739L247.763 349.736L247.738 349.718C247.714 349.702 247.677 349.677 247.63 349.644C247.535 349.577 247.396 349.477 247.23 349.35C246.894 349.093 246.454 348.731 246.022 348.305C245.586 347.874 245.185 347.403 244.906 346.931C244.624 346.453 244.512 346.05 244.533 345.727C244.553 345.425 244.697 345.055 244.992 344.63C245.283 344.212 245.677 343.803 246.094 343.434C246.507 343.069 246.921 342.763 247.232 342.548C247.387 342.441 247.515 342.357 247.603 342.302C247.619 342.292 247.634 342.282 247.647 342.274C247.67 342.26 247.688 342.249 247.701 342.241L247.725 342.226L247.729 342.224L247.729 342.224L247.729 342.224L247.729 342.224L247.729 342.224L248.22 341.934V341.363V332.151Z" fill="#969696" stroke="white" stroke-width="2"/>
<path d="M327.052 316.036L327.547 316.905L327.548 316.904L327.551 316.902L327.566 316.894L327.627 316.86C327.653 316.845 327.685 316.827 327.723 316.806C327.765 316.782 327.815 316.755 327.871 316.723C328.088 316.603 328.409 316.427 328.825 316.203C329.658 315.755 330.873 315.116 332.393 314.357C335.435 312.84 339.694 310.844 344.565 308.933C354.356 305.092 366.43 301.668 376.048 302.975C381.91 303.771 389.01 306.615 394.705 309.306C396.918 310.351 398.904 311.366 400.502 312.215C398.237 312.053 395.287 311.873 391.989 311.748C384.542 311.466 375.249 311.461 368.042 312.604C356.795 314.388 343.476 320.1 333.029 325.319C327.792 327.936 323.252 330.441 320.02 332.293C318.404 333.219 317.115 333.982 316.229 334.514C315.785 334.78 315.443 334.988 315.211 335.13C315.163 335.159 315.121 335.185 315.083 335.209C315.027 335.243 314.982 335.271 314.946 335.292L314.878 335.334L314.861 335.345L314.856 335.348L314.855 335.349C314.855 335.349 314.855 335.349 315.383 336.198L314.855 335.349L311.98 337.14L315.366 337.198L315.367 337.198L315.369 337.198L315.379 337.198L315.419 337.199C315.455 337.2 315.51 337.201 315.582 337.203C315.726 337.206 315.939 337.212 316.216 337.222C316.77 337.241 317.574 337.274 318.575 337.33C320.578 337.441 323.362 337.643 326.488 338.005C332.769 338.732 340.309 340.094 345.666 342.602C352.226 345.675 359.023 352.112 364.231 357.875C366.821 360.742 368.994 363.413 370.518 365.368C371.281 366.345 371.88 367.142 372.288 367.694C372.492 367.97 372.649 368.184 372.754 368.329C372.806 368.402 372.845 368.457 372.872 368.493L372.901 368.534L372.908 368.544L372.909 368.546L372.91 368.547L373.465 369.331L374.271 368.807L374.272 368.807L374.276 368.804L374.293 368.793L374.365 368.747C374.403 368.722 374.452 368.691 374.511 368.654C374.552 368.628 374.599 368.599 374.65 368.567C374.9 368.411 375.265 368.185 375.725 367.912C376.645 367.364 377.939 366.623 379.431 365.854C382.443 364.301 386.158 362.688 389.224 362.237C393.361 361.629 398.703 362.787 403.117 364.164C405.174 364.806 406.994 365.483 408.344 366.02C408.131 366.092 407.907 366.167 407.672 366.247C405.677 366.922 402.898 367.885 399.762 369.038C393.502 371.339 385.772 374.413 380.012 377.472C371.99 381.732 362.717 388.656 355.479 394.483C351.854 397.402 348.726 400.057 346.504 401.982C345.406 402.934 344.528 403.708 343.921 404.248C343.868 404.149 343.812 404.044 343.752 403.932C343.25 402.999 342.513 401.652 341.571 399.998C339.686 396.689 336.978 392.142 333.68 387.192C327.106 377.323 318.113 365.728 308.579 359.201C305.699 357.229 301.818 355.069 298.681 353.412C297.108 352.58 295.713 351.871 294.711 351.37C294.284 351.156 293.928 350.98 293.66 350.848V334.103C293.678 334.081 293.697 334.057 293.717 334.032C293.897 333.808 294.165 333.476 294.514 333.049C295.212 332.197 296.236 330.966 297.532 329.458C300.126 326.442 303.813 322.32 308.18 317.901C316.941 309.036 328.344 299.073 339.122 294.346C339.899 294.005 340.654 293.672 341.39 293.347C351.008 289.101 357.338 286.307 368.182 286.487C373.625 286.578 380.404 288.515 385.893 290.471C387.283 290.967 388.584 291.461 389.75 291.922C387.4 291.778 384.524 291.654 381.376 291.629C373.209 291.566 363.074 292.172 355.57 294.936C348.954 297.372 341.633 302.499 336.018 306.956C333.199 309.194 330.786 311.281 329.079 312.809C328.224 313.574 327.546 314.199 327.08 314.634C326.847 314.851 326.667 315.021 326.545 315.137C326.484 315.195 326.438 315.239 326.406 315.27L326.37 315.304L326.361 315.313L326.358 315.316L326.357 315.316C326.357 315.317 326.357 315.317 327.052 316.036ZM327.052 316.036L327.547 316.905L326.357 315.317L327.052 316.036ZM184.573 316.186L184.076 317.053L184.075 317.053L184.072 317.051L184.057 317.042L183.996 317.008C183.942 316.977 183.86 316.931 183.752 316.871C183.536 316.75 183.215 316.573 182.798 316.348C181.965 315.897 180.75 315.255 179.23 314.493C176.189 312.967 171.93 310.961 167.059 309.041C157.268 305.179 145.194 301.738 135.578 303.051C129.717 303.852 122.617 306.711 116.922 309.415C114.699 310.471 112.704 311.496 111.102 312.351C113.37 312.188 116.328 312.006 119.636 311.88C127.083 311.597 136.377 311.593 143.584 312.742C154.832 314.535 168.151 320.276 178.598 325.523C183.835 328.152 188.375 330.671 191.607 332.532C193.223 333.463 194.512 334.23 195.399 334.764C195.842 335.032 196.184 335.241 196.416 335.384C196.532 335.455 196.621 335.51 196.681 335.547L196.749 335.589L196.766 335.6L196.771 335.603L196.772 335.604C196.772 335.604 196.773 335.604 196.242 336.452L196.773 335.604L199.63 337.394L196.259 337.452L196.259 337.452L196.257 337.452L196.247 337.452L196.206 337.453C196.17 337.454 196.116 337.455 196.044 337.457C195.9 337.46 195.686 337.466 195.409 337.476C194.856 337.495 194.051 337.528 193.05 337.584C191.047 337.696 188.263 337.899 185.138 338.263C178.857 338.994 171.318 340.363 165.961 342.884C159.401 345.972 152.604 352.443 147.396 358.236C144.806 361.117 142.633 363.803 141.108 365.768C140.346 366.75 139.747 367.551 139.338 368.106C139.134 368.383 138.978 368.598 138.873 368.744C138.821 368.817 138.781 368.872 138.755 368.909L138.726 368.95L138.719 368.96L138.717 368.962L138.717 368.963L138.161 369.752L137.353 369.224L137.352 369.224L137.352 369.223L137.348 369.221L137.33 369.209L137.258 369.163C137.194 369.122 137.098 369.061 136.974 368.982C136.724 368.825 136.358 368.599 135.898 368.324C134.978 367.773 133.685 367.029 132.193 366.256C129.18 364.695 125.466 363.074 122.4 362.621C118.265 362.01 112.924 363.173 108.51 364.557C106.445 365.204 104.62 365.888 103.268 366.429C103.485 366.502 103.714 366.58 103.955 366.662C105.95 367.34 108.729 368.308 111.865 369.467C118.125 371.78 125.855 374.87 131.615 377.945C139.637 382.227 148.911 389.187 156.148 395.044C159.773 397.978 162.901 400.647 165.123 402.582C166.22 403.538 167.097 404.315 167.704 404.857C167.757 404.758 167.813 404.652 167.872 404.541C168.374 403.602 169.111 402.249 170.053 400.586C171.938 397.26 174.646 392.69 177.944 387.715C184.518 377.795 193.51 366.14 203.045 359.579C205.925 357.597 209.805 355.426 212.942 353.76C214.515 352.925 215.91 352.212 216.912 351.707C217.34 351.492 217.697 351.315 217.965 351.182V334.343C217.946 334.32 217.927 334.296 217.906 334.27C217.726 334.044 217.459 333.71 217.109 333.282C216.411 332.424 215.388 331.187 214.091 329.672C211.497 326.64 207.811 322.497 203.443 318.055C194.682 309.143 183.279 299.129 172.502 294.378C171.724 294.035 170.97 293.7 170.234 293.374C160.616 289.106 154.286 286.297 143.443 286.479C138.001 286.57 131.222 288.516 125.734 290.483C124.331 290.986 123.02 291.487 121.846 291.954C124.201 291.808 127.088 291.682 130.25 291.658C138.417 291.594 148.552 292.203 156.056 294.982C162.673 297.431 169.994 302.584 175.609 307.064C178.428 309.313 180.841 311.412 182.549 312.948C183.403 313.716 184.081 314.345 184.547 314.782C184.78 315 184.96 315.171 185.082 315.287C185.143 315.346 185.189 315.39 185.221 315.421L185.257 315.456L185.266 315.465L185.269 315.467L185.27 315.468C185.27 315.468 185.27 315.468 184.573 316.186ZM184.573 316.186L184.076 317.053L185.27 315.468L184.573 316.186ZM311.963 352.979L310.603 353.487L311.562 354.577L315.861 359.464L316.406 360.085L317.118 359.666L330.629 351.723L331.884 350.986L330.745 350.079L327.675 347.635L327.232 347.283L326.702 347.481L311.963 352.979ZM336.913 353.155L336.367 352.69L335.751 353.058L320.398 362.222L319.293 362.882L320.205 363.79L325.118 368.678L325.713 369.27L326.4 368.786L341.139 358.4L342.192 357.657L341.212 356.821L336.913 353.155ZM344.896 359.876L344.297 359.365L343.659 359.828L327.692 371.437L326.814 372.075L327.522 372.898L331.207 377.175L331.812 377.877L332.558 377.327L349.14 365.108L350.155 364.36L349.195 363.542L344.896 359.876ZM352.322 367.871L351.739 367.291L351.058 367.751L333.862 379.359L332.92 379.995L333.67 380.848L337.969 385.736L338.59 386.441L339.332 385.867L355.914 373.036L356.814 372.339L356.007 371.536L352.322 367.871ZM359.078 375.813L358.49 375.229L357.807 375.698L339.997 387.917L339.199 388.465L339.72 389.28L344.019 396.001L344.604 396.916L345.468 396.257L363.892 382.205L364.804 381.51L363.991 380.701L359.078 375.813ZM184.392 347.599L183.949 347.954L180.878 350.41L179.747 351.315L180.994 352.052L194.505 360.036L195.22 360.458L195.766 359.833L200.065 354.92L201.017 353.833L199.664 353.325L184.925 347.798L184.392 347.599ZM175.876 353.404L175.258 353.033L174.711 353.502L170.412 357.187L169.438 358.022L170.485 358.763L185.224 369.203L185.912 369.69L186.509 369.094L191.422 364.181L192.327 363.275L191.229 362.616L175.876 353.404ZM167.968 360.21L167.328 359.743L166.727 360.258L162.428 363.943L161.476 364.759L162.484 365.506L179.065 377.788L179.814 378.342L180.42 377.635L184.104 373.336L184.808 372.516L183.935 371.878L167.968 360.21ZM160.57 368.173L159.886 367.709L159.301 368.294L155.616 371.979L154.815 372.78L155.709 373.475L172.291 386.372L173.036 386.951L173.658 386.241L177.956 381.328L178.701 380.477L177.765 379.842L160.57 368.173ZM153.82 376.161L153.135 375.688L152.546 376.277L147.633 381.191L146.826 381.997L147.731 382.691L166.155 396.816L167.021 397.48L167.607 396.56L171.906 389.804L172.424 388.991L171.63 388.444L153.82 376.161Z" fill="#969696" stroke="white" stroke-width="2"/>
<path d="M297.806 319.109C297.135 318.623 296.269 318.007 295.238 317.298C292.624 315.501 288.946 313.104 284.688 310.706C276.218 305.937 265.275 301.058 255.817 301.058C246.359 301.058 235.417 305.937 226.947 310.706C222.688 313.104 219.01 315.501 216.397 317.298C215.366 318.007 214.5 318.623 213.828 319.109V280.791C213.881 280.681 213.956 280.528 214.052 280.335C214.264 279.909 214.577 279.292 214.981 278.535C215.788 277.019 216.954 274.941 218.388 272.698C221.28 268.174 225.171 263.121 229.324 260.532C237.166 255.645 243.492 255.681 252.422 255.753L252.423 255.753C253.514 255.761 254.644 255.77 255.817 255.77C256.99 255.77 258.12 255.761 259.211 255.753L259.213 255.753C268.142 255.681 274.469 255.645 282.31 260.532C286.463 263.121 290.355 268.174 293.247 272.698C294.681 274.941 295.847 277.019 296.654 278.535C297.057 279.292 297.371 279.909 297.582 280.335C297.678 280.528 297.753 280.681 297.806 280.791V319.109ZM238.007 275.423C241.612 275.423 244.535 272.5 244.535 268.895C244.535 265.29 241.612 262.368 238.007 262.368C234.403 262.368 231.48 265.29 231.48 268.895C231.48 272.5 234.403 275.423 238.007 275.423ZM225.725 288.933C229.33 288.933 232.252 286.011 232.252 282.406C232.252 278.801 229.33 275.879 225.725 275.879C222.12 275.879 219.198 278.801 219.198 282.406C219.198 286.011 222.12 288.933 225.725 288.933ZM285.91 288.933C289.515 288.933 292.437 286.011 292.437 282.406C292.437 278.801 289.515 275.879 285.91 275.879C282.305 275.879 279.383 278.801 279.383 282.406C279.383 286.011 282.305 288.933 285.91 288.933ZM222.04 308.586C225.645 308.586 228.567 305.663 228.567 302.058C228.567 298.454 225.645 295.531 222.04 295.531C218.435 295.531 215.513 298.454 215.513 302.058C215.513 305.663 218.435 308.586 222.04 308.586ZM289.594 308.586C293.199 308.586 296.122 305.663 296.122 302.058C296.122 298.454 293.199 295.531 289.594 295.531C285.99 295.531 283.067 298.454 283.067 302.058C283.067 305.663 285.99 308.586 289.594 308.586ZM273.627 275.423C277.232 275.423 280.154 272.5 280.154 268.895C280.154 265.29 277.232 262.368 273.627 262.368C270.022 262.368 267.1 265.29 267.1 268.895C267.1 272.5 270.022 275.423 273.627 275.423ZM268.714 298.759C272.319 298.759 275.241 295.837 275.241 292.232C275.241 288.627 272.319 285.705 268.714 285.705C265.109 285.705 262.187 288.627 262.187 292.232C262.187 295.837 265.109 298.759 268.714 298.759ZM242.921 298.759C246.525 298.759 249.448 295.837 249.448 292.232C249.448 288.627 246.525 285.705 242.921 285.705C239.316 285.705 236.393 288.627 236.393 292.232C236.393 295.837 239.316 298.759 242.921 298.759Z" fill="#969696" stroke="white" stroke-width="2"/>
<mask id="path-6-inside-1_170_449" fill="white">
<path fill-rule="evenodd" clip-rule="evenodd" d="M295.12 260.915L325.975 185.991L377.811 124.578L381.513 127.034L353.127 163.882L355.595 167.567H360.532L375.96 142.387L396.324 122.121L399.409 124.578L383.982 147.915L366.086 169.409L367.32 171.866L371.023 172.48L392.621 144.844L421.008 127.034L422.859 128.877L393.855 165.11L374.725 178.621L376.577 182.306H379.662L396.324 169.409L420.391 159.583L421.625 162.04L400.643 181.078L385.833 190.29L387.067 193.36H390.153L400.643 187.833L416.688 184.148V185.991L387.067 208.099L367.32 214.855L368.554 217.926L395.707 211.17L396.941 214.241L368.554 225.909L345.105 232.051L343.87 236.349H353.127L388.919 225.909L390.153 229.594L351.276 244.333L338.934 245.561L335.231 250.474H349.424L376.577 242.491L375.96 246.176L328.443 263.985L364.852 259.072L343.87 270.127L321.655 275.654L316.101 284.252L349.424 275.654L304.993 303.904L303.142 280.567L336.465 227.137L335.231 221.61L329.677 223.453L300.674 268.284L295.12 260.915ZM372.874 194.589C372.874 183.735 364.033 174.936 353.127 174.936C342.221 174.936 333.38 183.735 333.38 194.589C333.38 205.442 342.221 214.241 353.127 214.241C364.033 214.241 372.874 205.442 372.874 194.589Z"/>
<path d="M353.127 185.991C357.898 185.991 361.766 189.84 361.766 194.589C361.766 199.337 357.898 203.186 353.127 203.186C348.356 203.186 344.488 199.337 344.488 194.589C344.488 189.84 348.356 185.991 353.127 185.991Z"/>
<path fill-rule="evenodd" clip-rule="evenodd" d="M217.739 260.915L186.884 185.991L135.048 124.578L131.346 127.034L159.732 163.882L157.264 167.567H152.327L136.899 142.387L116.535 122.121L113.45 124.578L128.877 147.915L146.773 169.409L145.539 171.866L141.836 172.48L120.238 144.844L91.8513 127.034L90 128.877L119.004 165.11L138.134 178.621L136.282 182.306H133.197L116.535 169.409L92.4684 159.583L91.2342 162.04L112.216 181.078L127.026 190.29L125.792 193.36H122.706L112.216 187.833L96.171 184.148V185.991L125.792 208.099L145.539 214.855L144.305 217.926L117.152 211.17L115.918 214.241L144.305 225.909L167.754 232.051L168.989 236.349H159.732L123.94 225.909L122.706 229.594L161.583 244.333L173.925 245.561L177.628 250.474H163.435L136.282 242.491L136.899 246.176L184.416 263.985L148.007 259.072L168.989 270.127L191.204 275.654L196.758 284.252L163.435 275.654L207.866 303.904L209.717 280.567L176.394 227.137L177.628 221.61L183.182 223.453L212.185 268.284L217.739 260.915ZM139.985 194.589C139.985 183.735 148.826 174.936 159.732 174.936C170.638 174.936 179.479 183.735 179.479 194.589C179.479 205.442 170.638 214.241 159.732 214.241C148.826 214.241 139.985 205.442 139.985 194.589Z"/>
<path d="M159.732 185.991C154.961 185.991 151.093 189.84 151.093 194.589C151.093 199.337 154.961 203.186 159.732 203.186C164.503 203.186 168.371 199.337 168.371 194.589C168.371 189.84 164.503 185.991 159.732 185.991Z"/>
</mask>
<path fill-rule="evenodd" clip-rule="evenodd" d="M295.12 260.915L325.975 185.991L377.811 124.578L381.513 127.034L353.127 163.882L355.595 167.567H360.532L375.96 142.387L396.324 122.121L399.409 124.578L383.982 147.915L366.086 169.409L367.32 171.866L371.023 172.48L392.621 144.844L421.008 127.034L422.859 128.877L393.855 165.11L374.725 178.621L376.577 182.306H379.662L396.324 169.409L420.391 159.583L421.625 162.04L400.643 181.078L385.833 190.29L387.067 193.36H390.153L400.643 187.833L416.688 184.148V185.991L387.067 208.099L367.32 214.855L368.554 217.926L395.707 211.17L396.941 214.241L368.554 225.909L345.105 232.051L343.87 236.349H353.127L388.919 225.909L390.153 229.594L351.276 244.333L338.934 245.561L335.231 250.474H349.424L376.577 242.491L375.96 246.176L328.443 263.985L364.852 259.072L343.87 270.127L321.655 275.654L316.101 284.252L349.424 275.654L304.993 303.904L303.142 280.567L336.465 227.137L335.231 221.61L329.677 223.453L300.674 268.284L295.12 260.915ZM372.874 194.589C372.874 183.735 364.033 174.936 353.127 174.936C342.221 174.936 333.38 183.735 333.38 194.589C333.38 205.442 342.221 214.241 353.127 214.241C364.033 214.241 372.874 205.442 372.874 194.589Z" fill="#969696"/>
<path d="M353.127 185.991C357.898 185.991 361.766 189.84 361.766 194.589C361.766 199.337 357.898 203.186 353.127 203.186C348.356 203.186 344.488 199.337 344.488 194.589C344.488 189.84 348.356 185.991 353.127 185.991Z" fill="#969696"/>
<path fill-rule="evenodd" clip-rule="evenodd" d="M217.739 260.915L186.884 185.991L135.048 124.578L131.346 127.034L159.732 163.882L157.264 167.567H152.327L136.899 142.387L116.535 122.121L113.45 124.578L128.877 147.915L146.773 169.409L145.539 171.866L141.836 172.48L120.238 144.844L91.8513 127.034L90 128.877L119.004 165.11L138.134 178.621L136.282 182.306H133.197L116.535 169.409L92.4684 159.583L91.2342 162.04L112.216 181.078L127.026 190.29L125.792 193.36H122.706L112.216 187.833L96.171 184.148V185.991L125.792 208.099L145.539 214.855L144.305 217.926L117.152 211.17L115.918 214.241L144.305 225.909L167.754 232.051L168.989 236.349H159.732L123.94 225.909L122.706 229.594L161.583 244.333L173.925 245.561L177.628 250.474H163.435L136.282 242.491L136.899 246.176L184.416 263.985L148.007 259.072L168.989 270.127L191.204 275.654L196.758 284.252L163.435 275.654L207.866 303.904L209.717 280.567L176.394 227.137L177.628 221.61L183.182 223.453L212.185 268.284L217.739 260.915ZM139.985 194.589C139.985 183.735 148.826 174.936 159.732 174.936C170.638 174.936 179.479 183.735 179.479 194.589C179.479 205.442 170.638 214.241 159.732 214.241C148.826 214.241 139.985 205.442 139.985 194.589Z" fill="#969696"/>
<path d="M159.732 185.991C154.961 185.991 151.093 189.84 151.093 194.589C151.093 199.337 154.961 203.186 159.732 203.186C164.503 203.186 168.371 199.337 168.371 194.589C168.371 189.84 164.503 185.991 159.732 185.991Z" fill="#969696"/>
<path fill-rule="evenodd" clip-rule="evenodd" d="M295.12 260.915L325.975 185.991L377.811 124.578L381.513 127.034L353.127 163.882L355.595 167.567H360.532L375.96 142.387L396.324 122.121L399.409 124.578L383.982 147.915L366.086 169.409L367.32 171.866L371.023 172.48L392.621 144.844L421.008 127.034L422.859 128.877L393.855 165.11L374.725 178.621L376.577 182.306H379.662L396.324 169.409L420.391 159.583L421.625 162.04L400.643 181.078L385.833 190.29L387.067 193.36H390.153L400.643 187.833L416.688 184.148V185.991L387.067 208.099L367.32 214.855L368.554 217.926L395.707 211.17L396.941 214.241L368.554 225.909L345.105 232.051L343.87 236.349H353.127L388.919 225.909L390.153 229.594L351.276 244.333L338.934 245.561L335.231 250.474H349.424L376.577 242.491L375.96 246.176L328.443 263.985L364.852 259.072L343.87 270.127L321.655 275.654L316.101 284.252L349.424 275.654L304.993 303.904L303.142 280.567L336.465 227.137L335.231 221.61L329.677 223.453L300.674 268.284L295.12 260.915ZM372.874 194.589C372.874 183.735 364.033 174.936 353.127 174.936C342.221 174.936 333.38 183.735 333.38 194.589C333.38 205.442 342.221 214.241 353.127 214.241C364.033 214.241 372.874 205.442 372.874 194.589Z" stroke="white" stroke-width="4" mask="url(#path-6-inside-1_170_449)"/>
<path d="M353.127 185.991C357.898 185.991 361.766 189.84 361.766 194.589C361.766 199.337 357.898 203.186 353.127 203.186C348.356 203.186 344.488 199.337 344.488 194.589C344.488 189.84 348.356 185.991 353.127 185.991Z" stroke="white" stroke-width="4" mask="url(#path-6-inside-1_170_449)"/>
<path fill-rule="evenodd" clip-rule="evenodd" d="M217.739 260.915L186.884 185.991L135.048 124.578L131.346 127.034L159.732 163.882L157.264 167.567H152.327L136.899 142.387L116.535 122.121L113.45 124.578L128.877 147.915L146.773 169.409L145.539 171.866L141.836 172.48L120.238 144.844L91.8513 127.034L90 128.877L119.004 165.11L138.134 178.621L136.282 182.306H133.197L116.535 169.409L92.4684 159.583L91.2342 162.04L112.216 181.078L127.026 190.29L125.792 193.36H122.706L112.216 187.833L96.171 184.148V185.991L125.792 208.099L145.539 214.855L144.305 217.926L117.152 211.17L115.918 214.241L144.305 225.909L167.754 232.051L168.989 236.349H159.732L123.94 225.909L122.706 229.594L161.583 244.333L173.925 245.561L177.628 250.474H163.435L136.282 242.491L136.899 246.176L184.416 263.985L148.007 259.072L168.989 270.127L191.204 275.654L196.758 284.252L163.435 275.654L207.866 303.904L209.717 280.567L176.394 227.137L177.628 221.61L183.182 223.453L212.185 268.284L217.739 260.915ZM139.985 194.589C139.985 183.735 148.826 174.936 159.732 174.936C170.638 174.936 179.479 183.735 179.479 194.589C179.479 205.442 170.638 214.241 159.732 214.241C148.826 214.241 139.985 205.442 139.985 194.589Z" stroke="white" stroke-width="4" mask="url(#path-6-inside-1_170_449)"/>
<path d="M159.732 185.991C154.961 185.991 151.093 189.84 151.093 194.589C151.093 199.337 154.961 203.186 159.732 203.186C164.503 203.186 168.371 199.337 168.371 194.589C168.371 189.84 164.503 185.991 159.732 185.991Z" stroke="white" stroke-width="4" mask="url(#path-6-inside-1_170_449)"/>
<path d="M312.047 123.641L318.767 101.648L333.647 76.6495L335.634 77.3119L328.585 99.635L316.338 124.13L315.799 125.207L316.957 125.538L321.256 126.767L322.042 126.991L322.418 126.266L338.956 94.4153L356.749 71.8771L358.959 73.3501L347.068 99.5111L326.242 128.912L325.786 129.555L326.305 130.148L330.604 135.061L331.478 136.059L332.197 134.945L351.199 105.523L364.705 89.6681L366.877 91.1159L348.958 122.773L334.895 139.282L334.416 139.844L334.812 140.467L339.111 147.222L339.918 148.491L340.776 147.256L356.078 125.221L373.118 108.181L374.933 109.996L359.386 136.307L342.25 159.563L318.947 185.319L318.82 185.459L318.753 185.635L292.111 255.874L285.861 253.006L305.901 191.211L305.965 191.012L305.944 190.804L304.949 190.903C305.944 190.804 305.944 190.804 305.944 190.803L305.944 190.803L305.944 190.801L305.944 190.797L305.942 190.784L305.938 190.741C305.933 190.704 305.927 190.653 305.919 190.588C305.902 190.459 305.875 190.277 305.837 190.058C305.76 189.622 305.635 189.027 305.438 188.401C305.243 187.781 304.966 187.092 304.569 186.492C304.176 185.897 303.609 185.308 302.809 185.041C302.009 184.774 301.202 184.906 300.53 185.146C299.853 185.387 299.218 185.773 298.69 186.151C298.157 186.534 297.699 186.935 297.377 187.238C297.214 187.391 297.084 187.52 296.993 187.613C296.976 187.63 296.961 187.646 296.947 187.66C296.923 187.686 296.902 187.707 296.886 187.724L296.856 187.756L296.848 187.765L296.845 187.768L296.844 187.769L296.843 187.77C296.843 187.77 296.843 187.77 297.58 188.446L296.843 187.77L296.691 187.936L296.624 188.151L277.52 249.937L272.898 249.054L283.826 164.056L289.937 137.171L299.719 114.549L299.726 114.533L314.064 82.8712L315.417 83.4124L308.911 107.068L302.788 122.989L302.265 124.348H303.721H311.091H311.831L312.047 123.641ZM214.058 188.446C214.795 187.77 214.794 187.77 214.794 187.77L214.794 187.769L214.793 187.768L214.79 187.765L214.781 187.756L214.751 187.724C214.726 187.697 214.69 187.66 214.645 187.613C214.554 187.52 214.423 187.391 214.261 187.238C213.939 186.935 213.481 186.534 212.948 186.151C212.42 185.773 211.784 185.387 211.107 185.146C210.436 184.906 209.629 184.774 208.829 185.041C208.029 185.308 207.462 185.897 207.069 186.492C206.672 187.092 206.395 187.781 206.2 188.401C206.003 189.027 205.877 189.622 205.801 190.058C205.763 190.277 205.736 190.459 205.719 190.588C205.711 190.653 205.704 190.704 205.7 190.741L205.695 190.784L205.694 190.797L205.694 190.801L205.693 190.803L205.693 190.803C205.693 190.804 205.693 190.804 206.688 190.903L205.693 190.804L205.673 191.012L205.737 191.211L225.776 253.006L219.527 255.874L192.884 185.635L192.817 185.459L192.691 185.319L169.388 159.563L152.252 136.307L136.705 109.996L138.52 108.181L155.559 125.221L170.862 147.256L171.719 148.491L172.527 147.222L176.826 140.467L177.222 139.844L176.743 139.282L162.68 122.773L144.761 91.1159L146.933 89.6681L160.439 105.523L179.441 134.945L180.16 136.059L181.033 135.061L185.332 130.148L185.851 129.555L185.396 128.912L164.57 99.5111L152.679 73.3501L154.888 71.8771L172.682 94.4153L189.219 126.266L189.596 126.991L190.382 126.767L194.681 125.538L195.839 125.207L195.3 124.13L183.053 99.635L176.004 77.3119L177.991 76.6495L192.871 101.647L199.591 123.641L199.807 124.348H200.547H207.917H209.373L208.85 122.989L202.726 107.068L196.221 83.4124L197.574 82.8712L211.915 114.541L221.701 137.171L227.811 164.056L238.74 249.054L234.118 249.937L215.013 188.151L214.947 187.936L214.795 187.77L214.058 188.446ZM335.428 156.512C335.428 144.427 325.631 134.631 313.547 134.631C301.463 134.631 291.667 144.427 291.667 156.512C291.667 168.596 301.463 178.392 313.547 178.392C325.631 178.392 335.428 168.596 335.428 156.512ZM313.547 150.142C317.065 150.142 319.917 152.994 319.917 156.512C319.917 160.029 317.065 162.881 313.547 162.881C310.029 162.881 307.178 160.029 307.178 156.512C307.178 152.994 310.029 150.142 313.547 150.142ZM198.091 134.631C186.006 134.631 176.21 144.427 176.21 156.512C176.21 168.596 186.006 178.392 198.091 178.392C210.175 178.392 219.971 168.596 219.971 156.512C219.971 144.427 210.175 134.631 198.091 134.631ZM191.721 156.512C191.721 152.994 194.573 150.142 198.091 150.142C201.608 150.142 204.46 152.994 204.46 156.512C204.46 160.029 201.608 162.881 198.091 162.881C194.573 162.881 191.721 160.029 191.721 156.512Z" fill="#969696" stroke="white" stroke-width="2"/>
<path d="M260.513 248.859L261.728 160.209L261.731 159.989L261.64 159.787L260.728 160.196C261.64 159.787 261.64 159.787 261.64 159.787L261.64 159.786L261.639 159.785L261.637 159.78L261.631 159.766L261.609 159.718C261.59 159.677 261.562 159.619 261.527 159.547C261.456 159.402 261.353 159.197 261.222 158.953C260.959 158.467 260.577 157.813 260.099 157.153C259.625 156.498 259.033 155.803 258.344 155.263C257.659 154.727 256.8 154.283 255.815 154.283C254.829 154.283 253.97 154.727 253.285 155.263C252.596 155.803 252.004 156.498 251.53 157.153C251.053 157.813 250.67 158.467 250.408 158.953C250.276 159.197 250.173 159.402 250.102 159.547C250.067 159.619 250.04 159.677 250.021 159.718L249.998 159.766L249.992 159.78L249.99 159.785L249.989 159.786L249.989 159.787C249.989 159.787 249.989 159.787 250.902 160.196L249.989 159.787L249.899 159.989L249.902 160.209L251.116 248.859H245.65L234.699 155.167L234.688 155.076L234.662 154.988L227.5 131.736L226.15 126.007L226.127 125.908L226.084 125.815L216.229 104.589L210.248 80.6655L211.409 79.5046L220.521 94.3113L227.707 113.474L228.396 115.312L229.478 113.673C230.281 112.456 231.216 111.299 232.27 110.214L232.693 109.778L232.501 109.201L227.316 93.6473L222.517 55.2547L224.426 54.6184L230.28 75.692L236.998 104.806L237.301 106.117L238.469 105.449C239.648 104.775 240.891 104.167 242.192 103.633L242.912 103.337L242.802 102.567L238.387 71.665L237.194 47.798L238.003 47.3935L245 70.7168L247.316 100.826L247.402 101.952L248.51 101.73C249.874 101.456 251.277 101.256 252.71 101.138L253.675 101.059L253.626 100.092L251.904 65.6462L255.488 31H256.141L259.726 65.6545L258.576 100.16L258.544 101.097L259.478 101.189C260.728 101.311 261.954 101.495 263.151 101.736L264.238 101.955L264.344 100.852L267.242 70.7144L273.652 47.4062L274.435 47.798L273.242 71.665L268.828 102.567L268.717 103.337L269.438 103.633C270.738 104.167 271.982 104.775 273.16 105.449L274.328 106.117L274.631 104.806L281.349 75.6921L287.203 54.6184L289.112 55.2547L284.313 93.6473L279.128 109.201L278.936 109.778L279.36 110.214C280.413 111.299 281.348 112.456 282.151 113.673L283.233 115.312L283.922 113.474L291.108 94.3113L300.22 79.5046L301.381 80.6655L295.4 104.589L285.545 125.815L285.502 125.908L285.479 126.007L284.129 131.736L276.968 154.988L276.941 155.076L276.93 155.167L265.979 248.859H260.513ZM248.217 128.261C248.217 124.065 251.618 120.663 255.815 120.663C260.011 120.663 263.412 124.065 263.412 128.261C263.412 132.457 260.011 135.859 255.815 135.859C251.618 135.859 248.217 132.457 248.217 128.261ZM255.815 107.609C244.409 107.609 235.162 116.855 235.162 128.261C235.162 139.667 244.409 148.913 255.815 148.913C267.22 148.913 276.467 139.667 276.467 128.261C276.467 116.855 267.22 107.609 255.815 107.609Z" fill="#969696" stroke="white" stroke-width="2"/>
</svg>
