<svg width="512" height="512" viewBox="0 0 512 512" fill="none" xmlns="http://www.w3.org/2000/svg">
<path d="M0 0H512V512H0V0Z" fill="white"/>
<path fill-rule="evenodd" clip-rule="evenodd" d="M290.204 357.945L282.834 367.771V408.918H274.851V375.141L265.025 391.108V408.918L255.813 410.761L246.601 408.918V391.108L236.775 375.141V408.918H228.791V367.771L221.421 357.945C221.421 357.945 207.611 365.191 199.927 371.456C185.613 383.127 171.062 408.918 171.062 408.918C171.062 408.918 185.188 418.744 195.014 420.587C204.84 422.429 217.122 415.059 217.122 415.059C217.122 415.059 231.247 425.5 239.845 425.5C248.443 425.5 255.813 416.902 255.813 416.902C255.813 416.902 263.182 425.5 271.78 425.5C280.378 425.5 294.503 415.059 294.503 415.059C294.503 415.059 306.785 422.429 316.612 420.587C326.438 418.744 340.563 408.918 340.563 408.918C340.563 408.918 326.013 383.127 311.698 371.456C304.014 365.191 290.204 357.945 290.204 357.945ZM308.628 384.967L294.503 370.228L290.204 375.141L303.715 388.652L308.628 384.967ZM308.628 394.793L313.541 391.108L325.209 408.918L319.682 410.761L308.628 394.793ZM202.997 384.967L217.122 370.228L221.421 375.141L207.91 388.652L202.997 384.967ZM202.997 394.793L198.084 391.108L186.416 408.918L191.943 410.761L202.997 394.793Z" fill="#008000"/>
<path fill-rule="evenodd" clip-rule="evenodd" d="M235.548 429.184H245.527L246.774 436.305L260.495 442.239L266.732 435.118V429.184H277.334V437.492L316.002 454.108L284.819 455.888L277.334 447.58V455.888L282.324 460.636H276.087L271.721 481.999L267.979 455.888L263.614 454.108L245.527 463.603L240.538 481.999L238.043 464.79L223.698 465.977L236.795 458.262L235.548 451.141L220.58 455.888L195.633 458.262L235.548 436.305V429.184ZM254.882 451.141L246.774 446.393V452.921L254.882 451.141Z" fill="#A80000"/>
<path fill-rule="evenodd" clip-rule="evenodd" d="M255.818 399.706C257.525 399.706 258.961 392.931 259.379 383.738C260.347 380.247 262.737 376.319 264.771 373.03C277.362 367.149 286.524 350.676 286.524 345.662C286.524 341.825 281.156 331.273 272.991 323.896C272.53 314.811 265.018 307.586 255.818 307.586C246.618 307.586 239.105 314.811 238.644 323.896C230.479 331.273 225.111 341.825 225.111 345.662C225.111 350.676 234.273 367.149 246.865 373.03C248.899 376.319 251.289 380.247 252.256 383.738C252.674 392.931 254.11 399.706 255.818 399.706ZM276.698 345.662C276.391 338.538 264.415 332.151 264.415 332.151V341.363C264.415 341.363 267.956 343.456 268.1 345.662C268.256 348.055 264.415 350.575 264.415 350.575V360.401C264.415 360.401 277.021 353.148 276.698 345.662ZM234.937 345.662C235.244 338.538 247.22 332.151 247.22 332.151V341.363C247.22 341.363 243.679 343.456 243.535 345.662C243.379 348.055 247.22 350.575 247.22 350.575V360.401C247.22 360.401 234.615 353.148 234.937 345.662Z" fill="#A80000"/>
<path fill-rule="evenodd" clip-rule="evenodd" d="M292.66 333.754V351.472C292.66 351.472 302.353 356.15 308.014 360.026C326.745 372.85 343.633 405.849 343.633 405.849C343.633 405.849 364.613 386.782 380.481 378.355C391.875 372.305 411.188 366.136 411.188 366.136C411.188 366.136 397.829 359.962 389.079 361.248C382.599 362.2 373.726 367.969 373.726 367.969C373.726 367.969 359.596 348.022 346.09 341.697C335.066 336.534 315.383 336.198 315.383 336.198C315.383 336.198 346.025 317.109 368.199 313.592C382.409 311.338 405.046 313.592 405.046 313.592C405.046 313.592 388.229 303.62 376.182 301.984C356.402 299.297 327.052 316.036 327.052 316.036C327.052 316.036 342.999 300.631 355.916 295.874C370.563 290.48 395.834 293.43 395.834 293.43C395.834 293.43 379.431 285.675 368.199 285.488C356.274 285.289 349.634 288.644 338.72 293.43C316.796 303.046 292.66 333.754 292.66 333.754ZM312.313 353.916L327.052 348.418L330.122 350.861L316.612 358.804L312.313 353.916ZM340.563 357.582L336.264 353.916L320.91 363.081L325.824 367.969L340.563 357.582ZM348.546 364.303L344.247 360.637L328.28 372.245L331.965 376.522L348.546 364.303ZM355.302 372.245L351.617 368.58L334.421 380.188L338.72 385.076L355.302 372.245ZM363.286 381.41L358.372 376.522L340.563 388.742L344.862 395.462L363.286 381.41Z" fill="#008000"/>
<path fill-rule="evenodd" clip-rule="evenodd" d="M218.965 333.995V351.805C218.965 351.805 209.272 356.507 203.611 360.403C184.88 373.294 167.992 406.463 167.992 406.463C167.992 406.463 147.012 387.297 131.144 378.827C119.75 372.745 100.438 366.544 100.438 366.544C100.438 366.544 113.797 360.338 122.546 361.631C129.026 362.589 137.899 368.387 137.899 368.387C137.899 368.387 152.029 348.337 165.535 341.979C176.559 336.79 196.242 336.452 196.242 336.452C196.242 336.452 165.6 317.264 143.427 313.729C129.216 311.464 106.579 313.729 106.579 313.729C106.579 313.729 123.396 303.706 135.443 302.061C155.223 299.36 184.573 316.186 184.573 316.186C184.573 316.186 168.626 300.701 155.709 295.919C141.062 290.497 115.791 293.463 115.791 293.463C115.791 293.463 132.194 285.667 143.427 285.479C155.352 285.279 161.992 288.652 172.905 293.463C194.829 303.128 218.965 333.995 218.965 333.995ZM199.313 354.262L184.573 348.735L181.503 351.191L195.014 359.175L199.313 354.262ZM171.063 357.947L175.361 354.262L190.715 363.474L185.802 368.387L171.063 357.947ZM163.079 364.702L167.378 361.017L183.345 372.686L179.66 376.985L163.079 364.702ZM156.323 372.686L160.008 369.001L177.204 380.669L172.905 385.582L156.323 372.686ZM148.34 381.898L153.253 376.985L171.063 389.267L166.764 396.023L148.34 381.898Z" fill="#008000"/>
<path fill-rule="evenodd" clip-rule="evenodd" d="M228.796 259.683C220.084 265.113 212.828 280.564 212.828 280.564V321.096C212.828 321.096 237.456 302.058 255.817 302.058C274.178 302.058 298.806 321.096 298.806 321.096V280.564C298.806 280.564 291.551 265.113 282.839 259.683C274.729 254.628 268.134 254.681 259.205 254.753C258.113 254.761 256.986 254.77 255.817 254.77C254.648 254.77 253.522 254.761 252.43 254.753C243.501 254.681 236.906 254.628 228.796 259.683ZM243.535 268.895C243.535 271.948 241.06 274.423 238.007 274.423C234.955 274.423 232.48 271.948 232.48 268.895C232.48 265.843 234.955 263.368 238.007 263.368C241.06 263.368 243.535 265.843 243.535 268.895ZM225.725 287.933C228.777 287.933 231.252 285.459 231.252 282.406C231.252 279.354 228.777 276.879 225.725 276.879C222.672 276.879 220.198 279.354 220.198 282.406C220.198 285.459 222.672 287.933 225.725 287.933ZM227.567 302.058C227.567 305.111 225.093 307.586 222.04 307.586C218.988 307.586 216.513 305.111 216.513 302.058C216.513 299.006 218.988 296.531 222.04 296.531C225.093 296.531 227.567 299.006 227.567 302.058ZM242.921 297.759C245.973 297.759 248.448 295.285 248.448 292.232C248.448 289.18 245.973 286.705 242.921 286.705C239.868 286.705 237.393 289.18 237.393 292.232C237.393 295.285 239.868 297.759 242.921 297.759ZM274.241 292.232C274.241 295.285 271.767 297.759 268.714 297.759C265.661 297.759 263.187 295.285 263.187 292.232C263.187 289.18 265.661 286.705 268.714 286.705C271.767 286.705 274.241 289.18 274.241 292.232ZM273.627 274.423C276.68 274.423 279.154 271.948 279.154 268.895C279.154 265.843 276.68 263.368 273.627 263.368C270.575 263.368 268.1 265.843 268.1 268.895C268.1 271.948 270.575 274.423 273.627 274.423ZM291.437 282.406C291.437 285.459 288.962 287.933 285.91 287.933C282.857 287.933 280.383 285.459 280.383 282.406C280.383 279.354 282.857 276.879 285.91 276.879C288.962 276.879 291.437 279.354 291.437 282.406ZM289.594 307.586C292.647 307.586 295.122 305.111 295.122 302.058C295.122 299.006 292.647 296.531 289.594 296.531C286.542 296.531 284.067 299.006 284.067 302.058C284.067 305.111 286.542 307.586 289.594 307.586Z" fill="#008000"/>
<path fill-rule="evenodd" clip-rule="evenodd" d="M295.12 260.915L325.975 185.991L377.811 124.578L381.513 127.034L353.127 163.882L355.595 167.567H360.532L375.96 142.387L396.324 122.121L399.409 124.578L383.982 147.915L366.086 169.409L367.32 171.866L371.023 172.48L392.621 144.844L421.008 127.034L422.859 128.877L393.855 165.11L374.725 178.621L376.577 182.306H379.662L396.324 169.409L420.391 159.583L421.625 162.04L400.643 181.078L385.833 190.29L387.067 193.36H390.153L400.643 187.833L416.688 184.148V185.991L387.067 208.099L367.32 214.855L368.554 217.926L395.707 211.17L396.941 214.241L368.554 225.909L345.105 232.051L343.87 236.349H353.127L388.919 225.909L390.153 229.594L351.276 244.333L338.934 245.561L335.231 250.474H349.424L376.577 242.491L375.96 246.176L328.443 263.985L364.852 259.072L343.87 270.127L321.655 275.654L316.101 284.252L349.424 275.654L304.993 303.904L303.142 280.567L336.465 227.137L335.231 221.61L329.677 223.453L300.674 268.284L295.12 260.915ZM372.874 194.589C372.874 183.735 364.033 174.936 353.127 174.936C342.221 174.936 333.38 183.735 333.38 194.589C333.38 205.442 342.221 214.241 353.127 214.241C364.033 214.241 372.874 205.442 372.874 194.589Z" fill="black"/>
<path d="M353.127 185.991C357.898 185.991 361.766 189.84 361.766 194.589C361.766 199.337 357.898 203.186 353.127 203.186C348.356 203.186 344.488 199.337 344.488 194.589C344.488 189.84 348.356 185.991 353.127 185.991Z" fill="black"/>
<path fill-rule="evenodd" clip-rule="evenodd" d="M217.739 260.915L186.884 185.991L135.048 124.578L131.346 127.034L159.732 163.882L157.264 167.567H152.327L136.899 142.387L116.535 122.121L113.45 124.578L128.877 147.915L146.773 169.409L145.539 171.866L141.836 172.48L120.238 144.844L91.8513 127.034L90 128.877L119.004 165.11L138.134 178.621L136.282 182.306H133.197L116.535 169.409L92.4684 159.583L91.2342 162.04L112.216 181.078L127.026 190.29L125.792 193.36H122.706L112.216 187.833L96.171 184.148V185.991L125.792 208.099L145.539 214.855L144.305 217.926L117.152 211.17L115.918 214.241L144.305 225.909L167.754 232.051L168.989 236.349H159.732L123.94 225.909L122.706 229.594L161.583 244.333L173.925 245.561L177.628 250.474H163.435L136.282 242.491L136.899 246.176L184.416 263.985L148.007 259.072L168.989 270.127L191.204 275.654L196.758 284.252L163.435 275.654L207.866 303.904L209.717 280.567L176.394 227.137L177.628 221.61L183.182 223.453L212.185 268.284L217.739 260.915ZM139.985 194.589C139.985 183.735 148.826 174.936 159.732 174.936C170.638 174.936 179.479 183.735 179.479 194.589C179.479 205.442 170.638 214.241 159.732 214.241C148.826 214.241 139.985 205.442 139.985 194.589Z" fill="black"/>
<path d="M159.732 185.991C154.961 185.991 151.093 189.84 151.093 194.589C151.093 199.337 154.961 203.186 159.732 203.186C164.503 203.186 168.371 199.337 168.371 194.589C168.371 189.84 164.503 185.991 159.732 185.991Z" fill="black"/>
<path fill-rule="evenodd" clip-rule="evenodd" d="M271.786 249.859L282.841 163.881L288.982 136.859L298.808 114.136L313.547 81.5876L316.618 82.8158L309.862 107.381L303.721 123.348H311.091L317.846 101.24L333.199 75.4463L336.884 76.6745L329.515 100.011L317.232 124.577L321.531 125.805L338.112 93.8702L356.536 70.5332L360.221 72.9897L347.939 100.011L327.058 129.49L331.357 134.403L350.395 104.925L364.52 88.343L368.205 90.7995L349.781 123.348L335.656 139.93L339.955 146.685L355.308 124.577L373.118 106.767L376.189 109.838L360.221 136.859L343.025 160.196L319.688 185.99L292.667 257.229L284.636 253.544L304.949 190.903C304.949 190.903 304.528 186.668 302.493 185.99C300.458 185.311 297.58 188.446 297.58 188.446L278.211 251.088L271.786 249.859ZM334.428 156.512C334.428 144.98 325.079 135.631 313.547 135.631C302.015 135.631 292.667 144.98 292.667 156.512C292.667 168.043 302.015 177.392 313.547 177.392C325.079 177.392 334.428 168.043 334.428 156.512Z" fill="black"/>
<path d="M313.547 149.142C317.617 149.142 320.917 152.441 320.917 156.512C320.917 160.582 317.617 163.881 313.547 163.881C309.477 163.881 306.178 160.582 306.178 156.512C306.178 152.441 309.477 149.142 313.547 149.142Z" fill="black"/>
<path fill-rule="evenodd" clip-rule="evenodd" d="M239.851 249.859L228.797 163.881L222.656 136.859L212.83 114.136L198.091 81.5876L195.02 82.8158L201.775 107.381L207.917 123.348H200.547L193.792 101.24L178.438 75.4463L174.754 76.6745L182.123 100.011L194.406 124.577L190.107 125.805L173.525 93.8702L155.101 70.5332L151.417 72.9897L163.699 100.011L184.58 129.49L180.281 134.403L161.243 104.925L147.118 88.343L143.433 90.7995L161.857 123.348L175.982 139.93L171.683 146.685L156.33 124.577L138.52 106.767L135.449 109.838L151.417 136.859L168.612 160.196L191.949 185.99L218.971 257.229L227.002 253.544L206.688 190.903C206.688 190.903 207.11 186.668 209.145 185.99C211.18 185.311 214.058 188.446 214.058 188.446L233.427 251.088L239.851 249.859ZM177.21 156.512C177.21 144.98 186.559 135.631 198.091 135.631C209.623 135.631 218.971 144.98 218.971 156.512C218.971 168.043 209.623 177.392 198.091 177.392C186.559 177.392 177.21 168.043 177.21 156.512Z" fill="black"/>
<path d="M198.091 149.142C194.02 149.142 190.721 152.441 190.721 156.512C190.721 160.582 194.02 163.881 198.091 163.881C202.161 163.881 205.46 160.582 205.46 156.512C205.46 152.441 202.161 149.142 198.091 149.142Z" fill="black"/>
<path fill-rule="evenodd" clip-rule="evenodd" d="M254.586 30H257.043L260.728 65.6196L259.575 100.193C260.859 100.319 262.119 100.508 263.349 100.756L266.255 70.5326L273.01 45.9674L275.467 47.1957L274.239 71.7609L269.817 102.708C271.157 103.258 272.44 103.885 273.656 104.581L280.38 75.4457L286.521 53.337L290.206 54.5652L285.293 93.8696L280.077 109.517C281.172 110.645 282.147 111.851 282.986 113.122L290.206 93.8696L300.032 77.9022L302.489 80.3587L296.347 104.924L286.452 126.237L285.095 131.998L277.923 155.283L266.869 249.859H259.499L260.728 160.196C260.728 160.196 258.528 155.283 255.815 155.283C253.101 155.283 250.902 160.196 250.902 160.196L252.13 249.859H244.76L233.706 155.283L226.534 131.998L225.177 126.237L215.282 104.924L209.141 80.3587L211.597 77.9022L221.423 93.8696L228.643 113.122C229.482 111.851 230.457 110.645 231.552 109.517L226.336 93.8696L221.423 54.5652L225.108 53.337L231.249 75.4457L237.973 104.581C239.189 103.885 240.472 103.258 241.812 102.708L237.391 71.7609L236.162 47.1957L238.619 45.9674L245.988 70.5326L248.313 100.749C249.715 100.468 251.156 100.263 252.628 100.142L250.902 65.6196L254.586 30ZM236.162 128.261C236.162 117.407 244.961 108.609 255.815 108.609C266.668 108.609 275.467 117.407 275.467 128.261C275.467 139.115 266.668 147.913 255.815 147.913C244.961 147.913 236.162 139.115 236.162 128.261Z" fill="#9A5300"/>
<path d="M255.815 119.663C251.066 119.663 247.217 123.512 247.217 128.261C247.217 133.009 251.066 136.859 255.815 136.859C260.563 136.859 264.412 133.009 264.412 128.261C264.412 123.512 260.563 119.663 255.815 119.663Z" fill="#9A5300"/>
</svg>
