<svg width="512" height="512" viewBox="0 0 512 512" fill="none" xmlns="http://www.w3.org/2000/svg">
<path d="M1 1H511V511H1V1Z" fill="white" stroke="white" stroke-width="2"/>
<mask id="path-2-inside-1_170_527" fill="white">
<path d="M197.564 315.894C187.327 315.894 176.358 314.675 164.658 312.237C152.958 309.312 144.914 305.169 140.527 299.806C141.014 299.319 143.208 297.856 147.108 295.419C151.008 292.981 155.396 291.762 160.271 291.762C166.121 291.762 173.189 292.981 181.477 295.419C183.427 295.906 186.839 296.637 191.714 297.612C197.077 298.587 202.439 299.075 207.802 299.075C217.552 299.075 224.133 298.1 227.546 296.15C230.958 294.2 232.664 289.813 232.664 282.988C232.664 281.525 231.202 280.55 228.277 280.062C225.839 279.088 224.133 277.869 223.158 276.406C223.158 273.969 224.133 271.775 226.083 269.825C228.521 267.387 230.471 264.95 231.933 262.513C233.396 260.075 235.346 256.906 237.783 253.006C240.221 249.106 242.171 246.181 243.633 244.231C245.583 242.281 247.777 241.306 250.214 241.306C251.677 241.306 252.896 242.037 253.871 243.5C254.846 244.963 255.333 246.669 255.333 248.619C255.333 254.956 254.114 261.781 251.677 269.094C249.727 276.406 248.264 282.256 247.289 286.644C248.752 289.081 250.458 290.3 252.408 290.3C255.333 290.3 259.477 284.694 264.839 273.481C270.689 262.269 273.614 254.225 273.614 249.35C273.614 246.425 271.908 243.744 268.496 241.306C265.571 238.869 263.621 236.675 262.646 234.725C264.108 231.8 267.277 228.144 272.152 223.756C277.027 219.369 282.389 216.2 288.239 214.25C292.139 215.713 295.552 219.125 298.477 224.487C301.402 229.362 302.864 234.969 302.864 241.306C302.864 246.181 300.914 252.031 297.014 258.856C292.627 264.706 290.189 271.044 289.702 277.869C296.527 276.894 301.889 275.919 305.789 274.944C321.389 272.019 335.527 270.556 348.202 270.556C363.802 270.556 372.821 272.262 375.258 275.675C371.846 282.5 366.483 287.619 359.171 291.031C352.833 290.544 339.671 290.3 319.683 290.3C309.933 290.3 299.696 291.519 288.971 293.956C278.733 296.394 265.814 299.806 250.214 304.194C240.464 307.119 230.714 309.8 220.964 312.237C211.702 314.675 203.902 315.894 197.564 315.894ZM316.758 477.5C310.421 477.5 298.721 474.331 281.658 467.994C265.083 461.169 253.383 455.562 246.558 451.175C244.608 451.662 242.171 453.125 239.246 455.562C236.321 458 234.127 459.219 232.664 459.219C227.789 459.219 223.158 458.487 218.771 457.025C214.383 455.075 211.214 453.856 209.264 453.369C209.264 454.831 209.021 457.513 208.533 461.413C208.533 464.825 208.046 467.75 207.071 470.188C206.096 472.137 204.389 473.112 201.952 473.112C197.564 473.112 193.421 467.75 189.521 457.025C186.108 445.812 184.158 439.231 183.671 437.281H174.896C165.633 437.281 157.102 435.819 149.302 432.894C141.502 429.969 137.602 425.825 137.602 420.462L138.333 415.344C142.72 415.344 148.814 415.831 156.614 416.806C164.414 417.781 170.508 418.269 174.896 418.269H177.821C177.333 412.906 176.114 406.569 174.164 399.256C171.239 384.631 169.777 376.1 169.777 373.663C169.777 372.688 170.752 371.225 172.702 369.275C178.552 370.25 182.452 372.687 184.402 376.587C186.839 380 189.033 385.606 190.983 393.406C193.908 404.131 196.833 412.175 199.758 417.537C206.583 417.537 212.677 416.806 218.039 415.344C223.402 413.394 226.571 412.175 227.546 411.688L228.277 390.481C226.814 390.481 222.914 391.7 216.577 394.138C215.602 395.6 214.383 397.794 212.921 400.719C211.458 403.644 209.508 406.325 207.071 408.763C204.146 407.3 201.464 402.425 199.027 394.138C197.077 385.363 196.102 376.1 196.102 366.35C196.102 347.825 197.077 334.419 199.027 326.131C215.114 323.694 236.808 318.819 264.108 311.506C281.171 306.631 292.871 304.194 299.208 304.194C309.446 304.194 314.564 307.606 314.564 314.431C314.564 315.894 312.858 322.231 309.446 333.444C306.033 344.169 304.327 357.331 304.327 372.931C304.327 380.731 304.814 389.019 305.789 397.794C322.364 399.256 339.914 403.644 358.439 410.956C376.964 417.781 386.227 428.262 386.227 442.4C386.227 450.687 383.058 457.025 376.721 461.413C370.383 465.8 362.339 467.994 352.589 467.994C350.639 467.994 348.202 468.481 345.277 469.456C342.352 470.431 340.158 471.163 338.696 471.65C328.946 475.55 321.633 477.5 316.758 477.5ZM244.364 345.144C251.189 344.169 256.796 343.194 261.183 342.219C266.058 340.756 270.689 339.781 275.077 339.294L275.808 322.475C271.421 323.45 266.302 324.912 260.452 326.862C254.602 328.325 249.971 329.3 246.558 329.788C246.071 332.713 245.583 335.394 245.096 337.831C244.608 340.269 244.364 342.706 244.364 345.144ZM216.577 350.262C219.502 350.262 221.939 350.019 223.889 349.531C226.327 349.044 228.277 348.556 229.739 348.069C229.739 344.169 230.227 339.294 231.202 333.444L213.652 336.369V349.531L216.577 350.262ZM244.364 373.663C251.189 373.175 260.939 370.981 273.614 367.081C273.614 359.769 273.858 354.162 274.346 350.262C263.621 353.675 253.627 356.113 244.364 357.575V373.663ZM214.383 378.781C216.821 378.781 221.452 378.294 228.277 377.319V360.5C224.377 360.987 220.964 361.475 218.039 361.962C215.114 362.45 213.652 363.181 213.652 364.156C213.652 365.131 213.652 366.594 213.652 368.544L214.383 378.781ZM245.827 406.569C256.552 404.619 266.058 401.937 274.346 398.525C274.346 390.237 274.102 383.9 273.614 379.512C269.714 380.487 265.327 381.706 260.452 383.169C256.064 384.144 251.189 385.362 245.827 386.825V406.569ZM290.433 458.487C294.821 458.487 299.452 456.781 304.327 453.369C309.202 449.469 312.858 447.031 315.296 446.056C317.733 445.081 322.364 444.35 329.189 443.862C336.502 442.887 341.864 441.425 345.277 439.475C349.177 437.525 351.127 433.869 351.127 428.506C351.127 424.606 346.008 420.95 335.771 417.537C325.533 413.637 316.271 411.444 307.983 410.956C307.983 412.419 308.227 414.856 308.714 418.269C309.689 421.194 310.177 423.875 310.177 426.312C310.177 428.75 309.446 431.431 307.983 434.356C304.571 436.794 300.183 438.988 294.821 440.938C289.458 442.887 284.827 443.862 280.927 443.862C279.952 442.4 279.221 440.938 278.733 439.475C278.246 437.525 277.514 435.819 276.539 434.356C273.614 435.331 270.446 437.038 267.033 439.475C263.621 441.913 260.452 443.619 257.527 444.594C259.477 447.519 264.352 450.687 272.152 454.1C279.952 457.025 286.046 458.487 290.433 458.487ZM250.214 431.431C252.652 431.431 256.064 430.456 260.452 428.506C265.327 426.556 270.446 424.85 275.808 423.387C274.833 418.025 274.589 414.125 275.077 411.688C270.202 412.175 264.839 413.394 258.989 415.344C253.139 417.294 248.996 418.756 246.558 419.731C246.558 422.656 246.802 425.337 247.289 427.775C248.264 430.212 249.239 431.431 250.214 431.431ZM207.802 444.594C214.627 443.131 222.427 440.45 231.202 436.55C228.764 433.625 227.546 429.725 227.546 424.85L202.683 432.894L207.802 444.594Z"/>
</mask>
<path d="M197.564 315.894C187.327 315.894 176.358 314.675 164.658 312.237C152.958 309.312 144.914 305.169 140.527 299.806C141.014 299.319 143.208 297.856 147.108 295.419C151.008 292.981 155.396 291.762 160.271 291.762C166.121 291.762 173.189 292.981 181.477 295.419C183.427 295.906 186.839 296.637 191.714 297.612C197.077 298.587 202.439 299.075 207.802 299.075C217.552 299.075 224.133 298.1 227.546 296.15C230.958 294.2 232.664 289.813 232.664 282.988C232.664 281.525 231.202 280.55 228.277 280.062C225.839 279.088 224.133 277.869 223.158 276.406C223.158 273.969 224.133 271.775 226.083 269.825C228.521 267.387 230.471 264.95 231.933 262.513C233.396 260.075 235.346 256.906 237.783 253.006C240.221 249.106 242.171 246.181 243.633 244.231C245.583 242.281 247.777 241.306 250.214 241.306C251.677 241.306 252.896 242.037 253.871 243.5C254.846 244.963 255.333 246.669 255.333 248.619C255.333 254.956 254.114 261.781 251.677 269.094C249.727 276.406 248.264 282.256 247.289 286.644C248.752 289.081 250.458 290.3 252.408 290.3C255.333 290.3 259.477 284.694 264.839 273.481C270.689 262.269 273.614 254.225 273.614 249.35C273.614 246.425 271.908 243.744 268.496 241.306C265.571 238.869 263.621 236.675 262.646 234.725C264.108 231.8 267.277 228.144 272.152 223.756C277.027 219.369 282.389 216.2 288.239 214.25C292.139 215.713 295.552 219.125 298.477 224.487C301.402 229.362 302.864 234.969 302.864 241.306C302.864 246.181 300.914 252.031 297.014 258.856C292.627 264.706 290.189 271.044 289.702 277.869C296.527 276.894 301.889 275.919 305.789 274.944C321.389 272.019 335.527 270.556 348.202 270.556C363.802 270.556 372.821 272.262 375.258 275.675C371.846 282.5 366.483 287.619 359.171 291.031C352.833 290.544 339.671 290.3 319.683 290.3C309.933 290.3 299.696 291.519 288.971 293.956C278.733 296.394 265.814 299.806 250.214 304.194C240.464 307.119 230.714 309.8 220.964 312.237C211.702 314.675 203.902 315.894 197.564 315.894ZM316.758 477.5C310.421 477.5 298.721 474.331 281.658 467.994C265.083 461.169 253.383 455.562 246.558 451.175C244.608 451.662 242.171 453.125 239.246 455.562C236.321 458 234.127 459.219 232.664 459.219C227.789 459.219 223.158 458.487 218.771 457.025C214.383 455.075 211.214 453.856 209.264 453.369C209.264 454.831 209.021 457.513 208.533 461.413C208.533 464.825 208.046 467.75 207.071 470.188C206.096 472.137 204.389 473.112 201.952 473.112C197.564 473.112 193.421 467.75 189.521 457.025C186.108 445.812 184.158 439.231 183.671 437.281H174.896C165.633 437.281 157.102 435.819 149.302 432.894C141.502 429.969 137.602 425.825 137.602 420.462L138.333 415.344C142.72 415.344 148.814 415.831 156.614 416.806C164.414 417.781 170.508 418.269 174.896 418.269H177.821C177.333 412.906 176.114 406.569 174.164 399.256C171.239 384.631 169.777 376.1 169.777 373.663C169.777 372.688 170.752 371.225 172.702 369.275C178.552 370.25 182.452 372.687 184.402 376.587C186.839 380 189.033 385.606 190.983 393.406C193.908 404.131 196.833 412.175 199.758 417.537C206.583 417.537 212.677 416.806 218.039 415.344C223.402 413.394 226.571 412.175 227.546 411.688L228.277 390.481C226.814 390.481 222.914 391.7 216.577 394.138C215.602 395.6 214.383 397.794 212.921 400.719C211.458 403.644 209.508 406.325 207.071 408.763C204.146 407.3 201.464 402.425 199.027 394.138C197.077 385.363 196.102 376.1 196.102 366.35C196.102 347.825 197.077 334.419 199.027 326.131C215.114 323.694 236.808 318.819 264.108 311.506C281.171 306.631 292.871 304.194 299.208 304.194C309.446 304.194 314.564 307.606 314.564 314.431C314.564 315.894 312.858 322.231 309.446 333.444C306.033 344.169 304.327 357.331 304.327 372.931C304.327 380.731 304.814 389.019 305.789 397.794C322.364 399.256 339.914 403.644 358.439 410.956C376.964 417.781 386.227 428.262 386.227 442.4C386.227 450.687 383.058 457.025 376.721 461.413C370.383 465.8 362.339 467.994 352.589 467.994C350.639 467.994 348.202 468.481 345.277 469.456C342.352 470.431 340.158 471.163 338.696 471.65C328.946 475.55 321.633 477.5 316.758 477.5ZM244.364 345.144C251.189 344.169 256.796 343.194 261.183 342.219C266.058 340.756 270.689 339.781 275.077 339.294L275.808 322.475C271.421 323.45 266.302 324.912 260.452 326.862C254.602 328.325 249.971 329.3 246.558 329.788C246.071 332.713 245.583 335.394 245.096 337.831C244.608 340.269 244.364 342.706 244.364 345.144ZM216.577 350.262C219.502 350.262 221.939 350.019 223.889 349.531C226.327 349.044 228.277 348.556 229.739 348.069C229.739 344.169 230.227 339.294 231.202 333.444L213.652 336.369V349.531L216.577 350.262ZM244.364 373.663C251.189 373.175 260.939 370.981 273.614 367.081C273.614 359.769 273.858 354.162 274.346 350.262C263.621 353.675 253.627 356.113 244.364 357.575V373.663ZM214.383 378.781C216.821 378.781 221.452 378.294 228.277 377.319V360.5C224.377 360.987 220.964 361.475 218.039 361.962C215.114 362.45 213.652 363.181 213.652 364.156C213.652 365.131 213.652 366.594 213.652 368.544L214.383 378.781ZM245.827 406.569C256.552 404.619 266.058 401.937 274.346 398.525C274.346 390.237 274.102 383.9 273.614 379.512C269.714 380.487 265.327 381.706 260.452 383.169C256.064 384.144 251.189 385.362 245.827 386.825V406.569ZM290.433 458.487C294.821 458.487 299.452 456.781 304.327 453.369C309.202 449.469 312.858 447.031 315.296 446.056C317.733 445.081 322.364 444.35 329.189 443.862C336.502 442.887 341.864 441.425 345.277 439.475C349.177 437.525 351.127 433.869 351.127 428.506C351.127 424.606 346.008 420.95 335.771 417.537C325.533 413.637 316.271 411.444 307.983 410.956C307.983 412.419 308.227 414.856 308.714 418.269C309.689 421.194 310.177 423.875 310.177 426.312C310.177 428.75 309.446 431.431 307.983 434.356C304.571 436.794 300.183 438.988 294.821 440.938C289.458 442.887 284.827 443.862 280.927 443.862C279.952 442.4 279.221 440.938 278.733 439.475C278.246 437.525 277.514 435.819 276.539 434.356C273.614 435.331 270.446 437.038 267.033 439.475C263.621 441.913 260.452 443.619 257.527 444.594C259.477 447.519 264.352 450.687 272.152 454.1C279.952 457.025 286.046 458.487 290.433 458.487ZM250.214 431.431C252.652 431.431 256.064 430.456 260.452 428.506C265.327 426.556 270.446 424.85 275.808 423.387C274.833 418.025 274.589 414.125 275.077 411.688C270.202 412.175 264.839 413.394 258.989 415.344C253.139 417.294 248.996 418.756 246.558 419.731C246.558 422.656 246.802 425.337 247.289 427.775C248.264 430.212 249.239 431.431 250.214 431.431ZM207.802 444.594C214.627 443.131 222.427 440.45 231.202 436.55C228.764 433.625 227.546 429.725 227.546 424.85L202.683 432.894L207.802 444.594Z" fill="#969696" stroke="white" stroke-width="4" mask="url(#path-2-inside-1_170_527)"/>
<path d="M220.481 84.3257L220.49 84.3234L220.498 84.321L241.705 78.471L241.724 78.4656L241.743 78.4595L278.291 66.7642C278.293 66.7634 278.296 66.7627 278.298 66.7619C288.772 63.5955 296.983 61.2236 302.937 59.6439C305.916 58.8537 308.32 58.2642 310.156 57.873C312.021 57.4755 313.22 57.3008 313.832 57.3008C315.983 57.3008 317.459 57.5445 318.362 57.9458C318.802 58.1413 319.058 58.3531 319.202 58.5461C319.338 58.7267 319.414 58.9393 319.414 59.2258C319.414 63.8478 317.802 68.2678 314.506 72.5056L314.483 72.5344L314.463 72.5648C312.995 74.7672 311.825 76.6136 310.958 78.1C310.265 79.287 309.744 80.2807 309.423 81.0599L274.088 90.4341L274.077 90.4374C250.441 97.0164 231.204 101.947 216.36 105.232C201.488 108.524 191.104 110.145 185.132 110.145C181.895 110.145 178.644 109.457 175.374 108.068C172.649 106.231 171.507 104.322 171.507 102.37C171.507 101.34 172.099 100.197 173.685 98.9512C175.267 97.7082 177.707 96.4733 181.071 95.2711C188.348 92.8462 201.476 89.1988 220.481 84.3257ZM124.193 169.787L124.207 169.779L124.222 169.771C128.962 166.926 133.933 164.787 139.136 163.349L144.789 164.056L150.64 164.787C154.589 165.28 159.019 165.526 163.926 165.526C173.788 165.526 185.091 163.801 197.824 160.373L197.841 160.368L197.858 160.363C210.556 156.456 227.635 150.6 249.09 142.798C269.56 135.487 284.89 130.378 295.095 127.462L295.116 127.456L295.136 127.449C305.315 124.056 313.978 122.382 321.145 122.382C338.07 122.382 354.512 125.766 370.479 132.54L370.496 132.547L370.513 132.554C378.748 135.702 384.839 139.063 388.855 142.607C392.859 146.14 394.732 149.788 394.732 153.557C394.732 157.545 392.521 161.683 387.752 165.975C383.548 169.711 378.666 171.57 373.064 171.57C372.7 171.57 372.035 171.472 371.008 171.23C370.002 170.994 368.715 170.635 367.142 170.151C364.001 169.185 359.761 167.731 354.415 165.788C333.396 156.991 315.228 152.557 299.939 152.557C287.659 152.557 274.417 154.276 260.217 157.704L260.209 157.706C246.527 161.126 230.417 166.008 211.881 172.349C200.687 175.756 189.493 178.919 178.299 181.839L178.288 181.842C167.595 184.759 159.164 186.195 152.957 186.195C146.229 186.195 139.496 185.233 132.757 183.308C126.313 181.467 121.263 178.761 117.551 175.226C117.831 174.629 118.369 173.929 119.257 173.13C120.399 172.103 122.034 170.987 124.193 169.787Z" fill="#969696" stroke="white" stroke-width="2"/>
</svg>
