<svg width="512" height="512" viewBox="0 0 512 512" fill="none" xmlns="http://www.w3.org/2000/svg">
<path d="M0 0H512V512H0V0Z" fill="white"/>
<path fill-rule="evenodd" clip-rule="evenodd" d="M256 270C200.772 270 156 314.772 156 370C156 425.228 200.772 470 256 470C311.228 470 356 425.228 356 370C356 314.772 311.228 270 256 270ZM177 370C177 326.37 212.37 291 256 291C299.63 291 335 326.37 335 370C335 413.63 299.63 449 256 449C212.37 449 177 413.63 177 370Z" fill="#000085"/>
<path d="M247 142C247 137.029 251.029 133 256 133C260.971 133 265 137.029 265 142C265 146.971 260.971 151 256 151C251.029 151 247 146.971 247 142Z" fill="#000085"/>
<path fill-rule="evenodd" clip-rule="evenodd" d="M256 133C251.029 133 247 137.029 247 142C247 146.971 251.029 151 256 151C260.971 151 265 146.971 265 142C265 137.029 260.971 133 256 133Z" fill="#000085"/>
<path fill-rule="evenodd" clip-rule="evenodd" d="M256 42C200.772 42 156 86.7715 156 142C156 197.228 200.772 242 256 242C311.228 242 356 197.228 356 142C356 86.7715 311.228 42 256 42ZM177 142C177 98.3695 212.37 63 256 63C299.63 63 335 98.3695 335 142C335 185.63 299.63 221 256 221C212.37 221 177 185.63 177 142Z" fill="#000085"/>
<path fill-rule="evenodd" clip-rule="evenodd" d="M256 443C296.317 443 329 410.317 329 370C329 329.683 296.317 297 256 297C215.683 297 183 329.683 183 370C183 410.317 215.683 443 256 443ZM251 327.001C251 324.24 253.238 322.001 256 322.001C258.761 322.001 261 324.24 261 327.001C261 328.619 260.231 330.057 259.04 330.971L259.848 350.37C259.99 350.397 260.131 350.427 260.271 350.457L266 339C266 339 267.171 337.724 268 338C268.828 338.276 269 340 269 340L264.962 352.115C265.291 352.28 265.614 352.454 265.933 352.637L278 335.001C278 335.001 280.012 330.221 280 327C279.972 319.19 274.942 314.579 268 311C263.745 308.807 256 308.5 256 308.5C256 308.5 248.255 308.806 244 311C237.057 314.579 231.715 319.195 231.999 327C232.118 330.272 234.5 335.001 234.5 335.001L246.093 352.622C246.403 352.445 246.718 352.276 247.038 352.116L243 340.001C243 340.001 243.171 338.277 244 338.001C244.828 337.725 246 339.001 246 339.001L251.728 350.457C251.868 350.427 252.009 350.398 252.151 350.37L252.959 330.971C251.768 330.057 251 328.619 251 327.001ZM233.438 408.797C231.814 411.031 228.688 411.526 226.454 409.903C224.22 408.28 223.724 405.153 225.347 402.919C226.298 401.61 227.765 400.898 229.266 400.859L240.492 383.971L228.355 390.272C228.355 390.272 226.657 390.616 226.149 389.905C225.641 389.195 226.516 387.7 226.516 387.7L238.282 379.287C238.188 379.107 238.096 378.925 238.007 378.742L237.982 378.724L216.296 386.454C216.296 386.454 211.858 389.138 209.975 391.751C205.407 398.087 206.766 404.773 210.279 411.749C212.432 416.025 218.518 420.825 218.518 420.825C218.518 420.825 224.964 425.13 229.695 425.856C237.416 427.042 244.45 426.447 248.809 419.965C250.636 417.249 251.488 412.023 251.488 412.023L252.526 389.699C252.282 389.657 252.04 389.61 251.8 389.558L247.551 402.982C247.551 402.982 246.399 404.275 245.566 404.012C244.734 403.748 244.536 402.027 244.536 402.027L246.778 388.538L234.186 404.433C234.612 405.873 234.388 407.488 233.438 408.797ZM284.681 409.903C286.915 408.28 287.411 405.153 285.787 402.919C284.837 401.61 283.37 400.898 281.869 400.859L270.643 383.971L282.779 390.272C282.779 390.272 284.477 390.616 284.985 389.905C285.493 389.195 284.618 387.699 284.618 387.699L273.476 379.733C273.612 379.49 273.743 379.243 273.868 378.994L294.434 386.749C294.434 386.749 299.14 389.175 301.16 391.751C305.977 397.9 304.369 404.774 300.856 411.75C298.703 416.025 292.617 420.826 292.617 420.826C292.617 420.826 286.171 425.13 281.439 425.857C273.719 427.042 266.94 426.268 262.326 419.966C260.423 417.367 259.242 412.317 259.242 412.317L258.606 389.832C258.867 389.798 259.126 389.759 259.384 389.715L263.584 402.983C263.584 402.983 264.736 404.276 265.569 404.013C266.401 403.749 266.599 402.028 266.599 402.028L264.357 388.538L276.949 404.433C276.523 405.873 276.746 407.488 277.697 408.797C279.32 411.031 282.447 411.526 284.681 409.903ZM212.43 361.866C209.803 361.013 208.366 358.192 209.219 355.566C210.073 352.939 212.894 351.502 215.52 352.356C217.058 352.855 218.189 354.03 218.69 355.446L238.188 360.895L238.196 360.88L228.477 351.308C228.477 351.308 227.625 349.799 228.144 349.097C228.663 348.394 230.355 348.764 230.355 348.764L241.08 356.681C241.292 356.443 241.51 356.211 241.733 355.984L228.382 338.66C228.382 338.66 224.458 335.268 221.391 334.284C213.954 331.898 208.014 335.257 202.465 340.753C199.064 344.122 196.379 351.394 196.379 351.394C196.379 351.394 194.277 358.854 195.049 363.579C196.307 371.287 199.046 377.794 206.558 379.936C209.706 380.834 214.939 380.03 214.939 380.03L236.428 374.136C236.376 373.887 236.328 373.637 236.285 373.386L222.321 373.492C222.321 373.492 220.735 372.796 220.728 371.923C220.722 371.049 222.297 370.33 222.297 370.33L235.819 368.293L216.811 361.229C215.573 362.08 213.968 362.366 212.43 361.866ZM302.533 355.565C301.679 352.939 298.859 351.502 296.232 352.355C294.694 352.855 293.564 354.03 293.063 355.445L273.781 360.834L273.758 360.791L273.72 360.718L283.275 351.308C283.275 351.308 284.126 349.799 283.608 349.097C283.089 348.394 281.397 348.764 281.397 348.764L270.821 356.571C270.601 356.328 270.376 356.092 270.145 355.86L283.525 339.135C283.525 339.135 287.287 335.408 290.362 334.284C297.698 331.602 303.738 335.256 309.287 340.753C312.688 344.122 315.373 351.393 315.373 351.393C315.373 351.393 317.475 358.854 316.704 363.579C315.445 371.287 312.614 377.495 305.195 379.936C302.135 380.943 296.967 380.506 296.967 380.506L275.556 374.212C275.614 373.939 275.667 373.664 275.714 373.387L289.432 373.491C289.432 373.491 291.018 372.795 291.025 371.922C291.031 371.049 289.456 370.329 289.456 370.329L275.933 368.292L294.942 361.229C296.179 362.079 297.784 362.365 299.323 361.865C301.949 361.012 303.386 358.191 302.533 355.565ZM243 370C243 362.82 248.82 357 256 357C263.18 357 269 362.82 269 370C269 377.18 263.18 383 256 383C248.82 383 243 377.18 243 370Z" fill="#000085"/>
<path d="M256 361C251.029 361 247 365.029 247 370C247 374.971 251.029 379 256 379C260.971 379 265 374.971 265 370C265 365.029 260.971 361 256 361Z" fill="#000085"/>
<path fill-rule="evenodd" clip-rule="evenodd" d="M329 142C329 182.317 296.317 215 256 215C215.683 215 183 182.317 183 142C183 101.683 215.683 69 256 69C296.317 69 329 101.683 329 142ZM284.681 181.903C286.915 180.28 287.411 177.153 285.787 174.919C284.837 173.61 283.37 172.898 281.869 172.859L270.643 155.972L282.779 162.272C282.779 162.272 284.477 162.616 284.985 161.905C285.493 161.195 284.618 159.7 284.618 159.7L273.476 151.733C273.612 151.49 273.743 151.243 273.868 150.994L294.434 158.749C294.434 158.749 299.14 161.175 301.16 163.751C305.977 169.9 304.369 176.774 300.856 183.75C298.703 188.025 292.617 192.826 292.617 192.826C292.617 192.826 286.171 197.13 281.439 197.857C273.719 199.042 266.94 198.268 262.326 191.966C260.423 189.367 259.242 184.317 259.242 184.317L258.606 161.832C258.867 161.798 259.126 161.759 259.384 161.715L263.584 174.983C263.584 174.983 264.736 176.276 265.569 176.013C266.401 175.749 266.599 174.028 266.599 174.028L264.357 160.538L276.949 176.433C276.523 177.873 276.746 179.488 277.697 180.797C279.32 183.031 282.447 183.526 284.681 181.903ZM233.438 180.796C231.814 183.031 228.688 183.526 226.454 181.903C224.22 180.28 223.724 177.153 225.347 174.919C226.298 173.61 227.765 172.898 229.266 172.859L240.492 155.971L228.355 162.272C228.355 162.272 226.657 162.616 226.149 161.905C225.641 161.195 226.516 159.7 226.516 159.7L238.282 151.287C238.188 151.107 238.096 150.925 238.007 150.742L237.982 150.724L216.296 158.454C216.296 158.454 211.858 161.138 209.975 163.751C205.407 170.087 206.766 176.773 210.279 183.749C212.432 188.025 218.518 192.825 218.518 192.825C218.518 192.825 224.964 197.13 229.695 197.856C237.416 199.042 244.45 198.447 248.809 191.965C250.636 189.249 251.488 184.023 251.488 184.023L252.526 161.699C252.282 161.657 252.04 161.61 251.8 161.558L247.551 174.982C247.551 174.982 246.399 176.275 245.566 176.012C244.734 175.748 244.536 174.027 244.536 174.027L246.778 160.538L234.186 176.433C234.612 177.873 234.388 179.488 233.438 180.796ZM209.219 127.566C208.366 130.192 209.803 133.013 212.43 133.866C213.968 134.366 215.573 134.08 216.811 133.229L235.819 140.293L222.297 142.33C222.297 142.33 220.722 143.049 220.728 143.923C220.735 144.796 222.321 145.492 222.321 145.492L236.285 145.386C236.328 145.637 236.376 145.887 236.428 146.136L214.939 152.03C214.939 152.03 209.706 152.834 206.558 151.936C199.046 149.794 196.307 143.287 195.049 135.579C194.277 130.854 196.379 123.394 196.379 123.394C196.379 123.394 199.064 116.122 202.465 112.753C208.014 107.257 213.954 103.898 221.391 106.284C224.458 107.268 228.382 110.66 228.382 110.66L241.733 127.984C241.51 128.211 241.292 128.443 241.08 128.681L230.355 120.764C230.355 120.764 228.663 120.394 228.144 121.097C227.625 121.799 228.477 123.308 228.477 123.308L238.196 132.88L238.188 132.895L218.69 127.446C218.189 126.03 217.058 124.855 215.52 124.356C212.894 123.502 210.073 124.939 209.219 127.566ZM251 99.001C251 96.2396 253.238 94.001 256 94.001C258.761 94.001 261 96.2396 261 99.001C261 100.619 260.231 102.057 259.04 102.971L259.848 122.37C259.99 122.397 260.131 122.427 260.271 122.457L266 111C266 111 267.171 109.724 268 110C268.828 110.276 269 112 269 112L264.962 124.115C265.291 124.28 265.614 124.454 265.933 124.637L278 107.001C278 107.001 280.012 102.221 280 99.0003C279.972 91.1896 274.942 86.5789 268 83C263.745 80.8065 256 80.5 256 80.5C256 80.5 248.255 80.8065 244 82.9997C237.057 86.5786 231.715 91.1946 231.999 99.0003C232.118 102.272 234.5 107.001 234.5 107.001L246.093 124.622C246.403 124.445 246.718 124.276 247.038 124.116L243 112.001C243 112.001 243.171 110.277 244 110.001C244.828 109.725 246 111.001 246 111.001L251.728 122.457C251.868 122.427 252.009 122.398 252.151 122.37L252.959 102.971C251.768 102.057 251 100.619 251 99.001ZM302.533 127.565C301.679 124.939 298.859 123.502 296.232 124.355C294.694 124.855 293.564 126.03 293.063 127.445L273.781 132.834L273.758 132.791L273.72 132.718L283.275 123.308C283.275 123.308 284.126 121.799 283.608 121.097C283.089 120.394 281.397 120.764 281.397 120.764L270.821 128.571C270.601 128.328 270.376 128.092 270.145 127.86L283.525 111.135C283.525 111.135 287.287 107.408 290.362 106.284C297.698 103.602 303.738 107.256 309.287 112.753C312.688 116.122 315.373 123.393 315.373 123.393C315.373 123.393 317.475 130.854 316.704 135.579C315.445 143.287 312.614 149.495 305.195 151.936C302.135 152.943 296.967 152.506 296.967 152.506L275.556 146.212C275.614 145.939 275.667 145.664 275.714 145.387L289.432 145.491C289.432 145.491 291.018 144.795 291.025 143.922C291.031 143.049 289.456 142.329 289.456 142.329L275.933 140.292L294.942 133.229C296.179 134.079 297.784 134.365 299.323 133.865C301.949 133.012 303.386 130.191 302.533 127.565ZM243 142C243 134.82 248.82 129 256 129C263.18 129 269 134.82 269 142C269 149.18 263.18 155 256 155C248.82 155 243 149.18 243 142ZM256 133C251.029 133 247 137.029 247 142C247 146.971 251.029 151 256 151C260.971 151 265 146.971 265 142C265 137.029 260.971 133 256 133Z" fill="#000085"/>
</svg>
