<svg width="512" height="512" viewBox="0 0 512 512" fill="none" xmlns="http://www.w3.org/2000/svg">
<path d="M1 1H511V511H1V1Z" fill="white" stroke="white" stroke-width="2"/>
<mask id="path-2-inside-1_170_446" fill="white">
<path fill-rule="evenodd" clip-rule="evenodd" d="M234.197 477C229.628 477 225.683 475.754 222.361 473.262C219.454 470.354 218 466.823 218 462.67C218 457.685 221.115 453.324 227.344 449.586L231.705 445.224C234.197 443.147 235.443 440.655 235.443 437.748V408.464C235.443 406.387 232.743 402.649 227.344 397.249C222.361 391.434 219.869 386.242 219.869 381.673C219.869 377.104 222.361 372.119 227.344 366.72C232.743 360.904 235.443 356.958 235.443 354.882V324.975C235.443 322.068 234.197 319.575 231.705 317.498L227.344 313.137C221.115 309.399 218 305.037 218 300.053C218 295.484 219.661 291.953 222.984 289.461C226.306 286.969 229.421 285.723 232.328 285.723C234.82 285.723 237.934 284.269 241.672 281.361C245.825 278.454 250.601 277 256 277C261.399 277 265.967 278.454 269.705 281.361C273.858 284.269 277.18 285.723 279.672 285.723C282.579 285.723 285.694 286.969 289.016 289.461C292.339 291.953 294 295.484 294 300.053C294 305.037 290.885 309.399 284.656 313.137C283.825 313.968 282.164 315.422 279.672 317.498C277.596 319.575 276.557 322.068 276.557 324.975V354.882C276.557 356.958 279.049 360.904 284.033 366.72C289.432 372.119 292.131 377.104 292.131 381.673C292.131 386.242 289.432 391.434 284.033 397.249C279.049 402.649 276.557 406.387 276.557 408.464V437.748C276.557 440.655 277.596 443.147 279.672 445.224C282.164 447.301 283.825 448.755 284.656 449.586C290.885 453.324 294 457.685 294 462.67C294 466.823 292.339 470.354 289.016 473.262C286.109 475.754 282.372 477 277.803 477C274.481 477 270.951 476.169 267.213 474.508C263.475 472.431 259.738 471.393 256 471.393C252.262 471.393 248.525 472.431 244.787 474.508C241.049 476.169 237.519 477 234.197 477ZM244 301C244 294.373 249.373 289 256 289C262.627 289 268 294.373 268 301C268 305.843 265.131 310.016 261 311.912V358H251V311.912C246.869 310.016 244 305.843 244 301ZM241 373C241 375.761 243.239 378 246 378H266C268.761 378 271 375.761 271 373C271 370.239 268.761 368 266 368H246C243.239 368 241 370.239 241 373ZM246 395C243.239 395 241 392.761 241 390C241 387.239 243.239 385 246 385H266C268.761 385 271 387.239 271 390C271 392.761 268.761 395 266 395H246ZM256 458C258.761 458 261 455.761 261 453V405H251V453C251 455.761 253.239 458 256 458Z"/>
<path fill-rule="evenodd" clip-rule="evenodd" d="M234.197 235C229.628 235 225.683 233.754 222.361 231.262C219.454 228.354 218 224.823 218 220.67C218 215.685 221.115 211.324 227.344 207.586L231.705 203.224C234.197 201.147 235.443 198.655 235.443 195.748V166.464C235.443 164.387 232.743 160.649 227.344 155.249C222.361 149.434 219.869 144.242 219.869 139.673C219.869 135.104 222.361 130.119 227.344 124.72C232.743 118.904 235.443 114.958 235.443 112.882V82.9751C235.443 80.0675 234.197 77.5753 231.705 75.4984L227.344 71.1371C221.115 67.3988 218 63.0374 218 58.053C218 53.4839 219.661 49.9533 222.984 47.4611C226.306 44.9688 229.421 43.7228 232.328 43.7228C234.82 43.7228 237.934 42.269 241.672 39.3614C245.825 36.4538 250.601 35 256 35C261.399 35 265.967 36.4538 269.705 39.3614C273.858 42.269 277.18 43.7228 279.672 43.7228C282.579 43.7228 285.694 44.9688 289.016 47.4611C292.339 49.9533 294 53.4839 294 58.053C294 63.0374 290.885 67.3988 284.656 71.1371C283.825 71.9678 282.164 73.4216 279.672 75.4984C277.596 77.5753 276.557 80.0675 276.557 82.9751V112.882C276.557 114.958 279.049 118.904 284.033 124.72C289.432 130.119 292.131 135.104 292.131 139.673C292.131 144.242 289.432 149.434 284.033 155.249C279.049 160.649 276.557 164.387 276.557 166.464V195.748C276.557 198.655 277.596 201.147 279.672 203.224C282.164 205.301 283.825 206.755 284.656 207.586C290.885 211.324 294 215.685 294 220.67C294 224.823 292.339 228.354 289.016 231.262C286.109 233.754 282.372 235 277.803 235C274.481 235 270.951 234.169 267.213 232.508C263.475 230.431 259.738 229.393 256 229.393C252.262 229.393 248.525 230.431 244.787 232.508C241.049 234.169 237.519 235 234.197 235ZM244 59C244 52.3726 249.373 47 256 47C262.627 47 268 52.3726 268 59C268 63.843 265.131 68.0159 261 69.9119V116H251V69.9119C246.869 68.0159 244 63.843 244 59ZM241 131C241 133.761 243.239 136 246 136H266C268.761 136 271 133.761 271 131C271 128.239 268.761 126 266 126H246C243.239 126 241 128.239 241 131ZM246 153C243.239 153 241 150.761 241 148C241 145.239 243.239 143 246 143H266C268.761 143 271 145.239 271 148C271 150.761 268.761 153 266 153H246ZM256 216C258.761 216 261 213.761 261 211V163H251V211C251 213.761 253.239 216 256 216Z"/>
</mask>
<path fill-rule="evenodd" clip-rule="evenodd" d="M234.197 477C229.628 477 225.683 475.754 222.361 473.262C219.454 470.354 218 466.823 218 462.67C218 457.685 221.115 453.324 227.344 449.586L231.705 445.224C234.197 443.147 235.443 440.655 235.443 437.748V408.464C235.443 406.387 232.743 402.649 227.344 397.249C222.361 391.434 219.869 386.242 219.869 381.673C219.869 377.104 222.361 372.119 227.344 366.72C232.743 360.904 235.443 356.958 235.443 354.882V324.975C235.443 322.068 234.197 319.575 231.705 317.498L227.344 313.137C221.115 309.399 218 305.037 218 300.053C218 295.484 219.661 291.953 222.984 289.461C226.306 286.969 229.421 285.723 232.328 285.723C234.82 285.723 237.934 284.269 241.672 281.361C245.825 278.454 250.601 277 256 277C261.399 277 265.967 278.454 269.705 281.361C273.858 284.269 277.18 285.723 279.672 285.723C282.579 285.723 285.694 286.969 289.016 289.461C292.339 291.953 294 295.484 294 300.053C294 305.037 290.885 309.399 284.656 313.137C283.825 313.968 282.164 315.422 279.672 317.498C277.596 319.575 276.557 322.068 276.557 324.975V354.882C276.557 356.958 279.049 360.904 284.033 366.72C289.432 372.119 292.131 377.104 292.131 381.673C292.131 386.242 289.432 391.434 284.033 397.249C279.049 402.649 276.557 406.387 276.557 408.464V437.748C276.557 440.655 277.596 443.147 279.672 445.224C282.164 447.301 283.825 448.755 284.656 449.586C290.885 453.324 294 457.685 294 462.67C294 466.823 292.339 470.354 289.016 473.262C286.109 475.754 282.372 477 277.803 477C274.481 477 270.951 476.169 267.213 474.508C263.475 472.431 259.738 471.393 256 471.393C252.262 471.393 248.525 472.431 244.787 474.508C241.049 476.169 237.519 477 234.197 477ZM244 301C244 294.373 249.373 289 256 289C262.627 289 268 294.373 268 301C268 305.843 265.131 310.016 261 311.912V358H251V311.912C246.869 310.016 244 305.843 244 301ZM241 373C241 375.761 243.239 378 246 378H266C268.761 378 271 375.761 271 373C271 370.239 268.761 368 266 368H246C243.239 368 241 370.239 241 373ZM246 395C243.239 395 241 392.761 241 390C241 387.239 243.239 385 246 385H266C268.761 385 271 387.239 271 390C271 392.761 268.761 395 266 395H246ZM256 458C258.761 458 261 455.761 261 453V405H251V453C251 455.761 253.239 458 256 458Z" fill="#969696"/>
<path fill-rule="evenodd" clip-rule="evenodd" d="M234.197 235C229.628 235 225.683 233.754 222.361 231.262C219.454 228.354 218 224.823 218 220.67C218 215.685 221.115 211.324 227.344 207.586L231.705 203.224C234.197 201.147 235.443 198.655 235.443 195.748V166.464C235.443 164.387 232.743 160.649 227.344 155.249C222.361 149.434 219.869 144.242 219.869 139.673C219.869 135.104 222.361 130.119 227.344 124.72C232.743 118.904 235.443 114.958 235.443 112.882V82.9751C235.443 80.0675 234.197 77.5753 231.705 75.4984L227.344 71.1371C221.115 67.3988 218 63.0374 218 58.053C218 53.4839 219.661 49.9533 222.984 47.4611C226.306 44.9688 229.421 43.7228 232.328 43.7228C234.82 43.7228 237.934 42.269 241.672 39.3614C245.825 36.4538 250.601 35 256 35C261.399 35 265.967 36.4538 269.705 39.3614C273.858 42.269 277.18 43.7228 279.672 43.7228C282.579 43.7228 285.694 44.9688 289.016 47.4611C292.339 49.9533 294 53.4839 294 58.053C294 63.0374 290.885 67.3988 284.656 71.1371C283.825 71.9678 282.164 73.4216 279.672 75.4984C277.596 77.5753 276.557 80.0675 276.557 82.9751V112.882C276.557 114.958 279.049 118.904 284.033 124.72C289.432 130.119 292.131 135.104 292.131 139.673C292.131 144.242 289.432 149.434 284.033 155.249C279.049 160.649 276.557 164.387 276.557 166.464V195.748C276.557 198.655 277.596 201.147 279.672 203.224C282.164 205.301 283.825 206.755 284.656 207.586C290.885 211.324 294 215.685 294 220.67C294 224.823 292.339 228.354 289.016 231.262C286.109 233.754 282.372 235 277.803 235C274.481 235 270.951 234.169 267.213 232.508C263.475 230.431 259.738 229.393 256 229.393C252.262 229.393 248.525 230.431 244.787 232.508C241.049 234.169 237.519 235 234.197 235ZM244 59C244 52.3726 249.373 47 256 47C262.627 47 268 52.3726 268 59C268 63.843 265.131 68.0159 261 69.9119V116H251V69.9119C246.869 68.0159 244 63.843 244 59ZM241 131C241 133.761 243.239 136 246 136H266C268.761 136 271 133.761 271 131C271 128.239 268.761 126 266 126H246C243.239 126 241 128.239 241 131ZM246 153C243.239 153 241 150.761 241 148C241 145.239 243.239 143 246 143H266C268.761 143 271 145.239 271 148C271 150.761 268.761 153 266 153H246ZM256 216C258.761 216 261 213.761 261 211V163H251V211C251 213.761 253.239 216 256 216Z" fill="#969696"/>
<path d="M228.051 450.293C228.881 449.463 230.336 448.008 232.412 445.931L230.998 444.517C228.921 446.595 227.468 448.047 226.637 448.879L228.051 450.293ZM232.412 316.791C230.337 314.716 228.881 313.26 228.051 312.43L226.637 313.844C227.469 314.676 228.92 316.127 230.998 318.205L232.412 316.791ZM228.051 208.293C228.879 207.465 230.339 206.005 232.412 203.931L230.998 202.517C228.918 204.597 227.471 206.045 226.637 206.879L228.051 208.293ZM232.412 74.7914C230.336 72.7152 228.881 71.26 228.051 70.43L226.637 71.8441C227.468 72.6756 228.921 74.1279 230.998 76.2055L232.412 74.7914ZM222.361 473.262L220.946 474.676L221.047 474.776L221.161 474.862L222.361 473.262ZM227.344 449.586L228.373 451.301L228.585 451.174L228.759 451L227.344 449.586ZM231.705 445.224L230.424 443.688L230.355 443.746L230.291 443.81L231.705 445.224ZM227.344 397.249L225.826 398.551L225.876 398.609L225.93 398.663L227.344 397.249ZM227.344 366.72L225.879 365.359L225.875 365.363L227.344 366.72ZM231.705 317.498L230.291 318.913L230.355 318.977L230.424 319.035L231.705 317.498ZM227.344 313.137L228.759 311.723L228.585 311.549L228.373 311.422L227.344 313.137ZM241.672 281.361L240.525 279.723L240.484 279.752L240.444 279.783L241.672 281.361ZM269.705 281.361L268.477 282.94L268.517 282.971L268.558 283L269.705 281.361ZM284.656 313.137L283.627 311.422L283.416 311.549L283.241 311.723L284.656 313.137ZM279.672 317.498L278.392 315.962L278.322 316.02L278.258 316.084L279.672 317.498ZM284.033 366.72L282.514 368.021L282.564 368.079L282.618 368.134L284.033 366.72ZM284.033 397.249L282.567 395.888L282.563 395.893L284.033 397.249ZM279.672 445.224L278.258 446.638L278.322 446.703L278.392 446.761L279.672 445.224ZM284.656 449.586L283.241 451L283.416 451.174L283.627 451.301L284.656 449.586ZM289.016 473.262L290.318 474.78L290.326 474.773L290.334 474.767L289.016 473.262ZM267.213 474.508L266.242 476.256L266.319 476.299L266.401 476.335L267.213 474.508ZM244.787 474.508L245.599 476.335L245.681 476.299L245.758 476.256L244.787 474.508ZM261 358V360H263V358H261ZM251 358H249V360H251V358ZM251 405V403H249V405H251ZM261 405H263V403H261V405ZM251 311.912H253V310.629L251.834 310.094L251 311.912ZM261 311.912L260.166 310.094L259 310.629V311.912H261ZM222.361 231.262L220.946 232.676L221.047 232.776L221.161 232.862L222.361 231.262ZM227.344 207.586L228.373 209.301L228.585 209.174L228.759 209L227.344 207.586ZM231.705 203.224L230.424 201.688L230.355 201.746L230.291 201.81L231.705 203.224ZM227.344 155.249L225.826 156.551L225.876 156.609L225.93 156.663L227.344 155.249ZM227.344 124.72L225.879 123.359L225.875 123.363L227.344 124.72ZM231.705 75.4984L230.291 76.9125L230.355 76.9767L230.424 77.0348L231.705 75.4984ZM227.344 71.1371L228.759 69.723L228.585 69.5489L228.373 69.4222L227.344 71.1371ZM241.672 39.3614L240.525 37.723L240.484 37.7519L240.444 37.7828L241.672 39.3614ZM269.705 39.3614L268.477 40.94L268.517 40.9709L268.558 40.9998L269.705 39.3614ZM284.656 71.1371L283.627 69.4222L283.416 69.5489L283.241 69.723L284.656 71.1371ZM279.672 75.4984L278.392 73.9621L278.322 74.0202L278.258 74.0843L279.672 75.4984ZM284.033 124.72L282.514 126.021L282.564 126.079L282.618 126.134L284.033 124.72ZM284.033 155.249L282.567 153.888L282.563 153.893L284.033 155.249ZM279.672 203.224L278.258 204.638L278.322 204.703L278.392 204.761L279.672 203.224ZM284.656 207.586L283.241 209L283.416 209.174L283.627 209.301L284.656 207.586ZM289.016 231.262L290.318 232.78L290.326 232.773L290.334 232.767L289.016 231.262ZM267.213 232.508L266.242 234.256L266.319 234.299L266.401 234.335L267.213 232.508ZM244.787 232.508L245.599 234.335L245.681 234.299L245.758 234.256L244.787 232.508ZM261 116V118H263V116H261ZM251 116H249V118H251V116ZM251 163V161H249V163H251ZM261 163H263V161H261V163ZM251 69.9119H253V68.6293L251.834 68.0942L251 69.9119ZM261 69.9119L260.166 68.0942L259 68.6293V69.9119H261ZM234.197 475C230.016 475 226.502 473.868 223.561 471.662L221.161 474.862C224.864 477.64 229.241 479 234.197 479V475ZM223.775 471.848C221.247 469.319 220 466.299 220 462.67H216C216 467.348 217.66 471.389 220.946 474.676L223.775 471.848ZM220 462.67C220 458.679 222.445 454.858 228.373 451.301L226.315 447.871C219.784 451.79 216 456.691 216 462.67H220ZM232.985 446.761C235.874 444.353 237.443 441.322 237.443 437.748H233.443C233.443 439.988 232.52 441.942 230.424 443.688L232.985 446.761ZM237.443 437.748V408.464H233.443V437.748H237.443ZM237.443 408.464C237.443 407.539 237.15 406.614 236.751 405.753C236.342 404.873 235.759 403.929 235.039 402.932C233.6 400.939 231.491 398.568 228.759 395.835L225.93 398.663C228.596 401.33 230.536 403.529 231.797 405.274C232.426 406.146 232.856 406.864 233.122 407.437C233.397 408.029 233.443 408.351 233.443 408.464H237.443ZM228.863 395.948C223.996 390.269 221.869 385.533 221.869 381.673H217.869C217.869 386.951 220.725 392.599 225.826 398.551L228.863 395.948ZM221.869 381.673C221.869 377.836 223.975 373.32 228.814 368.076L225.875 365.363C220.747 370.919 217.869 376.371 217.869 381.673H221.869ZM228.81 368.08C231.539 365.141 233.639 362.618 235.069 360.528C235.784 359.483 236.359 358.506 236.762 357.608C237.154 356.732 237.443 355.8 237.443 354.882H233.443C233.443 355.001 233.394 355.341 233.111 355.972C232.839 356.579 232.402 357.342 231.767 358.27C230.498 360.125 228.548 362.483 225.879 365.359L228.81 368.08ZM237.443 354.882V324.975H233.443V354.882H237.443ZM237.443 324.975C237.443 321.401 235.874 318.369 232.985 315.962L230.424 319.035C232.52 320.781 233.443 322.734 233.443 324.975H237.443ZM228.373 311.422C222.445 307.865 220 304.043 220 300.053H216C216 306.031 219.784 310.933 226.315 314.852L228.373 311.422ZM220 300.053C220 296.041 221.42 293.134 224.184 291.061L221.783 287.861C217.902 290.773 216 294.927 216 300.053H220ZM224.184 291.061C227.304 288.721 230.004 287.723 232.328 287.723V283.723C228.837 283.723 225.308 285.217 221.783 287.861L224.184 291.061ZM232.328 287.723C235.517 287.723 239.084 285.909 242.9 282.94L240.444 279.783C236.785 282.629 234.122 283.723 232.328 283.723V287.723ZM242.819 283C246.614 280.343 250.983 279 256 279V275C250.219 275 245.037 276.564 240.525 279.723L242.819 283ZM256 279C261.019 279 265.139 280.343 268.477 282.94L270.933 279.783C266.796 276.564 261.778 275 256 275V279ZM268.558 283C272.761 285.942 276.522 287.723 279.672 287.723V283.723C277.839 283.723 274.955 282.596 270.852 279.723L268.558 283ZM279.672 287.723C281.996 287.723 284.696 288.721 287.816 291.061L290.217 287.861C286.692 285.217 283.163 283.723 279.672 283.723V287.723ZM287.816 291.061C290.58 293.134 292 296.041 292 300.053H296C296 294.927 294.098 290.773 290.217 287.861L287.816 291.061ZM292 300.053C292 304.043 289.555 307.865 283.627 311.422L285.685 314.852C292.216 310.933 296 306.031 296 300.053H292ZM283.241 311.723C282.484 312.48 280.891 313.879 278.392 315.962L280.953 319.035C283.437 316.964 285.166 315.455 286.07 314.551L283.241 311.723ZM278.258 316.084C275.811 318.532 274.557 321.531 274.557 324.975H278.557C278.557 322.604 279.381 320.619 281.086 318.913L278.258 316.084ZM274.557 324.975V354.882H278.557V324.975H274.557ZM274.557 354.882C274.557 355.77 274.816 356.682 275.177 357.554C275.546 358.447 276.075 359.421 276.735 360.467C278.055 362.557 279.994 365.08 282.514 368.021L285.551 365.418C283.088 362.544 281.289 360.187 280.117 358.331C279.532 357.403 279.126 356.638 278.873 356.025C278.611 355.392 278.557 355.032 278.557 354.882H274.557ZM282.618 368.134C287.88 373.396 290.131 377.896 290.131 381.673H294.131C294.131 376.312 290.983 370.843 285.447 365.306L282.618 368.134ZM290.131 381.673C290.131 385.476 287.855 390.193 282.567 395.888L285.498 398.61C291.008 392.675 294.131 387.007 294.131 381.673H290.131ZM282.563 395.893C280.039 398.628 278.091 401 276.762 402.994C275.5 404.888 274.557 406.779 274.557 408.464H278.557C278.557 408.072 278.861 407.056 280.09 405.212C281.253 403.467 283.043 401.27 285.503 398.606L282.563 395.893ZM274.557 408.464V437.748H278.557V408.464H274.557ZM274.557 437.748C274.557 441.192 275.811 444.191 278.258 446.638L281.086 443.81C279.381 442.104 278.557 440.119 278.557 437.748H274.557ZM278.392 446.761C280.891 448.844 282.484 450.243 283.241 451L286.07 448.172C285.166 447.267 283.437 445.759 280.953 443.688L278.392 446.761ZM283.627 451.301C289.555 454.858 292 458.679 292 462.67H296C296 456.691 292.216 451.79 285.685 447.871L283.627 451.301ZM292 462.67C292 466.207 290.619 469.202 287.699 471.757L290.334 474.767C294.059 471.506 296 467.44 296 462.67H292ZM287.715 471.743C285.237 473.867 281.991 475 277.803 475V479C282.752 479 286.981 477.641 290.318 474.78L287.715 471.743ZM277.803 475C274.818 475 271.565 474.254 268.026 472.68L266.401 476.335C270.337 478.085 274.144 479 277.803 479V475ZM268.185 472.76C264.193 470.542 260.124 469.393 256 469.393V473.393C259.351 473.393 262.758 474.32 266.242 476.256L268.185 472.76ZM256 469.393C251.876 469.393 247.807 470.542 243.815 472.76L245.758 476.256C249.242 474.32 252.649 473.393 256 473.393V469.393ZM243.974 472.68C240.435 474.254 237.182 475 234.197 475V479C237.856 479 241.663 478.085 245.599 476.335L243.974 472.68ZM225.93 314.551L230.291 318.913L233.119 316.084L228.759 311.723L225.93 314.551ZM230.291 443.81L225.93 448.172L228.759 451L233.119 446.638L230.291 443.81ZM246 301C246 295.477 250.477 291 256 291V287C248.268 287 242 293.268 242 301H246ZM256 291C261.523 291 266 295.477 266 301H270C270 293.268 263.732 287 256 287V291ZM246 376C244.343 376 243 374.657 243 373H239C239 376.866 242.134 380 246 380V376ZM243 373C243 371.343 244.343 370 246 370V366C242.134 366 239 369.134 239 373H243ZM269 373C269 374.657 267.657 376 266 376V380C269.866 380 273 376.866 273 373H269ZM266 370C267.657 370 269 371.343 269 373H273C273 369.134 269.866 366 266 366V370ZM246 393C244.343 393 243 391.657 243 390H239C239 393.866 242.134 397 246 397V393ZM243 390C243 388.343 244.343 387 246 387V383C242.134 383 239 386.134 239 390H243ZM259 453C259 454.657 257.657 456 256 456V460C259.866 460 263 456.866 263 453H259ZM256 456C254.343 456 253 454.657 253 453H249C249 456.866 252.134 460 256 460V456ZM269 390C269 391.657 267.657 393 266 393V397C269.866 397 273 393.866 273 390H269ZM266 387C267.657 387 269 388.343 269 390H273C273 386.134 269.866 383 266 383V387ZM261 356H251V360H261V356ZM251 407H261V403H251V407ZM259 405V453H263V405H259ZM253 453V405H249V453H253ZM246 370H266V366H246V370ZM266 376H246V380H266V376ZM246 387H266V383H246V387ZM266 393H246V397H266V393ZM253 358V311.912H249V358H253ZM251.834 310.094C248.387 308.512 246 305.033 246 301H242C242 306.653 245.351 311.52 250.166 313.73L251.834 310.094ZM259 311.912V358H263V311.912H259ZM266 301C266 305.033 263.613 308.512 260.166 310.094L261.834 313.73C266.649 311.52 270 306.653 270 301H266ZM234.197 233C230.016 233 226.502 231.868 223.561 229.662L221.161 232.862C224.864 235.64 229.241 237 234.197 237V233ZM223.775 229.848C221.247 227.319 220 224.299 220 220.67H216C216 225.348 217.66 229.389 220.946 232.676L223.775 229.848ZM220 220.67C220 216.679 222.445 212.858 228.373 209.301L226.315 205.871C219.784 209.79 216 214.691 216 220.67H220ZM232.985 204.761C235.874 202.353 237.443 199.322 237.443 195.748H233.443C233.443 197.988 232.52 199.942 230.424 201.688L232.985 204.761ZM237.443 195.748V166.464H233.443V195.748H237.443ZM237.443 166.464C237.443 165.539 237.15 164.614 236.751 163.753C236.342 162.873 235.759 161.929 235.039 160.932C233.6 158.939 231.491 156.568 228.759 153.835L225.93 156.663C228.596 159.33 230.536 161.529 231.797 163.274C232.426 164.146 232.856 164.864 233.122 165.437C233.397 166.029 233.443 166.351 233.443 166.464H237.443ZM228.863 153.948C223.996 148.269 221.869 143.533 221.869 139.673H217.869C217.869 144.951 220.725 150.599 225.826 156.551L228.863 153.948ZM221.869 139.673C221.869 135.836 223.975 131.32 228.814 126.076L225.875 123.363C220.747 128.919 217.869 134.371 217.869 139.673H221.869ZM228.81 126.08C231.539 123.141 233.639 120.618 235.069 118.528C235.784 117.483 236.359 116.506 236.762 115.608C237.154 114.732 237.443 113.8 237.443 112.882H233.443C233.443 113.001 233.394 113.341 233.111 113.972C232.839 114.579 232.402 115.342 231.767 116.27C230.498 118.125 228.548 120.483 225.879 123.359L228.81 126.08ZM237.443 112.882V82.9751H233.443V112.882H237.443ZM237.443 82.9751C237.443 79.4007 235.874 76.3694 232.985 73.9621L230.424 77.0348C232.52 78.7812 233.443 80.7343 233.443 82.9751H237.443ZM228.373 69.4222C222.445 65.8647 220 62.0435 220 58.053H216C216 64.0313 219.784 68.9328 226.315 72.852L228.373 69.4222ZM220 58.053C220 54.0406 221.42 51.1339 224.184 49.061L221.783 45.8612C217.902 48.7727 216 52.9272 216 58.053H220ZM224.184 49.061C227.304 46.7206 230.004 45.7228 232.328 45.7228V41.7228C228.837 41.7228 225.308 43.2171 221.783 45.8612L224.184 49.061ZM232.328 45.7228C235.517 45.7228 239.084 43.9089 242.9 40.94L240.444 37.7828C236.785 40.629 234.122 41.7228 232.328 41.7228V45.7228ZM242.819 40.9998C246.614 38.3432 250.983 37 256 37V33C250.219 33 245.037 34.5644 240.525 37.723L242.819 40.9998ZM256 37C261.019 37 265.139 38.3431 268.477 40.94L270.933 37.7828C266.796 34.5645 261.778 33 256 33V37ZM268.558 40.9998C272.761 43.9422 276.522 45.7228 279.672 45.7228V41.7228C277.839 41.7228 274.955 40.5957 270.852 37.723L268.558 40.9998ZM279.672 45.7228C281.996 45.7228 284.696 46.7206 287.816 49.061L290.217 45.8612C286.692 43.2171 283.163 41.7228 279.672 41.7228V45.7228ZM287.816 49.061C290.58 51.1339 292 54.0406 292 58.053H296C296 52.9272 294.098 48.7727 290.217 45.8612L287.816 49.061ZM292 58.053C292 62.0435 289.555 65.8647 283.627 69.4222L285.685 72.852C292.216 68.9328 296 64.0313 296 58.053H292ZM283.241 69.723C282.484 70.4803 280.891 71.8792 278.392 73.9621L280.953 77.0348C283.437 74.964 285.166 73.4554 286.07 72.5512L283.241 69.723ZM278.258 74.0843C275.811 76.532 274.557 79.5312 274.557 82.9751H278.557C278.557 80.6038 279.381 78.6186 281.086 76.9125L278.258 74.0843ZM274.557 82.9751V112.882H278.557V82.9751H274.557ZM274.557 112.882C274.557 113.77 274.816 114.682 275.177 115.554C275.546 116.447 276.075 117.421 276.735 118.467C278.055 120.557 279.994 123.08 282.514 126.021L285.551 123.418C283.088 120.544 281.289 118.187 280.117 116.331C279.532 115.403 279.126 114.638 278.873 114.025C278.611 113.392 278.557 113.032 278.557 112.882H274.557ZM282.618 126.134C287.88 131.396 290.131 135.896 290.131 139.673H294.131C294.131 134.312 290.983 128.843 285.447 123.306L282.618 126.134ZM290.131 139.673C290.131 143.476 287.855 148.193 282.567 153.888L285.498 156.61C291.008 150.675 294.131 145.007 294.131 139.673H290.131ZM282.563 153.893C280.039 156.628 278.091 159 276.762 160.994C275.5 162.888 274.557 164.779 274.557 166.464H278.557C278.557 166.072 278.861 165.056 280.09 163.212C281.253 161.468 283.043 159.27 285.503 156.606L282.563 153.893ZM274.557 166.464V195.748H278.557V166.464H274.557ZM274.557 195.748C274.557 199.192 275.811 202.191 278.258 204.638L281.086 201.81C279.381 200.104 278.557 198.119 278.557 195.748H274.557ZM278.392 204.761C280.891 206.844 282.484 208.243 283.241 209L286.07 206.172C285.166 205.267 283.437 203.759 280.953 201.688L278.392 204.761ZM283.627 209.301C289.555 212.858 292 216.679 292 220.67H296C296 214.691 292.216 209.79 285.685 205.871L283.627 209.301ZM292 220.67C292 224.207 290.619 227.202 287.699 229.757L290.334 232.767C294.059 229.506 296 225.44 296 220.67H292ZM287.715 229.743C285.237 231.867 281.991 233 277.803 233V237C282.752 237 286.981 235.641 290.318 232.78L287.715 229.743ZM277.803 233C274.818 233 271.565 232.254 268.026 230.68L266.401 234.335C270.337 236.085 274.144 237 277.803 237V233ZM268.185 230.76C264.193 228.542 260.124 227.393 256 227.393V231.393C259.351 231.393 262.758 232.32 266.242 234.256L268.185 230.76ZM256 227.393C251.876 227.393 247.807 228.542 243.815 230.76L245.758 234.256C249.242 232.32 252.649 231.393 256 231.393V227.393ZM243.974 230.68C240.435 232.254 237.182 233 234.197 233V237C237.856 237 241.663 236.085 245.599 234.335L243.974 230.68ZM225.93 72.5512L230.291 76.9125L233.119 74.0843L228.759 69.723L225.93 72.5512ZM230.291 201.81L225.93 206.172L228.759 209L233.119 204.638L230.291 201.81ZM246 59C246 53.4772 250.477 49 256 49V45C248.268 45 242 51.268 242 59H246ZM256 49C261.523 49 266 53.4772 266 59H270C270 51.268 263.732 45 256 45V49ZM246 134C244.343 134 243 132.657 243 131H239C239 134.866 242.134 138 246 138V134ZM243 131C243 129.343 244.343 128 246 128V124C242.134 124 239 127.134 239 131H243ZM269 131C269 132.657 267.657 134 266 134V138C269.866 138 273 134.866 273 131H269ZM266 128C267.657 128 269 129.343 269 131H273C273 127.134 269.866 124 266 124V128ZM246 151C244.343 151 243 149.657 243 148H239C239 151.866 242.134 155 246 155V151ZM243 148C243 146.343 244.343 145 246 145V141C242.134 141 239 144.134 239 148H243ZM259 211C259 212.657 257.657 214 256 214V218C259.866 218 263 214.866 263 211H259ZM256 214C254.343 214 253 212.657 253 211H249C249 214.866 252.134 218 256 218V214ZM269 148C269 149.657 267.657 151 266 151V155C269.866 155 273 151.866 273 148H269ZM266 145C267.657 145 269 146.343 269 148H273C273 144.134 269.866 141 266 141V145ZM261 114H251V118H261V114ZM251 165H261V161H251V165ZM259 163V211H263V163H259ZM253 211V163H249V211H253ZM246 128H266V124H246V128ZM266 134H246V138H266V134ZM246 145H266V141H246V145ZM266 151H246V155H266V151ZM253 116V69.9119H249V116H253ZM251.834 68.0942C248.387 66.5122 246 63.0328 246 59H242C242 64.6532 245.351 69.5196 250.166 71.7296L251.834 68.0942ZM259 69.9119V116H263V69.9119H259ZM266 59C266 63.0328 263.613 66.5122 260.166 68.0942L261.834 71.7296C266.649 69.5196 270 64.6532 270 59H266Z" fill="white" mask="url(#path-2-inside-1_170_446)"/>
</svg>
