<svg width="512" height="512" viewBox="0 0 512 512" fill="none" xmlns="http://www.w3.org/2000/svg">
<path d="M0 0H512V512H0V0Z" fill="white"/>
<path fill-rule="evenodd" clip-rule="evenodd" d="M234.197 477C229.628 477 225.683 475.754 222.361 473.262C219.454 470.354 218 466.823 218 462.67C218 457.685 221.115 453.324 227.344 449.586L231.705 445.224C234.197 443.147 235.443 440.655 235.443 437.748V408.464C235.443 406.387 232.743 402.649 227.344 397.249C222.361 391.434 219.869 386.242 219.869 381.673C219.869 377.104 222.361 372.119 227.344 366.72C232.743 360.904 235.443 356.958 235.443 354.882V324.975C235.443 322.068 234.197 319.575 231.705 317.498L227.344 313.137C221.115 309.399 218 305.037 218 300.053C218 295.484 219.661 291.953 222.984 289.461C226.306 286.969 229.421 285.723 232.328 285.723C234.82 285.723 237.934 284.269 241.672 281.361C245.825 278.454 250.601 277 256 277C261.399 277 265.967 278.454 269.705 281.361C273.858 284.269 277.18 285.723 279.672 285.723C282.579 285.723 285.694 286.969 289.016 289.461C292.339 291.953 294 295.484 294 300.053C294 305.037 290.885 309.399 284.656 313.137C283.825 313.968 282.164 315.422 279.672 317.498C277.596 319.575 276.557 322.068 276.557 324.975V354.882C276.557 356.958 279.049 360.904 284.033 366.72C289.432 372.119 292.131 377.104 292.131 381.673C292.131 386.242 289.432 391.434 284.033 397.249C279.049 402.649 276.557 406.387 276.557 408.464V437.748C276.557 440.655 277.596 443.147 279.672 445.224C282.164 447.301 283.825 448.755 284.656 449.586C290.885 453.324 294 457.685 294 462.67C294 466.823 292.339 470.354 289.016 473.262C286.109 475.754 282.372 477 277.803 477C274.481 477 270.951 476.169 267.213 474.508C263.475 472.431 259.738 471.393 256 471.393C252.262 471.393 248.525 472.431 244.787 474.508C241.049 476.169 237.519 477 234.197 477ZM244 301C244 294.373 249.373 289 256 289C262.627 289 268 294.373 268 301C268 305.843 265.131 310.016 261 311.912V358H251V311.912C246.869 310.016 244 305.843 244 301ZM241 373C241 375.761 243.239 378 246 378H266C268.761 378 271 375.761 271 373C271 370.239 268.761 368 266 368H246C243.239 368 241 370.239 241 373ZM246 395C243.239 395 241 392.761 241 390C241 387.239 243.239 385 246 385H266C268.761 385 271 387.239 271 390C271 392.761 268.761 395 266 395H246ZM256 458C258.761 458 261 455.761 261 453V405H251V453C251 455.761 253.239 458 256 458Z" fill="#008000"/>
<path fill-rule="evenodd" clip-rule="evenodd" d="M234.197 235C229.628 235 225.683 233.754 222.361 231.262C219.454 228.354 218 224.823 218 220.67C218 215.685 221.115 211.324 227.344 207.586L231.705 203.224C234.197 201.147 235.443 198.655 235.443 195.748V166.464C235.443 164.387 232.743 160.649 227.344 155.249C222.361 149.434 219.869 144.242 219.869 139.673C219.869 135.104 222.361 130.119 227.344 124.72C232.743 118.904 235.443 114.958 235.443 112.882V82.9751C235.443 80.0675 234.197 77.5753 231.705 75.4984L227.344 71.1371C221.115 67.3988 218 63.0374 218 58.053C218 53.4839 219.661 49.9533 222.984 47.4611C226.306 44.9688 229.421 43.7228 232.328 43.7228C234.82 43.7228 237.934 42.269 241.672 39.3614C245.825 36.4538 250.601 35 256 35C261.399 35 265.967 36.4538 269.705 39.3614C273.858 42.269 277.18 43.7228 279.672 43.7228C282.579 43.7228 285.694 44.9688 289.016 47.4611C292.339 49.9533 294 53.4839 294 58.053C294 63.0374 290.885 67.3988 284.656 71.1371C283.825 71.9678 282.164 73.4216 279.672 75.4984C277.596 77.5753 276.557 80.0675 276.557 82.9751V112.882C276.557 114.958 279.049 118.904 284.033 124.72C289.432 130.119 292.131 135.104 292.131 139.673C292.131 144.242 289.432 149.434 284.033 155.249C279.049 160.649 276.557 164.387 276.557 166.464V195.748C276.557 198.655 277.596 201.147 279.672 203.224C282.164 205.301 283.825 206.755 284.656 207.586C290.885 211.324 294 215.685 294 220.67C294 224.823 292.339 228.354 289.016 231.262C286.109 233.754 282.372 235 277.803 235C274.481 235 270.951 234.169 267.213 232.508C263.475 230.431 259.738 229.393 256 229.393C252.262 229.393 248.525 230.431 244.787 232.508C241.049 234.169 237.519 235 234.197 235ZM244 59C244 52.3726 249.373 47 256 47C262.627 47 268 52.3726 268 59C268 63.843 265.131 68.0159 261 69.9119V116H251V69.9119C246.869 68.0159 244 63.843 244 59ZM241 131C241 133.761 243.239 136 246 136H266C268.761 136 271 133.761 271 131C271 128.239 268.761 126 266 126H246C243.239 126 241 128.239 241 131ZM246 153C243.239 153 241 150.761 241 148C241 145.239 243.239 143 246 143H266C268.761 143 271 145.239 271 148C271 150.761 268.761 153 266 153H246ZM256 216C258.761 216 261 213.761 261 211V163H251V211C251 213.761 253.239 216 256 216Z" fill="#008000"/>
</svg>
