<svg width="512" height="512" viewBox="0 0 512 512" fill="none" xmlns="http://www.w3.org/2000/svg">
<path d="M1 1H511V511H1V1Z" fill="white" stroke="white" stroke-width="2"/>
<mask id="path-2-inside-1_170_523" fill="white">
<path d="M197.564 317.894C187.327 317.894 176.358 316.675 164.658 314.237C152.958 311.312 144.914 307.169 140.527 301.806C141.014 301.319 143.208 299.856 147.108 297.419C151.008 294.981 155.396 293.762 160.271 293.762C166.121 293.762 173.189 294.981 181.477 297.419C183.427 297.906 186.839 298.637 191.714 299.612C197.077 300.587 202.439 301.075 207.802 301.075C217.552 301.075 224.133 300.1 227.546 298.15C230.958 296.2 232.664 291.813 232.664 284.988C232.664 283.525 231.202 282.55 228.277 282.062C225.839 281.088 224.133 279.869 223.158 278.406C223.158 275.969 224.133 273.775 226.083 271.825C228.521 269.387 230.471 266.95 231.933 264.513C233.396 262.075 235.346 258.906 237.783 255.006C240.221 251.106 242.171 248.181 243.633 246.231C245.583 244.281 247.777 243.306 250.214 243.306C251.677 243.306 252.896 244.037 253.871 245.5C254.846 246.963 255.333 248.669 255.333 250.619C255.333 256.956 254.114 263.781 251.677 271.094C249.727 278.406 248.264 284.256 247.289 288.644C248.752 291.081 250.458 292.3 252.408 292.3C255.333 292.3 259.477 286.694 264.839 275.481C270.689 264.269 273.614 256.225 273.614 251.35C273.614 248.425 271.908 245.744 268.496 243.306C265.571 240.869 263.621 238.675 262.646 236.725C264.108 233.8 267.277 230.144 272.152 225.756C277.027 221.369 282.389 218.2 288.239 216.25C292.139 217.713 295.552 221.125 298.477 226.487C301.402 231.362 302.864 236.969 302.864 243.306C302.864 248.181 300.914 254.031 297.014 260.856C292.627 266.706 290.189 273.044 289.702 279.869C296.527 278.894 301.889 277.919 305.789 276.944C321.389 274.019 335.527 272.556 348.202 272.556C363.802 272.556 372.821 274.262 375.258 277.675C371.846 284.5 366.483 289.619 359.171 293.031C352.833 292.544 339.671 292.3 319.683 292.3C309.933 292.3 299.696 293.519 288.971 295.956C278.733 298.394 265.814 301.806 250.214 306.194C240.464 309.119 230.714 311.8 220.964 314.237C211.702 316.675 203.902 317.894 197.564 317.894ZM316.758 479.5C310.421 479.5 298.721 476.331 281.658 469.994C265.083 463.169 253.383 457.562 246.558 453.175C244.608 453.662 242.171 455.125 239.246 457.562C236.321 460 234.127 461.219 232.664 461.219C227.789 461.219 223.158 460.487 218.771 459.025C214.383 457.075 211.214 455.856 209.264 455.369C209.264 456.831 209.021 459.513 208.533 463.413C208.533 466.825 208.046 469.75 207.071 472.188C206.096 474.137 204.389 475.112 201.952 475.112C197.564 475.112 193.421 469.75 189.521 459.025C186.108 447.812 184.158 441.231 183.671 439.281H174.896C165.633 439.281 157.102 437.819 149.302 434.894C141.502 431.969 137.602 427.825 137.602 422.462L138.333 417.344C142.72 417.344 148.814 417.831 156.614 418.806C164.414 419.781 170.508 420.269 174.896 420.269H177.821C177.333 414.906 176.114 408.569 174.164 401.256C171.239 386.631 169.777 378.1 169.777 375.663C169.777 374.688 170.752 373.225 172.702 371.275C178.552 372.25 182.452 374.687 184.402 378.587C186.839 382 189.033 387.606 190.983 395.406C193.908 406.131 196.833 414.175 199.758 419.537C206.583 419.537 212.677 418.806 218.039 417.344C223.402 415.394 226.571 414.175 227.546 413.688L228.277 392.481C226.814 392.481 222.914 393.7 216.577 396.138C215.602 397.6 214.383 399.794 212.921 402.719C211.458 405.644 209.508 408.325 207.071 410.763C204.146 409.3 201.464 404.425 199.027 396.138C197.077 387.363 196.102 378.1 196.102 368.35C196.102 349.825 197.077 336.419 199.027 328.131C215.114 325.694 236.808 320.819 264.108 313.506C281.171 308.631 292.871 306.194 299.208 306.194C309.446 306.194 314.564 309.606 314.564 316.431C314.564 317.894 312.858 324.231 309.446 335.444C306.033 346.169 304.327 359.331 304.327 374.931C304.327 382.731 304.814 391.019 305.789 399.794C322.364 401.256 339.914 405.644 358.439 412.956C376.964 419.781 386.227 430.262 386.227 444.4C386.227 452.687 383.058 459.025 376.721 463.413C370.383 467.8 362.339 469.994 352.589 469.994C350.639 469.994 348.202 470.481 345.277 471.456C342.352 472.431 340.158 473.163 338.696 473.65C328.946 477.55 321.633 479.5 316.758 479.5ZM244.364 347.144C251.189 346.169 256.796 345.194 261.183 344.219C266.058 342.756 270.689 341.781 275.077 341.294L275.808 324.475C271.421 325.45 266.302 326.912 260.452 328.862C254.602 330.325 249.971 331.3 246.558 331.788C246.071 334.713 245.583 337.394 245.096 339.831C244.608 342.269 244.364 344.706 244.364 347.144ZM216.577 352.262C219.502 352.262 221.939 352.019 223.889 351.531C226.327 351.044 228.277 350.556 229.739 350.069C229.739 346.169 230.227 341.294 231.202 335.444L213.652 338.369V351.531L216.577 352.262ZM244.364 375.663C251.189 375.175 260.939 372.981 273.614 369.081C273.614 361.769 273.858 356.162 274.346 352.262C263.621 355.675 253.627 358.113 244.364 359.575V375.663ZM214.383 380.781C216.821 380.781 221.452 380.294 228.277 379.319V362.5C224.377 362.987 220.964 363.475 218.039 363.962C215.114 364.45 213.652 365.181 213.652 366.156C213.652 367.131 213.652 368.594 213.652 370.544L214.383 380.781ZM245.827 408.569C256.552 406.619 266.058 403.937 274.346 400.525C274.346 392.237 274.102 385.9 273.614 381.512C269.714 382.487 265.327 383.706 260.452 385.169C256.064 386.144 251.189 387.362 245.827 388.825V408.569ZM290.433 460.487C294.821 460.487 299.452 458.781 304.327 455.369C309.202 451.469 312.858 449.031 315.296 448.056C317.733 447.081 322.364 446.35 329.189 445.862C336.502 444.887 341.864 443.425 345.277 441.475C349.177 439.525 351.127 435.869 351.127 430.506C351.127 426.606 346.008 422.95 335.771 419.537C325.533 415.637 316.271 413.444 307.983 412.956C307.983 414.419 308.227 416.856 308.714 420.269C309.689 423.194 310.177 425.875 310.177 428.312C310.177 430.75 309.446 433.431 307.983 436.356C304.571 438.794 300.183 440.988 294.821 442.938C289.458 444.887 284.827 445.862 280.927 445.862C279.952 444.4 279.221 442.938 278.733 441.475C278.246 439.525 277.514 437.819 276.539 436.356C273.614 437.331 270.446 439.038 267.033 441.475C263.621 443.913 260.452 445.619 257.527 446.594C259.477 449.519 264.352 452.687 272.152 456.1C279.952 459.025 286.046 460.487 290.433 460.487ZM250.214 433.431C252.652 433.431 256.064 432.456 260.452 430.506C265.327 428.556 270.446 426.85 275.808 425.387C274.833 420.025 274.589 416.125 275.077 413.688C270.202 414.175 264.839 415.394 258.989 417.344C253.139 419.294 248.996 420.756 246.558 421.731C246.558 424.656 246.802 427.337 247.289 429.775C248.264 432.212 249.239 433.431 250.214 433.431ZM207.802 446.594C214.627 445.131 222.427 442.45 231.202 438.55C228.764 435.625 227.546 431.725 227.546 426.85L202.683 434.894L207.802 446.594Z"/>
</mask>
<path d="M197.564 317.894C187.327 317.894 176.358 316.675 164.658 314.237C152.958 311.312 144.914 307.169 140.527 301.806C141.014 301.319 143.208 299.856 147.108 297.419C151.008 294.981 155.396 293.762 160.271 293.762C166.121 293.762 173.189 294.981 181.477 297.419C183.427 297.906 186.839 298.637 191.714 299.612C197.077 300.587 202.439 301.075 207.802 301.075C217.552 301.075 224.133 300.1 227.546 298.15C230.958 296.2 232.664 291.813 232.664 284.988C232.664 283.525 231.202 282.55 228.277 282.062C225.839 281.088 224.133 279.869 223.158 278.406C223.158 275.969 224.133 273.775 226.083 271.825C228.521 269.387 230.471 266.95 231.933 264.513C233.396 262.075 235.346 258.906 237.783 255.006C240.221 251.106 242.171 248.181 243.633 246.231C245.583 244.281 247.777 243.306 250.214 243.306C251.677 243.306 252.896 244.037 253.871 245.5C254.846 246.963 255.333 248.669 255.333 250.619C255.333 256.956 254.114 263.781 251.677 271.094C249.727 278.406 248.264 284.256 247.289 288.644C248.752 291.081 250.458 292.3 252.408 292.3C255.333 292.3 259.477 286.694 264.839 275.481C270.689 264.269 273.614 256.225 273.614 251.35C273.614 248.425 271.908 245.744 268.496 243.306C265.571 240.869 263.621 238.675 262.646 236.725C264.108 233.8 267.277 230.144 272.152 225.756C277.027 221.369 282.389 218.2 288.239 216.25C292.139 217.713 295.552 221.125 298.477 226.487C301.402 231.362 302.864 236.969 302.864 243.306C302.864 248.181 300.914 254.031 297.014 260.856C292.627 266.706 290.189 273.044 289.702 279.869C296.527 278.894 301.889 277.919 305.789 276.944C321.389 274.019 335.527 272.556 348.202 272.556C363.802 272.556 372.821 274.262 375.258 277.675C371.846 284.5 366.483 289.619 359.171 293.031C352.833 292.544 339.671 292.3 319.683 292.3C309.933 292.3 299.696 293.519 288.971 295.956C278.733 298.394 265.814 301.806 250.214 306.194C240.464 309.119 230.714 311.8 220.964 314.237C211.702 316.675 203.902 317.894 197.564 317.894ZM316.758 479.5C310.421 479.5 298.721 476.331 281.658 469.994C265.083 463.169 253.383 457.562 246.558 453.175C244.608 453.662 242.171 455.125 239.246 457.562C236.321 460 234.127 461.219 232.664 461.219C227.789 461.219 223.158 460.487 218.771 459.025C214.383 457.075 211.214 455.856 209.264 455.369C209.264 456.831 209.021 459.513 208.533 463.413C208.533 466.825 208.046 469.75 207.071 472.188C206.096 474.137 204.389 475.112 201.952 475.112C197.564 475.112 193.421 469.75 189.521 459.025C186.108 447.812 184.158 441.231 183.671 439.281H174.896C165.633 439.281 157.102 437.819 149.302 434.894C141.502 431.969 137.602 427.825 137.602 422.462L138.333 417.344C142.72 417.344 148.814 417.831 156.614 418.806C164.414 419.781 170.508 420.269 174.896 420.269H177.821C177.333 414.906 176.114 408.569 174.164 401.256C171.239 386.631 169.777 378.1 169.777 375.663C169.777 374.688 170.752 373.225 172.702 371.275C178.552 372.25 182.452 374.687 184.402 378.587C186.839 382 189.033 387.606 190.983 395.406C193.908 406.131 196.833 414.175 199.758 419.537C206.583 419.537 212.677 418.806 218.039 417.344C223.402 415.394 226.571 414.175 227.546 413.688L228.277 392.481C226.814 392.481 222.914 393.7 216.577 396.138C215.602 397.6 214.383 399.794 212.921 402.719C211.458 405.644 209.508 408.325 207.071 410.763C204.146 409.3 201.464 404.425 199.027 396.138C197.077 387.363 196.102 378.1 196.102 368.35C196.102 349.825 197.077 336.419 199.027 328.131C215.114 325.694 236.808 320.819 264.108 313.506C281.171 308.631 292.871 306.194 299.208 306.194C309.446 306.194 314.564 309.606 314.564 316.431C314.564 317.894 312.858 324.231 309.446 335.444C306.033 346.169 304.327 359.331 304.327 374.931C304.327 382.731 304.814 391.019 305.789 399.794C322.364 401.256 339.914 405.644 358.439 412.956C376.964 419.781 386.227 430.262 386.227 444.4C386.227 452.687 383.058 459.025 376.721 463.413C370.383 467.8 362.339 469.994 352.589 469.994C350.639 469.994 348.202 470.481 345.277 471.456C342.352 472.431 340.158 473.163 338.696 473.65C328.946 477.55 321.633 479.5 316.758 479.5ZM244.364 347.144C251.189 346.169 256.796 345.194 261.183 344.219C266.058 342.756 270.689 341.781 275.077 341.294L275.808 324.475C271.421 325.45 266.302 326.912 260.452 328.862C254.602 330.325 249.971 331.3 246.558 331.788C246.071 334.713 245.583 337.394 245.096 339.831C244.608 342.269 244.364 344.706 244.364 347.144ZM216.577 352.262C219.502 352.262 221.939 352.019 223.889 351.531C226.327 351.044 228.277 350.556 229.739 350.069C229.739 346.169 230.227 341.294 231.202 335.444L213.652 338.369V351.531L216.577 352.262ZM244.364 375.663C251.189 375.175 260.939 372.981 273.614 369.081C273.614 361.769 273.858 356.162 274.346 352.262C263.621 355.675 253.627 358.113 244.364 359.575V375.663ZM214.383 380.781C216.821 380.781 221.452 380.294 228.277 379.319V362.5C224.377 362.987 220.964 363.475 218.039 363.962C215.114 364.45 213.652 365.181 213.652 366.156C213.652 367.131 213.652 368.594 213.652 370.544L214.383 380.781ZM245.827 408.569C256.552 406.619 266.058 403.937 274.346 400.525C274.346 392.237 274.102 385.9 273.614 381.512C269.714 382.487 265.327 383.706 260.452 385.169C256.064 386.144 251.189 387.362 245.827 388.825V408.569ZM290.433 460.487C294.821 460.487 299.452 458.781 304.327 455.369C309.202 451.469 312.858 449.031 315.296 448.056C317.733 447.081 322.364 446.35 329.189 445.862C336.502 444.887 341.864 443.425 345.277 441.475C349.177 439.525 351.127 435.869 351.127 430.506C351.127 426.606 346.008 422.95 335.771 419.537C325.533 415.637 316.271 413.444 307.983 412.956C307.983 414.419 308.227 416.856 308.714 420.269C309.689 423.194 310.177 425.875 310.177 428.312C310.177 430.75 309.446 433.431 307.983 436.356C304.571 438.794 300.183 440.988 294.821 442.938C289.458 444.887 284.827 445.862 280.927 445.862C279.952 444.4 279.221 442.938 278.733 441.475C278.246 439.525 277.514 437.819 276.539 436.356C273.614 437.331 270.446 439.038 267.033 441.475C263.621 443.913 260.452 445.619 257.527 446.594C259.477 449.519 264.352 452.687 272.152 456.1C279.952 459.025 286.046 460.487 290.433 460.487ZM250.214 433.431C252.652 433.431 256.064 432.456 260.452 430.506C265.327 428.556 270.446 426.85 275.808 425.387C274.833 420.025 274.589 416.125 275.077 413.688C270.202 414.175 264.839 415.394 258.989 417.344C253.139 419.294 248.996 420.756 246.558 421.731C246.558 424.656 246.802 427.337 247.289 429.775C248.264 432.212 249.239 433.431 250.214 433.431ZM207.802 446.594C214.627 445.131 222.427 442.45 231.202 438.55C228.764 435.625 227.546 431.725 227.546 426.85L202.683 434.894L207.802 446.594Z" fill="#969696" stroke="white" stroke-width="4" mask="url(#path-2-inside-1_170_523)"/>
<path d="M198.052 73.1647L198.075 73.1704L198.098 73.1751C200.619 73.6793 203.613 73.9258 207.069 73.9258C214.508 73.9258 226.612 71.95 243.311 68.0496C260.035 64.1431 281.446 58.2867 307.537 50.4839L307.545 50.4816C313.879 48.5325 318.804 47.0734 322.324 46.1023C324.085 45.6165 325.486 45.2553 326.531 45.0163C327.617 44.7682 328.223 44.6758 328.457 44.6758C330.523 44.6758 331.887 45.1376 332.728 45.8857C333.547 46.6138 334.038 47.7624 334.038 49.5258C334.038 50.7122 333.482 52.3484 332.174 54.4887C330.88 56.6063 328.915 59.1125 326.257 62.0126L326.241 62.03L326.226 62.0481C321.456 67.7726 316.717 72.0426 312.019 74.8942C299.77 76.8664 279.812 81.2525 252.168 88.0421L252.155 88.0454L252.142 88.049C227.269 94.8768 210.085 98.2508 200.488 98.2508C193.83 98.2508 186.655 96.5863 178.951 93.2159C175.093 91.5279 172.273 89.8703 170.434 88.2607C168.588 86.6454 167.85 85.1902 167.85 83.8945C167.85 83.8733 167.875 83.6707 168.221 83.2454C168.548 82.8428 169.074 82.3485 169.837 81.7622C171.355 80.5942 173.672 79.164 176.817 77.4697C183.628 74.0658 188.557 72.4633 191.713 72.4633C194.085 72.4633 196.196 72.7007 198.052 73.1647ZM187.74 125.062L187.894 125.113H188.057H188.068H188.08H188.091H188.103H188.114H188.126H188.137H188.149H188.161H188.172H188.184H188.196H188.208H188.219H188.231H188.243H188.255H188.267H188.279H188.291H188.303H188.315H188.327H188.339H188.351H188.363H188.375H188.388H188.4H188.412H188.424H188.437H188.449H188.461H188.474H188.486H188.499H188.511H188.523H188.536H188.549H188.561H188.574H188.586H188.599H188.612H188.624H188.637H188.65H188.663H188.676H188.689H188.701H188.714H188.727H188.74H188.753H188.766H188.779H188.792H188.806H188.819H188.832H188.845H188.858H188.872H188.885H188.898H188.911H188.925H188.938H188.952H188.965H188.979H188.992H189.006H189.019H189.033H189.046H189.06H189.074H189.087H189.101H189.115H189.129H189.142H189.156H189.17H189.184H189.198H189.212H189.226H189.24H189.254H189.268H189.282H189.296H189.31H189.325H189.339H189.353H189.367H189.381H189.396H189.41H189.425H189.439H189.453H189.468H189.482H189.497H189.511H189.526H189.54H189.555H189.57H189.584H189.599H189.614H189.629H189.643H189.658H189.673H189.688H189.703H189.718H189.733H189.748H189.763H189.778H189.793H189.808H189.823H189.838H189.853H189.869H189.884H189.899H189.914H189.93H189.945H189.96H189.976H189.991H190.007H190.022H190.038H190.053H190.069H190.084H190.1H190.116H190.131H190.147H190.163H190.179H190.194H190.21H190.226H190.242H190.258H190.274H190.29H190.306H190.322H190.338H190.354H190.37H190.386H190.402H190.418H190.435H190.451H190.467H190.483H190.5H190.516H190.532H190.549H190.565H190.582H190.598H190.615H190.631H190.648H190.664H190.681H190.698H190.714H190.731H190.748H190.765H190.781H190.798H190.815H190.832H190.849H190.866H190.883H190.9H190.917H190.934H190.951H190.968H190.985H191.002H191.019H191.037H191.054H191.071H191.088H191.106H191.123H191.141H191.158H191.175H191.193H191.21H191.228H191.245H191.263H191.281H191.298H191.316H191.334H191.351H191.369H191.387H191.405H191.422H191.44H191.458H191.476H191.494H191.512H191.53H191.548H191.566H191.584H191.602H191.62H191.639H191.657H191.675H191.693H191.711H191.73H191.748H191.766H191.785H191.803H191.822H191.84H191.859H191.877H191.896H191.914H191.933H191.952H191.97H191.989H192.008H192.026H192.045H192.064H192.083H192.102H192.121H192.139H192.158H192.177H192.196H192.215H192.234H192.254H192.273H192.292H192.311H192.33H192.349H192.369H192.388H192.407H192.427H192.446H192.465H192.485H192.504H192.524H192.543H192.563H192.582H192.602H192.621H192.641H192.661H192.68H192.7H192.72H192.74H192.759H192.779H192.799H192.819H192.839H192.859H192.879H192.899H192.919H192.939H192.959H192.979H192.999H193.02H193.04H193.06H193.08H193.1H193.121H193.141H193.161H193.182H193.202H193.223H193.243H193.264H193.284H193.305H193.325H193.346H193.367H193.387H193.408H193.429H193.45H193.47H193.491H193.512H193.533H193.554H193.575H193.596H193.617H193.638H193.659H193.68H193.701H193.722H193.743H193.764H193.785H193.807H193.828H193.849H193.871H193.892H193.913H193.935H193.956H193.978H193.999H194.021H194.042H194.064H194.085H194.107H194.128H194.15H194.172H194.194H194.215H194.237H194.259H194.281H194.303H194.325H194.347H194.368H194.39H194.412H194.434H194.457H194.479H194.501H194.523H194.545H194.567H194.59H194.612H194.634H194.656H194.679H194.701H194.724H194.746H194.768H194.791H194.813H194.836H194.859H194.881H194.904H194.926H194.949H194.972H194.995H195.017H195.04H195.063H195.086H195.109H195.132H195.154H195.177H195.2H195.223H195.247H195.27H195.293H195.316H195.339H195.362H195.385H195.409H195.432H195.455H195.478H195.502H195.525H195.549H195.572H195.596H195.619H195.643H195.666H195.69H195.713H195.737H195.761H195.784H195.808H195.832H195.855H195.879H195.903H195.927H195.951H195.975H195.999H196.023H196.047H196.071H196.095H196.119H196.143H196.167H196.191H196.215H196.24H196.264H196.288H196.312H196.337H196.361H196.385H196.41H196.434H196.459H196.483H196.508H196.532H196.557H196.581H196.606H196.631H196.655H196.68H196.705H196.73H196.755H196.779H196.804H196.829H196.854H196.879H196.904H196.929H196.954H196.979H197.004H197.029H197.054H197.079H197.105H197.13H197.155H197.18H197.206H197.231H197.256H197.282H197.307H197.333H197.358H197.384H197.409H197.435H197.46H197.486H197.512H197.537H197.563C202.812 125.113 210.896 123.746 221.751 121.062C232.626 118.374 246.356 114.346 262.936 108.983C266.375 107.999 274.186 105.558 286.349 101.666C298.537 97.7657 307.179 95.8633 312.369 95.8633C313.427 95.8633 314.361 96.3629 315.193 97.6117L315.304 97.7781L315.471 97.8891C316.719 98.7216 317.219 99.6559 317.219 100.713C317.219 106.556 313.177 113.087 304.55 120.308C288.528 126.127 268.626 132.192 244.838 138.503L244.833 138.504C221.424 144.844 205.213 147.976 196.1 147.976C188.382 147.976 179.921 147.011 170.713 145.072C166.118 144.105 162.767 142.974 160.587 141.712C158.393 140.442 157.613 139.183 157.613 138.007C157.613 137.848 157.7 137.518 158.125 136.986C158.539 136.469 159.197 135.856 160.138 135.151C162.015 133.743 164.874 132.07 168.749 130.132C172.875 128.191 176.253 126.744 178.892 125.784C181.572 124.81 183.375 124.382 184.4 124.382C185.224 124.382 186.328 124.591 187.74 125.062ZM347.256 190.533L347.246 190.527L347.236 190.521C337.474 184.908 329.222 180.506 322.486 177.322C315.77 174.147 310.502 172.154 306.722 171.397C299.78 169.91 287.497 169.182 269.957 169.182C264.461 169.182 257.782 170.427 249.942 172.875C242.118 174.832 234.296 177.277 226.475 180.209C210.901 185.563 197.037 189.941 184.88 193.345C172.783 196.247 159.706 197.701 145.644 197.701C139.373 197.701 133.102 197.22 126.829 196.257C123.985 195.542 121.874 194.669 120.436 193.674C119.047 192.712 118.341 191.678 118.129 190.592C118.15 190.433 118.252 190.163 118.604 189.768C119.003 189.319 119.646 188.798 120.58 188.214C122.445 187.049 125.297 185.736 129.176 184.281L129.191 184.275L129.206 184.269C137.43 180.883 145.146 178.716 152.358 177.755L152.367 177.753L167.706 175.562C190.166 173.12 210.685 169.456 229.261 164.568L229.271 164.565L229.281 164.562L285.588 148.475L285.604 148.47L285.62 148.465C293.162 146.032 299.473 144.212 304.557 143.002C309.658 141.787 313.465 141.201 316.025 141.201C319.347 141.201 322.139 141.676 324.429 142.592C326.835 143.554 329.491 144.761 332.397 146.214C335.342 147.686 338.528 149.157 341.956 150.626L341.968 150.631L341.979 150.635L342.35 149.707C341.979 150.635 341.979 150.636 341.979 150.636L341.979 150.636L341.981 150.636L341.985 150.638L342.004 150.646L342.079 150.675L342.379 150.795L343.579 151.275L348.377 153.195L367.573 160.873L367.614 160.89L367.657 160.902C377.39 163.822 384.069 166.707 387.819 169.52L387.874 169.561L387.934 169.594C391.945 171.822 394 175.592 394 181.151C394 185.265 392.161 190.437 388.299 196.714L388.293 196.724L388.287 196.734C384.949 202.456 381.315 205.013 377.45 205.013C376.513 205.013 375.17 204.748 373.379 204.151C371.603 203.559 369.45 202.663 366.912 201.454C361.836 199.037 355.287 195.4 347.256 190.533Z" fill="#969696" stroke="white" stroke-width="2"/>
</svg>
