<svg width="512" height="512" viewBox="0 0 512 512" fill="none" xmlns="http://www.w3.org/2000/svg">
<path d="M0 0H512V512H0V0Z" fill="white"/>
<path d="M197.564 317.894C187.327 317.894 176.358 316.675 164.658 314.237C152.958 311.312 144.914 307.169 140.527 301.806C141.014 301.319 143.208 299.856 147.108 297.419C151.008 294.981 155.396 293.762 160.271 293.762C166.121 293.762 173.189 294.981 181.477 297.419C183.427 297.906 186.839 298.637 191.714 299.612C197.077 300.587 202.439 301.075 207.802 301.075C217.552 301.075 224.133 300.1 227.546 298.15C230.958 296.2 232.664 291.813 232.664 284.988C232.664 283.525 231.202 282.55 228.277 282.062C225.839 281.088 224.133 279.869 223.158 278.406C223.158 275.969 224.133 273.775 226.083 271.825C228.521 269.387 230.471 266.95 231.933 264.513C233.396 262.075 235.346 258.906 237.783 255.006C240.221 251.106 242.171 248.181 243.633 246.231C245.583 244.281 247.777 243.306 250.214 243.306C251.677 243.306 252.896 244.037 253.871 245.5C254.846 246.963 255.333 248.669 255.333 250.619C255.333 256.956 254.114 263.781 251.677 271.094C249.727 278.406 248.264 284.256 247.289 288.644C248.752 291.081 250.458 292.3 252.408 292.3C255.333 292.3 259.477 286.694 264.839 275.481C270.689 264.269 273.614 256.225 273.614 251.35C273.614 248.425 271.908 245.744 268.496 243.306C265.571 240.869 263.621 238.675 262.646 236.725C264.108 233.8 267.277 230.144 272.152 225.756C277.027 221.369 282.389 218.2 288.239 216.25C292.139 217.713 295.552 221.125 298.477 226.487C301.402 231.362 302.864 236.969 302.864 243.306C302.864 248.181 300.914 254.031 297.014 260.856C292.627 266.706 290.189 273.044 289.702 279.869C296.527 278.894 301.889 277.919 305.789 276.944C321.389 274.019 335.527 272.556 348.202 272.556C363.802 272.556 372.821 274.262 375.258 277.675C371.846 284.5 366.483 289.619 359.171 293.031C352.833 292.544 339.671 292.3 319.683 292.3C309.933 292.3 299.696 293.519 288.971 295.956C278.733 298.394 265.814 301.806 250.214 306.194C240.464 309.119 230.714 311.8 220.964 314.237C211.702 316.675 203.902 317.894 197.564 317.894ZM316.758 479.5C310.421 479.5 298.721 476.331 281.658 469.994C265.083 463.169 253.383 457.562 246.558 453.175C244.608 453.662 242.171 455.125 239.246 457.562C236.321 460 234.127 461.219 232.664 461.219C227.789 461.219 223.158 460.487 218.771 459.025C214.383 457.075 211.214 455.856 209.264 455.369C209.264 456.831 209.021 459.513 208.533 463.413C208.533 466.825 208.046 469.75 207.071 472.188C206.096 474.137 204.389 475.112 201.952 475.112C197.564 475.112 193.421 469.75 189.521 459.025C186.108 447.812 184.158 441.231 183.671 439.281H174.896C165.633 439.281 157.102 437.819 149.302 434.894C141.502 431.969 137.602 427.825 137.602 422.462L138.333 417.344C142.72 417.344 148.814 417.831 156.614 418.806C164.414 419.781 170.508 420.269 174.896 420.269H177.821C177.333 414.906 176.114 408.569 174.164 401.256C171.239 386.631 169.777 378.1 169.777 375.663C169.777 374.688 170.752 373.225 172.702 371.275C178.552 372.25 182.452 374.687 184.402 378.587C186.839 382 189.033 387.606 190.983 395.406C193.908 406.131 196.833 414.175 199.758 419.537C206.583 419.537 212.677 418.806 218.039 417.344C223.402 415.394 226.571 414.175 227.546 413.688L228.277 392.481C226.814 392.481 222.914 393.7 216.577 396.138C215.602 397.6 214.383 399.794 212.921 402.719C211.458 405.644 209.508 408.325 207.071 410.763C204.146 409.3 201.464 404.425 199.027 396.138C197.077 387.363 196.102 378.1 196.102 368.35C196.102 349.825 197.077 336.419 199.027 328.131C215.114 325.694 236.808 320.819 264.108 313.506C281.171 308.631 292.871 306.194 299.208 306.194C309.446 306.194 314.564 309.606 314.564 316.431C314.564 317.894 312.858 324.231 309.446 335.444C306.033 346.169 304.327 359.331 304.327 374.931C304.327 382.731 304.814 391.019 305.789 399.794C322.364 401.256 339.914 405.644 358.439 412.956C376.964 419.781 386.227 430.262 386.227 444.4C386.227 452.687 383.058 459.025 376.721 463.413C370.383 467.8 362.339 469.994 352.589 469.994C350.639 469.994 348.202 470.481 345.277 471.456C342.352 472.431 340.158 473.163 338.696 473.65C328.946 477.55 321.633 479.5 316.758 479.5ZM244.364 347.144C251.189 346.169 256.796 345.194 261.183 344.219C266.058 342.756 270.689 341.781 275.077 341.294L275.808 324.475C271.421 325.45 266.302 326.912 260.452 328.862C254.602 330.325 249.971 331.3 246.558 331.788C246.071 334.713 245.583 337.394 245.096 339.831C244.608 342.269 244.364 344.706 244.364 347.144ZM216.577 352.262C219.502 352.262 221.939 352.019 223.889 351.531C226.327 351.044 228.277 350.556 229.739 350.069C229.739 346.169 230.227 341.294 231.202 335.444L213.652 338.369V351.531L216.577 352.262ZM244.364 375.663C251.189 375.175 260.939 372.981 273.614 369.081C273.614 361.769 273.858 356.162 274.346 352.262C263.621 355.675 253.627 358.113 244.364 359.575V375.663ZM214.383 380.781C216.821 380.781 221.452 380.294 228.277 379.319V362.5C224.377 362.987 220.964 363.475 218.039 363.962C215.114 364.45 213.652 365.181 213.652 366.156C213.652 367.131 213.652 368.594 213.652 370.544L214.383 380.781ZM245.827 408.569C256.552 406.619 266.058 403.937 274.346 400.525C274.346 392.237 274.102 385.9 273.614 381.512C269.714 382.487 265.327 383.706 260.452 385.169C256.064 386.144 251.189 387.362 245.827 388.825V408.569ZM290.433 460.487C294.821 460.487 299.452 458.781 304.327 455.369C309.202 451.469 312.858 449.031 315.296 448.056C317.733 447.081 322.364 446.35 329.189 445.862C336.502 444.887 341.864 443.425 345.277 441.475C349.177 439.525 351.127 435.869 351.127 430.506C351.127 426.606 346.008 422.95 335.771 419.537C325.533 415.637 316.271 413.444 307.983 412.956C307.983 414.419 308.227 416.856 308.714 420.269C309.689 423.194 310.177 425.875 310.177 428.312C310.177 430.75 309.446 433.431 307.983 436.356C304.571 438.794 300.183 440.988 294.821 442.938C289.458 444.887 284.827 445.862 280.927 445.862C279.952 444.4 279.221 442.938 278.733 441.475C278.246 439.525 277.514 437.819 276.539 436.356C273.614 437.331 270.446 439.038 267.033 441.475C263.621 443.913 260.452 445.619 257.527 446.594C259.477 449.519 264.352 452.687 272.152 456.1C279.952 459.025 286.046 460.487 290.433 460.487ZM250.214 433.431C252.652 433.431 256.064 432.456 260.452 430.506C265.327 428.556 270.446 426.85 275.808 425.387C274.833 420.025 274.589 416.125 275.077 413.688C270.202 414.175 264.839 415.394 258.989 417.344C253.139 419.294 248.996 420.756 246.558 421.731C246.558 424.656 246.802 427.337 247.289 429.775C248.264 432.212 249.239 433.431 250.214 433.431ZM207.802 446.594C214.627 445.131 222.427 442.45 231.202 438.55C228.764 435.625 227.546 431.725 227.546 426.85L202.683 434.894L207.802 446.594Z" fill="#A80000"/>
<path d="M200.488 99.2508C193.663 99.2508 186.35 97.5445 178.55 94.132C170.75 90.7195 166.85 87.307 166.85 83.8945C166.85 82.432 170.019 79.9945 176.357 76.582C183.182 73.1695 188.3 71.4633 191.713 71.4633C194.15 71.4633 196.344 71.707 198.294 72.1945C200.732 72.682 203.657 72.9258 207.069 72.9258C221.694 72.9258 255.088 65.1258 307.25 49.5258C319.925 45.6258 326.994 43.6758 328.457 43.6758C332.844 43.6758 335.038 45.6258 335.038 49.5258C335.038 52.4508 332.357 56.8383 326.994 62.6883C322.119 68.5383 317.244 72.9258 312.369 75.8508C300.182 77.8008 280.194 82.1883 252.407 89.0133C227.544 95.8383 210.238 99.2508 200.488 99.2508ZM196.1 148.976C188.3 148.976 179.769 148.001 170.507 146.051C161.244 144.101 156.613 141.42 156.613 138.007C156.613 136.057 160.513 133.132 168.313 129.232C176.6 125.332 181.963 123.382 184.4 123.382C185.375 123.382 186.594 123.626 188.057 124.113C190.007 124.113 193.175 124.113 197.563 124.113C207.8 124.113 229.494 118.751 262.644 108.026C266.057 107.051 273.857 104.613 286.044 100.713C298.232 96.8133 307.007 94.8633 312.369 94.8633C313.832 94.8633 315.05 95.5945 316.025 97.057C317.488 98.032 318.219 99.2508 318.219 100.713C318.219 107.051 313.832 113.876 305.057 121.188C288.969 127.038 268.982 133.132 245.094 139.47C221.694 145.807 205.363 148.976 196.1 148.976ZM377.45 206.013C373.063 206.013 362.825 201.138 346.738 191.388C327.238 180.176 313.832 173.838 306.519 172.376C299.694 170.913 287.507 170.182 269.957 170.182C264.594 170.182 258.013 171.401 250.213 173.838C242.413 175.788 234.613 178.226 226.813 181.151C211.213 186.513 197.319 190.901 185.132 194.313C172.944 197.238 159.782 198.701 145.644 198.701C139.306 198.701 132.969 198.213 126.631 197.238C120.781 195.776 117.612 193.582 117.125 190.657C117.125 188.707 121.025 186.27 128.825 183.345C137.113 179.932 144.913 177.738 152.225 176.763L167.582 174.57C190.007 172.132 210.482 168.476 229.007 163.601L285.313 147.513C300.425 142.638 310.663 140.201 316.025 140.201C319.438 140.201 322.363 140.688 324.8 141.663C327.238 142.638 329.919 143.857 332.844 145.32C335.769 146.782 338.938 148.245 342.35 149.707C342.35 149.707 350.882 153.12 367.944 159.945C377.694 162.87 384.519 165.795 388.419 168.72C392.807 171.157 395 175.301 395 181.151C395 185.538 393.05 190.901 389.15 197.238C385.738 203.088 381.838 206.013 377.45 206.013Z" fill="black"/>
</svg>
