<svg width="512" height="512" viewBox="0 0 512 512" fill="none" xmlns="http://www.w3.org/2000/svg">
<path d="M0 0H512V512H0V0Z" fill="white"/>
<path fill-rule="evenodd" clip-rule="evenodd" d="M234.197 235C229.628 235 225.683 233.754 222.361 231.262C219.454 228.354 218 224.823 218 220.67C218 215.685 221.115 211.324 227.344 207.586L231.705 203.224C234.197 201.147 235.443 198.655 235.443 195.748V166.464C235.443 164.387 232.743 160.649 227.344 155.249C222.361 149.434 219.869 144.242 219.869 139.673C219.869 135.104 222.361 130.119 227.344 124.72C232.743 118.904 235.443 114.958 235.443 112.882V82.9751C235.443 80.0675 234.197 77.5753 231.705 75.4984L227.344 71.1371C221.115 67.3988 218 63.0374 218 58.053C218 53.4839 219.661 49.9533 222.984 47.4611C226.306 44.9688 229.421 43.7228 232.328 43.7228C234.82 43.7228 237.934 42.269 241.672 39.3614C245.825 36.4538 250.601 35 256 35C261.399 35 265.967 36.4538 269.705 39.3614C273.858 42.269 277.18 43.7228 279.672 43.7228C282.579 43.7228 285.694 44.9688 289.016 47.4611C292.339 49.9533 294 53.4839 294 58.053C294 63.0374 290.885 67.3988 284.656 71.1371C283.825 71.9678 282.164 73.4216 279.672 75.4984C277.596 77.5753 276.557 80.0675 276.557 82.9751V112.882C276.557 114.958 279.049 118.904 284.033 124.72C289.432 130.119 292.131 135.104 292.131 139.673C292.131 144.242 289.432 149.434 284.033 155.249C279.049 160.649 276.557 164.387 276.557 166.464V195.748C276.557 198.655 277.596 201.147 279.672 203.224C282.164 205.301 283.825 206.755 284.656 207.586C290.885 211.324 294 215.685 294 220.67C294 224.823 292.339 228.354 289.016 231.262C286.109 233.754 282.372 235 277.803 235C274.481 235 270.951 234.169 267.213 232.508C263.475 230.431 259.738 229.393 256 229.393C252.262 229.393 248.525 230.431 244.787 232.508C241.049 234.169 237.519 235 234.197 235ZM244 59C244 52.3726 249.373 47 256 47C262.627 47 268 52.3726 268 59C268 63.843 265.131 68.0159 261 69.9119V116H251V69.9119C246.869 68.0159 244 63.843 244 59ZM241 131C241 133.761 243.239 136 246 136H266C268.761 136 271 133.761 271 131C271 128.239 268.761 126 266 126H246C243.239 126 241 128.239 241 131ZM246 153C243.239 153 241 150.761 241 148C241 145.239 243.239 143 246 143H266C268.761 143 271 145.239 271 148C271 150.761 268.761 153 266 153H246ZM256 216C258.761 216 261 213.761 261 211V163H251V211C251 213.761 253.239 216 256 216Z" fill="#008000"/>
<path fill-rule="evenodd" clip-rule="evenodd" d="M340.197 477C335.628 477 331.683 475.754 328.361 473.262C325.454 470.354 324 466.823 324 462.67C324 457.685 327.115 453.324 333.344 449.586L337.705 445.224C340.197 443.147 341.443 440.655 341.443 437.748V408.464C341.443 406.387 338.743 402.649 333.344 397.249C328.361 391.434 325.869 386.242 325.869 381.673C325.869 377.104 328.361 372.119 333.344 366.72C338.743 360.904 341.443 356.958 341.443 354.882V324.975C341.443 322.068 340.197 319.575 337.705 317.498L333.344 313.137C327.115 309.399 324 305.037 324 300.053C324 295.484 325.661 291.953 328.984 289.461C332.306 286.969 335.421 285.723 338.328 285.723C340.82 285.723 343.934 284.269 347.672 281.361C351.825 278.454 356.601 277 362 277C367.399 277 371.967 278.454 375.705 281.361C379.858 284.269 383.18 285.723 385.672 285.723C388.579 285.723 391.694 286.969 395.016 289.461C398.339 291.953 400 295.484 400 300.053C400 305.037 396.885 309.399 390.656 313.137C389.825 313.968 388.164 315.422 385.672 317.498C383.596 319.575 382.557 322.068 382.557 324.975V354.882C382.557 356.958 385.049 360.904 390.033 366.72C395.432 372.119 398.131 377.104 398.131 381.673C398.131 386.242 395.432 391.434 390.033 397.249C385.049 402.649 382.557 406.387 382.557 408.464V437.748C382.557 440.655 383.596 443.147 385.672 445.224C388.164 447.301 389.825 448.755 390.656 449.586C396.885 453.324 400 457.685 400 462.67C400 466.823 398.339 470.354 395.016 473.262C392.109 475.754 388.372 477 383.803 477C380.481 477 376.951 476.169 373.213 474.508C369.475 472.431 365.738 471.393 362 471.393C358.262 471.393 354.525 472.431 350.787 474.508C347.049 476.169 343.519 477 340.197 477ZM350 301C350 294.373 355.373 289 362 289C368.627 289 374 294.373 374 301C374 305.843 371.131 310.016 367 311.912V358H357V311.912C352.869 310.016 350 305.843 350 301ZM347 373C347 375.761 349.239 378 352 378H372C374.761 378 377 375.761 377 373C377 370.239 374.761 368 372 368H352C349.239 368 347 370.239 347 373ZM352 395C349.239 395 347 392.761 347 390C347 387.239 349.239 385 352 385H372C374.761 385 377 387.239 377 390C377 392.761 374.761 395 372 395H352ZM362 458C364.761 458 367 455.761 367 453V405H357V453C357 455.761 359.239 458 362 458Z" fill="#008000"/>
<path fill-rule="evenodd" clip-rule="evenodd" d="M128.197 477C123.628 477 119.683 475.754 116.361 473.262C113.454 470.354 112 466.823 112 462.67C112 457.685 115.115 453.324 121.344 449.586L125.705 445.224C128.197 443.147 129.443 440.655 129.443 437.748V408.464C129.443 406.387 126.743 402.649 121.344 397.249C116.361 391.434 113.869 386.242 113.869 381.673C113.869 377.104 116.361 372.119 121.344 366.72C126.743 360.904 129.443 356.958 129.443 354.882V324.975C129.443 322.068 128.197 319.575 125.705 317.498L121.344 313.137C115.115 309.399 112 305.037 112 300.053C112 295.484 113.661 291.953 116.984 289.461C120.306 286.969 123.421 285.723 126.328 285.723C128.82 285.723 131.934 284.269 135.672 281.361C139.825 278.454 144.601 277 150 277C155.399 277 159.967 278.454 163.705 281.361C167.858 284.269 171.18 285.723 173.672 285.723C176.579 285.723 179.694 286.969 183.016 289.461C186.339 291.953 188 295.484 188 300.053C188 305.037 184.885 309.399 178.656 313.137C177.825 313.968 176.164 315.422 173.672 317.498C171.596 319.575 170.557 322.068 170.557 324.975V354.882C170.557 356.958 173.049 360.904 178.033 366.72C183.432 372.119 186.131 377.104 186.131 381.673C186.131 386.242 183.432 391.434 178.033 397.249C173.049 402.649 170.557 406.387 170.557 408.464V437.748C170.557 440.655 171.596 443.147 173.672 445.224C176.164 447.301 177.825 448.755 178.656 449.586C184.885 453.324 188 457.685 188 462.67C188 466.823 186.339 470.354 183.016 473.262C180.109 475.754 176.372 477 171.803 477C168.481 477 164.951 476.169 161.213 474.508C157.475 472.431 153.738 471.393 150 471.393C146.262 471.393 142.525 472.431 138.787 474.508C135.049 476.169 131.519 477 128.197 477ZM138 301C138 294.373 143.373 289 150 289C156.627 289 162 294.373 162 301C162 305.843 159.131 310.016 155 311.912V358H145V311.912C140.869 310.016 138 305.843 138 301ZM135 373C135 375.761 137.239 378 140 378H160C162.761 378 165 375.761 165 373C165 370.239 162.761 368 160 368H140C137.239 368 135 370.239 135 373ZM140 395C137.239 395 135 392.761 135 390C135 387.239 137.239 385 140 385H160C162.761 385 165 387.239 165 390C165 392.761 162.761 395 160 395H140ZM150 458C152.761 458 155 455.761 155 453V405H145V453C145 455.761 147.239 458 150 458Z" fill="#008000"/>
</svg>
