<svg width="512" height="512" viewBox="0 0 512 512" fill="none" xmlns="http://www.w3.org/2000/svg">
<path d="M1 1H511V511H1V1Z" fill="white" stroke="white" stroke-width="2"/>
<mask id="path-2-inside-1_170_519" fill="white">
<path d="M197.564 317.894C187.327 317.894 176.358 316.675 164.658 314.237C152.958 311.312 144.914 307.169 140.527 301.806C141.014 301.319 143.208 299.856 147.108 297.419C151.008 294.981 155.396 293.762 160.271 293.762C166.121 293.762 173.189 294.981 181.477 297.419C183.427 297.906 186.839 298.637 191.714 299.612C197.077 300.587 202.439 301.075 207.802 301.075C217.552 301.075 224.133 300.1 227.546 298.15C230.958 296.2 232.664 291.813 232.664 284.988C232.664 283.525 231.202 282.55 228.277 282.062C225.839 281.088 224.133 279.869 223.158 278.406C223.158 275.969 224.133 273.775 226.083 271.825C228.521 269.387 230.471 266.95 231.933 264.513C233.396 262.075 235.346 258.906 237.783 255.006C240.221 251.106 242.171 248.181 243.633 246.231C245.583 244.281 247.777 243.306 250.214 243.306C251.677 243.306 252.896 244.037 253.871 245.5C254.846 246.963 255.333 248.669 255.333 250.619C255.333 256.956 254.114 263.781 251.677 271.094C249.727 278.406 248.264 284.256 247.289 288.644C248.752 291.081 250.458 292.3 252.408 292.3C255.333 292.3 259.477 286.694 264.839 275.481C270.689 264.269 273.614 256.225 273.614 251.35C273.614 248.425 271.908 245.744 268.496 243.306C265.571 240.869 263.621 238.675 262.646 236.725C264.108 233.8 267.277 230.144 272.152 225.756C277.027 221.369 282.389 218.2 288.239 216.25C292.139 217.713 295.552 221.125 298.477 226.487C301.402 231.362 302.864 236.969 302.864 243.306C302.864 248.181 300.914 254.031 297.014 260.856C292.627 266.706 290.189 273.044 289.702 279.869C296.527 278.894 301.889 277.919 305.789 276.944C321.389 274.019 335.527 272.556 348.202 272.556C363.802 272.556 372.821 274.262 375.258 277.675C371.846 284.5 366.483 289.619 359.171 293.031C352.833 292.544 339.671 292.3 319.683 292.3C309.933 292.3 299.696 293.519 288.971 295.956C278.733 298.394 265.814 301.806 250.214 306.194C240.464 309.119 230.714 311.8 220.964 314.237C211.702 316.675 203.902 317.894 197.564 317.894ZM316.758 479.5C310.421 479.5 298.721 476.331 281.658 469.994C265.083 463.169 253.383 457.562 246.558 453.175C244.608 453.662 242.171 455.125 239.246 457.562C236.321 460 234.127 461.219 232.664 461.219C227.789 461.219 223.158 460.487 218.771 459.025C214.383 457.075 211.214 455.856 209.264 455.369C209.264 456.831 209.021 459.513 208.533 463.413C208.533 466.825 208.046 469.75 207.071 472.188C206.096 474.137 204.389 475.112 201.952 475.112C197.564 475.112 193.421 469.75 189.521 459.025C186.108 447.812 184.158 441.231 183.671 439.281H174.896C165.633 439.281 157.102 437.819 149.302 434.894C141.502 431.969 137.602 427.825 137.602 422.462L138.333 417.344C142.72 417.344 148.814 417.831 156.614 418.806C164.414 419.781 170.508 420.269 174.896 420.269H177.821C177.333 414.906 176.114 408.569 174.164 401.256C171.239 386.631 169.777 378.1 169.777 375.663C169.777 374.688 170.752 373.225 172.702 371.275C178.552 372.25 182.452 374.687 184.402 378.587C186.839 382 189.033 387.606 190.983 395.406C193.908 406.131 196.833 414.175 199.758 419.537C206.583 419.537 212.677 418.806 218.039 417.344C223.402 415.394 226.571 414.175 227.546 413.688L228.277 392.481C226.814 392.481 222.914 393.7 216.577 396.138C215.602 397.6 214.383 399.794 212.921 402.719C211.458 405.644 209.508 408.325 207.071 410.763C204.146 409.3 201.464 404.425 199.027 396.138C197.077 387.363 196.102 378.1 196.102 368.35C196.102 349.825 197.077 336.419 199.027 328.131C215.114 325.694 236.808 320.819 264.108 313.506C281.171 308.631 292.871 306.194 299.208 306.194C309.446 306.194 314.564 309.606 314.564 316.431C314.564 317.894 312.858 324.231 309.446 335.444C306.033 346.169 304.327 359.331 304.327 374.931C304.327 382.731 304.814 391.019 305.789 399.794C322.364 401.256 339.914 405.644 358.439 412.956C376.964 419.781 386.227 430.262 386.227 444.4C386.227 452.687 383.058 459.025 376.721 463.413C370.383 467.8 362.339 469.994 352.589 469.994C350.639 469.994 348.202 470.481 345.277 471.456C342.352 472.431 340.158 473.163 338.696 473.65C328.946 477.55 321.633 479.5 316.758 479.5ZM244.364 347.144C251.189 346.169 256.796 345.194 261.183 344.219C266.058 342.756 270.689 341.781 275.077 341.294L275.808 324.475C271.421 325.45 266.302 326.912 260.452 328.862C254.602 330.325 249.971 331.3 246.558 331.788C246.071 334.713 245.583 337.394 245.096 339.831C244.608 342.269 244.364 344.706 244.364 347.144ZM216.577 352.262C219.502 352.262 221.939 352.019 223.889 351.531C226.327 351.044 228.277 350.556 229.739 350.069C229.739 346.169 230.227 341.294 231.202 335.444L213.652 338.369V351.531L216.577 352.262ZM244.364 375.663C251.189 375.175 260.939 372.981 273.614 369.081C273.614 361.769 273.858 356.162 274.346 352.262C263.621 355.675 253.627 358.113 244.364 359.575V375.663ZM214.383 380.781C216.821 380.781 221.452 380.294 228.277 379.319V362.5C224.377 362.987 220.964 363.475 218.039 363.962C215.114 364.45 213.652 365.181 213.652 366.156C213.652 367.131 213.652 368.594 213.652 370.544L214.383 380.781ZM245.827 408.569C256.552 406.619 266.058 403.937 274.346 400.525C274.346 392.237 274.102 385.9 273.614 381.512C269.714 382.487 265.327 383.706 260.452 385.169C256.064 386.144 251.189 387.362 245.827 388.825V408.569ZM290.433 460.487C294.821 460.487 299.452 458.781 304.327 455.369C309.202 451.469 312.858 449.031 315.296 448.056C317.733 447.081 322.364 446.35 329.189 445.862C336.502 444.887 341.864 443.425 345.277 441.475C349.177 439.525 351.127 435.869 351.127 430.506C351.127 426.606 346.008 422.95 335.771 419.537C325.533 415.637 316.271 413.444 307.983 412.956C307.983 414.419 308.227 416.856 308.714 420.269C309.689 423.194 310.177 425.875 310.177 428.312C310.177 430.75 309.446 433.431 307.983 436.356C304.571 438.794 300.183 440.988 294.821 442.938C289.458 444.887 284.827 445.862 280.927 445.862C279.952 444.4 279.221 442.938 278.733 441.475C278.246 439.525 277.514 437.819 276.539 436.356C273.614 437.331 270.446 439.038 267.033 441.475C263.621 443.913 260.452 445.619 257.527 446.594C259.477 449.519 264.352 452.687 272.152 456.1C279.952 459.025 286.046 460.487 290.433 460.487ZM250.214 433.431C252.652 433.431 256.064 432.456 260.452 430.506C265.327 428.556 270.446 426.85 275.808 425.387C274.833 420.025 274.589 416.125 275.077 413.688C270.202 414.175 264.839 415.394 258.989 417.344C253.139 419.294 248.996 420.756 246.558 421.731C246.558 424.656 246.802 427.337 247.289 429.775C248.264 432.212 249.239 433.431 250.214 433.431ZM207.802 446.594C214.627 445.131 222.427 442.45 231.202 438.55C228.764 435.625 227.546 431.725 227.546 426.85L202.683 434.894L207.802 446.594Z"/>
</mask>
<path d="M197.564 317.894C187.327 317.894 176.358 316.675 164.658 314.237C152.958 311.312 144.914 307.169 140.527 301.806C141.014 301.319 143.208 299.856 147.108 297.419C151.008 294.981 155.396 293.762 160.271 293.762C166.121 293.762 173.189 294.981 181.477 297.419C183.427 297.906 186.839 298.637 191.714 299.612C197.077 300.587 202.439 301.075 207.802 301.075C217.552 301.075 224.133 300.1 227.546 298.15C230.958 296.2 232.664 291.813 232.664 284.988C232.664 283.525 231.202 282.55 228.277 282.062C225.839 281.088 224.133 279.869 223.158 278.406C223.158 275.969 224.133 273.775 226.083 271.825C228.521 269.387 230.471 266.95 231.933 264.513C233.396 262.075 235.346 258.906 237.783 255.006C240.221 251.106 242.171 248.181 243.633 246.231C245.583 244.281 247.777 243.306 250.214 243.306C251.677 243.306 252.896 244.037 253.871 245.5C254.846 246.963 255.333 248.669 255.333 250.619C255.333 256.956 254.114 263.781 251.677 271.094C249.727 278.406 248.264 284.256 247.289 288.644C248.752 291.081 250.458 292.3 252.408 292.3C255.333 292.3 259.477 286.694 264.839 275.481C270.689 264.269 273.614 256.225 273.614 251.35C273.614 248.425 271.908 245.744 268.496 243.306C265.571 240.869 263.621 238.675 262.646 236.725C264.108 233.8 267.277 230.144 272.152 225.756C277.027 221.369 282.389 218.2 288.239 216.25C292.139 217.713 295.552 221.125 298.477 226.487C301.402 231.362 302.864 236.969 302.864 243.306C302.864 248.181 300.914 254.031 297.014 260.856C292.627 266.706 290.189 273.044 289.702 279.869C296.527 278.894 301.889 277.919 305.789 276.944C321.389 274.019 335.527 272.556 348.202 272.556C363.802 272.556 372.821 274.262 375.258 277.675C371.846 284.5 366.483 289.619 359.171 293.031C352.833 292.544 339.671 292.3 319.683 292.3C309.933 292.3 299.696 293.519 288.971 295.956C278.733 298.394 265.814 301.806 250.214 306.194C240.464 309.119 230.714 311.8 220.964 314.237C211.702 316.675 203.902 317.894 197.564 317.894ZM316.758 479.5C310.421 479.5 298.721 476.331 281.658 469.994C265.083 463.169 253.383 457.562 246.558 453.175C244.608 453.662 242.171 455.125 239.246 457.562C236.321 460 234.127 461.219 232.664 461.219C227.789 461.219 223.158 460.487 218.771 459.025C214.383 457.075 211.214 455.856 209.264 455.369C209.264 456.831 209.021 459.513 208.533 463.413C208.533 466.825 208.046 469.75 207.071 472.188C206.096 474.137 204.389 475.112 201.952 475.112C197.564 475.112 193.421 469.75 189.521 459.025C186.108 447.812 184.158 441.231 183.671 439.281H174.896C165.633 439.281 157.102 437.819 149.302 434.894C141.502 431.969 137.602 427.825 137.602 422.462L138.333 417.344C142.72 417.344 148.814 417.831 156.614 418.806C164.414 419.781 170.508 420.269 174.896 420.269H177.821C177.333 414.906 176.114 408.569 174.164 401.256C171.239 386.631 169.777 378.1 169.777 375.663C169.777 374.688 170.752 373.225 172.702 371.275C178.552 372.25 182.452 374.687 184.402 378.587C186.839 382 189.033 387.606 190.983 395.406C193.908 406.131 196.833 414.175 199.758 419.537C206.583 419.537 212.677 418.806 218.039 417.344C223.402 415.394 226.571 414.175 227.546 413.688L228.277 392.481C226.814 392.481 222.914 393.7 216.577 396.138C215.602 397.6 214.383 399.794 212.921 402.719C211.458 405.644 209.508 408.325 207.071 410.763C204.146 409.3 201.464 404.425 199.027 396.138C197.077 387.363 196.102 378.1 196.102 368.35C196.102 349.825 197.077 336.419 199.027 328.131C215.114 325.694 236.808 320.819 264.108 313.506C281.171 308.631 292.871 306.194 299.208 306.194C309.446 306.194 314.564 309.606 314.564 316.431C314.564 317.894 312.858 324.231 309.446 335.444C306.033 346.169 304.327 359.331 304.327 374.931C304.327 382.731 304.814 391.019 305.789 399.794C322.364 401.256 339.914 405.644 358.439 412.956C376.964 419.781 386.227 430.262 386.227 444.4C386.227 452.687 383.058 459.025 376.721 463.413C370.383 467.8 362.339 469.994 352.589 469.994C350.639 469.994 348.202 470.481 345.277 471.456C342.352 472.431 340.158 473.163 338.696 473.65C328.946 477.55 321.633 479.5 316.758 479.5ZM244.364 347.144C251.189 346.169 256.796 345.194 261.183 344.219C266.058 342.756 270.689 341.781 275.077 341.294L275.808 324.475C271.421 325.45 266.302 326.912 260.452 328.862C254.602 330.325 249.971 331.3 246.558 331.788C246.071 334.713 245.583 337.394 245.096 339.831C244.608 342.269 244.364 344.706 244.364 347.144ZM216.577 352.262C219.502 352.262 221.939 352.019 223.889 351.531C226.327 351.044 228.277 350.556 229.739 350.069C229.739 346.169 230.227 341.294 231.202 335.444L213.652 338.369V351.531L216.577 352.262ZM244.364 375.663C251.189 375.175 260.939 372.981 273.614 369.081C273.614 361.769 273.858 356.162 274.346 352.262C263.621 355.675 253.627 358.113 244.364 359.575V375.663ZM214.383 380.781C216.821 380.781 221.452 380.294 228.277 379.319V362.5C224.377 362.987 220.964 363.475 218.039 363.962C215.114 364.45 213.652 365.181 213.652 366.156C213.652 367.131 213.652 368.594 213.652 370.544L214.383 380.781ZM245.827 408.569C256.552 406.619 266.058 403.937 274.346 400.525C274.346 392.237 274.102 385.9 273.614 381.512C269.714 382.487 265.327 383.706 260.452 385.169C256.064 386.144 251.189 387.362 245.827 388.825V408.569ZM290.433 460.487C294.821 460.487 299.452 458.781 304.327 455.369C309.202 451.469 312.858 449.031 315.296 448.056C317.733 447.081 322.364 446.35 329.189 445.862C336.502 444.887 341.864 443.425 345.277 441.475C349.177 439.525 351.127 435.869 351.127 430.506C351.127 426.606 346.008 422.95 335.771 419.537C325.533 415.637 316.271 413.444 307.983 412.956C307.983 414.419 308.227 416.856 308.714 420.269C309.689 423.194 310.177 425.875 310.177 428.312C310.177 430.75 309.446 433.431 307.983 436.356C304.571 438.794 300.183 440.988 294.821 442.938C289.458 444.887 284.827 445.862 280.927 445.862C279.952 444.4 279.221 442.938 278.733 441.475C278.246 439.525 277.514 437.819 276.539 436.356C273.614 437.331 270.446 439.038 267.033 441.475C263.621 443.913 260.452 445.619 257.527 446.594C259.477 449.519 264.352 452.687 272.152 456.1C279.952 459.025 286.046 460.487 290.433 460.487ZM250.214 433.431C252.652 433.431 256.064 432.456 260.452 430.506C265.327 428.556 270.446 426.85 275.808 425.387C274.833 420.025 274.589 416.125 275.077 413.688C270.202 414.175 264.839 415.394 258.989 417.344C253.139 419.294 248.996 420.756 246.558 421.731C246.558 424.656 246.802 427.337 247.289 429.775C248.264 432.212 249.239 433.431 250.214 433.431ZM207.802 446.594C214.627 445.131 222.427 442.45 231.202 438.55C228.764 435.625 227.546 431.725 227.546 426.85L202.683 434.894L207.802 446.594Z" fill="#969696" stroke="white" stroke-width="4" mask="url(#path-2-inside-1_170_519)"/>
<path d="M175.693 182.012L175.645 181.947L175.586 181.891L156.574 163.61L156.55 163.587L156.525 163.566C147.293 155.792 139.532 148.272 133.236 141.007C127.008 133.821 118.623 122.578 108.075 107.256C109.838 104.468 112.111 103.175 114.93 103.175C116.952 103.175 120.895 104.039 126.886 105.873C132.83 107.692 140.669 110.427 150.411 114.08L150.774 114.216L151.134 114.072C204.756 92.6227 243.682 79.4918 267.958 74.6364L268.438 74.5405L268.657 74.1031C269.676 72.0634 270.434 69.7834 270.936 67.2707C271.402 64.9427 272.093 62.8621 273.004 61.0218C274.379 59.2119 275.564 58.5684 276.537 58.5684C277.455 58.5684 278.587 58.9849 279.959 60.0137C281.324 61.0372 282.846 62.6076 284.523 64.7635L284.561 64.8127L284.605 64.8567L284.628 64.8795L284.651 64.9023L284.696 64.9479L284.742 64.9932L284.787 65.0385L284.809 65.061L284.832 65.0836L284.854 65.1061L284.877 65.1285L284.899 65.151L284.922 65.1734L284.944 65.1957L284.966 65.2181L284.989 65.2404L285.011 65.2626L285.033 65.2848L285.055 65.307L285.1 65.3513L285.122 65.3734L285.144 65.3955L285.166 65.4175L285.188 65.4395L285.232 65.4834L285.276 65.5272L285.297 65.549L285.319 65.5708L285.363 65.6143L285.406 65.6577L285.428 65.6793L285.449 65.7009L285.471 65.7225L285.492 65.744L285.535 65.787L285.578 65.8298L285.621 65.8725L285.642 65.8938L285.663 65.915L285.685 65.9363L285.706 65.9574L285.748 65.9997L285.769 66.0208L285.79 66.0419L285.811 66.0629L285.832 66.0839L285.853 66.1049L285.874 66.1258L285.895 66.1467L285.916 66.1676L285.937 66.1884L285.957 66.2092L285.999 66.2507L286.02 66.2713L286.04 66.292L286.082 66.3332L286.102 66.3538L286.123 66.3743L286.143 66.3948L286.164 66.4153L286.184 66.4357L286.204 66.4561L286.225 66.4764L286.245 66.4968L286.265 66.517L286.286 66.5373L286.306 66.5575L286.326 66.5777L286.346 66.5979L286.366 66.618L286.406 66.6581L286.446 66.6982L286.466 66.7181L286.486 66.738L286.526 66.7778L286.546 66.7976L286.566 66.8174L286.605 66.8569L286.625 66.8766L286.645 66.8962L286.664 66.9158L286.684 66.9354L286.703 66.955L286.723 66.9745L286.762 67.0134L286.781 67.0329L286.801 67.0522L286.82 67.0716L286.839 67.0909L286.878 67.1295L286.916 67.1679L286.954 67.2061L286.974 67.2252L286.993 67.2443L287.012 67.2633L287.031 67.2823L287.068 67.3202L287.087 67.339L287.106 67.3579L287.144 67.3955L287.163 67.4142L287.181 67.433L287.219 67.4703L287.237 67.4889L287.256 67.5075L287.293 67.5446L287.33 67.5815L287.367 67.6183L287.403 67.655L287.44 67.6915L287.476 67.7279L287.512 67.7641L287.531 67.7822L287.549 67.8003L287.567 67.8183L287.585 67.8363L287.603 67.8542L287.62 67.8721L287.638 67.89L287.656 67.9079L287.674 67.9257L287.692 67.9435L287.727 67.9789L287.763 68.0142L287.798 68.0494L287.815 68.067L287.833 68.0845L287.85 68.102L287.868 68.1194L287.903 68.1542L287.92 68.1716L287.937 68.1889L287.972 68.2234L288.006 68.2578L288.023 68.2749L288.04 68.292L288.074 68.3262L288.108 68.3601L288.125 68.3771L288.142 68.394L288.176 68.4277L288.193 68.4445L288.21 68.4613L288.226 68.478L288.243 68.4948L288.276 68.5281L288.293 68.5447L288.31 68.5613L288.343 68.5943L288.359 68.6108L288.376 68.6272L288.392 68.6436L288.408 68.66L288.441 68.6926L288.457 68.7089L288.473 68.7252L288.506 68.7575L288.522 68.7737L288.538 68.7898L288.554 68.8059L288.57 68.8219L288.602 68.8539L288.618 68.8698L288.634 68.8857L288.666 68.9174L288.697 68.949L288.713 68.9648L288.729 68.9805L288.744 68.9961L288.76 69.0118L288.776 69.0274L288.791 69.0429L288.807 69.0585L288.822 69.074L288.853 69.1049L288.884 69.1357L288.899 69.151L288.915 69.1663L288.93 69.1816L288.945 69.1968L288.975 69.2272L288.991 69.2423L289.006 69.2574L289.021 69.2725L289.036 69.2875L289.051 69.3025L289.066 69.3175L289.096 69.3473L289.111 69.3622L289.125 69.377L289.14 69.3918L289.155 69.4066L289.17 69.4213L289.184 69.436L289.199 69.4507L289.214 69.4653L289.228 69.4799L289.243 69.4945L289.272 69.5235L289.286 69.538L289.301 69.5524L289.33 69.5812L289.344 69.5955L289.358 69.6098L289.387 69.6383L289.415 69.6667L289.443 69.6949L289.471 69.723L289.485 69.737L289.499 69.751L289.527 69.7788L289.555 69.8065L289.569 69.8203L289.582 69.8341L289.596 69.8478L289.61 69.8615L289.623 69.8752L289.637 69.8888L289.664 69.9159L289.691 69.943L289.705 69.9564L289.718 69.9699L289.745 69.9966L289.772 70.0232L289.785 70.0365L289.798 70.0497L289.811 70.0629L289.824 70.0761L289.838 70.0892L289.851 70.1023L289.864 70.1154L289.877 70.1284L289.89 70.1414L289.903 70.1543L289.916 70.1673L289.928 70.1802L289.954 70.2059L289.98 70.2314L289.992 70.2441L290.005 70.2568L290.018 70.2695L290.03 70.2821L290.056 70.3073L290.068 70.3198L290.081 70.3323L290.093 70.3447L290.105 70.3572L290.118 70.3695L290.13 70.3819L290.143 70.3942L290.155 70.4065L290.167 70.4188L290.179 70.431L290.204 70.4553L290.216 70.4675L290.228 70.4796L290.252 70.5036L290.264 70.5156L290.276 70.5276L290.288 70.5395L290.3 70.5514L290.312 70.5632L290.323 70.5751L290.335 70.5869L290.347 70.5986L290.359 70.6103L290.37 70.622L290.394 70.6453L290.405 70.6569L290.417 70.6684L290.44 70.6914L290.451 70.7029L290.463 70.7143L290.485 70.7371L290.497 70.7484L290.508 70.7597L290.519 70.7709L290.53 70.7821L290.553 70.8045L290.564 70.8156L290.575 70.8267L290.586 70.8377L290.597 70.8488L290.619 70.8707L290.63 70.8816L290.641 70.8925L290.662 70.9142L290.684 70.9357L290.705 70.9571L290.716 70.9677L290.727 70.9784L290.737 70.9889L290.748 70.9995L290.758 71.01L290.769 71.0205L290.779 71.0309L290.79 71.0414L290.81 71.0621L290.821 71.0724L290.831 71.0827L290.841 71.0929L290.851 71.1032L290.862 71.1133L290.872 71.1235L290.892 71.1437L290.912 71.1637L290.922 71.1737L290.932 71.1837L290.952 71.2035L290.962 71.2133L290.971 71.2231L290.981 71.2329L290.991 71.2427L291.001 71.2524L291.01 71.262L291.03 71.2813L291.049 71.3004L291.058 71.3099L291.068 71.3194L291.077 71.3289L291.087 71.3383L291.096 71.3477L291.105 71.357L291.115 71.3663L291.124 71.3756L291.142 71.394L291.152 71.4032L291.161 71.4124L291.179 71.4306L291.197 71.4486L291.206 71.4576L291.215 71.4665L291.224 71.4754L291.233 71.4843L291.241 71.4932L291.25 71.502L291.259 71.5107L291.268 71.5195L291.277 71.5282L291.285 71.5369L291.294 71.5455L291.302 71.5541L291.32 71.5712L291.337 71.5882L291.353 71.6051L291.362 71.6134L291.37 71.6218L291.378 71.6301L291.387 71.6384L291.395 71.6466L291.403 71.6548L291.411 71.663L291.419 71.6711L291.428 71.6792L291.436 71.6873L291.452 71.7033L291.468 71.7193L291.475 71.7272L291.483 71.735L291.499 71.7507L291.514 71.7662L291.522 71.7739L291.53 71.7816L291.545 71.7968L291.553 71.8044L291.56 71.8119L291.568 71.8194L291.575 71.8269L291.59 71.8417L291.597 71.8491L291.605 71.8564L291.619 71.871L291.634 71.8854L291.648 71.8997L291.655 71.9068L291.662 71.9139L291.669 71.921L291.676 71.928L291.683 71.9349L291.69 71.9419L291.697 71.9488L291.704 71.9556L291.711 71.9625L291.718 71.9693L291.724 71.976L291.731 71.9828L291.744 71.9961L291.751 72.0028L291.758 72.0094L291.771 72.0225L291.784 72.0354L291.797 72.0483L291.809 72.061L291.822 72.0735C291.863 72.1148 291.793 72.0447 291.834 72.086L291.84 72.0921L291.847 72.0982L291.853 72.1043L291.859 72.1104L291.865 72.1164L291.871 72.1224L291.877 72.1284L291.883 72.1343L291.894 72.1461L291.9 72.1519L291.906 72.1577L291.912 72.1635L291.918 72.1692L292.172 72.4241L292.531 72.4577C308.124 73.9196 319.787 75.3787 327.54 76.8325L327.551 76.8344C335.777 78.2861 346.943 81.1968 361.066 85.5797L361.077 85.583L361.087 85.5861C378.133 90.4564 389.369 95.7642 395.024 101.419L395.053 101.449L395.085 101.475C401.117 106.58 404.237 114.775 404.237 126.306C404.237 130.363 402.142 135.202 397.687 140.861C393.247 146.501 386.551 152.843 377.564 159.887L377.554 159.896C360.196 173.879 344.765 184.982 331.259 193.216C328.38 192.234 324.176 190.592 318.635 188.283C312.727 185.332 306.572 183.118 300.171 181.64C294.213 180.151 286.57 179.418 277.268 179.418C266.937 179.418 257.796 180.894 249.861 183.87L249.851 183.873L249.841 183.877C242.477 186.823 234.881 190.743 227.053 195.633C225.996 196.168 223.049 197.89 218.268 200.758C214.013 203.12 209.796 204.281 205.606 204.281C200.958 204.281 196.79 202.895 193.069 200.113C189.694 197.218 186.316 194.082 182.937 190.704C179.538 186.819 177.129 183.926 175.693 182.012ZM301.51 93.137L300.196 92.9909L300.413 94.2952L301.13 98.5975C301.111 99.9304 300.601 102.522 299.521 106.482C298.432 110.473 296.796 115.748 294.608 122.311C288.75 137.449 284.59 150.902 282.139 162.664L281.889 163.868H283.118C291.839 163.868 301.297 164.595 311.496 166.052L311.502 166.053C322.188 167.51 328.613 168.256 330.65 168.256C331.728 168.256 332.836 167.668 333.922 166.805C335.038 165.919 336.278 164.624 337.64 162.952C340.368 159.604 343.689 154.618 347.597 148.022C351.503 141.431 354.444 136.102 356.412 132.044C357.395 130.015 358.144 128.288 358.648 126.869C359.144 125.475 359.437 124.291 359.437 123.381C359.437 122.095 358.839 120.801 357.859 119.526C356.871 118.242 355.426 116.887 353.561 115.458C349.83 112.597 344.28 109.334 336.947 105.668C322.29 98.3395 310.463 94.1318 301.51 93.137ZM241.951 169.133L241.426 170.709L243.064 170.436C246.04 169.94 248.782 169.195 251.287 168.195C254.171 167.235 256.802 166.519 259.183 166.043L259.937 165.892L259.985 165.124C261.935 133.925 263.64 111.52 265.1 97.8936L265.219 96.7871H264.106C256.108 96.7871 248.376 99.0391 240.923 103.511L240.235 103.924L240.488 104.685C241.468 107.625 242.692 111.049 244.157 114.957L244.175 115.006L244.199 115.053C246.06 118.775 247.018 123.485 247.018 129.231C247.018 138.439 246.292 147.153 244.841 155.376C243.372 163.21 242.411 167.753 241.951 169.133ZM225.066 174.732L225.647 174.441L225.617 173.792C225.127 163 223.411 151.972 220.475 140.706C219.503 135.848 218.776 132.028 218.291 129.242C217.798 126.409 217.575 124.738 217.575 124.112C217.575 119.105 216.326 115.32 213.543 113.094L213.156 112.784L212.676 112.904C208.751 113.886 203.613 115.354 197.268 117.306L197.257 117.31L197.246 117.313C191.483 119.234 185.984 120.187 180.743 120.187C176.827 120.187 173.622 120.309 171.138 120.558C168.692 120.802 166.824 121.179 165.671 121.755L164.816 122.183L165.205 123.056C167.173 127.484 169.164 130.982 171.188 133.512L171.222 133.555L171.261 133.594L175.466 137.799L180.768 143.1L180.786 143.119L180.806 143.137C185.639 147.487 197.06 159.391 215.109 178.904L215.619 179.455L216.291 179.119L225.066 174.732Z" fill="#969696" stroke="white" stroke-width="2"/>
</svg>
