<svg width="512" height="512" viewBox="0 0 512 512" fill="none" xmlns="http://www.w3.org/2000/svg">
<path d="M0 0H512V512H0V0Z" fill="white"/>
<path d="M197.564 317.894C187.327 317.894 176.358 316.675 164.658 314.237C152.958 311.312 144.914 307.169 140.527 301.806C141.014 301.319 143.208 299.856 147.108 297.419C151.008 294.981 155.396 293.762 160.271 293.762C166.121 293.762 173.189 294.981 181.477 297.419C183.427 297.906 186.839 298.637 191.714 299.612C197.077 300.587 202.439 301.075 207.802 301.075C217.552 301.075 224.133 300.1 227.546 298.15C230.958 296.2 232.664 291.813 232.664 284.988C232.664 283.525 231.202 282.55 228.277 282.062C225.839 281.088 224.133 279.869 223.158 278.406C223.158 275.969 224.133 273.775 226.083 271.825C228.521 269.387 230.471 266.95 231.933 264.513C233.396 262.075 235.346 258.906 237.783 255.006C240.221 251.106 242.171 248.181 243.633 246.231C245.583 244.281 247.777 243.306 250.214 243.306C251.677 243.306 252.896 244.037 253.871 245.5C254.846 246.963 255.333 248.669 255.333 250.619C255.333 256.956 254.114 263.781 251.677 271.094C249.727 278.406 248.264 284.256 247.289 288.644C248.752 291.081 250.458 292.3 252.408 292.3C255.333 292.3 259.477 286.694 264.839 275.481C270.689 264.269 273.614 256.225 273.614 251.35C273.614 248.425 271.908 245.744 268.496 243.306C265.571 240.869 263.621 238.675 262.646 236.725C264.108 233.8 267.277 230.144 272.152 225.756C277.027 221.369 282.389 218.2 288.239 216.25C292.139 217.713 295.552 221.125 298.477 226.487C301.402 231.362 302.864 236.969 302.864 243.306C302.864 248.181 300.914 254.031 297.014 260.856C292.627 266.706 290.189 273.044 289.702 279.869C296.527 278.894 301.889 277.919 305.789 276.944C321.389 274.019 335.527 272.556 348.202 272.556C363.802 272.556 372.821 274.262 375.258 277.675C371.846 284.5 366.483 289.619 359.171 293.031C352.833 292.544 339.671 292.3 319.683 292.3C309.933 292.3 299.696 293.519 288.971 295.956C278.733 298.394 265.814 301.806 250.214 306.194C240.464 309.119 230.714 311.8 220.964 314.237C211.702 316.675 203.902 317.894 197.564 317.894ZM316.758 479.5C310.421 479.5 298.721 476.331 281.658 469.994C265.083 463.169 253.383 457.562 246.558 453.175C244.608 453.662 242.171 455.125 239.246 457.562C236.321 460 234.127 461.219 232.664 461.219C227.789 461.219 223.158 460.487 218.771 459.025C214.383 457.075 211.214 455.856 209.264 455.369C209.264 456.831 209.021 459.513 208.533 463.413C208.533 466.825 208.046 469.75 207.071 472.188C206.096 474.137 204.389 475.112 201.952 475.112C197.564 475.112 193.421 469.75 189.521 459.025C186.108 447.812 184.158 441.231 183.671 439.281H174.896C165.633 439.281 157.102 437.819 149.302 434.894C141.502 431.969 137.602 427.825 137.602 422.462L138.333 417.344C142.72 417.344 148.814 417.831 156.614 418.806C164.414 419.781 170.508 420.269 174.896 420.269H177.821C177.333 414.906 176.114 408.569 174.164 401.256C171.239 386.631 169.777 378.1 169.777 375.663C169.777 374.688 170.752 373.225 172.702 371.275C178.552 372.25 182.452 374.687 184.402 378.587C186.839 382 189.033 387.606 190.983 395.406C193.908 406.131 196.833 414.175 199.758 419.537C206.583 419.537 212.677 418.806 218.039 417.344C223.402 415.394 226.571 414.175 227.546 413.688L228.277 392.481C226.814 392.481 222.914 393.7 216.577 396.138C215.602 397.6 214.383 399.794 212.921 402.719C211.458 405.644 209.508 408.325 207.071 410.763C204.146 409.3 201.464 404.425 199.027 396.138C197.077 387.363 196.102 378.1 196.102 368.35C196.102 349.825 197.077 336.419 199.027 328.131C215.114 325.694 236.808 320.819 264.108 313.506C281.171 308.631 292.871 306.194 299.208 306.194C309.446 306.194 314.564 309.606 314.564 316.431C314.564 317.894 312.858 324.231 309.446 335.444C306.033 346.169 304.327 359.331 304.327 374.931C304.327 382.731 304.814 391.019 305.789 399.794C322.364 401.256 339.914 405.644 358.439 412.956C376.964 419.781 386.227 430.262 386.227 444.4C386.227 452.687 383.058 459.025 376.721 463.413C370.383 467.8 362.339 469.994 352.589 469.994C350.639 469.994 348.202 470.481 345.277 471.456C342.352 472.431 340.158 473.163 338.696 473.65C328.946 477.55 321.633 479.5 316.758 479.5ZM244.364 347.144C251.189 346.169 256.796 345.194 261.183 344.219C266.058 342.756 270.689 341.781 275.077 341.294L275.808 324.475C271.421 325.45 266.302 326.912 260.452 328.862C254.602 330.325 249.971 331.3 246.558 331.788C246.071 334.713 245.583 337.394 245.096 339.831C244.608 342.269 244.364 344.706 244.364 347.144ZM216.577 352.262C219.502 352.262 221.939 352.019 223.889 351.531C226.327 351.044 228.277 350.556 229.739 350.069C229.739 346.169 230.227 341.294 231.202 335.444L213.652 338.369V351.531L216.577 352.262ZM244.364 375.663C251.189 375.175 260.939 372.981 273.614 369.081C273.614 361.769 273.858 356.162 274.346 352.262C263.621 355.675 253.627 358.113 244.364 359.575V375.663ZM214.383 380.781C216.821 380.781 221.452 380.294 228.277 379.319V362.5C224.377 362.987 220.964 363.475 218.039 363.962C215.114 364.45 213.652 365.181 213.652 366.156C213.652 367.131 213.652 368.594 213.652 370.544L214.383 380.781ZM245.827 408.569C256.552 406.619 266.058 403.937 274.346 400.525C274.346 392.237 274.102 385.9 273.614 381.512C269.714 382.487 265.327 383.706 260.452 385.169C256.064 386.144 251.189 387.362 245.827 388.825V408.569ZM290.433 460.487C294.821 460.487 299.452 458.781 304.327 455.369C309.202 451.469 312.858 449.031 315.296 448.056C317.733 447.081 322.364 446.35 329.189 445.862C336.502 444.887 341.864 443.425 345.277 441.475C349.177 439.525 351.127 435.869 351.127 430.506C351.127 426.606 346.008 422.95 335.771 419.537C325.533 415.637 316.271 413.444 307.983 412.956C307.983 414.419 308.227 416.856 308.714 420.269C309.689 423.194 310.177 425.875 310.177 428.312C310.177 430.75 309.446 433.431 307.983 436.356C304.571 438.794 300.183 440.988 294.821 442.938C289.458 444.887 284.827 445.862 280.927 445.862C279.952 444.4 279.221 442.938 278.733 441.475C278.246 439.525 277.514 437.819 276.539 436.356C273.614 437.331 270.446 439.038 267.033 441.475C263.621 443.913 260.452 445.619 257.527 446.594C259.477 449.519 264.352 452.687 272.152 456.1C279.952 459.025 286.046 460.487 290.433 460.487ZM250.214 433.431C252.652 433.431 256.064 432.456 260.452 430.506C265.327 428.556 270.446 426.85 275.808 425.387C274.833 420.025 274.589 416.125 275.077 413.688C270.202 414.175 264.839 415.394 258.989 417.344C253.139 419.294 248.996 420.756 246.558 421.731C246.558 424.656 246.802 427.337 247.289 429.775C248.264 432.212 249.239 433.431 250.214 433.431ZM207.802 446.594C214.627 445.131 222.427 442.45 231.202 438.55C228.764 435.625 227.546 431.725 227.546 426.85L202.683 434.894L207.802 446.594Z" fill="#A80000"/>
<path d="M205.606 205.281C200.731 205.281 196.343 203.818 192.443 200.893C189.031 197.968 185.618 194.8 182.206 191.387C178.793 187.487 176.356 184.562 174.893 182.612L155.881 164.331C146.618 156.531 138.818 148.975 132.48 141.662C126.143 134.35 117.612 122.893 106.887 107.293C108.837 103.881 111.518 102.175 114.93 102.175C119.318 102.175 131.262 105.831 150.762 113.143C204.387 91.6933 243.387 78.5309 267.762 73.6559C268.737 71.7059 269.468 69.5121 269.956 67.0746C270.443 64.6371 271.175 62.4433 272.15 60.4933C273.612 58.5433 275.075 57.5684 276.537 57.5684C278.975 57.5684 281.9 59.7621 285.312 64.1496C289.212 68.0496 291.65 70.4871 292.625 71.4621C308.225 72.9246 319.925 74.3871 327.725 75.8496C336.012 77.3121 347.225 80.2371 361.362 84.6246C378.425 89.4996 389.881 94.8621 395.731 100.712C402.068 106.075 405.237 114.606 405.237 126.306C405.237 135.081 396.218 146.537 378.181 160.675C360.631 174.812 345.031 186.025 331.381 194.312C328.456 193.337 324.068 191.631 318.218 189.193C312.368 186.268 306.275 184.075 299.937 182.612C294.087 181.15 286.531 180.418 277.268 180.418C267.031 180.418 258.012 181.881 250.212 184.806C242.9 187.731 235.343 191.631 227.543 196.506C226.568 196.993 223.643 198.7 218.768 201.625C214.381 204.062 209.993 205.281 205.606 205.281ZM330.65 167.256C333.575 167.256 338.937 160.675 346.737 147.512C354.537 134.35 358.437 126.306 358.437 123.381C358.437 119.481 351.125 113.875 336.5 106.562C321.875 99.2496 310.175 95.1058 301.4 94.1308L302.131 98.5184C302.131 101.443 299.937 109.487 295.55 122.65C289.7 137.762 285.556 151.168 283.118 162.868C291.893 162.868 301.4 163.6 311.637 165.062C322.362 166.525 328.7 167.256 330.65 167.256ZM242.9 169.45C245.825 168.962 248.506 168.231 250.943 167.256C253.868 166.281 256.55 165.55 258.987 165.062C260.937 133.862 262.643 111.437 264.106 97.7871C256.306 97.7871 248.75 99.9809 241.437 104.368C242.412 107.293 243.631 110.706 245.093 114.606C247.043 118.506 248.018 123.381 248.018 129.231C248.018 138.493 247.287 147.268 245.825 155.556C244.362 163.356 243.387 167.987 242.9 169.45ZM224.618 173.837C224.131 163.112 222.425 152.143 219.5 140.931C217.55 131.181 216.575 125.575 216.575 124.112C216.575 119.237 215.356 115.825 212.918 113.875C209.018 114.85 203.9 116.312 197.562 118.262C191.712 120.212 186.106 121.187 180.743 121.187C172.943 121.187 168.068 121.675 166.118 122.65C168.068 127.037 170.018 130.45 171.968 132.887C174.406 135.325 177.575 138.493 181.475 142.393C186.35 146.781 197.806 158.725 215.843 178.225L224.618 173.837Z" fill="black"/>
</svg>
