<svg width="512" height="512" viewBox="0 0 512 512" fill="none" xmlns="http://www.w3.org/2000/svg">
<path d="M1 1H511V511H1V1Z" fill="white" stroke="white" stroke-width="2"/>
<mask id="path-2-inside-1_170_481" fill="white">
<path fill-rule="evenodd" clip-rule="evenodd" d="M171 468C211.317 468 244 435.317 244 395C244 354.683 211.317 322 171 322C130.683 322 98 354.683 98 395C98 435.317 130.683 468 171 468ZM171 451.453C202.178 451.453 227.453 426.178 227.453 395C227.453 363.822 202.178 338.547 171 338.547C139.822 338.547 114.547 363.822 114.547 395C114.547 426.178 139.822 451.453 171 451.453Z"/>
<path d="M207.273 386.32C207.273 392.119 202.572 396.82 196.773 396.82C190.974 396.82 186.273 392.119 186.273 386.32C186.273 380.521 190.974 375.82 196.773 375.82C202.572 375.82 207.273 380.521 207.273 386.32Z"/>
<path d="M155.727 386.32C155.727 392.119 151.026 396.82 145.227 396.82C139.428 396.82 134.727 392.119 134.727 386.32C134.727 380.521 139.428 375.82 145.227 375.82C151.026 375.82 155.727 380.521 155.727 386.32Z"/>
<path d="M197.728 416.864C197.728 422.663 193.027 427.364 187.228 427.364C181.429 427.364 176.728 422.663 176.728 416.864C176.728 411.065 181.429 406.364 187.228 406.364C193.027 406.364 197.728 411.065 197.728 416.864Z"/>
<path d="M165.273 416.864C165.273 422.663 160.572 427.364 154.773 427.364C148.974 427.364 144.273 422.663 144.273 416.864C144.273 411.065 148.974 406.364 154.773 406.364C160.572 406.364 165.273 411.065 165.273 416.864Z"/>
<path d="M181.5 367.227C181.5 373.026 176.799 377.727 171 377.727C165.201 377.727 160.5 373.026 160.5 367.227C160.5 361.428 165.201 356.727 171 356.727C176.799 356.727 181.5 361.428 181.5 367.227Z"/>
<path fill-rule="evenodd" clip-rule="evenodd" d="M171 446C199.167 446 222 423.167 222 395C222 366.833 199.167 344 171 344C142.833 344 120 366.833 120 395C120 423.167 142.833 446 171 446ZM196.774 402.548C205.736 402.548 213.001 395.283 213.001 386.321C213.001 377.358 205.736 370.093 196.774 370.093C192.328 370.093 188.3 371.881 185.369 374.777C186.556 372.522 187.228 369.953 187.228 367.227C187.228 358.265 179.963 351 171.001 351C162.039 351 154.773 358.265 154.773 367.227C154.773 369.953 155.445 372.522 156.633 374.777C153.702 371.881 149.674 370.093 145.227 370.093C136.265 370.093 129 377.358 129 386.321C129 395.283 136.265 402.548 145.227 402.548C145.965 402.548 146.692 402.499 147.403 402.403C142.146 405.088 138.546 410.556 138.546 416.865C138.546 425.827 145.811 433.092 154.773 433.092C163.735 433.092 171.001 425.827 171.001 416.865C171.001 425.827 178.266 433.092 187.228 433.092C196.19 433.092 203.456 425.827 203.456 416.865C203.456 410.556 199.856 405.088 194.598 402.403C195.309 402.499 196.036 402.548 196.774 402.548ZM207.273 386.32C207.273 392.119 202.572 396.82 196.773 396.82C190.974 396.82 186.273 392.119 186.273 386.32C186.273 380.521 190.974 375.82 196.773 375.82C202.572 375.82 207.273 380.521 207.273 386.32ZM155.727 386.32C155.727 392.119 151.026 396.82 145.227 396.82C139.428 396.82 134.727 392.119 134.727 386.32C134.727 380.521 139.428 375.82 145.227 375.82C151.026 375.82 155.727 380.521 155.727 386.32ZM197.728 416.864C197.728 422.663 193.027 427.364 187.228 427.364C181.429 427.364 176.728 422.663 176.728 416.864C176.728 411.065 181.429 406.364 187.228 406.364C193.027 406.364 197.728 411.065 197.728 416.864ZM165.273 416.864C165.273 422.663 160.572 427.364 154.773 427.364C148.974 427.364 144.273 422.663 144.273 416.864C144.273 411.065 148.974 406.364 154.773 406.364C160.572 406.364 165.273 411.065 165.273 416.864ZM181.5 367.227C181.5 373.026 176.799 377.727 171 377.727C165.201 377.727 160.5 373.026 160.5 367.227C160.5 361.428 165.201 356.727 171 356.727C176.799 356.727 181.5 361.428 181.5 367.227Z"/>
<path d="M183 395C183 401.627 177.627 407 171 407C164.373 407 159 401.627 159 395C159 388.373 164.373 383 171 383C177.627 383 183 388.373 183 395Z"/>
<path fill-rule="evenodd" clip-rule="evenodd" d="M341 468C381.317 468 414 435.317 414 395C414 354.683 381.317 322 341 322C300.683 322 268 354.683 268 395C268 435.317 300.683 468 341 468ZM341 451.453C372.178 451.453 397.453 426.178 397.453 395C397.453 363.822 372.178 338.547 341 338.547C309.822 338.547 284.547 363.822 284.547 395C284.547 426.178 309.822 451.453 341 451.453Z"/>
<path d="M377.273 386.32C377.273 392.119 372.572 396.82 366.773 396.82C360.974 396.82 356.273 392.119 356.273 386.32C356.273 380.521 360.974 375.82 366.773 375.82C372.572 375.82 377.273 380.521 377.273 386.32Z"/>
<path d="M325.727 386.32C325.727 392.119 321.026 396.82 315.227 396.82C309.428 396.82 304.727 392.119 304.727 386.32C304.727 380.521 309.428 375.82 315.227 375.82C321.026 375.82 325.727 380.521 325.727 386.32Z"/>
<path d="M367.728 416.864C367.728 422.663 363.027 427.364 357.228 427.364C351.429 427.364 346.728 422.663 346.728 416.864C346.728 411.065 351.429 406.364 357.228 406.364C363.027 406.364 367.728 411.065 367.728 416.864Z"/>
<path d="M335.273 416.864C335.273 422.663 330.572 427.364 324.773 427.364C318.974 427.364 314.273 422.663 314.273 416.864C314.273 411.065 318.974 406.364 324.773 406.364C330.572 406.364 335.273 411.065 335.273 416.864Z"/>
<path d="M351.5 367.227C351.5 373.026 346.799 377.727 341 377.727C335.201 377.727 330.5 373.026 330.5 367.227C330.5 361.428 335.201 356.727 341 356.727C346.799 356.727 351.5 361.428 351.5 367.227Z"/>
<path fill-rule="evenodd" clip-rule="evenodd" d="M341 446C369.167 446 392 423.167 392 395C392 366.833 369.167 344 341 344C312.833 344 290 366.833 290 395C290 423.167 312.833 446 341 446ZM366.774 402.548C375.736 402.548 383.001 395.283 383.001 386.321C383.001 377.358 375.736 370.093 366.774 370.093C362.328 370.093 358.3 371.881 355.369 374.777C356.556 372.522 357.228 369.953 357.228 367.227C357.228 358.265 349.963 351 341.001 351C332.039 351 324.773 358.265 324.773 367.227C324.773 369.953 325.445 372.522 326.633 374.777C323.702 371.881 319.674 370.093 315.227 370.093C306.265 370.093 299 377.358 299 386.321C299 395.283 306.265 402.548 315.227 402.548C315.965 402.548 316.692 402.499 317.403 402.403C312.146 405.088 308.546 410.556 308.546 416.865C308.546 425.827 315.811 433.092 324.773 433.092C333.735 433.092 341.001 425.827 341.001 416.865C341.001 425.827 348.266 433.092 357.228 433.092C366.19 433.092 373.456 425.827 373.456 416.865C373.456 410.556 369.856 405.088 364.598 402.403C365.31 402.499 366.036 402.548 366.774 402.548ZM377.273 386.32C377.273 392.119 372.572 396.82 366.773 396.82C360.974 396.82 356.273 392.119 356.273 386.32C356.273 380.521 360.974 375.82 366.773 375.82C372.572 375.82 377.273 380.521 377.273 386.32ZM325.727 386.32C325.727 392.119 321.026 396.82 315.227 396.82C309.428 396.82 304.727 392.119 304.727 386.32C304.727 380.521 309.428 375.82 315.227 375.82C321.026 375.82 325.727 380.521 325.727 386.32ZM367.728 416.864C367.728 422.663 363.027 427.364 357.228 427.364C351.429 427.364 346.728 422.663 346.728 416.864C346.728 411.065 351.429 406.364 357.228 406.364C363.027 406.364 367.728 411.065 367.728 416.864ZM335.273 416.864C335.273 422.663 330.572 427.364 324.773 427.364C318.974 427.364 314.273 422.663 314.273 416.864C314.273 411.065 318.974 406.364 324.773 406.364C330.572 406.364 335.273 411.065 335.273 416.864ZM351.5 367.227C351.5 373.026 346.799 377.727 341 377.727C335.201 377.727 330.5 373.026 330.5 367.227C330.5 361.428 335.201 356.727 341 356.727C346.799 356.727 351.5 361.428 351.5 367.227Z"/>
<path d="M353 395C353 401.627 347.627 407 341 407C334.373 407 329 401.627 329 395C329 388.373 334.373 383 341 383C347.627 383 353 388.373 353 395Z"/>
<path fill-rule="evenodd" clip-rule="evenodd" d="M171 190C211.317 190 244 157.317 244 117C244 76.6832 211.317 44 171 44C130.683 44 98 76.6832 98 117C98 157.317 130.683 190 171 190ZM171 173.453C202.178 173.453 227.453 148.178 227.453 117C227.453 85.8217 202.178 60.5467 171 60.5467C139.822 60.5467 114.547 85.8217 114.547 117C114.547 148.178 139.822 173.453 171 173.453Z"/>
<path d="M207.273 108.32C207.273 114.119 202.572 118.82 196.773 118.82C190.974 118.82 186.273 114.119 186.273 108.32C186.273 102.521 190.974 97.8201 196.773 97.8201C202.572 97.8201 207.273 102.521 207.273 108.32Z"/>
<path d="M155.727 108.32C155.727 114.119 151.026 118.82 145.227 118.82C139.428 118.82 134.727 114.119 134.727 108.32C134.727 102.521 139.428 97.8201 145.227 97.8201C151.026 97.8201 155.727 102.521 155.727 108.32Z"/>
<path d="M197.728 138.864C197.728 144.663 193.027 149.364 187.228 149.364C181.429 149.364 176.728 144.663 176.728 138.864C176.728 133.065 181.429 128.364 187.228 128.364C193.027 128.364 197.728 133.065 197.728 138.864Z"/>
<path d="M165.273 138.864C165.273 144.663 160.572 149.364 154.773 149.364C148.974 149.364 144.273 144.663 144.273 138.864C144.273 133.065 148.974 128.364 154.773 128.364C160.572 128.364 165.273 133.065 165.273 138.864Z"/>
<path d="M181.5 89.2271C181.5 95.0261 176.799 99.7271 171 99.7271C165.201 99.7271 160.5 95.0261 160.5 89.2271C160.5 83.428 165.201 78.727 171 78.727C176.799 78.727 181.5 83.428 181.5 89.2271Z"/>
<path fill-rule="evenodd" clip-rule="evenodd" d="M171 168C199.167 168 222 145.167 222 117C222 88.8335 199.167 66 171 66C142.833 66 120 88.8335 120 117C120 145.167 142.833 168 171 168ZM196.774 124.548C205.736 124.548 213.001 117.283 213.001 108.321C213.001 99.3584 205.736 92.0931 196.774 92.0931C192.328 92.0931 188.3 93.8809 185.369 96.7768C186.556 94.5217 187.228 91.9531 187.228 89.2274C187.228 80.2653 179.963 73 171.001 73C162.039 73 154.773 80.2653 154.773 89.2274C154.773 91.9533 155.445 94.5222 156.633 96.7775C153.702 93.8812 149.674 92.0931 145.227 92.0931C136.265 92.0931 129 99.3584 129 108.321C129 117.283 136.265 124.548 145.227 124.548C145.965 124.548 146.692 124.499 147.403 124.403C142.146 127.088 138.546 132.556 138.546 138.865C138.546 147.827 145.811 155.092 154.773 155.092C163.735 155.092 171.001 147.827 171.001 138.865C171.001 147.827 178.266 155.092 187.228 155.092C196.19 155.092 203.456 147.827 203.456 138.865C203.456 132.556 199.856 127.088 194.598 124.403C195.309 124.499 196.036 124.548 196.774 124.548ZM207.273 108.32C207.273 114.119 202.572 118.82 196.773 118.82C190.974 118.82 186.273 114.119 186.273 108.32C186.273 102.521 190.974 97.8201 196.773 97.8201C202.572 97.8201 207.273 102.521 207.273 108.32ZM155.727 108.32C155.727 114.119 151.026 118.82 145.227 118.82C139.428 118.82 134.727 114.119 134.727 108.32C134.727 102.521 139.428 97.8201 145.227 97.8201C151.026 97.8201 155.727 102.521 155.727 108.32ZM197.728 138.864C197.728 144.663 193.027 149.364 187.228 149.364C181.429 149.364 176.728 144.663 176.728 138.864C176.728 133.065 181.429 128.364 187.228 128.364C193.027 128.364 197.728 133.065 197.728 138.864ZM165.273 138.864C165.273 144.663 160.572 149.364 154.773 149.364C148.974 149.364 144.273 144.663 144.273 138.864C144.273 133.065 148.974 128.364 154.773 128.364C160.572 128.364 165.273 133.065 165.273 138.864ZM181.5 89.2271C181.5 95.0261 176.799 99.7271 171 99.7271C165.201 99.7271 160.5 95.0261 160.5 89.2271C160.5 83.428 165.201 78.727 171 78.727C176.799 78.727 181.5 83.428 181.5 89.2271Z"/>
<path d="M183 117C183 123.627 177.627 129 171 129C164.373 129 159 123.627 159 117C159 110.373 164.373 105 171 105C177.627 105 183 110.373 183 117Z"/>
<path fill-rule="evenodd" clip-rule="evenodd" d="M341 190C381.317 190 414 157.317 414 117C414 76.6832 381.317 44 341 44C300.683 44 268 76.6832 268 117C268 157.317 300.683 190 341 190ZM341 173.453C372.178 173.453 397.453 148.178 397.453 117C397.453 85.8217 372.178 60.5467 341 60.5467C309.822 60.5467 284.547 85.8217 284.547 117C284.547 148.178 309.822 173.453 341 173.453Z"/>
<path d="M377.273 108.32C377.273 114.119 372.572 118.82 366.773 118.82C360.974 118.82 356.273 114.119 356.273 108.32C356.273 102.521 360.974 97.8201 366.773 97.8201C372.572 97.8201 377.273 102.521 377.273 108.32Z"/>
<path d="M325.727 108.32C325.727 114.119 321.026 118.82 315.227 118.82C309.428 118.82 304.727 114.119 304.727 108.32C304.727 102.521 309.428 97.8201 315.227 97.8201C321.026 97.8201 325.727 102.521 325.727 108.32Z"/>
<path d="M367.728 138.864C367.728 144.663 363.027 149.364 357.228 149.364C351.429 149.364 346.728 144.663 346.728 138.864C346.728 133.065 351.429 128.364 357.228 128.364C363.027 128.364 367.728 133.065 367.728 138.864Z"/>
<path d="M335.273 138.864C335.273 144.663 330.572 149.364 324.773 149.364C318.974 149.364 314.273 144.663 314.273 138.864C314.273 133.065 318.974 128.364 324.773 128.364C330.572 128.364 335.273 133.065 335.273 138.864Z"/>
<path d="M351.5 89.2271C351.5 95.0261 346.799 99.7271 341 99.7271C335.201 99.7271 330.5 95.0261 330.5 89.2271C330.5 83.428 335.201 78.727 341 78.727C346.799 78.727 351.5 83.428 351.5 89.2271Z"/>
<path fill-rule="evenodd" clip-rule="evenodd" d="M341 168C369.167 168 392 145.167 392 117C392 88.8335 369.167 66 341 66C312.833 66 290 88.8335 290 117C290 145.167 312.833 168 341 168ZM366.774 124.548C375.736 124.548 383.001 117.283 383.001 108.321C383.001 99.3584 375.736 92.0931 366.774 92.0931C362.328 92.0931 358.3 93.8809 355.369 96.7768C356.556 94.5217 357.228 91.9531 357.228 89.2274C357.228 80.2653 349.963 73 341.001 73C332.039 73 324.773 80.2653 324.773 89.2274C324.773 91.9533 325.445 94.5222 326.633 96.7775C323.702 93.8812 319.674 92.0931 315.227 92.0931C306.265 92.0931 299 99.3584 299 108.321C299 117.283 306.265 124.548 315.227 124.548C315.965 124.548 316.692 124.499 317.403 124.403C312.146 127.088 308.546 132.556 308.546 138.865C308.546 147.827 315.811 155.092 324.773 155.092C333.735 155.092 341.001 147.827 341.001 138.865C341.001 147.827 348.266 155.092 357.228 155.092C366.19 155.092 373.456 147.827 373.456 138.865C373.456 132.556 369.856 127.088 364.598 124.403C365.31 124.499 366.036 124.548 366.774 124.548ZM377.273 108.32C377.273 114.119 372.572 118.82 366.773 118.82C360.974 118.82 356.273 114.119 356.273 108.32C356.273 102.521 360.974 97.8201 366.773 97.8201C372.572 97.8201 377.273 102.521 377.273 108.32ZM325.727 108.32C325.727 114.119 321.026 118.82 315.227 118.82C309.428 118.82 304.727 114.119 304.727 108.32C304.727 102.521 309.428 97.8201 315.227 97.8201C321.026 97.8201 325.727 102.521 325.727 108.32ZM367.728 138.864C367.728 144.663 363.027 149.364 357.228 149.364C351.429 149.364 346.728 144.663 346.728 138.864C346.728 133.065 351.429 128.364 357.228 128.364C363.027 128.364 367.728 133.065 367.728 138.864ZM335.273 138.864C335.273 144.663 330.572 149.364 324.773 149.364C318.974 149.364 314.273 144.663 314.273 138.864C314.273 133.065 318.974 128.364 324.773 128.364C330.572 128.364 335.273 133.065 335.273 138.864ZM351.5 89.2271C351.5 95.0261 346.799 99.7271 341 99.7271C335.201 99.7271 330.5 95.0261 330.5 89.2271C330.5 83.428 335.201 78.727 341 78.727C346.799 78.727 351.5 83.428 351.5 89.2271Z"/>
<path d="M353 117C353 123.627 347.627 129 341 129C334.373 129 329 123.627 329 117C329 110.373 334.373 105 341 105C347.627 105 353 110.373 353 117Z"/>
</mask>
<path fill-rule="evenodd" clip-rule="evenodd" d="M171 468C211.317 468 244 435.317 244 395C244 354.683 211.317 322 171 322C130.683 322 98 354.683 98 395C98 435.317 130.683 468 171 468ZM171 451.453C202.178 451.453 227.453 426.178 227.453 395C227.453 363.822 202.178 338.547 171 338.547C139.822 338.547 114.547 363.822 114.547 395C114.547 426.178 139.822 451.453 171 451.453Z" fill="#969696"/>
<path d="M207.273 386.32C207.273 392.119 202.572 396.82 196.773 396.82C190.974 396.82 186.273 392.119 186.273 386.32C186.273 380.521 190.974 375.82 196.773 375.82C202.572 375.82 207.273 380.521 207.273 386.32Z" fill="#969696"/>
<path d="M155.727 386.32C155.727 392.119 151.026 396.82 145.227 396.82C139.428 396.82 134.727 392.119 134.727 386.32C134.727 380.521 139.428 375.82 145.227 375.82C151.026 375.82 155.727 380.521 155.727 386.32Z" fill="#969696"/>
<path d="M197.728 416.864C197.728 422.663 193.027 427.364 187.228 427.364C181.429 427.364 176.728 422.663 176.728 416.864C176.728 411.065 181.429 406.364 187.228 406.364C193.027 406.364 197.728 411.065 197.728 416.864Z" fill="#969696"/>
<path d="M165.273 416.864C165.273 422.663 160.572 427.364 154.773 427.364C148.974 427.364 144.273 422.663 144.273 416.864C144.273 411.065 148.974 406.364 154.773 406.364C160.572 406.364 165.273 411.065 165.273 416.864Z" fill="#969696"/>
<path d="M181.5 367.227C181.5 373.026 176.799 377.727 171 377.727C165.201 377.727 160.5 373.026 160.5 367.227C160.5 361.428 165.201 356.727 171 356.727C176.799 356.727 181.5 361.428 181.5 367.227Z" fill="#969696"/>
<path fill-rule="evenodd" clip-rule="evenodd" d="M171 446C199.167 446 222 423.167 222 395C222 366.833 199.167 344 171 344C142.833 344 120 366.833 120 395C120 423.167 142.833 446 171 446ZM196.774 402.548C205.736 402.548 213.001 395.283 213.001 386.321C213.001 377.358 205.736 370.093 196.774 370.093C192.328 370.093 188.3 371.881 185.369 374.777C186.556 372.522 187.228 369.953 187.228 367.227C187.228 358.265 179.963 351 171.001 351C162.039 351 154.773 358.265 154.773 367.227C154.773 369.953 155.445 372.522 156.633 374.777C153.702 371.881 149.674 370.093 145.227 370.093C136.265 370.093 129 377.358 129 386.321C129 395.283 136.265 402.548 145.227 402.548C145.965 402.548 146.692 402.499 147.403 402.403C142.146 405.088 138.546 410.556 138.546 416.865C138.546 425.827 145.811 433.092 154.773 433.092C163.735 433.092 171.001 425.827 171.001 416.865C171.001 425.827 178.266 433.092 187.228 433.092C196.19 433.092 203.456 425.827 203.456 416.865C203.456 410.556 199.856 405.088 194.598 402.403C195.309 402.499 196.036 402.548 196.774 402.548ZM207.273 386.32C207.273 392.119 202.572 396.82 196.773 396.82C190.974 396.82 186.273 392.119 186.273 386.32C186.273 380.521 190.974 375.82 196.773 375.82C202.572 375.82 207.273 380.521 207.273 386.32ZM155.727 386.32C155.727 392.119 151.026 396.82 145.227 396.82C139.428 396.82 134.727 392.119 134.727 386.32C134.727 380.521 139.428 375.82 145.227 375.82C151.026 375.82 155.727 380.521 155.727 386.32ZM197.728 416.864C197.728 422.663 193.027 427.364 187.228 427.364C181.429 427.364 176.728 422.663 176.728 416.864C176.728 411.065 181.429 406.364 187.228 406.364C193.027 406.364 197.728 411.065 197.728 416.864ZM165.273 416.864C165.273 422.663 160.572 427.364 154.773 427.364C148.974 427.364 144.273 422.663 144.273 416.864C144.273 411.065 148.974 406.364 154.773 406.364C160.572 406.364 165.273 411.065 165.273 416.864ZM181.5 367.227C181.5 373.026 176.799 377.727 171 377.727C165.201 377.727 160.5 373.026 160.5 367.227C160.5 361.428 165.201 356.727 171 356.727C176.799 356.727 181.5 361.428 181.5 367.227Z" fill="#969696"/>
<path d="M183 395C183 401.627 177.627 407 171 407C164.373 407 159 401.627 159 395C159 388.373 164.373 383 171 383C177.627 383 183 388.373 183 395Z" fill="#969696"/>
<path fill-rule="evenodd" clip-rule="evenodd" d="M341 468C381.317 468 414 435.317 414 395C414 354.683 381.317 322 341 322C300.683 322 268 354.683 268 395C268 435.317 300.683 468 341 468ZM341 451.453C372.178 451.453 397.453 426.178 397.453 395C397.453 363.822 372.178 338.547 341 338.547C309.822 338.547 284.547 363.822 284.547 395C284.547 426.178 309.822 451.453 341 451.453Z" fill="#969696"/>
<path d="M377.273 386.32C377.273 392.119 372.572 396.82 366.773 396.82C360.974 396.82 356.273 392.119 356.273 386.32C356.273 380.521 360.974 375.82 366.773 375.82C372.572 375.82 377.273 380.521 377.273 386.32Z" fill="#969696"/>
<path d="M325.727 386.32C325.727 392.119 321.026 396.82 315.227 396.82C309.428 396.82 304.727 392.119 304.727 386.32C304.727 380.521 309.428 375.82 315.227 375.82C321.026 375.82 325.727 380.521 325.727 386.32Z" fill="#969696"/>
<path d="M367.728 416.864C367.728 422.663 363.027 427.364 357.228 427.364C351.429 427.364 346.728 422.663 346.728 416.864C346.728 411.065 351.429 406.364 357.228 406.364C363.027 406.364 367.728 411.065 367.728 416.864Z" fill="#969696"/>
<path d="M335.273 416.864C335.273 422.663 330.572 427.364 324.773 427.364C318.974 427.364 314.273 422.663 314.273 416.864C314.273 411.065 318.974 406.364 324.773 406.364C330.572 406.364 335.273 411.065 335.273 416.864Z" fill="#969696"/>
<path d="M351.5 367.227C351.5 373.026 346.799 377.727 341 377.727C335.201 377.727 330.5 373.026 330.5 367.227C330.5 361.428 335.201 356.727 341 356.727C346.799 356.727 351.5 361.428 351.5 367.227Z" fill="#969696"/>
<path fill-rule="evenodd" clip-rule="evenodd" d="M341 446C369.167 446 392 423.167 392 395C392 366.833 369.167 344 341 344C312.833 344 290 366.833 290 395C290 423.167 312.833 446 341 446ZM366.774 402.548C375.736 402.548 383.001 395.283 383.001 386.321C383.001 377.358 375.736 370.093 366.774 370.093C362.328 370.093 358.3 371.881 355.369 374.777C356.556 372.522 357.228 369.953 357.228 367.227C357.228 358.265 349.963 351 341.001 351C332.039 351 324.773 358.265 324.773 367.227C324.773 369.953 325.445 372.522 326.633 374.777C323.702 371.881 319.674 370.093 315.227 370.093C306.265 370.093 299 377.358 299 386.321C299 395.283 306.265 402.548 315.227 402.548C315.965 402.548 316.692 402.499 317.403 402.403C312.146 405.088 308.546 410.556 308.546 416.865C308.546 425.827 315.811 433.092 324.773 433.092C333.735 433.092 341.001 425.827 341.001 416.865C341.001 425.827 348.266 433.092 357.228 433.092C366.19 433.092 373.456 425.827 373.456 416.865C373.456 410.556 369.856 405.088 364.598 402.403C365.31 402.499 366.036 402.548 366.774 402.548ZM377.273 386.32C377.273 392.119 372.572 396.82 366.773 396.82C360.974 396.82 356.273 392.119 356.273 386.32C356.273 380.521 360.974 375.82 366.773 375.82C372.572 375.82 377.273 380.521 377.273 386.32ZM325.727 386.32C325.727 392.119 321.026 396.82 315.227 396.82C309.428 396.82 304.727 392.119 304.727 386.32C304.727 380.521 309.428 375.82 315.227 375.82C321.026 375.82 325.727 380.521 325.727 386.32ZM367.728 416.864C367.728 422.663 363.027 427.364 357.228 427.364C351.429 427.364 346.728 422.663 346.728 416.864C346.728 411.065 351.429 406.364 357.228 406.364C363.027 406.364 367.728 411.065 367.728 416.864ZM335.273 416.864C335.273 422.663 330.572 427.364 324.773 427.364C318.974 427.364 314.273 422.663 314.273 416.864C314.273 411.065 318.974 406.364 324.773 406.364C330.572 406.364 335.273 411.065 335.273 416.864ZM351.5 367.227C351.5 373.026 346.799 377.727 341 377.727C335.201 377.727 330.5 373.026 330.5 367.227C330.5 361.428 335.201 356.727 341 356.727C346.799 356.727 351.5 361.428 351.5 367.227Z" fill="#969696"/>
<path d="M353 395C353 401.627 347.627 407 341 407C334.373 407 329 401.627 329 395C329 388.373 334.373 383 341 383C347.627 383 353 388.373 353 395Z" fill="#969696"/>
<path fill-rule="evenodd" clip-rule="evenodd" d="M171 190C211.317 190 244 157.317 244 117C244 76.6832 211.317 44 171 44C130.683 44 98 76.6832 98 117C98 157.317 130.683 190 171 190ZM171 173.453C202.178 173.453 227.453 148.178 227.453 117C227.453 85.8217 202.178 60.5467 171 60.5467C139.822 60.5467 114.547 85.8217 114.547 117C114.547 148.178 139.822 173.453 171 173.453Z" fill="#969696"/>
<path d="M207.273 108.32C207.273 114.119 202.572 118.82 196.773 118.82C190.974 118.82 186.273 114.119 186.273 108.32C186.273 102.521 190.974 97.8201 196.773 97.8201C202.572 97.8201 207.273 102.521 207.273 108.32Z" fill="#969696"/>
<path d="M155.727 108.32C155.727 114.119 151.026 118.82 145.227 118.82C139.428 118.82 134.727 114.119 134.727 108.32C134.727 102.521 139.428 97.8201 145.227 97.8201C151.026 97.8201 155.727 102.521 155.727 108.32Z" fill="#969696"/>
<path d="M197.728 138.864C197.728 144.663 193.027 149.364 187.228 149.364C181.429 149.364 176.728 144.663 176.728 138.864C176.728 133.065 181.429 128.364 187.228 128.364C193.027 128.364 197.728 133.065 197.728 138.864Z" fill="#969696"/>
<path d="M165.273 138.864C165.273 144.663 160.572 149.364 154.773 149.364C148.974 149.364 144.273 144.663 144.273 138.864C144.273 133.065 148.974 128.364 154.773 128.364C160.572 128.364 165.273 133.065 165.273 138.864Z" fill="#969696"/>
<path d="M181.5 89.2271C181.5 95.0261 176.799 99.7271 171 99.7271C165.201 99.7271 160.5 95.0261 160.5 89.2271C160.5 83.428 165.201 78.727 171 78.727C176.799 78.727 181.5 83.428 181.5 89.2271Z" fill="#969696"/>
<path fill-rule="evenodd" clip-rule="evenodd" d="M171 168C199.167 168 222 145.167 222 117C222 88.8335 199.167 66 171 66C142.833 66 120 88.8335 120 117C120 145.167 142.833 168 171 168ZM196.774 124.548C205.736 124.548 213.001 117.283 213.001 108.321C213.001 99.3584 205.736 92.0931 196.774 92.0931C192.328 92.0931 188.3 93.8809 185.369 96.7768C186.556 94.5217 187.228 91.9531 187.228 89.2274C187.228 80.2653 179.963 73 171.001 73C162.039 73 154.773 80.2653 154.773 89.2274C154.773 91.9533 155.445 94.5222 156.633 96.7775C153.702 93.8812 149.674 92.0931 145.227 92.0931C136.265 92.0931 129 99.3584 129 108.321C129 117.283 136.265 124.548 145.227 124.548C145.965 124.548 146.692 124.499 147.403 124.403C142.146 127.088 138.546 132.556 138.546 138.865C138.546 147.827 145.811 155.092 154.773 155.092C163.735 155.092 171.001 147.827 171.001 138.865C171.001 147.827 178.266 155.092 187.228 155.092C196.19 155.092 203.456 147.827 203.456 138.865C203.456 132.556 199.856 127.088 194.598 124.403C195.309 124.499 196.036 124.548 196.774 124.548ZM207.273 108.32C207.273 114.119 202.572 118.82 196.773 118.82C190.974 118.82 186.273 114.119 186.273 108.32C186.273 102.521 190.974 97.8201 196.773 97.8201C202.572 97.8201 207.273 102.521 207.273 108.32ZM155.727 108.32C155.727 114.119 151.026 118.82 145.227 118.82C139.428 118.82 134.727 114.119 134.727 108.32C134.727 102.521 139.428 97.8201 145.227 97.8201C151.026 97.8201 155.727 102.521 155.727 108.32ZM197.728 138.864C197.728 144.663 193.027 149.364 187.228 149.364C181.429 149.364 176.728 144.663 176.728 138.864C176.728 133.065 181.429 128.364 187.228 128.364C193.027 128.364 197.728 133.065 197.728 138.864ZM165.273 138.864C165.273 144.663 160.572 149.364 154.773 149.364C148.974 149.364 144.273 144.663 144.273 138.864C144.273 133.065 148.974 128.364 154.773 128.364C160.572 128.364 165.273 133.065 165.273 138.864ZM181.5 89.2271C181.5 95.0261 176.799 99.7271 171 99.7271C165.201 99.7271 160.5 95.0261 160.5 89.2271C160.5 83.428 165.201 78.727 171 78.727C176.799 78.727 181.5 83.428 181.5 89.2271Z" fill="#969696"/>
<path d="M183 117C183 123.627 177.627 129 171 129C164.373 129 159 123.627 159 117C159 110.373 164.373 105 171 105C177.627 105 183 110.373 183 117Z" fill="#969696"/>
<path fill-rule="evenodd" clip-rule="evenodd" d="M341 190C381.317 190 414 157.317 414 117C414 76.6832 381.317 44 341 44C300.683 44 268 76.6832 268 117C268 157.317 300.683 190 341 190ZM341 173.453C372.178 173.453 397.453 148.178 397.453 117C397.453 85.8217 372.178 60.5467 341 60.5467C309.822 60.5467 284.547 85.8217 284.547 117C284.547 148.178 309.822 173.453 341 173.453Z" fill="#969696"/>
<path d="M377.273 108.32C377.273 114.119 372.572 118.82 366.773 118.82C360.974 118.82 356.273 114.119 356.273 108.32C356.273 102.521 360.974 97.8201 366.773 97.8201C372.572 97.8201 377.273 102.521 377.273 108.32Z" fill="#969696"/>
<path d="M325.727 108.32C325.727 114.119 321.026 118.82 315.227 118.82C309.428 118.82 304.727 114.119 304.727 108.32C304.727 102.521 309.428 97.8201 315.227 97.8201C321.026 97.8201 325.727 102.521 325.727 108.32Z" fill="#969696"/>
<path d="M367.728 138.864C367.728 144.663 363.027 149.364 357.228 149.364C351.429 149.364 346.728 144.663 346.728 138.864C346.728 133.065 351.429 128.364 357.228 128.364C363.027 128.364 367.728 133.065 367.728 138.864Z" fill="#969696"/>
<path d="M335.273 138.864C335.273 144.663 330.572 149.364 324.773 149.364C318.974 149.364 314.273 144.663 314.273 138.864C314.273 133.065 318.974 128.364 324.773 128.364C330.572 128.364 335.273 133.065 335.273 138.864Z" fill="#969696"/>
<path d="M351.5 89.2271C351.5 95.0261 346.799 99.7271 341 99.7271C335.201 99.7271 330.5 95.0261 330.5 89.2271C330.5 83.428 335.201 78.727 341 78.727C346.799 78.727 351.5 83.428 351.5 89.2271Z" fill="#969696"/>
<path fill-rule="evenodd" clip-rule="evenodd" d="M341 168C369.167 168 392 145.167 392 117C392 88.8335 369.167 66 341 66C312.833 66 290 88.8335 290 117C290 145.167 312.833 168 341 168ZM366.774 124.548C375.736 124.548 383.001 117.283 383.001 108.321C383.001 99.3584 375.736 92.0931 366.774 92.0931C362.328 92.0931 358.3 93.8809 355.369 96.7768C356.556 94.5217 357.228 91.9531 357.228 89.2274C357.228 80.2653 349.963 73 341.001 73C332.039 73 324.773 80.2653 324.773 89.2274C324.773 91.9533 325.445 94.5222 326.633 96.7775C323.702 93.8812 319.674 92.0931 315.227 92.0931C306.265 92.0931 299 99.3584 299 108.321C299 117.283 306.265 124.548 315.227 124.548C315.965 124.548 316.692 124.499 317.403 124.403C312.146 127.088 308.546 132.556 308.546 138.865C308.546 147.827 315.811 155.092 324.773 155.092C333.735 155.092 341.001 147.827 341.001 138.865C341.001 147.827 348.266 155.092 357.228 155.092C366.19 155.092 373.456 147.827 373.456 138.865C373.456 132.556 369.856 127.088 364.598 124.403C365.31 124.499 366.036 124.548 366.774 124.548ZM377.273 108.32C377.273 114.119 372.572 118.82 366.773 118.82C360.974 118.82 356.273 114.119 356.273 108.32C356.273 102.521 360.974 97.8201 366.773 97.8201C372.572 97.8201 377.273 102.521 377.273 108.32ZM325.727 108.32C325.727 114.119 321.026 118.82 315.227 118.82C309.428 118.82 304.727 114.119 304.727 108.32C304.727 102.521 309.428 97.8201 315.227 97.8201C321.026 97.8201 325.727 102.521 325.727 108.32ZM367.728 138.864C367.728 144.663 363.027 149.364 357.228 149.364C351.429 149.364 346.728 144.663 346.728 138.864C346.728 133.065 351.429 128.364 357.228 128.364C363.027 128.364 367.728 133.065 367.728 138.864ZM335.273 138.864C335.273 144.663 330.572 149.364 324.773 149.364C318.974 149.364 314.273 144.663 314.273 138.864C314.273 133.065 318.974 128.364 324.773 128.364C330.572 128.364 335.273 133.065 335.273 138.864ZM351.5 89.2271C351.5 95.0261 346.799 99.7271 341 99.7271C335.201 99.7271 330.5 95.0261 330.5 89.2271C330.5 83.428 335.201 78.727 341 78.727C346.799 78.727 351.5 83.428 351.5 89.2271Z" fill="#969696"/>
<path d="M353 117C353 123.627 347.627 129 341 129C334.373 129 329 123.627 329 117C329 110.373 334.373 105 341 105C347.627 105 353 110.373 353 117Z" fill="#969696"/>
<path fill-rule="evenodd" clip-rule="evenodd" d="M171 468C211.317 468 244 435.317 244 395C244 354.683 211.317 322 171 322C130.683 322 98 354.683 98 395C98 435.317 130.683 468 171 468ZM171 451.453C202.178 451.453 227.453 426.178 227.453 395C227.453 363.822 202.178 338.547 171 338.547C139.822 338.547 114.547 363.822 114.547 395C114.547 426.178 139.822 451.453 171 451.453Z" stroke="white" stroke-width="4" mask="url(#path-2-inside-1_170_481)"/>
<path d="M207.273 386.32C207.273 392.119 202.572 396.82 196.773 396.82C190.974 396.82 186.273 392.119 186.273 386.32C186.273 380.521 190.974 375.82 196.773 375.82C202.572 375.82 207.273 380.521 207.273 386.32Z" stroke="white" stroke-width="4" mask="url(#path-2-inside-1_170_481)"/>
<path d="M155.727 386.32C155.727 392.119 151.026 396.82 145.227 396.82C139.428 396.82 134.727 392.119 134.727 386.32C134.727 380.521 139.428 375.82 145.227 375.82C151.026 375.82 155.727 380.521 155.727 386.32Z" stroke="white" stroke-width="4" mask="url(#path-2-inside-1_170_481)"/>
<path d="M197.728 416.864C197.728 422.663 193.027 427.364 187.228 427.364C181.429 427.364 176.728 422.663 176.728 416.864C176.728 411.065 181.429 406.364 187.228 406.364C193.027 406.364 197.728 411.065 197.728 416.864Z" stroke="white" stroke-width="4" mask="url(#path-2-inside-1_170_481)"/>
<path d="M165.273 416.864C165.273 422.663 160.572 427.364 154.773 427.364C148.974 427.364 144.273 422.663 144.273 416.864C144.273 411.065 148.974 406.364 154.773 406.364C160.572 406.364 165.273 411.065 165.273 416.864Z" stroke="white" stroke-width="4" mask="url(#path-2-inside-1_170_481)"/>
<path d="M181.5 367.227C181.5 373.026 176.799 377.727 171 377.727C165.201 377.727 160.5 373.026 160.5 367.227C160.5 361.428 165.201 356.727 171 356.727C176.799 356.727 181.5 361.428 181.5 367.227Z" stroke="white" stroke-width="4" mask="url(#path-2-inside-1_170_481)"/>
<path fill-rule="evenodd" clip-rule="evenodd" d="M171 446C199.167 446 222 423.167 222 395C222 366.833 199.167 344 171 344C142.833 344 120 366.833 120 395C120 423.167 142.833 446 171 446ZM196.774 402.548C205.736 402.548 213.001 395.283 213.001 386.321C213.001 377.358 205.736 370.093 196.774 370.093C192.328 370.093 188.3 371.881 185.369 374.777C186.556 372.522 187.228 369.953 187.228 367.227C187.228 358.265 179.963 351 171.001 351C162.039 351 154.773 358.265 154.773 367.227C154.773 369.953 155.445 372.522 156.633 374.777C153.702 371.881 149.674 370.093 145.227 370.093C136.265 370.093 129 377.358 129 386.321C129 395.283 136.265 402.548 145.227 402.548C145.965 402.548 146.692 402.499 147.403 402.403C142.146 405.088 138.546 410.556 138.546 416.865C138.546 425.827 145.811 433.092 154.773 433.092C163.735 433.092 171.001 425.827 171.001 416.865C171.001 425.827 178.266 433.092 187.228 433.092C196.19 433.092 203.456 425.827 203.456 416.865C203.456 410.556 199.856 405.088 194.598 402.403C195.309 402.499 196.036 402.548 196.774 402.548ZM207.273 386.32C207.273 392.119 202.572 396.82 196.773 396.82C190.974 396.82 186.273 392.119 186.273 386.32C186.273 380.521 190.974 375.82 196.773 375.82C202.572 375.82 207.273 380.521 207.273 386.32ZM155.727 386.32C155.727 392.119 151.026 396.82 145.227 396.82C139.428 396.82 134.727 392.119 134.727 386.32C134.727 380.521 139.428 375.82 145.227 375.82C151.026 375.82 155.727 380.521 155.727 386.32ZM197.728 416.864C197.728 422.663 193.027 427.364 187.228 427.364C181.429 427.364 176.728 422.663 176.728 416.864C176.728 411.065 181.429 406.364 187.228 406.364C193.027 406.364 197.728 411.065 197.728 416.864ZM165.273 416.864C165.273 422.663 160.572 427.364 154.773 427.364C148.974 427.364 144.273 422.663 144.273 416.864C144.273 411.065 148.974 406.364 154.773 406.364C160.572 406.364 165.273 411.065 165.273 416.864ZM181.5 367.227C181.5 373.026 176.799 377.727 171 377.727C165.201 377.727 160.5 373.026 160.5 367.227C160.5 361.428 165.201 356.727 171 356.727C176.799 356.727 181.5 361.428 181.5 367.227Z" stroke="white" stroke-width="4" mask="url(#path-2-inside-1_170_481)"/>
<path d="M183 395C183 401.627 177.627 407 171 407C164.373 407 159 401.627 159 395C159 388.373 164.373 383 171 383C177.627 383 183 388.373 183 395Z" stroke="white" stroke-width="4" mask="url(#path-2-inside-1_170_481)"/>
<path fill-rule="evenodd" clip-rule="evenodd" d="M341 468C381.317 468 414 435.317 414 395C414 354.683 381.317 322 341 322C300.683 322 268 354.683 268 395C268 435.317 300.683 468 341 468ZM341 451.453C372.178 451.453 397.453 426.178 397.453 395C397.453 363.822 372.178 338.547 341 338.547C309.822 338.547 284.547 363.822 284.547 395C284.547 426.178 309.822 451.453 341 451.453Z" stroke="white" stroke-width="4" mask="url(#path-2-inside-1_170_481)"/>
<path d="M377.273 386.32C377.273 392.119 372.572 396.82 366.773 396.82C360.974 396.82 356.273 392.119 356.273 386.32C356.273 380.521 360.974 375.82 366.773 375.82C372.572 375.82 377.273 380.521 377.273 386.32Z" stroke="white" stroke-width="4" mask="url(#path-2-inside-1_170_481)"/>
<path d="M325.727 386.32C325.727 392.119 321.026 396.82 315.227 396.82C309.428 396.82 304.727 392.119 304.727 386.32C304.727 380.521 309.428 375.82 315.227 375.82C321.026 375.82 325.727 380.521 325.727 386.32Z" stroke="white" stroke-width="4" mask="url(#path-2-inside-1_170_481)"/>
<path d="M367.728 416.864C367.728 422.663 363.027 427.364 357.228 427.364C351.429 427.364 346.728 422.663 346.728 416.864C346.728 411.065 351.429 406.364 357.228 406.364C363.027 406.364 367.728 411.065 367.728 416.864Z" stroke="white" stroke-width="4" mask="url(#path-2-inside-1_170_481)"/>
<path d="M335.273 416.864C335.273 422.663 330.572 427.364 324.773 427.364C318.974 427.364 314.273 422.663 314.273 416.864C314.273 411.065 318.974 406.364 324.773 406.364C330.572 406.364 335.273 411.065 335.273 416.864Z" stroke="white" stroke-width="4" mask="url(#path-2-inside-1_170_481)"/>
<path d="M351.5 367.227C351.5 373.026 346.799 377.727 341 377.727C335.201 377.727 330.5 373.026 330.5 367.227C330.5 361.428 335.201 356.727 341 356.727C346.799 356.727 351.5 361.428 351.5 367.227Z" stroke="white" stroke-width="4" mask="url(#path-2-inside-1_170_481)"/>
<path fill-rule="evenodd" clip-rule="evenodd" d="M341 446C369.167 446 392 423.167 392 395C392 366.833 369.167 344 341 344C312.833 344 290 366.833 290 395C290 423.167 312.833 446 341 446ZM366.774 402.548C375.736 402.548 383.001 395.283 383.001 386.321C383.001 377.358 375.736 370.093 366.774 370.093C362.328 370.093 358.3 371.881 355.369 374.777C356.556 372.522 357.228 369.953 357.228 367.227C357.228 358.265 349.963 351 341.001 351C332.039 351 324.773 358.265 324.773 367.227C324.773 369.953 325.445 372.522 326.633 374.777C323.702 371.881 319.674 370.093 315.227 370.093C306.265 370.093 299 377.358 299 386.321C299 395.283 306.265 402.548 315.227 402.548C315.965 402.548 316.692 402.499 317.403 402.403C312.146 405.088 308.546 410.556 308.546 416.865C308.546 425.827 315.811 433.092 324.773 433.092C333.735 433.092 341.001 425.827 341.001 416.865C341.001 425.827 348.266 433.092 357.228 433.092C366.19 433.092 373.456 425.827 373.456 416.865C373.456 410.556 369.856 405.088 364.598 402.403C365.31 402.499 366.036 402.548 366.774 402.548ZM377.273 386.32C377.273 392.119 372.572 396.82 366.773 396.82C360.974 396.82 356.273 392.119 356.273 386.32C356.273 380.521 360.974 375.82 366.773 375.82C372.572 375.82 377.273 380.521 377.273 386.32ZM325.727 386.32C325.727 392.119 321.026 396.82 315.227 396.82C309.428 396.82 304.727 392.119 304.727 386.32C304.727 380.521 309.428 375.82 315.227 375.82C321.026 375.82 325.727 380.521 325.727 386.32ZM367.728 416.864C367.728 422.663 363.027 427.364 357.228 427.364C351.429 427.364 346.728 422.663 346.728 416.864C346.728 411.065 351.429 406.364 357.228 406.364C363.027 406.364 367.728 411.065 367.728 416.864ZM335.273 416.864C335.273 422.663 330.572 427.364 324.773 427.364C318.974 427.364 314.273 422.663 314.273 416.864C314.273 411.065 318.974 406.364 324.773 406.364C330.572 406.364 335.273 411.065 335.273 416.864ZM351.5 367.227C351.5 373.026 346.799 377.727 341 377.727C335.201 377.727 330.5 373.026 330.5 367.227C330.5 361.428 335.201 356.727 341 356.727C346.799 356.727 351.5 361.428 351.5 367.227Z" stroke="white" stroke-width="4" mask="url(#path-2-inside-1_170_481)"/>
<path d="M353 395C353 401.627 347.627 407 341 407C334.373 407 329 401.627 329 395C329 388.373 334.373 383 341 383C347.627 383 353 388.373 353 395Z" stroke="white" stroke-width="4" mask="url(#path-2-inside-1_170_481)"/>
<path fill-rule="evenodd" clip-rule="evenodd" d="M171 190C211.317 190 244 157.317 244 117C244 76.6832 211.317 44 171 44C130.683 44 98 76.6832 98 117C98 157.317 130.683 190 171 190ZM171 173.453C202.178 173.453 227.453 148.178 227.453 117C227.453 85.8217 202.178 60.5467 171 60.5467C139.822 60.5467 114.547 85.8217 114.547 117C114.547 148.178 139.822 173.453 171 173.453Z" stroke="white" stroke-width="4" mask="url(#path-2-inside-1_170_481)"/>
<path d="M207.273 108.32C207.273 114.119 202.572 118.82 196.773 118.82C190.974 118.82 186.273 114.119 186.273 108.32C186.273 102.521 190.974 97.8201 196.773 97.8201C202.572 97.8201 207.273 102.521 207.273 108.32Z" stroke="white" stroke-width="4" mask="url(#path-2-inside-1_170_481)"/>
<path d="M155.727 108.32C155.727 114.119 151.026 118.82 145.227 118.82C139.428 118.82 134.727 114.119 134.727 108.32C134.727 102.521 139.428 97.8201 145.227 97.8201C151.026 97.8201 155.727 102.521 155.727 108.32Z" stroke="white" stroke-width="4" mask="url(#path-2-inside-1_170_481)"/>
<path d="M197.728 138.864C197.728 144.663 193.027 149.364 187.228 149.364C181.429 149.364 176.728 144.663 176.728 138.864C176.728 133.065 181.429 128.364 187.228 128.364C193.027 128.364 197.728 133.065 197.728 138.864Z" stroke="white" stroke-width="4" mask="url(#path-2-inside-1_170_481)"/>
<path d="M165.273 138.864C165.273 144.663 160.572 149.364 154.773 149.364C148.974 149.364 144.273 144.663 144.273 138.864C144.273 133.065 148.974 128.364 154.773 128.364C160.572 128.364 165.273 133.065 165.273 138.864Z" stroke="white" stroke-width="4" mask="url(#path-2-inside-1_170_481)"/>
<path d="M181.5 89.2271C181.5 95.0261 176.799 99.7271 171 99.7271C165.201 99.7271 160.5 95.0261 160.5 89.2271C160.5 83.428 165.201 78.727 171 78.727C176.799 78.727 181.5 83.428 181.5 89.2271Z" stroke="white" stroke-width="4" mask="url(#path-2-inside-1_170_481)"/>
<path fill-rule="evenodd" clip-rule="evenodd" d="M171 168C199.167 168 222 145.167 222 117C222 88.8335 199.167 66 171 66C142.833 66 120 88.8335 120 117C120 145.167 142.833 168 171 168ZM196.774 124.548C205.736 124.548 213.001 117.283 213.001 108.321C213.001 99.3584 205.736 92.0931 196.774 92.0931C192.328 92.0931 188.3 93.8809 185.369 96.7768C186.556 94.5217 187.228 91.9531 187.228 89.2274C187.228 80.2653 179.963 73 171.001 73C162.039 73 154.773 80.2653 154.773 89.2274C154.773 91.9533 155.445 94.5222 156.633 96.7775C153.702 93.8812 149.674 92.0931 145.227 92.0931C136.265 92.0931 129 99.3584 129 108.321C129 117.283 136.265 124.548 145.227 124.548C145.965 124.548 146.692 124.499 147.403 124.403C142.146 127.088 138.546 132.556 138.546 138.865C138.546 147.827 145.811 155.092 154.773 155.092C163.735 155.092 171.001 147.827 171.001 138.865C171.001 147.827 178.266 155.092 187.228 155.092C196.19 155.092 203.456 147.827 203.456 138.865C203.456 132.556 199.856 127.088 194.598 124.403C195.309 124.499 196.036 124.548 196.774 124.548ZM207.273 108.32C207.273 114.119 202.572 118.82 196.773 118.82C190.974 118.82 186.273 114.119 186.273 108.32C186.273 102.521 190.974 97.8201 196.773 97.8201C202.572 97.8201 207.273 102.521 207.273 108.32ZM155.727 108.32C155.727 114.119 151.026 118.82 145.227 118.82C139.428 118.82 134.727 114.119 134.727 108.32C134.727 102.521 139.428 97.8201 145.227 97.8201C151.026 97.8201 155.727 102.521 155.727 108.32ZM197.728 138.864C197.728 144.663 193.027 149.364 187.228 149.364C181.429 149.364 176.728 144.663 176.728 138.864C176.728 133.065 181.429 128.364 187.228 128.364C193.027 128.364 197.728 133.065 197.728 138.864ZM165.273 138.864C165.273 144.663 160.572 149.364 154.773 149.364C148.974 149.364 144.273 144.663 144.273 138.864C144.273 133.065 148.974 128.364 154.773 128.364C160.572 128.364 165.273 133.065 165.273 138.864ZM181.5 89.2271C181.5 95.0261 176.799 99.7271 171 99.7271C165.201 99.7271 160.5 95.0261 160.5 89.2271C160.5 83.428 165.201 78.727 171 78.727C176.799 78.727 181.5 83.428 181.5 89.2271Z" stroke="white" stroke-width="4" mask="url(#path-2-inside-1_170_481)"/>
<path d="M183 117C183 123.627 177.627 129 171 129C164.373 129 159 123.627 159 117C159 110.373 164.373 105 171 105C177.627 105 183 110.373 183 117Z" stroke="white" stroke-width="4" mask="url(#path-2-inside-1_170_481)"/>
<path fill-rule="evenodd" clip-rule="evenodd" d="M341 190C381.317 190 414 157.317 414 117C414 76.6832 381.317 44 341 44C300.683 44 268 76.6832 268 117C268 157.317 300.683 190 341 190ZM341 173.453C372.178 173.453 397.453 148.178 397.453 117C397.453 85.8217 372.178 60.5467 341 60.5467C309.822 60.5467 284.547 85.8217 284.547 117C284.547 148.178 309.822 173.453 341 173.453Z" stroke="white" stroke-width="4" mask="url(#path-2-inside-1_170_481)"/>
<path d="M377.273 108.32C377.273 114.119 372.572 118.82 366.773 118.82C360.974 118.82 356.273 114.119 356.273 108.32C356.273 102.521 360.974 97.8201 366.773 97.8201C372.572 97.8201 377.273 102.521 377.273 108.32Z" stroke="white" stroke-width="4" mask="url(#path-2-inside-1_170_481)"/>
<path d="M325.727 108.32C325.727 114.119 321.026 118.82 315.227 118.82C309.428 118.82 304.727 114.119 304.727 108.32C304.727 102.521 309.428 97.8201 315.227 97.8201C321.026 97.8201 325.727 102.521 325.727 108.32Z" stroke="white" stroke-width="4" mask="url(#path-2-inside-1_170_481)"/>
<path d="M367.728 138.864C367.728 144.663 363.027 149.364 357.228 149.364C351.429 149.364 346.728 144.663 346.728 138.864C346.728 133.065 351.429 128.364 357.228 128.364C363.027 128.364 367.728 133.065 367.728 138.864Z" stroke="white" stroke-width="4" mask="url(#path-2-inside-1_170_481)"/>
<path d="M335.273 138.864C335.273 144.663 330.572 149.364 324.773 149.364C318.974 149.364 314.273 144.663 314.273 138.864C314.273 133.065 318.974 128.364 324.773 128.364C330.572 128.364 335.273 133.065 335.273 138.864Z" stroke="white" stroke-width="4" mask="url(#path-2-inside-1_170_481)"/>
<path d="M351.5 89.2271C351.5 95.0261 346.799 99.7271 341 99.7271C335.201 99.7271 330.5 95.0261 330.5 89.2271C330.5 83.428 335.201 78.727 341 78.727C346.799 78.727 351.5 83.428 351.5 89.2271Z" stroke="white" stroke-width="4" mask="url(#path-2-inside-1_170_481)"/>
<path fill-rule="evenodd" clip-rule="evenodd" d="M341 168C369.167 168 392 145.167 392 117C392 88.8335 369.167 66 341 66C312.833 66 290 88.8335 290 117C290 145.167 312.833 168 341 168ZM366.774 124.548C375.736 124.548 383.001 117.283 383.001 108.321C383.001 99.3584 375.736 92.0931 366.774 92.0931C362.328 92.0931 358.3 93.8809 355.369 96.7768C356.556 94.5217 357.228 91.9531 357.228 89.2274C357.228 80.2653 349.963 73 341.001 73C332.039 73 324.773 80.2653 324.773 89.2274C324.773 91.9533 325.445 94.5222 326.633 96.7775C323.702 93.8812 319.674 92.0931 315.227 92.0931C306.265 92.0931 299 99.3584 299 108.321C299 117.283 306.265 124.548 315.227 124.548C315.965 124.548 316.692 124.499 317.403 124.403C312.146 127.088 308.546 132.556 308.546 138.865C308.546 147.827 315.811 155.092 324.773 155.092C333.735 155.092 341.001 147.827 341.001 138.865C341.001 147.827 348.266 155.092 357.228 155.092C366.19 155.092 373.456 147.827 373.456 138.865C373.456 132.556 369.856 127.088 364.598 124.403C365.31 124.499 366.036 124.548 366.774 124.548ZM377.273 108.32C377.273 114.119 372.572 118.82 366.773 118.82C360.974 118.82 356.273 114.119 356.273 108.32C356.273 102.521 360.974 97.8201 366.773 97.8201C372.572 97.8201 377.273 102.521 377.273 108.32ZM325.727 108.32C325.727 114.119 321.026 118.82 315.227 118.82C309.428 118.82 304.727 114.119 304.727 108.32C304.727 102.521 309.428 97.8201 315.227 97.8201C321.026 97.8201 325.727 102.521 325.727 108.32ZM367.728 138.864C367.728 144.663 363.027 149.364 357.228 149.364C351.429 149.364 346.728 144.663 346.728 138.864C346.728 133.065 351.429 128.364 357.228 128.364C363.027 128.364 367.728 133.065 367.728 138.864ZM335.273 138.864C335.273 144.663 330.572 149.364 324.773 149.364C318.974 149.364 314.273 144.663 314.273 138.864C314.273 133.065 318.974 128.364 324.773 128.364C330.572 128.364 335.273 133.065 335.273 138.864ZM351.5 89.2271C351.5 95.0261 346.799 99.7271 341 99.7271C335.201 99.7271 330.5 95.0261 330.5 89.2271C330.5 83.428 335.201 78.727 341 78.727C346.799 78.727 351.5 83.428 351.5 89.2271Z" stroke="white" stroke-width="4" mask="url(#path-2-inside-1_170_481)"/>
<path d="M353 117C353 123.627 347.627 129 341 129C334.373 129 329 123.627 329 117C329 110.373 334.373 105 341 105C347.627 105 353 110.373 353 117Z" stroke="white" stroke-width="4" mask="url(#path-2-inside-1_170_481)"/>
</svg>
