<svg width="512" height="512" viewBox="0 0 512 512" fill="none" xmlns="http://www.w3.org/2000/svg">
<path d="M1 1H511V511H1V1Z" fill="white" stroke="white" stroke-width="2"/>
<mask id="path-2-inside-1_170_440" fill="white">
<path fill-rule="evenodd" clip-rule="evenodd" d="M143.197 477C138.628 477 134.683 475.754 131.361 473.262C128.454 470.354 127 466.823 127 462.67C127 457.685 130.115 453.324 136.344 449.586L140.705 445.224C143.197 443.147 144.443 440.655 144.443 437.748V408.464C144.443 406.387 141.743 402.649 136.344 397.249C131.361 391.434 128.869 386.242 128.869 381.673C128.869 377.104 131.361 372.119 136.344 366.72C141.743 360.904 144.443 356.958 144.443 354.882V324.975C144.443 322.068 143.197 319.575 140.705 317.498L136.344 313.137C130.115 309.399 127 305.037 127 300.053C127 295.484 128.661 291.953 131.984 289.461C135.306 286.969 138.421 285.723 141.328 285.723C143.82 285.723 146.934 284.269 150.672 281.361C154.825 278.454 159.601 277 165 277C170.399 277 174.967 278.454 178.705 281.361C182.858 284.269 186.18 285.723 188.672 285.723C191.579 285.723 194.694 286.969 198.016 289.461C201.339 291.953 203 295.484 203 300.053C203 305.037 199.885 309.399 193.656 313.137C192.825 313.968 191.164 315.422 188.672 317.498C186.596 319.575 185.557 322.068 185.557 324.975V354.882C185.557 356.958 188.049 360.904 193.033 366.72C198.432 372.119 201.131 377.104 201.131 381.673C201.131 386.242 198.432 391.434 193.033 397.249C188.049 402.649 185.557 406.387 185.557 408.464V437.748C185.557 440.655 186.596 443.147 188.672 445.224C191.164 447.301 192.825 448.755 193.656 449.586C199.885 453.324 203 457.685 203 462.67C203 466.823 201.339 470.354 198.016 473.262C195.109 475.754 191.372 477 186.803 477C183.481 477 179.951 476.169 176.213 474.508C172.475 472.431 168.738 471.393 165 471.393C161.262 471.393 157.525 472.431 153.787 474.508C150.049 476.169 146.519 477 143.197 477ZM153 301C153 294.373 158.373 289 165 289C171.627 289 177 294.373 177 301C177 305.843 174.131 310.016 170 311.912V358H160V311.912C155.869 310.016 153 305.843 153 301ZM150 373C150 375.761 152.239 378 155 378H175C177.761 378 180 375.761 180 373C180 370.239 177.761 368 175 368H155C152.239 368 150 370.239 150 373ZM155 395C152.239 395 150 392.761 150 390C150 387.239 152.239 385 155 385H175C177.761 385 180 387.239 180 390C180 392.761 177.761 395 175 395H155ZM165 458C167.761 458 170 455.761 170 453V405H160V453C160 455.761 162.239 458 165 458Z"/>
<path fill-rule="evenodd" clip-rule="evenodd" d="M143.197 235C138.628 235 134.683 233.754 131.361 231.262C128.454 228.354 127 224.823 127 220.67C127 215.685 130.115 211.324 136.344 207.586L140.705 203.224C143.197 201.147 144.443 198.655 144.443 195.748V166.464C144.443 164.387 141.743 160.649 136.344 155.249C131.361 149.434 128.869 144.242 128.869 139.673C128.869 135.104 131.361 130.119 136.344 124.72C141.743 118.904 144.443 114.958 144.443 112.882V82.9751C144.443 80.0675 143.197 77.5753 140.705 75.4984L136.344 71.1371C130.115 67.3988 127 63.0374 127 58.053C127 53.4839 128.661 49.9533 131.984 47.4611C135.306 44.9688 138.421 43.7228 141.328 43.7228C143.82 43.7228 146.934 42.269 150.672 39.3614C154.825 36.4538 159.601 35 165 35C170.399 35 174.967 36.4538 178.705 39.3614C182.858 42.269 186.18 43.7228 188.672 43.7228C191.579 43.7228 194.694 44.9688 198.016 47.4611C201.339 49.9533 203 53.4839 203 58.053C203 63.0374 199.885 67.3988 193.656 71.1371C192.825 71.9678 191.164 73.4216 188.672 75.4984C186.596 77.5753 185.557 80.0675 185.557 82.9751V112.882C185.557 114.958 188.049 118.904 193.033 124.72C198.432 130.119 201.131 135.104 201.131 139.673C201.131 144.242 198.432 149.434 193.033 155.249C188.049 160.649 185.557 164.387 185.557 166.464V195.748C185.557 198.655 186.596 201.147 188.672 203.224C191.164 205.301 192.825 206.755 193.656 207.586C199.885 211.324 203 215.685 203 220.67C203 224.823 201.339 228.354 198.016 231.262C195.109 233.754 191.372 235 186.803 235C183.481 235 179.951 234.169 176.213 232.508C172.475 230.431 168.738 229.393 165 229.393C161.262 229.393 157.525 230.431 153.787 232.508C150.049 234.169 146.519 235 143.197 235ZM153 59C153 52.3726 158.373 47 165 47C171.627 47 177 52.3726 177 59C177 63.843 174.131 68.0159 170 69.9119V116H160V69.9119C155.869 68.0159 153 63.843 153 59ZM150 131C150 133.761 152.239 136 155 136H175C177.761 136 180 133.761 180 131C180 128.239 177.761 126 175 126H155C152.239 126 150 128.239 150 131ZM155 153C152.239 153 150 150.761 150 148C150 145.239 152.239 143 155 143H175C177.761 143 180 145.239 180 148C180 150.761 177.761 153 175 153H155ZM165 216C167.761 216 170 213.761 170 211V163H160V211C160 213.761 162.239 216 165 216Z"/>
<path fill-rule="evenodd" clip-rule="evenodd" d="M325.197 477C320.628 477 316.683 475.754 313.361 473.262C310.454 470.354 309 466.823 309 462.67C309 457.685 312.115 453.324 318.344 449.586L322.705 445.224C325.197 443.147 326.443 440.655 326.443 437.748V408.464C326.443 406.387 323.743 402.649 318.344 397.249C313.361 391.434 310.869 386.242 310.869 381.673C310.869 377.104 313.361 372.119 318.344 366.72C323.743 360.904 326.443 356.958 326.443 354.882V324.975C326.443 322.068 325.197 319.575 322.705 317.498L318.344 313.137C312.115 309.399 309 305.037 309 300.053C309 295.484 310.661 291.953 313.984 289.461C317.306 286.969 320.421 285.723 323.328 285.723C325.82 285.723 328.934 284.269 332.672 281.361C336.825 278.454 341.601 277 347 277C352.399 277 356.967 278.454 360.705 281.361C364.858 284.269 368.18 285.723 370.672 285.723C373.579 285.723 376.694 286.969 380.016 289.461C383.339 291.953 385 295.484 385 300.053C385 305.037 381.885 309.399 375.656 313.137C374.825 313.968 373.164 315.422 370.672 317.498C368.596 319.575 367.557 322.068 367.557 324.975V354.882C367.557 356.958 370.049 360.904 375.033 366.72C380.432 372.119 383.131 377.104 383.131 381.673C383.131 386.242 380.432 391.434 375.033 397.249C370.049 402.649 367.557 406.387 367.557 408.464V437.748C367.557 440.655 368.596 443.147 370.672 445.224C373.164 447.301 374.825 448.755 375.656 449.586C381.885 453.324 385 457.685 385 462.67C385 466.823 383.339 470.354 380.016 473.262C377.109 475.754 373.372 477 368.803 477C365.481 477 361.951 476.169 358.213 474.508C354.475 472.431 350.738 471.393 347 471.393C343.262 471.393 339.525 472.431 335.787 474.508C332.049 476.169 328.519 477 325.197 477ZM335 301C335 294.373 340.373 289 347 289C353.627 289 359 294.373 359 301C359 305.843 356.131 310.016 352 311.912V358H342V311.912C337.869 310.016 335 305.843 335 301ZM332 373C332 375.761 334.239 378 337 378H357C359.761 378 362 375.761 362 373C362 370.239 359.761 368 357 368H337C334.239 368 332 370.239 332 373ZM337 395C334.239 395 332 392.761 332 390C332 387.239 334.239 385 337 385H357C359.761 385 362 387.239 362 390C362 392.761 359.761 395 357 395H337ZM347 458C349.761 458 352 455.761 352 453V405H342V453C342 455.761 344.239 458 347 458Z"/>
<path fill-rule="evenodd" clip-rule="evenodd" d="M325.197 235C320.628 235 316.683 233.754 313.361 231.262C310.454 228.354 309 224.823 309 220.67C309 215.685 312.115 211.324 318.344 207.586L322.705 203.224C325.197 201.147 326.443 198.655 326.443 195.748V166.464C326.443 164.387 323.743 160.649 318.344 155.249C313.361 149.434 310.869 144.242 310.869 139.673C310.869 135.104 313.361 130.119 318.344 124.72C323.743 118.904 326.443 114.958 326.443 112.882V82.9751C326.443 80.0675 325.197 77.5753 322.705 75.4984L318.344 71.1371C312.115 67.3988 309 63.0374 309 58.053C309 53.4839 310.661 49.9533 313.984 47.4611C317.306 44.9688 320.421 43.7228 323.328 43.7228C325.82 43.7228 328.934 42.269 332.672 39.3614C336.825 36.4538 341.601 35 347 35C352.399 35 356.967 36.4538 360.705 39.3614C364.858 42.269 368.18 43.7228 370.672 43.7228C373.579 43.7228 376.694 44.9688 380.016 47.4611C383.339 49.9533 385 53.4839 385 58.053C385 63.0374 381.885 67.3988 375.656 71.1371C374.825 71.9678 373.164 73.4216 370.672 75.4984C368.596 77.5753 367.557 80.0675 367.557 82.9751V112.882C367.557 114.958 370.049 118.904 375.033 124.72C380.432 130.119 383.131 135.104 383.131 139.673C383.131 144.242 380.432 149.434 375.033 155.249C370.049 160.649 367.557 164.387 367.557 166.464V195.748C367.557 198.655 368.596 201.147 370.672 203.224C373.164 205.301 374.825 206.755 375.656 207.586C381.885 211.324 385 215.685 385 220.67C385 224.823 383.339 228.354 380.016 231.262C377.109 233.754 373.372 235 368.803 235C365.481 235 361.951 234.169 358.213 232.508C354.475 230.431 350.738 229.393 347 229.393C343.262 229.393 339.525 230.431 335.787 232.508C332.049 234.169 328.519 235 325.197 235ZM335 59C335 52.3726 340.373 47 347 47C353.627 47 359 52.3726 359 59C359 63.843 356.131 68.0159 352 69.9119V116H342V69.9119C337.869 68.0159 335 63.843 335 59ZM332 131C332 133.761 334.239 136 337 136H357C359.761 136 362 133.761 362 131C362 128.239 359.761 126 357 126H337C334.239 126 332 128.239 332 131ZM337 153C334.239 153 332 150.761 332 148C332 145.239 334.239 143 337 143H357C359.761 143 362 145.239 362 148C362 150.761 359.761 153 357 153H337ZM347 216C349.761 216 352 213.761 352 211V163H342V211C342 213.761 344.239 216 347 216Z"/>
</mask>
<path fill-rule="evenodd" clip-rule="evenodd" d="M143.197 477C138.628 477 134.683 475.754 131.361 473.262C128.454 470.354 127 466.823 127 462.67C127 457.685 130.115 453.324 136.344 449.586L140.705 445.224C143.197 443.147 144.443 440.655 144.443 437.748V408.464C144.443 406.387 141.743 402.649 136.344 397.249C131.361 391.434 128.869 386.242 128.869 381.673C128.869 377.104 131.361 372.119 136.344 366.72C141.743 360.904 144.443 356.958 144.443 354.882V324.975C144.443 322.068 143.197 319.575 140.705 317.498L136.344 313.137C130.115 309.399 127 305.037 127 300.053C127 295.484 128.661 291.953 131.984 289.461C135.306 286.969 138.421 285.723 141.328 285.723C143.82 285.723 146.934 284.269 150.672 281.361C154.825 278.454 159.601 277 165 277C170.399 277 174.967 278.454 178.705 281.361C182.858 284.269 186.18 285.723 188.672 285.723C191.579 285.723 194.694 286.969 198.016 289.461C201.339 291.953 203 295.484 203 300.053C203 305.037 199.885 309.399 193.656 313.137C192.825 313.968 191.164 315.422 188.672 317.498C186.596 319.575 185.557 322.068 185.557 324.975V354.882C185.557 356.958 188.049 360.904 193.033 366.72C198.432 372.119 201.131 377.104 201.131 381.673C201.131 386.242 198.432 391.434 193.033 397.249C188.049 402.649 185.557 406.387 185.557 408.464V437.748C185.557 440.655 186.596 443.147 188.672 445.224C191.164 447.301 192.825 448.755 193.656 449.586C199.885 453.324 203 457.685 203 462.67C203 466.823 201.339 470.354 198.016 473.262C195.109 475.754 191.372 477 186.803 477C183.481 477 179.951 476.169 176.213 474.508C172.475 472.431 168.738 471.393 165 471.393C161.262 471.393 157.525 472.431 153.787 474.508C150.049 476.169 146.519 477 143.197 477ZM153 301C153 294.373 158.373 289 165 289C171.627 289 177 294.373 177 301C177 305.843 174.131 310.016 170 311.912V358H160V311.912C155.869 310.016 153 305.843 153 301ZM150 373C150 375.761 152.239 378 155 378H175C177.761 378 180 375.761 180 373C180 370.239 177.761 368 175 368H155C152.239 368 150 370.239 150 373ZM155 395C152.239 395 150 392.761 150 390C150 387.239 152.239 385 155 385H175C177.761 385 180 387.239 180 390C180 392.761 177.761 395 175 395H155ZM165 458C167.761 458 170 455.761 170 453V405H160V453C160 455.761 162.239 458 165 458Z" fill="#969696"/>
<path fill-rule="evenodd" clip-rule="evenodd" d="M143.197 235C138.628 235 134.683 233.754 131.361 231.262C128.454 228.354 127 224.823 127 220.67C127 215.685 130.115 211.324 136.344 207.586L140.705 203.224C143.197 201.147 144.443 198.655 144.443 195.748V166.464C144.443 164.387 141.743 160.649 136.344 155.249C131.361 149.434 128.869 144.242 128.869 139.673C128.869 135.104 131.361 130.119 136.344 124.72C141.743 118.904 144.443 114.958 144.443 112.882V82.9751C144.443 80.0675 143.197 77.5753 140.705 75.4984L136.344 71.1371C130.115 67.3988 127 63.0374 127 58.053C127 53.4839 128.661 49.9533 131.984 47.4611C135.306 44.9688 138.421 43.7228 141.328 43.7228C143.82 43.7228 146.934 42.269 150.672 39.3614C154.825 36.4538 159.601 35 165 35C170.399 35 174.967 36.4538 178.705 39.3614C182.858 42.269 186.18 43.7228 188.672 43.7228C191.579 43.7228 194.694 44.9688 198.016 47.4611C201.339 49.9533 203 53.4839 203 58.053C203 63.0374 199.885 67.3988 193.656 71.1371C192.825 71.9678 191.164 73.4216 188.672 75.4984C186.596 77.5753 185.557 80.0675 185.557 82.9751V112.882C185.557 114.958 188.049 118.904 193.033 124.72C198.432 130.119 201.131 135.104 201.131 139.673C201.131 144.242 198.432 149.434 193.033 155.249C188.049 160.649 185.557 164.387 185.557 166.464V195.748C185.557 198.655 186.596 201.147 188.672 203.224C191.164 205.301 192.825 206.755 193.656 207.586C199.885 211.324 203 215.685 203 220.67C203 224.823 201.339 228.354 198.016 231.262C195.109 233.754 191.372 235 186.803 235C183.481 235 179.951 234.169 176.213 232.508C172.475 230.431 168.738 229.393 165 229.393C161.262 229.393 157.525 230.431 153.787 232.508C150.049 234.169 146.519 235 143.197 235ZM153 59C153 52.3726 158.373 47 165 47C171.627 47 177 52.3726 177 59C177 63.843 174.131 68.0159 170 69.9119V116H160V69.9119C155.869 68.0159 153 63.843 153 59ZM150 131C150 133.761 152.239 136 155 136H175C177.761 136 180 133.761 180 131C180 128.239 177.761 126 175 126H155C152.239 126 150 128.239 150 131ZM155 153C152.239 153 150 150.761 150 148C150 145.239 152.239 143 155 143H175C177.761 143 180 145.239 180 148C180 150.761 177.761 153 175 153H155ZM165 216C167.761 216 170 213.761 170 211V163H160V211C160 213.761 162.239 216 165 216Z" fill="#969696"/>
<path fill-rule="evenodd" clip-rule="evenodd" d="M325.197 477C320.628 477 316.683 475.754 313.361 473.262C310.454 470.354 309 466.823 309 462.67C309 457.685 312.115 453.324 318.344 449.586L322.705 445.224C325.197 443.147 326.443 440.655 326.443 437.748V408.464C326.443 406.387 323.743 402.649 318.344 397.249C313.361 391.434 310.869 386.242 310.869 381.673C310.869 377.104 313.361 372.119 318.344 366.72C323.743 360.904 326.443 356.958 326.443 354.882V324.975C326.443 322.068 325.197 319.575 322.705 317.498L318.344 313.137C312.115 309.399 309 305.037 309 300.053C309 295.484 310.661 291.953 313.984 289.461C317.306 286.969 320.421 285.723 323.328 285.723C325.82 285.723 328.934 284.269 332.672 281.361C336.825 278.454 341.601 277 347 277C352.399 277 356.967 278.454 360.705 281.361C364.858 284.269 368.18 285.723 370.672 285.723C373.579 285.723 376.694 286.969 380.016 289.461C383.339 291.953 385 295.484 385 300.053C385 305.037 381.885 309.399 375.656 313.137C374.825 313.968 373.164 315.422 370.672 317.498C368.596 319.575 367.557 322.068 367.557 324.975V354.882C367.557 356.958 370.049 360.904 375.033 366.72C380.432 372.119 383.131 377.104 383.131 381.673C383.131 386.242 380.432 391.434 375.033 397.249C370.049 402.649 367.557 406.387 367.557 408.464V437.748C367.557 440.655 368.596 443.147 370.672 445.224C373.164 447.301 374.825 448.755 375.656 449.586C381.885 453.324 385 457.685 385 462.67C385 466.823 383.339 470.354 380.016 473.262C377.109 475.754 373.372 477 368.803 477C365.481 477 361.951 476.169 358.213 474.508C354.475 472.431 350.738 471.393 347 471.393C343.262 471.393 339.525 472.431 335.787 474.508C332.049 476.169 328.519 477 325.197 477ZM335 301C335 294.373 340.373 289 347 289C353.627 289 359 294.373 359 301C359 305.843 356.131 310.016 352 311.912V358H342V311.912C337.869 310.016 335 305.843 335 301ZM332 373C332 375.761 334.239 378 337 378H357C359.761 378 362 375.761 362 373C362 370.239 359.761 368 357 368H337C334.239 368 332 370.239 332 373ZM337 395C334.239 395 332 392.761 332 390C332 387.239 334.239 385 337 385H357C359.761 385 362 387.239 362 390C362 392.761 359.761 395 357 395H337ZM347 458C349.761 458 352 455.761 352 453V405H342V453C342 455.761 344.239 458 347 458Z" fill="#969696"/>
<path fill-rule="evenodd" clip-rule="evenodd" d="M325.197 235C320.628 235 316.683 233.754 313.361 231.262C310.454 228.354 309 224.823 309 220.67C309 215.685 312.115 211.324 318.344 207.586L322.705 203.224C325.197 201.147 326.443 198.655 326.443 195.748V166.464C326.443 164.387 323.743 160.649 318.344 155.249C313.361 149.434 310.869 144.242 310.869 139.673C310.869 135.104 313.361 130.119 318.344 124.72C323.743 118.904 326.443 114.958 326.443 112.882V82.9751C326.443 80.0675 325.197 77.5753 322.705 75.4984L318.344 71.1371C312.115 67.3988 309 63.0374 309 58.053C309 53.4839 310.661 49.9533 313.984 47.4611C317.306 44.9688 320.421 43.7228 323.328 43.7228C325.82 43.7228 328.934 42.269 332.672 39.3614C336.825 36.4538 341.601 35 347 35C352.399 35 356.967 36.4538 360.705 39.3614C364.858 42.269 368.18 43.7228 370.672 43.7228C373.579 43.7228 376.694 44.9688 380.016 47.4611C383.339 49.9533 385 53.4839 385 58.053C385 63.0374 381.885 67.3988 375.656 71.1371C374.825 71.9678 373.164 73.4216 370.672 75.4984C368.596 77.5753 367.557 80.0675 367.557 82.9751V112.882C367.557 114.958 370.049 118.904 375.033 124.72C380.432 130.119 383.131 135.104 383.131 139.673C383.131 144.242 380.432 149.434 375.033 155.249C370.049 160.649 367.557 164.387 367.557 166.464V195.748C367.557 198.655 368.596 201.147 370.672 203.224C373.164 205.301 374.825 206.755 375.656 207.586C381.885 211.324 385 215.685 385 220.67C385 224.823 383.339 228.354 380.016 231.262C377.109 233.754 373.372 235 368.803 235C365.481 235 361.951 234.169 358.213 232.508C354.475 230.431 350.738 229.393 347 229.393C343.262 229.393 339.525 230.431 335.787 232.508C332.049 234.169 328.519 235 325.197 235ZM335 59C335 52.3726 340.373 47 347 47C353.627 47 359 52.3726 359 59C359 63.843 356.131 68.0159 352 69.9119V116H342V69.9119C337.869 68.0159 335 63.843 335 59ZM332 131C332 133.761 334.239 136 337 136H357C359.761 136 362 133.761 362 131C362 128.239 359.761 126 357 126H337C334.239 126 332 128.239 332 131ZM337 153C334.239 153 332 150.761 332 148C332 145.239 334.239 143 337 143H357C359.761 143 362 145.239 362 148C362 150.761 359.761 153 357 153H337ZM347 216C349.761 216 352 213.761 352 211V163H342V211C342 213.761 344.239 216 347 216Z" fill="#969696"/>
<path d="M137.051 450.293C137.881 449.463 139.336 448.008 141.412 445.931L139.998 444.517C137.921 446.595 136.468 448.047 135.637 448.879L137.051 450.293ZM141.412 316.791C139.337 314.716 137.881 313.26 137.051 312.43L135.637 313.844C136.469 314.676 137.92 316.127 139.998 318.205L141.412 316.791ZM137.051 208.293C137.879 207.465 139.339 206.005 141.412 203.931L139.998 202.517C137.918 204.597 136.471 206.045 135.637 206.879L137.051 208.293ZM141.412 74.7914C139.336 72.7152 137.881 71.26 137.051 70.43L135.637 71.8441C136.468 72.6756 137.921 74.1279 139.998 76.2055L141.412 74.7914ZM319.051 450.293C319.881 449.463 321.337 448.007 323.412 445.931L321.998 444.517C319.92 446.595 318.469 448.047 317.637 448.879L319.051 450.293ZM323.412 316.791C321.336 314.715 319.881 313.26 319.051 312.43L317.637 313.844C318.468 314.675 319.921 316.128 321.998 318.205L323.412 316.791ZM319.051 208.293C319.878 207.466 321.34 206.004 323.412 203.931L321.998 202.517C319.917 204.598 318.472 206.044 317.637 206.879L319.051 208.293ZM323.412 74.7914C321.336 72.7148 319.882 71.2605 319.051 70.43L317.637 71.8441C318.468 72.6752 319.921 74.1283 321.998 76.2055L323.412 74.7914ZM131.361 473.262L129.946 474.676L130.047 474.776L130.161 474.862L131.361 473.262ZM136.344 449.586L137.373 451.301L137.585 451.174L137.759 451L136.344 449.586ZM140.705 445.224L139.424 443.688L139.355 443.746L139.291 443.81L140.705 445.224ZM136.344 397.249L134.826 398.551L134.876 398.609L134.93 398.663L136.344 397.249ZM136.344 366.72L134.879 365.359L134.875 365.363L136.344 366.72ZM140.705 317.498L139.291 318.913L139.355 318.977L139.424 319.035L140.705 317.498ZM136.344 313.137L137.759 311.723L137.585 311.549L137.373 311.422L136.344 313.137ZM150.672 281.361L149.525 279.723L149.484 279.752L149.444 279.783L150.672 281.361ZM178.705 281.361L177.477 282.94L177.517 282.971L177.558 283L178.705 281.361ZM193.656 313.137L192.627 311.422L192.416 311.549L192.241 311.723L193.656 313.137ZM188.672 317.498L187.392 315.962L187.322 316.02L187.258 316.084L188.672 317.498ZM193.033 366.72L191.514 368.021L191.564 368.079L191.618 368.134L193.033 366.72ZM193.033 397.249L191.567 395.888L191.563 395.893L193.033 397.249ZM188.672 445.224L187.258 446.638L187.322 446.703L187.392 446.761L188.672 445.224ZM193.656 449.586L192.241 451L192.416 451.174L192.627 451.301L193.656 449.586ZM198.016 473.262L199.318 474.78L199.326 474.773L199.334 474.767L198.016 473.262ZM176.213 474.508L175.242 476.256L175.319 476.299L175.401 476.335L176.213 474.508ZM153.787 474.508L154.599 476.335L154.681 476.299L154.758 476.256L153.787 474.508ZM170 358V360H172V358H170ZM160 358H158V360H160V358ZM160 405V403H158V405H160ZM170 405H172V403H170V405ZM160 311.912H162V310.629L160.834 310.094L160 311.912ZM170 311.912L169.166 310.094L168 310.629V311.912H170ZM131.361 231.262L129.946 232.676L130.047 232.776L130.161 232.862L131.361 231.262ZM136.344 207.586L137.373 209.301L137.585 209.174L137.759 209L136.344 207.586ZM140.705 203.224L139.424 201.688L139.355 201.746L139.291 201.81L140.705 203.224ZM136.344 155.249L134.826 156.551L134.876 156.609L134.93 156.663L136.344 155.249ZM136.344 124.72L134.879 123.359L134.875 123.363L136.344 124.72ZM140.705 75.4984L139.291 76.9125L139.355 76.9767L139.424 77.0348L140.705 75.4984ZM136.344 71.1371L137.759 69.723L137.585 69.5489L137.373 69.4222L136.344 71.1371ZM150.672 39.3614L149.525 37.723L149.484 37.7519L149.444 37.7828L150.672 39.3614ZM178.705 39.3614L177.477 40.94L177.517 40.9709L177.558 40.9998L178.705 39.3614ZM193.656 71.1371L192.627 69.4222L192.416 69.5489L192.241 69.723L193.656 71.1371ZM188.672 75.4984L187.392 73.9621L187.322 74.0202L187.258 74.0843L188.672 75.4984ZM193.033 124.72L191.514 126.021L191.564 126.079L191.618 126.134L193.033 124.72ZM193.033 155.249L191.567 153.888L191.563 153.893L193.033 155.249ZM188.672 203.224L187.258 204.638L187.322 204.703L187.392 204.761L188.672 203.224ZM193.656 207.586L192.241 209L192.416 209.174L192.627 209.301L193.656 207.586ZM198.016 231.262L199.318 232.78L199.326 232.773L199.334 232.767L198.016 231.262ZM176.213 232.508L175.242 234.256L175.319 234.299L175.401 234.335L176.213 232.508ZM153.787 232.508L154.599 234.335L154.681 234.299L154.758 234.256L153.787 232.508ZM170 116V118H172V116H170ZM160 116H158V118H160V116ZM160 163V161H158V163H160ZM170 163H172V161H170V163ZM160 69.9119H162V68.6293L160.834 68.0942L160 69.9119ZM170 69.9119L169.166 68.0942L168 68.6293V69.9119H170ZM313.361 473.262L311.946 474.676L312.047 474.776L312.161 474.862L313.361 473.262ZM318.344 449.586L319.373 451.301L319.585 451.174L319.759 451L318.344 449.586ZM322.705 445.224L321.424 443.688L321.355 443.746L321.291 443.81L322.705 445.224ZM318.344 397.249L316.826 398.551L316.876 398.609L316.93 398.663L318.344 397.249ZM318.344 366.72L316.879 365.359L316.875 365.363L318.344 366.72ZM322.705 317.498L321.291 318.913L321.355 318.977L321.424 319.035L322.705 317.498ZM318.344 313.137L319.759 311.723L319.585 311.549L319.373 311.422L318.344 313.137ZM332.672 281.361L331.525 279.723L331.484 279.752L331.444 279.783L332.672 281.361ZM360.705 281.361L359.477 282.94L359.517 282.971L359.558 283L360.705 281.361ZM375.656 313.137L374.627 311.422L374.416 311.549L374.241 311.723L375.656 313.137ZM370.672 317.498L369.392 315.962L369.322 316.02L369.258 316.084L370.672 317.498ZM375.033 366.72L373.514 368.021L373.564 368.079L373.618 368.134L375.033 366.72ZM375.033 397.249L373.567 395.888L373.563 395.893L375.033 397.249ZM370.672 445.224L369.258 446.638L369.322 446.703L369.392 446.761L370.672 445.224ZM375.656 449.586L374.241 451L374.416 451.174L374.627 451.301L375.656 449.586ZM380.016 473.262L381.318 474.78L381.326 474.773L381.334 474.767L380.016 473.262ZM358.213 474.508L357.242 476.256L357.319 476.299L357.401 476.335L358.213 474.508ZM335.787 474.508L336.599 476.335L336.681 476.299L336.758 476.256L335.787 474.508ZM352 358V360H354V358H352ZM342 358H340V360H342V358ZM342 405V403H340V405H342ZM352 405H354V403H352V405ZM342 311.912H344V310.629L342.834 310.094L342 311.912ZM352 311.912L351.166 310.094L350 310.629V311.912H352ZM313.361 231.262L311.946 232.676L312.047 232.776L312.161 232.862L313.361 231.262ZM318.344 207.586L319.373 209.301L319.585 209.174L319.759 209L318.344 207.586ZM322.705 203.224L321.424 201.688L321.355 201.746L321.291 201.81L322.705 203.224ZM318.344 155.249L316.826 156.551L316.876 156.609L316.93 156.663L318.344 155.249ZM318.344 124.72L316.879 123.359L316.875 123.363L318.344 124.72ZM322.705 75.4984L321.291 76.9125L321.355 76.9767L321.424 77.0348L322.705 75.4984ZM318.344 71.1371L319.759 69.723L319.585 69.5489L319.373 69.4222L318.344 71.1371ZM332.672 39.3614L331.525 37.723L331.484 37.7519L331.444 37.7828L332.672 39.3614ZM360.705 39.3614L359.477 40.94L359.517 40.9709L359.558 40.9998L360.705 39.3614ZM375.656 71.1371L374.627 69.4222L374.416 69.5489L374.241 69.723L375.656 71.1371ZM370.672 75.4984L369.392 73.9621L369.322 74.0202L369.258 74.0843L370.672 75.4984ZM375.033 124.72L373.514 126.021L373.564 126.079L373.618 126.134L375.033 124.72ZM375.033 155.249L373.567 153.888L373.563 153.893L375.033 155.249ZM370.672 203.224L369.258 204.638L369.322 204.703L369.392 204.761L370.672 203.224ZM375.656 207.586L374.241 209L374.416 209.174L374.627 209.301L375.656 207.586ZM380.016 231.262L381.318 232.78L381.326 232.773L381.334 232.767L380.016 231.262ZM358.213 232.508L357.242 234.256L357.319 234.299L357.401 234.335L358.213 232.508ZM335.787 232.508L336.599 234.335L336.681 234.299L336.758 234.256L335.787 232.508ZM352 116V118H354V116H352ZM342 116H340V118H342V116ZM342 163V161H340V163H342ZM352 163H354V161H352V163ZM342 69.9119H344V68.6293L342.834 68.0942L342 69.9119ZM352 69.9119L351.166 68.0942L350 68.6293V69.9119H352ZM143.197 475C139.016 475 135.502 473.868 132.561 471.662L130.161 474.862C133.864 477.64 138.241 479 143.197 479V475ZM132.775 471.848C130.247 469.319 129 466.299 129 462.67H125C125 467.348 126.66 471.389 129.946 474.676L132.775 471.848ZM129 462.67C129 458.679 131.445 454.858 137.373 451.301L135.315 447.871C128.784 451.79 125 456.691 125 462.67H129ZM141.985 446.761C144.874 444.353 146.443 441.322 146.443 437.748H142.443C142.443 439.988 141.52 441.942 139.424 443.688L141.985 446.761ZM146.443 437.748V408.464H142.443V437.748H146.443ZM146.443 408.464C146.443 407.539 146.15 406.614 145.751 405.753C145.342 404.873 144.759 403.929 144.039 402.932C142.6 400.939 140.491 398.568 137.759 395.835L134.93 398.663C137.596 401.33 139.536 403.529 140.797 405.274C141.426 406.146 141.856 406.864 142.122 407.437C142.397 408.029 142.443 408.351 142.443 408.464H146.443ZM137.863 395.948C132.996 390.269 130.869 385.533 130.869 381.673H126.869C126.869 386.951 129.725 392.599 134.826 398.551L137.863 395.948ZM130.869 381.673C130.869 377.836 132.975 373.32 137.814 368.076L134.875 365.363C129.747 370.919 126.869 376.371 126.869 381.673H130.869ZM137.81 368.08C140.539 365.141 142.639 362.618 144.069 360.528C144.784 359.483 145.359 358.506 145.762 357.608C146.154 356.732 146.443 355.8 146.443 354.882H142.443C142.443 355.001 142.394 355.341 142.111 355.972C141.839 356.579 141.402 357.342 140.767 358.27C139.498 360.125 137.548 362.483 134.879 365.359L137.81 368.08ZM146.443 354.882V324.975H142.443V354.882H146.443ZM146.443 324.975C146.443 321.401 144.874 318.369 141.985 315.962L139.424 319.035C141.52 320.781 142.443 322.734 142.443 324.975H146.443ZM137.373 311.422C131.445 307.865 129 304.043 129 300.053H125C125 306.031 128.784 310.933 135.315 314.852L137.373 311.422ZM129 300.053C129 296.041 130.42 293.134 133.184 291.061L130.783 287.861C126.902 290.773 125 294.927 125 300.053H129ZM133.184 291.061C136.304 288.721 139.004 287.723 141.328 287.723V283.723C137.837 283.723 134.308 285.217 130.783 287.861L133.184 291.061ZM141.328 287.723C144.517 287.723 148.084 285.909 151.9 282.94L149.444 279.783C145.785 282.629 143.122 283.723 141.328 283.723V287.723ZM151.819 283C155.614 280.343 159.983 279 165 279V275C159.219 275 154.037 276.564 149.525 279.723L151.819 283ZM165 279C170.019 279 174.139 280.343 177.477 282.94L179.933 279.783C175.796 276.564 170.778 275 165 275V279ZM177.558 283C181.761 285.942 185.522 287.723 188.672 287.723V283.723C186.839 283.723 183.955 282.596 179.852 279.723L177.558 283ZM188.672 287.723C190.996 287.723 193.696 288.721 196.816 291.061L199.217 287.861C195.692 285.217 192.163 283.723 188.672 283.723V287.723ZM196.816 291.061C199.58 293.134 201 296.041 201 300.053H205C205 294.927 203.098 290.773 199.217 287.861L196.816 291.061ZM201 300.053C201 304.043 198.555 307.865 192.627 311.422L194.685 314.852C201.216 310.933 205 306.031 205 300.053H201ZM192.241 311.723C191.484 312.48 189.891 313.879 187.392 315.962L189.953 319.035C192.437 316.964 194.166 315.455 195.07 314.551L192.241 311.723ZM187.258 316.084C184.811 318.532 183.557 321.531 183.557 324.975H187.557C187.557 322.604 188.381 320.619 190.086 318.913L187.258 316.084ZM183.557 324.975V354.882H187.557V324.975H183.557ZM183.557 354.882C183.557 355.77 183.816 356.682 184.177 357.554C184.546 358.447 185.075 359.421 185.735 360.467C187.055 362.557 188.994 365.08 191.514 368.021L194.551 365.418C192.088 362.544 190.289 360.187 189.117 358.331C188.532 357.403 188.126 356.638 187.873 356.025C187.611 355.392 187.557 355.032 187.557 354.882H183.557ZM191.618 368.134C196.88 373.396 199.131 377.896 199.131 381.673H203.131C203.131 376.312 199.983 370.843 194.447 365.306L191.618 368.134ZM199.131 381.673C199.131 385.476 196.855 390.193 191.567 395.888L194.498 398.61C200.008 392.675 203.131 387.007 203.131 381.673H199.131ZM191.563 395.893C189.039 398.628 187.091 401 185.762 402.994C184.5 404.888 183.557 406.779 183.557 408.464H187.557C187.557 408.072 187.861 407.056 189.09 405.212C190.253 403.467 192.043 401.27 194.503 398.606L191.563 395.893ZM183.557 408.464V437.748H187.557V408.464H183.557ZM183.557 437.748C183.557 441.192 184.811 444.191 187.258 446.638L190.086 443.81C188.381 442.104 187.557 440.119 187.557 437.748H183.557ZM187.392 446.761C189.891 448.844 191.484 450.243 192.241 451L195.07 448.172C194.166 447.267 192.437 445.759 189.953 443.688L187.392 446.761ZM192.627 451.301C198.555 454.858 201 458.679 201 462.67H205C205 456.691 201.216 451.79 194.685 447.871L192.627 451.301ZM201 462.67C201 466.207 199.619 469.202 196.699 471.757L199.334 474.767C203.059 471.506 205 467.44 205 462.67H201ZM196.715 471.743C194.237 473.867 190.991 475 186.803 475V479C191.752 479 195.981 477.641 199.318 474.78L196.715 471.743ZM186.803 475C183.818 475 180.565 474.254 177.026 472.68L175.401 476.335C179.337 478.085 183.144 479 186.803 479V475ZM177.185 472.76C173.193 470.542 169.124 469.393 165 469.393V473.393C168.351 473.393 171.758 474.32 175.242 476.256L177.185 472.76ZM165 469.393C160.876 469.393 156.807 470.542 152.815 472.76L154.758 476.256C158.242 474.32 161.649 473.393 165 473.393V469.393ZM152.974 472.68C149.435 474.254 146.182 475 143.197 475V479C146.856 479 150.663 478.085 154.599 476.335L152.974 472.68ZM134.93 314.551L139.291 318.913L142.119 316.084L137.759 311.723L134.93 314.551ZM139.291 443.81L134.93 448.172L137.759 451L142.119 446.638L139.291 443.81ZM155 301C155 295.477 159.477 291 165 291V287C157.268 287 151 293.268 151 301H155ZM165 291C170.523 291 175 295.477 175 301H179C179 293.268 172.732 287 165 287V291ZM155 376C153.343 376 152 374.657 152 373H148C148 376.866 151.134 380 155 380V376ZM152 373C152 371.343 153.343 370 155 370V366C151.134 366 148 369.134 148 373H152ZM178 373C178 374.657 176.657 376 175 376V380C178.866 380 182 376.866 182 373H178ZM175 370C176.657 370 178 371.343 178 373H182C182 369.134 178.866 366 175 366V370ZM155 393C153.343 393 152 391.657 152 390H148C148 393.866 151.134 397 155 397V393ZM152 390C152 388.343 153.343 387 155 387V383C151.134 383 148 386.134 148 390H152ZM168 453C168 454.657 166.657 456 165 456V460C168.866 460 172 456.866 172 453H168ZM165 456C163.343 456 162 454.657 162 453H158C158 456.866 161.134 460 165 460V456ZM178 390C178 391.657 176.657 393 175 393V397C178.866 397 182 393.866 182 390H178ZM175 387C176.657 387 178 388.343 178 390H182C182 386.134 178.866 383 175 383V387ZM170 356H160V360H170V356ZM160 407H170V403H160V407ZM168 405V453H172V405H168ZM162 453V405H158V453H162ZM155 370H175V366H155V370ZM175 376H155V380H175V376ZM155 387H175V383H155V387ZM175 393H155V397H175V393ZM162 358V311.912H158V358H162ZM160.834 310.094C157.387 308.512 155 305.033 155 301H151C151 306.653 154.351 311.52 159.166 313.73L160.834 310.094ZM168 311.912V358H172V311.912H168ZM175 301C175 305.033 172.613 308.512 169.166 310.094L170.834 313.73C175.649 311.52 179 306.653 179 301H175ZM143.197 233C139.016 233 135.502 231.868 132.561 229.662L130.161 232.862C133.864 235.64 138.241 237 143.197 237V233ZM132.775 229.848C130.247 227.319 129 224.299 129 220.67H125C125 225.348 126.66 229.389 129.946 232.676L132.775 229.848ZM129 220.67C129 216.679 131.445 212.858 137.373 209.301L135.315 205.871C128.784 209.79 125 214.691 125 220.67H129ZM141.985 204.761C144.874 202.353 146.443 199.322 146.443 195.748H142.443C142.443 197.988 141.52 199.942 139.424 201.688L141.985 204.761ZM146.443 195.748V166.464H142.443V195.748H146.443ZM146.443 166.464C146.443 165.539 146.15 164.614 145.751 163.753C145.342 162.873 144.759 161.929 144.039 160.932C142.6 158.939 140.491 156.568 137.759 153.835L134.93 156.663C137.596 159.33 139.536 161.529 140.797 163.274C141.426 164.146 141.856 164.864 142.122 165.437C142.397 166.029 142.443 166.351 142.443 166.464H146.443ZM137.863 153.948C132.996 148.269 130.869 143.533 130.869 139.673H126.869C126.869 144.951 129.725 150.599 134.826 156.551L137.863 153.948ZM130.869 139.673C130.869 135.836 132.975 131.32 137.814 126.076L134.875 123.363C129.747 128.919 126.869 134.371 126.869 139.673H130.869ZM137.81 126.08C140.539 123.141 142.639 120.618 144.069 118.528C144.784 117.483 145.359 116.506 145.762 115.608C146.154 114.732 146.443 113.8 146.443 112.882H142.443C142.443 113.001 142.394 113.341 142.111 113.972C141.839 114.579 141.402 115.342 140.767 116.27C139.498 118.125 137.548 120.483 134.879 123.359L137.81 126.08ZM146.443 112.882V82.9751H142.443V112.882H146.443ZM146.443 82.9751C146.443 79.4007 144.874 76.3694 141.985 73.9621L139.424 77.0348C141.52 78.7812 142.443 80.7343 142.443 82.9751H146.443ZM137.373 69.4222C131.445 65.8647 129 62.0435 129 58.053H125C125 64.0313 128.784 68.9328 135.315 72.852L137.373 69.4222ZM129 58.053C129 54.0406 130.42 51.1339 133.184 49.061L130.783 45.8612C126.902 48.7727 125 52.9272 125 58.053H129ZM133.184 49.061C136.304 46.7206 139.004 45.7228 141.328 45.7228V41.7228C137.837 41.7228 134.308 43.2171 130.783 45.8612L133.184 49.061ZM141.328 45.7228C144.517 45.7228 148.084 43.9089 151.9 40.94L149.444 37.7828C145.785 40.629 143.122 41.7228 141.328 41.7228V45.7228ZM151.819 40.9998C155.614 38.3432 159.983 37 165 37V33C159.219 33 154.037 34.5644 149.525 37.723L151.819 40.9998ZM165 37C170.019 37 174.139 38.3431 177.477 40.94L179.933 37.7828C175.796 34.5645 170.778 33 165 33V37ZM177.558 40.9998C181.761 43.9422 185.522 45.7228 188.672 45.7228V41.7228C186.839 41.7228 183.955 40.5957 179.852 37.723L177.558 40.9998ZM188.672 45.7228C190.996 45.7228 193.696 46.7206 196.816 49.061L199.217 45.8612C195.692 43.2171 192.163 41.7228 188.672 41.7228V45.7228ZM196.816 49.061C199.58 51.1339 201 54.0406 201 58.053H205C205 52.9272 203.098 48.7727 199.217 45.8612L196.816 49.061ZM201 58.053C201 62.0435 198.555 65.8647 192.627 69.4222L194.685 72.852C201.216 68.9328 205 64.0313 205 58.053H201ZM192.241 69.723C191.484 70.4803 189.891 71.8792 187.392 73.9621L189.953 77.0348C192.437 74.964 194.166 73.4554 195.07 72.5512L192.241 69.723ZM187.258 74.0843C184.811 76.532 183.557 79.5312 183.557 82.9751H187.557C187.557 80.6038 188.381 78.6186 190.086 76.9125L187.258 74.0843ZM183.557 82.9751V112.882H187.557V82.9751H183.557ZM183.557 112.882C183.557 113.77 183.816 114.682 184.177 115.554C184.546 116.447 185.075 117.421 185.735 118.467C187.055 120.557 188.994 123.08 191.514 126.021L194.551 123.418C192.088 120.544 190.289 118.187 189.117 116.331C188.532 115.403 188.126 114.638 187.873 114.025C187.611 113.392 187.557 113.032 187.557 112.882H183.557ZM191.618 126.134C196.88 131.396 199.131 135.896 199.131 139.673H203.131C203.131 134.312 199.983 128.843 194.447 123.306L191.618 126.134ZM199.131 139.673C199.131 143.476 196.855 148.193 191.567 153.888L194.498 156.61C200.008 150.675 203.131 145.007 203.131 139.673H199.131ZM191.563 153.893C189.039 156.628 187.091 159 185.762 160.994C184.5 162.888 183.557 164.779 183.557 166.464H187.557C187.557 166.072 187.861 165.056 189.09 163.212C190.253 161.468 192.043 159.27 194.503 156.606L191.563 153.893ZM183.557 166.464V195.748H187.557V166.464H183.557ZM183.557 195.748C183.557 199.192 184.811 202.191 187.258 204.638L190.086 201.81C188.381 200.104 187.557 198.119 187.557 195.748H183.557ZM187.392 204.761C189.891 206.844 191.484 208.243 192.241 209L195.07 206.172C194.166 205.267 192.437 203.759 189.953 201.688L187.392 204.761ZM192.627 209.301C198.555 212.858 201 216.679 201 220.67H205C205 214.691 201.216 209.79 194.685 205.871L192.627 209.301ZM201 220.67C201 224.207 199.619 227.202 196.699 229.757L199.334 232.767C203.059 229.506 205 225.44 205 220.67H201ZM196.715 229.743C194.237 231.867 190.991 233 186.803 233V237C191.752 237 195.981 235.641 199.318 232.78L196.715 229.743ZM186.803 233C183.818 233 180.565 232.254 177.026 230.68L175.401 234.335C179.337 236.085 183.144 237 186.803 237V233ZM177.185 230.76C173.193 228.542 169.124 227.393 165 227.393V231.393C168.351 231.393 171.758 232.32 175.242 234.256L177.185 230.76ZM165 227.393C160.876 227.393 156.807 228.542 152.815 230.76L154.758 234.256C158.242 232.32 161.649 231.393 165 231.393V227.393ZM152.974 230.68C149.435 232.254 146.182 233 143.197 233V237C146.856 237 150.663 236.085 154.599 234.335L152.974 230.68ZM134.93 72.5512L139.291 76.9125L142.119 74.0843L137.759 69.723L134.93 72.5512ZM139.291 201.81L134.93 206.172L137.759 209L142.119 204.638L139.291 201.81ZM155 59C155 53.4772 159.477 49 165 49V45C157.268 45 151 51.268 151 59H155ZM165 49C170.523 49 175 53.4772 175 59H179C179 51.268 172.732 45 165 45V49ZM155 134C153.343 134 152 132.657 152 131H148C148 134.866 151.134 138 155 138V134ZM152 131C152 129.343 153.343 128 155 128V124C151.134 124 148 127.134 148 131H152ZM178 131C178 132.657 176.657 134 175 134V138C178.866 138 182 134.866 182 131H178ZM175 128C176.657 128 178 129.343 178 131H182C182 127.134 178.866 124 175 124V128ZM155 151C153.343 151 152 149.657 152 148H148C148 151.866 151.134 155 155 155V151ZM152 148C152 146.343 153.343 145 155 145V141C151.134 141 148 144.134 148 148H152ZM168 211C168 212.657 166.657 214 165 214V218C168.866 218 172 214.866 172 211H168ZM165 214C163.343 214 162 212.657 162 211H158C158 214.866 161.134 218 165 218V214ZM178 148C178 149.657 176.657 151 175 151V155C178.866 155 182 151.866 182 148H178ZM175 145C176.657 145 178 146.343 178 148H182C182 144.134 178.866 141 175 141V145ZM170 114H160V118H170V114ZM160 165H170V161H160V165ZM168 163V211H172V163H168ZM162 211V163H158V211H162ZM155 128H175V124H155V128ZM175 134H155V138H175V134ZM155 145H175V141H155V145ZM175 151H155V155H175V151ZM162 116V69.9119H158V116H162ZM160.834 68.0942C157.387 66.5122 155 63.0328 155 59H151C151 64.6532 154.351 69.5196 159.166 71.7296L160.834 68.0942ZM168 69.9119V116H172V69.9119H168ZM175 59C175 63.0328 172.613 66.5122 169.166 68.0942L170.834 71.7296C175.649 69.5196 179 64.6532 179 59H175ZM325.197 475C321.016 475 317.502 473.868 314.561 471.662L312.161 474.862C315.864 477.64 320.241 479 325.197 479V475ZM314.775 471.848C312.247 469.319 311 466.299 311 462.67H307C307 467.348 308.66 471.389 311.946 474.676L314.775 471.848ZM311 462.67C311 458.679 313.445 454.858 319.373 451.301L317.315 447.871C310.784 451.79 307 456.691 307 462.67H311ZM323.985 446.761C326.874 444.353 328.443 441.322 328.443 437.748H324.443C324.443 439.988 323.52 441.942 321.424 443.688L323.985 446.761ZM328.443 437.748V408.464H324.443V437.748H328.443ZM328.443 408.464C328.443 407.539 328.15 406.614 327.751 405.753C327.342 404.873 326.759 403.929 326.039 402.932C324.6 400.939 322.491 398.568 319.759 395.835L316.93 398.663C319.596 401.33 321.536 403.529 322.797 405.274C323.426 406.146 323.856 406.864 324.122 407.437C324.397 408.029 324.443 408.351 324.443 408.464H328.443ZM319.863 395.948C314.996 390.269 312.869 385.533 312.869 381.673H308.869C308.869 386.951 311.725 392.599 316.826 398.551L319.863 395.948ZM312.869 381.673C312.869 377.836 314.975 373.32 319.814 368.076L316.875 365.363C311.747 370.919 308.869 376.371 308.869 381.673H312.869ZM319.81 368.08C322.539 365.141 324.639 362.618 326.069 360.528C326.784 359.483 327.359 358.506 327.762 357.608C328.154 356.732 328.443 355.8 328.443 354.882H324.443C324.443 355.001 324.394 355.341 324.111 355.972C323.839 356.579 323.402 357.342 322.767 358.27C321.498 360.125 319.548 362.483 316.879 365.359L319.81 368.08ZM328.443 354.882V324.975H324.443V354.882H328.443ZM328.443 324.975C328.443 321.401 326.874 318.369 323.985 315.962L321.424 319.035C323.52 320.781 324.443 322.734 324.443 324.975H328.443ZM319.373 311.422C313.445 307.865 311 304.043 311 300.053H307C307 306.031 310.784 310.933 317.315 314.852L319.373 311.422ZM311 300.053C311 296.041 312.42 293.134 315.184 291.061L312.783 287.861C308.902 290.773 307 294.927 307 300.053H311ZM315.184 291.061C318.304 288.721 321.004 287.723 323.328 287.723V283.723C319.837 283.723 316.308 285.217 312.783 287.861L315.184 291.061ZM323.328 287.723C326.517 287.723 330.084 285.909 333.9 282.94L331.444 279.783C327.785 282.629 325.122 283.723 323.328 283.723V287.723ZM333.819 283C337.614 280.343 341.983 279 347 279V275C341.219 275 336.037 276.564 331.525 279.723L333.819 283ZM347 279C352.019 279 356.139 280.343 359.477 282.94L361.933 279.783C357.796 276.564 352.778 275 347 275V279ZM359.558 283C363.761 285.942 367.522 287.723 370.672 287.723V283.723C368.839 283.723 365.955 282.596 361.852 279.723L359.558 283ZM370.672 287.723C372.996 287.723 375.696 288.721 378.816 291.061L381.217 287.861C377.692 285.217 374.163 283.723 370.672 283.723V287.723ZM378.816 291.061C381.58 293.134 383 296.041 383 300.053H387C387 294.927 385.098 290.773 381.217 287.861L378.816 291.061ZM383 300.053C383 304.043 380.555 307.865 374.627 311.422L376.685 314.852C383.216 310.933 387 306.031 387 300.053H383ZM374.241 311.723C373.484 312.48 371.891 313.879 369.392 315.962L371.953 319.035C374.437 316.964 376.166 315.455 377.07 314.551L374.241 311.723ZM369.258 316.084C366.811 318.532 365.557 321.531 365.557 324.975H369.557C369.557 322.604 370.381 320.619 372.086 318.913L369.258 316.084ZM365.557 324.975V354.882H369.557V324.975H365.557ZM365.557 354.882C365.557 355.77 365.816 356.682 366.177 357.554C366.546 358.447 367.075 359.421 367.735 360.467C369.055 362.557 370.994 365.08 373.514 368.021L376.551 365.418C374.088 362.544 372.289 360.187 371.117 358.331C370.532 357.403 370.126 356.638 369.873 356.025C369.611 355.392 369.557 355.032 369.557 354.882H365.557ZM373.618 368.134C378.88 373.396 381.131 377.896 381.131 381.673H385.131C385.131 376.312 381.983 370.843 376.447 365.306L373.618 368.134ZM381.131 381.673C381.131 385.476 378.855 390.193 373.567 395.888L376.499 398.61C382.008 392.675 385.131 387.007 385.131 381.673H381.131ZM373.563 395.893C371.039 398.628 369.091 401 367.762 402.994C366.5 404.888 365.557 406.779 365.557 408.464H369.557C369.557 408.072 369.861 407.056 371.09 405.212C372.253 403.467 374.043 401.27 376.503 398.606L373.563 395.893ZM365.557 408.464V437.748H369.557V408.464H365.557ZM365.557 437.748C365.557 441.192 366.811 444.191 369.258 446.638L372.086 443.81C370.381 442.104 369.557 440.119 369.557 437.748H365.557ZM369.392 446.761C371.891 448.844 373.484 450.243 374.241 451L377.07 448.172C376.166 447.267 374.437 445.759 371.953 443.688L369.392 446.761ZM374.627 451.301C380.555 454.858 383 458.679 383 462.67H387C387 456.691 383.216 451.79 376.685 447.871L374.627 451.301ZM383 462.67C383 466.207 381.619 469.202 378.699 471.757L381.334 474.767C385.059 471.506 387 467.44 387 462.67H383ZM378.715 471.743C376.237 473.867 372.991 475 368.803 475V479C373.752 479 377.981 477.641 381.318 474.78L378.715 471.743ZM368.803 475C365.818 475 362.565 474.254 359.026 472.68L357.401 476.335C361.337 478.085 365.144 479 368.803 479V475ZM359.185 472.76C355.193 470.542 351.124 469.393 347 469.393V473.393C350.351 473.393 353.758 474.32 357.242 476.256L359.185 472.76ZM347 469.393C342.876 469.393 338.807 470.542 334.815 472.76L336.758 476.256C340.242 474.32 343.649 473.393 347 473.393V469.393ZM334.974 472.68C331.435 474.254 328.182 475 325.197 475V479C328.856 479 332.663 478.085 336.599 476.335L334.974 472.68ZM316.93 314.551L321.291 318.913L324.119 316.084L319.759 311.723L316.93 314.551ZM321.291 443.81L316.93 448.172L319.759 451L324.119 446.638L321.291 443.81ZM337 301C337 295.477 341.477 291 347 291V287C339.268 287 333 293.268 333 301H337ZM347 291C352.523 291 357 295.477 357 301H361C361 293.268 354.732 287 347 287V291ZM337 376C335.343 376 334 374.657 334 373H330C330 376.866 333.134 380 337 380V376ZM334 373C334 371.343 335.343 370 337 370V366C333.134 366 330 369.134 330 373H334ZM360 373C360 374.657 358.657 376 357 376V380C360.866 380 364 376.866 364 373H360ZM357 370C358.657 370 360 371.343 360 373H364C364 369.134 360.866 366 357 366V370ZM337 393C335.343 393 334 391.657 334 390H330C330 393.866 333.134 397 337 397V393ZM334 390C334 388.343 335.343 387 337 387V383C333.134 383 330 386.134 330 390H334ZM350 453C350 454.657 348.657 456 347 456V460C350.866 460 354 456.866 354 453H350ZM347 456C345.343 456 344 454.657 344 453H340C340 456.866 343.134 460 347 460V456ZM360 390C360 391.657 358.657 393 357 393V397C360.866 397 364 393.866 364 390H360ZM357 387C358.657 387 360 388.343 360 390H364C364 386.134 360.866 383 357 383V387ZM352 356H342V360H352V356ZM342 407H352V403H342V407ZM350 405V453H354V405H350ZM344 453V405H340V453H344ZM337 370H357V366H337V370ZM357 376H337V380H357V376ZM337 387H357V383H337V387ZM357 393H337V397H357V393ZM344 358V311.912H340V358H344ZM342.834 310.094C339.387 308.512 337 305.033 337 301H333C333 306.653 336.351 311.52 341.166 313.73L342.834 310.094ZM350 311.912V358H354V311.912H350ZM357 301C357 305.033 354.613 308.512 351.166 310.094L352.834 313.73C357.649 311.52 361 306.653 361 301H357ZM325.197 233C321.016 233 317.502 231.868 314.561 229.662L312.161 232.862C315.864 235.64 320.241 237 325.197 237V233ZM314.775 229.848C312.247 227.319 311 224.299 311 220.67H307C307 225.348 308.66 229.389 311.946 232.676L314.775 229.848ZM311 220.67C311 216.679 313.445 212.858 319.373 209.301L317.315 205.871C310.784 209.79 307 214.691 307 220.67H311ZM323.985 204.761C326.874 202.353 328.443 199.322 328.443 195.748H324.443C324.443 197.988 323.52 199.942 321.424 201.688L323.985 204.761ZM328.443 195.748V166.464H324.443V195.748H328.443ZM328.443 166.464C328.443 165.539 328.15 164.614 327.751 163.753C327.342 162.873 326.759 161.929 326.039 160.932C324.6 158.939 322.491 156.568 319.759 153.835L316.93 156.663C319.596 159.33 321.536 161.529 322.797 163.274C323.426 164.146 323.856 164.864 324.122 165.437C324.397 166.029 324.443 166.351 324.443 166.464H328.443ZM319.863 153.948C314.996 148.269 312.869 143.533 312.869 139.673H308.869C308.869 144.951 311.725 150.599 316.826 156.551L319.863 153.948ZM312.869 139.673C312.869 135.836 314.975 131.32 319.814 126.076L316.875 123.363C311.747 128.919 308.869 134.371 308.869 139.673H312.869ZM319.81 126.08C322.539 123.141 324.639 120.618 326.069 118.528C326.784 117.483 327.359 116.506 327.762 115.608C328.154 114.732 328.443 113.8 328.443 112.882H324.443C324.443 113.001 324.394 113.341 324.111 113.972C323.839 114.579 323.402 115.342 322.767 116.27C321.498 118.125 319.548 120.483 316.879 123.359L319.81 126.08ZM328.443 112.882V82.9751H324.443V112.882H328.443ZM328.443 82.9751C328.443 79.4007 326.874 76.3694 323.985 73.9621L321.424 77.0348C323.52 78.7812 324.443 80.7343 324.443 82.9751H328.443ZM319.373 69.4222C313.445 65.8647 311 62.0435 311 58.053H307C307 64.0313 310.784 68.9328 317.315 72.852L319.373 69.4222ZM311 58.053C311 54.0406 312.42 51.1339 315.184 49.061L312.783 45.8612C308.902 48.7727 307 52.9272 307 58.053H311ZM315.184 49.061C318.304 46.7206 321.004 45.7228 323.328 45.7228V41.7228C319.837 41.7228 316.308 43.2171 312.783 45.8612L315.184 49.061ZM323.328 45.7228C326.517 45.7228 330.084 43.9089 333.9 40.94L331.444 37.7828C327.785 40.629 325.122 41.7228 323.328 41.7228V45.7228ZM333.819 40.9998C337.614 38.3432 341.983 37 347 37V33C341.219 33 336.037 34.5644 331.525 37.723L333.819 40.9998ZM347 37C352.019 37 356.139 38.3431 359.477 40.94L361.933 37.7828C357.796 34.5645 352.778 33 347 33V37ZM359.558 40.9998C363.761 43.9422 367.522 45.7228 370.672 45.7228V41.7228C368.839 41.7228 365.955 40.5957 361.852 37.723L359.558 40.9998ZM370.672 45.7228C372.996 45.7228 375.696 46.7206 378.816 49.061L381.217 45.8612C377.692 43.2171 374.163 41.7228 370.672 41.7228V45.7228ZM378.816 49.061C381.58 51.1339 383 54.0406 383 58.053H387C387 52.9272 385.098 48.7727 381.217 45.8612L378.816 49.061ZM383 58.053C383 62.0435 380.555 65.8647 374.627 69.4222L376.685 72.852C383.216 68.9328 387 64.0313 387 58.053H383ZM374.241 69.723C373.484 70.4803 371.891 71.8792 369.392 73.9621L371.953 77.0348C374.437 74.964 376.166 73.4554 377.07 72.5512L374.241 69.723ZM369.258 74.0843C366.811 76.532 365.557 79.5312 365.557 82.9751H369.557C369.557 80.6039 370.381 78.6186 372.086 76.9125L369.258 74.0843ZM365.557 82.9751V112.882H369.557V82.9751H365.557ZM365.557 112.882C365.557 113.77 365.816 114.682 366.177 115.554C366.546 116.447 367.075 117.421 367.735 118.467C369.055 120.557 370.994 123.08 373.514 126.021L376.551 123.418C374.088 120.544 372.289 118.187 371.117 116.331C370.532 115.403 370.126 114.638 369.873 114.025C369.611 113.392 369.557 113.032 369.557 112.882H365.557ZM373.618 126.134C378.88 131.396 381.131 135.896 381.131 139.673H385.131C385.131 134.312 381.983 128.843 376.447 123.306L373.618 126.134ZM381.131 139.673C381.131 143.476 378.855 148.193 373.567 153.888L376.499 156.61C382.008 150.675 385.131 145.007 385.131 139.673H381.131ZM373.563 153.893C371.039 156.628 369.091 159 367.762 160.994C366.5 162.888 365.557 164.779 365.557 166.464H369.557C369.557 166.072 369.861 165.056 371.09 163.212C372.253 161.468 374.043 159.27 376.503 156.606L373.563 153.893ZM365.557 166.464V195.748H369.557V166.464H365.557ZM365.557 195.748C365.557 199.192 366.811 202.191 369.258 204.638L372.086 201.81C370.381 200.104 369.557 198.119 369.557 195.748H365.557ZM369.392 204.761C371.891 206.844 373.484 208.243 374.241 209L377.07 206.172C376.166 205.267 374.437 203.759 371.953 201.688L369.392 204.761ZM374.627 209.301C380.555 212.858 383 216.679 383 220.67H387C387 214.691 383.216 209.79 376.685 205.871L374.627 209.301ZM383 220.67C383 224.207 381.619 227.202 378.699 229.757L381.334 232.767C385.059 229.506 387 225.44 387 220.67H383ZM378.715 229.743C376.237 231.867 372.991 233 368.803 233V237C373.752 237 377.981 235.641 381.318 232.78L378.715 229.743ZM368.803 233C365.818 233 362.565 232.254 359.026 230.68L357.401 234.335C361.337 236.085 365.144 237 368.803 237V233ZM359.185 230.76C355.193 228.542 351.124 227.393 347 227.393V231.393C350.351 231.393 353.758 232.32 357.242 234.256L359.185 230.76ZM347 227.393C342.876 227.393 338.807 228.542 334.815 230.76L336.758 234.256C340.242 232.32 343.649 231.393 347 231.393V227.393ZM334.974 230.68C331.435 232.254 328.182 233 325.197 233V237C328.856 237 332.663 236.085 336.599 234.335L334.974 230.68ZM316.93 72.5512L321.291 76.9125L324.119 74.0843L319.759 69.723L316.93 72.5512ZM321.291 201.81L316.93 206.172L319.759 209L324.119 204.638L321.291 201.81ZM337 59C337 53.4772 341.477 49 347 49V45C339.268 45 333 51.268 333 59H337ZM347 49C352.523 49 357 53.4772 357 59H361C361 51.268 354.732 45 347 45V49ZM337 134C335.343 134 334 132.657 334 131H330C330 134.866 333.134 138 337 138V134ZM334 131C334 129.343 335.343 128 337 128V124C333.134 124 330 127.134 330 131H334ZM360 131C360 132.657 358.657 134 357 134V138C360.866 138 364 134.866 364 131H360ZM357 128C358.657 128 360 129.343 360 131H364C364 127.134 360.866 124 357 124V128ZM337 151C335.343 151 334 149.657 334 148H330C330 151.866 333.134 155 337 155V151ZM334 148C334 146.343 335.343 145 337 145V141C333.134 141 330 144.134 330 148H334ZM350 211C350 212.657 348.657 214 347 214V218C350.866 218 354 214.866 354 211H350ZM347 214C345.343 214 344 212.657 344 211H340C340 214.866 343.134 218 347 218V214ZM360 148C360 149.657 358.657 151 357 151V155C360.866 155 364 151.866 364 148H360ZM357 145C358.657 145 360 146.343 360 148H364C364 144.134 360.866 141 357 141V145ZM352 114H342V118H352V114ZM342 165H352V161H342V165ZM350 163V211H354V163H350ZM344 211V163H340V211H344ZM337 128H357V124H337V128ZM357 134H337V138H357V134ZM337 145H357V141H337V145ZM357 151H337V155H357V151ZM344 116V69.9119H340V116H344ZM342.834 68.0942C339.387 66.5122 337 63.0328 337 59H333C333 64.6532 336.351 69.5196 341.166 71.7296L342.834 68.0942ZM350 69.9119V116H354V69.9119H350ZM357 59C357 63.0328 354.613 66.5122 351.166 68.0942L352.834 71.7296C357.649 69.5196 361 64.6532 361 59H357Z" fill="white" mask="url(#path-2-inside-1_170_440)"/>
</svg>
