<svg width="512" height="512" viewBox="0 0 512 512" fill="none" xmlns="http://www.w3.org/2000/svg">
<path d="M0 0H512V512H0V0Z" fill="white"/>
<path fill-rule="evenodd" clip-rule="evenodd" d="M143.197 477C138.628 477 134.683 475.754 131.361 473.262C128.454 470.354 127 466.823 127 462.67C127 457.685 130.115 453.324 136.344 449.586L140.705 445.224C143.197 443.147 144.443 440.655 144.443 437.748V408.464C144.443 406.387 141.743 402.649 136.344 397.249C131.361 391.434 128.869 386.242 128.869 381.673C128.869 377.104 131.361 372.119 136.344 366.72C141.743 360.904 144.443 356.958 144.443 354.882V324.975C144.443 322.068 143.197 319.575 140.705 317.498L136.344 313.137C130.115 309.399 127 305.037 127 300.053C127 295.484 128.661 291.953 131.984 289.461C135.306 286.969 138.421 285.723 141.328 285.723C143.82 285.723 146.934 284.269 150.672 281.361C154.825 278.454 159.601 277 165 277C170.399 277 174.967 278.454 178.705 281.361C182.858 284.269 186.18 285.723 188.672 285.723C191.579 285.723 194.694 286.969 198.016 289.461C201.339 291.953 203 295.484 203 300.053C203 305.037 199.885 309.399 193.656 313.137C192.825 313.968 191.164 315.422 188.672 317.498C186.596 319.575 185.557 322.068 185.557 324.975V354.882C185.557 356.958 188.049 360.904 193.033 366.72C198.432 372.119 201.131 377.104 201.131 381.673C201.131 386.242 198.432 391.434 193.033 397.249C188.049 402.649 185.557 406.387 185.557 408.464V437.748C185.557 440.655 186.596 443.147 188.672 445.224C191.164 447.301 192.825 448.755 193.656 449.586C199.885 453.324 203 457.685 203 462.67C203 466.823 201.339 470.354 198.016 473.262C195.109 475.754 191.372 477 186.803 477C183.481 477 179.951 476.169 176.213 474.508C172.475 472.431 168.738 471.393 165 471.393C161.262 471.393 157.525 472.431 153.787 474.508C150.049 476.169 146.519 477 143.197 477ZM153 301C153 294.373 158.373 289 165 289C171.627 289 177 294.373 177 301C177 305.843 174.131 310.016 170 311.912V358H160V311.912C155.869 310.016 153 305.843 153 301ZM150 373C150 375.761 152.239 378 155 378H175C177.761 378 180 375.761 180 373C180 370.239 177.761 368 175 368H155C152.239 368 150 370.239 150 373ZM155 395C152.239 395 150 392.761 150 390C150 387.239 152.239 385 155 385H175C177.761 385 180 387.239 180 390C180 392.761 177.761 395 175 395H155ZM165 458C167.761 458 170 455.761 170 453V405H160V453C160 455.761 162.239 458 165 458Z" fill="#008000"/>
<path fill-rule="evenodd" clip-rule="evenodd" d="M143.197 235C138.628 235 134.683 233.754 131.361 231.262C128.454 228.354 127 224.823 127 220.67C127 215.685 130.115 211.324 136.344 207.586L140.705 203.224C143.197 201.147 144.443 198.655 144.443 195.748V166.464C144.443 164.387 141.743 160.649 136.344 155.249C131.361 149.434 128.869 144.242 128.869 139.673C128.869 135.104 131.361 130.119 136.344 124.72C141.743 118.904 144.443 114.958 144.443 112.882V82.9751C144.443 80.0675 143.197 77.5753 140.705 75.4984L136.344 71.1371C130.115 67.3988 127 63.0374 127 58.053C127 53.4839 128.661 49.9533 131.984 47.4611C135.306 44.9688 138.421 43.7228 141.328 43.7228C143.82 43.7228 146.934 42.269 150.672 39.3614C154.825 36.4538 159.601 35 165 35C170.399 35 174.967 36.4538 178.705 39.3614C182.858 42.269 186.18 43.7228 188.672 43.7228C191.579 43.7228 194.694 44.9688 198.016 47.4611C201.339 49.9533 203 53.4839 203 58.053C203 63.0374 199.885 67.3988 193.656 71.1371C192.825 71.9678 191.164 73.4216 188.672 75.4984C186.596 77.5753 185.557 80.0675 185.557 82.9751V112.882C185.557 114.958 188.049 118.904 193.033 124.72C198.432 130.119 201.131 135.104 201.131 139.673C201.131 144.242 198.432 149.434 193.033 155.249C188.049 160.649 185.557 164.387 185.557 166.464V195.748C185.557 198.655 186.596 201.147 188.672 203.224C191.164 205.301 192.825 206.755 193.656 207.586C199.885 211.324 203 215.685 203 220.67C203 224.823 201.339 228.354 198.016 231.262C195.109 233.754 191.372 235 186.803 235C183.481 235 179.951 234.169 176.213 232.508C172.475 230.431 168.738 229.393 165 229.393C161.262 229.393 157.525 230.431 153.787 232.508C150.049 234.169 146.519 235 143.197 235ZM153 59C153 52.3726 158.373 47 165 47C171.627 47 177 52.3726 177 59C177 63.843 174.131 68.0159 170 69.9119V116H160V69.9119C155.869 68.0159 153 63.843 153 59ZM150 131C150 133.761 152.239 136 155 136H175C177.761 136 180 133.761 180 131C180 128.239 177.761 126 175 126H155C152.239 126 150 128.239 150 131ZM155 153C152.239 153 150 150.761 150 148C150 145.239 152.239 143 155 143H175C177.761 143 180 145.239 180 148C180 150.761 177.761 153 175 153H155ZM165 216C167.761 216 170 213.761 170 211V163H160V211C160 213.761 162.239 216 165 216Z" fill="#008000"/>
<path fill-rule="evenodd" clip-rule="evenodd" d="M325.197 477C320.628 477 316.683 475.754 313.361 473.262C310.454 470.354 309 466.823 309 462.67C309 457.685 312.115 453.324 318.344 449.586L322.705 445.224C325.197 443.147 326.443 440.655 326.443 437.748V408.464C326.443 406.387 323.743 402.649 318.344 397.249C313.361 391.434 310.869 386.242 310.869 381.673C310.869 377.104 313.361 372.119 318.344 366.72C323.743 360.904 326.443 356.958 326.443 354.882V324.975C326.443 322.068 325.197 319.575 322.705 317.498L318.344 313.137C312.115 309.399 309 305.037 309 300.053C309 295.484 310.661 291.953 313.984 289.461C317.306 286.969 320.421 285.723 323.328 285.723C325.82 285.723 328.934 284.269 332.672 281.361C336.825 278.454 341.601 277 347 277C352.399 277 356.967 278.454 360.705 281.361C364.858 284.269 368.18 285.723 370.672 285.723C373.579 285.723 376.694 286.969 380.016 289.461C383.339 291.953 385 295.484 385 300.053C385 305.037 381.885 309.399 375.656 313.137C374.825 313.968 373.164 315.422 370.672 317.498C368.596 319.575 367.557 322.068 367.557 324.975V354.882C367.557 356.958 370.049 360.904 375.033 366.72C380.432 372.119 383.131 377.104 383.131 381.673C383.131 386.242 380.432 391.434 375.033 397.249C370.049 402.649 367.557 406.387 367.557 408.464V437.748C367.557 440.655 368.596 443.147 370.672 445.224C373.164 447.301 374.825 448.755 375.656 449.586C381.885 453.324 385 457.685 385 462.67C385 466.823 383.339 470.354 380.016 473.262C377.109 475.754 373.372 477 368.803 477C365.481 477 361.951 476.169 358.213 474.508C354.475 472.431 350.738 471.393 347 471.393C343.262 471.393 339.525 472.431 335.787 474.508C332.049 476.169 328.519 477 325.197 477ZM335 301C335 294.373 340.373 289 347 289C353.627 289 359 294.373 359 301C359 305.843 356.131 310.016 352 311.912V358H342V311.912C337.869 310.016 335 305.843 335 301ZM332 373C332 375.761 334.239 378 337 378H357C359.761 378 362 375.761 362 373C362 370.239 359.761 368 357 368H337C334.239 368 332 370.239 332 373ZM337 395C334.239 395 332 392.761 332 390C332 387.239 334.239 385 337 385H357C359.761 385 362 387.239 362 390C362 392.761 359.761 395 357 395H337ZM347 458C349.761 458 352 455.761 352 453V405H342V453C342 455.761 344.239 458 347 458Z" fill="#008000"/>
<path fill-rule="evenodd" clip-rule="evenodd" d="M325.197 235C320.628 235 316.683 233.754 313.361 231.262C310.454 228.354 309 224.823 309 220.67C309 215.685 312.115 211.324 318.344 207.586L322.705 203.224C325.197 201.147 326.443 198.655 326.443 195.748V166.464C326.443 164.387 323.743 160.649 318.344 155.249C313.361 149.434 310.869 144.242 310.869 139.673C310.869 135.104 313.361 130.119 318.344 124.72C323.743 118.904 326.443 114.958 326.443 112.882V82.9751C326.443 80.0675 325.197 77.5753 322.705 75.4984L318.344 71.1371C312.115 67.3988 309 63.0374 309 58.053C309 53.4839 310.661 49.9533 313.984 47.4611C317.306 44.9688 320.421 43.7228 323.328 43.7228C325.82 43.7228 328.934 42.269 332.672 39.3614C336.825 36.4538 341.601 35 347 35C352.399 35 356.967 36.4538 360.705 39.3614C364.858 42.269 368.18 43.7228 370.672 43.7228C373.579 43.7228 376.694 44.9688 380.016 47.4611C383.339 49.9533 385 53.4839 385 58.053C385 63.0374 381.885 67.3988 375.656 71.1371C374.825 71.9678 373.164 73.4216 370.672 75.4984C368.596 77.5753 367.557 80.0675 367.557 82.9751V112.882C367.557 114.958 370.049 118.904 375.033 124.72C380.432 130.119 383.131 135.104 383.131 139.673C383.131 144.242 380.432 149.434 375.033 155.249C370.049 160.649 367.557 164.387 367.557 166.464V195.748C367.557 198.655 368.596 201.147 370.672 203.224C373.164 205.301 374.825 206.755 375.656 207.586C381.885 211.324 385 215.685 385 220.67C385 224.823 383.339 228.354 380.016 231.262C377.109 233.754 373.372 235 368.803 235C365.481 235 361.951 234.169 358.213 232.508C354.475 230.431 350.738 229.393 347 229.393C343.262 229.393 339.525 230.431 335.787 232.508C332.049 234.169 328.519 235 325.197 235ZM335 59C335 52.3726 340.373 47 347 47C353.627 47 359 52.3726 359 59C359 63.843 356.131 68.0159 352 69.9119V116H342V69.9119C337.869 68.0159 335 63.843 335 59ZM332 131C332 133.761 334.239 136 337 136H357C359.761 136 362 133.761 362 131C362 128.239 359.761 126 357 126H337C334.239 126 332 128.239 332 131ZM337 153C334.239 153 332 150.761 332 148C332 145.239 334.239 143 337 143H357C359.761 143 362 145.239 362 148C362 150.761 359.761 153 357 153H337ZM347 216C349.761 216 352 213.761 352 211V163H342V211C342 213.761 344.239 216 347 216Z" fill="#008000"/>
</svg>
