<svg width="512" height="512" viewBox="0 0 512 512" fill="none" xmlns="http://www.w3.org/2000/svg">
<path d="M0 0H512V512H0V0Z" fill="white"/>
<path d="M197.564 317.894C187.327 317.894 176.358 316.675 164.658 314.237C152.958 311.312 144.914 307.169 140.527 301.806C141.014 301.319 143.208 299.856 147.108 297.419C151.008 294.981 155.396 293.762 160.271 293.762C166.121 293.762 173.189 294.981 181.477 297.419C183.427 297.906 186.839 298.637 191.714 299.612C197.077 300.587 202.439 301.075 207.802 301.075C217.552 301.075 224.133 300.1 227.546 298.15C230.958 296.2 232.664 291.813 232.664 284.988C232.664 283.525 231.202 282.55 228.277 282.062C225.839 281.088 224.133 279.869 223.158 278.406C223.158 275.969 224.133 273.775 226.083 271.825C228.521 269.387 230.471 266.95 231.933 264.513C233.396 262.075 235.346 258.906 237.783 255.006C240.221 251.106 242.171 248.181 243.633 246.231C245.583 244.281 247.777 243.306 250.214 243.306C251.677 243.306 252.896 244.037 253.871 245.5C254.846 246.963 255.333 248.669 255.333 250.619C255.333 256.956 254.114 263.781 251.677 271.094C249.727 278.406 248.264 284.256 247.289 288.644C248.752 291.081 250.458 292.3 252.408 292.3C255.333 292.3 259.477 286.694 264.839 275.481C270.689 264.269 273.614 256.225 273.614 251.35C273.614 248.425 271.908 245.744 268.496 243.306C265.571 240.869 263.621 238.675 262.646 236.725C264.108 233.8 267.277 230.144 272.152 225.756C277.027 221.369 282.389 218.2 288.239 216.25C292.139 217.713 295.552 221.125 298.477 226.487C301.402 231.362 302.864 236.969 302.864 243.306C302.864 248.181 300.914 254.031 297.014 260.856C292.627 266.706 290.189 273.044 289.702 279.869C296.527 278.894 301.889 277.919 305.789 276.944C321.389 274.019 335.527 272.556 348.202 272.556C363.802 272.556 372.821 274.262 375.258 277.675C371.846 284.5 366.483 289.619 359.171 293.031C352.833 292.544 339.671 292.3 319.683 292.3C309.933 292.3 299.696 293.519 288.971 295.956C278.733 298.394 265.814 301.806 250.214 306.194C240.464 309.119 230.714 311.8 220.964 314.237C211.702 316.675 203.902 317.894 197.564 317.894ZM316.758 479.5C310.421 479.5 298.721 476.331 281.658 469.994C265.083 463.169 253.383 457.562 246.558 453.175C244.608 453.662 242.171 455.125 239.246 457.562C236.321 460 234.127 461.219 232.664 461.219C227.789 461.219 223.158 460.488 218.771 459.025C214.383 457.075 211.214 455.856 209.264 455.369C209.264 456.831 209.021 459.513 208.533 463.413C208.533 466.825 208.046 469.75 207.071 472.187C206.096 474.137 204.389 475.112 201.952 475.112C197.564 475.112 193.421 469.75 189.521 459.025C186.108 447.813 184.158 441.231 183.671 439.281H174.896C165.633 439.281 157.102 437.819 149.302 434.894C141.502 431.969 137.602 427.825 137.602 422.462L138.333 417.344C142.72 417.344 148.814 417.831 156.614 418.806C164.414 419.781 170.508 420.269 174.896 420.269H177.821C177.333 414.906 176.114 408.569 174.164 401.256C171.239 386.631 169.777 378.1 169.777 375.663C169.777 374.688 170.752 373.225 172.702 371.275C178.552 372.25 182.452 374.687 184.402 378.587C186.839 382 189.033 387.606 190.983 395.406C193.908 406.131 196.833 414.175 199.758 419.537C206.583 419.537 212.677 418.806 218.039 417.344C223.402 415.394 226.571 414.175 227.546 413.688L228.277 392.481C226.814 392.481 222.914 393.7 216.577 396.138C215.602 397.6 214.383 399.794 212.921 402.719C211.458 405.644 209.508 408.325 207.071 410.763C204.146 409.3 201.464 404.425 199.027 396.138C197.077 387.363 196.102 378.1 196.102 368.35C196.102 349.825 197.077 336.419 199.027 328.131C215.114 325.694 236.808 320.819 264.108 313.506C281.171 308.631 292.871 306.194 299.208 306.194C309.446 306.194 314.564 309.606 314.564 316.431C314.564 317.894 312.858 324.231 309.446 335.444C306.033 346.169 304.327 359.331 304.327 374.931C304.327 382.731 304.814 391.019 305.789 399.794C322.364 401.256 339.914 405.644 358.439 412.956C376.964 419.781 386.227 430.262 386.227 444.4C386.227 452.687 383.058 459.025 376.721 463.413C370.383 467.8 362.339 469.994 352.589 469.994C350.639 469.994 348.202 470.481 345.277 471.456C342.352 472.431 340.158 473.163 338.696 473.65C328.946 477.55 321.633 479.5 316.758 479.5ZM244.364 347.144C251.189 346.169 256.796 345.194 261.183 344.219C266.058 342.756 270.689 341.781 275.077 341.294L275.808 324.475C271.421 325.45 266.302 326.912 260.452 328.862C254.602 330.325 249.971 331.3 246.558 331.788C246.071 334.713 245.583 337.394 245.096 339.831C244.608 342.269 244.364 344.706 244.364 347.144ZM216.577 352.262C219.502 352.262 221.939 352.019 223.889 351.531C226.327 351.044 228.277 350.556 229.739 350.069C229.739 346.169 230.227 341.294 231.202 335.444L213.652 338.369V351.531L216.577 352.262ZM244.364 375.663C251.189 375.175 260.939 372.981 273.614 369.081C273.614 361.769 273.858 356.162 274.346 352.262C263.621 355.675 253.627 358.113 244.364 359.575V375.663ZM214.383 380.781C216.821 380.781 221.452 380.294 228.277 379.319V362.5C224.377 362.987 220.964 363.475 218.039 363.962C215.114 364.45 213.652 365.181 213.652 366.156C213.652 367.131 213.652 368.594 213.652 370.544L214.383 380.781ZM245.827 408.569C256.552 406.619 266.058 403.937 274.346 400.525C274.346 392.237 274.102 385.9 273.614 381.512C269.714 382.487 265.327 383.706 260.452 385.169C256.064 386.144 251.189 387.362 245.827 388.825V408.569ZM290.433 460.487C294.821 460.487 299.452 458.781 304.327 455.369C309.202 451.469 312.858 449.031 315.296 448.056C317.733 447.081 322.364 446.35 329.189 445.862C336.502 444.887 341.864 443.425 345.277 441.475C349.177 439.525 351.127 435.869 351.127 430.506C351.127 426.606 346.008 422.95 335.771 419.537C325.533 415.637 316.271 413.444 307.983 412.956C307.983 414.419 308.227 416.856 308.714 420.269C309.689 423.194 310.177 425.875 310.177 428.312C310.177 430.75 309.446 433.431 307.983 436.356C304.571 438.794 300.183 440.988 294.821 442.938C289.458 444.887 284.827 445.862 280.927 445.862C279.952 444.4 279.221 442.938 278.733 441.475C278.246 439.525 277.514 437.819 276.539 436.356C273.614 437.331 270.446 439.038 267.033 441.475C263.621 443.913 260.452 445.619 257.527 446.594C259.477 449.519 264.352 452.687 272.152 456.1C279.952 459.025 286.046 460.487 290.433 460.487ZM250.214 433.431C252.652 433.431 256.064 432.456 260.452 430.506C265.327 428.556 270.446 426.85 275.808 425.387C274.833 420.025 274.589 416.125 275.077 413.688C270.202 414.175 264.839 415.394 258.989 417.344C253.139 419.294 248.996 420.756 246.558 421.731C246.558 424.656 246.802 427.337 247.289 429.775C248.264 432.212 249.239 433.431 250.214 433.431ZM207.802 446.594C214.627 445.131 222.427 442.45 231.202 438.55C228.764 435.625 227.546 431.725 227.546 426.85L202.683 434.894L207.802 446.594Z" fill="#A80000"/>
<path d="M390.614 222.099C387.201 222.099 383.301 220.637 378.914 217.712C374.526 214.787 371.845 213.08 370.87 212.593C361.607 206.743 353.076 202.112 345.276 198.699C337.964 195.287 329.432 193.58 319.682 193.58C316.27 193.58 313.101 194.068 310.176 195.043C307.251 195.53 305.057 195.774 303.595 195.774C300.182 195.774 298.476 194.799 298.476 192.849C298.476 191.874 298.72 190.412 299.207 188.462C299.695 186.512 299.939 183.587 299.939 179.687C285.314 185.537 272.882 189.924 262.645 192.849C248.02 198.212 238.026 202.355 232.664 205.28C227.789 208.205 225.107 212.105 224.62 216.98C224.132 217.955 222.426 218.443 219.501 218.443C211.214 218.443 204.632 215.762 199.757 210.399C194.882 205.037 192.445 198.455 192.445 190.655C192.445 187.243 193.664 182.855 196.101 177.493C198.539 172.13 199.757 167.743 199.757 164.33C199.757 161.893 199.514 160.187 199.026 159.212C198.539 157.749 197.076 156.53 194.639 155.555C182.451 167.743 167.826 178.955 150.764 189.193C133.701 199.43 121.27 204.549 113.47 204.549C109.57 204.549 106.888 203.574 105.426 201.624C126.388 191.387 147.351 176.518 168.314 157.018C189.276 137.518 199.757 120.455 199.757 105.83C199.757 101.93 198.539 98.2742 196.101 94.8617C193.664 91.4492 191.957 88.768 190.982 86.818C193.42 83.893 195.37 80.4805 196.832 76.5805C198.782 72.193 200.732 69.0242 202.682 67.0742C204.632 64.6367 207.314 62.443 210.726 60.493C214.139 58.543 216.82 56.8367 218.77 55.3742C221.207 57.8117 224.376 60.493 228.276 63.418C232.664 65.8555 236.32 69.0242 239.245 72.9242C247.532 72.9242 257.526 70.7305 269.226 66.343C281.414 61.468 296.77 54.8867 315.295 46.5992C327.97 40.7492 335.039 37.8242 336.501 37.8242C346.739 37.8242 357.951 38.7992 370.139 40.7492C382.814 42.6992 389.151 46.5992 389.151 52.4492C389.151 58.2992 387.689 62.9305 384.764 66.343C382.326 69.7555 379.157 71.4617 375.257 71.4617C369.407 71.4617 363.314 70.243 356.976 67.8055C347.226 65.368 340.889 64.1492 337.964 64.1492C330.651 64.1492 316.757 69.0242 296.282 78.7742C288.482 82.6742 282.389 87.5492 278.001 93.3992C273.614 99.2492 270.689 106.805 269.226 116.068C279.951 112.655 287.507 109.974 291.895 108.024C296.77 105.587 299.939 103.393 301.401 101.443C302.864 99.0055 303.839 95.3492 304.326 90.4742C314.076 91.4492 320.414 95.3492 323.339 102.174C324.314 103.637 324.801 105.587 324.801 108.024C324.801 109.487 324.314 111.924 323.339 115.337C322.364 118.749 321.876 121.674 321.876 124.112C321.876 128.987 322.851 138.98 324.801 154.093C329.189 156.043 340.401 160.674 358.439 167.987C375.014 174.812 387.201 180.662 395.001 185.537C402.801 190.412 406.701 196.505 406.701 203.818C406.701 208.693 404.995 213.08 401.582 216.98C398.657 220.393 395.001 222.099 390.614 222.099ZM234.126 128.499C238.514 128.499 243.632 126.793 249.482 123.38C250.457 121.43 252.407 116.799 255.332 109.487C258.745 102.174 260.451 96.3242 260.451 91.9367C260.451 88.0367 258.014 85.1117 253.139 83.1617C248.751 80.7242 244.12 79.5055 239.245 79.5055C238.757 81.943 238.27 86.5742 237.782 93.3992C237.782 100.224 237.051 106.318 235.589 111.68C234.614 117.043 232.664 120.455 229.739 121.918C230.714 126.305 232.176 128.499 234.126 128.499ZM249.482 178.955C254.357 178.955 261.67 177.249 271.42 173.837C281.657 169.937 291.164 165.793 299.939 161.405C299.451 159.455 299.207 156.287 299.207 151.899L299.939 136.543C299.939 127.28 297.501 122.649 292.626 122.649C291.164 122.649 286.776 125.087 279.464 129.962C272.151 134.349 266.301 137.518 261.914 139.468C253.626 154.58 249.482 167.743 249.482 178.955ZM226.082 178.955C231.445 173.593 236.076 162.137 239.976 144.587L233.395 145.318C229.495 145.318 225.595 144.83 221.695 143.855C217.795 142.88 215.357 141.662 214.382 140.199C213.895 141.662 213.651 143.855 213.651 146.78C213.651 150.68 214.382 155.799 215.845 162.137C217.795 167.987 218.77 171.887 218.77 173.837L218.039 177.493C220.476 179.443 223.157 179.93 226.082 178.955Z" fill="black"/>
</svg>
