<svg width="512" height="512" viewBox="0 0 512 512" fill="none" xmlns="http://www.w3.org/2000/svg">
<path d="M1 1H511V511H1V1Z" fill="white" stroke="white" stroke-width="2"/>
<circle cx="375" cy="118" r="22" fill="#969696" stroke="white" stroke-width="2"/>
<mask id="path-3-inside-1_170_494" fill="white">
<path d="M197.564 317.894C187.327 317.894 176.358 316.675 164.658 314.237C152.958 311.312 144.914 307.169 140.527 301.806C141.014 301.319 143.208 299.856 147.108 297.419C151.008 294.981 155.396 293.762 160.271 293.762C166.121 293.762 173.189 294.981 181.477 297.419C183.427 297.906 186.839 298.637 191.714 299.612C197.077 300.587 202.439 301.075 207.802 301.075C217.552 301.075 224.133 300.1 227.546 298.15C230.958 296.2 232.664 291.813 232.664 284.988C232.664 283.525 231.202 282.55 228.277 282.062C225.839 281.088 224.133 279.869 223.158 278.406C223.158 275.969 224.133 273.775 226.083 271.825C228.521 269.387 230.471 266.95 231.933 264.513C233.396 262.075 235.346 258.906 237.783 255.006C240.221 251.106 242.171 248.181 243.633 246.231C245.583 244.281 247.777 243.306 250.214 243.306C251.677 243.306 252.896 244.037 253.871 245.5C254.846 246.963 255.333 248.669 255.333 250.619C255.333 256.956 254.114 263.781 251.677 271.094C249.727 278.406 248.264 284.256 247.289 288.644C248.752 291.081 250.458 292.3 252.408 292.3C255.333 292.3 259.477 286.694 264.839 275.481C270.689 264.269 273.614 256.225 273.614 251.35C273.614 248.425 271.908 245.744 268.496 243.306C265.571 240.869 263.621 238.675 262.646 236.725C264.108 233.8 267.277 230.144 272.152 225.756C277.027 221.369 282.389 218.2 288.239 216.25C292.139 217.713 295.552 221.125 298.477 226.487C301.402 231.362 302.864 236.969 302.864 243.306C302.864 248.181 300.914 254.031 297.014 260.856C292.627 266.706 290.189 273.044 289.702 279.869C296.527 278.894 301.889 277.919 305.789 276.944C321.389 274.019 335.527 272.556 348.202 272.556C363.802 272.556 372.821 274.262 375.258 277.675C371.846 284.5 366.483 289.619 359.171 293.031C352.833 292.544 339.671 292.3 319.683 292.3C309.933 292.3 299.696 293.519 288.971 295.956C278.733 298.394 265.814 301.806 250.214 306.194C240.464 309.119 230.714 311.8 220.964 314.237C211.702 316.675 203.902 317.894 197.564 317.894ZM316.758 479.5C310.421 479.5 298.721 476.331 281.658 469.994C265.083 463.169 253.383 457.562 246.558 453.175C244.608 453.662 242.171 455.125 239.246 457.562C236.321 460 234.127 461.219 232.664 461.219C227.789 461.219 223.158 460.488 218.771 459.025C214.383 457.075 211.214 455.856 209.264 455.369C209.264 456.831 209.021 459.513 208.533 463.413C208.533 466.825 208.046 469.75 207.071 472.187C206.096 474.137 204.389 475.112 201.952 475.112C197.564 475.112 193.421 469.75 189.521 459.025C186.108 447.813 184.158 441.231 183.671 439.281H174.896C165.633 439.281 157.102 437.819 149.302 434.894C141.502 431.969 137.602 427.825 137.602 422.462L138.333 417.344C142.72 417.344 148.814 417.831 156.614 418.806C164.414 419.781 170.508 420.269 174.896 420.269H177.821C177.333 414.906 176.114 408.569 174.164 401.256C171.239 386.631 169.777 378.1 169.777 375.663C169.777 374.688 170.752 373.225 172.702 371.275C178.552 372.25 182.452 374.687 184.402 378.587C186.839 382 189.033 387.606 190.983 395.406C193.908 406.131 196.833 414.175 199.758 419.537C206.583 419.537 212.677 418.806 218.039 417.344C223.402 415.394 226.571 414.175 227.546 413.688L228.277 392.481C226.814 392.481 222.914 393.7 216.577 396.138C215.602 397.6 214.383 399.794 212.921 402.719C211.458 405.644 209.508 408.325 207.071 410.763C204.146 409.3 201.464 404.425 199.027 396.138C197.077 387.363 196.102 378.1 196.102 368.35C196.102 349.825 197.077 336.419 199.027 328.131C215.114 325.694 236.808 320.819 264.108 313.506C281.171 308.631 292.871 306.194 299.208 306.194C309.446 306.194 314.564 309.606 314.564 316.431C314.564 317.894 312.858 324.231 309.446 335.444C306.033 346.169 304.327 359.331 304.327 374.931C304.327 382.731 304.814 391.019 305.789 399.794C322.364 401.256 339.914 405.644 358.439 412.956C376.964 419.781 386.227 430.262 386.227 444.4C386.227 452.687 383.058 459.025 376.721 463.413C370.383 467.8 362.339 469.994 352.589 469.994C350.639 469.994 348.202 470.481 345.277 471.456C342.352 472.431 340.158 473.163 338.696 473.65C328.946 477.55 321.633 479.5 316.758 479.5ZM244.364 347.144C251.189 346.169 256.796 345.194 261.183 344.219C266.058 342.756 270.689 341.781 275.077 341.294L275.808 324.475C271.421 325.45 266.302 326.912 260.452 328.862C254.602 330.325 249.971 331.3 246.558 331.788C246.071 334.713 245.583 337.394 245.096 339.831C244.608 342.269 244.364 344.706 244.364 347.144ZM216.577 352.262C219.502 352.262 221.939 352.019 223.889 351.531C226.327 351.044 228.277 350.556 229.739 350.069C229.739 346.169 230.227 341.294 231.202 335.444L213.652 338.369V351.531L216.577 352.262ZM244.364 375.663C251.189 375.175 260.939 372.981 273.614 369.081C273.614 361.769 273.858 356.162 274.346 352.262C263.621 355.675 253.627 358.113 244.364 359.575V375.663ZM214.383 380.781C216.821 380.781 221.452 380.294 228.277 379.319V362.5C224.377 362.987 220.964 363.475 218.039 363.962C215.114 364.45 213.652 365.181 213.652 366.156C213.652 367.131 213.652 368.594 213.652 370.544L214.383 380.781ZM245.827 408.569C256.552 406.619 266.058 403.937 274.346 400.525C274.346 392.237 274.102 385.9 273.614 381.512C269.714 382.487 265.327 383.706 260.452 385.169C256.064 386.144 251.189 387.362 245.827 388.825V408.569ZM290.433 460.487C294.821 460.487 299.452 458.781 304.327 455.369C309.202 451.469 312.858 449.031 315.296 448.056C317.733 447.081 322.364 446.35 329.189 445.862C336.502 444.887 341.864 443.425 345.277 441.475C349.177 439.525 351.127 435.869 351.127 430.506C351.127 426.606 346.008 422.95 335.771 419.537C325.533 415.637 316.271 413.444 307.983 412.956C307.983 414.419 308.227 416.856 308.714 420.269C309.689 423.194 310.177 425.875 310.177 428.312C310.177 430.75 309.446 433.431 307.983 436.356C304.571 438.794 300.183 440.988 294.821 442.938C289.458 444.887 284.827 445.862 280.927 445.862C279.952 444.4 279.221 442.938 278.733 441.475C278.246 439.525 277.514 437.819 276.539 436.356C273.614 437.331 270.446 439.038 267.033 441.475C263.621 443.913 260.452 445.619 257.527 446.594C259.477 449.519 264.352 452.687 272.152 456.1C279.952 459.025 286.046 460.487 290.433 460.487ZM250.214 433.431C252.652 433.431 256.064 432.456 260.452 430.506C265.327 428.556 270.446 426.85 275.808 425.387C274.833 420.025 274.589 416.125 275.077 413.688C270.202 414.175 264.839 415.394 258.989 417.344C253.139 419.294 248.996 420.756 246.558 421.731C246.558 424.656 246.802 427.337 247.289 429.775C248.264 432.212 249.239 433.431 250.214 433.431ZM207.802 446.594C214.627 445.131 222.427 442.45 231.202 438.55C228.764 435.625 227.546 431.725 227.546 426.85L202.683 434.894L207.802 446.594Z"/>
</mask>
<path d="M197.564 317.894C187.327 317.894 176.358 316.675 164.658 314.237C152.958 311.312 144.914 307.169 140.527 301.806C141.014 301.319 143.208 299.856 147.108 297.419C151.008 294.981 155.396 293.762 160.271 293.762C166.121 293.762 173.189 294.981 181.477 297.419C183.427 297.906 186.839 298.637 191.714 299.612C197.077 300.587 202.439 301.075 207.802 301.075C217.552 301.075 224.133 300.1 227.546 298.15C230.958 296.2 232.664 291.813 232.664 284.988C232.664 283.525 231.202 282.55 228.277 282.062C225.839 281.088 224.133 279.869 223.158 278.406C223.158 275.969 224.133 273.775 226.083 271.825C228.521 269.387 230.471 266.95 231.933 264.513C233.396 262.075 235.346 258.906 237.783 255.006C240.221 251.106 242.171 248.181 243.633 246.231C245.583 244.281 247.777 243.306 250.214 243.306C251.677 243.306 252.896 244.037 253.871 245.5C254.846 246.963 255.333 248.669 255.333 250.619C255.333 256.956 254.114 263.781 251.677 271.094C249.727 278.406 248.264 284.256 247.289 288.644C248.752 291.081 250.458 292.3 252.408 292.3C255.333 292.3 259.477 286.694 264.839 275.481C270.689 264.269 273.614 256.225 273.614 251.35C273.614 248.425 271.908 245.744 268.496 243.306C265.571 240.869 263.621 238.675 262.646 236.725C264.108 233.8 267.277 230.144 272.152 225.756C277.027 221.369 282.389 218.2 288.239 216.25C292.139 217.713 295.552 221.125 298.477 226.487C301.402 231.362 302.864 236.969 302.864 243.306C302.864 248.181 300.914 254.031 297.014 260.856C292.627 266.706 290.189 273.044 289.702 279.869C296.527 278.894 301.889 277.919 305.789 276.944C321.389 274.019 335.527 272.556 348.202 272.556C363.802 272.556 372.821 274.262 375.258 277.675C371.846 284.5 366.483 289.619 359.171 293.031C352.833 292.544 339.671 292.3 319.683 292.3C309.933 292.3 299.696 293.519 288.971 295.956C278.733 298.394 265.814 301.806 250.214 306.194C240.464 309.119 230.714 311.8 220.964 314.237C211.702 316.675 203.902 317.894 197.564 317.894ZM316.758 479.5C310.421 479.5 298.721 476.331 281.658 469.994C265.083 463.169 253.383 457.562 246.558 453.175C244.608 453.662 242.171 455.125 239.246 457.562C236.321 460 234.127 461.219 232.664 461.219C227.789 461.219 223.158 460.488 218.771 459.025C214.383 457.075 211.214 455.856 209.264 455.369C209.264 456.831 209.021 459.513 208.533 463.413C208.533 466.825 208.046 469.75 207.071 472.187C206.096 474.137 204.389 475.112 201.952 475.112C197.564 475.112 193.421 469.75 189.521 459.025C186.108 447.813 184.158 441.231 183.671 439.281H174.896C165.633 439.281 157.102 437.819 149.302 434.894C141.502 431.969 137.602 427.825 137.602 422.462L138.333 417.344C142.72 417.344 148.814 417.831 156.614 418.806C164.414 419.781 170.508 420.269 174.896 420.269H177.821C177.333 414.906 176.114 408.569 174.164 401.256C171.239 386.631 169.777 378.1 169.777 375.663C169.777 374.688 170.752 373.225 172.702 371.275C178.552 372.25 182.452 374.687 184.402 378.587C186.839 382 189.033 387.606 190.983 395.406C193.908 406.131 196.833 414.175 199.758 419.537C206.583 419.537 212.677 418.806 218.039 417.344C223.402 415.394 226.571 414.175 227.546 413.688L228.277 392.481C226.814 392.481 222.914 393.7 216.577 396.138C215.602 397.6 214.383 399.794 212.921 402.719C211.458 405.644 209.508 408.325 207.071 410.763C204.146 409.3 201.464 404.425 199.027 396.138C197.077 387.363 196.102 378.1 196.102 368.35C196.102 349.825 197.077 336.419 199.027 328.131C215.114 325.694 236.808 320.819 264.108 313.506C281.171 308.631 292.871 306.194 299.208 306.194C309.446 306.194 314.564 309.606 314.564 316.431C314.564 317.894 312.858 324.231 309.446 335.444C306.033 346.169 304.327 359.331 304.327 374.931C304.327 382.731 304.814 391.019 305.789 399.794C322.364 401.256 339.914 405.644 358.439 412.956C376.964 419.781 386.227 430.262 386.227 444.4C386.227 452.687 383.058 459.025 376.721 463.413C370.383 467.8 362.339 469.994 352.589 469.994C350.639 469.994 348.202 470.481 345.277 471.456C342.352 472.431 340.158 473.163 338.696 473.65C328.946 477.55 321.633 479.5 316.758 479.5ZM244.364 347.144C251.189 346.169 256.796 345.194 261.183 344.219C266.058 342.756 270.689 341.781 275.077 341.294L275.808 324.475C271.421 325.45 266.302 326.912 260.452 328.862C254.602 330.325 249.971 331.3 246.558 331.788C246.071 334.713 245.583 337.394 245.096 339.831C244.608 342.269 244.364 344.706 244.364 347.144ZM216.577 352.262C219.502 352.262 221.939 352.019 223.889 351.531C226.327 351.044 228.277 350.556 229.739 350.069C229.739 346.169 230.227 341.294 231.202 335.444L213.652 338.369V351.531L216.577 352.262ZM244.364 375.663C251.189 375.175 260.939 372.981 273.614 369.081C273.614 361.769 273.858 356.162 274.346 352.262C263.621 355.675 253.627 358.113 244.364 359.575V375.663ZM214.383 380.781C216.821 380.781 221.452 380.294 228.277 379.319V362.5C224.377 362.987 220.964 363.475 218.039 363.962C215.114 364.45 213.652 365.181 213.652 366.156C213.652 367.131 213.652 368.594 213.652 370.544L214.383 380.781ZM245.827 408.569C256.552 406.619 266.058 403.937 274.346 400.525C274.346 392.237 274.102 385.9 273.614 381.512C269.714 382.487 265.327 383.706 260.452 385.169C256.064 386.144 251.189 387.362 245.827 388.825V408.569ZM290.433 460.487C294.821 460.487 299.452 458.781 304.327 455.369C309.202 451.469 312.858 449.031 315.296 448.056C317.733 447.081 322.364 446.35 329.189 445.862C336.502 444.887 341.864 443.425 345.277 441.475C349.177 439.525 351.127 435.869 351.127 430.506C351.127 426.606 346.008 422.95 335.771 419.537C325.533 415.637 316.271 413.444 307.983 412.956C307.983 414.419 308.227 416.856 308.714 420.269C309.689 423.194 310.177 425.875 310.177 428.312C310.177 430.75 309.446 433.431 307.983 436.356C304.571 438.794 300.183 440.988 294.821 442.938C289.458 444.887 284.827 445.862 280.927 445.862C279.952 444.4 279.221 442.938 278.733 441.475C278.246 439.525 277.514 437.819 276.539 436.356C273.614 437.331 270.446 439.038 267.033 441.475C263.621 443.913 260.452 445.619 257.527 446.594C259.477 449.519 264.352 452.687 272.152 456.1C279.952 459.025 286.046 460.487 290.433 460.487ZM250.214 433.431C252.652 433.431 256.064 432.456 260.452 430.506C265.327 428.556 270.446 426.85 275.808 425.387C274.833 420.025 274.589 416.125 275.077 413.688C270.202 414.175 264.839 415.394 258.989 417.344C253.139 419.294 248.996 420.756 246.558 421.731C246.558 424.656 246.802 427.337 247.289 429.775C248.264 432.212 249.239 433.431 250.214 433.431ZM207.802 446.594C214.627 445.131 222.427 442.45 231.202 438.55C228.764 435.625 227.546 431.725 227.546 426.85L202.683 434.894L207.802 446.594Z" fill="#969696" stroke="white" stroke-width="4" mask="url(#path-3-inside-1_170_494)"/>
<path d="M232.149 204.423C227.132 207.433 224.24 211.51 223.651 216.638C223.532 216.768 223.269 216.953 222.7 217.116C221.975 217.323 220.923 217.443 219.501 217.443C211.451 217.443 205.155 214.85 200.497 209.727C195.803 204.563 193.445 198.227 193.445 190.655C193.445 187.454 194.596 183.22 197.012 177.907C199.471 172.495 200.757 167.954 200.757 164.33C200.757 161.927 200.53 160.035 199.952 158.829C199.303 156.976 197.506 155.625 195.01 154.627L194.398 154.382L193.932 154.848C181.81 166.97 167.252 178.134 150.249 188.335C141.742 193.439 134.416 197.252 128.262 199.785C122.093 202.326 117.177 203.549 113.47 203.549C110.47 203.549 108.412 202.951 107.099 201.915C127.755 191.649 148.386 176.921 168.995 157.75C189.988 138.222 200.757 120.904 200.757 105.83C200.757 101.706 199.464 97.8491 196.915 94.2805C194.722 91.2108 193.149 88.7692 192.172 86.9415C194.486 84.0478 196.346 80.7176 197.758 76.9596C199.686 72.6282 201.572 69.5992 203.39 67.7813L203.429 67.7422L203.463 67.6989C205.317 65.3817 207.892 63.2643 211.222 61.3612C214.27 59.62 216.757 58.0605 218.675 56.6839C221.064 59.0001 224.068 61.5116 227.676 64.218L227.731 64.259L227.791 64.2921C232.059 66.6634 235.607 69.74 238.445 73.5242L238.745 73.9242H239.245C247.697 73.9242 257.816 71.6897 269.577 67.2793L269.587 67.2755L269.598 67.2714C281.802 62.3896 297.172 55.8024 315.703 47.5121L315.714 47.5072C322.047 44.584 326.969 42.3968 330.485 40.942C332.244 40.214 333.639 39.6745 334.677 39.3186C335.197 39.1405 335.615 39.0126 335.937 38.9302C336.279 38.843 336.449 38.8242 336.501 38.8242C346.676 38.8242 357.835 39.7934 369.981 41.7367L369.987 41.7376C376.274 42.7049 380.873 44.1415 383.874 45.9884C386.839 47.813 388.151 49.9673 388.151 52.4492C388.151 58.1338 386.732 62.5098 384.004 65.6922L383.976 65.7257L383.95 65.7617C381.684 68.9346 378.807 70.4617 375.257 70.4617C369.548 70.4617 363.576 69.2725 357.335 66.8721L357.278 66.8502L357.219 66.8353C352.335 65.6143 348.293 64.6955 345.099 64.0813C341.924 63.4707 339.529 63.1492 337.964 63.1492C334.13 63.1492 328.696 64.417 321.728 66.8619C314.735 69.3157 306.107 72.9883 295.853 77.8714L295.844 77.8755L295.835 77.8798C287.923 81.836 281.698 86.8033 277.201 92.7992C272.692 98.8114 269.719 106.533 268.238 115.912L267.986 117.512L269.529 117.021C280.256 113.608 287.858 110.913 292.301 108.938L292.322 108.929L292.342 108.919C297.225 106.477 300.586 104.197 302.201 102.043L302.232 102.002L302.259 101.957C303.725 99.5143 304.688 96.0271 305.212 91.5794C314.159 92.6877 319.78 96.4083 322.42 102.568L322.456 102.653L322.507 102.729C323.337 103.975 323.801 105.71 323.801 108.024C323.801 109.332 323.353 111.648 322.377 115.062C321.387 118.527 320.876 121.55 320.876 124.112C320.876 129.062 321.861 139.121 323.809 154.221L323.881 154.778L324.395 155.007C328.801 156.965 340.03 161.603 358.06 168.912C374.621 175.731 386.745 181.556 394.471 186.385C402.065 191.131 405.701 196.941 405.701 203.818C405.701 208.435 404.094 212.592 400.83 216.322L400.823 216.33C398.083 219.527 394.701 221.099 390.614 221.099C387.479 221.099 383.775 219.751 379.468 216.88C375.17 214.014 372.442 212.272 371.364 211.722C362.09 205.867 353.531 201.22 345.688 197.788C338.221 194.306 329.544 192.58 319.682 192.58C316.203 192.58 312.951 193.074 309.935 194.069C307.061 194.546 304.959 194.774 303.595 194.774C301.951 194.774 300.88 194.534 300.252 194.175C299.707 193.864 299.476 193.462 299.476 192.849C299.476 192.003 299.694 190.64 300.178 188.704C300.696 186.632 300.939 183.607 300.939 179.687V178.21L299.567 178.758C284.96 184.601 272.563 188.975 262.37 191.888L262.335 191.898L262.301 191.91C247.679 197.272 237.62 201.438 232.185 204.403L232.167 204.412L232.149 204.423ZM249.986 124.244L250.244 124.094L250.377 123.828C251.373 121.835 253.336 117.17 256.251 109.884C259.674 102.544 261.451 96.5412 261.451 91.9367C261.451 89.759 260.764 87.8247 259.391 86.1778C258.044 84.5612 256.077 83.2679 253.569 82.2569C249.054 79.7598 244.275 78.5055 239.245 78.5055H238.425L238.264 79.3094C237.763 81.8177 237.272 86.5095 236.785 93.328L236.782 93.3635V93.3992C236.782 100.155 236.058 106.157 234.624 111.417L234.613 111.459L234.605 111.502C233.649 116.759 231.79 119.774 229.291 121.024L228.593 121.373L228.763 122.135C229.261 124.376 229.903 126.161 230.735 127.409C231.579 128.676 232.705 129.499 234.126 129.499C238.762 129.499 244.06 127.702 249.986 124.244ZM248.482 178.955V179.955H249.482C254.537 179.955 261.986 178.198 271.75 174.781L271.763 174.776L271.776 174.771C282.041 170.861 291.578 166.704 300.386 162.3L301.103 161.941L300.909 161.163C300.454 159.344 300.208 156.289 300.207 151.923L300.938 136.591L300.939 136.567V136.543C300.939 131.857 300.328 128.188 298.995 125.657C298.322 124.377 297.45 123.363 296.36 122.673C295.267 121.98 294.01 121.649 292.626 121.649C292.047 121.649 291.34 121.873 290.596 122.183C289.817 122.508 288.866 122.985 287.753 123.603C285.529 124.839 282.584 126.68 278.929 129.116C271.639 133.49 265.836 136.63 261.508 138.554L261.199 138.691L261.037 138.987C252.708 154.175 248.482 167.508 248.482 178.955ZM226.399 179.904L226.623 179.83L226.79 179.663C229.607 176.845 232.167 172.5 234.505 166.716C236.848 160.92 238.995 153.611 240.952 144.804L241.256 143.438L239.866 143.593L233.34 144.318C229.542 144.313 225.742 143.837 221.937 142.885C220.028 142.408 218.52 141.881 217.389 141.316C216.248 140.745 215.566 140.172 215.214 139.645L214.08 137.943L213.434 139.883C212.894 141.502 212.651 143.826 212.651 146.78C212.651 150.79 213.401 155.992 214.871 162.362L214.881 162.408L214.896 162.453C215.867 165.365 216.59 167.776 217.069 169.692C217.535 171.557 217.754 172.891 217.769 173.742L217.058 177.297L216.939 177.894L217.414 178.274C220.112 180.433 223.147 180.988 226.399 179.904Z" fill="#969696" stroke="white" stroke-width="2"/>
</svg>
