<svg width="512" height="512" viewBox="0 0 512 512" fill="none" xmlns="http://www.w3.org/2000/svg">
<path d="M0 0H512V512H0V0Z" fill="white"/>
<circle cx="138" cy="256" r="23" fill="#DA0000"/>
<path fill-rule="evenodd" clip-rule="evenodd" d="M171 468C211.317 468 244 435.317 244 395C244 354.683 211.317 322 171 322C130.683 322 98 354.683 98 395C98 435.317 130.683 468 171 468ZM171 451.453C202.178 451.453 227.453 426.178 227.453 395C227.453 363.822 202.178 338.547 171 338.547C139.822 338.547 114.547 363.822 114.547 395C114.547 426.178 139.822 451.453 171 451.453Z" fill="#DA0000"/>
<path d="M207.273 386.32C207.273 392.119 202.572 396.82 196.773 396.82C190.974 396.82 186.273 392.119 186.273 386.32C186.273 380.521 190.974 375.82 196.773 375.82C202.572 375.82 207.273 380.521 207.273 386.32Z" fill="#DA0000"/>
<path d="M155.727 386.32C155.727 392.119 151.026 396.82 145.227 396.82C139.428 396.82 134.727 392.119 134.727 386.32C134.727 380.521 139.428 375.82 145.227 375.82C151.026 375.82 155.727 380.521 155.727 386.32Z" fill="#DA0000"/>
<path d="M197.728 416.864C197.728 422.663 193.027 427.364 187.228 427.364C181.429 427.364 176.728 422.663 176.728 416.864C176.728 411.065 181.429 406.364 187.228 406.364C193.027 406.364 197.728 411.065 197.728 416.864Z" fill="#DA0000"/>
<path d="M165.273 416.864C165.273 422.663 160.572 427.364 154.773 427.364C148.974 427.364 144.273 422.663 144.273 416.864C144.273 411.065 148.974 406.364 154.773 406.364C160.572 406.364 165.273 411.065 165.273 416.864Z" fill="#DA0000"/>
<path fill-rule="evenodd" clip-rule="evenodd" d="M341 468C381.317 468 414 435.317 414 395C414 354.683 381.317 322 341 322C300.683 322 268 354.683 268 395C268 435.317 300.683 468 341 468ZM341 451.453C372.178 451.453 397.453 426.178 397.453 395C397.453 363.822 372.178 338.547 341 338.547C309.822 338.547 284.547 363.822 284.547 395C284.547 426.178 309.822 451.453 341 451.453Z" fill="#DA0000"/>
<path d="M377.273 386.32C377.273 392.119 372.572 396.82 366.773 396.82C360.974 396.82 356.273 392.119 356.273 386.32C356.273 380.521 360.974 375.82 366.773 375.82C372.572 375.82 377.273 380.521 377.273 386.32Z" fill="#DA0000"/>
<path d="M325.727 386.32C325.727 392.119 321.026 396.82 315.227 396.82C309.428 396.82 304.727 392.119 304.727 386.32C304.727 380.521 309.428 375.82 315.227 375.82C321.026 375.82 325.727 380.521 325.727 386.32Z" fill="#DA0000"/>
<path d="M367.728 416.864C367.728 422.663 363.027 427.364 357.228 427.364C351.429 427.364 346.728 422.663 346.728 416.864C346.728 411.065 351.429 406.364 357.228 406.364C363.027 406.364 367.728 411.065 367.728 416.864Z" fill="#DA0000"/>
<path d="M335.273 416.864C335.273 422.663 330.572 427.364 324.773 427.364C318.974 427.364 314.273 422.663 314.273 416.864C314.273 411.065 318.974 406.364 324.773 406.364C330.572 406.364 335.273 411.065 335.273 416.864Z" fill="#DA0000"/>
<path fill-rule="evenodd" clip-rule="evenodd" d="M171 190C211.317 190 244 157.317 244 117C244 76.6832 211.317 44 171 44C130.683 44 98 76.6832 98 117C98 157.317 130.683 190 171 190ZM171 173.453C202.178 173.453 227.453 148.178 227.453 117C227.453 85.8217 202.178 60.5467 171 60.5467C139.822 60.5467 114.547 85.8217 114.547 117C114.547 148.178 139.822 173.453 171 173.453Z" fill="#DA0000"/>
<path d="M207.273 108.32C207.273 114.119 202.572 118.82 196.773 118.82C190.974 118.82 186.273 114.119 186.273 108.32C186.273 102.521 190.974 97.8201 196.773 97.8201C202.572 97.8201 207.273 102.521 207.273 108.32Z" fill="#DA0000"/>
<path d="M197.728 138.864C197.728 144.663 193.027 149.364 187.228 149.364C181.429 149.364 176.728 144.663 176.728 138.864C176.728 133.065 181.429 128.364 187.228 128.364C193.027 128.364 197.728 133.065 197.728 138.864Z" fill="#DA0000"/>
<path d="M165.273 138.864C165.273 144.663 160.572 149.364 154.773 149.364C148.974 149.364 144.273 144.663 144.273 138.864C144.273 133.065 148.974 128.364 154.773 128.364C160.572 128.364 165.273 133.065 165.273 138.864Z" fill="#DA0000"/>
<path d="M181.5 89.2271C181.5 95.0261 176.799 99.7271 171 99.7271C165.201 99.7271 160.5 95.0261 160.5 89.2271C160.5 83.428 165.201 78.727 171 78.727C176.799 78.727 181.5 83.428 181.5 89.2271Z" fill="#DA0000"/>
<path fill-rule="evenodd" clip-rule="evenodd" d="M341 190C381.317 190 414 157.317 414 117C414 76.6832 381.317 44 341 44C300.683 44 268 76.6832 268 117C268 157.317 300.683 190 341 190ZM341 173.453C372.178 173.453 397.453 148.178 397.453 117C397.453 85.8217 372.178 60.5467 341 60.5467C309.822 60.5467 284.547 85.8217 284.547 117C284.547 148.178 309.822 173.453 341 173.453Z" fill="#DA0000"/>
<path d="M377.273 108.32C377.273 114.119 372.572 118.82 366.773 118.82C360.974 118.82 356.273 114.119 356.273 108.32C356.273 102.521 360.974 97.8201 366.773 97.8201C372.572 97.8201 377.273 102.521 377.273 108.32Z" fill="#DA0000"/>
<path d="M325.727 108.32C325.727 114.119 321.026 118.82 315.227 118.82C309.428 118.82 304.727 114.119 304.727 108.32C304.727 102.521 309.428 97.8201 315.227 97.8201C321.026 97.8201 325.727 102.521 325.727 108.32Z" fill="#DA0000"/>
<path d="M367.728 138.864C367.728 144.663 363.027 149.364 357.228 149.364C351.429 149.364 346.728 144.663 346.728 138.864C346.728 133.065 351.429 128.364 357.228 128.364C363.027 128.364 367.728 133.065 367.728 138.864Z" fill="#DA0000"/>
<path d="M335.273 138.864C335.273 144.663 330.572 149.364 324.773 149.364C318.974 149.364 314.273 144.663 314.273 138.864C314.273 133.065 318.974 128.364 324.773 128.364C330.572 128.364 335.273 133.065 335.273 138.864Z" fill="#DA0000"/>
<path fill-rule="evenodd" clip-rule="evenodd" d="M256 329C296.317 329 329 296.317 329 256C329 215.683 296.317 183 256 183C215.683 183 183 215.683 183 256C183 296.317 215.683 329 256 329ZM256 312.453C287.178 312.453 312.453 287.178 312.453 256C312.453 224.822 287.178 199.547 256 199.547C224.822 199.547 199.547 224.822 199.547 256C199.547 287.178 224.822 312.453 256 312.453Z" fill="#DA0000"/>
<path d="M268 256C268 262.627 262.627 268 256 268C249.373 268 244 262.627 244 256C244 249.373 249.373 244 256 244C262.627 244 268 249.373 268 256Z" fill="#DA0000"/>
<path fill-rule="evenodd" clip-rule="evenodd" d="M222 117C222 145.167 199.167 168 171 168C142.833 168 120 145.167 120 117C120 88.8335 142.833 66 171 66C199.167 66 222 88.8335 222 117ZM213.001 108.321C213.001 117.283 205.736 124.548 196.774 124.548C196.036 124.548 195.309 124.499 194.598 124.403C199.856 127.088 203.456 132.556 203.456 138.865C203.456 147.827 196.19 155.092 187.228 155.092C178.266 155.092 171.001 147.827 171.001 138.865C171.001 147.827 163.735 155.092 154.773 155.092C145.811 155.092 138.546 147.827 138.546 138.865C138.546 132.556 142.146 127.088 147.403 124.403C146.692 124.499 145.965 124.548 145.227 124.548C136.265 124.548 129 117.283 129 108.321C129 99.3584 136.265 92.0931 145.227 92.0931C149.674 92.0931 153.702 93.8812 156.633 96.7775C155.445 94.5222 154.773 91.9533 154.773 89.2274C154.773 80.2653 162.039 73 171.001 73C179.963 73 187.228 80.2653 187.228 89.2274C187.228 91.9531 186.556 94.5217 185.369 96.7768C188.3 93.8809 192.328 92.0931 196.774 92.0931C205.736 92.0931 213.001 99.3584 213.001 108.321ZM196.773 118.82C202.572 118.82 207.273 114.119 207.273 108.32C207.273 102.521 202.572 97.8201 196.773 97.8201C190.974 97.8201 186.273 102.521 186.273 108.32C186.273 114.119 190.974 118.82 196.773 118.82ZM187.228 149.364C193.027 149.364 197.728 144.663 197.728 138.864C197.728 133.065 193.027 128.364 187.228 128.364C181.429 128.364 176.728 133.065 176.728 138.864C176.728 144.663 181.429 149.364 187.228 149.364ZM154.773 149.364C160.572 149.364 165.273 144.663 165.273 138.864C165.273 133.065 160.572 128.364 154.773 128.364C148.974 128.364 144.273 133.065 144.273 138.864C144.273 144.663 148.974 149.364 154.773 149.364ZM171 99.7271C176.799 99.7271 181.5 95.0261 181.5 89.2271C181.5 83.428 176.799 78.727 171 78.727C165.201 78.727 160.5 83.428 160.5 89.2271C160.5 95.0261 165.201 99.7271 171 99.7271Z" fill="#DA0000"/>
<path d="M155.727 108.32C155.727 114.119 151.026 118.82 145.227 118.82C139.428 118.82 134.727 114.119 134.727 108.32C134.727 102.521 139.428 97.8201 145.227 97.8201C151.026 97.8201 155.727 102.521 155.727 108.32Z" fill="#DA0000"/>
<path fill-rule="evenodd" clip-rule="evenodd" d="M392 117C392 145.167 369.167 168 341 168C312.833 168 290 145.167 290 117C290 88.8335 312.833 66 341 66C369.167 66 392 88.8335 392 117ZM383.001 108.321C383.001 117.283 375.736 124.548 366.774 124.548C366.036 124.548 365.31 124.499 364.598 124.403C369.856 127.088 373.456 132.556 373.456 138.865C373.456 147.827 366.19 155.092 357.228 155.092C348.266 155.092 341.001 147.827 341.001 138.865C341.001 147.827 333.735 155.092 324.773 155.092C315.811 155.092 308.546 147.827 308.546 138.865C308.546 132.556 312.146 127.088 317.403 124.403C316.692 124.499 315.965 124.548 315.227 124.548C306.265 124.548 299 117.283 299 108.321C299 99.3584 306.265 92.0931 315.227 92.0931C319.674 92.0931 323.702 93.8812 326.633 96.7775C325.445 94.5222 324.773 91.9533 324.773 89.2274C324.773 80.2653 332.039 73 341.001 73C349.963 73 357.228 80.2653 357.228 89.2274C357.228 91.9531 356.556 94.5217 355.369 96.7768C358.3 93.8809 362.328 92.0931 366.774 92.0931C375.736 92.0931 383.001 99.3584 383.001 108.321ZM366.773 118.82C372.572 118.82 377.273 114.119 377.273 108.32C377.273 102.521 372.572 97.8201 366.773 97.8201C360.974 97.8201 356.273 102.521 356.273 108.32C356.273 114.119 360.974 118.82 366.773 118.82ZM315.227 118.82C321.026 118.82 325.727 114.119 325.727 108.32C325.727 102.521 321.026 97.8201 315.227 97.8201C309.428 97.8201 304.727 102.521 304.727 108.32C304.727 114.119 309.428 118.82 315.227 118.82ZM357.228 149.364C363.027 149.364 367.728 144.663 367.728 138.864C367.728 133.065 363.027 128.364 357.228 128.364C351.429 128.364 346.728 133.065 346.728 138.864C346.728 144.663 351.429 149.364 357.228 149.364ZM324.773 149.364C330.572 149.364 335.273 144.663 335.273 138.864C335.273 133.065 330.572 128.364 324.773 128.364C318.974 128.364 314.273 133.065 314.273 138.864C314.273 144.663 318.974 149.364 324.773 149.364Z" fill="#DA0000"/>
<path d="M351.5 89.2271C351.5 95.0261 346.799 99.7271 341 99.7271C335.201 99.7271 330.5 95.0261 330.5 89.2271C330.5 83.428 335.201 78.727 341 78.727C346.799 78.727 351.5 83.428 351.5 89.2271Z" fill="#DA0000"/>
<path fill-rule="evenodd" clip-rule="evenodd" d="M392 395C392 423.167 369.167 446 341 446C312.833 446 290 423.167 290 395C290 366.833 312.833 344 341 344C369.167 344 392 366.833 392 395ZM383.001 386.321C383.001 395.283 375.736 402.548 366.774 402.548C366.036 402.548 365.31 402.499 364.598 402.403C369.856 405.088 373.456 410.556 373.456 416.865C373.456 425.827 366.19 433.092 357.228 433.092C348.266 433.092 341.001 425.827 341.001 416.865C341.001 425.827 333.735 433.092 324.773 433.092C315.811 433.092 308.546 425.827 308.546 416.865C308.546 410.556 312.146 405.088 317.403 402.403C316.692 402.499 315.965 402.548 315.227 402.548C306.265 402.548 299 395.283 299 386.321C299 377.358 306.265 370.093 315.227 370.093C319.674 370.093 323.702 371.881 326.633 374.777C325.445 372.522 324.773 369.953 324.773 367.227C324.773 358.265 332.039 351 341.001 351C349.963 351 357.228 358.265 357.228 367.227C357.228 369.953 356.556 372.522 355.369 374.777C358.3 371.881 362.328 370.093 366.774 370.093C375.736 370.093 383.001 377.358 383.001 386.321ZM366.773 396.82C372.572 396.82 377.273 392.119 377.273 386.32C377.273 380.521 372.572 375.82 366.773 375.82C360.974 375.82 356.273 380.521 356.273 386.32C356.273 392.119 360.974 396.82 366.773 396.82ZM315.227 396.82C321.026 396.82 325.727 392.119 325.727 386.32C325.727 380.521 321.026 375.82 315.227 375.82C309.428 375.82 304.727 380.521 304.727 386.32C304.727 392.119 309.428 396.82 315.227 396.82ZM357.228 427.364C363.027 427.364 367.728 422.663 367.728 416.864C367.728 411.065 363.027 406.364 357.228 406.364C351.429 406.364 346.728 411.065 346.728 416.864C346.728 422.663 351.429 427.364 357.228 427.364ZM324.773 427.364C330.572 427.364 335.273 422.663 335.273 416.864C335.273 411.065 330.572 406.364 324.773 406.364C318.974 406.364 314.273 411.065 314.273 416.864C314.273 422.663 318.974 427.364 324.773 427.364Z" fill="#DA0000"/>
<path d="M351.5 367.227C351.5 373.026 346.799 377.727 341 377.727C335.201 377.727 330.5 373.026 330.5 367.227C330.5 361.428 335.201 356.727 341 356.727C346.799 356.727 351.5 361.428 351.5 367.227Z" fill="#DA0000"/>
<path fill-rule="evenodd" clip-rule="evenodd" d="M222 395C222 423.167 199.167 446 171 446C142.833 446 120 423.167 120 395C120 366.833 142.833 344 171 344C199.167 344 222 366.833 222 395ZM213.001 386.321C213.001 395.283 205.736 402.548 196.774 402.548C196.036 402.548 195.309 402.499 194.598 402.403C199.856 405.088 203.456 410.556 203.456 416.865C203.456 425.827 196.19 433.092 187.228 433.092C178.266 433.092 171.001 425.827 171.001 416.865C171.001 425.827 163.735 433.092 154.773 433.092C145.811 433.092 138.546 425.827 138.546 416.865C138.546 410.556 142.146 405.088 147.403 402.403C146.692 402.499 145.965 402.548 145.227 402.548C136.265 402.548 129 395.283 129 386.321C129 377.358 136.265 370.093 145.227 370.093C149.674 370.093 153.702 371.881 156.633 374.777C155.445 372.522 154.773 369.953 154.773 367.227C154.773 358.265 162.039 351 171.001 351C179.963 351 187.228 358.265 187.228 367.227C187.228 369.953 186.556 372.522 185.369 374.777C188.3 371.881 192.328 370.093 196.774 370.093C205.736 370.093 213.001 377.358 213.001 386.321ZM196.773 396.82C202.572 396.82 207.273 392.119 207.273 386.32C207.273 380.521 202.572 375.82 196.773 375.82C190.974 375.82 186.273 380.521 186.273 386.32C186.273 392.119 190.974 396.82 196.773 396.82ZM145.227 396.82C151.026 396.82 155.727 392.119 155.727 386.32C155.727 380.521 151.026 375.82 145.227 375.82C139.428 375.82 134.727 380.521 134.727 386.32C134.727 392.119 139.428 396.82 145.227 396.82ZM187.228 427.364C193.027 427.364 197.728 422.663 197.728 416.864C197.728 411.065 193.027 406.364 187.228 406.364C181.429 406.364 176.728 411.065 176.728 416.864C176.728 422.663 181.429 427.364 187.228 427.364ZM154.773 427.364C160.572 427.364 165.273 422.663 165.273 416.864C165.273 411.065 160.572 406.364 154.773 406.364C148.974 406.364 144.273 411.065 144.273 416.864C144.273 422.663 148.974 427.364 154.773 427.364Z" fill="#DA0000"/>
<path d="M181.5 367.227C181.5 373.026 176.799 377.727 171 377.727C165.201 377.727 160.5 373.026 160.5 367.227C160.5 361.428 165.201 356.727 171 356.727C176.799 356.727 181.5 361.428 181.5 367.227Z" fill="#DA0000"/>
<path d="M266.5 228.227C266.5 234.026 261.799 238.727 256 238.727C250.201 238.727 245.5 234.026 245.5 228.227C245.5 222.428 250.201 217.727 256 217.727C261.799 217.727 266.5 222.428 266.5 228.227Z" fill="#DA0000"/>
<path d="M292.273 247.32C292.273 253.119 287.572 257.82 281.773 257.82C275.974 257.82 271.273 253.119 271.273 247.32C271.273 241.521 275.974 236.82 281.773 236.82C287.572 236.82 292.273 241.521 292.273 247.32Z" fill="#DA0000"/>
<path fill-rule="evenodd" clip-rule="evenodd" d="M307 256C307 284.167 284.167 307 256 307C227.833 307 205 284.167 205 256C205 227.833 227.833 205 256 205C284.167 205 307 227.833 307 256ZM298.001 247.321C298.001 256.283 290.736 263.548 281.774 263.548C281.036 263.548 280.309 263.499 279.598 263.403C284.856 266.088 288.456 271.556 288.456 277.865C288.456 286.827 281.19 294.092 272.228 294.092C263.266 294.092 256.001 286.827 256.001 277.865C256.001 286.827 248.735 294.092 239.773 294.092C230.811 294.092 223.546 286.827 223.546 277.865C223.546 271.556 227.146 266.088 232.403 263.403C231.692 263.499 230.965 263.548 230.227 263.548C221.265 263.548 214 256.283 214 247.321C214 238.358 221.265 231.093 230.227 231.093C234.674 231.093 238.702 232.881 241.633 235.777C240.445 233.522 239.773 230.953 239.773 228.227C239.773 219.265 247.039 212 256.001 212C264.963 212 272.228 219.265 272.228 228.227C272.228 230.953 271.556 233.522 270.369 235.777C273.3 232.881 277.328 231.093 281.774 231.093C290.736 231.093 298.001 238.358 298.001 247.321Z" fill="#DA0000"/>
<path d="M250.273 277.864C250.273 283.663 245.572 288.364 239.773 288.364C233.974 288.364 229.273 283.663 229.273 277.864C229.273 272.065 233.974 267.364 239.773 267.364C245.572 267.364 250.273 272.065 250.273 277.864Z" fill="#DA0000"/>
<path d="M240.727 247.32C240.727 253.119 236.026 257.82 230.227 257.82C224.428 257.82 219.727 253.119 219.727 247.32C219.727 241.521 224.428 236.82 230.227 236.82C236.026 236.82 240.727 241.521 240.727 247.32Z" fill="#DA0000"/>
<path d="M183 395C183 401.627 177.627 407 171 407C164.373 407 159 401.627 159 395C159 388.373 164.373 383 171 383C177.627 383 183 388.373 183 395Z" fill="#DA0000"/>
<path d="M353 395C353 401.627 347.627 407 341 407C334.373 407 329 401.627 329 395C329 388.373 334.373 383 341 383C347.627 383 353 388.373 353 395Z" fill="#DA0000"/>
<path d="M282.728 277.864C282.728 283.663 278.027 288.364 272.228 288.364C266.429 288.364 261.728 283.663 261.728 277.864C261.728 272.065 266.429 267.364 272.228 267.364C278.027 267.364 282.728 272.065 282.728 277.864Z" fill="#DA0000"/>
<path d="M183 117C183 123.627 177.627 129 171 129C164.373 129 159 123.627 159 117C159 110.373 164.373 105 171 105C177.627 105 183 110.373 183 117Z" fill="#DA0000"/>
<path d="M353 117C353 123.627 347.627 129 341 129C334.373 129 329 123.627 329 117C329 110.373 334.373 105 341 105C347.627 105 353 110.373 353 117Z" fill="#DA0000"/>
</svg>
