<svg width="512" height="512" viewBox="0 0 512 512" fill="none" xmlns="http://www.w3.org/2000/svg">
<path d="M1 1H511V511H1V1Z" fill="white" stroke="white" stroke-width="2"/>
<mask id="path-2-inside-1_170_436" fill="white">
<path fill-rule="evenodd" clip-rule="evenodd" d="M340.197 477C335.628 477 331.683 475.754 328.361 473.262C325.454 470.354 324 466.823 324 462.67C324 457.685 327.115 453.324 333.344 449.586L337.705 445.224C340.197 443.147 341.443 440.655 341.443 437.748V408.464C341.443 406.387 338.743 402.649 333.344 397.249C328.361 391.434 325.869 386.242 325.869 381.673C325.869 377.104 328.361 372.119 333.344 366.72C338.743 360.904 341.443 356.958 341.443 354.882V324.975C341.443 322.068 340.197 319.575 337.705 317.498L333.344 313.137C327.115 309.399 324 305.037 324 300.053C324 295.484 325.661 291.953 328.984 289.461C332.306 286.969 335.421 285.723 338.328 285.723C340.82 285.723 343.934 284.269 347.672 281.361C351.825 278.454 356.601 277 362 277C367.399 277 371.967 278.454 375.705 281.361C379.858 284.269 383.18 285.723 385.672 285.723C388.579 285.723 391.694 286.969 395.016 289.461C398.339 291.953 400 295.484 400 300.053C400 305.037 396.885 309.399 390.656 313.137C389.825 313.968 388.164 315.422 385.672 317.498C383.596 319.575 382.557 322.068 382.557 324.975V354.882C382.557 356.958 385.049 360.904 390.033 366.72C395.432 372.119 398.131 377.104 398.131 381.673C398.131 386.242 395.432 391.434 390.033 397.249C385.049 402.649 382.557 406.387 382.557 408.464V437.748C382.557 440.655 383.596 443.147 385.672 445.224C388.164 447.301 389.825 448.755 390.656 449.586C396.885 453.324 400 457.685 400 462.67C400 466.823 398.339 470.354 395.016 473.262C392.109 475.754 388.372 477 383.803 477C380.481 477 376.951 476.169 373.213 474.508C369.475 472.431 365.738 471.393 362 471.393C358.262 471.393 354.525 472.431 350.787 474.508C347.049 476.169 343.519 477 340.197 477ZM350 301C350 294.373 355.373 289 362 289C368.627 289 374 294.373 374 301C374 305.843 371.131 310.016 367 311.912V358H357V311.912C352.869 310.016 350 305.843 350 301ZM347 373C347 375.761 349.239 378 352 378H372C374.761 378 377 375.761 377 373C377 370.239 374.761 368 372 368H352C349.239 368 347 370.239 347 373ZM352 395C349.239 395 347 392.761 347 390C347 387.239 349.239 385 352 385H372C374.761 385 377 387.239 377 390C377 392.761 374.761 395 372 395H352ZM362 458C364.761 458 367 455.761 367 453V405H357V453C357 455.761 359.239 458 362 458Z"/>
<path fill-rule="evenodd" clip-rule="evenodd" d="M340.197 235C335.628 235 331.683 233.754 328.361 231.262C325.454 228.354 324 224.823 324 220.67C324 215.685 327.115 211.324 333.344 207.586L337.705 203.224C340.197 201.147 341.443 198.655 341.443 195.748V166.464C341.443 164.387 338.743 160.649 333.344 155.249C328.361 149.434 325.869 144.242 325.869 139.673C325.869 135.104 328.361 130.119 333.344 124.72C338.743 118.904 341.443 114.958 341.443 112.882V82.9751C341.443 80.0675 340.197 77.5753 337.705 75.4984L333.344 71.1371C327.115 67.3988 324 63.0374 324 58.053C324 53.4839 325.661 49.9533 328.984 47.4611C332.306 44.9688 335.421 43.7228 338.328 43.7228C340.82 43.7228 343.934 42.269 347.672 39.3614C351.825 36.4538 356.601 35 362 35C367.399 35 371.967 36.4538 375.705 39.3614C379.858 42.269 383.18 43.7228 385.672 43.7228C388.579 43.7228 391.694 44.9688 395.016 47.4611C398.339 49.9533 400 53.4839 400 58.053C400 63.0374 396.885 67.3988 390.656 71.1371C389.825 71.9678 388.164 73.4216 385.672 75.4984C383.596 77.5753 382.557 80.0675 382.557 82.9751V112.882C382.557 114.958 385.049 118.904 390.033 124.72C395.432 130.119 398.131 135.104 398.131 139.673C398.131 144.242 395.432 149.434 390.033 155.249C385.049 160.649 382.557 164.387 382.557 166.464V195.748C382.557 198.655 383.596 201.147 385.672 203.224C388.164 205.301 389.825 206.755 390.656 207.586C396.885 211.324 400 215.685 400 220.67C400 224.823 398.339 228.354 395.016 231.262C392.109 233.754 388.372 235 383.803 235C380.481 235 376.951 234.169 373.213 232.508C369.475 230.431 365.738 229.393 362 229.393C358.262 229.393 354.525 230.431 350.787 232.508C347.049 234.169 343.519 235 340.197 235ZM350 59C350 52.3726 355.373 47 362 47C368.627 47 374 52.3726 374 59C374 63.843 371.131 68.0159 367 69.9119V116H357V69.9119C352.869 68.0159 350 63.843 350 59ZM347 131C347 133.761 349.239 136 352 136H372C374.761 136 377 133.761 377 131C377 128.239 374.761 126 372 126H352C349.239 126 347 128.239 347 131ZM352 153C349.239 153 347 150.761 347 148C347 145.239 349.239 143 352 143H372C374.761 143 377 145.239 377 148C377 150.761 374.761 153 372 153H352ZM362 216C364.761 216 367 213.761 367 211V163H357V211C357 213.761 359.239 216 362 216Z"/>
<path fill-rule="evenodd" clip-rule="evenodd" d="M128.197 477C123.628 477 119.683 475.754 116.361 473.262C113.454 470.354 112 466.823 112 462.67C112 457.685 115.115 453.324 121.344 449.586L125.705 445.224C128.197 443.147 129.443 440.655 129.443 437.748V408.464C129.443 406.387 126.743 402.649 121.344 397.249C116.361 391.434 113.869 386.242 113.869 381.673C113.869 377.104 116.361 372.119 121.344 366.72C126.743 360.904 129.443 356.958 129.443 354.882V324.975C129.443 322.068 128.197 319.575 125.705 317.498L121.344 313.137C115.115 309.399 112 305.037 112 300.053C112 295.484 113.661 291.953 116.984 289.461C120.306 286.969 123.421 285.723 126.328 285.723C128.82 285.723 131.934 284.269 135.672 281.361C139.825 278.454 144.601 277 150 277C155.399 277 159.967 278.454 163.705 281.361C167.858 284.269 171.18 285.723 173.672 285.723C176.579 285.723 179.694 286.969 183.016 289.461C186.339 291.953 188 295.484 188 300.053C188 305.037 184.885 309.399 178.656 313.137C177.825 313.968 176.164 315.422 173.672 317.498C171.596 319.575 170.557 322.068 170.557 324.975V354.882C170.557 356.958 173.049 360.904 178.033 366.72C183.432 372.119 186.131 377.104 186.131 381.673C186.131 386.242 183.432 391.434 178.033 397.249C173.049 402.649 170.557 406.387 170.557 408.464V437.748C170.557 440.655 171.596 443.147 173.672 445.224C176.164 447.301 177.825 448.755 178.656 449.586C184.885 453.324 188 457.685 188 462.67C188 466.823 186.339 470.354 183.016 473.262C180.109 475.754 176.372 477 171.803 477C168.481 477 164.951 476.169 161.213 474.508C157.475 472.431 153.738 471.393 150 471.393C146.262 471.393 142.525 472.431 138.787 474.508C135.049 476.169 131.519 477 128.197 477ZM138 301C138 294.373 143.373 289 150 289C156.627 289 162 294.373 162 301C162 305.843 159.131 310.016 155 311.912V358H145V311.912C140.869 310.016 138 305.843 138 301ZM135 373C135 375.761 137.239 378 140 378H160C162.761 378 165 375.761 165 373C165 370.239 162.761 368 160 368H140C137.239 368 135 370.239 135 373ZM140 395C137.239 395 135 392.761 135 390C135 387.239 137.239 385 140 385H160C162.761 385 165 387.239 165 390C165 392.761 162.761 395 160 395H140ZM150 458C152.761 458 155 455.761 155 453V405H145V453C145 455.761 147.239 458 150 458Z"/>
<path fill-rule="evenodd" clip-rule="evenodd" d="M128.197 235C123.628 235 119.683 233.754 116.361 231.262C113.454 228.354 112 224.823 112 220.67C112 215.685 115.115 211.324 121.344 207.586L125.705 203.224C128.197 201.147 129.443 198.655 129.443 195.748V166.464C129.443 164.387 126.743 160.649 121.344 155.249C116.361 149.434 113.869 144.242 113.869 139.673C113.869 135.104 116.361 130.119 121.344 124.72C126.743 118.904 129.443 114.958 129.443 112.882V82.9751C129.443 80.0675 128.197 77.5753 125.705 75.4984L121.344 71.1371C115.115 67.3988 112 63.0374 112 58.053C112 53.4839 113.661 49.9533 116.984 47.4611C120.306 44.9688 123.421 43.7228 126.328 43.7228C128.82 43.7228 131.934 42.269 135.672 39.3614C139.825 36.4538 144.601 35 150 35C155.399 35 159.967 36.4538 163.705 39.3614C167.858 42.269 171.18 43.7228 173.672 43.7228C176.579 43.7228 179.694 44.9688 183.016 47.4611C186.339 49.9533 188 53.4839 188 58.053C188 63.0374 184.885 67.3988 178.656 71.1371C177.825 71.9678 176.164 73.4216 173.672 75.4984C171.596 77.5753 170.557 80.0675 170.557 82.9751V112.882C170.557 114.958 173.049 118.904 178.033 124.72C183.432 130.119 186.131 135.104 186.131 139.673C186.131 144.242 183.432 149.434 178.033 155.249C173.049 160.649 170.557 164.387 170.557 166.464V195.748C170.557 198.655 171.596 201.147 173.672 203.224C176.164 205.301 177.825 206.755 178.656 207.586C184.885 211.324 188 215.685 188 220.67C188 224.823 186.339 228.354 183.016 231.262C180.109 233.754 176.372 235 171.803 235C168.481 235 164.951 234.169 161.213 232.508C157.475 230.431 153.738 229.393 150 229.393C146.262 229.393 142.525 230.431 138.787 232.508C135.049 234.169 131.519 235 128.197 235ZM138 59C138 52.3726 143.373 47 150 47C156.627 47 162 52.3726 162 59C162 63.843 159.131 68.0159 155 69.9119V116H145V69.9119C140.869 68.0159 138 63.843 138 59ZM135 131C135 133.761 137.239 136 140 136H160C162.761 136 165 133.761 165 131C165 128.239 162.761 126 160 126H140C137.239 126 135 128.239 135 131ZM140 153C137.239 153 135 150.761 135 148C135 145.239 137.239 143 140 143H160C162.761 143 165 145.239 165 148C165 150.761 162.761 153 160 153H140ZM150 216C152.761 216 155 213.761 155 211V163H145V211C145 213.761 147.239 216 150 216Z"/>
</mask>
<path fill-rule="evenodd" clip-rule="evenodd" d="M340.197 477C335.628 477 331.683 475.754 328.361 473.262C325.454 470.354 324 466.823 324 462.67C324 457.685 327.115 453.324 333.344 449.586L337.705 445.224C340.197 443.147 341.443 440.655 341.443 437.748V408.464C341.443 406.387 338.743 402.649 333.344 397.249C328.361 391.434 325.869 386.242 325.869 381.673C325.869 377.104 328.361 372.119 333.344 366.72C338.743 360.904 341.443 356.958 341.443 354.882V324.975C341.443 322.068 340.197 319.575 337.705 317.498L333.344 313.137C327.115 309.399 324 305.037 324 300.053C324 295.484 325.661 291.953 328.984 289.461C332.306 286.969 335.421 285.723 338.328 285.723C340.82 285.723 343.934 284.269 347.672 281.361C351.825 278.454 356.601 277 362 277C367.399 277 371.967 278.454 375.705 281.361C379.858 284.269 383.18 285.723 385.672 285.723C388.579 285.723 391.694 286.969 395.016 289.461C398.339 291.953 400 295.484 400 300.053C400 305.037 396.885 309.399 390.656 313.137C389.825 313.968 388.164 315.422 385.672 317.498C383.596 319.575 382.557 322.068 382.557 324.975V354.882C382.557 356.958 385.049 360.904 390.033 366.72C395.432 372.119 398.131 377.104 398.131 381.673C398.131 386.242 395.432 391.434 390.033 397.249C385.049 402.649 382.557 406.387 382.557 408.464V437.748C382.557 440.655 383.596 443.147 385.672 445.224C388.164 447.301 389.825 448.755 390.656 449.586C396.885 453.324 400 457.685 400 462.67C400 466.823 398.339 470.354 395.016 473.262C392.109 475.754 388.372 477 383.803 477C380.481 477 376.951 476.169 373.213 474.508C369.475 472.431 365.738 471.393 362 471.393C358.262 471.393 354.525 472.431 350.787 474.508C347.049 476.169 343.519 477 340.197 477ZM350 301C350 294.373 355.373 289 362 289C368.627 289 374 294.373 374 301C374 305.843 371.131 310.016 367 311.912V358H357V311.912C352.869 310.016 350 305.843 350 301ZM347 373C347 375.761 349.239 378 352 378H372C374.761 378 377 375.761 377 373C377 370.239 374.761 368 372 368H352C349.239 368 347 370.239 347 373ZM352 395C349.239 395 347 392.761 347 390C347 387.239 349.239 385 352 385H372C374.761 385 377 387.239 377 390C377 392.761 374.761 395 372 395H352ZM362 458C364.761 458 367 455.761 367 453V405H357V453C357 455.761 359.239 458 362 458Z" fill="#969696"/>
<path fill-rule="evenodd" clip-rule="evenodd" d="M340.197 235C335.628 235 331.683 233.754 328.361 231.262C325.454 228.354 324 224.823 324 220.67C324 215.685 327.115 211.324 333.344 207.586L337.705 203.224C340.197 201.147 341.443 198.655 341.443 195.748V166.464C341.443 164.387 338.743 160.649 333.344 155.249C328.361 149.434 325.869 144.242 325.869 139.673C325.869 135.104 328.361 130.119 333.344 124.72C338.743 118.904 341.443 114.958 341.443 112.882V82.9751C341.443 80.0675 340.197 77.5753 337.705 75.4984L333.344 71.1371C327.115 67.3988 324 63.0374 324 58.053C324 53.4839 325.661 49.9533 328.984 47.4611C332.306 44.9688 335.421 43.7228 338.328 43.7228C340.82 43.7228 343.934 42.269 347.672 39.3614C351.825 36.4538 356.601 35 362 35C367.399 35 371.967 36.4538 375.705 39.3614C379.858 42.269 383.18 43.7228 385.672 43.7228C388.579 43.7228 391.694 44.9688 395.016 47.4611C398.339 49.9533 400 53.4839 400 58.053C400 63.0374 396.885 67.3988 390.656 71.1371C389.825 71.9678 388.164 73.4216 385.672 75.4984C383.596 77.5753 382.557 80.0675 382.557 82.9751V112.882C382.557 114.958 385.049 118.904 390.033 124.72C395.432 130.119 398.131 135.104 398.131 139.673C398.131 144.242 395.432 149.434 390.033 155.249C385.049 160.649 382.557 164.387 382.557 166.464V195.748C382.557 198.655 383.596 201.147 385.672 203.224C388.164 205.301 389.825 206.755 390.656 207.586C396.885 211.324 400 215.685 400 220.67C400 224.823 398.339 228.354 395.016 231.262C392.109 233.754 388.372 235 383.803 235C380.481 235 376.951 234.169 373.213 232.508C369.475 230.431 365.738 229.393 362 229.393C358.262 229.393 354.525 230.431 350.787 232.508C347.049 234.169 343.519 235 340.197 235ZM350 59C350 52.3726 355.373 47 362 47C368.627 47 374 52.3726 374 59C374 63.843 371.131 68.0159 367 69.9119V116H357V69.9119C352.869 68.0159 350 63.843 350 59ZM347 131C347 133.761 349.239 136 352 136H372C374.761 136 377 133.761 377 131C377 128.239 374.761 126 372 126H352C349.239 126 347 128.239 347 131ZM352 153C349.239 153 347 150.761 347 148C347 145.239 349.239 143 352 143H372C374.761 143 377 145.239 377 148C377 150.761 374.761 153 372 153H352ZM362 216C364.761 216 367 213.761 367 211V163H357V211C357 213.761 359.239 216 362 216Z" fill="#969696"/>
<path fill-rule="evenodd" clip-rule="evenodd" d="M128.197 477C123.628 477 119.683 475.754 116.361 473.262C113.454 470.354 112 466.823 112 462.67C112 457.685 115.115 453.324 121.344 449.586L125.705 445.224C128.197 443.147 129.443 440.655 129.443 437.748V408.464C129.443 406.387 126.743 402.649 121.344 397.249C116.361 391.434 113.869 386.242 113.869 381.673C113.869 377.104 116.361 372.119 121.344 366.72C126.743 360.904 129.443 356.958 129.443 354.882V324.975C129.443 322.068 128.197 319.575 125.705 317.498L121.344 313.137C115.115 309.399 112 305.037 112 300.053C112 295.484 113.661 291.953 116.984 289.461C120.306 286.969 123.421 285.723 126.328 285.723C128.82 285.723 131.934 284.269 135.672 281.361C139.825 278.454 144.601 277 150 277C155.399 277 159.967 278.454 163.705 281.361C167.858 284.269 171.18 285.723 173.672 285.723C176.579 285.723 179.694 286.969 183.016 289.461C186.339 291.953 188 295.484 188 300.053C188 305.037 184.885 309.399 178.656 313.137C177.825 313.968 176.164 315.422 173.672 317.498C171.596 319.575 170.557 322.068 170.557 324.975V354.882C170.557 356.958 173.049 360.904 178.033 366.72C183.432 372.119 186.131 377.104 186.131 381.673C186.131 386.242 183.432 391.434 178.033 397.249C173.049 402.649 170.557 406.387 170.557 408.464V437.748C170.557 440.655 171.596 443.147 173.672 445.224C176.164 447.301 177.825 448.755 178.656 449.586C184.885 453.324 188 457.685 188 462.67C188 466.823 186.339 470.354 183.016 473.262C180.109 475.754 176.372 477 171.803 477C168.481 477 164.951 476.169 161.213 474.508C157.475 472.431 153.738 471.393 150 471.393C146.262 471.393 142.525 472.431 138.787 474.508C135.049 476.169 131.519 477 128.197 477ZM138 301C138 294.373 143.373 289 150 289C156.627 289 162 294.373 162 301C162 305.843 159.131 310.016 155 311.912V358H145V311.912C140.869 310.016 138 305.843 138 301ZM135 373C135 375.761 137.239 378 140 378H160C162.761 378 165 375.761 165 373C165 370.239 162.761 368 160 368H140C137.239 368 135 370.239 135 373ZM140 395C137.239 395 135 392.761 135 390C135 387.239 137.239 385 140 385H160C162.761 385 165 387.239 165 390C165 392.761 162.761 395 160 395H140ZM150 458C152.761 458 155 455.761 155 453V405H145V453C145 455.761 147.239 458 150 458Z" fill="#969696"/>
<path fill-rule="evenodd" clip-rule="evenodd" d="M128.197 235C123.628 235 119.683 233.754 116.361 231.262C113.454 228.354 112 224.823 112 220.67C112 215.685 115.115 211.324 121.344 207.586L125.705 203.224C128.197 201.147 129.443 198.655 129.443 195.748V166.464C129.443 164.387 126.743 160.649 121.344 155.249C116.361 149.434 113.869 144.242 113.869 139.673C113.869 135.104 116.361 130.119 121.344 124.72C126.743 118.904 129.443 114.958 129.443 112.882V82.9751C129.443 80.0675 128.197 77.5753 125.705 75.4984L121.344 71.1371C115.115 67.3988 112 63.0374 112 58.053C112 53.4839 113.661 49.9533 116.984 47.4611C120.306 44.9688 123.421 43.7228 126.328 43.7228C128.82 43.7228 131.934 42.269 135.672 39.3614C139.825 36.4538 144.601 35 150 35C155.399 35 159.967 36.4538 163.705 39.3614C167.858 42.269 171.18 43.7228 173.672 43.7228C176.579 43.7228 179.694 44.9688 183.016 47.4611C186.339 49.9533 188 53.4839 188 58.053C188 63.0374 184.885 67.3988 178.656 71.1371C177.825 71.9678 176.164 73.4216 173.672 75.4984C171.596 77.5753 170.557 80.0675 170.557 82.9751V112.882C170.557 114.958 173.049 118.904 178.033 124.72C183.432 130.119 186.131 135.104 186.131 139.673C186.131 144.242 183.432 149.434 178.033 155.249C173.049 160.649 170.557 164.387 170.557 166.464V195.748C170.557 198.655 171.596 201.147 173.672 203.224C176.164 205.301 177.825 206.755 178.656 207.586C184.885 211.324 188 215.685 188 220.67C188 224.823 186.339 228.354 183.016 231.262C180.109 233.754 176.372 235 171.803 235C168.481 235 164.951 234.169 161.213 232.508C157.475 230.431 153.738 229.393 150 229.393C146.262 229.393 142.525 230.431 138.787 232.508C135.049 234.169 131.519 235 128.197 235ZM138 59C138 52.3726 143.373 47 150 47C156.627 47 162 52.3726 162 59C162 63.843 159.131 68.0159 155 69.9119V116H145V69.9119C140.869 68.0159 138 63.843 138 59ZM135 131C135 133.761 137.239 136 140 136H160C162.761 136 165 133.761 165 131C165 128.239 162.761 126 160 126H140C137.239 126 135 128.239 135 131ZM140 153C137.239 153 135 150.761 135 148C135 145.239 137.239 143 140 143H160C162.761 143 165 145.239 165 148C165 150.761 162.761 153 160 153H140ZM150 216C152.761 216 155 213.761 155 211V163H145V211C145 213.761 147.239 216 150 216Z" fill="#969696"/>
<path d="M334.051 450.293C334.881 449.463 336.337 448.007 338.412 445.931L336.998 444.517C334.92 446.595 333.469 448.047 332.637 448.879L334.051 450.293ZM338.412 316.791C336.336 314.715 334.881 313.26 334.051 312.43L332.637 313.844C333.468 314.675 334.921 316.128 336.998 318.205L338.412 316.791ZM334.051 208.293C334.878 207.466 336.34 206.004 338.412 203.931L336.998 202.517C334.917 204.598 333.472 206.044 332.637 206.879L334.051 208.293ZM338.412 74.7914C336.336 72.7148 334.882 71.2605 334.051 70.43L332.637 71.8441C333.468 72.6752 334.921 74.1283 336.998 76.2055L338.412 74.7914ZM122.051 450.293C122.881 449.463 124.336 448.008 126.412 445.931L124.998 444.517C122.921 446.595 121.468 448.047 120.637 448.879L122.051 450.293ZM126.412 316.791C124.337 314.716 122.881 313.26 122.051 312.43L120.637 313.844C121.469 314.676 122.92 316.127 124.998 318.205L126.412 316.791ZM122.051 208.293C122.879 207.465 124.339 206.005 126.412 203.931L124.998 202.517C122.918 204.597 121.471 206.045 120.637 206.879L122.051 208.293ZM126.412 74.7914C124.336 72.7152 122.881 71.26 122.051 70.43L120.637 71.8441C121.468 72.6756 122.921 74.1279 124.998 76.2055L126.412 74.7914ZM328.361 473.262L326.946 474.676L327.047 474.776L327.161 474.862L328.361 473.262ZM333.344 449.586L334.373 451.301L334.585 451.174L334.759 451L333.344 449.586ZM337.705 445.224L336.424 443.688L336.355 443.746L336.291 443.81L337.705 445.224ZM333.344 397.249L331.826 398.551L331.876 398.609L331.93 398.663L333.344 397.249ZM333.344 366.72L331.879 365.359L331.875 365.363L333.344 366.72ZM337.705 317.498L336.291 318.913L336.355 318.977L336.424 319.035L337.705 317.498ZM333.344 313.137L334.759 311.723L334.585 311.549L334.373 311.422L333.344 313.137ZM347.672 281.361L346.525 279.723L346.484 279.752L346.444 279.783L347.672 281.361ZM375.705 281.361L374.477 282.94L374.517 282.971L374.558 283L375.705 281.361ZM390.656 313.137L389.627 311.422L389.416 311.549L389.241 311.723L390.656 313.137ZM385.672 317.498L384.392 315.962L384.322 316.02L384.258 316.084L385.672 317.498ZM390.033 366.72L388.514 368.021L388.564 368.079L388.618 368.134L390.033 366.72ZM390.033 397.249L388.567 395.888L388.563 395.893L390.033 397.249ZM385.672 445.224L384.258 446.638L384.322 446.703L384.392 446.761L385.672 445.224ZM390.656 449.586L389.241 451L389.416 451.174L389.627 451.301L390.656 449.586ZM395.016 473.262L396.318 474.78L396.326 474.773L396.334 474.767L395.016 473.262ZM373.213 474.508L372.242 476.256L372.319 476.299L372.401 476.335L373.213 474.508ZM350.787 474.508L351.599 476.335L351.681 476.299L351.758 476.256L350.787 474.508ZM367 358V360H369V358H367ZM357 358H355V360H357V358ZM357 405V403H355V405H357ZM367 405H369V403H367V405ZM357 311.912H359V310.629L357.834 310.094L357 311.912ZM367 311.912L366.166 310.094L365 310.629V311.912H367ZM328.361 231.262L326.946 232.676L327.047 232.776L327.161 232.862L328.361 231.262ZM333.344 207.586L334.373 209.301L334.585 209.174L334.759 209L333.344 207.586ZM337.705 203.224L336.424 201.688L336.355 201.746L336.291 201.81L337.705 203.224ZM333.344 155.249L331.826 156.551L331.876 156.609L331.93 156.663L333.344 155.249ZM333.344 124.72L331.879 123.359L331.875 123.363L333.344 124.72ZM337.705 75.4984L336.291 76.9125L336.355 76.9767L336.424 77.0348L337.705 75.4984ZM333.344 71.1371L334.759 69.723L334.585 69.5489L334.373 69.4222L333.344 71.1371ZM347.672 39.3614L346.525 37.723L346.484 37.7519L346.444 37.7828L347.672 39.3614ZM375.705 39.3614L374.477 40.94L374.517 40.9709L374.558 40.9998L375.705 39.3614ZM390.656 71.1371L389.627 69.4222L389.416 69.5489L389.241 69.723L390.656 71.1371ZM385.672 75.4984L384.392 73.9621L384.322 74.0202L384.258 74.0843L385.672 75.4984ZM390.033 124.72L388.514 126.021L388.564 126.079L388.618 126.134L390.033 124.72ZM390.033 155.249L388.567 153.888L388.563 153.893L390.033 155.249ZM385.672 203.224L384.258 204.638L384.322 204.703L384.392 204.761L385.672 203.224ZM390.656 207.586L389.241 209L389.416 209.174L389.627 209.301L390.656 207.586ZM395.016 231.262L396.318 232.78L396.326 232.773L396.334 232.767L395.016 231.262ZM373.213 232.508L372.242 234.256L372.319 234.299L372.401 234.335L373.213 232.508ZM350.787 232.508L351.599 234.335L351.681 234.299L351.758 234.256L350.787 232.508ZM367 116V118H369V116H367ZM357 116H355V118H357V116ZM357 163V161H355V163H357ZM367 163H369V161H367V163ZM357 69.9119H359V68.6293L357.834 68.0942L357 69.9119ZM367 69.9119L366.166 68.0942L365 68.6293V69.9119H367ZM116.361 473.262L114.946 474.676L115.047 474.776L115.161 474.862L116.361 473.262ZM121.344 449.586L122.373 451.301L122.585 451.174L122.759 451L121.344 449.586ZM125.705 445.224L124.424 443.688L124.355 443.746L124.291 443.81L125.705 445.224ZM121.344 397.249L119.826 398.551L119.876 398.609L119.93 398.663L121.344 397.249ZM121.344 366.72L119.879 365.359L119.875 365.363L121.344 366.72ZM125.705 317.498L124.291 318.913L124.355 318.977L124.424 319.035L125.705 317.498ZM121.344 313.137L122.759 311.723L122.585 311.549L122.373 311.422L121.344 313.137ZM135.672 281.361L134.525 279.723L134.484 279.752L134.444 279.783L135.672 281.361ZM163.705 281.361L162.477 282.94L162.517 282.971L162.558 283L163.705 281.361ZM178.656 313.137L177.627 311.422L177.416 311.549L177.241 311.723L178.656 313.137ZM173.672 317.498L172.392 315.962L172.322 316.02L172.258 316.084L173.672 317.498ZM178.033 366.72L176.514 368.021L176.564 368.079L176.618 368.134L178.033 366.72ZM178.033 397.249L176.567 395.888L176.563 395.893L178.033 397.249ZM173.672 445.224L172.258 446.638L172.322 446.703L172.392 446.761L173.672 445.224ZM178.656 449.586L177.241 451L177.416 451.174L177.627 451.301L178.656 449.586ZM183.016 473.262L184.318 474.78L184.326 474.773L184.334 474.767L183.016 473.262ZM161.213 474.508L160.242 476.256L160.319 476.299L160.401 476.335L161.213 474.508ZM138.787 474.508L139.599 476.335L139.681 476.299L139.758 476.256L138.787 474.508ZM155 358V360H157V358H155ZM145 358H143V360H145V358ZM145 405V403H143V405H145ZM155 405H157V403H155V405ZM145 311.912H147V310.629L145.834 310.094L145 311.912ZM155 311.912L154.166 310.094L153 310.629V311.912H155ZM116.361 231.262L114.946 232.676L115.047 232.776L115.161 232.862L116.361 231.262ZM121.344 207.586L122.373 209.301L122.585 209.174L122.759 209L121.344 207.586ZM125.705 203.224L124.424 201.688L124.355 201.746L124.291 201.81L125.705 203.224ZM121.344 155.249L119.826 156.551L119.876 156.609L119.93 156.663L121.344 155.249ZM121.344 124.72L119.879 123.359L119.875 123.363L121.344 124.72ZM125.705 75.4984L124.291 76.9125L124.355 76.9767L124.424 77.0348L125.705 75.4984ZM121.344 71.1371L122.759 69.723L122.585 69.5489L122.373 69.4222L121.344 71.1371ZM135.672 39.3614L134.525 37.723L134.484 37.7519L134.444 37.7828L135.672 39.3614ZM163.705 39.3614L162.477 40.94L162.517 40.9709L162.558 40.9998L163.705 39.3614ZM178.656 71.1371L177.627 69.4222L177.416 69.5489L177.241 69.723L178.656 71.1371ZM173.672 75.4984L172.392 73.9621L172.322 74.0202L172.258 74.0843L173.672 75.4984ZM178.033 124.72L176.514 126.021L176.564 126.079L176.618 126.134L178.033 124.72ZM178.033 155.249L176.567 153.888L176.563 153.893L178.033 155.249ZM173.672 203.224L172.258 204.638L172.322 204.703L172.392 204.761L173.672 203.224ZM178.656 207.586L177.241 209L177.416 209.174L177.627 209.301L178.656 207.586ZM183.016 231.262L184.318 232.78L184.326 232.773L184.334 232.767L183.016 231.262ZM161.213 232.508L160.242 234.256L160.319 234.299L160.401 234.335L161.213 232.508ZM138.787 232.508L139.599 234.335L139.681 234.299L139.758 234.256L138.787 232.508ZM155 116V118H157V116H155ZM145 116H143V118H145V116ZM145 163V161H143V163H145ZM155 163H157V161H155V163ZM145 69.9119H147V68.6293L145.834 68.0942L145 69.9119ZM155 69.9119L154.166 68.0942L153 68.6293V69.9119H155ZM340.197 475C336.016 475 332.502 473.868 329.561 471.662L327.161 474.862C330.864 477.64 335.241 479 340.197 479V475ZM329.775 471.848C327.247 469.319 326 466.299 326 462.67H322C322 467.348 323.66 471.389 326.946 474.676L329.775 471.848ZM326 462.67C326 458.679 328.445 454.858 334.373 451.301L332.315 447.871C325.784 451.79 322 456.691 322 462.67H326ZM338.985 446.761C341.874 444.353 343.443 441.322 343.443 437.748H339.443C339.443 439.988 338.52 441.942 336.424 443.688L338.985 446.761ZM343.443 437.748V408.464H339.443V437.748H343.443ZM343.443 408.464C343.443 407.539 343.15 406.614 342.751 405.753C342.342 404.873 341.759 403.929 341.039 402.932C339.6 400.939 337.491 398.568 334.759 395.835L331.93 398.663C334.596 401.33 336.536 403.529 337.797 405.274C338.426 406.146 338.856 406.864 339.122 407.437C339.397 408.029 339.443 408.351 339.443 408.464H343.443ZM334.863 395.948C329.996 390.269 327.869 385.533 327.869 381.673H323.869C323.869 386.951 326.725 392.599 331.826 398.551L334.863 395.948ZM327.869 381.673C327.869 377.836 329.975 373.32 334.814 368.076L331.875 365.363C326.747 370.919 323.869 376.371 323.869 381.673H327.869ZM334.81 368.08C337.539 365.141 339.639 362.618 341.069 360.528C341.784 359.483 342.359 358.506 342.762 357.608C343.154 356.732 343.443 355.8 343.443 354.882H339.443C339.443 355.001 339.394 355.341 339.111 355.972C338.839 356.579 338.402 357.342 337.767 358.27C336.498 360.125 334.548 362.483 331.879 365.359L334.81 368.08ZM343.443 354.882V324.975H339.443V354.882H343.443ZM343.443 324.975C343.443 321.401 341.874 318.369 338.985 315.962L336.424 319.035C338.52 320.781 339.443 322.734 339.443 324.975H343.443ZM334.373 311.422C328.445 307.865 326 304.043 326 300.053H322C322 306.031 325.784 310.933 332.315 314.852L334.373 311.422ZM326 300.053C326 296.041 327.42 293.134 330.184 291.061L327.783 287.861C323.902 290.773 322 294.927 322 300.053H326ZM330.184 291.061C333.304 288.721 336.004 287.723 338.328 287.723V283.723C334.837 283.723 331.308 285.217 327.783 287.861L330.184 291.061ZM338.328 287.723C341.517 287.723 345.084 285.909 348.9 282.94L346.444 279.783C342.785 282.629 340.122 283.723 338.328 283.723V287.723ZM348.819 283C352.614 280.343 356.983 279 362 279V275C356.219 275 351.037 276.564 346.525 279.723L348.819 283ZM362 279C367.019 279 371.139 280.343 374.477 282.94L376.933 279.783C372.796 276.564 367.778 275 362 275V279ZM374.558 283C378.761 285.942 382.522 287.723 385.672 287.723V283.723C383.839 283.723 380.955 282.596 376.852 279.723L374.558 283ZM385.672 287.723C387.996 287.723 390.696 288.721 393.816 291.061L396.217 287.861C392.692 285.217 389.163 283.723 385.672 283.723V287.723ZM393.816 291.061C396.58 293.134 398 296.041 398 300.053H402C402 294.927 400.098 290.773 396.217 287.861L393.816 291.061ZM398 300.053C398 304.043 395.555 307.865 389.627 311.422L391.685 314.852C398.216 310.933 402 306.031 402 300.053H398ZM389.241 311.723C388.484 312.48 386.891 313.879 384.392 315.962L386.953 319.035C389.437 316.964 391.166 315.455 392.07 314.551L389.241 311.723ZM384.258 316.084C381.811 318.532 380.557 321.531 380.557 324.975H384.557C384.557 322.604 385.381 320.619 387.086 318.913L384.258 316.084ZM380.557 324.975V354.882H384.557V324.975H380.557ZM380.557 354.882C380.557 355.77 380.816 356.682 381.177 357.554C381.546 358.447 382.075 359.421 382.735 360.467C384.055 362.557 385.994 365.08 388.514 368.021L391.551 365.418C389.088 362.544 387.289 360.187 386.117 358.331C385.532 357.403 385.126 356.638 384.873 356.025C384.611 355.392 384.557 355.032 384.557 354.882H380.557ZM388.618 368.134C393.88 373.396 396.131 377.896 396.131 381.673H400.131C400.131 376.312 396.983 370.843 391.447 365.306L388.618 368.134ZM396.131 381.673C396.131 385.476 393.855 390.193 388.567 395.888L391.499 398.61C397.008 392.675 400.131 387.007 400.131 381.673H396.131ZM388.563 395.893C386.039 398.628 384.091 401 382.762 402.994C381.499 404.888 380.557 406.779 380.557 408.464H384.557C384.557 408.072 384.861 407.056 386.09 405.212C387.253 403.467 389.043 401.27 391.503 398.606L388.563 395.893ZM380.557 408.464V437.748H384.557V408.464H380.557ZM380.557 437.748C380.557 441.192 381.811 444.191 384.258 446.638L387.086 443.81C385.381 442.104 384.557 440.119 384.557 437.748H380.557ZM384.392 446.761C386.891 448.844 388.484 450.243 389.241 451L392.07 448.172C391.166 447.267 389.437 445.759 386.953 443.688L384.392 446.761ZM389.627 451.301C395.555 454.858 398 458.679 398 462.67H402C402 456.691 398.216 451.79 391.685 447.871L389.627 451.301ZM398 462.67C398 466.207 396.619 469.202 393.699 471.757L396.334 474.767C400.059 471.506 402 467.44 402 462.67H398ZM393.715 471.743C391.237 473.867 387.991 475 383.803 475V479C388.752 479 392.981 477.641 396.318 474.78L393.715 471.743ZM383.803 475C380.818 475 377.565 474.254 374.026 472.68L372.401 476.335C376.337 478.085 380.144 479 383.803 479V475ZM374.185 472.76C370.193 470.542 366.124 469.393 362 469.393V473.393C365.351 473.393 368.758 474.32 372.242 476.256L374.185 472.76ZM362 469.393C357.876 469.393 353.807 470.542 349.815 472.76L351.758 476.256C355.242 474.32 358.649 473.393 362 473.393V469.393ZM349.974 472.68C346.435 474.254 343.182 475 340.197 475V479C343.856 479 347.663 478.085 351.599 476.335L349.974 472.68ZM331.93 314.551L336.291 318.913L339.119 316.084L334.759 311.723L331.93 314.551ZM336.291 443.81L331.93 448.172L334.759 451L339.119 446.638L336.291 443.81ZM352 301C352 295.477 356.477 291 362 291V287C354.268 287 348 293.268 348 301H352ZM362 291C367.523 291 372 295.477 372 301H376C376 293.268 369.732 287 362 287V291ZM352 376C350.343 376 349 374.657 349 373H345C345 376.866 348.134 380 352 380V376ZM349 373C349 371.343 350.343 370 352 370V366C348.134 366 345 369.134 345 373H349ZM375 373C375 374.657 373.657 376 372 376V380C375.866 380 379 376.866 379 373H375ZM372 370C373.657 370 375 371.343 375 373H379C379 369.134 375.866 366 372 366V370ZM352 393C350.343 393 349 391.657 349 390H345C345 393.866 348.134 397 352 397V393ZM349 390C349 388.343 350.343 387 352 387V383C348.134 383 345 386.134 345 390H349ZM365 453C365 454.657 363.657 456 362 456V460C365.866 460 369 456.866 369 453H365ZM362 456C360.343 456 359 454.657 359 453H355C355 456.866 358.134 460 362 460V456ZM375 390C375 391.657 373.657 393 372 393V397C375.866 397 379 393.866 379 390H375ZM372 387C373.657 387 375 388.343 375 390H379C379 386.134 375.866 383 372 383V387ZM367 356H357V360H367V356ZM357 407H367V403H357V407ZM365 405V453H369V405H365ZM359 453V405H355V453H359ZM352 370H372V366H352V370ZM372 376H352V380H372V376ZM352 387H372V383H352V387ZM372 393H352V397H372V393ZM359 358V311.912H355V358H359ZM357.834 310.094C354.387 308.512 352 305.033 352 301H348C348 306.653 351.351 311.52 356.166 313.73L357.834 310.094ZM365 311.912V358H369V311.912H365ZM372 301C372 305.033 369.613 308.512 366.166 310.094L367.834 313.73C372.649 311.52 376 306.653 376 301H372ZM340.197 233C336.016 233 332.502 231.868 329.561 229.662L327.161 232.862C330.864 235.64 335.241 237 340.197 237V233ZM329.775 229.848C327.247 227.319 326 224.299 326 220.67H322C322 225.348 323.66 229.389 326.946 232.676L329.775 229.848ZM326 220.67C326 216.679 328.445 212.858 334.373 209.301L332.315 205.871C325.784 209.79 322 214.691 322 220.67H326ZM338.985 204.761C341.874 202.353 343.443 199.322 343.443 195.748H339.443C339.443 197.988 338.52 199.942 336.424 201.688L338.985 204.761ZM343.443 195.748V166.464H339.443V195.748H343.443ZM343.443 166.464C343.443 165.539 343.15 164.614 342.751 163.753C342.342 162.873 341.759 161.929 341.039 160.932C339.6 158.939 337.491 156.568 334.759 153.835L331.93 156.663C334.596 159.33 336.536 161.529 337.797 163.274C338.426 164.146 338.856 164.864 339.122 165.437C339.397 166.029 339.443 166.351 339.443 166.464H343.443ZM334.863 153.948C329.996 148.269 327.869 143.533 327.869 139.673H323.869C323.869 144.951 326.725 150.599 331.826 156.551L334.863 153.948ZM327.869 139.673C327.869 135.836 329.975 131.32 334.814 126.076L331.875 123.363C326.747 128.919 323.869 134.371 323.869 139.673H327.869ZM334.81 126.08C337.539 123.141 339.639 120.618 341.069 118.528C341.784 117.483 342.359 116.506 342.762 115.608C343.154 114.732 343.443 113.8 343.443 112.882H339.443C339.443 113.001 339.394 113.341 339.111 113.972C338.839 114.579 338.402 115.342 337.767 116.27C336.498 118.125 334.548 120.483 331.879 123.359L334.81 126.08ZM343.443 112.882V82.9751H339.443V112.882H343.443ZM343.443 82.9751C343.443 79.4007 341.874 76.3694 338.985 73.9621L336.424 77.0348C338.52 78.7812 339.443 80.7343 339.443 82.9751H343.443ZM334.373 69.4222C328.445 65.8647 326 62.0435 326 58.053H322C322 64.0313 325.784 68.9328 332.315 72.852L334.373 69.4222ZM326 58.053C326 54.0406 327.42 51.1339 330.184 49.061L327.783 45.8612C323.902 48.7727 322 52.9272 322 58.053H326ZM330.184 49.061C333.304 46.7206 336.004 45.7228 338.328 45.7228V41.7228C334.837 41.7228 331.308 43.2171 327.783 45.8612L330.184 49.061ZM338.328 45.7228C341.517 45.7228 345.084 43.9089 348.9 40.94L346.444 37.7828C342.785 40.629 340.122 41.7228 338.328 41.7228V45.7228ZM348.819 40.9998C352.614 38.3432 356.983 37 362 37V33C356.219 33 351.037 34.5644 346.525 37.723L348.819 40.9998ZM362 37C367.019 37 371.139 38.3431 374.477 40.94L376.933 37.7828C372.796 34.5645 367.778 33 362 33V37ZM374.558 40.9998C378.761 43.9422 382.522 45.7228 385.672 45.7228V41.7228C383.839 41.7228 380.955 40.5957 376.852 37.723L374.558 40.9998ZM385.672 45.7228C387.996 45.7228 390.696 46.7206 393.816 49.061L396.217 45.8612C392.692 43.2171 389.163 41.7228 385.672 41.7228V45.7228ZM393.816 49.061C396.58 51.1339 398 54.0406 398 58.053H402C402 52.9272 400.098 48.7727 396.217 45.8612L393.816 49.061ZM398 58.053C398 62.0435 395.555 65.8647 389.627 69.4222L391.685 72.852C398.216 68.9328 402 64.0313 402 58.053H398ZM389.241 69.723C388.484 70.4803 386.891 71.8792 384.392 73.9621L386.953 77.0348C389.437 74.964 391.166 73.4554 392.07 72.5512L389.241 69.723ZM384.258 74.0843C381.811 76.532 380.557 79.5311 380.557 82.9751H384.557C384.557 80.6039 385.381 78.6186 387.086 76.9125L384.258 74.0843ZM380.557 82.9751V112.882H384.557V82.9751H380.557ZM380.557 112.882C380.557 113.77 380.816 114.682 381.177 115.554C381.546 116.447 382.075 117.421 382.735 118.467C384.055 120.557 385.994 123.08 388.514 126.021L391.551 123.418C389.088 120.544 387.289 118.187 386.117 116.331C385.532 115.403 385.126 114.638 384.873 114.025C384.611 113.392 384.557 113.032 384.557 112.882H380.557ZM388.618 126.134C393.88 131.396 396.131 135.896 396.131 139.673H400.131C400.131 134.312 396.983 128.843 391.447 123.306L388.618 126.134ZM396.131 139.673C396.131 143.476 393.855 148.193 388.567 153.888L391.499 156.61C397.008 150.675 400.131 145.007 400.131 139.673H396.131ZM388.563 153.893C386.039 156.628 384.091 159 382.762 160.994C381.499 162.888 380.557 164.779 380.557 166.464H384.557C384.557 166.072 384.861 165.056 386.09 163.212C387.253 161.468 389.043 159.27 391.503 156.606L388.563 153.893ZM380.557 166.464V195.748H384.557V166.464H380.557ZM380.557 195.748C380.557 199.192 381.811 202.191 384.258 204.638L387.086 201.81C385.381 200.104 384.557 198.119 384.557 195.748H380.557ZM384.392 204.761C386.891 206.844 388.484 208.243 389.241 209L392.07 206.172C391.166 205.267 389.437 203.759 386.953 201.688L384.392 204.761ZM389.627 209.301C395.555 212.858 398 216.679 398 220.67H402C402 214.691 398.216 209.79 391.685 205.871L389.627 209.301ZM398 220.67C398 224.207 396.619 227.202 393.699 229.757L396.334 232.767C400.059 229.506 402 225.44 402 220.67H398ZM393.715 229.743C391.237 231.867 387.991 233 383.803 233V237C388.752 237 392.981 235.641 396.318 232.78L393.715 229.743ZM383.803 233C380.818 233 377.565 232.254 374.026 230.68L372.401 234.335C376.337 236.085 380.144 237 383.803 237V233ZM374.185 230.76C370.193 228.542 366.124 227.393 362 227.393V231.393C365.351 231.393 368.758 232.32 372.242 234.256L374.185 230.76ZM362 227.393C357.876 227.393 353.807 228.542 349.815 230.76L351.758 234.256C355.242 232.32 358.649 231.393 362 231.393V227.393ZM349.974 230.68C346.435 232.254 343.182 233 340.197 233V237C343.856 237 347.663 236.085 351.599 234.335L349.974 230.68ZM331.93 72.5512L336.291 76.9125L339.119 74.0843L334.759 69.723L331.93 72.5512ZM336.291 201.81L331.93 206.172L334.759 209L339.119 204.638L336.291 201.81ZM352 59C352 53.4772 356.477 49 362 49V45C354.268 45 348 51.268 348 59H352ZM362 49C367.523 49 372 53.4772 372 59H376C376 51.268 369.732 45 362 45V49ZM352 134C350.343 134 349 132.657 349 131H345C345 134.866 348.134 138 352 138V134ZM349 131C349 129.343 350.343 128 352 128V124C348.134 124 345 127.134 345 131H349ZM375 131C375 132.657 373.657 134 372 134V138C375.866 138 379 134.866 379 131H375ZM372 128C373.657 128 375 129.343 375 131H379C379 127.134 375.866 124 372 124V128ZM352 151C350.343 151 349 149.657 349 148H345C345 151.866 348.134 155 352 155V151ZM349 148C349 146.343 350.343 145 352 145V141C348.134 141 345 144.134 345 148H349ZM365 211C365 212.657 363.657 214 362 214V218C365.866 218 369 214.866 369 211H365ZM362 214C360.343 214 359 212.657 359 211H355C355 214.866 358.134 218 362 218V214ZM375 148C375 149.657 373.657 151 372 151V155C375.866 155 379 151.866 379 148H375ZM372 145C373.657 145 375 146.343 375 148H379C379 144.134 375.866 141 372 141V145ZM367 114H357V118H367V114ZM357 165H367V161H357V165ZM365 163V211H369V163H365ZM359 211V163H355V211H359ZM352 128H372V124H352V128ZM372 134H352V138H372V134ZM352 145H372V141H352V145ZM372 151H352V155H372V151ZM359 116V69.9119H355V116H359ZM357.834 68.0942C354.387 66.5122 352 63.0328 352 59H348C348 64.6532 351.351 69.5196 356.166 71.7296L357.834 68.0942ZM365 69.9119V116H369V69.9119H365ZM372 59C372 63.0328 369.613 66.5122 366.166 68.0942L367.834 71.7296C372.649 69.5196 376 64.6532 376 59H372ZM128.197 475C124.016 475 120.502 473.868 117.561 471.662L115.161 474.862C118.864 477.64 123.241 479 128.197 479V475ZM117.775 471.848C115.247 469.319 114 466.299 114 462.67H110C110 467.348 111.66 471.389 114.946 474.676L117.775 471.848ZM114 462.67C114 458.679 116.445 454.858 122.373 451.301L120.315 447.871C113.784 451.79 110 456.691 110 462.67H114ZM126.985 446.761C129.874 444.353 131.443 441.322 131.443 437.748H127.443C127.443 439.988 126.52 441.942 124.424 443.688L126.985 446.761ZM131.443 437.748V408.464H127.443V437.748H131.443ZM131.443 408.464C131.443 407.539 131.15 406.614 130.751 405.753C130.342 404.873 129.759 403.929 129.039 402.932C127.6 400.939 125.491 398.568 122.759 395.835L119.93 398.663C122.596 401.33 124.536 403.529 125.797 405.274C126.426 406.146 126.856 406.864 127.122 407.437C127.397 408.029 127.443 408.351 127.443 408.464H131.443ZM122.863 395.948C117.996 390.269 115.869 385.533 115.869 381.673H111.869C111.869 386.951 114.725 392.599 119.826 398.551L122.863 395.948ZM115.869 381.673C115.869 377.836 117.975 373.32 122.814 368.076L119.875 365.363C114.747 370.919 111.869 376.371 111.869 381.673H115.869ZM122.81 368.08C125.539 365.141 127.639 362.618 129.069 360.528C129.784 359.483 130.359 358.506 130.762 357.608C131.154 356.732 131.443 355.8 131.443 354.882H127.443C127.443 355.001 127.394 355.341 127.111 355.972C126.839 356.579 126.402 357.342 125.767 358.27C124.498 360.125 122.548 362.483 119.879 365.359L122.81 368.08ZM131.443 354.882V324.975H127.443V354.882H131.443ZM131.443 324.975C131.443 321.401 129.874 318.369 126.985 315.962L124.424 319.035C126.52 320.781 127.443 322.734 127.443 324.975H131.443ZM122.373 311.422C116.445 307.865 114 304.043 114 300.053H110C110 306.031 113.784 310.933 120.315 314.852L122.373 311.422ZM114 300.053C114 296.041 115.42 293.134 118.184 291.061L115.783 287.861C111.902 290.773 110 294.927 110 300.053H114ZM118.184 291.061C121.304 288.721 124.004 287.723 126.328 287.723V283.723C122.837 283.723 119.308 285.217 115.783 287.861L118.184 291.061ZM126.328 287.723C129.517 287.723 133.084 285.909 136.9 282.94L134.444 279.783C130.785 282.629 128.122 283.723 126.328 283.723V287.723ZM136.819 283C140.614 280.343 144.983 279 150 279V275C144.219 275 139.037 276.564 134.525 279.723L136.819 283ZM150 279C155.019 279 159.139 280.343 162.477 282.94L164.933 279.783C160.796 276.564 155.778 275 150 275V279ZM162.558 283C166.761 285.942 170.522 287.723 173.672 287.723V283.723C171.839 283.723 168.955 282.596 164.852 279.723L162.558 283ZM173.672 287.723C175.996 287.723 178.696 288.721 181.816 291.061L184.217 287.861C180.692 285.217 177.163 283.723 173.672 283.723V287.723ZM181.816 291.061C184.58 293.134 186 296.041 186 300.053H190C190 294.927 188.098 290.773 184.217 287.861L181.816 291.061ZM186 300.053C186 304.043 183.555 307.865 177.627 311.422L179.685 314.852C186.216 310.933 190 306.031 190 300.053H186ZM177.241 311.723C176.484 312.48 174.891 313.879 172.392 315.962L174.953 319.035C177.437 316.964 179.166 315.455 180.07 314.551L177.241 311.723ZM172.258 316.084C169.811 318.532 168.557 321.531 168.557 324.975H172.557C172.557 322.604 173.381 320.619 175.086 318.913L172.258 316.084ZM168.557 324.975V354.882H172.557V324.975H168.557ZM168.557 354.882C168.557 355.77 168.816 356.682 169.177 357.554C169.546 358.447 170.075 359.421 170.735 360.467C172.055 362.557 173.994 365.08 176.514 368.021L179.551 365.418C177.088 362.544 175.289 360.187 174.117 358.331C173.532 357.403 173.126 356.638 172.873 356.025C172.611 355.392 172.557 355.032 172.557 354.882H168.557ZM176.618 368.134C181.88 373.396 184.131 377.896 184.131 381.673H188.131C188.131 376.312 184.983 370.843 179.447 365.306L176.618 368.134ZM184.131 381.673C184.131 385.476 181.855 390.193 176.567 395.888L179.498 398.61C185.008 392.675 188.131 387.007 188.131 381.673H184.131ZM176.563 395.893C174.039 398.628 172.091 401 170.762 402.994C169.5 404.888 168.557 406.779 168.557 408.464H172.557C172.557 408.072 172.861 407.056 174.09 405.212C175.253 403.467 177.043 401.27 179.503 398.606L176.563 395.893ZM168.557 408.464V437.748H172.557V408.464H168.557ZM168.557 437.748C168.557 441.192 169.811 444.191 172.258 446.638L175.086 443.81C173.381 442.104 172.557 440.119 172.557 437.748H168.557ZM172.392 446.761C174.891 448.844 176.484 450.243 177.241 451L180.07 448.172C179.166 447.267 177.437 445.759 174.953 443.688L172.392 446.761ZM177.627 451.301C183.555 454.858 186 458.679 186 462.67H190C190 456.691 186.216 451.79 179.685 447.871L177.627 451.301ZM186 462.67C186 466.207 184.619 469.202 181.699 471.757L184.334 474.767C188.059 471.506 190 467.44 190 462.67H186ZM181.715 471.743C179.237 473.867 175.991 475 171.803 475V479C176.752 479 180.981 477.641 184.318 474.78L181.715 471.743ZM171.803 475C168.818 475 165.565 474.254 162.026 472.68L160.401 476.335C164.337 478.085 168.144 479 171.803 479V475ZM162.185 472.76C158.193 470.542 154.124 469.393 150 469.393V473.393C153.351 473.393 156.758 474.32 160.242 476.256L162.185 472.76ZM150 469.393C145.876 469.393 141.807 470.542 137.815 472.76L139.758 476.256C143.242 474.32 146.649 473.393 150 473.393V469.393ZM137.974 472.68C134.435 474.254 131.182 475 128.197 475V479C131.856 479 135.663 478.085 139.599 476.335L137.974 472.68ZM119.93 314.551L124.291 318.913L127.119 316.084L122.759 311.723L119.93 314.551ZM124.291 443.81L119.93 448.172L122.759 451L127.119 446.638L124.291 443.81ZM140 301C140 295.477 144.477 291 150 291V287C142.268 287 136 293.268 136 301H140ZM150 291C155.523 291 160 295.477 160 301H164C164 293.268 157.732 287 150 287V291ZM140 376C138.343 376 137 374.657 137 373H133C133 376.866 136.134 380 140 380V376ZM137 373C137 371.343 138.343 370 140 370V366C136.134 366 133 369.134 133 373H137ZM163 373C163 374.657 161.657 376 160 376V380C163.866 380 167 376.866 167 373H163ZM160 370C161.657 370 163 371.343 163 373H167C167 369.134 163.866 366 160 366V370ZM140 393C138.343 393 137 391.657 137 390H133C133 393.866 136.134 397 140 397V393ZM137 390C137 388.343 138.343 387 140 387V383C136.134 383 133 386.134 133 390H137ZM153 453C153 454.657 151.657 456 150 456V460C153.866 460 157 456.866 157 453H153ZM150 456C148.343 456 147 454.657 147 453H143C143 456.866 146.134 460 150 460V456ZM163 390C163 391.657 161.657 393 160 393V397C163.866 397 167 393.866 167 390H163ZM160 387C161.657 387 163 388.343 163 390H167C167 386.134 163.866 383 160 383V387ZM155 356H145V360H155V356ZM145 407H155V403H145V407ZM153 405V453H157V405H153ZM147 453V405H143V453H147ZM140 370H160V366H140V370ZM160 376H140V380H160V376ZM140 387H160V383H140V387ZM160 393H140V397H160V393ZM147 358V311.912H143V358H147ZM145.834 310.094C142.387 308.512 140 305.033 140 301H136C136 306.653 139.351 311.52 144.166 313.73L145.834 310.094ZM153 311.912V358H157V311.912H153ZM160 301C160 305.033 157.613 308.512 154.166 310.094L155.834 313.73C160.649 311.52 164 306.653 164 301H160ZM128.197 233C124.016 233 120.502 231.868 117.561 229.662L115.161 232.862C118.864 235.64 123.241 237 128.197 237V233ZM117.775 229.848C115.247 227.319 114 224.299 114 220.67H110C110 225.348 111.66 229.389 114.946 232.676L117.775 229.848ZM114 220.67C114 216.679 116.445 212.858 122.373 209.301L120.315 205.871C113.784 209.79 110 214.691 110 220.67H114ZM126.985 204.761C129.874 202.353 131.443 199.322 131.443 195.748H127.443C127.443 197.988 126.52 199.942 124.424 201.688L126.985 204.761ZM131.443 195.748V166.464H127.443V195.748H131.443ZM131.443 166.464C131.443 165.539 131.15 164.614 130.751 163.753C130.342 162.873 129.759 161.929 129.039 160.932C127.6 158.939 125.491 156.568 122.759 153.835L119.93 156.663C122.596 159.33 124.536 161.529 125.797 163.274C126.426 164.146 126.856 164.864 127.122 165.437C127.397 166.029 127.443 166.351 127.443 166.464H131.443ZM122.863 153.948C117.996 148.269 115.869 143.533 115.869 139.673H111.869C111.869 144.951 114.725 150.599 119.826 156.551L122.863 153.948ZM115.869 139.673C115.869 135.836 117.975 131.32 122.814 126.076L119.875 123.363C114.747 128.919 111.869 134.371 111.869 139.673H115.869ZM122.81 126.08C125.539 123.141 127.639 120.618 129.069 118.528C129.784 117.483 130.359 116.506 130.762 115.608C131.154 114.732 131.443 113.8 131.443 112.882H127.443C127.443 113.001 127.394 113.341 127.111 113.972C126.839 114.579 126.402 115.342 125.767 116.27C124.498 118.125 122.548 120.483 119.879 123.359L122.81 126.08ZM131.443 112.882V82.9751H127.443V112.882H131.443ZM131.443 82.9751C131.443 79.4007 129.874 76.3694 126.985 73.9621L124.424 77.0348C126.52 78.7812 127.443 80.7343 127.443 82.9751H131.443ZM122.373 69.4222C116.445 65.8647 114 62.0435 114 58.053H110C110 64.0313 113.784 68.9328 120.315 72.852L122.373 69.4222ZM114 58.053C114 54.0406 115.42 51.1339 118.184 49.061L115.783 45.8612C111.902 48.7727 110 52.9272 110 58.053H114ZM118.184 49.061C121.304 46.7206 124.004 45.7228 126.328 45.7228V41.7228C122.837 41.7228 119.308 43.2171 115.783 45.8612L118.184 49.061ZM126.328 45.7228C129.517 45.7228 133.084 43.9089 136.9 40.94L134.444 37.7828C130.785 40.629 128.122 41.7228 126.328 41.7228V45.7228ZM136.819 40.9998C140.614 38.3432 144.983 37 150 37V33C144.219 33 139.037 34.5644 134.525 37.723L136.819 40.9998ZM150 37C155.019 37 159.139 38.3431 162.477 40.94L164.933 37.7828C160.796 34.5645 155.778 33 150 33V37ZM162.558 40.9998C166.761 43.9422 170.522 45.7228 173.672 45.7228V41.7228C171.839 41.7228 168.955 40.5957 164.852 37.723L162.558 40.9998ZM173.672 45.7228C175.996 45.7228 178.696 46.7206 181.816 49.061L184.217 45.8612C180.692 43.2171 177.163 41.7228 173.672 41.7228V45.7228ZM181.816 49.061C184.58 51.1339 186 54.0406 186 58.053H190C190 52.9272 188.098 48.7727 184.217 45.8612L181.816 49.061ZM186 58.053C186 62.0435 183.555 65.8647 177.627 69.4222L179.685 72.852C186.216 68.9328 190 64.0313 190 58.053H186ZM177.241 69.723C176.484 70.4803 174.891 71.8792 172.392 73.9621L174.953 77.0348C177.437 74.964 179.166 73.4554 180.07 72.5512L177.241 69.723ZM172.258 74.0843C169.811 76.532 168.557 79.5312 168.557 82.9751H172.557C172.557 80.6038 173.381 78.6186 175.086 76.9125L172.258 74.0843ZM168.557 82.9751V112.882H172.557V82.9751H168.557ZM168.557 112.882C168.557 113.77 168.816 114.682 169.177 115.554C169.546 116.447 170.075 117.421 170.735 118.467C172.055 120.557 173.994 123.08 176.514 126.021L179.551 123.418C177.088 120.544 175.289 118.187 174.117 116.331C173.532 115.403 173.126 114.638 172.873 114.025C172.611 113.392 172.557 113.032 172.557 112.882H168.557ZM176.618 126.134C181.88 131.396 184.131 135.896 184.131 139.673H188.131C188.131 134.312 184.983 128.843 179.447 123.306L176.618 126.134ZM184.131 139.673C184.131 143.476 181.855 148.193 176.567 153.888L179.498 156.61C185.008 150.675 188.131 145.007 188.131 139.673H184.131ZM176.563 153.893C174.039 156.628 172.091 159 170.762 160.994C169.5 162.888 168.557 164.779 168.557 166.464H172.557C172.557 166.072 172.861 165.056 174.09 163.212C175.253 161.468 177.043 159.27 179.503 156.606L176.563 153.893ZM168.557 166.464V195.748H172.557V166.464H168.557ZM168.557 195.748C168.557 199.192 169.811 202.191 172.258 204.638L175.086 201.81C173.381 200.104 172.557 198.119 172.557 195.748H168.557ZM172.392 204.761C174.891 206.844 176.484 208.243 177.241 209L180.07 206.172C179.166 205.267 177.437 203.759 174.953 201.688L172.392 204.761ZM177.627 209.301C183.555 212.858 186 216.679 186 220.67H190C190 214.691 186.216 209.79 179.685 205.871L177.627 209.301ZM186 220.67C186 224.207 184.619 227.202 181.699 229.757L184.334 232.767C188.059 229.506 190 225.44 190 220.67H186ZM181.715 229.743C179.237 231.867 175.991 233 171.803 233V237C176.752 237 180.981 235.641 184.318 232.78L181.715 229.743ZM171.803 233C168.818 233 165.565 232.254 162.026 230.68L160.401 234.335C164.337 236.085 168.144 237 171.803 237V233ZM162.185 230.76C158.193 228.542 154.124 227.393 150 227.393V231.393C153.351 231.393 156.758 232.32 160.242 234.256L162.185 230.76ZM150 227.393C145.876 227.393 141.807 228.542 137.815 230.76L139.758 234.256C143.242 232.32 146.649 231.393 150 231.393V227.393ZM137.974 230.68C134.435 232.254 131.182 233 128.197 233V237C131.856 237 135.663 236.085 139.599 234.335L137.974 230.68ZM119.93 72.5512L124.291 76.9125L127.119 74.0843L122.759 69.723L119.93 72.5512ZM124.291 201.81L119.93 206.172L122.759 209L127.119 204.638L124.291 201.81ZM140 59C140 53.4772 144.477 49 150 49V45C142.268 45 136 51.268 136 59H140ZM150 49C155.523 49 160 53.4772 160 59H164C164 51.268 157.732 45 150 45V49ZM140 134C138.343 134 137 132.657 137 131H133C133 134.866 136.134 138 140 138V134ZM137 131C137 129.343 138.343 128 140 128V124C136.134 124 133 127.134 133 131H137ZM163 131C163 132.657 161.657 134 160 134V138C163.866 138 167 134.866 167 131H163ZM160 128C161.657 128 163 129.343 163 131H167C167 127.134 163.866 124 160 124V128ZM140 151C138.343 151 137 149.657 137 148H133C133 151.866 136.134 155 140 155V151ZM137 148C137 146.343 138.343 145 140 145V141C136.134 141 133 144.134 133 148H137ZM153 211C153 212.657 151.657 214 150 214V218C153.866 218 157 214.866 157 211H153ZM150 214C148.343 214 147 212.657 147 211H143C143 214.866 146.134 218 150 218V214ZM163 148C163 149.657 161.657 151 160 151V155C163.866 155 167 151.866 167 148H163ZM160 145C161.657 145 163 146.343 163 148H167C167 144.134 163.866 141 160 141V145ZM155 114H145V118H155V114ZM145 165H155V161H145V165ZM153 163V211H157V163H153ZM147 211V163H143V211H147ZM140 128H160V124H140V128ZM160 134H140V138H160V134ZM140 145H160V141H140V145ZM160 151H140V155H160V151ZM147 116V69.9119H143V116H147ZM145.834 68.0942C142.387 66.5122 140 63.0328 140 59H136C136 64.6532 139.351 69.5196 144.166 71.7296L145.834 68.0942ZM153 69.9119V116H157V69.9119H153ZM160 59C160 63.0328 157.613 66.5122 154.166 68.0942L155.834 71.7296C160.649 69.5196 164 64.6532 164 59H160Z" fill="white" mask="url(#path-2-inside-1_170_436)"/>
<path d="M228.051 329.293L232.381 324.963C235.048 322.726 236.443 319.974 236.443 316.748V287.464C236.443 286.742 236.212 285.968 235.844 285.174C235.47 284.37 234.926 283.483 234.229 282.517C232.839 280.593 230.781 278.274 228.079 275.569C223.171 269.835 220.869 264.881 220.869 260.673C220.869 256.47 223.167 251.72 228.079 246.398C230.792 243.475 232.854 240.995 234.243 238.963C234.938 237.947 235.479 237.024 235.849 236.199C236.214 235.385 236.443 234.601 236.443 233.882V203.975C236.443 200.748 235.048 197.997 232.381 195.76L228.051 191.43L227.964 191.343L227.859 191.28C221.78 187.632 219 183.54 219 179.053C219 174.762 220.541 171.544 223.584 169.261C226.805 166.845 229.712 165.723 232.328 165.723C235.163 165.723 238.497 164.095 242.266 161.166C246.235 158.394 250.801 157 256 157C261.209 157 265.553 158.398 269.091 161.151L269.111 161.166L269.131 161.181C273.309 164.106 276.851 165.723 279.672 165.723C282.288 165.723 285.195 166.845 288.416 169.261C291.459 171.544 293 174.762 293 179.053C293 183.54 290.22 187.632 284.141 191.28L284.036 191.343L283.949 191.43C283.155 192.224 281.527 193.65 279.032 195.73L278.997 195.759L278.965 195.791C276.703 198.054 275.557 200.799 275.557 203.975V233.882C275.557 234.585 275.764 235.359 276.101 236.172C276.441 236.995 276.939 237.917 277.581 238.933C278.864 240.964 280.767 243.446 283.273 246.37L283.298 246.4L283.326 246.427C288.656 251.758 291.131 256.5 291.131 260.673C291.131 264.859 288.643 269.813 283.3 275.569L283.298 275.571C280.79 278.289 278.882 280.617 277.594 282.548C276.34 284.43 275.557 286.102 275.557 287.464V316.748C275.557 319.923 276.703 322.669 278.965 324.931L278.997 324.963L279.032 324.992C281.527 327.072 283.155 328.499 283.949 329.293L284.036 329.38L284.141 329.443C290.22 333.091 293 337.182 293 341.67C293 345.514 291.48 348.775 288.362 351.506C285.67 353.812 282.179 355 277.803 355C274.661 355 271.283 354.217 267.659 352.612C263.808 350.479 259.917 349.393 256 349.393C252.083 349.393 248.192 350.479 244.341 352.612C240.717 354.217 237.339 355 234.197 355C229.849 355 226.138 353.825 223.018 351.504C220.334 348.796 219 345.537 219 341.67C219 337.182 221.78 333.091 227.859 329.443L227.964 329.38L228.051 329.293ZM261 238H262V237V191.535C266.158 189.368 269 185.017 269 180C269 172.82 263.18 167 256 167C248.82 167 243 172.82 243 180C243 185.017 245.842 189.368 250 191.535V237V238H251H261ZM251 283H250V284V332C250 335.314 252.686 338 256 338C259.314 338 262 335.314 262 332V284V283H261H251ZM240 252C240 255.314 242.686 258 246 258H266C269.314 258 272 255.314 272 252C272 248.686 269.314 246 266 246H246C242.686 246 240 248.686 240 252ZM240 269C240 272.314 242.686 275 246 275H266C269.314 275 272 272.314 272 269C272 265.686 269.314 263 266 263H246C242.686 263 240 265.686 240 269Z" fill="#969696" stroke="white" stroke-width="2"/>
</svg>
