<svg width="512" height="512" viewBox="0 0 512 512" fill="none" xmlns="http://www.w3.org/2000/svg">
<path d="M1 1H511V511H1V1Z" fill="white" stroke="white" stroke-width="2"/>
<mask id="path-2-inside-1_170_511" fill="white">
<path d="M198.201 317.279C188.121 317.279 177.321 316.079 165.801 313.679C154.281 310.799 146.36 306.719 142.04 301.439C142.52 300.959 144.68 299.519 148.521 297.119C152.361 294.719 156.681 293.519 161.481 293.519C167.241 293.519 174.201 294.719 182.361 297.119C184.281 297.599 187.641 298.319 192.441 299.279C197.721 300.239 203.001 300.719 208.281 300.719C217.881 300.719 224.361 299.759 227.721 297.839C231.081 295.919 232.761 291.599 232.761 284.879C232.761 283.439 231.321 282.479 228.441 281.999C226.041 281.039 224.361 279.839 223.401 278.399C223.401 275.999 224.361 273.839 226.281 271.919C228.681 269.519 230.601 267.119 232.041 264.719C233.481 262.319 235.401 259.199 237.801 255.359C240.201 251.519 242.121 248.639 243.561 246.719C245.481 244.799 247.641 243.839 250.041 243.839C251.481 243.839 252.681 244.559 253.641 245.999C254.601 247.439 255.081 249.119 255.081 251.039C255.081 257.279 253.881 263.999 251.481 271.199C249.561 278.399 248.121 284.159 247.161 288.479C248.601 290.879 250.281 292.079 252.201 292.079C255.081 292.079 259.161 286.559 264.441 275.519C270.201 264.479 273.081 256.559 273.081 251.759C273.081 248.879 271.401 246.239 268.041 243.839C265.161 241.439 263.241 239.279 262.281 237.359C263.721 234.479 266.841 230.879 271.641 226.559C276.441 222.239 281.721 219.119 287.481 217.199C291.321 218.639 294.681 221.999 297.561 227.279C300.441 232.079 301.881 237.599 301.881 243.839C301.881 248.639 299.961 254.399 296.121 261.119C291.801 266.879 289.401 273.119 288.921 279.839C295.641 278.879 300.921 277.919 304.761 276.959C320.121 274.079 334.041 272.639 346.521 272.639C361.881 272.639 370.761 274.319 373.161 277.679C369.801 284.399 364.521 289.439 357.321 292.799C351.081 292.319 338.121 292.079 318.441 292.079C308.841 292.079 298.761 293.279 288.201 295.679C278.121 298.079 265.401 301.439 250.041 305.759C240.441 308.639 230.841 311.279 221.241 313.679C212.121 316.079 204.441 317.279 198.201 317.279ZM315.561 476.399C309.321 476.399 297.801 473.279 281.001 467.039C264.681 460.319 253.161 454.799 246.441 450.479C244.521 450.959 242.121 452.399 239.241 454.799C236.361 457.199 234.201 458.399 232.761 458.399C227.961 458.399 223.401 457.679 219.081 456.239C214.761 454.319 211.641 453.119 209.721 452.639C209.721 454.079 209.481 456.719 209.001 460.559C209.001 463.919 208.521 466.799 207.561 469.199C206.601 471.119 204.921 472.079 202.521 472.079C198.201 472.079 194.121 466.799 190.281 456.239C186.921 445.199 185.001 438.719 184.521 436.799H175.881C166.761 436.799 158.361 435.359 150.681 432.479C143 429.599 139.16 425.519 139.16 420.239L139.88 415.199C144.2 415.199 150.201 415.679 157.881 416.639C165.561 417.599 171.561 418.079 175.881 418.079H178.761C178.281 412.799 177.081 406.559 175.161 399.359C172.281 384.959 170.841 376.559 170.841 374.159C170.841 373.199 171.801 371.759 173.721 369.839C179.481 370.799 183.321 373.199 185.241 377.039C187.641 380.399 189.801 385.919 191.721 393.599C194.601 404.159 197.481 412.079 200.361 417.359C207.081 417.359 213.081 416.639 218.361 415.199C223.641 413.279 226.761 412.079 227.721 411.599L228.441 390.719C227.001 390.719 223.161 391.919 216.921 394.319C215.961 395.759 214.761 397.919 213.321 400.799C211.881 403.679 209.961 406.319 207.561 408.719C204.681 407.279 202.041 402.479 199.641 394.319C197.721 385.679 196.761 376.559 196.761 366.959C196.761 348.719 197.721 335.519 199.641 327.359C215.481 324.959 236.841 320.159 263.721 312.959C280.521 308.159 292.041 305.759 298.281 305.759C308.361 305.759 313.401 309.119 313.401 315.839C313.401 317.279 311.721 323.519 308.361 334.559C305.001 345.119 303.321 358.079 303.321 373.439C303.321 381.119 303.801 389.279 304.761 397.919C321.081 399.359 338.361 403.679 356.601 410.879C374.841 417.599 383.961 427.919 383.961 441.839C383.961 449.999 380.841 456.239 374.601 460.559C368.361 464.879 360.441 467.039 350.841 467.039C348.921 467.039 346.521 467.519 343.641 468.479C340.761 469.439 338.601 470.159 337.161 470.639C327.561 474.479 320.361 476.399 315.561 476.399ZM244.281 346.079C251.001 345.119 256.521 344.159 260.841 343.199C265.641 341.759 270.201 340.799 274.521 340.319L275.241 323.759C270.921 324.719 265.881 326.159 260.121 328.079C254.361 329.519 249.801 330.479 246.441 330.959C245.961 333.839 245.481 336.479 245.001 338.879C244.521 341.279 244.281 343.679 244.281 346.079ZM216.921 351.119C219.801 351.119 222.201 350.879 224.121 350.399C226.521 349.919 228.441 349.439 229.881 348.959C229.881 345.119 230.361 340.319 231.321 334.559L214.041 337.439V350.399L216.921 351.119ZM244.281 374.159C251.001 373.679 260.601 371.519 273.081 367.679C273.081 360.479 273.321 354.959 273.801 351.119C263.241 354.479 253.401 356.879 244.281 358.319V374.159ZM214.761 379.199C217.161 379.199 221.721 378.719 228.441 377.759V361.199C224.601 361.679 221.241 362.159 218.361 362.639C215.481 363.119 214.041 363.839 214.041 364.799C214.041 365.759 214.041 367.199 214.041 369.119L214.761 379.199ZM245.721 406.559C256.281 404.639 265.641 401.999 273.801 398.639C273.801 390.479 273.561 384.239 273.081 379.919C269.241 380.879 264.921 382.079 260.121 383.519C255.801 384.479 251.001 385.679 245.721 387.119V406.559ZM289.641 457.679C293.961 457.679 298.521 455.999 303.321 452.639C308.121 448.799 311.721 446.399 314.121 445.439C316.521 444.479 321.081 443.759 327.801 443.279C335.001 442.319 340.281 440.879 343.641 438.959C347.481 437.039 349.401 433.439 349.401 428.159C349.401 424.319 344.361 420.719 334.281 417.359C324.201 413.519 315.081 411.359 306.921 410.879C306.921 412.319 307.161 414.719 307.641 418.079C308.601 420.959 309.081 423.599 309.081 425.999C309.081 428.399 308.361 431.039 306.921 433.919C303.561 436.319 299.241 438.479 293.961 440.399C288.681 442.319 284.121 443.279 280.281 443.279C279.321 441.839 278.601 440.399 278.121 438.959C277.641 437.039 276.921 435.359 275.961 433.919C273.081 434.879 269.961 436.559 266.601 438.959C263.241 441.359 260.121 443.039 257.241 443.999C259.161 446.879 263.961 449.999 271.641 453.359C279.321 456.239 285.321 457.679 289.641 457.679ZM250.041 431.039C252.441 431.039 255.801 430.079 260.121 428.159C264.921 426.239 269.961 424.559 275.241 423.119C274.281 417.839 274.041 413.999 274.521 411.599C269.721 412.079 264.441 413.279 258.681 415.199C252.921 417.119 248.841 418.559 246.441 419.519C246.441 422.399 246.681 425.039 247.161 427.439C248.121 429.839 249.081 431.039 250.041 431.039ZM208.281 443.999C215.001 442.559 222.681 439.919 231.321 436.079C228.921 433.199 227.721 429.359 227.721 424.559L203.241 432.479L208.281 443.999Z"/>
</mask>
<path d="M198.201 317.279C188.121 317.279 177.321 316.079 165.801 313.679C154.281 310.799 146.36 306.719 142.04 301.439C142.52 300.959 144.68 299.519 148.521 297.119C152.361 294.719 156.681 293.519 161.481 293.519C167.241 293.519 174.201 294.719 182.361 297.119C184.281 297.599 187.641 298.319 192.441 299.279C197.721 300.239 203.001 300.719 208.281 300.719C217.881 300.719 224.361 299.759 227.721 297.839C231.081 295.919 232.761 291.599 232.761 284.879C232.761 283.439 231.321 282.479 228.441 281.999C226.041 281.039 224.361 279.839 223.401 278.399C223.401 275.999 224.361 273.839 226.281 271.919C228.681 269.519 230.601 267.119 232.041 264.719C233.481 262.319 235.401 259.199 237.801 255.359C240.201 251.519 242.121 248.639 243.561 246.719C245.481 244.799 247.641 243.839 250.041 243.839C251.481 243.839 252.681 244.559 253.641 245.999C254.601 247.439 255.081 249.119 255.081 251.039C255.081 257.279 253.881 263.999 251.481 271.199C249.561 278.399 248.121 284.159 247.161 288.479C248.601 290.879 250.281 292.079 252.201 292.079C255.081 292.079 259.161 286.559 264.441 275.519C270.201 264.479 273.081 256.559 273.081 251.759C273.081 248.879 271.401 246.239 268.041 243.839C265.161 241.439 263.241 239.279 262.281 237.359C263.721 234.479 266.841 230.879 271.641 226.559C276.441 222.239 281.721 219.119 287.481 217.199C291.321 218.639 294.681 221.999 297.561 227.279C300.441 232.079 301.881 237.599 301.881 243.839C301.881 248.639 299.961 254.399 296.121 261.119C291.801 266.879 289.401 273.119 288.921 279.839C295.641 278.879 300.921 277.919 304.761 276.959C320.121 274.079 334.041 272.639 346.521 272.639C361.881 272.639 370.761 274.319 373.161 277.679C369.801 284.399 364.521 289.439 357.321 292.799C351.081 292.319 338.121 292.079 318.441 292.079C308.841 292.079 298.761 293.279 288.201 295.679C278.121 298.079 265.401 301.439 250.041 305.759C240.441 308.639 230.841 311.279 221.241 313.679C212.121 316.079 204.441 317.279 198.201 317.279ZM315.561 476.399C309.321 476.399 297.801 473.279 281.001 467.039C264.681 460.319 253.161 454.799 246.441 450.479C244.521 450.959 242.121 452.399 239.241 454.799C236.361 457.199 234.201 458.399 232.761 458.399C227.961 458.399 223.401 457.679 219.081 456.239C214.761 454.319 211.641 453.119 209.721 452.639C209.721 454.079 209.481 456.719 209.001 460.559C209.001 463.919 208.521 466.799 207.561 469.199C206.601 471.119 204.921 472.079 202.521 472.079C198.201 472.079 194.121 466.799 190.281 456.239C186.921 445.199 185.001 438.719 184.521 436.799H175.881C166.761 436.799 158.361 435.359 150.681 432.479C143 429.599 139.16 425.519 139.16 420.239L139.88 415.199C144.2 415.199 150.201 415.679 157.881 416.639C165.561 417.599 171.561 418.079 175.881 418.079H178.761C178.281 412.799 177.081 406.559 175.161 399.359C172.281 384.959 170.841 376.559 170.841 374.159C170.841 373.199 171.801 371.759 173.721 369.839C179.481 370.799 183.321 373.199 185.241 377.039C187.641 380.399 189.801 385.919 191.721 393.599C194.601 404.159 197.481 412.079 200.361 417.359C207.081 417.359 213.081 416.639 218.361 415.199C223.641 413.279 226.761 412.079 227.721 411.599L228.441 390.719C227.001 390.719 223.161 391.919 216.921 394.319C215.961 395.759 214.761 397.919 213.321 400.799C211.881 403.679 209.961 406.319 207.561 408.719C204.681 407.279 202.041 402.479 199.641 394.319C197.721 385.679 196.761 376.559 196.761 366.959C196.761 348.719 197.721 335.519 199.641 327.359C215.481 324.959 236.841 320.159 263.721 312.959C280.521 308.159 292.041 305.759 298.281 305.759C308.361 305.759 313.401 309.119 313.401 315.839C313.401 317.279 311.721 323.519 308.361 334.559C305.001 345.119 303.321 358.079 303.321 373.439C303.321 381.119 303.801 389.279 304.761 397.919C321.081 399.359 338.361 403.679 356.601 410.879C374.841 417.599 383.961 427.919 383.961 441.839C383.961 449.999 380.841 456.239 374.601 460.559C368.361 464.879 360.441 467.039 350.841 467.039C348.921 467.039 346.521 467.519 343.641 468.479C340.761 469.439 338.601 470.159 337.161 470.639C327.561 474.479 320.361 476.399 315.561 476.399ZM244.281 346.079C251.001 345.119 256.521 344.159 260.841 343.199C265.641 341.759 270.201 340.799 274.521 340.319L275.241 323.759C270.921 324.719 265.881 326.159 260.121 328.079C254.361 329.519 249.801 330.479 246.441 330.959C245.961 333.839 245.481 336.479 245.001 338.879C244.521 341.279 244.281 343.679 244.281 346.079ZM216.921 351.119C219.801 351.119 222.201 350.879 224.121 350.399C226.521 349.919 228.441 349.439 229.881 348.959C229.881 345.119 230.361 340.319 231.321 334.559L214.041 337.439V350.399L216.921 351.119ZM244.281 374.159C251.001 373.679 260.601 371.519 273.081 367.679C273.081 360.479 273.321 354.959 273.801 351.119C263.241 354.479 253.401 356.879 244.281 358.319V374.159ZM214.761 379.199C217.161 379.199 221.721 378.719 228.441 377.759V361.199C224.601 361.679 221.241 362.159 218.361 362.639C215.481 363.119 214.041 363.839 214.041 364.799C214.041 365.759 214.041 367.199 214.041 369.119L214.761 379.199ZM245.721 406.559C256.281 404.639 265.641 401.999 273.801 398.639C273.801 390.479 273.561 384.239 273.081 379.919C269.241 380.879 264.921 382.079 260.121 383.519C255.801 384.479 251.001 385.679 245.721 387.119V406.559ZM289.641 457.679C293.961 457.679 298.521 455.999 303.321 452.639C308.121 448.799 311.721 446.399 314.121 445.439C316.521 444.479 321.081 443.759 327.801 443.279C335.001 442.319 340.281 440.879 343.641 438.959C347.481 437.039 349.401 433.439 349.401 428.159C349.401 424.319 344.361 420.719 334.281 417.359C324.201 413.519 315.081 411.359 306.921 410.879C306.921 412.319 307.161 414.719 307.641 418.079C308.601 420.959 309.081 423.599 309.081 425.999C309.081 428.399 308.361 431.039 306.921 433.919C303.561 436.319 299.241 438.479 293.961 440.399C288.681 442.319 284.121 443.279 280.281 443.279C279.321 441.839 278.601 440.399 278.121 438.959C277.641 437.039 276.921 435.359 275.961 433.919C273.081 434.879 269.961 436.559 266.601 438.959C263.241 441.359 260.121 443.039 257.241 443.999C259.161 446.879 263.961 449.999 271.641 453.359C279.321 456.239 285.321 457.679 289.641 457.679ZM250.041 431.039C252.441 431.039 255.801 430.079 260.121 428.159C264.921 426.239 269.961 424.559 275.241 423.119C274.281 417.839 274.041 413.999 274.521 411.599C269.721 412.079 264.441 413.279 258.681 415.199C252.921 417.119 248.841 418.559 246.441 419.519C246.441 422.399 246.681 425.039 247.161 427.439C248.121 429.839 249.081 431.039 250.041 431.039ZM208.281 443.999C215.001 442.559 222.681 439.919 231.321 436.079C228.921 433.199 227.721 429.359 227.721 424.559L203.241 432.479L208.281 443.999Z" fill="#969696" stroke="white" stroke-width="4" mask="url(#path-2-inside-1_170_511)"/>
<path d="M157.455 121.676L157.476 121.67L157.497 121.662C164.183 119.274 169.076 118.127 172.253 118.12L185.185 118.839L185.213 118.84H185.241C189.679 118.84 196.008 117.859 204.184 115.935C212.83 114.014 219.575 112.328 224.408 110.878L225.121 110.664V109.92C225.121 109.124 225.32 108.061 225.768 106.702C226.771 104.668 227.097 102.725 226.509 100.964L226.475 100.86L226.418 100.766C223.505 95.9107 220.329 91.9889 216.881 89.0262C213.848 85.9947 211.544 83.8851 210 82.7593C209.985 77.654 209.744 72.9902 209.275 68.7699C208.809 64.5791 207.899 60.6027 206.541 56.8435C209.306 53.5731 211.849 50.0819 214.169 46.3703C215.357 44.4693 216.414 42.9443 217.342 41.785C218.279 40.6133 219.043 39.8674 219.635 39.4724L219.718 39.4174L219.788 39.3474C221.454 37.6811 224.035 36.7603 227.721 36.7603H227.776L227.831 36.7542C231.9 36.302 235.342 35.8489 238.152 35.3942C244.19 41.9282 248.826 47.7482 252.077 52.8572L252.089 52.8757L252.101 52.8938C255.37 57.5633 256.961 62.1671 256.961 66.7203C256.961 73.2081 254.881 79.2403 250.681 84.8403C248.5 87.7474 246.843 90.3203 245.726 92.5531C244.618 94.7697 244.001 96.7337 244.001 98.4003C244.001 99.945 244.257 101.31 244.826 102.448L244.899 102.593L245.014 102.707C245.387 103.08 245.81 103.695 246.266 104.608L246.65 105.375L247.467 105.112C260.951 100.778 277.546 94.2834 297.243 85.636L297.243 85.6356C303.229 83.0019 308.178 81.0354 312.097 79.729C316.046 78.4127 318.854 77.8003 320.601 77.8003C322.381 77.8003 324.915 78.2501 328.246 79.2018C331.562 80.1492 335.608 81.5761 340.389 83.4888C349.986 87.3277 356.715 89.971 360.567 91.4155C370.639 95.2528 377.483 98.5717 381.201 101.36L381.223 101.377L381.246 101.392C385.282 104.083 387.281 107.848 387.281 112.8C387.281 118.35 385.667 123.172 382.451 127.306C379.251 131.422 375.446 133.4 371.001 133.4C370.304 133.4 369.197 133.207 367.628 132.763C366.078 132.324 364.144 131.661 361.82 130.767C357.174 128.98 351.022 126.293 343.357 122.7C331.342 116.693 321.106 112.176 312.657 109.159C304.225 106.147 297.495 104.6 292.521 104.6C292.362 104.6 292.191 104.639 292.12 104.655C292.008 104.679 291.868 104.714 291.705 104.757C291.377 104.842 290.925 104.969 290.353 105.135C289.205 105.467 287.55 105.964 285.388 106.624C281.065 107.945 274.702 109.926 266.301 112.566L266.29 112.57L266.279 112.573C241.566 120.971 221.726 127.264 206.751 131.457C191.73 135.663 181.721 137.72 176.601 137.72C172.957 137.72 167.35 136.342 159.697 133.473C155.883 131.804 153.064 130.391 151.211 129.232C150.278 128.65 149.631 128.156 149.228 127.753C148.842 127.368 148.804 127.188 148.801 127.189C148.801 127.189 148.801 127.189 148.801 127.19C148.805 126.476 149.266 125.602 150.71 124.603C152.146 123.608 154.373 122.624 157.455 121.676ZM131.25 207.219C128.296 206.647 126.208 205.865 124.869 204.944C125.96 204.122 127.529 203.292 129.625 202.472C132.32 201.417 135.806 200.41 140.097 199.456L140.148 199.445L140.197 199.429C141.578 198.969 143.447 198.499 145.82 198.024C148.789 197.528 151.977 196.543 155.383 195.084C157.774 194.128 163.516 191.975 172.626 188.619L172.648 188.611L172.669 188.602C181.805 184.755 188.815 181.374 193.675 178.458C196.106 176.999 197.985 175.63 199.268 174.347C200.523 173.092 201.361 171.767 201.361 170.4C201.361 166.456 199.717 162.802 196.571 159.453C197.932 157.132 199.487 154.223 201.234 150.73C203.556 147.027 206.314 144.287 209.497 142.469L209.551 142.438L209.601 142.4C213.288 139.635 217.161 138.28 221.241 138.28H221.296L221.351 138.274C225.475 137.816 228.749 137.355 231.161 136.891C237.198 140.167 241.803 143.417 245.014 146.627C248.256 149.87 252.441 154.967 257.576 161.946C256.561 164.976 253.874 168.753 249.334 173.293L249.264 173.363L249.209 173.446C248.3 174.809 246.91 176.437 245.014 178.333C243.583 179.764 241.959 181.838 240.144 184.526C235.709 184.619 229.537 185.85 221.679 188.161C213.511 190.563 205.104 193.205 196.459 196.087L182.073 200.402L167.696 204.716C158.13 207.106 150.792 208.28 145.64 208.28C139.672 208.28 134.882 207.922 131.25 207.219ZM291.788 181.933C276.174 166.319 265.697 152.977 260.27 141.897C271.644 142.14 283.7 144.977 296.447 150.439C309.806 156.165 320.989 163.07 330.014 171.146L330.023 171.154L330.033 171.162C334.796 175.21 338.325 178.926 340.658 182.308C342.994 185.695 344.081 188.678 344.081 191.28C344.081 196.371 342.694 201.488 339.883 206.641C338.462 209.247 337.118 211.284 335.857 212.774C334.761 214.07 333.766 214.905 332.881 215.363C321.57 209.143 307.876 198.021 291.788 181.933Z" fill="#969696" stroke="white" stroke-width="2"/>
</svg>
