<svg width="512" height="512" viewBox="0 0 512 512" fill="none" xmlns="http://www.w3.org/2000/svg">
<path d="M0 0H512V512H0V0Z" fill="white"/>
<path d="M198.201 317.279C188.121 317.279 177.321 316.079 165.801 313.679C154.281 310.799 146.36 306.719 142.04 301.439C142.52 300.959 144.68 299.519 148.521 297.119C152.361 294.719 156.681 293.519 161.481 293.519C167.241 293.519 174.201 294.719 182.361 297.119C184.281 297.599 187.641 298.319 192.441 299.279C197.721 300.239 203.001 300.719 208.281 300.719C217.881 300.719 224.361 299.759 227.721 297.839C231.081 295.919 232.761 291.599 232.761 284.879C232.761 283.439 231.321 282.479 228.441 281.999C226.041 281.039 224.361 279.839 223.401 278.399C223.401 275.999 224.361 273.839 226.281 271.919C228.681 269.519 230.601 267.119 232.041 264.719C233.481 262.319 235.401 259.199 237.801 255.359C240.201 251.519 242.121 248.639 243.561 246.719C245.481 244.799 247.641 243.839 250.041 243.839C251.481 243.839 252.681 244.559 253.641 245.999C254.601 247.439 255.081 249.119 255.081 251.039C255.081 257.279 253.881 263.999 251.481 271.199C249.561 278.399 248.121 284.159 247.161 288.479C248.601 290.879 250.281 292.079 252.201 292.079C255.081 292.079 259.161 286.559 264.441 275.519C270.201 264.479 273.081 256.559 273.081 251.759C273.081 248.879 271.401 246.239 268.041 243.839C265.161 241.439 263.241 239.279 262.281 237.359C263.721 234.479 266.841 230.879 271.641 226.559C276.441 222.239 281.721 219.119 287.481 217.199C291.321 218.639 294.681 221.999 297.561 227.279C300.441 232.079 301.881 237.599 301.881 243.839C301.881 248.639 299.961 254.399 296.121 261.119C291.801 266.879 289.401 273.119 288.921 279.839C295.641 278.879 300.921 277.919 304.761 276.959C320.121 274.079 334.041 272.639 346.521 272.639C361.881 272.639 370.761 274.319 373.161 277.679C369.801 284.399 364.521 289.439 357.321 292.799C351.081 292.319 338.121 292.079 318.441 292.079C308.841 292.079 298.761 293.279 288.201 295.679C278.121 298.079 265.401 301.439 250.041 305.759C240.441 308.639 230.841 311.279 221.241 313.679C212.121 316.079 204.441 317.279 198.201 317.279ZM315.561 476.399C309.321 476.399 297.801 473.279 281.001 467.039C264.681 460.319 253.161 454.799 246.441 450.479C244.521 450.959 242.121 452.399 239.241 454.799C236.361 457.199 234.201 458.399 232.761 458.399C227.961 458.399 223.401 457.679 219.081 456.239C214.761 454.319 211.641 453.119 209.721 452.639C209.721 454.079 209.481 456.719 209.001 460.559C209.001 463.919 208.521 466.799 207.561 469.199C206.601 471.119 204.921 472.079 202.521 472.079C198.201 472.079 194.121 466.799 190.281 456.239C186.921 445.199 185.001 438.719 184.521 436.799H175.881C166.761 436.799 158.361 435.359 150.681 432.479C143 429.599 139.16 425.519 139.16 420.239L139.88 415.199C144.2 415.199 150.201 415.679 157.881 416.639C165.561 417.599 171.561 418.079 175.881 418.079H178.761C178.281 412.799 177.081 406.559 175.161 399.359C172.281 384.959 170.841 376.559 170.841 374.159C170.841 373.199 171.801 371.759 173.721 369.839C179.481 370.799 183.321 373.199 185.241 377.039C187.641 380.399 189.801 385.919 191.721 393.599C194.601 404.159 197.481 412.079 200.361 417.359C207.081 417.359 213.081 416.639 218.361 415.199C223.641 413.279 226.761 412.079 227.721 411.599L228.441 390.719C227.001 390.719 223.161 391.919 216.921 394.319C215.961 395.759 214.761 397.919 213.321 400.799C211.881 403.679 209.961 406.319 207.561 408.719C204.681 407.279 202.041 402.479 199.641 394.319C197.721 385.679 196.761 376.559 196.761 366.959C196.761 348.719 197.721 335.519 199.641 327.359C215.481 324.959 236.841 320.159 263.721 312.959C280.521 308.159 292.041 305.759 298.281 305.759C308.361 305.759 313.401 309.119 313.401 315.839C313.401 317.279 311.721 323.519 308.361 334.559C305.001 345.119 303.321 358.079 303.321 373.439C303.321 381.119 303.801 389.279 304.761 397.919C321.081 399.359 338.361 403.679 356.601 410.879C374.841 417.599 383.961 427.919 383.961 441.839C383.961 449.999 380.841 456.239 374.601 460.559C368.361 464.879 360.441 467.039 350.841 467.039C348.921 467.039 346.521 467.519 343.641 468.479C340.761 469.439 338.601 470.159 337.161 470.639C327.561 474.479 320.361 476.399 315.561 476.399ZM244.281 346.079C251.001 345.119 256.521 344.159 260.841 343.199C265.641 341.759 270.201 340.799 274.521 340.319L275.241 323.759C270.921 324.719 265.881 326.159 260.121 328.079C254.361 329.519 249.801 330.479 246.441 330.959C245.961 333.839 245.481 336.479 245.001 338.879C244.521 341.279 244.281 343.679 244.281 346.079ZM216.921 351.119C219.801 351.119 222.201 350.879 224.121 350.399C226.521 349.919 228.441 349.439 229.881 348.959C229.881 345.119 230.361 340.319 231.321 334.559L214.041 337.439V350.399L216.921 351.119ZM244.281 374.159C251.001 373.679 260.601 371.519 273.081 367.679C273.081 360.479 273.321 354.959 273.801 351.119C263.241 354.479 253.401 356.879 244.281 358.319V374.159ZM214.761 379.199C217.161 379.199 221.721 378.719 228.441 377.759V361.199C224.601 361.679 221.241 362.159 218.361 362.639C215.481 363.119 214.041 363.839 214.041 364.799C214.041 365.759 214.041 367.199 214.041 369.119L214.761 379.199ZM245.721 406.559C256.281 404.639 265.641 401.999 273.801 398.639C273.801 390.479 273.561 384.239 273.081 379.919C269.241 380.879 264.921 382.079 260.121 383.519C255.801 384.479 251.001 385.679 245.721 387.119V406.559ZM289.641 457.679C293.961 457.679 298.521 455.999 303.321 452.639C308.121 448.799 311.721 446.399 314.121 445.439C316.521 444.479 321.081 443.759 327.801 443.279C335.001 442.319 340.281 440.879 343.641 438.959C347.481 437.039 349.401 433.439 349.401 428.159C349.401 424.319 344.361 420.719 334.281 417.359C324.201 413.519 315.081 411.359 306.921 410.879C306.921 412.319 307.161 414.719 307.641 418.079C308.601 420.959 309.081 423.599 309.081 425.999C309.081 428.399 308.361 431.039 306.921 433.919C303.561 436.319 299.241 438.479 293.961 440.399C288.681 442.319 284.121 443.279 280.281 443.279C279.321 441.839 278.601 440.399 278.121 438.959C277.641 437.039 276.921 435.359 275.961 433.919C273.081 434.879 269.961 436.559 266.601 438.959C263.241 441.359 260.121 443.039 257.241 443.999C259.161 446.879 263.961 449.999 271.641 453.359C279.321 456.239 285.321 457.679 289.641 457.679ZM250.041 431.039C252.441 431.039 255.801 430.079 260.121 428.159C264.921 426.239 269.961 424.559 275.241 423.119C274.281 417.839 274.041 413.999 274.521 411.599C269.721 412.079 264.441 413.279 258.681 415.199C252.921 417.119 248.841 418.559 246.441 419.519C246.441 422.399 246.681 425.039 247.161 427.439C248.121 429.839 249.081 431.039 250.041 431.039ZM208.281 443.999C215.001 442.559 222.681 439.919 231.321 436.079C228.921 433.199 227.721 429.359 227.721 424.559L203.241 432.479L208.281 443.999Z" fill="#A80000"/>
<path d="M176.601 138.72C172.761 138.72 167.001 137.28 159.321 134.4C151.641 131.04 147.801 128.64 147.801 127.2C147.801 124.8 150.921 122.64 157.161 120.72C163.881 118.32 168.921 117.12 172.281 117.12L185.241 117.84C189.561 117.84 195.801 116.88 203.961 114.96C212.601 113.04 219.321 111.36 224.121 109.92C224.121 108.96 224.361 107.76 224.841 106.32C225.801 104.4 226.041 102.72 225.561 101.28C222.681 96.4803 219.561 92.6403 216.201 89.7603C212.841 86.4003 210.441 84.2403 209.001 83.2803C209.001 78.0003 208.761 73.2003 208.281 68.8803C207.801 64.5603 206.841 60.4803 205.401 56.6403C208.281 53.2803 210.921 49.6803 213.321 45.8403C215.721 42.0003 217.641 39.6003 219.081 38.6403C221.001 36.7203 223.881 35.7603 227.721 35.7603C232.041 35.2803 235.641 34.8003 238.521 34.3203C244.761 41.0403 249.561 47.0403 252.921 52.3203C256.281 57.1203 257.961 61.9203 257.961 66.7203C257.961 73.4403 255.801 79.6803 251.481 85.4403C247.161 91.2003 245.001 95.5203 245.001 98.4003C245.001 99.8403 245.241 101.04 245.721 102C246.201 102.48 246.681 103.2 247.161 104.16C260.601 99.8403 277.161 93.3603 296.841 84.7203C308.841 79.4403 316.761 76.8003 320.601 76.8003C324.441 76.8003 331.161 78.7203 340.761 82.5603C350.361 86.4003 357.081 89.0403 360.921 90.4803C371.001 94.3203 377.961 97.6803 381.801 100.56C386.121 103.44 388.281 107.52 388.281 112.8C388.281 118.56 386.601 123.6 383.241 127.92C379.881 132.24 375.801 134.4 371.001 134.4C367.641 134.4 358.281 130.8 342.921 123.6C318.921 111.6 302.121 105.6 292.521 105.6C292.041 105.6 283.401 108.24 266.601 113.52C217.161 130.32 187.161 138.72 176.601 138.72ZM145.64 209.28C133.64 209.28 126.2 207.84 123.32 204.96C125.72 202.56 131.24 200.4 139.88 198.48C141.32 198 143.24 197.52 145.64 197.04C148.521 196.56 151.641 195.6 155.001 194.16C157.401 193.2 163.161 191.04 172.281 187.68C181.401 183.84 188.361 180.48 193.161 177.6C197.961 174.72 200.361 172.32 200.361 170.4C200.361 166.56 198.681 162.96 195.321 159.6C196.761 157.2 198.441 154.08 200.361 150.24C202.761 146.4 205.641 143.52 209.001 141.6C212.841 138.72 216.921 137.28 221.241 137.28C225.561 136.8 228.921 136.32 231.321 135.84C237.561 139.2 242.361 142.56 245.721 145.92C249.081 149.28 253.401 154.56 258.681 161.76C257.721 165.12 254.841 169.2 250.041 174C249.081 175.44 247.641 177.12 245.721 179.04C244.281 180.48 242.601 182.64 240.681 185.52C236.361 185.52 230.121 186.72 221.961 189.12C213.801 191.52 205.401 194.16 196.761 197.04C187.161 199.92 177.561 202.8 167.961 205.68C158.361 208.08 150.921 209.28 145.64 209.28ZM332.841 216.48C321.321 210.24 307.401 198.96 291.081 182.64C274.761 166.32 263.961 152.4 258.681 140.88C270.681 140.88 283.401 143.76 296.841 149.52C310.281 155.28 321.561 162.24 330.681 170.4C340.281 178.56 345.081 185.52 345.081 191.28C345.081 196.56 343.641 201.84 340.761 207.12C337.881 212.4 335.241 215.52 332.841 216.48Z" fill="black"/>
</svg>
