<svg width="512" height="512" viewBox="0 0 512 512" fill="none" xmlns="http://www.w3.org/2000/svg">
<path d="M1 1H511V511H1V1Z" fill="white" stroke="white" stroke-width="2"/>
<mask id="path-2-inside-1_170_473" fill="white">
<path fill-rule="evenodd" clip-rule="evenodd" d="M193 479C155.997 479 126 449.003 126 412C126 383.024 144.394 358.344 170.143 349C144.394 339.656 126 314.976 126 286C126 248.997 155.997 219 193 219C221.976 219 246.656 237.394 256 263.143C265.344 237.394 290.024 219 319 219C356.003 219 386 248.997 386 286C386 314.976 367.606 339.656 341.857 349C367.606 358.344 386 383.024 386 412C386 449.003 356.003 479 319 479C290.024 479 265.344 460.606 256 434.857C246.656 460.606 221.976 479 193 479ZM193 463.813C221.616 463.813 244.813 440.616 244.813 412C244.813 383.384 221.616 360.187 193 360.187C164.384 360.187 141.187 383.384 141.187 412C141.187 440.616 164.384 463.813 193 463.813ZM319 463.813C347.616 463.813 370.813 440.616 370.813 412C370.813 383.384 347.616 360.187 319 360.187C290.384 360.187 267.187 383.384 267.187 412C267.187 440.616 290.384 463.813 319 463.813ZM193 337.813C221.616 337.813 244.813 314.616 244.813 286C244.813 257.384 221.616 234.187 193 234.187C164.384 234.187 141.187 257.384 141.187 286C141.187 314.616 164.384 337.813 193 337.813ZM319 337.813C347.616 337.813 370.813 314.616 370.813 286C370.813 257.384 347.616 234.187 319 234.187C290.384 234.187 267.187 257.384 267.187 286C267.187 314.616 290.384 337.813 319 337.813ZM215.857 349C234.473 342.245 249.245 327.473 256 308.857C262.755 327.473 277.527 342.245 296.143 349C277.527 355.755 262.755 370.527 256 389.143C249.245 370.527 234.473 355.755 215.857 349Z"/>
<path d="M202.849 100C202.849 105.992 197.992 110.849 192 110.849C186.008 110.849 181.151 105.992 181.151 100C181.151 94.0081 186.008 89.1507 192 89.1507C197.992 89.1507 202.849 94.0081 202.849 100Z"/>
<path d="M201.493 74.8902C201.493 80.1332 197.243 84.3834 192 84.3834C186.757 84.3834 182.507 80.1332 182.507 74.8902C182.507 69.6473 186.757 65.397 192 65.397C197.243 65.397 201.493 69.6473 201.493 74.8902Z"/>
<path d="M224.795 92.1525C224.795 97.3955 220.545 101.646 215.302 101.646C210.059 101.646 205.809 97.3955 205.809 92.1525C205.809 86.9095 210.059 82.6593 215.302 82.6593C220.545 82.6593 224.795 86.9095 224.795 92.1525Z"/>
<path d="M216.165 119.768C216.165 125.011 211.915 129.261 206.672 129.261C201.429 129.261 197.178 125.011 197.178 119.768C197.178 114.525 201.429 110.274 206.672 110.274C211.915 110.274 216.165 114.525 216.165 119.768Z"/>
<path fill-rule="evenodd" clip-rule="evenodd" d="M238.11 100C238.11 125.466 217.466 146.11 192 146.11C166.534 146.11 145.89 125.466 145.89 100C145.89 74.5344 166.534 53.8904 192 53.8904C217.466 53.8904 238.11 74.5344 238.11 100ZM229.974 92.1528C229.974 100.256 223.405 106.824 215.302 106.824C214.635 106.824 213.978 106.78 213.335 106.693C218.089 109.121 221.343 114.064 221.343 119.768C221.343 127.871 214.775 134.439 206.672 134.439C198.569 134.439 192.001 127.871 192.001 119.768C192.001 127.871 185.432 134.439 177.329 134.439C169.226 134.439 162.658 127.871 162.658 119.768C162.658 114.064 165.912 109.121 170.666 106.693C170.023 106.78 169.366 106.824 168.699 106.824C160.596 106.824 154.027 100.256 154.027 92.1528C154.027 84.05 160.596 77.4814 168.699 77.4814C172.719 77.4814 176.361 79.0981 179.011 81.7166C177.937 79.6776 177.329 77.355 177.329 74.8905C177.329 66.7878 183.898 60.2192 192.001 60.2192C200.103 60.2192 206.672 66.7878 206.672 74.8905C206.672 77.3548 206.064 79.6772 204.991 81.716C207.641 79.0978 211.283 77.4814 215.302 77.4814C223.405 77.4814 229.974 84.05 229.974 92.1528Z"/>
<path d="M178.192 92.1525C178.192 97.3955 173.941 101.646 168.698 101.646C163.455 101.646 159.205 97.3955 159.205 92.1525C159.205 86.9095 163.455 82.6593 168.698 82.6593C173.941 82.6593 178.192 86.9095 178.192 92.1525Z"/>
<path d="M186.822 119.768C186.822 125.011 182.572 129.261 177.329 129.261C172.086 129.261 167.835 125.011 167.835 119.768C167.835 114.525 172.086 110.274 177.329 110.274C182.572 110.274 186.822 114.525 186.822 119.768Z"/>
<path d="M330.849 100C330.849 105.992 325.992 110.849 320 110.849C314.008 110.849 309.151 105.992 309.151 100C309.151 94.0081 314.008 89.1507 320 89.1507C325.992 89.1507 330.849 94.0081 330.849 100Z"/>
<path d="M329.493 74.8902C329.493 80.1332 325.243 84.3834 320 84.3834C314.757 84.3834 310.507 80.1332 310.507 74.8902C310.507 69.6473 314.757 65.397 320 65.397C325.243 65.397 329.493 69.6473 329.493 74.8902Z"/>
<path d="M352.795 92.1525C352.795 97.3955 348.545 101.646 343.302 101.646C338.059 101.646 333.809 97.3955 333.809 92.1525C333.809 86.9095 338.059 82.6593 343.302 82.6593C348.545 82.6593 352.795 86.9095 352.795 92.1525Z"/>
<path d="M344.165 119.768C344.165 125.011 339.915 129.261 334.672 129.261C329.429 129.261 325.178 125.011 325.178 119.768C325.178 114.525 329.429 110.274 334.672 110.274C339.915 110.274 344.165 114.525 344.165 119.768Z"/>
<path fill-rule="evenodd" clip-rule="evenodd" d="M366.11 100C366.11 125.466 345.466 146.11 320 146.11C294.534 146.11 273.89 125.466 273.89 100C273.89 74.5344 294.534 53.8904 320 53.8904C345.466 53.8904 366.11 74.5344 366.11 100ZM357.974 92.1528C357.974 100.256 351.405 106.824 343.302 106.824C342.635 106.824 341.978 106.78 341.335 106.693C346.089 109.121 349.343 114.064 349.343 119.768C349.343 127.871 342.775 134.439 334.672 134.439C326.569 134.439 320.001 127.871 320.001 119.768C320.001 127.871 313.432 134.439 305.329 134.439C297.226 134.439 290.658 127.871 290.658 119.768C290.658 114.064 293.912 109.121 298.666 106.693C298.023 106.78 297.366 106.824 296.699 106.824C288.596 106.824 282.027 100.256 282.027 92.1528C282.027 84.05 288.596 77.4814 296.699 77.4814C300.719 77.4814 304.361 79.0981 307.011 81.7166C305.937 79.6776 305.329 77.355 305.329 74.8905C305.329 66.7878 311.898 60.2192 320.001 60.2192C328.103 60.2192 334.672 66.7878 334.672 74.8905C334.672 77.3548 334.064 79.6772 332.991 81.716C335.641 79.0978 339.283 77.4814 343.302 77.4814C351.405 77.4814 357.974 84.05 357.974 92.1528Z"/>
<path d="M306.192 92.1525C306.192 97.3955 301.941 101.646 296.698 101.646C291.455 101.646 287.205 97.3955 287.205 92.1525C287.205 86.9095 291.455 82.6593 296.698 82.6593C301.941 82.6593 306.192 86.9095 306.192 92.1525Z"/>
<path d="M314.822 119.768C314.822 125.011 310.572 129.261 305.329 129.261C300.086 129.261 295.835 125.011 295.835 119.768C295.835 114.525 300.086 110.274 305.329 110.274C310.572 110.274 314.822 114.525 314.822 119.768Z"/>
<path fill-rule="evenodd" clip-rule="evenodd" d="M192 166C155.549 166 126 136.451 126 100C126 63.5492 155.549 34 192 34C222.865 34 248.782 55.1872 256 83.8112C263.218 55.1872 289.135 34 320 34C356.451 34 386 63.5492 386 100C386 136.451 356.451 166 320 166C289.135 166 263.218 144.813 256 116.189C248.782 144.813 222.865 166 192 166ZM192 151.04C220.189 151.04 243.04 128.189 243.04 100C243.04 71.8114 220.189 48.96 192 48.96C163.811 48.96 140.96 71.8114 140.96 100C140.96 128.189 163.811 151.04 192 151.04ZM320 151.04C348.189 151.04 371.04 128.189 371.04 100C371.04 71.8114 348.189 48.96 320 48.96C291.811 48.96 268.96 71.8114 268.96 100C268.96 128.189 291.811 151.04 320 151.04Z"/>
</mask>
<path fill-rule="evenodd" clip-rule="evenodd" d="M193 479C155.997 479 126 449.003 126 412C126 383.024 144.394 358.344 170.143 349C144.394 339.656 126 314.976 126 286C126 248.997 155.997 219 193 219C221.976 219 246.656 237.394 256 263.143C265.344 237.394 290.024 219 319 219C356.003 219 386 248.997 386 286C386 314.976 367.606 339.656 341.857 349C367.606 358.344 386 383.024 386 412C386 449.003 356.003 479 319 479C290.024 479 265.344 460.606 256 434.857C246.656 460.606 221.976 479 193 479ZM193 463.813C221.616 463.813 244.813 440.616 244.813 412C244.813 383.384 221.616 360.187 193 360.187C164.384 360.187 141.187 383.384 141.187 412C141.187 440.616 164.384 463.813 193 463.813ZM319 463.813C347.616 463.813 370.813 440.616 370.813 412C370.813 383.384 347.616 360.187 319 360.187C290.384 360.187 267.187 383.384 267.187 412C267.187 440.616 290.384 463.813 319 463.813ZM193 337.813C221.616 337.813 244.813 314.616 244.813 286C244.813 257.384 221.616 234.187 193 234.187C164.384 234.187 141.187 257.384 141.187 286C141.187 314.616 164.384 337.813 193 337.813ZM319 337.813C347.616 337.813 370.813 314.616 370.813 286C370.813 257.384 347.616 234.187 319 234.187C290.384 234.187 267.187 257.384 267.187 286C267.187 314.616 290.384 337.813 319 337.813ZM215.857 349C234.473 342.245 249.245 327.473 256 308.857C262.755 327.473 277.527 342.245 296.143 349C277.527 355.755 262.755 370.527 256 389.143C249.245 370.527 234.473 355.755 215.857 349Z" fill="#969696"/>
<path d="M202.849 100C202.849 105.992 197.992 110.849 192 110.849C186.008 110.849 181.151 105.992 181.151 100C181.151 94.0081 186.008 89.1507 192 89.1507C197.992 89.1507 202.849 94.0081 202.849 100Z" fill="#969696"/>
<path d="M201.493 74.8902C201.493 80.1332 197.243 84.3834 192 84.3834C186.757 84.3834 182.507 80.1332 182.507 74.8902C182.507 69.6473 186.757 65.397 192 65.397C197.243 65.397 201.493 69.6473 201.493 74.8902Z" fill="#969696"/>
<path d="M224.795 92.1525C224.795 97.3955 220.545 101.646 215.302 101.646C210.059 101.646 205.809 97.3955 205.809 92.1525C205.809 86.9095 210.059 82.6593 215.302 82.6593C220.545 82.6593 224.795 86.9095 224.795 92.1525Z" fill="#969696"/>
<path d="M216.165 119.768C216.165 125.011 211.915 129.261 206.672 129.261C201.429 129.261 197.178 125.011 197.178 119.768C197.178 114.525 201.429 110.274 206.672 110.274C211.915 110.274 216.165 114.525 216.165 119.768Z" fill="#969696"/>
<path fill-rule="evenodd" clip-rule="evenodd" d="M238.11 100C238.11 125.466 217.466 146.11 192 146.11C166.534 146.11 145.89 125.466 145.89 100C145.89 74.5344 166.534 53.8904 192 53.8904C217.466 53.8904 238.11 74.5344 238.11 100ZM229.974 92.1528C229.974 100.256 223.405 106.824 215.302 106.824C214.635 106.824 213.978 106.78 213.335 106.693C218.089 109.121 221.343 114.064 221.343 119.768C221.343 127.871 214.775 134.439 206.672 134.439C198.569 134.439 192.001 127.871 192.001 119.768C192.001 127.871 185.432 134.439 177.329 134.439C169.226 134.439 162.658 127.871 162.658 119.768C162.658 114.064 165.912 109.121 170.666 106.693C170.023 106.78 169.366 106.824 168.699 106.824C160.596 106.824 154.027 100.256 154.027 92.1528C154.027 84.05 160.596 77.4814 168.699 77.4814C172.719 77.4814 176.361 79.0981 179.011 81.7166C177.937 79.6776 177.329 77.355 177.329 74.8905C177.329 66.7878 183.898 60.2192 192.001 60.2192C200.103 60.2192 206.672 66.7878 206.672 74.8905C206.672 77.3548 206.064 79.6772 204.991 81.716C207.641 79.0978 211.283 77.4814 215.302 77.4814C223.405 77.4814 229.974 84.05 229.974 92.1528Z" fill="#969696"/>
<path d="M178.192 92.1525C178.192 97.3955 173.941 101.646 168.698 101.646C163.455 101.646 159.205 97.3955 159.205 92.1525C159.205 86.9095 163.455 82.6593 168.698 82.6593C173.941 82.6593 178.192 86.9095 178.192 92.1525Z" fill="#969696"/>
<path d="M186.822 119.768C186.822 125.011 182.572 129.261 177.329 129.261C172.086 129.261 167.835 125.011 167.835 119.768C167.835 114.525 172.086 110.274 177.329 110.274C182.572 110.274 186.822 114.525 186.822 119.768Z" fill="#969696"/>
<path d="M330.849 100C330.849 105.992 325.992 110.849 320 110.849C314.008 110.849 309.151 105.992 309.151 100C309.151 94.0081 314.008 89.1507 320 89.1507C325.992 89.1507 330.849 94.0081 330.849 100Z" fill="#969696"/>
<path d="M329.493 74.8902C329.493 80.1332 325.243 84.3834 320 84.3834C314.757 84.3834 310.507 80.1332 310.507 74.8902C310.507 69.6473 314.757 65.397 320 65.397C325.243 65.397 329.493 69.6473 329.493 74.8902Z" fill="#969696"/>
<path d="M352.795 92.1525C352.795 97.3955 348.545 101.646 343.302 101.646C338.059 101.646 333.809 97.3955 333.809 92.1525C333.809 86.9095 338.059 82.6593 343.302 82.6593C348.545 82.6593 352.795 86.9095 352.795 92.1525Z" fill="#969696"/>
<path d="M344.165 119.768C344.165 125.011 339.915 129.261 334.672 129.261C329.429 129.261 325.178 125.011 325.178 119.768C325.178 114.525 329.429 110.274 334.672 110.274C339.915 110.274 344.165 114.525 344.165 119.768Z" fill="#969696"/>
<path fill-rule="evenodd" clip-rule="evenodd" d="M366.11 100C366.11 125.466 345.466 146.11 320 146.11C294.534 146.11 273.89 125.466 273.89 100C273.89 74.5344 294.534 53.8904 320 53.8904C345.466 53.8904 366.11 74.5344 366.11 100ZM357.974 92.1528C357.974 100.256 351.405 106.824 343.302 106.824C342.635 106.824 341.978 106.78 341.335 106.693C346.089 109.121 349.343 114.064 349.343 119.768C349.343 127.871 342.775 134.439 334.672 134.439C326.569 134.439 320.001 127.871 320.001 119.768C320.001 127.871 313.432 134.439 305.329 134.439C297.226 134.439 290.658 127.871 290.658 119.768C290.658 114.064 293.912 109.121 298.666 106.693C298.023 106.78 297.366 106.824 296.699 106.824C288.596 106.824 282.027 100.256 282.027 92.1528C282.027 84.05 288.596 77.4814 296.699 77.4814C300.719 77.4814 304.361 79.0981 307.011 81.7166C305.937 79.6776 305.329 77.355 305.329 74.8905C305.329 66.7878 311.898 60.2192 320.001 60.2192C328.103 60.2192 334.672 66.7878 334.672 74.8905C334.672 77.3548 334.064 79.6772 332.991 81.716C335.641 79.0978 339.283 77.4814 343.302 77.4814C351.405 77.4814 357.974 84.05 357.974 92.1528Z" fill="#969696"/>
<path d="M306.192 92.1525C306.192 97.3955 301.941 101.646 296.698 101.646C291.455 101.646 287.205 97.3955 287.205 92.1525C287.205 86.9095 291.455 82.6593 296.698 82.6593C301.941 82.6593 306.192 86.9095 306.192 92.1525Z" fill="#969696"/>
<path d="M314.822 119.768C314.822 125.011 310.572 129.261 305.329 129.261C300.086 129.261 295.835 125.011 295.835 119.768C295.835 114.525 300.086 110.274 305.329 110.274C310.572 110.274 314.822 114.525 314.822 119.768Z" fill="#969696"/>
<path fill-rule="evenodd" clip-rule="evenodd" d="M192 166C155.549 166 126 136.451 126 100C126 63.5492 155.549 34 192 34C222.865 34 248.782 55.1872 256 83.8112C263.218 55.1872 289.135 34 320 34C356.451 34 386 63.5492 386 100C386 136.451 356.451 166 320 166C289.135 166 263.218 144.813 256 116.189C248.782 144.813 222.865 166 192 166ZM192 151.04C220.189 151.04 243.04 128.189 243.04 100C243.04 71.8114 220.189 48.96 192 48.96C163.811 48.96 140.96 71.8114 140.96 100C140.96 128.189 163.811 151.04 192 151.04ZM320 151.04C348.189 151.04 371.04 128.189 371.04 100C371.04 71.8114 348.189 48.96 320 48.96C291.811 48.96 268.96 71.8114 268.96 100C268.96 128.189 291.811 151.04 320 151.04Z" fill="#969696"/>
<path fill-rule="evenodd" clip-rule="evenodd" d="M193 479C155.997 479 126 449.003 126 412C126 383.024 144.394 358.344 170.143 349C144.394 339.656 126 314.976 126 286C126 248.997 155.997 219 193 219C221.976 219 246.656 237.394 256 263.143C265.344 237.394 290.024 219 319 219C356.003 219 386 248.997 386 286C386 314.976 367.606 339.656 341.857 349C367.606 358.344 386 383.024 386 412C386 449.003 356.003 479 319 479C290.024 479 265.344 460.606 256 434.857C246.656 460.606 221.976 479 193 479ZM193 463.813C221.616 463.813 244.813 440.616 244.813 412C244.813 383.384 221.616 360.187 193 360.187C164.384 360.187 141.187 383.384 141.187 412C141.187 440.616 164.384 463.813 193 463.813ZM319 463.813C347.616 463.813 370.813 440.616 370.813 412C370.813 383.384 347.616 360.187 319 360.187C290.384 360.187 267.187 383.384 267.187 412C267.187 440.616 290.384 463.813 319 463.813ZM193 337.813C221.616 337.813 244.813 314.616 244.813 286C244.813 257.384 221.616 234.187 193 234.187C164.384 234.187 141.187 257.384 141.187 286C141.187 314.616 164.384 337.813 193 337.813ZM319 337.813C347.616 337.813 370.813 314.616 370.813 286C370.813 257.384 347.616 234.187 319 234.187C290.384 234.187 267.187 257.384 267.187 286C267.187 314.616 290.384 337.813 319 337.813ZM215.857 349C234.473 342.245 249.245 327.473 256 308.857C262.755 327.473 277.527 342.245 296.143 349C277.527 355.755 262.755 370.527 256 389.143C249.245 370.527 234.473 355.755 215.857 349Z" stroke="white" stroke-width="4" mask="url(#path-2-inside-1_170_473)"/>
<path d="M202.849 100C202.849 105.992 197.992 110.849 192 110.849C186.008 110.849 181.151 105.992 181.151 100C181.151 94.0081 186.008 89.1507 192 89.1507C197.992 89.1507 202.849 94.0081 202.849 100Z" stroke="white" stroke-width="4" mask="url(#path-2-inside-1_170_473)"/>
<path d="M201.493 74.8902C201.493 80.1332 197.243 84.3834 192 84.3834C186.757 84.3834 182.507 80.1332 182.507 74.8902C182.507 69.6473 186.757 65.397 192 65.397C197.243 65.397 201.493 69.6473 201.493 74.8902Z" stroke="white" stroke-width="4" mask="url(#path-2-inside-1_170_473)"/>
<path d="M224.795 92.1525C224.795 97.3955 220.545 101.646 215.302 101.646C210.059 101.646 205.809 97.3955 205.809 92.1525C205.809 86.9095 210.059 82.6593 215.302 82.6593C220.545 82.6593 224.795 86.9095 224.795 92.1525Z" stroke="white" stroke-width="4" mask="url(#path-2-inside-1_170_473)"/>
<path d="M216.165 119.768C216.165 125.011 211.915 129.261 206.672 129.261C201.429 129.261 197.178 125.011 197.178 119.768C197.178 114.525 201.429 110.274 206.672 110.274C211.915 110.274 216.165 114.525 216.165 119.768Z" stroke="white" stroke-width="4" mask="url(#path-2-inside-1_170_473)"/>
<path fill-rule="evenodd" clip-rule="evenodd" d="M238.11 100C238.11 125.466 217.466 146.11 192 146.11C166.534 146.11 145.89 125.466 145.89 100C145.89 74.5344 166.534 53.8904 192 53.8904C217.466 53.8904 238.11 74.5344 238.11 100ZM229.974 92.1528C229.974 100.256 223.405 106.824 215.302 106.824C214.635 106.824 213.978 106.78 213.335 106.693C218.089 109.121 221.343 114.064 221.343 119.768C221.343 127.871 214.775 134.439 206.672 134.439C198.569 134.439 192.001 127.871 192.001 119.768C192.001 127.871 185.432 134.439 177.329 134.439C169.226 134.439 162.658 127.871 162.658 119.768C162.658 114.064 165.912 109.121 170.666 106.693C170.023 106.78 169.366 106.824 168.699 106.824C160.596 106.824 154.027 100.256 154.027 92.1528C154.027 84.05 160.596 77.4814 168.699 77.4814C172.719 77.4814 176.361 79.0981 179.011 81.7166C177.937 79.6776 177.329 77.355 177.329 74.8905C177.329 66.7878 183.898 60.2192 192.001 60.2192C200.103 60.2192 206.672 66.7878 206.672 74.8905C206.672 77.3548 206.064 79.6772 204.991 81.716C207.641 79.0978 211.283 77.4814 215.302 77.4814C223.405 77.4814 229.974 84.05 229.974 92.1528Z" stroke="white" stroke-width="4" mask="url(#path-2-inside-1_170_473)"/>
<path d="M178.192 92.1525C178.192 97.3955 173.941 101.646 168.698 101.646C163.455 101.646 159.205 97.3955 159.205 92.1525C159.205 86.9095 163.455 82.6593 168.698 82.6593C173.941 82.6593 178.192 86.9095 178.192 92.1525Z" stroke="white" stroke-width="4" mask="url(#path-2-inside-1_170_473)"/>
<path d="M186.822 119.768C186.822 125.011 182.572 129.261 177.329 129.261C172.086 129.261 167.835 125.011 167.835 119.768C167.835 114.525 172.086 110.274 177.329 110.274C182.572 110.274 186.822 114.525 186.822 119.768Z" stroke="white" stroke-width="4" mask="url(#path-2-inside-1_170_473)"/>
<path d="M330.849 100C330.849 105.992 325.992 110.849 320 110.849C314.008 110.849 309.151 105.992 309.151 100C309.151 94.0081 314.008 89.1507 320 89.1507C325.992 89.1507 330.849 94.0081 330.849 100Z" stroke="white" stroke-width="4" mask="url(#path-2-inside-1_170_473)"/>
<path d="M329.493 74.8902C329.493 80.1332 325.243 84.3834 320 84.3834C314.757 84.3834 310.507 80.1332 310.507 74.8902C310.507 69.6473 314.757 65.397 320 65.397C325.243 65.397 329.493 69.6473 329.493 74.8902Z" stroke="white" stroke-width="4" mask="url(#path-2-inside-1_170_473)"/>
<path d="M352.795 92.1525C352.795 97.3955 348.545 101.646 343.302 101.646C338.059 101.646 333.809 97.3955 333.809 92.1525C333.809 86.9095 338.059 82.6593 343.302 82.6593C348.545 82.6593 352.795 86.9095 352.795 92.1525Z" stroke="white" stroke-width="4" mask="url(#path-2-inside-1_170_473)"/>
<path d="M344.165 119.768C344.165 125.011 339.915 129.261 334.672 129.261C329.429 129.261 325.178 125.011 325.178 119.768C325.178 114.525 329.429 110.274 334.672 110.274C339.915 110.274 344.165 114.525 344.165 119.768Z" stroke="white" stroke-width="4" mask="url(#path-2-inside-1_170_473)"/>
<path fill-rule="evenodd" clip-rule="evenodd" d="M366.11 100C366.11 125.466 345.466 146.11 320 146.11C294.534 146.11 273.89 125.466 273.89 100C273.89 74.5344 294.534 53.8904 320 53.8904C345.466 53.8904 366.11 74.5344 366.11 100ZM357.974 92.1528C357.974 100.256 351.405 106.824 343.302 106.824C342.635 106.824 341.978 106.78 341.335 106.693C346.089 109.121 349.343 114.064 349.343 119.768C349.343 127.871 342.775 134.439 334.672 134.439C326.569 134.439 320.001 127.871 320.001 119.768C320.001 127.871 313.432 134.439 305.329 134.439C297.226 134.439 290.658 127.871 290.658 119.768C290.658 114.064 293.912 109.121 298.666 106.693C298.023 106.78 297.366 106.824 296.699 106.824C288.596 106.824 282.027 100.256 282.027 92.1528C282.027 84.05 288.596 77.4814 296.699 77.4814C300.719 77.4814 304.361 79.0981 307.011 81.7166C305.937 79.6776 305.329 77.355 305.329 74.8905C305.329 66.7878 311.898 60.2192 320.001 60.2192C328.103 60.2192 334.672 66.7878 334.672 74.8905C334.672 77.3548 334.064 79.6772 332.991 81.716C335.641 79.0978 339.283 77.4814 343.302 77.4814C351.405 77.4814 357.974 84.05 357.974 92.1528Z" stroke="white" stroke-width="4" mask="url(#path-2-inside-1_170_473)"/>
<path d="M306.192 92.1525C306.192 97.3955 301.941 101.646 296.698 101.646C291.455 101.646 287.205 97.3955 287.205 92.1525C287.205 86.9095 291.455 82.6593 296.698 82.6593C301.941 82.6593 306.192 86.9095 306.192 92.1525Z" stroke="white" stroke-width="4" mask="url(#path-2-inside-1_170_473)"/>
<path d="M314.822 119.768C314.822 125.011 310.572 129.261 305.329 129.261C300.086 129.261 295.835 125.011 295.835 119.768C295.835 114.525 300.086 110.274 305.329 110.274C310.572 110.274 314.822 114.525 314.822 119.768Z" stroke="white" stroke-width="4" mask="url(#path-2-inside-1_170_473)"/>
<path fill-rule="evenodd" clip-rule="evenodd" d="M192 166C155.549 166 126 136.451 126 100C126 63.5492 155.549 34 192 34C222.865 34 248.782 55.1872 256 83.8112C263.218 55.1872 289.135 34 320 34C356.451 34 386 63.5492 386 100C386 136.451 356.451 166 320 166C289.135 166 263.218 144.813 256 116.189C248.782 144.813 222.865 166 192 166ZM192 151.04C220.189 151.04 243.04 128.189 243.04 100C243.04 71.8114 220.189 48.96 192 48.96C163.811 48.96 140.96 71.8114 140.96 100C140.96 128.189 163.811 151.04 192 151.04ZM320 151.04C348.189 151.04 371.04 128.189 371.04 100C371.04 71.8114 348.189 48.96 320 48.96C291.811 48.96 268.96 71.8114 268.96 100C268.96 128.189 291.811 151.04 320 151.04Z" stroke="white" stroke-width="4" mask="url(#path-2-inside-1_170_473)"/>
<mask id="path-3-inside-2_170_473" fill="white">
<path d="M204.013 412C204.013 418.082 199.082 423.013 193 423.013C186.917 423.013 181.986 418.082 181.986 412C181.986 405.917 186.917 400.986 193 400.986C199.082 400.986 204.013 405.917 204.013 412Z"/>
<path d="M202.637 386.509C202.637 391.832 198.322 396.146 193 396.146C187.677 396.146 183.363 391.832 183.363 386.509C183.363 381.187 187.677 376.872 193 376.872C198.322 376.872 202.637 381.187 202.637 386.509Z"/>
<path d="M226.292 404.033C226.292 409.356 221.977 413.67 216.655 413.67C211.332 413.67 207.018 409.356 207.018 404.033C207.018 398.711 211.332 394.396 216.655 394.396C221.977 394.396 226.292 398.711 226.292 404.033Z"/>
<path d="M217.531 432.067C217.531 437.389 213.216 441.704 207.894 441.704C202.571 441.704 198.257 437.389 198.257 432.067C198.257 426.744 202.571 422.43 207.894 422.43C213.216 422.43 217.531 426.744 217.531 432.067Z"/>
<path fill-rule="evenodd" clip-rule="evenodd" d="M239.808 412C239.808 437.851 218.851 458.808 193 458.808C167.148 458.808 146.191 437.851 146.191 412C146.191 386.148 167.148 365.191 193 365.191C218.851 365.191 239.808 386.148 239.808 412ZM231.549 404.034C231.549 412.259 224.88 418.927 216.655 418.927C215.978 418.927 215.311 418.882 214.658 418.794C219.483 421.259 222.788 426.277 222.788 432.067C222.788 440.293 216.119 446.961 207.894 446.961C199.668 446.961 193 440.293 193 432.067C193 440.293 186.332 446.961 178.106 446.961C169.881 446.961 163.213 440.293 163.213 432.067C163.213 426.277 166.517 421.259 171.342 418.794C170.689 418.882 170.023 418.927 169.345 418.927C161.12 418.927 154.452 412.259 154.452 404.034C154.452 395.808 161.12 389.14 169.345 389.14C173.426 389.14 177.123 390.781 179.813 393.439C178.723 391.369 178.107 389.012 178.107 386.51C178.107 378.284 184.775 371.616 193 371.616C201.226 371.616 207.894 378.284 207.894 386.51C207.894 389.011 207.277 391.369 206.187 393.439C208.877 390.781 212.575 389.14 216.655 389.14C224.88 389.14 231.549 395.808 231.549 404.034Z"/>
<path d="M178.982 404.033C178.982 409.356 174.667 413.67 169.345 413.67C164.023 413.67 159.708 409.356 159.708 404.033C159.708 398.711 164.023 394.396 169.345 394.396C174.667 394.396 178.982 398.711 178.982 404.033Z"/>
<path d="M187.743 432.067C187.743 437.389 183.428 441.704 178.106 441.704C172.784 441.704 168.469 437.389 168.469 432.067C168.469 426.744 172.784 422.43 178.106 422.43C183.428 422.43 187.743 426.744 187.743 432.067Z"/>
<path d="M330.013 412C330.013 418.082 325.082 423.013 319 423.013C312.917 423.013 307.986 418.082 307.986 412C307.986 405.917 312.917 400.986 319 400.986C325.082 400.986 330.013 405.917 330.013 412Z"/>
<path d="M328.637 386.509C328.637 391.832 324.322 396.146 319 396.146C313.677 396.146 309.363 391.832 309.363 386.509C309.363 381.187 313.677 376.872 319 376.872C324.322 376.872 328.637 381.187 328.637 386.509Z"/>
<path d="M352.292 404.033C352.292 409.356 347.977 413.67 342.655 413.67C337.332 413.67 333.018 409.356 333.018 404.033C333.018 398.711 337.332 394.396 342.655 394.396C347.977 394.396 352.292 398.711 352.292 404.033Z"/>
<path d="M343.531 432.067C343.531 437.389 339.216 441.704 333.894 441.704C328.571 441.704 324.257 437.389 324.257 432.067C324.257 426.744 328.571 422.43 333.894 422.43C339.216 422.43 343.531 426.744 343.531 432.067Z"/>
<path fill-rule="evenodd" clip-rule="evenodd" d="M365.808 412C365.808 437.851 344.851 458.808 319 458.808C293.148 458.808 272.191 437.851 272.191 412C272.191 386.148 293.148 365.191 319 365.191C344.851 365.191 365.808 386.148 365.808 412ZM357.549 404.034C357.549 412.259 350.88 418.927 342.655 418.927C341.978 418.927 341.311 418.882 340.658 418.794C345.483 421.259 348.788 426.277 348.788 432.067C348.788 440.293 342.119 446.961 333.894 446.961C325.668 446.961 319 440.293 319 432.067C319 440.293 312.332 446.961 304.106 446.961C295.881 446.961 289.213 440.293 289.213 432.067C289.213 426.277 292.517 421.259 297.342 418.794C296.689 418.882 296.023 418.927 295.345 418.927C287.12 418.927 280.452 412.259 280.452 404.034C280.452 395.808 287.12 389.14 295.345 389.14C299.426 389.14 303.123 390.781 305.813 393.439C304.723 391.369 304.107 389.012 304.107 386.51C304.107 378.284 310.775 371.616 319 371.616C327.226 371.616 333.894 378.284 333.894 386.51C333.894 389.011 333.277 391.369 332.187 393.439C334.877 390.781 338.575 389.14 342.655 389.14C350.88 389.14 357.549 395.808 357.549 404.034Z"/>
<path d="M304.982 404.033C304.982 409.356 300.667 413.67 295.345 413.67C290.023 413.67 285.708 409.356 285.708 404.033C285.708 398.711 290.023 394.396 295.345 394.396C300.667 394.396 304.982 398.711 304.982 404.033Z"/>
<path d="M313.743 432.067C313.743 437.389 309.428 441.704 304.106 441.704C298.784 441.704 294.469 437.389 294.469 432.067C294.469 426.744 298.784 422.43 304.106 422.43C309.428 422.43 313.743 426.744 313.743 432.067Z"/>
<path d="M204.013 286C204.013 292.082 199.082 297.013 193 297.013C186.917 297.013 181.986 292.082 181.986 286C181.986 279.917 186.917 274.986 193 274.986C199.082 274.986 204.013 279.917 204.013 286Z"/>
<path d="M202.637 260.509C202.637 265.832 198.322 270.146 193 270.146C187.677 270.146 183.363 265.832 183.363 260.509C183.363 255.187 187.677 250.872 193 250.872C198.322 250.872 202.637 255.187 202.637 260.509Z"/>
<path d="M226.292 278.033C226.292 283.356 221.977 287.67 216.655 287.67C211.332 287.67 207.018 283.356 207.018 278.033C207.018 272.711 211.332 268.396 216.655 268.396C221.977 268.396 226.292 272.711 226.292 278.033Z"/>
<path d="M217.531 306.067C217.531 311.389 213.216 315.704 207.894 315.704C202.571 315.704 198.257 311.389 198.257 306.067C198.257 300.744 202.571 296.43 207.894 296.43C213.216 296.43 217.531 300.744 217.531 306.067Z"/>
<path fill-rule="evenodd" clip-rule="evenodd" d="M239.808 286C239.808 311.851 218.851 332.808 193 332.808C167.148 332.808 146.191 311.851 146.191 286C146.191 260.148 167.148 239.191 193 239.191C218.851 239.191 239.808 260.148 239.808 286ZM231.549 278.034C231.549 286.259 224.88 292.927 216.655 292.927C215.978 292.927 215.311 292.882 214.658 292.794C219.483 295.259 222.788 300.277 222.788 306.067C222.788 314.293 216.119 320.961 207.894 320.961C199.668 320.961 193 314.293 193 306.067C193 314.293 186.332 320.961 178.106 320.961C169.881 320.961 163.213 314.293 163.213 306.067C163.213 300.277 166.517 295.259 171.342 292.794C170.689 292.882 170.023 292.927 169.345 292.927C161.12 292.927 154.452 286.259 154.452 278.034C154.452 269.808 161.12 263.14 169.345 263.14C173.426 263.14 177.123 264.781 179.813 267.439C178.723 265.369 178.107 263.012 178.107 260.51C178.107 252.284 184.775 245.616 193 245.616C201.226 245.616 207.894 252.284 207.894 260.51C207.894 263.011 207.277 265.369 206.187 267.439C208.877 264.781 212.575 263.14 216.655 263.14C224.88 263.14 231.549 269.808 231.549 278.034Z"/>
<path d="M178.982 278.033C178.982 283.356 174.667 287.67 169.345 287.67C164.023 287.67 159.708 283.356 159.708 278.033C159.708 272.711 164.023 268.396 169.345 268.396C174.667 268.396 178.982 272.711 178.982 278.033Z"/>
<path d="M187.743 306.067C187.743 311.389 183.428 315.704 178.106 315.704C172.784 315.704 168.469 311.389 168.469 306.067C168.469 300.744 172.784 296.43 178.106 296.43C183.428 296.43 187.743 300.744 187.743 306.067Z"/>
<path d="M330.013 286C330.013 292.082 325.082 297.013 319 297.013C312.917 297.013 307.986 292.082 307.986 286C307.986 279.917 312.917 274.986 319 274.986C325.082 274.986 330.013 279.917 330.013 286Z"/>
<path d="M328.637 260.509C328.637 265.832 324.322 270.146 319 270.146C313.677 270.146 309.363 265.832 309.363 260.509C309.363 255.187 313.677 250.872 319 250.872C324.322 250.872 328.637 255.187 328.637 260.509Z"/>
<path d="M352.292 278.033C352.292 283.356 347.977 287.67 342.655 287.67C337.332 287.67 333.018 283.356 333.018 278.033C333.018 272.711 337.332 268.396 342.655 268.396C347.977 268.396 352.292 272.711 352.292 278.033Z"/>
<path d="M343.531 306.067C343.531 311.389 339.216 315.704 333.894 315.704C328.571 315.704 324.257 311.389 324.257 306.067C324.257 300.744 328.571 296.43 333.894 296.43C339.216 296.43 343.531 300.744 343.531 306.067Z"/>
<path fill-rule="evenodd" clip-rule="evenodd" d="M365.808 286C365.808 311.851 344.851 332.808 319 332.808C293.148 332.808 272.191 311.851 272.191 286C272.191 260.148 293.148 239.191 319 239.191C344.851 239.191 365.808 260.148 365.808 286ZM357.549 278.034C357.549 286.259 350.88 292.927 342.655 292.927C341.978 292.927 341.311 292.882 340.658 292.794C345.483 295.259 348.788 300.277 348.788 306.067C348.788 314.293 342.119 320.961 333.894 320.961C325.668 320.961 319 314.293 319 306.067C319 314.293 312.332 320.961 304.106 320.961C295.881 320.961 289.213 314.293 289.213 306.067C289.213 300.277 292.517 295.259 297.342 292.794C296.689 292.882 296.023 292.927 295.345 292.927C287.12 292.927 280.452 286.259 280.452 278.034C280.452 269.808 287.12 263.14 295.345 263.14C299.426 263.14 303.123 264.781 305.813 267.439C304.723 265.369 304.107 263.012 304.107 260.51C304.107 252.284 310.775 245.616 319 245.616C327.226 245.616 333.894 252.284 333.894 260.51C333.894 263.011 333.277 265.369 332.187 267.439C334.877 264.781 338.575 263.14 342.655 263.14C350.88 263.14 357.549 269.808 357.549 278.034Z"/>
<path d="M304.982 278.033C304.982 283.356 300.667 287.67 295.345 287.67C290.023 287.67 285.708 283.356 285.708 278.033C285.708 272.711 290.023 268.396 295.345 268.396C300.667 268.396 304.982 272.711 304.982 278.033Z"/>
<path d="M313.743 306.067C313.743 311.389 309.428 315.704 304.106 315.704C298.784 315.704 294.469 311.389 294.469 306.067C294.469 300.744 298.784 296.43 304.106 296.43C309.428 296.43 313.743 300.744 313.743 306.067Z"/>
</mask>
<path d="M204.013 412C204.013 418.082 199.082 423.013 193 423.013C186.917 423.013 181.986 418.082 181.986 412C181.986 405.917 186.917 400.986 193 400.986C199.082 400.986 204.013 405.917 204.013 412Z" fill="#969696"/>
<path d="M202.637 386.509C202.637 391.832 198.322 396.146 193 396.146C187.677 396.146 183.363 391.832 183.363 386.509C183.363 381.187 187.677 376.872 193 376.872C198.322 376.872 202.637 381.187 202.637 386.509Z" fill="#969696"/>
<path d="M226.292 404.033C226.292 409.356 221.977 413.67 216.655 413.67C211.332 413.67 207.018 409.356 207.018 404.033C207.018 398.711 211.332 394.396 216.655 394.396C221.977 394.396 226.292 398.711 226.292 404.033Z" fill="#969696"/>
<path d="M217.531 432.067C217.531 437.389 213.216 441.704 207.894 441.704C202.571 441.704 198.257 437.389 198.257 432.067C198.257 426.744 202.571 422.43 207.894 422.43C213.216 422.43 217.531 426.744 217.531 432.067Z" fill="#969696"/>
<path fill-rule="evenodd" clip-rule="evenodd" d="M239.808 412C239.808 437.851 218.851 458.808 193 458.808C167.148 458.808 146.191 437.851 146.191 412C146.191 386.148 167.148 365.191 193 365.191C218.851 365.191 239.808 386.148 239.808 412ZM231.549 404.034C231.549 412.259 224.88 418.927 216.655 418.927C215.978 418.927 215.311 418.882 214.658 418.794C219.483 421.259 222.788 426.277 222.788 432.067C222.788 440.293 216.119 446.961 207.894 446.961C199.668 446.961 193 440.293 193 432.067C193 440.293 186.332 446.961 178.106 446.961C169.881 446.961 163.213 440.293 163.213 432.067C163.213 426.277 166.517 421.259 171.342 418.794C170.689 418.882 170.023 418.927 169.345 418.927C161.12 418.927 154.452 412.259 154.452 404.034C154.452 395.808 161.12 389.14 169.345 389.14C173.426 389.14 177.123 390.781 179.813 393.439C178.723 391.369 178.107 389.012 178.107 386.51C178.107 378.284 184.775 371.616 193 371.616C201.226 371.616 207.894 378.284 207.894 386.51C207.894 389.011 207.277 391.369 206.187 393.439C208.877 390.781 212.575 389.14 216.655 389.14C224.88 389.14 231.549 395.808 231.549 404.034Z" fill="#969696"/>
<path d="M178.982 404.033C178.982 409.356 174.667 413.67 169.345 413.67C164.023 413.67 159.708 409.356 159.708 404.033C159.708 398.711 164.023 394.396 169.345 394.396C174.667 394.396 178.982 398.711 178.982 404.033Z" fill="#969696"/>
<path d="M187.743 432.067C187.743 437.389 183.428 441.704 178.106 441.704C172.784 441.704 168.469 437.389 168.469 432.067C168.469 426.744 172.784 422.43 178.106 422.43C183.428 422.43 187.743 426.744 187.743 432.067Z" fill="#969696"/>
<path d="M330.013 412C330.013 418.082 325.082 423.013 319 423.013C312.917 423.013 307.986 418.082 307.986 412C307.986 405.917 312.917 400.986 319 400.986C325.082 400.986 330.013 405.917 330.013 412Z" fill="#969696"/>
<path d="M328.637 386.509C328.637 391.832 324.322 396.146 319 396.146C313.677 396.146 309.363 391.832 309.363 386.509C309.363 381.187 313.677 376.872 319 376.872C324.322 376.872 328.637 381.187 328.637 386.509Z" fill="#969696"/>
<path d="M352.292 404.033C352.292 409.356 347.977 413.67 342.655 413.67C337.332 413.67 333.018 409.356 333.018 404.033C333.018 398.711 337.332 394.396 342.655 394.396C347.977 394.396 352.292 398.711 352.292 404.033Z" fill="#969696"/>
<path d="M343.531 432.067C343.531 437.389 339.216 441.704 333.894 441.704C328.571 441.704 324.257 437.389 324.257 432.067C324.257 426.744 328.571 422.43 333.894 422.43C339.216 422.43 343.531 426.744 343.531 432.067Z" fill="#969696"/>
<path fill-rule="evenodd" clip-rule="evenodd" d="M365.808 412C365.808 437.851 344.851 458.808 319 458.808C293.148 458.808 272.191 437.851 272.191 412C272.191 386.148 293.148 365.191 319 365.191C344.851 365.191 365.808 386.148 365.808 412ZM357.549 404.034C357.549 412.259 350.88 418.927 342.655 418.927C341.978 418.927 341.311 418.882 340.658 418.794C345.483 421.259 348.788 426.277 348.788 432.067C348.788 440.293 342.119 446.961 333.894 446.961C325.668 446.961 319 440.293 319 432.067C319 440.293 312.332 446.961 304.106 446.961C295.881 446.961 289.213 440.293 289.213 432.067C289.213 426.277 292.517 421.259 297.342 418.794C296.689 418.882 296.023 418.927 295.345 418.927C287.12 418.927 280.452 412.259 280.452 404.034C280.452 395.808 287.12 389.14 295.345 389.14C299.426 389.14 303.123 390.781 305.813 393.439C304.723 391.369 304.107 389.012 304.107 386.51C304.107 378.284 310.775 371.616 319 371.616C327.226 371.616 333.894 378.284 333.894 386.51C333.894 389.011 333.277 391.369 332.187 393.439C334.877 390.781 338.575 389.14 342.655 389.14C350.88 389.14 357.549 395.808 357.549 404.034Z" fill="#969696"/>
<path d="M304.982 404.033C304.982 409.356 300.667 413.67 295.345 413.67C290.023 413.67 285.708 409.356 285.708 404.033C285.708 398.711 290.023 394.396 295.345 394.396C300.667 394.396 304.982 398.711 304.982 404.033Z" fill="#969696"/>
<path d="M313.743 432.067C313.743 437.389 309.428 441.704 304.106 441.704C298.784 441.704 294.469 437.389 294.469 432.067C294.469 426.744 298.784 422.43 304.106 422.43C309.428 422.43 313.743 426.744 313.743 432.067Z" fill="#969696"/>
<path d="M204.013 286C204.013 292.082 199.082 297.013 193 297.013C186.917 297.013 181.986 292.082 181.986 286C181.986 279.917 186.917 274.986 193 274.986C199.082 274.986 204.013 279.917 204.013 286Z" fill="#969696"/>
<path d="M202.637 260.509C202.637 265.832 198.322 270.146 193 270.146C187.677 270.146 183.363 265.832 183.363 260.509C183.363 255.187 187.677 250.872 193 250.872C198.322 250.872 202.637 255.187 202.637 260.509Z" fill="#969696"/>
<path d="M226.292 278.033C226.292 283.356 221.977 287.67 216.655 287.67C211.332 287.67 207.018 283.356 207.018 278.033C207.018 272.711 211.332 268.396 216.655 268.396C221.977 268.396 226.292 272.711 226.292 278.033Z" fill="#969696"/>
<path d="M217.531 306.067C217.531 311.389 213.216 315.704 207.894 315.704C202.571 315.704 198.257 311.389 198.257 306.067C198.257 300.744 202.571 296.43 207.894 296.43C213.216 296.43 217.531 300.744 217.531 306.067Z" fill="#969696"/>
<path fill-rule="evenodd" clip-rule="evenodd" d="M239.808 286C239.808 311.851 218.851 332.808 193 332.808C167.148 332.808 146.191 311.851 146.191 286C146.191 260.148 167.148 239.191 193 239.191C218.851 239.191 239.808 260.148 239.808 286ZM231.549 278.034C231.549 286.259 224.88 292.927 216.655 292.927C215.978 292.927 215.311 292.882 214.658 292.794C219.483 295.259 222.788 300.277 222.788 306.067C222.788 314.293 216.119 320.961 207.894 320.961C199.668 320.961 193 314.293 193 306.067C193 314.293 186.332 320.961 178.106 320.961C169.881 320.961 163.213 314.293 163.213 306.067C163.213 300.277 166.517 295.259 171.342 292.794C170.689 292.882 170.023 292.927 169.345 292.927C161.12 292.927 154.452 286.259 154.452 278.034C154.452 269.808 161.12 263.14 169.345 263.14C173.426 263.14 177.123 264.781 179.813 267.439C178.723 265.369 178.107 263.012 178.107 260.51C178.107 252.284 184.775 245.616 193 245.616C201.226 245.616 207.894 252.284 207.894 260.51C207.894 263.011 207.277 265.369 206.187 267.439C208.877 264.781 212.575 263.14 216.655 263.14C224.88 263.14 231.549 269.808 231.549 278.034Z" fill="#969696"/>
<path d="M178.982 278.033C178.982 283.356 174.667 287.67 169.345 287.67C164.023 287.67 159.708 283.356 159.708 278.033C159.708 272.711 164.023 268.396 169.345 268.396C174.667 268.396 178.982 272.711 178.982 278.033Z" fill="#969696"/>
<path d="M187.743 306.067C187.743 311.389 183.428 315.704 178.106 315.704C172.784 315.704 168.469 311.389 168.469 306.067C168.469 300.744 172.784 296.43 178.106 296.43C183.428 296.43 187.743 300.744 187.743 306.067Z" fill="#969696"/>
<path d="M330.013 286C330.013 292.082 325.082 297.013 319 297.013C312.917 297.013 307.986 292.082 307.986 286C307.986 279.917 312.917 274.986 319 274.986C325.082 274.986 330.013 279.917 330.013 286Z" fill="#969696"/>
<path d="M328.637 260.509C328.637 265.832 324.322 270.146 319 270.146C313.677 270.146 309.363 265.832 309.363 260.509C309.363 255.187 313.677 250.872 319 250.872C324.322 250.872 328.637 255.187 328.637 260.509Z" fill="#969696"/>
<path d="M352.292 278.033C352.292 283.356 347.977 287.67 342.655 287.67C337.332 287.67 333.018 283.356 333.018 278.033C333.018 272.711 337.332 268.396 342.655 268.396C347.977 268.396 352.292 272.711 352.292 278.033Z" fill="#969696"/>
<path d="M343.531 306.067C343.531 311.389 339.216 315.704 333.894 315.704C328.571 315.704 324.257 311.389 324.257 306.067C324.257 300.744 328.571 296.43 333.894 296.43C339.216 296.43 343.531 300.744 343.531 306.067Z" fill="#969696"/>
<path fill-rule="evenodd" clip-rule="evenodd" d="M365.808 286C365.808 311.851 344.851 332.808 319 332.808C293.148 332.808 272.191 311.851 272.191 286C272.191 260.148 293.148 239.191 319 239.191C344.851 239.191 365.808 260.148 365.808 286ZM357.549 278.034C357.549 286.259 350.88 292.927 342.655 292.927C341.978 292.927 341.311 292.882 340.658 292.794C345.483 295.259 348.788 300.277 348.788 306.067C348.788 314.293 342.119 320.961 333.894 320.961C325.668 320.961 319 314.293 319 306.067C319 314.293 312.332 320.961 304.106 320.961C295.881 320.961 289.213 314.293 289.213 306.067C289.213 300.277 292.517 295.259 297.342 292.794C296.689 292.882 296.023 292.927 295.345 292.927C287.12 292.927 280.452 286.259 280.452 278.034C280.452 269.808 287.12 263.14 295.345 263.14C299.426 263.14 303.123 264.781 305.813 267.439C304.723 265.369 304.107 263.012 304.107 260.51C304.107 252.284 310.775 245.616 319 245.616C327.226 245.616 333.894 252.284 333.894 260.51C333.894 263.011 333.277 265.369 332.187 267.439C334.877 264.781 338.575 263.14 342.655 263.14C350.88 263.14 357.549 269.808 357.549 278.034Z" fill="#969696"/>
<path d="M304.982 278.033C304.982 283.356 300.667 287.67 295.345 287.67C290.023 287.67 285.708 283.356 285.708 278.033C285.708 272.711 290.023 268.396 295.345 268.396C300.667 268.396 304.982 272.711 304.982 278.033Z" fill="#969696"/>
<path d="M313.743 306.067C313.743 311.389 309.428 315.704 304.106 315.704C298.784 315.704 294.469 311.389 294.469 306.067C294.469 300.744 298.784 296.43 304.106 296.43C309.428 296.43 313.743 300.744 313.743 306.067Z" fill="#969696"/>
<path d="M171.342 418.794L172.252 420.576L171.077 416.812L171.342 418.794ZM179.813 393.439L178.408 394.862L181.583 392.507L179.813 393.439ZM206.187 393.439L204.418 392.507L207.593 394.861L206.187 393.439ZM214.658 418.794L214.924 416.812L213.748 420.576L214.658 418.794ZM297.342 418.794L298.252 420.576L297.077 416.812L297.342 418.794ZM305.813 393.439L304.408 394.862L307.583 392.507L305.813 393.439ZM332.187 393.439L330.418 392.507L333.593 394.861L332.187 393.439ZM340.658 418.794L340.923 416.812L339.748 420.576L340.658 418.794ZM171.342 292.794L172.252 294.576L171.077 290.812L171.342 292.794ZM179.813 267.439L178.408 268.862L181.583 266.507L179.813 267.439ZM206.187 267.439L204.418 266.507L207.593 268.861L206.187 267.439ZM214.658 292.794L214.924 290.812L213.748 294.576L214.658 292.794ZM297.342 292.794L298.252 294.576L297.077 290.812L297.342 292.794ZM305.813 267.439L304.408 268.862L307.583 266.507L305.813 267.439ZM332.187 267.439L330.418 266.507L333.593 268.861L332.187 267.439ZM340.658 292.794L340.923 290.812L339.748 294.576L340.658 292.794ZM237.808 412C237.808 436.747 217.747 456.808 193 456.808V460.808C219.956 460.808 241.808 438.956 241.808 412H237.808ZM193 456.808C168.253 456.808 148.191 436.747 148.191 412H144.191C144.191 438.956 166.044 460.808 193 460.808V456.808ZM148.191 412C148.191 387.253 168.253 367.191 193 367.191V363.191C166.044 363.191 144.191 385.044 144.191 412H148.191ZM193 367.191C217.747 367.191 237.808 387.253 237.808 412H241.808C241.808 385.044 219.956 363.191 193 363.191V367.191ZM202.013 412C202.013 416.978 197.978 421.013 193 421.013V425.013C200.187 425.013 206.013 419.187 206.013 412H202.013ZM193 421.013C188.021 421.013 183.986 416.978 183.986 412H179.986C179.986 419.187 185.812 425.013 193 425.013V421.013ZM183.986 412C183.986 407.021 188.021 402.986 193 402.986V398.986C185.812 398.986 179.986 404.812 179.986 412H183.986ZM193 402.986C197.978 402.986 202.013 407.021 202.013 412H206.013C206.013 404.812 200.187 398.986 193 398.986V402.986ZM229.549 404.034C229.549 411.154 223.776 416.927 216.655 416.927V420.927C225.985 420.927 233.549 413.364 233.549 404.034H229.549ZM216.655 391.14C223.776 391.14 229.549 396.913 229.549 404.034H233.549C233.549 394.703 225.985 387.14 216.655 387.14V391.14ZM224.292 404.033C224.292 408.251 220.872 411.67 216.655 411.67V415.67C223.082 415.67 228.292 410.46 228.292 404.033H224.292ZM216.655 411.67C212.437 411.67 209.018 408.251 209.018 404.033H205.018C205.018 410.46 210.228 415.67 216.655 415.67V411.67ZM209.018 404.033C209.018 399.815 212.437 396.396 216.655 396.396V392.396C210.228 392.396 205.018 397.606 205.018 404.033H209.018ZM216.655 396.396C220.872 396.396 224.292 399.815 224.292 404.033H228.292C228.292 397.606 223.082 392.396 216.655 392.396V396.396ZM169.345 416.927C162.224 416.927 156.452 411.154 156.452 404.034H152.452C152.452 413.364 160.015 420.927 169.345 420.927V416.927ZM156.452 404.034C156.452 396.913 162.224 391.14 169.345 391.14V387.14C160.015 387.14 152.452 394.703 152.452 404.034H156.452ZM176.982 404.033C176.982 408.251 173.563 411.67 169.345 411.67V415.67C175.772 415.67 180.982 410.46 180.982 404.033H176.982ZM169.345 411.67C165.127 411.67 161.708 408.251 161.708 404.033H157.708C157.708 410.46 162.918 415.67 169.345 415.67V411.67ZM161.708 404.033C161.708 399.815 165.127 396.396 169.345 396.396V392.396C162.918 392.396 157.708 397.606 157.708 404.033H161.708ZM169.345 396.396C173.563 396.396 176.982 399.815 176.982 404.033H180.982C180.982 397.606 175.772 392.396 169.345 392.396V396.396ZM220.788 432.067C220.788 439.188 215.015 444.961 207.894 444.961V448.961C217.224 448.961 224.788 441.397 224.788 432.067H220.788ZM207.894 444.961C200.773 444.961 195 439.188 195 432.067H191C191 441.397 198.564 448.961 207.894 448.961V444.961ZM215.531 432.067C215.531 436.285 212.111 439.704 207.894 439.704V443.704C214.321 443.704 219.531 438.494 219.531 432.067H215.531ZM207.894 439.704C203.676 439.704 200.257 436.285 200.257 432.067H196.257C196.257 438.494 201.467 443.704 207.894 443.704V439.704ZM200.257 432.067C200.257 427.849 203.676 424.43 207.894 424.43V420.43C201.467 420.43 196.257 425.64 196.257 432.067H200.257ZM207.894 424.43C212.111 424.43 215.531 427.849 215.531 432.067H219.531C219.531 425.64 214.321 420.43 207.894 420.43V424.43ZM191 432.067C191 439.188 185.227 444.961 178.106 444.961V448.961C187.436 448.961 195 441.397 195 432.067H191ZM178.106 444.961C170.985 444.961 165.213 439.188 165.213 432.067H161.213C161.213 441.397 168.776 448.961 178.106 448.961V444.961ZM185.743 432.067C185.743 436.285 182.324 439.704 178.106 439.704V443.704C184.533 443.704 189.743 438.494 189.743 432.067H185.743ZM178.106 439.704C173.888 439.704 170.469 436.285 170.469 432.067H166.469C166.469 438.494 171.679 443.704 178.106 443.704V439.704ZM170.469 432.067C170.469 427.849 173.888 424.43 178.106 424.43V420.43C171.679 420.43 166.469 425.64 166.469 432.067H170.469ZM178.106 424.43C182.324 424.43 185.743 427.849 185.743 432.067H189.743C189.743 425.64 184.533 420.43 178.106 420.43V424.43ZM180.107 386.51C180.107 379.389 185.879 373.616 193 373.616V369.616C183.67 369.616 176.107 377.18 176.107 386.51H180.107ZM193 373.616C200.121 373.616 205.894 379.389 205.894 386.51H209.894C209.894 377.18 202.33 369.616 193 369.616V373.616ZM200.637 386.509C200.637 390.727 197.218 394.146 193 394.146V398.146C199.427 398.146 204.637 392.936 204.637 386.509H200.637ZM193 394.146C188.782 394.146 185.363 390.727 185.363 386.509H181.363C181.363 392.936 186.573 398.146 193 398.146V394.146ZM185.363 386.509C185.363 382.292 188.782 378.872 193 378.872V374.872C186.573 374.872 181.363 380.082 181.363 386.509H185.363ZM193 378.872C197.218 378.872 200.637 382.292 200.637 386.509H204.637C204.637 380.082 199.427 374.872 193 374.872V378.872ZM165.213 432.067C165.213 427.057 168.069 422.711 172.252 420.576L170.433 417.013C164.964 419.806 161.213 425.497 161.213 432.067H165.213ZM171.077 416.812C170.511 416.888 169.933 416.927 169.345 416.927V420.927C170.112 420.927 170.867 420.876 171.608 420.777L171.077 416.812ZM181.583 392.507C180.641 390.718 180.107 388.679 180.107 386.51H176.107C176.107 389.344 176.806 392.021 178.044 394.371L181.583 392.507ZM169.345 391.14C172.879 391.14 176.077 392.558 178.408 394.862L181.219 392.017C178.17 389.003 173.973 387.14 169.345 387.14V391.14ZM205.894 386.51C205.894 388.679 205.36 390.718 204.418 392.507L207.957 394.37C209.194 392.02 209.894 389.344 209.894 386.51H205.894ZM207.593 394.861C209.924 392.558 213.122 391.14 216.655 391.14V387.14C212.027 387.14 207.831 389.003 204.782 392.016L207.593 394.861ZM213.748 420.576C217.931 422.711 220.788 427.057 220.788 432.067H224.788C224.788 425.497 221.036 419.806 215.567 417.013L213.748 420.576ZM216.655 416.927C216.067 416.927 215.489 416.888 214.924 416.812L214.392 420.777C215.133 420.876 215.889 420.927 216.655 420.927V416.927ZM363.808 412C363.808 436.747 343.747 456.808 319 456.808V460.808C345.956 460.808 367.808 438.956 367.808 412H363.808ZM319 456.808C294.253 456.808 274.191 436.747 274.191 412H270.191C270.191 438.956 292.044 460.808 319 460.808V456.808ZM274.191 412C274.191 387.253 294.253 367.191 319 367.191V363.191C292.044 363.191 270.191 385.044 270.191 412H274.191ZM319 367.191C343.747 367.191 363.808 387.253 363.808 412H367.808C367.808 385.044 345.956 363.191 319 363.191V367.191ZM328.013 412C328.013 416.978 323.978 421.013 319 421.013V425.013C326.187 425.013 332.013 419.187 332.013 412H328.013ZM319 421.013C314.021 421.013 309.986 416.978 309.986 412H305.986C305.986 419.187 311.812 425.013 319 425.013V421.013ZM309.986 412C309.986 407.021 314.021 402.986 319 402.986V398.986C311.812 398.986 305.986 404.812 305.986 412H309.986ZM319 402.986C323.978 402.986 328.013 407.021 328.013 412H332.013C332.013 404.812 326.187 398.986 319 398.986V402.986ZM355.549 404.034C355.549 411.154 349.776 416.927 342.655 416.927V420.927C351.985 420.927 359.549 413.364 359.549 404.034H355.549ZM342.655 391.14C349.776 391.14 355.549 396.913 355.549 404.034H359.549C359.549 394.703 351.985 387.14 342.655 387.14V391.14ZM350.292 404.033C350.292 408.251 346.872 411.67 342.655 411.67V415.67C349.082 415.67 354.292 410.46 354.292 404.033H350.292ZM342.655 411.67C338.437 411.67 335.018 408.251 335.018 404.033H331.018C331.018 410.46 336.228 415.67 342.655 415.67V411.67ZM335.018 404.033C335.018 399.815 338.437 396.396 342.655 396.396V392.396C336.228 392.396 331.018 397.606 331.018 404.033H335.018ZM342.655 396.396C346.872 396.396 350.292 399.815 350.292 404.033H354.292C354.292 397.606 349.082 392.396 342.655 392.396V396.396ZM295.345 416.927C288.224 416.927 282.452 411.154 282.452 404.034H278.452C278.452 413.364 286.015 420.927 295.345 420.927V416.927ZM282.452 404.034C282.452 396.913 288.224 391.14 295.345 391.14V387.14C286.015 387.14 278.452 394.703 278.452 404.034H282.452ZM302.982 404.033C302.982 408.251 299.563 411.67 295.345 411.67V415.67C301.772 415.67 306.982 410.46 306.982 404.033H302.982ZM295.345 411.67C291.127 411.67 287.708 408.251 287.708 404.033H283.708C283.708 410.46 288.918 415.67 295.345 415.67V411.67ZM287.708 404.033C287.708 399.815 291.127 396.396 295.345 396.396V392.396C288.918 392.396 283.708 397.606 283.708 404.033H287.708ZM295.345 396.396C299.563 396.396 302.982 399.815 302.982 404.033H306.982C306.982 397.606 301.772 392.396 295.345 392.396V396.396ZM346.788 432.067C346.788 439.188 341.015 444.961 333.894 444.961V448.961C343.224 448.961 350.788 441.397 350.788 432.067H346.788ZM333.894 444.961C326.773 444.961 321 439.188 321 432.067H317C317 441.397 324.564 448.961 333.894 448.961V444.961ZM341.531 432.067C341.531 436.285 338.111 439.704 333.894 439.704V443.704C340.321 443.704 345.531 438.494 345.531 432.067H341.531ZM333.894 439.704C329.676 439.704 326.257 436.285 326.257 432.067H322.257C322.257 438.494 327.467 443.704 333.894 443.704V439.704ZM326.257 432.067C326.257 427.849 329.676 424.43 333.894 424.43V420.43C327.467 420.43 322.257 425.64 322.257 432.067H326.257ZM333.894 424.43C338.111 424.43 341.531 427.849 341.531 432.067H345.531C345.531 425.64 340.321 420.43 333.894 420.43V424.43ZM317 432.067C317 439.188 311.227 444.961 304.106 444.961V448.961C313.436 448.961 321 441.397 321 432.067H317ZM304.106 444.961C296.985 444.961 291.213 439.188 291.213 432.067H287.213C287.213 441.397 294.776 448.961 304.106 448.961V444.961ZM311.743 432.067C311.743 436.285 308.324 439.704 304.106 439.704V443.704C310.533 443.704 315.743 438.494 315.743 432.067H311.743ZM304.106 439.704C299.888 439.704 296.469 436.285 296.469 432.067H292.469C292.469 438.494 297.679 443.704 304.106 443.704V439.704ZM296.469 432.067C296.469 427.849 299.888 424.43 304.106 424.43V420.43C297.679 420.43 292.469 425.64 292.469 432.067H296.469ZM304.106 424.43C308.324 424.43 311.743 427.849 311.743 432.067H315.743C315.743 425.64 310.533 420.43 304.106 420.43V424.43ZM306.107 386.51C306.107 379.389 311.879 373.616 319 373.616V369.616C309.67 369.616 302.107 377.18 302.107 386.51H306.107ZM319 373.616C326.121 373.616 331.894 379.389 331.894 386.51H335.894C335.894 377.18 328.33 369.616 319 369.616V373.616ZM326.637 386.509C326.637 390.727 323.218 394.146 319 394.146V398.146C325.427 398.146 330.637 392.936 330.637 386.509H326.637ZM319 394.146C314.782 394.146 311.363 390.727 311.363 386.509H307.363C307.363 392.936 312.573 398.146 319 398.146V394.146ZM311.363 386.509C311.363 382.292 314.782 378.872 319 378.872V374.872C312.573 374.872 307.363 380.082 307.363 386.509H311.363ZM319 378.872C323.218 378.872 326.637 382.292 326.637 386.509H330.637C330.637 380.082 325.427 374.872 319 374.872V378.872ZM291.213 432.067C291.213 427.057 294.069 422.711 298.252 420.576L296.433 417.013C290.964 419.806 287.213 425.497 287.213 432.067H291.213ZM297.077 416.812C296.511 416.888 295.933 416.927 295.345 416.927V420.927C296.112 420.927 296.867 420.876 297.608 420.777L297.077 416.812ZM307.583 392.507C306.641 390.718 306.107 388.679 306.107 386.51H302.107C302.107 389.344 302.806 392.021 304.044 394.371L307.583 392.507ZM295.345 391.14C298.879 391.14 302.077 392.558 304.408 394.862L307.219 392.017C304.17 389.003 299.973 387.14 295.345 387.14V391.14ZM331.894 386.51C331.894 388.679 331.36 390.718 330.418 392.507L333.957 394.37C335.194 392.02 335.894 389.344 335.894 386.51H331.894ZM333.593 394.861C335.924 392.558 339.122 391.14 342.655 391.14V387.14C338.027 387.14 333.831 389.003 330.782 392.016L333.593 394.861ZM339.748 420.576C343.931 422.711 346.788 427.057 346.788 432.067H350.788C350.788 425.497 347.036 419.806 341.567 417.013L339.748 420.576ZM342.655 416.927C342.067 416.927 341.489 416.888 340.923 416.812L340.392 420.777C341.133 420.876 341.889 420.927 342.655 420.927V416.927ZM237.808 286C237.808 310.747 217.747 330.808 193 330.808V334.808C219.956 334.808 241.808 312.956 241.808 286H237.808ZM193 330.808C168.253 330.808 148.191 310.747 148.191 286H144.191C144.191 312.956 166.044 334.808 193 334.808V330.808ZM148.191 286C148.191 261.253 168.253 241.191 193 241.191V237.191C166.044 237.191 144.191 259.044 144.191 286H148.191ZM193 241.191C217.747 241.191 237.808 261.253 237.808 286H241.808C241.808 259.044 219.956 237.191 193 237.191V241.191ZM202.013 286C202.013 290.978 197.978 295.013 193 295.013V299.013C200.187 299.013 206.013 293.187 206.013 286H202.013ZM193 295.013C188.021 295.013 183.986 290.978 183.986 286H179.986C179.986 293.187 185.812 299.013 193 299.013V295.013ZM183.986 286C183.986 281.021 188.021 276.986 193 276.986V272.986C185.812 272.986 179.986 278.812 179.986 286H183.986ZM193 276.986C197.978 276.986 202.013 281.021 202.013 286H206.013C206.013 278.812 200.187 272.986 193 272.986V276.986ZM229.549 278.034C229.549 285.154 223.776 290.927 216.655 290.927V294.927C225.985 294.927 233.549 287.364 233.549 278.034H229.549ZM216.655 265.14C223.776 265.14 229.549 270.913 229.549 278.034H233.549C233.549 268.703 225.985 261.14 216.655 261.14V265.14ZM224.292 278.033C224.292 282.251 220.872 285.67 216.655 285.67V289.67C223.082 289.67 228.292 284.46 228.292 278.033H224.292ZM216.655 285.67C212.437 285.67 209.018 282.251 209.018 278.033H205.018C205.018 284.46 210.228 289.67 216.655 289.67V285.67ZM209.018 278.033C209.018 273.815 212.437 270.396 216.655 270.396V266.396C210.228 266.396 205.018 271.606 205.018 278.033H209.018ZM216.655 270.396C220.872 270.396 224.292 273.815 224.292 278.033H228.292C228.292 271.606 223.082 266.396 216.655 266.396V270.396ZM169.345 290.927C162.224 290.927 156.452 285.154 156.452 278.034H152.452C152.452 287.364 160.015 294.927 169.345 294.927V290.927ZM156.452 278.034C156.452 270.913 162.224 265.14 169.345 265.14V261.14C160.015 261.14 152.452 268.703 152.452 278.034H156.452ZM176.982 278.033C176.982 282.251 173.563 285.67 169.345 285.67V289.67C175.772 289.67 180.982 284.46 180.982 278.033H176.982ZM169.345 285.67C165.127 285.67 161.708 282.251 161.708 278.033H157.708C157.708 284.46 162.918 289.67 169.345 289.67V285.67ZM161.708 278.033C161.708 273.815 165.127 270.396 169.345 270.396V266.396C162.918 266.396 157.708 271.606 157.708 278.033H161.708ZM169.345 270.396C173.563 270.396 176.982 273.815 176.982 278.033H180.982C180.982 271.606 175.772 266.396 169.345 266.396V270.396ZM220.788 306.067C220.788 313.188 215.015 318.961 207.894 318.961V322.961C217.224 322.961 224.788 315.397 224.788 306.067H220.788ZM207.894 318.961C200.773 318.961 195 313.188 195 306.067H191C191 315.397 198.564 322.961 207.894 322.961V318.961ZM215.531 306.067C215.531 310.285 212.111 313.704 207.894 313.704V317.704C214.321 317.704 219.531 312.494 219.531 306.067H215.531ZM207.894 313.704C203.676 313.704 200.257 310.285 200.257 306.067H196.257C196.257 312.494 201.467 317.704 207.894 317.704V313.704ZM200.257 306.067C200.257 301.849 203.676 298.43 207.894 298.43V294.43C201.467 294.43 196.257 299.64 196.257 306.067H200.257ZM207.894 298.43C212.111 298.43 215.531 301.849 215.531 306.067H219.531C219.531 299.64 214.321 294.43 207.894 294.43V298.43ZM191 306.067C191 313.188 185.227 318.961 178.106 318.961V322.961C187.436 322.961 195 315.397 195 306.067H191ZM178.106 318.961C170.985 318.961 165.213 313.188 165.213 306.067H161.213C161.213 315.397 168.776 322.961 178.106 322.961V318.961ZM185.743 306.067C185.743 310.285 182.324 313.704 178.106 313.704V317.704C184.533 317.704 189.743 312.494 189.743 306.067H185.743ZM178.106 313.704C173.888 313.704 170.469 310.285 170.469 306.067H166.469C166.469 312.494 171.679 317.704 178.106 317.704V313.704ZM170.469 306.067C170.469 301.849 173.888 298.43 178.106 298.43V294.43C171.679 294.43 166.469 299.64 166.469 306.067H170.469ZM178.106 298.43C182.324 298.43 185.743 301.849 185.743 306.067H189.743C189.743 299.64 184.533 294.43 178.106 294.43V298.43ZM180.107 260.51C180.107 253.389 185.879 247.616 193 247.616V243.616C183.67 243.616 176.107 251.18 176.107 260.51H180.107ZM193 247.616C200.121 247.616 205.894 253.389 205.894 260.51H209.894C209.894 251.18 202.33 243.616 193 243.616V247.616ZM200.637 260.509C200.637 264.727 197.218 268.146 193 268.146V272.146C199.427 272.146 204.637 266.936 204.637 260.509H200.637ZM193 268.146C188.782 268.146 185.363 264.727 185.363 260.509H181.363C181.363 266.936 186.573 272.146 193 272.146V268.146ZM185.363 260.509C185.363 256.292 188.782 252.872 193 252.872V248.872C186.573 248.872 181.363 254.082 181.363 260.509H185.363ZM193 252.872C197.218 252.872 200.637 256.292 200.637 260.509H204.637C204.637 254.082 199.427 248.872 193 248.872V252.872ZM165.213 306.067C165.213 301.057 168.069 296.711 172.252 294.576L170.433 291.013C164.964 293.806 161.213 299.497 161.213 306.067H165.213ZM171.077 290.812C170.511 290.888 169.933 290.927 169.345 290.927V294.927C170.112 294.927 170.867 294.876 171.608 294.777L171.077 290.812ZM181.583 266.507C180.641 264.718 180.107 262.679 180.107 260.51H176.107C176.107 263.344 176.806 266.021 178.044 268.371L181.583 266.507ZM169.345 265.14C172.879 265.14 176.077 266.558 178.408 268.862L181.219 266.017C178.17 263.003 173.973 261.14 169.345 261.14V265.14ZM205.894 260.51C205.894 262.679 205.36 264.718 204.418 266.507L207.957 268.37C209.194 266.02 209.894 263.344 209.894 260.51H205.894ZM207.593 268.861C209.924 266.558 213.122 265.14 216.655 265.14V261.14C212.027 261.14 207.831 263.003 204.782 266.016L207.593 268.861ZM213.748 294.576C217.931 296.711 220.788 301.057 220.788 306.067H224.788C224.788 299.497 221.036 293.806 215.567 291.013L213.748 294.576ZM216.655 290.927C216.067 290.927 215.489 290.888 214.924 290.812L214.392 294.777C215.133 294.876 215.889 294.927 216.655 294.927V290.927ZM363.808 286C363.808 310.747 343.747 330.808 319 330.808V334.808C345.956 334.808 367.808 312.956 367.808 286H363.808ZM319 330.808C294.253 330.808 274.191 310.747 274.191 286H270.191C270.191 312.956 292.044 334.808 319 334.808V330.808ZM274.191 286C274.191 261.253 294.253 241.191 319 241.191V237.191C292.044 237.191 270.191 259.044 270.191 286H274.191ZM319 241.191C343.747 241.191 363.808 261.253 363.808 286H367.808C367.808 259.044 345.956 237.191 319 237.191V241.191ZM328.013 286C328.013 290.978 323.978 295.013 319 295.013V299.013C326.187 299.013 332.013 293.187 332.013 286H328.013ZM319 295.013C314.021 295.013 309.986 290.978 309.986 286H305.986C305.986 293.187 311.812 299.013 319 299.013V295.013ZM309.986 286C309.986 281.021 314.021 276.986 319 276.986V272.986C311.812 272.986 305.986 278.812 305.986 286H309.986ZM319 276.986C323.978 276.986 328.013 281.021 328.013 286H332.013C332.013 278.812 326.187 272.986 319 272.986V276.986ZM355.549 278.034C355.549 285.154 349.776 290.927 342.655 290.927V294.927C351.985 294.927 359.549 287.364 359.549 278.034H355.549ZM342.655 265.14C349.776 265.14 355.549 270.913 355.549 278.034H359.549C359.549 268.703 351.985 261.14 342.655 261.14V265.14ZM350.292 278.033C350.292 282.251 346.872 285.67 342.655 285.67V289.67C349.082 289.67 354.292 284.46 354.292 278.033H350.292ZM342.655 285.67C338.437 285.67 335.018 282.251 335.018 278.033H331.018C331.018 284.46 336.228 289.67 342.655 289.67V285.67ZM335.018 278.033C335.018 273.815 338.437 270.396 342.655 270.396V266.396C336.228 266.396 331.018 271.606 331.018 278.033H335.018ZM342.655 270.396C346.872 270.396 350.292 273.815 350.292 278.033H354.292C354.292 271.606 349.082 266.396 342.655 266.396V270.396ZM295.345 290.927C288.224 290.927 282.452 285.154 282.452 278.034H278.452C278.452 287.364 286.015 294.927 295.345 294.927V290.927ZM282.452 278.034C282.452 270.913 288.224 265.14 295.345 265.14V261.14C286.015 261.14 278.452 268.703 278.452 278.034H282.452ZM302.982 278.033C302.982 282.251 299.563 285.67 295.345 285.67V289.67C301.772 289.67 306.982 284.46 306.982 278.033H302.982ZM295.345 285.67C291.127 285.67 287.708 282.251 287.708 278.033H283.708C283.708 284.46 288.918 289.67 295.345 289.67V285.67ZM287.708 278.033C287.708 273.815 291.127 270.396 295.345 270.396V266.396C288.918 266.396 283.708 271.606 283.708 278.033H287.708ZM295.345 270.396C299.563 270.396 302.982 273.815 302.982 278.033H306.982C306.982 271.606 301.772 266.396 295.345 266.396V270.396ZM346.788 306.067C346.788 313.188 341.015 318.961 333.894 318.961V322.961C343.224 322.961 350.788 315.397 350.788 306.067H346.788ZM333.894 318.961C326.773 318.961 321 313.188 321 306.067H317C317 315.397 324.564 322.961 333.894 322.961V318.961ZM341.531 306.067C341.531 310.285 338.111 313.704 333.894 313.704V317.704C340.321 317.704 345.531 312.494 345.531 306.067H341.531ZM333.894 313.704C329.676 313.704 326.257 310.285 326.257 306.067H322.257C322.257 312.494 327.467 317.704 333.894 317.704V313.704ZM326.257 306.067C326.257 301.849 329.676 298.43 333.894 298.43V294.43C327.467 294.43 322.257 299.64 322.257 306.067H326.257ZM333.894 298.43C338.111 298.43 341.531 301.849 341.531 306.067H345.531C345.531 299.64 340.321 294.43 333.894 294.43V298.43ZM317 306.067C317 313.188 311.227 318.961 304.106 318.961V322.961C313.436 322.961 321 315.397 321 306.067H317ZM304.106 318.961C296.985 318.961 291.213 313.188 291.213 306.067H287.213C287.213 315.397 294.776 322.961 304.106 322.961V318.961ZM311.743 306.067C311.743 310.285 308.324 313.704 304.106 313.704V317.704C310.533 317.704 315.743 312.494 315.743 306.067H311.743ZM304.106 313.704C299.888 313.704 296.469 310.285 296.469 306.067H292.469C292.469 312.494 297.679 317.704 304.106 317.704V313.704ZM296.469 306.067C296.469 301.849 299.888 298.43 304.106 298.43V294.43C297.679 294.43 292.469 299.64 292.469 306.067H296.469ZM304.106 298.43C308.324 298.43 311.743 301.849 311.743 306.067H315.743C315.743 299.64 310.533 294.43 304.106 294.43V298.43ZM306.107 260.51C306.107 253.389 311.879 247.616 319 247.616V243.616C309.67 243.616 302.107 251.18 302.107 260.51H306.107ZM319 247.616C326.121 247.616 331.894 253.389 331.894 260.51H335.894C335.894 251.18 328.33 243.616 319 243.616V247.616ZM326.637 260.509C326.637 264.727 323.218 268.146 319 268.146V272.146C325.427 272.146 330.637 266.936 330.637 260.509H326.637ZM319 268.146C314.782 268.146 311.363 264.727 311.363 260.509H307.363C307.363 266.936 312.573 272.146 319 272.146V268.146ZM311.363 260.509C311.363 256.292 314.782 252.872 319 252.872V248.872C312.573 248.872 307.363 254.082 307.363 260.509H311.363ZM319 252.872C323.218 252.872 326.637 256.292 326.637 260.509H330.637C330.637 254.082 325.427 248.872 319 248.872V252.872ZM291.213 306.067C291.213 301.057 294.069 296.711 298.252 294.576L296.433 291.013C290.964 293.806 287.213 299.497 287.213 306.067H291.213ZM297.077 290.812C296.511 290.888 295.933 290.927 295.345 290.927V294.927C296.112 294.927 296.867 294.876 297.608 294.777L297.077 290.812ZM307.583 266.507C306.641 264.718 306.107 262.679 306.107 260.51H302.107C302.107 263.344 302.806 266.021 304.044 268.371L307.583 266.507ZM295.345 265.14C298.879 265.14 302.077 266.558 304.408 268.862L307.219 266.017C304.17 263.003 299.973 261.14 295.345 261.14V265.14ZM331.894 260.51C331.894 262.679 331.36 264.718 330.418 266.507L333.957 268.37C335.194 266.02 335.894 263.344 335.894 260.51H331.894ZM333.593 268.861C335.924 266.558 339.122 265.14 342.655 265.14V261.14C338.027 261.14 333.831 263.003 330.782 266.016L333.593 268.861ZM339.748 294.576C343.931 296.711 346.788 301.057 346.788 306.067H350.788C350.788 299.497 347.036 293.806 341.567 291.013L339.748 294.576ZM342.655 290.927C342.067 290.927 341.489 290.888 340.923 290.812L340.392 294.777C341.133 294.876 341.889 294.927 342.655 294.927V290.927Z" fill="white" mask="url(#path-3-inside-2_170_473)"/>
</svg>
