<svg width="512" height="512" viewBox="0 0 512 512" fill="none" xmlns="http://www.w3.org/2000/svg">
<path d="M0 0H512V512H0V0Z" fill="white"/>
<path fill-rule="evenodd" clip-rule="evenodd" d="M193 479C155.997 479 126 449.003 126 412C126 383.024 144.394 358.344 170.143 349C144.394 339.656 126 314.976 126 286C126 248.997 155.997 219 193 219C221.976 219 246.656 237.394 256 263.143C265.344 237.394 290.024 219 319 219C356.003 219 386 248.997 386 286C386 314.976 367.606 339.656 341.857 349C367.606 358.344 386 383.024 386 412C386 449.003 356.003 479 319 479C290.024 479 265.344 460.606 256 434.857C246.656 460.606 221.976 479 193 479ZM193 463.813C221.616 463.813 244.813 440.616 244.813 412C244.813 383.384 221.616 360.187 193 360.187C164.384 360.187 141.187 383.384 141.187 412C141.187 440.616 164.384 463.813 193 463.813ZM319 463.813C347.616 463.813 370.813 440.616 370.813 412C370.813 383.384 347.616 360.187 319 360.187C290.384 360.187 267.187 383.384 267.187 412C267.187 440.616 290.384 463.813 319 463.813ZM193 337.813C221.616 337.813 244.813 314.616 244.813 286C244.813 257.384 221.616 234.187 193 234.187C164.384 234.187 141.187 257.384 141.187 286C141.187 314.616 164.384 337.813 193 337.813ZM319 337.813C347.616 337.813 370.813 314.616 370.813 286C370.813 257.384 347.616 234.187 319 234.187C290.384 234.187 267.187 257.384 267.187 286C267.187 314.616 290.384 337.813 319 337.813ZM215.857 349C234.473 342.245 249.245 327.473 256 308.857C262.755 327.473 277.527 342.245 296.143 349C277.527 355.755 262.755 370.527 256 389.143C249.245 370.527 234.473 355.755 215.857 349Z" fill="#000085"/>
<path d="M202.849 100C202.849 105.992 197.992 110.849 192 110.849C186.008 110.849 181.151 105.992 181.151 100C181.151 94.0081 186.008 89.1507 192 89.1507C197.992 89.1507 202.849 94.0081 202.849 100Z" fill="#000085"/>
<path d="M201.493 74.8902C201.493 80.1332 197.243 84.3834 192 84.3834C186.757 84.3834 182.507 80.1332 182.507 74.8902C182.507 69.6473 186.757 65.397 192 65.397C197.243 65.397 201.493 69.6473 201.493 74.8902Z" fill="#000085"/>
<path d="M224.795 92.1525C224.795 97.3955 220.545 101.646 215.302 101.646C210.059 101.646 205.809 97.3955 205.809 92.1525C205.809 86.9095 210.059 82.6593 215.302 82.6593C220.545 82.6593 224.795 86.9095 224.795 92.1525Z" fill="#000085"/>
<path d="M216.165 119.768C216.165 125.011 211.915 129.261 206.672 129.261C201.429 129.261 197.178 125.011 197.178 119.768C197.178 114.525 201.429 110.274 206.672 110.274C211.915 110.274 216.165 114.525 216.165 119.768Z" fill="#000085"/>
<path fill-rule="evenodd" clip-rule="evenodd" d="M238.11 100C238.11 125.466 217.466 146.11 192 146.11C166.534 146.11 145.89 125.466 145.89 100C145.89 74.5344 166.534 53.8904 192 53.8904C217.466 53.8904 238.11 74.5344 238.11 100ZM229.974 92.1528C229.974 100.256 223.405 106.824 215.302 106.824C214.635 106.824 213.978 106.78 213.335 106.693C218.089 109.121 221.343 114.064 221.343 119.768C221.343 127.871 214.775 134.439 206.672 134.439C198.569 134.439 192.001 127.871 192.001 119.768C192.001 127.871 185.432 134.439 177.329 134.439C169.226 134.439 162.658 127.871 162.658 119.768C162.658 114.064 165.912 109.121 170.666 106.693C170.023 106.78 169.366 106.824 168.699 106.824C160.596 106.824 154.027 100.256 154.027 92.1528C154.027 84.05 160.596 77.4814 168.699 77.4814C172.719 77.4814 176.361 79.0981 179.011 81.7166C177.937 79.6776 177.329 77.355 177.329 74.8905C177.329 66.7878 183.898 60.2192 192.001 60.2192C200.103 60.2192 206.672 66.7878 206.672 74.8905C206.672 77.3548 206.064 79.6772 204.991 81.716C207.641 79.0978 211.283 77.4814 215.302 77.4814C223.405 77.4814 229.974 84.05 229.974 92.1528Z" fill="#000085"/>
<path d="M178.192 92.1525C178.192 97.3955 173.941 101.646 168.698 101.646C163.455 101.646 159.205 97.3955 159.205 92.1525C159.205 86.9095 163.455 82.6593 168.698 82.6593C173.941 82.6593 178.192 86.9095 178.192 92.1525Z" fill="#000085"/>
<path d="M186.822 119.768C186.822 125.011 182.572 129.261 177.329 129.261C172.086 129.261 167.835 125.011 167.835 119.768C167.835 114.525 172.086 110.274 177.329 110.274C182.572 110.274 186.822 114.525 186.822 119.768Z" fill="#000085"/>
<path d="M330.849 100C330.849 105.992 325.992 110.849 320 110.849C314.008 110.849 309.151 105.992 309.151 100C309.151 94.0081 314.008 89.1507 320 89.1507C325.992 89.1507 330.849 94.0081 330.849 100Z" fill="#000085"/>
<path d="M329.493 74.8902C329.493 80.1332 325.243 84.3834 320 84.3834C314.757 84.3834 310.507 80.1332 310.507 74.8902C310.507 69.6473 314.757 65.397 320 65.397C325.243 65.397 329.493 69.6473 329.493 74.8902Z" fill="#000085"/>
<path d="M352.795 92.1525C352.795 97.3955 348.545 101.646 343.302 101.646C338.059 101.646 333.809 97.3955 333.809 92.1525C333.809 86.9095 338.059 82.6593 343.302 82.6593C348.545 82.6593 352.795 86.9095 352.795 92.1525Z" fill="#000085"/>
<path d="M344.165 119.768C344.165 125.011 339.915 129.261 334.672 129.261C329.429 129.261 325.178 125.011 325.178 119.768C325.178 114.525 329.429 110.274 334.672 110.274C339.915 110.274 344.165 114.525 344.165 119.768Z" fill="#000085"/>
<path fill-rule="evenodd" clip-rule="evenodd" d="M366.11 100C366.11 125.466 345.466 146.11 320 146.11C294.534 146.11 273.89 125.466 273.89 100C273.89 74.5344 294.534 53.8904 320 53.8904C345.466 53.8904 366.11 74.5344 366.11 100ZM357.974 92.1528C357.974 100.256 351.405 106.824 343.302 106.824C342.635 106.824 341.978 106.78 341.335 106.693C346.089 109.121 349.343 114.064 349.343 119.768C349.343 127.871 342.775 134.439 334.672 134.439C326.569 134.439 320.001 127.871 320.001 119.768C320.001 127.871 313.432 134.439 305.329 134.439C297.226 134.439 290.658 127.871 290.658 119.768C290.658 114.064 293.912 109.121 298.666 106.693C298.023 106.78 297.366 106.824 296.699 106.824C288.596 106.824 282.027 100.256 282.027 92.1528C282.027 84.05 288.596 77.4814 296.699 77.4814C300.719 77.4814 304.361 79.0981 307.011 81.7166C305.937 79.6776 305.329 77.355 305.329 74.8905C305.329 66.7878 311.898 60.2192 320.001 60.2192C328.103 60.2192 334.672 66.7878 334.672 74.8905C334.672 77.3548 334.064 79.6772 332.991 81.716C335.641 79.0978 339.283 77.4814 343.302 77.4814C351.405 77.4814 357.974 84.05 357.974 92.1528Z" fill="#000085"/>
<path d="M306.192 92.1525C306.192 97.3955 301.941 101.646 296.698 101.646C291.455 101.646 287.205 97.3955 287.205 92.1525C287.205 86.9095 291.455 82.6593 296.698 82.6593C301.941 82.6593 306.192 86.9095 306.192 92.1525Z" fill="#000085"/>
<path d="M314.822 119.768C314.822 125.011 310.572 129.261 305.329 129.261C300.086 129.261 295.835 125.011 295.835 119.768C295.835 114.525 300.086 110.274 305.329 110.274C310.572 110.274 314.822 114.525 314.822 119.768Z" fill="#000085"/>
<path fill-rule="evenodd" clip-rule="evenodd" d="M192 166C155.549 166 126 136.451 126 100C126 63.5492 155.549 34 192 34C222.865 34 248.782 55.1872 256 83.8112C263.218 55.1872 289.135 34 320 34C356.451 34 386 63.5492 386 100C386 136.451 356.451 166 320 166C289.135 166 263.218 144.813 256 116.189C248.782 144.813 222.865 166 192 166ZM192 151.04C220.189 151.04 243.04 128.189 243.04 100C243.04 71.8114 220.189 48.96 192 48.96C163.811 48.96 140.96 71.8114 140.96 100C140.96 128.189 163.811 151.04 192 151.04ZM320 151.04C348.189 151.04 371.04 128.189 371.04 100C371.04 71.8114 348.189 48.96 320 48.96C291.811 48.96 268.96 71.8114 268.96 100C268.96 128.189 291.811 151.04 320 151.04Z" fill="#000085"/>
<path d="M204.013 412C204.013 418.082 199.082 423.013 193 423.013C186.917 423.013 181.986 418.082 181.986 412C181.986 405.917 186.917 400.986 193 400.986C199.082 400.986 204.013 405.917 204.013 412Z" fill="#A80000"/>
<path d="M202.637 386.509C202.637 391.832 198.322 396.146 193 396.146C187.677 396.146 183.363 391.832 183.363 386.509C183.363 381.187 187.677 376.872 193 376.872C198.322 376.872 202.637 381.187 202.637 386.509Z" fill="#A80000"/>
<path d="M226.292 404.033C226.292 409.356 221.977 413.67 216.655 413.67C211.332 413.67 207.018 409.356 207.018 404.033C207.018 398.711 211.332 394.396 216.655 394.396C221.977 394.396 226.292 398.711 226.292 404.033Z" fill="#A80000"/>
<path d="M217.531 432.067C217.531 437.389 213.216 441.704 207.894 441.704C202.571 441.704 198.257 437.389 198.257 432.067C198.257 426.744 202.571 422.43 207.894 422.43C213.216 422.43 217.531 426.744 217.531 432.067Z" fill="#A80000"/>
<path fill-rule="evenodd" clip-rule="evenodd" d="M239.808 412C239.808 437.851 218.851 458.808 193 458.808C167.148 458.808 146.191 437.851 146.191 412C146.191 386.148 167.148 365.191 193 365.191C218.851 365.191 239.808 386.148 239.808 412ZM231.549 404.034C231.549 412.259 224.88 418.927 216.655 418.927C215.978 418.927 215.311 418.882 214.658 418.794C219.483 421.259 222.788 426.277 222.788 432.067C222.788 440.293 216.119 446.961 207.894 446.961C199.668 446.961 193 440.293 193 432.067C193 440.293 186.332 446.961 178.106 446.961C169.881 446.961 163.213 440.293 163.213 432.067C163.213 426.277 166.517 421.259 171.342 418.794C170.689 418.882 170.023 418.927 169.345 418.927C161.12 418.927 154.452 412.259 154.452 404.034C154.452 395.808 161.12 389.14 169.345 389.14C173.426 389.14 177.123 390.781 179.813 393.439C178.723 391.369 178.107 389.012 178.107 386.51C178.107 378.284 184.775 371.616 193 371.616C201.226 371.616 207.894 378.284 207.894 386.51C207.894 389.011 207.277 391.369 206.187 393.439C208.877 390.781 212.575 389.14 216.655 389.14C224.88 389.14 231.549 395.808 231.549 404.034Z" fill="#A80000"/>
<path d="M178.982 404.033C178.982 409.356 174.667 413.67 169.345 413.67C164.023 413.67 159.708 409.356 159.708 404.033C159.708 398.711 164.023 394.396 169.345 394.396C174.667 394.396 178.982 398.711 178.982 404.033Z" fill="#A80000"/>
<path d="M187.743 432.067C187.743 437.389 183.428 441.704 178.106 441.704C172.784 441.704 168.469 437.389 168.469 432.067C168.469 426.744 172.784 422.43 178.106 422.43C183.428 422.43 187.743 426.744 187.743 432.067Z" fill="#A80000"/>
<path d="M330.013 412C330.013 418.082 325.082 423.013 319 423.013C312.917 423.013 307.986 418.082 307.986 412C307.986 405.917 312.917 400.986 319 400.986C325.082 400.986 330.013 405.917 330.013 412Z" fill="#A80000"/>
<path d="M328.637 386.509C328.637 391.832 324.322 396.146 319 396.146C313.677 396.146 309.363 391.832 309.363 386.509C309.363 381.187 313.677 376.872 319 376.872C324.322 376.872 328.637 381.187 328.637 386.509Z" fill="#A80000"/>
<path d="M352.292 404.033C352.292 409.356 347.977 413.67 342.655 413.67C337.332 413.67 333.018 409.356 333.018 404.033C333.018 398.711 337.332 394.396 342.655 394.396C347.977 394.396 352.292 398.711 352.292 404.033Z" fill="#A80000"/>
<path d="M343.531 432.067C343.531 437.389 339.216 441.704 333.894 441.704C328.571 441.704 324.257 437.389 324.257 432.067C324.257 426.744 328.571 422.43 333.894 422.43C339.216 422.43 343.531 426.744 343.531 432.067Z" fill="#A80000"/>
<path fill-rule="evenodd" clip-rule="evenodd" d="M365.808 412C365.808 437.851 344.851 458.808 319 458.808C293.148 458.808 272.191 437.851 272.191 412C272.191 386.148 293.148 365.191 319 365.191C344.851 365.191 365.808 386.148 365.808 412ZM357.549 404.034C357.549 412.259 350.88 418.927 342.655 418.927C341.978 418.927 341.311 418.882 340.658 418.794C345.483 421.259 348.788 426.277 348.788 432.067C348.788 440.293 342.119 446.961 333.894 446.961C325.668 446.961 319 440.293 319 432.067C319 440.293 312.332 446.961 304.106 446.961C295.881 446.961 289.213 440.293 289.213 432.067C289.213 426.277 292.517 421.259 297.342 418.794C296.689 418.882 296.023 418.927 295.345 418.927C287.12 418.927 280.452 412.259 280.452 404.034C280.452 395.808 287.12 389.14 295.345 389.14C299.426 389.14 303.123 390.781 305.813 393.439C304.723 391.369 304.107 389.012 304.107 386.51C304.107 378.284 310.775 371.616 319 371.616C327.226 371.616 333.894 378.284 333.894 386.51C333.894 389.011 333.277 391.369 332.187 393.439C334.877 390.781 338.575 389.14 342.655 389.14C350.88 389.14 357.549 395.808 357.549 404.034Z" fill="#A80000"/>
<path d="M304.982 404.033C304.982 409.356 300.667 413.67 295.345 413.67C290.023 413.67 285.708 409.356 285.708 404.033C285.708 398.711 290.023 394.396 295.345 394.396C300.667 394.396 304.982 398.711 304.982 404.033Z" fill="#A80000"/>
<path d="M313.743 432.067C313.743 437.389 309.428 441.704 304.106 441.704C298.784 441.704 294.469 437.389 294.469 432.067C294.469 426.744 298.784 422.43 304.106 422.43C309.428 422.43 313.743 426.744 313.743 432.067Z" fill="#A80000"/>
<path d="M204.013 286C204.013 292.082 199.082 297.013 193 297.013C186.917 297.013 181.986 292.082 181.986 286C181.986 279.917 186.917 274.986 193 274.986C199.082 274.986 204.013 279.917 204.013 286Z" fill="#A80000"/>
<path d="M202.637 260.509C202.637 265.832 198.322 270.146 193 270.146C187.677 270.146 183.363 265.832 183.363 260.509C183.363 255.187 187.677 250.872 193 250.872C198.322 250.872 202.637 255.187 202.637 260.509Z" fill="#A80000"/>
<path d="M226.292 278.033C226.292 283.356 221.977 287.67 216.655 287.67C211.332 287.67 207.018 283.356 207.018 278.033C207.018 272.711 211.332 268.396 216.655 268.396C221.977 268.396 226.292 272.711 226.292 278.033Z" fill="#A80000"/>
<path d="M217.531 306.067C217.531 311.389 213.216 315.704 207.894 315.704C202.571 315.704 198.257 311.389 198.257 306.067C198.257 300.744 202.571 296.43 207.894 296.43C213.216 296.43 217.531 300.744 217.531 306.067Z" fill="#A80000"/>
<path fill-rule="evenodd" clip-rule="evenodd" d="M239.808 286C239.808 311.851 218.851 332.808 193 332.808C167.148 332.808 146.191 311.851 146.191 286C146.191 260.148 167.148 239.191 193 239.191C218.851 239.191 239.808 260.148 239.808 286ZM231.549 278.034C231.549 286.259 224.88 292.927 216.655 292.927C215.978 292.927 215.311 292.882 214.658 292.794C219.483 295.259 222.788 300.277 222.788 306.067C222.788 314.293 216.119 320.961 207.894 320.961C199.668 320.961 193 314.293 193 306.067C193 314.293 186.332 320.961 178.106 320.961C169.881 320.961 163.213 314.293 163.213 306.067C163.213 300.277 166.517 295.259 171.342 292.794C170.689 292.882 170.023 292.927 169.345 292.927C161.12 292.927 154.452 286.259 154.452 278.034C154.452 269.808 161.12 263.14 169.345 263.14C173.426 263.14 177.123 264.781 179.813 267.439C178.723 265.369 178.107 263.012 178.107 260.51C178.107 252.284 184.775 245.616 193 245.616C201.226 245.616 207.894 252.284 207.894 260.51C207.894 263.011 207.277 265.369 206.187 267.439C208.877 264.781 212.575 263.14 216.655 263.14C224.88 263.14 231.549 269.808 231.549 278.034Z" fill="#A80000"/>
<path d="M178.982 278.033C178.982 283.356 174.667 287.67 169.345 287.67C164.023 287.67 159.708 283.356 159.708 278.033C159.708 272.711 164.023 268.396 169.345 268.396C174.667 268.396 178.982 272.711 178.982 278.033Z" fill="#A80000"/>
<path d="M187.743 306.067C187.743 311.389 183.428 315.704 178.106 315.704C172.784 315.704 168.469 311.389 168.469 306.067C168.469 300.744 172.784 296.43 178.106 296.43C183.428 296.43 187.743 300.744 187.743 306.067Z" fill="#A80000"/>
<path d="M330.013 286C330.013 292.082 325.082 297.013 319 297.013C312.917 297.013 307.986 292.082 307.986 286C307.986 279.917 312.917 274.986 319 274.986C325.082 274.986 330.013 279.917 330.013 286Z" fill="#A80000"/>
<path d="M328.637 260.509C328.637 265.832 324.322 270.146 319 270.146C313.677 270.146 309.363 265.832 309.363 260.509C309.363 255.187 313.677 250.872 319 250.872C324.322 250.872 328.637 255.187 328.637 260.509Z" fill="#A80000"/>
<path d="M352.292 278.033C352.292 283.356 347.977 287.67 342.655 287.67C337.332 287.67 333.018 283.356 333.018 278.033C333.018 272.711 337.332 268.396 342.655 268.396C347.977 268.396 352.292 272.711 352.292 278.033Z" fill="#A80000"/>
<path d="M343.531 306.067C343.531 311.389 339.216 315.704 333.894 315.704C328.571 315.704 324.257 311.389 324.257 306.067C324.257 300.744 328.571 296.43 333.894 296.43C339.216 296.43 343.531 300.744 343.531 306.067Z" fill="#A80000"/>
<path fill-rule="evenodd" clip-rule="evenodd" d="M365.808 286C365.808 311.851 344.851 332.808 319 332.808C293.148 332.808 272.191 311.851 272.191 286C272.191 260.148 293.148 239.191 319 239.191C344.851 239.191 365.808 260.148 365.808 286ZM357.549 278.034C357.549 286.259 350.88 292.927 342.655 292.927C341.978 292.927 341.311 292.882 340.658 292.794C345.483 295.259 348.788 300.277 348.788 306.067C348.788 314.293 342.119 320.961 333.894 320.961C325.668 320.961 319 314.293 319 306.067C319 314.293 312.332 320.961 304.106 320.961C295.881 320.961 289.213 314.293 289.213 306.067C289.213 300.277 292.517 295.259 297.342 292.794C296.689 292.882 296.023 292.927 295.345 292.927C287.12 292.927 280.452 286.259 280.452 278.034C280.452 269.808 287.12 263.14 295.345 263.14C299.426 263.14 303.123 264.781 305.813 267.439C304.723 265.369 304.107 263.012 304.107 260.51C304.107 252.284 310.775 245.616 319 245.616C327.226 245.616 333.894 252.284 333.894 260.51C333.894 263.011 333.277 265.369 332.187 267.439C334.877 264.781 338.575 263.14 342.655 263.14C350.88 263.14 357.549 269.808 357.549 278.034Z" fill="#A80000"/>
<path d="M304.982 278.033C304.982 283.356 300.667 287.67 295.345 287.67C290.023 287.67 285.708 283.356 285.708 278.033C285.708 272.711 290.023 268.396 295.345 268.396C300.667 268.396 304.982 272.711 304.982 278.033Z" fill="#A80000"/>
<path d="M313.743 306.067C313.743 311.389 309.428 315.704 304.106 315.704C298.784 315.704 294.469 311.389 294.469 306.067C294.469 300.744 298.784 296.43 304.106 296.43C309.428 296.43 313.743 300.744 313.743 306.067Z" fill="#A80000"/>
</svg>
