<svg width="512" height="512" viewBox="0 0 512 512" fill="none" xmlns="http://www.w3.org/2000/svg">
<path d="M1 1H511V511H1V1Z" fill="white" stroke="white" stroke-width="2"/>
<mask id="path-2-inside-1_170_433" fill="white">
<path fill-rule="evenodd" clip-rule="evenodd" d="M234.197 477C229.628 477 225.683 475.754 222.361 473.262C219.454 470.354 218 466.823 218 462.67C218 457.685 221.115 453.324 227.344 449.586L231.705 445.224C234.197 443.147 235.443 440.655 235.443 437.748V408.464C235.443 406.387 232.743 402.649 227.344 397.249C222.361 391.434 219.869 386.242 219.869 381.673C219.869 377.104 222.361 372.119 227.344 366.72C232.743 360.904 235.443 356.958 235.443 354.882V324.975C235.443 322.068 234.197 319.575 231.705 317.498L227.344 313.137C221.115 309.399 218 305.037 218 300.053C218 295.484 219.661 291.953 222.984 289.461C226.306 286.969 229.421 285.723 232.328 285.723C234.82 285.723 237.934 284.269 241.672 281.361C245.825 278.454 250.601 277 256 277C261.399 277 265.967 278.454 269.705 281.361C273.858 284.269 277.18 285.723 279.672 285.723C282.579 285.723 285.694 286.969 289.016 289.461C292.339 291.953 294 295.484 294 300.053C294 305.037 290.885 309.399 284.656 313.137C283.825 313.968 282.164 315.422 279.672 317.498C277.596 319.575 276.557 322.068 276.557 324.975V354.882C276.557 356.958 279.049 360.904 284.033 366.72C289.432 372.119 292.131 377.104 292.131 381.673C292.131 386.242 289.432 391.434 284.033 397.249C279.049 402.649 276.557 406.387 276.557 408.464V437.748C276.557 440.655 277.596 443.147 279.672 445.224C282.164 447.301 283.825 448.755 284.656 449.586C290.885 453.324 294 457.685 294 462.67C294 466.823 292.339 470.354 289.016 473.262C286.109 475.754 282.372 477 277.803 477C274.481 477 270.951 476.169 267.213 474.508C263.475 472.431 259.738 471.393 256 471.393C252.262 471.393 248.525 472.431 244.787 474.508C241.049 476.169 237.519 477 234.197 477ZM244 301C244 294.373 249.373 289 256 289C262.627 289 268 294.373 268 301C268 305.843 265.131 310.016 261 311.912V358H251V311.912C246.869 310.016 244 305.843 244 301ZM241 373C241 375.761 243.239 378 246 378H266C268.761 378 271 375.761 271 373C271 370.239 268.761 368 266 368H246C243.239 368 241 370.239 241 373ZM246 395C243.239 395 241 392.761 241 390C241 387.239 243.239 385 246 385H266C268.761 385 271 387.239 271 390C271 392.761 268.761 395 266 395H246ZM256 458C258.761 458 261 455.761 261 453V405H251V453C251 455.761 253.239 458 256 458Z"/>
<path fill-rule="evenodd" clip-rule="evenodd" d="M234.197 235C229.628 235 225.683 233.754 222.361 231.262C219.454 228.354 218 224.823 218 220.67C218 215.685 221.115 211.324 227.344 207.586L231.705 203.224C234.197 201.147 235.443 198.655 235.443 195.748V166.464C235.443 164.387 232.743 160.649 227.344 155.249C222.361 149.434 219.869 144.242 219.869 139.673C219.869 135.104 222.361 130.119 227.344 124.72C232.743 118.904 235.443 114.958 235.443 112.882V82.9751C235.443 80.0675 234.197 77.5753 231.705 75.4984L227.344 71.1371C221.115 67.3988 218 63.0374 218 58.053C218 53.4839 219.661 49.9533 222.984 47.4611C226.306 44.9688 229.421 43.7228 232.328 43.7228C234.82 43.7228 237.934 42.269 241.672 39.3614C245.825 36.4538 250.601 35 256 35C261.399 35 265.967 36.4538 269.705 39.3614C273.858 42.269 277.18 43.7228 279.672 43.7228C282.579 43.7228 285.694 44.9688 289.016 47.4611C292.339 49.9533 294 53.4839 294 58.053C294 63.0374 290.885 67.3988 284.656 71.1371C283.825 71.9678 282.164 73.4216 279.672 75.4984C277.596 77.5753 276.557 80.0675 276.557 82.9751V112.882C276.557 114.958 279.049 118.904 284.033 124.72C289.432 130.119 292.131 135.104 292.131 139.673C292.131 144.242 289.432 149.434 284.033 155.249C279.049 160.649 276.557 164.387 276.557 166.464V195.748C276.557 198.655 277.596 201.147 279.672 203.224C282.164 205.301 283.825 206.755 284.656 207.586C290.885 211.324 294 215.685 294 220.67C294 224.823 292.339 228.354 289.016 231.262C286.109 233.754 282.372 235 277.803 235C274.481 235 270.951 234.169 267.213 232.508C263.475 230.431 259.738 229.393 256 229.393C252.262 229.393 248.525 230.431 244.787 232.508C241.049 234.169 237.519 235 234.197 235ZM244 59C244 52.3726 249.373 47 256 47C262.627 47 268 52.3726 268 59C268 63.843 265.131 68.0159 261 69.9119V116H251V69.9119C246.869 68.0159 244 63.843 244 59ZM241 131C241 133.761 243.239 136 246 136H266C268.761 136 271 133.761 271 131C271 128.239 268.761 126 266 126H246C243.239 126 241 128.239 241 131ZM246 153C243.239 153 241 150.761 241 148C241 145.239 243.239 143 246 143H266C268.761 143 271 145.239 271 148C271 150.761 268.761 153 266 153H246ZM256 216C258.761 216 261 213.761 261 211V163H251V211C251 213.761 253.239 216 256 216Z"/>
<path fill-rule="evenodd" clip-rule="evenodd" d="M340.197 477C335.628 477 331.683 475.754 328.361 473.262C325.454 470.354 324 466.823 324 462.67C324 457.685 327.115 453.324 333.344 449.586L337.705 445.224C340.197 443.147 341.443 440.655 341.443 437.748V408.464C341.443 406.387 338.743 402.649 333.344 397.249C328.361 391.434 325.869 386.242 325.869 381.673C325.869 377.104 328.361 372.119 333.344 366.72C338.743 360.904 341.443 356.958 341.443 354.882V324.975C341.443 322.068 340.197 319.575 337.705 317.498L333.344 313.137C327.115 309.399 324 305.037 324 300.053C324 295.484 325.661 291.953 328.984 289.461C332.306 286.969 335.421 285.723 338.328 285.723C340.82 285.723 343.934 284.269 347.672 281.361C351.825 278.454 356.601 277 362 277C367.399 277 371.967 278.454 375.705 281.361C379.858 284.269 383.18 285.723 385.672 285.723C388.579 285.723 391.694 286.969 395.016 289.461C398.339 291.953 400 295.484 400 300.053C400 305.037 396.885 309.399 390.656 313.137C389.825 313.968 388.164 315.422 385.672 317.498C383.596 319.575 382.557 322.068 382.557 324.975V354.882C382.557 356.958 385.049 360.904 390.033 366.72C395.432 372.119 398.131 377.104 398.131 381.673C398.131 386.242 395.432 391.434 390.033 397.249C385.049 402.649 382.557 406.387 382.557 408.464V437.748C382.557 440.655 383.596 443.147 385.672 445.224C388.164 447.301 389.825 448.755 390.656 449.586C396.885 453.324 400 457.685 400 462.67C400 466.823 398.339 470.354 395.016 473.262C392.109 475.754 388.372 477 383.803 477C380.481 477 376.951 476.169 373.213 474.508C369.475 472.431 365.738 471.393 362 471.393C358.262 471.393 354.525 472.431 350.787 474.508C347.049 476.169 343.519 477 340.197 477ZM350 301C350 294.373 355.373 289 362 289C368.627 289 374 294.373 374 301C374 305.843 371.131 310.016 367 311.912V358H357V311.912C352.869 310.016 350 305.843 350 301ZM347 373C347 375.761 349.239 378 352 378H372C374.761 378 377 375.761 377 373C377 370.239 374.761 368 372 368H352C349.239 368 347 370.239 347 373ZM352 395C349.239 395 347 392.761 347 390C347 387.239 349.239 385 352 385H372C374.761 385 377 387.239 377 390C377 392.761 374.761 395 372 395H352ZM362 458C364.761 458 367 455.761 367 453V405H357V453C357 455.761 359.239 458 362 458Z"/>
<path fill-rule="evenodd" clip-rule="evenodd" d="M340.197 235C335.628 235 331.683 233.754 328.361 231.262C325.454 228.354 324 224.823 324 220.67C324 215.685 327.115 211.324 333.344 207.586L337.705 203.224C340.197 201.147 341.443 198.655 341.443 195.748V166.464C341.443 164.387 338.743 160.649 333.344 155.249C328.361 149.434 325.869 144.242 325.869 139.673C325.869 135.104 328.361 130.119 333.344 124.72C338.743 118.904 341.443 114.958 341.443 112.882V82.9751C341.443 80.0675 340.197 77.5753 337.705 75.4984L333.344 71.1371C327.115 67.3988 324 63.0374 324 58.053C324 53.4839 325.661 49.9533 328.984 47.4611C332.306 44.9688 335.421 43.7228 338.328 43.7228C340.82 43.7228 343.934 42.269 347.672 39.3614C351.825 36.4538 356.601 35 362 35C367.399 35 371.967 36.4538 375.705 39.3614C379.858 42.269 383.18 43.7228 385.672 43.7228C388.579 43.7228 391.694 44.9688 395.016 47.4611C398.339 49.9533 400 53.4839 400 58.053C400 63.0374 396.885 67.3988 390.656 71.1371C389.825 71.9678 388.164 73.4216 385.672 75.4984C383.596 77.5753 382.557 80.0675 382.557 82.9751V112.882C382.557 114.958 385.049 118.904 390.033 124.72C395.432 130.119 398.131 135.104 398.131 139.673C398.131 144.242 395.432 149.434 390.033 155.249C385.049 160.649 382.557 164.387 382.557 166.464V195.748C382.557 198.655 383.596 201.147 385.672 203.224C388.164 205.301 389.825 206.755 390.656 207.586C396.885 211.324 400 215.685 400 220.67C400 224.823 398.339 228.354 395.016 231.262C392.109 233.754 388.372 235 383.803 235C380.481 235 376.951 234.169 373.213 232.508C369.475 230.431 365.738 229.393 362 229.393C358.262 229.393 354.525 230.431 350.787 232.508C347.049 234.169 343.519 235 340.197 235ZM350 59C350 52.3726 355.373 47 362 47C368.627 47 374 52.3726 374 59C374 63.843 371.131 68.0159 367 69.9119V116H357V69.9119C352.869 68.0159 350 63.843 350 59ZM347 131C347 133.761 349.239 136 352 136H372C374.761 136 377 133.761 377 131C377 128.239 374.761 126 372 126H352C349.239 126 347 128.239 347 131ZM352 153C349.239 153 347 150.761 347 148C347 145.239 349.239 143 352 143H372C374.761 143 377 145.239 377 148C377 150.761 374.761 153 372 153H352ZM362 216C364.761 216 367 213.761 367 211V163H357V211C357 213.761 359.239 216 362 216Z"/>
<path fill-rule="evenodd" clip-rule="evenodd" d="M128.197 477C123.628 477 119.683 475.754 116.361 473.262C113.454 470.354 112 466.823 112 462.67C112 457.685 115.115 453.324 121.344 449.586L125.705 445.224C128.197 443.147 129.443 440.655 129.443 437.748V408.464C129.443 406.387 126.743 402.649 121.344 397.249C116.361 391.434 113.869 386.242 113.869 381.673C113.869 377.104 116.361 372.119 121.344 366.72C126.743 360.904 129.443 356.958 129.443 354.882V324.975C129.443 322.068 128.197 319.575 125.705 317.498L121.344 313.137C115.115 309.399 112 305.037 112 300.053C112 295.484 113.661 291.953 116.984 289.461C120.306 286.969 123.421 285.723 126.328 285.723C128.82 285.723 131.934 284.269 135.672 281.361C139.825 278.454 144.601 277 150 277C155.399 277 159.967 278.454 163.705 281.361C167.858 284.269 171.18 285.723 173.672 285.723C176.579 285.723 179.694 286.969 183.016 289.461C186.339 291.953 188 295.484 188 300.053C188 305.037 184.885 309.399 178.656 313.137C177.825 313.968 176.164 315.422 173.672 317.498C171.596 319.575 170.557 322.068 170.557 324.975V354.882C170.557 356.958 173.049 360.904 178.033 366.72C183.432 372.119 186.131 377.104 186.131 381.673C186.131 386.242 183.432 391.434 178.033 397.249C173.049 402.649 170.557 406.387 170.557 408.464V437.748C170.557 440.655 171.596 443.147 173.672 445.224C176.164 447.301 177.825 448.755 178.656 449.586C184.885 453.324 188 457.685 188 462.67C188 466.823 186.339 470.354 183.016 473.262C180.109 475.754 176.372 477 171.803 477C168.481 477 164.951 476.169 161.213 474.508C157.475 472.431 153.738 471.393 150 471.393C146.262 471.393 142.525 472.431 138.787 474.508C135.049 476.169 131.519 477 128.197 477ZM138 301C138 294.373 143.373 289 150 289C156.627 289 162 294.373 162 301C162 305.843 159.131 310.016 155 311.912V358H145V311.912C140.869 310.016 138 305.843 138 301ZM135 373C135 375.761 137.239 378 140 378H160C162.761 378 165 375.761 165 373C165 370.239 162.761 368 160 368H140C137.239 368 135 370.239 135 373ZM140 395C137.239 395 135 392.761 135 390C135 387.239 137.239 385 140 385H160C162.761 385 165 387.239 165 390C165 392.761 162.761 395 160 395H140ZM150 458C152.761 458 155 455.761 155 453V405H145V453C145 455.761 147.239 458 150 458Z"/>
<path fill-rule="evenodd" clip-rule="evenodd" d="M128.197 235C123.628 235 119.683 233.754 116.361 231.262C113.454 228.354 112 224.823 112 220.67C112 215.685 115.115 211.324 121.344 207.586L125.705 203.224C128.197 201.147 129.443 198.655 129.443 195.748V166.464C129.443 164.387 126.743 160.649 121.344 155.249C116.361 149.434 113.869 144.242 113.869 139.673C113.869 135.104 116.361 130.119 121.344 124.72C126.743 118.904 129.443 114.958 129.443 112.882V82.9751C129.443 80.0675 128.197 77.5753 125.705 75.4984L121.344 71.1371C115.115 67.3988 112 63.0374 112 58.053C112 53.4839 113.661 49.9533 116.984 47.4611C120.306 44.9688 123.421 43.7228 126.328 43.7228C128.82 43.7228 131.934 42.269 135.672 39.3614C139.825 36.4538 144.601 35 150 35C155.399 35 159.967 36.4538 163.705 39.3614C167.858 42.269 171.18 43.7228 173.672 43.7228C176.579 43.7228 179.694 44.9688 183.016 47.4611C186.339 49.9533 188 53.4839 188 58.053C188 63.0374 184.885 67.3988 178.656 71.1371C177.825 71.9678 176.164 73.4216 173.672 75.4984C171.596 77.5753 170.557 80.0675 170.557 82.9751V112.882C170.557 114.958 173.049 118.904 178.033 124.72C183.432 130.119 186.131 135.104 186.131 139.673C186.131 144.242 183.432 149.434 178.033 155.249C173.049 160.649 170.557 164.387 170.557 166.464V195.748C170.557 198.655 171.596 201.147 173.672 203.224C176.164 205.301 177.825 206.755 178.656 207.586C184.885 211.324 188 215.685 188 220.67C188 224.823 186.339 228.354 183.016 231.262C180.109 233.754 176.372 235 171.803 235C168.481 235 164.951 234.169 161.213 232.508C157.475 230.431 153.738 229.393 150 229.393C146.262 229.393 142.525 230.431 138.787 232.508C135.049 234.169 131.519 235 128.197 235ZM138 59C138 52.3726 143.373 47 150 47C156.627 47 162 52.3726 162 59C162 63.843 159.131 68.0159 155 69.9119V116H145V69.9119C140.869 68.0159 138 63.843 138 59ZM135 131C135 133.761 137.239 136 140 136H160C162.761 136 165 133.761 165 131C165 128.239 162.761 126 160 126H140C137.239 126 135 128.239 135 131ZM140 153C137.239 153 135 150.761 135 148C135 145.239 137.239 143 140 143H160C162.761 143 165 145.239 165 148C165 150.761 162.761 153 160 153H140ZM150 216C152.761 216 155 213.761 155 211V163H145V211C145 213.761 147.239 216 150 216Z"/>
</mask>
<path fill-rule="evenodd" clip-rule="evenodd" d="M234.197 477C229.628 477 225.683 475.754 222.361 473.262C219.454 470.354 218 466.823 218 462.67C218 457.685 221.115 453.324 227.344 449.586L231.705 445.224C234.197 443.147 235.443 440.655 235.443 437.748V408.464C235.443 406.387 232.743 402.649 227.344 397.249C222.361 391.434 219.869 386.242 219.869 381.673C219.869 377.104 222.361 372.119 227.344 366.72C232.743 360.904 235.443 356.958 235.443 354.882V324.975C235.443 322.068 234.197 319.575 231.705 317.498L227.344 313.137C221.115 309.399 218 305.037 218 300.053C218 295.484 219.661 291.953 222.984 289.461C226.306 286.969 229.421 285.723 232.328 285.723C234.82 285.723 237.934 284.269 241.672 281.361C245.825 278.454 250.601 277 256 277C261.399 277 265.967 278.454 269.705 281.361C273.858 284.269 277.18 285.723 279.672 285.723C282.579 285.723 285.694 286.969 289.016 289.461C292.339 291.953 294 295.484 294 300.053C294 305.037 290.885 309.399 284.656 313.137C283.825 313.968 282.164 315.422 279.672 317.498C277.596 319.575 276.557 322.068 276.557 324.975V354.882C276.557 356.958 279.049 360.904 284.033 366.72C289.432 372.119 292.131 377.104 292.131 381.673C292.131 386.242 289.432 391.434 284.033 397.249C279.049 402.649 276.557 406.387 276.557 408.464V437.748C276.557 440.655 277.596 443.147 279.672 445.224C282.164 447.301 283.825 448.755 284.656 449.586C290.885 453.324 294 457.685 294 462.67C294 466.823 292.339 470.354 289.016 473.262C286.109 475.754 282.372 477 277.803 477C274.481 477 270.951 476.169 267.213 474.508C263.475 472.431 259.738 471.393 256 471.393C252.262 471.393 248.525 472.431 244.787 474.508C241.049 476.169 237.519 477 234.197 477ZM244 301C244 294.373 249.373 289 256 289C262.627 289 268 294.373 268 301C268 305.843 265.131 310.016 261 311.912V358H251V311.912C246.869 310.016 244 305.843 244 301ZM241 373C241 375.761 243.239 378 246 378H266C268.761 378 271 375.761 271 373C271 370.239 268.761 368 266 368H246C243.239 368 241 370.239 241 373ZM246 395C243.239 395 241 392.761 241 390C241 387.239 243.239 385 246 385H266C268.761 385 271 387.239 271 390C271 392.761 268.761 395 266 395H246ZM256 458C258.761 458 261 455.761 261 453V405H251V453C251 455.761 253.239 458 256 458Z" fill="#969696"/>
<path fill-rule="evenodd" clip-rule="evenodd" d="M234.197 235C229.628 235 225.683 233.754 222.361 231.262C219.454 228.354 218 224.823 218 220.67C218 215.685 221.115 211.324 227.344 207.586L231.705 203.224C234.197 201.147 235.443 198.655 235.443 195.748V166.464C235.443 164.387 232.743 160.649 227.344 155.249C222.361 149.434 219.869 144.242 219.869 139.673C219.869 135.104 222.361 130.119 227.344 124.72C232.743 118.904 235.443 114.958 235.443 112.882V82.9751C235.443 80.0675 234.197 77.5753 231.705 75.4984L227.344 71.1371C221.115 67.3988 218 63.0374 218 58.053C218 53.4839 219.661 49.9533 222.984 47.4611C226.306 44.9688 229.421 43.7228 232.328 43.7228C234.82 43.7228 237.934 42.269 241.672 39.3614C245.825 36.4538 250.601 35 256 35C261.399 35 265.967 36.4538 269.705 39.3614C273.858 42.269 277.18 43.7228 279.672 43.7228C282.579 43.7228 285.694 44.9688 289.016 47.4611C292.339 49.9533 294 53.4839 294 58.053C294 63.0374 290.885 67.3988 284.656 71.1371C283.825 71.9678 282.164 73.4216 279.672 75.4984C277.596 77.5753 276.557 80.0675 276.557 82.9751V112.882C276.557 114.958 279.049 118.904 284.033 124.72C289.432 130.119 292.131 135.104 292.131 139.673C292.131 144.242 289.432 149.434 284.033 155.249C279.049 160.649 276.557 164.387 276.557 166.464V195.748C276.557 198.655 277.596 201.147 279.672 203.224C282.164 205.301 283.825 206.755 284.656 207.586C290.885 211.324 294 215.685 294 220.67C294 224.823 292.339 228.354 289.016 231.262C286.109 233.754 282.372 235 277.803 235C274.481 235 270.951 234.169 267.213 232.508C263.475 230.431 259.738 229.393 256 229.393C252.262 229.393 248.525 230.431 244.787 232.508C241.049 234.169 237.519 235 234.197 235ZM244 59C244 52.3726 249.373 47 256 47C262.627 47 268 52.3726 268 59C268 63.843 265.131 68.0159 261 69.9119V116H251V69.9119C246.869 68.0159 244 63.843 244 59ZM241 131C241 133.761 243.239 136 246 136H266C268.761 136 271 133.761 271 131C271 128.239 268.761 126 266 126H246C243.239 126 241 128.239 241 131ZM246 153C243.239 153 241 150.761 241 148C241 145.239 243.239 143 246 143H266C268.761 143 271 145.239 271 148C271 150.761 268.761 153 266 153H246ZM256 216C258.761 216 261 213.761 261 211V163H251V211C251 213.761 253.239 216 256 216Z" fill="#969696"/>
<path fill-rule="evenodd" clip-rule="evenodd" d="M340.197 477C335.628 477 331.683 475.754 328.361 473.262C325.454 470.354 324 466.823 324 462.67C324 457.685 327.115 453.324 333.344 449.586L337.705 445.224C340.197 443.147 341.443 440.655 341.443 437.748V408.464C341.443 406.387 338.743 402.649 333.344 397.249C328.361 391.434 325.869 386.242 325.869 381.673C325.869 377.104 328.361 372.119 333.344 366.72C338.743 360.904 341.443 356.958 341.443 354.882V324.975C341.443 322.068 340.197 319.575 337.705 317.498L333.344 313.137C327.115 309.399 324 305.037 324 300.053C324 295.484 325.661 291.953 328.984 289.461C332.306 286.969 335.421 285.723 338.328 285.723C340.82 285.723 343.934 284.269 347.672 281.361C351.825 278.454 356.601 277 362 277C367.399 277 371.967 278.454 375.705 281.361C379.858 284.269 383.18 285.723 385.672 285.723C388.579 285.723 391.694 286.969 395.016 289.461C398.339 291.953 400 295.484 400 300.053C400 305.037 396.885 309.399 390.656 313.137C389.825 313.968 388.164 315.422 385.672 317.498C383.596 319.575 382.557 322.068 382.557 324.975V354.882C382.557 356.958 385.049 360.904 390.033 366.72C395.432 372.119 398.131 377.104 398.131 381.673C398.131 386.242 395.432 391.434 390.033 397.249C385.049 402.649 382.557 406.387 382.557 408.464V437.748C382.557 440.655 383.596 443.147 385.672 445.224C388.164 447.301 389.825 448.755 390.656 449.586C396.885 453.324 400 457.685 400 462.67C400 466.823 398.339 470.354 395.016 473.262C392.109 475.754 388.372 477 383.803 477C380.481 477 376.951 476.169 373.213 474.508C369.475 472.431 365.738 471.393 362 471.393C358.262 471.393 354.525 472.431 350.787 474.508C347.049 476.169 343.519 477 340.197 477ZM350 301C350 294.373 355.373 289 362 289C368.627 289 374 294.373 374 301C374 305.843 371.131 310.016 367 311.912V358H357V311.912C352.869 310.016 350 305.843 350 301ZM347 373C347 375.761 349.239 378 352 378H372C374.761 378 377 375.761 377 373C377 370.239 374.761 368 372 368H352C349.239 368 347 370.239 347 373ZM352 395C349.239 395 347 392.761 347 390C347 387.239 349.239 385 352 385H372C374.761 385 377 387.239 377 390C377 392.761 374.761 395 372 395H352ZM362 458C364.761 458 367 455.761 367 453V405H357V453C357 455.761 359.239 458 362 458Z" fill="#969696"/>
<path fill-rule="evenodd" clip-rule="evenodd" d="M340.197 235C335.628 235 331.683 233.754 328.361 231.262C325.454 228.354 324 224.823 324 220.67C324 215.685 327.115 211.324 333.344 207.586L337.705 203.224C340.197 201.147 341.443 198.655 341.443 195.748V166.464C341.443 164.387 338.743 160.649 333.344 155.249C328.361 149.434 325.869 144.242 325.869 139.673C325.869 135.104 328.361 130.119 333.344 124.72C338.743 118.904 341.443 114.958 341.443 112.882V82.9751C341.443 80.0675 340.197 77.5753 337.705 75.4984L333.344 71.1371C327.115 67.3988 324 63.0374 324 58.053C324 53.4839 325.661 49.9533 328.984 47.4611C332.306 44.9688 335.421 43.7228 338.328 43.7228C340.82 43.7228 343.934 42.269 347.672 39.3614C351.825 36.4538 356.601 35 362 35C367.399 35 371.967 36.4538 375.705 39.3614C379.858 42.269 383.18 43.7228 385.672 43.7228C388.579 43.7228 391.694 44.9688 395.016 47.4611C398.339 49.9533 400 53.4839 400 58.053C400 63.0374 396.885 67.3988 390.656 71.1371C389.825 71.9678 388.164 73.4216 385.672 75.4984C383.596 77.5753 382.557 80.0675 382.557 82.9751V112.882C382.557 114.958 385.049 118.904 390.033 124.72C395.432 130.119 398.131 135.104 398.131 139.673C398.131 144.242 395.432 149.434 390.033 155.249C385.049 160.649 382.557 164.387 382.557 166.464V195.748C382.557 198.655 383.596 201.147 385.672 203.224C388.164 205.301 389.825 206.755 390.656 207.586C396.885 211.324 400 215.685 400 220.67C400 224.823 398.339 228.354 395.016 231.262C392.109 233.754 388.372 235 383.803 235C380.481 235 376.951 234.169 373.213 232.508C369.475 230.431 365.738 229.393 362 229.393C358.262 229.393 354.525 230.431 350.787 232.508C347.049 234.169 343.519 235 340.197 235ZM350 59C350 52.3726 355.373 47 362 47C368.627 47 374 52.3726 374 59C374 63.843 371.131 68.0159 367 69.9119V116H357V69.9119C352.869 68.0159 350 63.843 350 59ZM347 131C347 133.761 349.239 136 352 136H372C374.761 136 377 133.761 377 131C377 128.239 374.761 126 372 126H352C349.239 126 347 128.239 347 131ZM352 153C349.239 153 347 150.761 347 148C347 145.239 349.239 143 352 143H372C374.761 143 377 145.239 377 148C377 150.761 374.761 153 372 153H352ZM362 216C364.761 216 367 213.761 367 211V163H357V211C357 213.761 359.239 216 362 216Z" fill="#969696"/>
<path fill-rule="evenodd" clip-rule="evenodd" d="M128.197 477C123.628 477 119.683 475.754 116.361 473.262C113.454 470.354 112 466.823 112 462.67C112 457.685 115.115 453.324 121.344 449.586L125.705 445.224C128.197 443.147 129.443 440.655 129.443 437.748V408.464C129.443 406.387 126.743 402.649 121.344 397.249C116.361 391.434 113.869 386.242 113.869 381.673C113.869 377.104 116.361 372.119 121.344 366.72C126.743 360.904 129.443 356.958 129.443 354.882V324.975C129.443 322.068 128.197 319.575 125.705 317.498L121.344 313.137C115.115 309.399 112 305.037 112 300.053C112 295.484 113.661 291.953 116.984 289.461C120.306 286.969 123.421 285.723 126.328 285.723C128.82 285.723 131.934 284.269 135.672 281.361C139.825 278.454 144.601 277 150 277C155.399 277 159.967 278.454 163.705 281.361C167.858 284.269 171.18 285.723 173.672 285.723C176.579 285.723 179.694 286.969 183.016 289.461C186.339 291.953 188 295.484 188 300.053C188 305.037 184.885 309.399 178.656 313.137C177.825 313.968 176.164 315.422 173.672 317.498C171.596 319.575 170.557 322.068 170.557 324.975V354.882C170.557 356.958 173.049 360.904 178.033 366.72C183.432 372.119 186.131 377.104 186.131 381.673C186.131 386.242 183.432 391.434 178.033 397.249C173.049 402.649 170.557 406.387 170.557 408.464V437.748C170.557 440.655 171.596 443.147 173.672 445.224C176.164 447.301 177.825 448.755 178.656 449.586C184.885 453.324 188 457.685 188 462.67C188 466.823 186.339 470.354 183.016 473.262C180.109 475.754 176.372 477 171.803 477C168.481 477 164.951 476.169 161.213 474.508C157.475 472.431 153.738 471.393 150 471.393C146.262 471.393 142.525 472.431 138.787 474.508C135.049 476.169 131.519 477 128.197 477ZM138 301C138 294.373 143.373 289 150 289C156.627 289 162 294.373 162 301C162 305.843 159.131 310.016 155 311.912V358H145V311.912C140.869 310.016 138 305.843 138 301ZM135 373C135 375.761 137.239 378 140 378H160C162.761 378 165 375.761 165 373C165 370.239 162.761 368 160 368H140C137.239 368 135 370.239 135 373ZM140 395C137.239 395 135 392.761 135 390C135 387.239 137.239 385 140 385H160C162.761 385 165 387.239 165 390C165 392.761 162.761 395 160 395H140ZM150 458C152.761 458 155 455.761 155 453V405H145V453C145 455.761 147.239 458 150 458Z" fill="#969696"/>
<path fill-rule="evenodd" clip-rule="evenodd" d="M128.197 235C123.628 235 119.683 233.754 116.361 231.262C113.454 228.354 112 224.823 112 220.67C112 215.685 115.115 211.324 121.344 207.586L125.705 203.224C128.197 201.147 129.443 198.655 129.443 195.748V166.464C129.443 164.387 126.743 160.649 121.344 155.249C116.361 149.434 113.869 144.242 113.869 139.673C113.869 135.104 116.361 130.119 121.344 124.72C126.743 118.904 129.443 114.958 129.443 112.882V82.9751C129.443 80.0675 128.197 77.5753 125.705 75.4984L121.344 71.1371C115.115 67.3988 112 63.0374 112 58.053C112 53.4839 113.661 49.9533 116.984 47.4611C120.306 44.9688 123.421 43.7228 126.328 43.7228C128.82 43.7228 131.934 42.269 135.672 39.3614C139.825 36.4538 144.601 35 150 35C155.399 35 159.967 36.4538 163.705 39.3614C167.858 42.269 171.18 43.7228 173.672 43.7228C176.579 43.7228 179.694 44.9688 183.016 47.4611C186.339 49.9533 188 53.4839 188 58.053C188 63.0374 184.885 67.3988 178.656 71.1371C177.825 71.9678 176.164 73.4216 173.672 75.4984C171.596 77.5753 170.557 80.0675 170.557 82.9751V112.882C170.557 114.958 173.049 118.904 178.033 124.72C183.432 130.119 186.131 135.104 186.131 139.673C186.131 144.242 183.432 149.434 178.033 155.249C173.049 160.649 170.557 164.387 170.557 166.464V195.748C170.557 198.655 171.596 201.147 173.672 203.224C176.164 205.301 177.825 206.755 178.656 207.586C184.885 211.324 188 215.685 188 220.67C188 224.823 186.339 228.354 183.016 231.262C180.109 233.754 176.372 235 171.803 235C168.481 235 164.951 234.169 161.213 232.508C157.475 230.431 153.738 229.393 150 229.393C146.262 229.393 142.525 230.431 138.787 232.508C135.049 234.169 131.519 235 128.197 235ZM138 59C138 52.3726 143.373 47 150 47C156.627 47 162 52.3726 162 59C162 63.843 159.131 68.0159 155 69.9119V116H145V69.9119C140.869 68.0159 138 63.843 138 59ZM135 131C135 133.761 137.239 136 140 136H160C162.761 136 165 133.761 165 131C165 128.239 162.761 126 160 126H140C137.239 126 135 128.239 135 131ZM140 153C137.239 153 135 150.761 135 148C135 145.239 137.239 143 140 143H160C162.761 143 165 145.239 165 148C165 150.761 162.761 153 160 153H140ZM150 216C152.761 216 155 213.761 155 211V163H145V211C145 213.761 147.239 216 150 216Z" fill="#969696"/>
<path d="M228.051 450.293C228.882 449.462 230.336 448.008 232.412 445.931L230.998 444.517C228.921 446.595 227.468 448.047 226.637 448.879L228.051 450.293ZM232.412 316.791C230.337 314.716 228.88 313.259 228.051 312.43L226.637 313.844C227.469 314.676 228.92 316.127 230.998 318.205L232.412 316.791ZM228.051 208.293C228.879 207.465 230.338 206.006 232.412 203.931L230.998 202.517C228.919 204.597 227.47 206.045 226.637 206.879L228.051 208.293ZM232.412 74.7914C230.337 72.7156 228.881 71.2597 228.051 70.43L226.637 71.8441C227.469 72.6759 228.92 74.1276 230.998 76.2055L232.412 74.7914ZM334.051 450.293C334.881 449.463 336.337 448.007 338.412 445.931L336.998 444.517C334.92 446.595 333.469 448.047 332.637 448.879L334.051 450.293ZM338.412 316.791C336.336 314.715 334.881 313.26 334.051 312.43L332.637 313.844C333.468 314.675 334.921 316.128 336.998 318.205L338.412 316.791ZM334.051 208.293C334.878 207.466 336.34 206.004 338.412 203.931L336.998 202.517C334.917 204.598 333.472 206.044 332.637 206.879L334.051 208.293ZM338.412 74.7914C336.336 72.7148 334.882 71.2605 334.051 70.43L332.637 71.8441C333.468 72.6752 334.921 74.1283 336.998 76.2055L338.412 74.7914ZM122.051 450.293C122.881 449.463 124.336 448.008 126.412 445.931L124.998 444.517C122.921 446.595 121.468 448.047 120.637 448.879L122.051 450.293ZM126.412 316.791C124.337 314.716 122.881 313.26 122.051 312.43L120.637 313.844C121.469 314.676 122.92 316.127 124.998 318.205L126.412 316.791ZM122.051 208.293C122.879 207.465 124.339 206.005 126.412 203.931L124.998 202.517C122.918 204.597 121.471 206.045 120.637 206.879L122.051 208.293ZM126.412 74.7914C124.336 72.7152 122.881 71.26 122.051 70.43L120.637 71.8441C121.468 72.6756 122.921 74.1279 124.998 76.2055L126.412 74.7914ZM222.361 473.262L220.946 474.676L221.047 474.776L221.161 474.862L222.361 473.262ZM227.344 449.586L228.373 451.301L228.585 451.174L228.759 451L227.344 449.586ZM231.705 445.224L230.424 443.688L230.355 443.746L230.291 443.81L231.705 445.224ZM227.344 397.249L225.826 398.551L225.876 398.609L225.93 398.663L227.344 397.249ZM227.344 366.72L225.879 365.359L225.875 365.363L227.344 366.72ZM231.705 317.498L230.291 318.913L230.355 318.977L230.424 319.035L231.705 317.498ZM227.344 313.137L228.759 311.723L228.585 311.549L228.373 311.422L227.344 313.137ZM241.672 281.361L240.525 279.723L240.484 279.752L240.444 279.783L241.672 281.361ZM269.705 281.361L268.477 282.94L268.517 282.971L268.558 283L269.705 281.361ZM284.656 313.137L283.627 311.422L283.416 311.549L283.241 311.723L284.656 313.137ZM279.672 317.498L278.392 315.962L278.322 316.02L278.258 316.084L279.672 317.498ZM284.033 366.72L282.514 368.021L282.564 368.079L282.618 368.134L284.033 366.72ZM284.033 397.249L282.567 395.888L282.563 395.893L284.033 397.249ZM279.672 445.224L278.258 446.638L278.322 446.703L278.392 446.761L279.672 445.224ZM284.656 449.586L283.241 451L283.416 451.174L283.627 451.301L284.656 449.586ZM289.016 473.262L290.318 474.78L290.326 474.773L290.334 474.767L289.016 473.262ZM267.213 474.508L266.242 476.256L266.319 476.299L266.401 476.335L267.213 474.508ZM244.787 474.508L245.599 476.335L245.681 476.299L245.758 476.256L244.787 474.508ZM261 358V360H263V358H261ZM251 358H249V360H251V358ZM251 405V403H249V405H251ZM261 405H263V403H261V405ZM251 311.912H253V310.629L251.834 310.094L251 311.912ZM261 311.912L260.166 310.094L259 310.629V311.912H261ZM222.361 231.262L220.946 232.676L221.047 232.776L221.161 232.862L222.361 231.262ZM227.344 207.586L228.373 209.301L228.585 209.174L228.759 209L227.344 207.586ZM231.705 203.224L230.424 201.688L230.355 201.746L230.291 201.81L231.705 203.224ZM227.344 155.249L225.826 156.551L225.876 156.609L225.93 156.663L227.344 155.249ZM227.344 124.72L225.879 123.359L225.875 123.363L227.344 124.72ZM231.705 75.4984L230.291 76.9125L230.355 76.9767L230.424 77.0348L231.705 75.4984ZM227.344 71.1371L228.759 69.723L228.585 69.5489L228.373 69.4222L227.344 71.1371ZM241.672 39.3614L240.525 37.723L240.484 37.7519L240.444 37.7828L241.672 39.3614ZM269.705 39.3614L268.477 40.94L268.517 40.9709L268.558 40.9998L269.705 39.3614ZM284.656 71.1371L283.627 69.4222L283.416 69.5489L283.241 69.723L284.656 71.1371ZM279.672 75.4984L278.392 73.9621L278.322 74.0202L278.258 74.0843L279.672 75.4984ZM284.033 124.72L282.514 126.021L282.564 126.079L282.618 126.134L284.033 124.72ZM284.033 155.249L282.567 153.888L282.563 153.893L284.033 155.249ZM279.672 203.224L278.258 204.638L278.322 204.703L278.392 204.761L279.672 203.224ZM284.656 207.586L283.241 209L283.416 209.174L283.627 209.301L284.656 207.586ZM289.016 231.262L290.318 232.78L290.326 232.773L290.334 232.767L289.016 231.262ZM267.213 232.508L266.242 234.256L266.319 234.299L266.401 234.335L267.213 232.508ZM244.787 232.508L245.599 234.335L245.681 234.299L245.758 234.256L244.787 232.508ZM261 116V118H263V116H261ZM251 116H249V118H251V116ZM251 163V161H249V163H251ZM261 163H263V161H261V163ZM251 69.9119H253V68.6293L251.834 68.0942L251 69.9119ZM261 69.9119L260.166 68.0942L259 68.6293V69.9119H261ZM328.361 473.262L326.946 474.676L327.047 474.776L327.161 474.862L328.361 473.262ZM333.344 449.586L334.373 451.301L334.585 451.174L334.759 451L333.344 449.586ZM337.705 445.224L336.424 443.688L336.355 443.746L336.291 443.81L337.705 445.224ZM333.344 397.249L331.826 398.551L331.876 398.609L331.93 398.663L333.344 397.249ZM333.344 366.72L331.879 365.359L331.875 365.363L333.344 366.72ZM337.705 317.498L336.291 318.913L336.355 318.977L336.424 319.035L337.705 317.498ZM333.344 313.137L334.759 311.723L334.585 311.549L334.373 311.422L333.344 313.137ZM347.672 281.361L346.525 279.723L346.484 279.752L346.444 279.783L347.672 281.361ZM375.705 281.361L374.477 282.94L374.517 282.971L374.558 283L375.705 281.361ZM390.656 313.137L389.627 311.422L389.416 311.549L389.241 311.723L390.656 313.137ZM385.672 317.498L384.392 315.962L384.322 316.02L384.258 316.084L385.672 317.498ZM390.033 366.72L388.514 368.021L388.564 368.079L388.618 368.134L390.033 366.72ZM390.033 397.249L388.567 395.888L388.563 395.893L390.033 397.249ZM385.672 445.224L384.258 446.638L384.322 446.703L384.392 446.761L385.672 445.224ZM390.656 449.586L389.241 451L389.416 451.174L389.627 451.301L390.656 449.586ZM395.016 473.262L396.318 474.78L396.326 474.773L396.334 474.767L395.016 473.262ZM373.213 474.508L372.242 476.256L372.319 476.299L372.401 476.335L373.213 474.508ZM350.787 474.508L351.599 476.335L351.681 476.299L351.758 476.256L350.787 474.508ZM367 358V360H369V358H367ZM357 358H355V360H357V358ZM357 405V403H355V405H357ZM367 405H369V403H367V405ZM357 311.912H359V310.629L357.834 310.094L357 311.912ZM367 311.912L366.166 310.094L365 310.629V311.912H367ZM328.361 231.262L326.946 232.676L327.047 232.776L327.161 232.862L328.361 231.262ZM333.344 207.586L334.373 209.301L334.585 209.174L334.759 209L333.344 207.586ZM337.705 203.224L336.424 201.688L336.355 201.746L336.291 201.81L337.705 203.224ZM333.344 155.249L331.826 156.551L331.876 156.609L331.93 156.663L333.344 155.249ZM333.344 124.72L331.879 123.359L331.875 123.363L333.344 124.72ZM337.705 75.4984L336.291 76.9125L336.355 76.9767L336.424 77.0348L337.705 75.4984ZM333.344 71.1371L334.759 69.723L334.585 69.5489L334.373 69.4222L333.344 71.1371ZM347.672 39.3614L346.525 37.723L346.484 37.7519L346.444 37.7828L347.672 39.3614ZM375.705 39.3614L374.477 40.94L374.517 40.9709L374.558 40.9998L375.705 39.3614ZM390.656 71.1371L389.627 69.4222L389.416 69.5489L389.241 69.723L390.656 71.1371ZM385.672 75.4984L384.392 73.9621L384.322 74.0202L384.258 74.0843L385.672 75.4984ZM390.033 124.72L388.514 126.021L388.564 126.079L388.618 126.134L390.033 124.72ZM390.033 155.249L388.567 153.888L388.563 153.893L390.033 155.249ZM385.672 203.224L384.258 204.638L384.322 204.703L384.392 204.761L385.672 203.224ZM390.656 207.586L389.241 209L389.416 209.174L389.627 209.301L390.656 207.586ZM395.016 231.262L396.318 232.78L396.326 232.773L396.334 232.767L395.016 231.262ZM373.213 232.508L372.242 234.256L372.319 234.299L372.401 234.335L373.213 232.508ZM350.787 232.508L351.599 234.335L351.681 234.299L351.758 234.256L350.787 232.508ZM367 116V118H369V116H367ZM357 116H355V118H357V116ZM357 163V161H355V163H357ZM367 163H369V161H367V163ZM357 69.9119H359V68.6293L357.834 68.0942L357 69.9119ZM367 69.9119L366.166 68.0942L365 68.6293V69.9119H367ZM116.361 473.262L114.946 474.676L115.047 474.776L115.161 474.862L116.361 473.262ZM121.344 449.586L122.373 451.301L122.585 451.174L122.759 451L121.344 449.586ZM125.705 445.224L124.424 443.688L124.355 443.746L124.291 443.81L125.705 445.224ZM121.344 397.249L119.826 398.551L119.876 398.609L119.93 398.663L121.344 397.249ZM121.344 366.72L119.879 365.359L119.875 365.363L121.344 366.72ZM125.705 317.498L124.291 318.913L124.355 318.977L124.424 319.035L125.705 317.498ZM121.344 313.137L122.759 311.723L122.585 311.549L122.373 311.422L121.344 313.137ZM135.672 281.361L134.525 279.723L134.484 279.752L134.444 279.783L135.672 281.361ZM163.705 281.361L162.477 282.94L162.517 282.971L162.558 283L163.705 281.361ZM178.656 313.137L177.627 311.422L177.416 311.549L177.241 311.723L178.656 313.137ZM173.672 317.498L172.392 315.962L172.322 316.02L172.258 316.084L173.672 317.498ZM178.033 366.72L176.514 368.021L176.564 368.079L176.618 368.134L178.033 366.72ZM178.033 397.249L176.567 395.888L176.563 395.893L178.033 397.249ZM173.672 445.224L172.258 446.638L172.322 446.703L172.392 446.761L173.672 445.224ZM178.656 449.586L177.241 451L177.416 451.174L177.627 451.301L178.656 449.586ZM183.016 473.262L184.318 474.78L184.326 474.773L184.334 474.767L183.016 473.262ZM161.213 474.508L160.242 476.256L160.319 476.299L160.401 476.335L161.213 474.508ZM138.787 474.508L139.599 476.335L139.681 476.299L139.758 476.256L138.787 474.508ZM155 358V360H157V358H155ZM145 358H143V360H145V358ZM145 405V403H143V405H145ZM155 405H157V403H155V405ZM145 311.912H147V310.629L145.834 310.094L145 311.912ZM155 311.912L154.166 310.094L153 310.629V311.912H155ZM116.361 231.262L114.946 232.676L115.047 232.776L115.161 232.862L116.361 231.262ZM121.344 207.586L122.373 209.301L122.585 209.174L122.759 209L121.344 207.586ZM125.705 203.224L124.424 201.688L124.355 201.746L124.291 201.81L125.705 203.224ZM121.344 155.249L119.826 156.551L119.876 156.609L119.93 156.663L121.344 155.249ZM121.344 124.72L119.879 123.359L119.875 123.363L121.344 124.72ZM125.705 75.4984L124.291 76.9125L124.355 76.9767L124.424 77.0348L125.705 75.4984ZM121.344 71.1371L122.759 69.723L122.585 69.5489L122.373 69.4222L121.344 71.1371ZM135.672 39.3614L134.525 37.723L134.484 37.7519L134.444 37.7828L135.672 39.3614ZM163.705 39.3614L162.477 40.94L162.517 40.9709L162.558 40.9998L163.705 39.3614ZM178.656 71.1371L177.627 69.4222L177.416 69.5489L177.241 69.723L178.656 71.1371ZM173.672 75.4984L172.392 73.9621L172.322 74.0202L172.258 74.0843L173.672 75.4984ZM178.033 124.72L176.514 126.021L176.564 126.079L176.618 126.134L178.033 124.72ZM178.033 155.249L176.567 153.888L176.563 153.893L178.033 155.249ZM173.672 203.224L172.258 204.638L172.322 204.703L172.392 204.761L173.672 203.224ZM178.656 207.586L177.241 209L177.416 209.174L177.627 209.301L178.656 207.586ZM183.016 231.262L184.318 232.78L184.326 232.773L184.334 232.767L183.016 231.262ZM161.213 232.508L160.242 234.256L160.319 234.299L160.401 234.335L161.213 232.508ZM138.787 232.508L139.599 234.335L139.681 234.299L139.758 234.256L138.787 232.508ZM155 116V118H157V116H155ZM145 116H143V118H145V116ZM145 163V161H143V163H145ZM155 163H157V161H155V163ZM145 69.9119H147V68.6293L145.834 68.0942L145 69.9119ZM155 69.9119L154.166 68.0942L153 68.6293V69.9119H155ZM234.197 475C230.016 475 226.502 473.868 223.561 471.662L221.161 474.862C224.864 477.64 229.241 479 234.197 479V475ZM223.775 471.848C221.247 469.319 220 466.299 220 462.67H216C216 467.348 217.66 471.389 220.946 474.676L223.775 471.848ZM220 462.67C220 458.679 222.445 454.858 228.373 451.301L226.315 447.871C219.784 451.79 216 456.691 216 462.67H220ZM232.985 446.761C235.874 444.353 237.443 441.322 237.443 437.748H233.443C233.443 439.988 232.52 441.942 230.424 443.688L232.985 446.761ZM237.443 437.748V408.464H233.443V437.748H237.443ZM237.443 408.464C237.443 407.539 237.15 406.614 236.751 405.753C236.342 404.873 235.759 403.929 235.039 402.932C233.6 400.939 231.491 398.568 228.759 395.835L225.93 398.663C228.596 401.33 230.536 403.529 231.797 405.274C232.426 406.146 232.856 406.864 233.122 407.437C233.397 408.029 233.443 408.351 233.443 408.464H237.443ZM228.863 395.948C223.996 390.269 221.869 385.533 221.869 381.673H217.869C217.869 386.951 220.725 392.599 225.826 398.551L228.863 395.948ZM221.869 381.673C221.869 377.836 223.975 373.32 228.814 368.076L225.875 365.363C220.747 370.919 217.869 376.371 217.869 381.673H221.869ZM228.81 368.08C231.539 365.141 233.639 362.618 235.069 360.528C235.784 359.483 236.359 358.506 236.762 357.608C237.154 356.732 237.443 355.8 237.443 354.882H233.443C233.443 355.001 233.394 355.341 233.111 355.972C232.839 356.579 232.402 357.342 231.767 358.27C230.498 360.125 228.548 362.483 225.879 365.359L228.81 368.08ZM237.443 354.882V324.975H233.443V354.882H237.443ZM237.443 324.975C237.443 321.401 235.874 318.369 232.985 315.962L230.424 319.035C232.52 320.781 233.443 322.734 233.443 324.975H237.443ZM228.373 311.422C222.445 307.865 220 304.043 220 300.053H216C216 306.031 219.784 310.933 226.315 314.852L228.373 311.422ZM220 300.053C220 296.041 221.42 293.134 224.184 291.061L221.783 287.861C217.902 290.773 216 294.927 216 300.053H220ZM224.184 291.061C227.304 288.721 230.004 287.723 232.328 287.723V283.723C228.837 283.723 225.308 285.217 221.783 287.861L224.184 291.061ZM232.328 287.723C235.517 287.723 239.084 285.909 242.9 282.94L240.444 279.783C236.785 282.629 234.122 283.723 232.328 283.723V287.723ZM242.819 283C246.614 280.343 250.983 279 256 279V275C250.219 275 245.037 276.564 240.525 279.723L242.819 283ZM256 279C261.019 279 265.139 280.343 268.477 282.94L270.933 279.783C266.796 276.564 261.778 275 256 275V279ZM268.558 283C272.761 285.942 276.522 287.723 279.672 287.723V283.723C277.839 283.723 274.955 282.596 270.852 279.723L268.558 283ZM279.672 287.723C281.996 287.723 284.696 288.721 287.816 291.061L290.217 287.861C286.692 285.217 283.163 283.723 279.672 283.723V287.723ZM287.816 291.061C290.58 293.134 292 296.041 292 300.053H296C296 294.927 294.098 290.773 290.217 287.861L287.816 291.061ZM292 300.053C292 304.043 289.555 307.865 283.627 311.422L285.685 314.852C292.216 310.933 296 306.031 296 300.053H292ZM283.241 311.723C282.484 312.48 280.891 313.879 278.392 315.962L280.953 319.035C283.437 316.964 285.166 315.455 286.07 314.551L283.241 311.723ZM278.258 316.084C275.811 318.532 274.557 321.531 274.557 324.975H278.557C278.557 322.604 279.381 320.619 281.086 318.913L278.258 316.084ZM274.557 324.975V354.882H278.557V324.975H274.557ZM274.557 354.882C274.557 355.77 274.816 356.682 275.177 357.554C275.546 358.447 276.075 359.421 276.735 360.467C278.055 362.557 279.994 365.08 282.514 368.021L285.551 365.418C283.088 362.544 281.289 360.187 280.117 358.331C279.532 357.403 279.126 356.638 278.873 356.025C278.611 355.392 278.557 355.032 278.557 354.882H274.557ZM282.618 368.134C287.88 373.396 290.131 377.896 290.131 381.673H294.131C294.131 376.312 290.983 370.843 285.447 365.306L282.618 368.134ZM290.131 381.673C290.131 385.476 287.855 390.193 282.567 395.888L285.499 398.61C291.008 392.675 294.131 387.007 294.131 381.673H290.131ZM282.563 395.893C280.039 398.628 278.091 401 276.762 402.994C275.5 404.888 274.557 406.779 274.557 408.464H278.557C278.557 408.072 278.861 407.056 280.09 405.212C281.253 403.467 283.043 401.27 285.503 398.606L282.563 395.893ZM274.557 408.464V437.748H278.557V408.464H274.557ZM274.557 437.748C274.557 441.192 275.811 444.191 278.258 446.638L281.086 443.81C279.381 442.104 278.557 440.119 278.557 437.748H274.557ZM278.392 446.761C280.891 448.844 282.484 450.243 283.241 451L286.07 448.172C285.166 447.267 283.437 445.759 280.953 443.688L278.392 446.761ZM283.627 451.301C289.555 454.858 292 458.679 292 462.67H296C296 456.691 292.216 451.79 285.685 447.871L283.627 451.301ZM292 462.67C292 466.207 290.619 469.202 287.699 471.757L290.334 474.767C294.059 471.506 296 467.44 296 462.67H292ZM287.715 471.743C285.237 473.867 281.991 475 277.803 475V479C282.752 479 286.981 477.641 290.318 474.78L287.715 471.743ZM277.803 475C274.818 475 271.565 474.254 268.026 472.68L266.401 476.335C270.337 478.085 274.144 479 277.803 479V475ZM268.185 472.76C264.193 470.542 260.124 469.393 256 469.393V473.393C259.351 473.393 262.758 474.32 266.242 476.256L268.185 472.76ZM256 469.393C251.876 469.393 247.807 470.542 243.815 472.76L245.758 476.256C249.242 474.32 252.649 473.393 256 473.393V469.393ZM243.974 472.68C240.435 474.254 237.182 475 234.197 475V479C237.856 479 241.663 478.085 245.599 476.335L243.974 472.68ZM225.93 314.551L230.291 318.913L233.119 316.084L228.759 311.723L225.93 314.551ZM230.291 443.81L225.93 448.172L228.759 451L233.119 446.638L230.291 443.81ZM246 301C246 295.477 250.477 291 256 291V287C248.268 287 242 293.268 242 301H246ZM256 291C261.523 291 266 295.477 266 301H270C270 293.268 263.732 287 256 287V291ZM246 376C244.343 376 243 374.657 243 373H239C239 376.866 242.134 380 246 380V376ZM243 373C243 371.343 244.343 370 246 370V366C242.134 366 239 369.134 239 373H243ZM269 373C269 374.657 267.657 376 266 376V380C269.866 380 273 376.866 273 373H269ZM266 370C267.657 370 269 371.343 269 373H273C273 369.134 269.866 366 266 366V370ZM246 393C244.343 393 243 391.657 243 390H239C239 393.866 242.134 397 246 397V393ZM243 390C243 388.343 244.343 387 246 387V383C242.134 383 239 386.134 239 390H243ZM259 453C259 454.657 257.657 456 256 456V460C259.866 460 263 456.866 263 453H259ZM256 456C254.343 456 253 454.657 253 453H249C249 456.866 252.134 460 256 460V456ZM269 390C269 391.657 267.657 393 266 393V397C269.866 397 273 393.866 273 390H269ZM266 387C267.657 387 269 388.343 269 390H273C273 386.134 269.866 383 266 383V387ZM261 356H251V360H261V356ZM251 407H261V403H251V407ZM259 405V453H263V405H259ZM253 453V405H249V453H253ZM246 370H266V366H246V370ZM266 376H246V380H266V376ZM246 387H266V383H246V387ZM266 393H246V397H266V393ZM253 358V311.912H249V358H253ZM251.834 310.094C248.387 308.512 246 305.033 246 301H242C242 306.653 245.351 311.52 250.166 313.73L251.834 310.094ZM259 311.912V358H263V311.912H259ZM266 301C266 305.033 263.613 308.512 260.166 310.094L261.834 313.73C266.649 311.52 270 306.653 270 301H266ZM234.197 233C230.016 233 226.502 231.868 223.561 229.662L221.161 232.862C224.864 235.64 229.241 237 234.197 237V233ZM223.775 229.848C221.247 227.319 220 224.299 220 220.67H216C216 225.348 217.66 229.389 220.946 232.676L223.775 229.848ZM220 220.67C220 216.679 222.445 212.858 228.373 209.301L226.315 205.871C219.784 209.79 216 214.691 216 220.67H220ZM232.985 204.761C235.874 202.353 237.443 199.322 237.443 195.748H233.443C233.443 197.988 232.52 199.942 230.424 201.688L232.985 204.761ZM237.443 195.748V166.464H233.443V195.748H237.443ZM237.443 166.464C237.443 165.539 237.15 164.614 236.751 163.753C236.342 162.873 235.759 161.929 235.039 160.932C233.6 158.939 231.491 156.568 228.759 153.835L225.93 156.663C228.596 159.33 230.536 161.529 231.797 163.274C232.426 164.146 232.856 164.864 233.122 165.437C233.397 166.029 233.443 166.351 233.443 166.464H237.443ZM228.863 153.948C223.996 148.269 221.869 143.533 221.869 139.673H217.869C217.869 144.951 220.725 150.599 225.826 156.551L228.863 153.948ZM221.869 139.673C221.869 135.836 223.975 131.32 228.814 126.076L225.875 123.363C220.747 128.919 217.869 134.371 217.869 139.673H221.869ZM228.81 126.08C231.539 123.141 233.639 120.618 235.069 118.528C235.784 117.483 236.359 116.506 236.762 115.608C237.154 114.732 237.443 113.8 237.443 112.882H233.443C233.443 113.001 233.394 113.341 233.111 113.972C232.839 114.579 232.402 115.342 231.767 116.27C230.498 118.125 228.548 120.483 225.879 123.359L228.81 126.08ZM237.443 112.882V82.9751H233.443V112.882H237.443ZM237.443 82.9751C237.443 79.4007 235.874 76.3694 232.985 73.9621L230.424 77.0348C232.52 78.7812 233.443 80.7343 233.443 82.9751H237.443ZM228.373 69.4222C222.445 65.8647 220 62.0435 220 58.053H216C216 64.0313 219.784 68.9328 226.315 72.852L228.373 69.4222ZM220 58.053C220 54.0406 221.42 51.1339 224.184 49.061L221.783 45.8612C217.902 48.7727 216 52.9272 216 58.053H220ZM224.184 49.061C227.304 46.7206 230.004 45.7228 232.328 45.7228V41.7228C228.837 41.7228 225.308 43.2171 221.783 45.8612L224.184 49.061ZM232.328 45.7228C235.517 45.7228 239.084 43.9089 242.9 40.94L240.444 37.7828C236.785 40.629 234.122 41.7228 232.328 41.7228V45.7228ZM242.819 40.9998C246.614 38.3432 250.983 37 256 37V33C250.219 33 245.037 34.5644 240.525 37.723L242.819 40.9998ZM256 37C261.019 37 265.139 38.3431 268.477 40.94L270.933 37.7828C266.796 34.5645 261.778 33 256 33V37ZM268.558 40.9998C272.761 43.9422 276.522 45.7228 279.672 45.7228V41.7228C277.839 41.7228 274.955 40.5957 270.852 37.723L268.558 40.9998ZM279.672 45.7228C281.996 45.7228 284.696 46.7206 287.816 49.061L290.217 45.8612C286.692 43.2171 283.163 41.7228 279.672 41.7228V45.7228ZM287.816 49.061C290.58 51.1339 292 54.0406 292 58.053H296C296 52.9272 294.098 48.7727 290.217 45.8612L287.816 49.061ZM292 58.053C292 62.0435 289.555 65.8647 283.627 69.4222L285.685 72.852C292.216 68.9328 296 64.0313 296 58.053H292ZM283.241 69.723C282.484 70.4803 280.891 71.8792 278.392 73.9621L280.953 77.0348C283.437 74.964 285.166 73.4554 286.07 72.5512L283.241 69.723ZM278.258 74.0843C275.811 76.532 274.557 79.5312 274.557 82.9751H278.557C278.557 80.6039 279.381 78.6186 281.086 76.9125L278.258 74.0843ZM274.557 82.9751V112.882H278.557V82.9751H274.557ZM274.557 112.882C274.557 113.77 274.816 114.682 275.177 115.554C275.546 116.447 276.075 117.421 276.735 118.467C278.055 120.557 279.994 123.08 282.514 126.021L285.551 123.418C283.088 120.544 281.289 118.187 280.117 116.331C279.532 115.403 279.126 114.638 278.873 114.025C278.611 113.392 278.557 113.032 278.557 112.882H274.557ZM282.618 126.134C287.88 131.396 290.131 135.896 290.131 139.673H294.131C294.131 134.312 290.983 128.843 285.447 123.306L282.618 126.134ZM290.131 139.673C290.131 143.476 287.855 148.193 282.567 153.888L285.499 156.61C291.008 150.675 294.131 145.007 294.131 139.673H290.131ZM282.563 153.893C280.039 156.628 278.091 159 276.762 160.994C275.5 162.888 274.557 164.779 274.557 166.464H278.557C278.557 166.072 278.861 165.056 280.09 163.212C281.253 161.468 283.043 159.27 285.503 156.606L282.563 153.893ZM274.557 166.464V195.748H278.557V166.464H274.557ZM274.557 195.748C274.557 199.192 275.811 202.191 278.258 204.638L281.086 201.81C279.381 200.104 278.557 198.119 278.557 195.748H274.557ZM278.392 204.761C280.891 206.844 282.484 208.243 283.241 209L286.07 206.172C285.166 205.267 283.437 203.759 280.953 201.688L278.392 204.761ZM283.627 209.301C289.555 212.858 292 216.679 292 220.67H296C296 214.691 292.216 209.79 285.685 205.871L283.627 209.301ZM292 220.67C292 224.207 290.619 227.202 287.699 229.757L290.334 232.767C294.059 229.506 296 225.44 296 220.67H292ZM287.715 229.743C285.237 231.867 281.991 233 277.803 233V237C282.752 237 286.981 235.641 290.318 232.78L287.715 229.743ZM277.803 233C274.818 233 271.565 232.254 268.026 230.68L266.401 234.335C270.337 236.085 274.144 237 277.803 237V233ZM268.185 230.76C264.193 228.542 260.124 227.393 256 227.393V231.393C259.351 231.393 262.758 232.32 266.242 234.256L268.185 230.76ZM256 227.393C251.876 227.393 247.807 228.542 243.815 230.76L245.758 234.256C249.242 232.32 252.649 231.393 256 231.393V227.393ZM243.974 230.68C240.435 232.254 237.182 233 234.197 233V237C237.856 237 241.663 236.085 245.599 234.335L243.974 230.68ZM225.93 72.5512L230.291 76.9125L233.119 74.0843L228.759 69.723L225.93 72.5512ZM230.291 201.81L225.93 206.172L228.759 209L233.119 204.638L230.291 201.81ZM246 59C246 53.4772 250.477 49 256 49V45C248.268 45 242 51.268 242 59H246ZM256 49C261.523 49 266 53.4772 266 59H270C270 51.268 263.732 45 256 45V49ZM246 134C244.343 134 243 132.657 243 131H239C239 134.866 242.134 138 246 138V134ZM243 131C243 129.343 244.343 128 246 128V124C242.134 124 239 127.134 239 131H243ZM269 131C269 132.657 267.657 134 266 134V138C269.866 138 273 134.866 273 131H269ZM266 128C267.657 128 269 129.343 269 131H273C273 127.134 269.866 124 266 124V128ZM246 151C244.343 151 243 149.657 243 148H239C239 151.866 242.134 155 246 155V151ZM243 148C243 146.343 244.343 145 246 145V141C242.134 141 239 144.134 239 148H243ZM259 211C259 212.657 257.657 214 256 214V218C259.866 218 263 214.866 263 211H259ZM256 214C254.343 214 253 212.657 253 211H249C249 214.866 252.134 218 256 218V214ZM269 148C269 149.657 267.657 151 266 151V155C269.866 155 273 151.866 273 148H269ZM266 145C267.657 145 269 146.343 269 148H273C273 144.134 269.866 141 266 141V145ZM261 114H251V118H261V114ZM251 165H261V161H251V165ZM259 163V211H263V163H259ZM253 211V163H249V211H253ZM246 128H266V124H246V128ZM266 134H246V138H266V134ZM246 145H266V141H246V145ZM266 151H246V155H266V151ZM253 116V69.9119H249V116H253ZM251.834 68.0942C248.387 66.5122 246 63.0328 246 59H242C242 64.6532 245.351 69.5196 250.166 71.7296L251.834 68.0942ZM259 69.9119V116H263V69.9119H259ZM266 59C266 63.0328 263.613 66.5122 260.166 68.0942L261.834 71.7296C266.649 69.5196 270 64.6532 270 59H266ZM340.197 475C336.016 475 332.502 473.868 329.561 471.662L327.161 474.862C330.864 477.64 335.241 479 340.197 479V475ZM329.775 471.848C327.247 469.319 326 466.299 326 462.67H322C322 467.348 323.66 471.389 326.946 474.676L329.775 471.848ZM326 462.67C326 458.679 328.445 454.858 334.373 451.301L332.315 447.871C325.784 451.79 322 456.691 322 462.67H326ZM338.985 446.761C341.874 444.353 343.443 441.322 343.443 437.748H339.443C339.443 439.988 338.52 441.942 336.424 443.688L338.985 446.761ZM343.443 437.748V408.464H339.443V437.748H343.443ZM343.443 408.464C343.443 407.539 343.15 406.614 342.751 405.753C342.342 404.873 341.759 403.929 341.039 402.932C339.6 400.939 337.491 398.568 334.759 395.835L331.93 398.663C334.596 401.33 336.536 403.529 337.797 405.274C338.426 406.146 338.856 406.864 339.122 407.437C339.397 408.029 339.443 408.351 339.443 408.464H343.443ZM334.863 395.948C329.996 390.269 327.869 385.533 327.869 381.673H323.869C323.869 386.951 326.725 392.599 331.826 398.551L334.863 395.948ZM327.869 381.673C327.869 377.836 329.975 373.32 334.814 368.076L331.875 365.363C326.747 370.919 323.869 376.371 323.869 381.673H327.869ZM334.81 368.08C337.539 365.141 339.639 362.618 341.069 360.528C341.784 359.483 342.359 358.506 342.762 357.608C343.154 356.732 343.443 355.8 343.443 354.882H339.443C339.443 355.001 339.394 355.341 339.111 355.972C338.839 356.579 338.402 357.342 337.767 358.27C336.498 360.125 334.548 362.483 331.879 365.359L334.81 368.08ZM343.443 354.882V324.975H339.443V354.882H343.443ZM343.443 324.975C343.443 321.401 341.874 318.369 338.985 315.962L336.424 319.035C338.52 320.781 339.443 322.734 339.443 324.975H343.443ZM334.373 311.422C328.445 307.865 326 304.043 326 300.053H322C322 306.031 325.784 310.933 332.315 314.852L334.373 311.422ZM326 300.053C326 296.041 327.42 293.134 330.184 291.061L327.783 287.861C323.902 290.773 322 294.927 322 300.053H326ZM330.184 291.061C333.304 288.721 336.004 287.723 338.328 287.723V283.723C334.837 283.723 331.308 285.217 327.783 287.861L330.184 291.061ZM338.328 287.723C341.517 287.723 345.084 285.909 348.9 282.94L346.444 279.783C342.785 282.629 340.122 283.723 338.328 283.723V287.723ZM348.819 283C352.614 280.343 356.983 279 362 279V275C356.219 275 351.037 276.564 346.525 279.723L348.819 283ZM362 279C367.019 279 371.139 280.343 374.477 282.94L376.933 279.783C372.796 276.564 367.778 275 362 275V279ZM374.558 283C378.761 285.942 382.522 287.723 385.672 287.723V283.723C383.839 283.723 380.955 282.596 376.852 279.723L374.558 283ZM385.672 287.723C387.996 287.723 390.696 288.721 393.816 291.061L396.217 287.861C392.692 285.217 389.163 283.723 385.672 283.723V287.723ZM393.816 291.061C396.58 293.134 398 296.041 398 300.053H402C402 294.927 400.098 290.773 396.217 287.861L393.816 291.061ZM398 300.053C398 304.043 395.555 307.865 389.627 311.422L391.685 314.852C398.216 310.933 402 306.031 402 300.053H398ZM389.241 311.723C388.484 312.48 386.891 313.879 384.392 315.962L386.953 319.035C389.437 316.964 391.166 315.455 392.07 314.551L389.241 311.723ZM384.258 316.084C381.811 318.532 380.557 321.531 380.557 324.975H384.557C384.557 322.604 385.381 320.619 387.086 318.913L384.258 316.084ZM380.557 324.975V354.882H384.557V324.975H380.557ZM380.557 354.882C380.557 355.77 380.816 356.682 381.177 357.554C381.546 358.447 382.075 359.421 382.735 360.467C384.055 362.557 385.994 365.08 388.514 368.021L391.551 365.418C389.088 362.544 387.289 360.187 386.117 358.331C385.532 357.403 385.126 356.638 384.873 356.025C384.611 355.392 384.557 355.032 384.557 354.882H380.557ZM388.618 368.134C393.88 373.396 396.131 377.896 396.131 381.673H400.131C400.131 376.312 396.983 370.843 391.447 365.306L388.618 368.134ZM396.131 381.673C396.131 385.476 393.855 390.193 388.567 395.888L391.499 398.61C397.008 392.675 400.131 387.007 400.131 381.673H396.131ZM388.563 395.893C386.039 398.628 384.091 401 382.762 402.994C381.499 404.888 380.557 406.779 380.557 408.464H384.557C384.557 408.072 384.861 407.056 386.09 405.212C387.253 403.467 389.043 401.27 391.503 398.606L388.563 395.893ZM380.557 408.464V437.748H384.557V408.464H380.557ZM380.557 437.748C380.557 441.192 381.811 444.191 384.258 446.638L387.086 443.81C385.381 442.104 384.557 440.119 384.557 437.748H380.557ZM384.392 446.761C386.891 448.844 388.484 450.243 389.241 451L392.07 448.172C391.166 447.267 389.437 445.759 386.953 443.688L384.392 446.761ZM389.627 451.301C395.555 454.858 398 458.679 398 462.67H402C402 456.691 398.216 451.79 391.685 447.871L389.627 451.301ZM398 462.67C398 466.207 396.619 469.202 393.699 471.757L396.334 474.767C400.059 471.506 402 467.44 402 462.67H398ZM393.715 471.743C391.237 473.867 387.991 475 383.803 475V479C388.752 479 392.981 477.641 396.318 474.78L393.715 471.743ZM383.803 475C380.818 475 377.565 474.254 374.026 472.68L372.401 476.335C376.337 478.085 380.144 479 383.803 479V475ZM374.185 472.76C370.193 470.542 366.124 469.393 362 469.393V473.393C365.351 473.393 368.758 474.32 372.242 476.256L374.185 472.76ZM362 469.393C357.876 469.393 353.807 470.542 349.815 472.76L351.758 476.256C355.242 474.32 358.649 473.393 362 473.393V469.393ZM349.974 472.68C346.435 474.254 343.182 475 340.197 475V479C343.856 479 347.663 478.085 351.599 476.335L349.974 472.68ZM331.93 314.551L336.291 318.913L339.119 316.084L334.759 311.723L331.93 314.551ZM336.291 443.81L331.93 448.172L334.759 451L339.119 446.638L336.291 443.81ZM352 301C352 295.477 356.477 291 362 291V287C354.268 287 348 293.268 348 301H352ZM362 291C367.523 291 372 295.477 372 301H376C376 293.268 369.732 287 362 287V291ZM352 376C350.343 376 349 374.657 349 373H345C345 376.866 348.134 380 352 380V376ZM349 373C349 371.343 350.343 370 352 370V366C348.134 366 345 369.134 345 373H349ZM375 373C375 374.657 373.657 376 372 376V380C375.866 380 379 376.866 379 373H375ZM372 370C373.657 370 375 371.343 375 373H379C379 369.134 375.866 366 372 366V370ZM352 393C350.343 393 349 391.657 349 390H345C345 393.866 348.134 397 352 397V393ZM349 390C349 388.343 350.343 387 352 387V383C348.134 383 345 386.134 345 390H349ZM365 453C365 454.657 363.657 456 362 456V460C365.866 460 369 456.866 369 453H365ZM362 456C360.343 456 359 454.657 359 453H355C355 456.866 358.134 460 362 460V456ZM375 390C375 391.657 373.657 393 372 393V397C375.866 397 379 393.866 379 390H375ZM372 387C373.657 387 375 388.343 375 390H379C379 386.134 375.866 383 372 383V387ZM367 356H357V360H367V356ZM357 407H367V403H357V407ZM365 405V453H369V405H365ZM359 453V405H355V453H359ZM352 370H372V366H352V370ZM372 376H352V380H372V376ZM352 387H372V383H352V387ZM372 393H352V397H372V393ZM359 358V311.912H355V358H359ZM357.834 310.094C354.387 308.512 352 305.033 352 301H348C348 306.653 351.351 311.52 356.166 313.73L357.834 310.094ZM365 311.912V358H369V311.912H365ZM372 301C372 305.033 369.613 308.512 366.166 310.094L367.834 313.73C372.649 311.52 376 306.653 376 301H372ZM340.197 233C336.016 233 332.502 231.868 329.561 229.662L327.161 232.862C330.864 235.64 335.241 237 340.197 237V233ZM329.775 229.848C327.247 227.319 326 224.299 326 220.67H322C322 225.348 323.66 229.389 326.946 232.676L329.775 229.848ZM326 220.67C326 216.679 328.445 212.858 334.373 209.301L332.315 205.871C325.784 209.79 322 214.691 322 220.67H326ZM338.985 204.761C341.874 202.353 343.443 199.322 343.443 195.748H339.443C339.443 197.988 338.52 199.942 336.424 201.688L338.985 204.761ZM343.443 195.748V166.464H339.443V195.748H343.443ZM343.443 166.464C343.443 165.539 343.15 164.614 342.751 163.753C342.342 162.873 341.759 161.929 341.039 160.932C339.6 158.939 337.491 156.568 334.759 153.835L331.93 156.663C334.596 159.33 336.536 161.529 337.797 163.274C338.426 164.146 338.856 164.864 339.122 165.437C339.397 166.029 339.443 166.351 339.443 166.464H343.443ZM334.863 153.948C329.996 148.269 327.869 143.533 327.869 139.673H323.869C323.869 144.951 326.725 150.599 331.826 156.551L334.863 153.948ZM327.869 139.673C327.869 135.836 329.975 131.32 334.814 126.076L331.875 123.363C326.747 128.919 323.869 134.371 323.869 139.673H327.869ZM334.81 126.08C337.539 123.141 339.639 120.618 341.069 118.528C341.784 117.483 342.359 116.506 342.762 115.608C343.154 114.732 343.443 113.8 343.443 112.882H339.443C339.443 113.001 339.394 113.341 339.111 113.972C338.839 114.579 338.402 115.342 337.767 116.27C336.498 118.125 334.548 120.483 331.879 123.359L334.81 126.08ZM343.443 112.882V82.9751H339.443V112.882H343.443ZM343.443 82.9751C343.443 79.4007 341.874 76.3694 338.985 73.9621L336.424 77.0348C338.52 78.7812 339.443 80.7343 339.443 82.9751H343.443ZM334.373 69.4222C328.445 65.8647 326 62.0435 326 58.053H322C322 64.0313 325.784 68.9328 332.315 72.852L334.373 69.4222ZM326 58.053C326 54.0406 327.42 51.1339 330.184 49.061L327.783 45.8612C323.902 48.7727 322 52.9272 322 58.053H326ZM330.184 49.061C333.304 46.7206 336.004 45.7228 338.328 45.7228V41.7228C334.837 41.7228 331.308 43.2171 327.783 45.8612L330.184 49.061ZM338.328 45.7228C341.517 45.7228 345.084 43.9089 348.9 40.94L346.444 37.7828C342.785 40.629 340.122 41.7228 338.328 41.7228V45.7228ZM348.819 40.9998C352.614 38.3432 356.983 37 362 37V33C356.219 33 351.037 34.5644 346.525 37.723L348.819 40.9998ZM362 37C367.019 37 371.139 38.3431 374.477 40.94L376.933 37.7828C372.796 34.5645 367.778 33 362 33V37ZM374.558 40.9998C378.761 43.9422 382.522 45.7228 385.672 45.7228V41.7228C383.839 41.7228 380.955 40.5957 376.852 37.723L374.558 40.9998ZM385.672 45.7228C387.996 45.7228 390.696 46.7206 393.816 49.061L396.217 45.8612C392.692 43.2171 389.163 41.7228 385.672 41.7228V45.7228ZM393.816 49.061C396.58 51.1339 398 54.0406 398 58.053H402C402 52.9272 400.098 48.7727 396.217 45.8612L393.816 49.061ZM398 58.053C398 62.0435 395.555 65.8647 389.627 69.4222L391.685 72.852C398.216 68.9328 402 64.0313 402 58.053H398ZM389.241 69.723C388.484 70.4803 386.891 71.8792 384.392 73.9621L386.953 77.0348C389.437 74.964 391.166 73.4554 392.07 72.5512L389.241 69.723ZM384.258 74.0843C381.811 76.532 380.557 79.5311 380.557 82.9751H384.557C384.557 80.6039 385.381 78.6186 387.086 76.9125L384.258 74.0843ZM380.557 82.9751V112.882H384.557V82.9751H380.557ZM380.557 112.882C380.557 113.77 380.816 114.682 381.177 115.554C381.546 116.447 382.075 117.421 382.735 118.467C384.055 120.557 385.994 123.08 388.514 126.021L391.551 123.418C389.088 120.544 387.289 118.187 386.117 116.331C385.532 115.403 385.126 114.638 384.873 114.025C384.611 113.392 384.557 113.032 384.557 112.882H380.557ZM388.618 126.134C393.88 131.396 396.131 135.896 396.131 139.673H400.131C400.131 134.312 396.983 128.843 391.447 123.306L388.618 126.134ZM396.131 139.673C396.131 143.476 393.855 148.193 388.567 153.888L391.499 156.61C397.008 150.675 400.131 145.007 400.131 139.673H396.131ZM388.563 153.893C386.039 156.628 384.091 159 382.762 160.994C381.499 162.888 380.557 164.779 380.557 166.464H384.557C384.557 166.072 384.861 165.056 386.09 163.212C387.253 161.468 389.043 159.27 391.503 156.606L388.563 153.893ZM380.557 166.464V195.748H384.557V166.464H380.557ZM380.557 195.748C380.557 199.192 381.811 202.191 384.258 204.638L387.086 201.81C385.381 200.104 384.557 198.119 384.557 195.748H380.557ZM384.392 204.761C386.891 206.844 388.484 208.243 389.241 209L392.07 206.172C391.166 205.267 389.437 203.759 386.953 201.688L384.392 204.761ZM389.627 209.301C395.555 212.858 398 216.679 398 220.67H402C402 214.691 398.216 209.79 391.685 205.871L389.627 209.301ZM398 220.67C398 224.207 396.619 227.202 393.699 229.757L396.334 232.767C400.059 229.506 402 225.44 402 220.67H398ZM393.715 229.743C391.237 231.867 387.991 233 383.803 233V237C388.752 237 392.981 235.641 396.318 232.78L393.715 229.743ZM383.803 233C380.818 233 377.565 232.254 374.026 230.68L372.401 234.335C376.337 236.085 380.144 237 383.803 237V233ZM374.185 230.76C370.193 228.542 366.124 227.393 362 227.393V231.393C365.351 231.393 368.758 232.32 372.242 234.256L374.185 230.76ZM362 227.393C357.876 227.393 353.807 228.542 349.815 230.76L351.758 234.256C355.242 232.32 358.649 231.393 362 231.393V227.393ZM349.974 230.68C346.435 232.254 343.182 233 340.197 233V237C343.856 237 347.663 236.085 351.599 234.335L349.974 230.68ZM331.93 72.5512L336.291 76.9125L339.119 74.0843L334.759 69.723L331.93 72.5512ZM336.291 201.81L331.93 206.172L334.759 209L339.119 204.638L336.291 201.81ZM352 59C352 53.4772 356.477 49 362 49V45C354.268 45 348 51.268 348 59H352ZM362 49C367.523 49 372 53.4772 372 59H376C376 51.268 369.732 45 362 45V49ZM352 134C350.343 134 349 132.657 349 131H345C345 134.866 348.134 138 352 138V134ZM349 131C349 129.343 350.343 128 352 128V124C348.134 124 345 127.134 345 131H349ZM375 131C375 132.657 373.657 134 372 134V138C375.866 138 379 134.866 379 131H375ZM372 128C373.657 128 375 129.343 375 131H379C379 127.134 375.866 124 372 124V128ZM352 151C350.343 151 349 149.657 349 148H345C345 151.866 348.134 155 352 155V151ZM349 148C349 146.343 350.343 145 352 145V141C348.134 141 345 144.134 345 148H349ZM365 211C365 212.657 363.657 214 362 214V218C365.866 218 369 214.866 369 211H365ZM362 214C360.343 214 359 212.657 359 211H355C355 214.866 358.134 218 362 218V214ZM375 148C375 149.657 373.657 151 372 151V155C375.866 155 379 151.866 379 148H375ZM372 145C373.657 145 375 146.343 375 148H379C379 144.134 375.866 141 372 141V145ZM367 114H357V118H367V114ZM357 165H367V161H357V165ZM365 163V211H369V163H365ZM359 211V163H355V211H359ZM352 128H372V124H352V128ZM372 134H352V138H372V134ZM352 145H372V141H352V145ZM372 151H352V155H372V151ZM359 116V69.9119H355V116H359ZM357.834 68.0942C354.387 66.5122 352 63.0328 352 59H348C348 64.6532 351.351 69.5196 356.166 71.7296L357.834 68.0942ZM365 69.9119V116H369V69.9119H365ZM372 59C372 63.0328 369.613 66.5122 366.166 68.0942L367.834 71.7296C372.649 69.5196 376 64.6532 376 59H372ZM128.197 475C124.016 475 120.502 473.868 117.561 471.662L115.161 474.862C118.864 477.64 123.241 479 128.197 479V475ZM117.775 471.848C115.247 469.319 114 466.299 114 462.67H110C110 467.348 111.66 471.389 114.946 474.676L117.775 471.848ZM114 462.67C114 458.679 116.445 454.858 122.373 451.301L120.315 447.871C113.784 451.79 110 456.691 110 462.67H114ZM126.985 446.761C129.874 444.353 131.443 441.322 131.443 437.748H127.443C127.443 439.988 126.52 441.942 124.424 443.688L126.985 446.761ZM131.443 437.748V408.464H127.443V437.748H131.443ZM131.443 408.464C131.443 407.539 131.15 406.614 130.751 405.753C130.342 404.873 129.759 403.929 129.039 402.932C127.6 400.939 125.491 398.568 122.759 395.835L119.93 398.663C122.596 401.33 124.536 403.529 125.797 405.274C126.426 406.146 126.856 406.864 127.122 407.437C127.397 408.029 127.443 408.351 127.443 408.464H131.443ZM122.863 395.948C117.996 390.269 115.869 385.533 115.869 381.673H111.869C111.869 386.951 114.725 392.599 119.826 398.551L122.863 395.948ZM115.869 381.673C115.869 377.836 117.975 373.32 122.814 368.076L119.875 365.363C114.747 370.919 111.869 376.371 111.869 381.673H115.869ZM122.81 368.08C125.539 365.141 127.639 362.618 129.069 360.528C129.784 359.483 130.359 358.506 130.762 357.608C131.154 356.732 131.443 355.8 131.443 354.882H127.443C127.443 355.001 127.394 355.341 127.111 355.972C126.839 356.579 126.402 357.342 125.767 358.27C124.498 360.125 122.548 362.483 119.879 365.359L122.81 368.08ZM131.443 354.882V324.975H127.443V354.882H131.443ZM131.443 324.975C131.443 321.401 129.874 318.369 126.985 315.962L124.424 319.035C126.52 320.781 127.443 322.734 127.443 324.975H131.443ZM122.373 311.422C116.445 307.865 114 304.043 114 300.053H110C110 306.031 113.784 310.933 120.315 314.852L122.373 311.422ZM114 300.053C114 296.041 115.42 293.134 118.184 291.061L115.783 287.861C111.902 290.773 110 294.927 110 300.053H114ZM118.184 291.061C121.304 288.721 124.004 287.723 126.328 287.723V283.723C122.837 283.723 119.308 285.217 115.783 287.861L118.184 291.061ZM126.328 287.723C129.517 287.723 133.084 285.909 136.9 282.94L134.444 279.783C130.785 282.629 128.122 283.723 126.328 283.723V287.723ZM136.819 283C140.614 280.343 144.983 279 150 279V275C144.219 275 139.037 276.564 134.525 279.723L136.819 283ZM150 279C155.019 279 159.139 280.343 162.477 282.94L164.933 279.783C160.796 276.564 155.778 275 150 275V279ZM162.558 283C166.761 285.942 170.522 287.723 173.672 287.723V283.723C171.839 283.723 168.955 282.596 164.852 279.723L162.558 283ZM173.672 287.723C175.996 287.723 178.696 288.721 181.816 291.061L184.217 287.861C180.692 285.217 177.163 283.723 173.672 283.723V287.723ZM181.816 291.061C184.58 293.134 186 296.041 186 300.053H190C190 294.927 188.098 290.773 184.217 287.861L181.816 291.061ZM186 300.053C186 304.043 183.555 307.865 177.627 311.422L179.685 314.852C186.216 310.933 190 306.031 190 300.053H186ZM177.241 311.723C176.484 312.48 174.891 313.879 172.392 315.962L174.953 319.035C177.437 316.964 179.166 315.455 180.07 314.551L177.241 311.723ZM172.258 316.084C169.811 318.532 168.557 321.531 168.557 324.975H172.557C172.557 322.604 173.381 320.619 175.086 318.913L172.258 316.084ZM168.557 324.975V354.882H172.557V324.975H168.557ZM168.557 354.882C168.557 355.77 168.816 356.682 169.177 357.554C169.546 358.447 170.075 359.421 170.735 360.467C172.055 362.557 173.994 365.08 176.514 368.021L179.551 365.418C177.088 362.544 175.289 360.187 174.117 358.331C173.532 357.403 173.126 356.638 172.873 356.025C172.611 355.392 172.557 355.032 172.557 354.882H168.557ZM176.618 368.134C181.88 373.396 184.131 377.896 184.131 381.673H188.131C188.131 376.312 184.983 370.843 179.447 365.306L176.618 368.134ZM184.131 381.673C184.131 385.476 181.855 390.193 176.567 395.888L179.498 398.61C185.008 392.675 188.131 387.007 188.131 381.673H184.131ZM176.563 395.893C174.039 398.628 172.091 401 170.762 402.994C169.5 404.888 168.557 406.779 168.557 408.464H172.557C172.557 408.072 172.861 407.056 174.09 405.212C175.253 403.467 177.043 401.27 179.503 398.606L176.563 395.893ZM168.557 408.464V437.748H172.557V408.464H168.557ZM168.557 437.748C168.557 441.192 169.811 444.191 172.258 446.638L175.086 443.81C173.381 442.104 172.557 440.119 172.557 437.748H168.557ZM172.392 446.761C174.891 448.844 176.484 450.243 177.241 451L180.07 448.172C179.166 447.267 177.437 445.759 174.953 443.688L172.392 446.761ZM177.627 451.301C183.555 454.858 186 458.679 186 462.67H190C190 456.691 186.216 451.79 179.685 447.871L177.627 451.301ZM186 462.67C186 466.207 184.619 469.202 181.699 471.757L184.334 474.767C188.059 471.506 190 467.44 190 462.67H186ZM181.715 471.743C179.237 473.867 175.991 475 171.803 475V479C176.752 479 180.981 477.641 184.318 474.78L181.715 471.743ZM171.803 475C168.818 475 165.565 474.254 162.026 472.68L160.401 476.335C164.337 478.085 168.144 479 171.803 479V475ZM162.185 472.76C158.193 470.542 154.124 469.393 150 469.393V473.393C153.351 473.393 156.758 474.32 160.242 476.256L162.185 472.76ZM150 469.393C145.876 469.393 141.807 470.542 137.815 472.76L139.758 476.256C143.242 474.32 146.649 473.393 150 473.393V469.393ZM137.974 472.68C134.435 474.254 131.182 475 128.197 475V479C131.856 479 135.663 478.085 139.599 476.335L137.974 472.68ZM119.93 314.551L124.291 318.913L127.119 316.084L122.759 311.723L119.93 314.551ZM124.291 443.81L119.93 448.172L122.759 451L127.119 446.638L124.291 443.81ZM140 301C140 295.477 144.477 291 150 291V287C142.268 287 136 293.268 136 301H140ZM150 291C155.523 291 160 295.477 160 301H164C164 293.268 157.732 287 150 287V291ZM140 376C138.343 376 137 374.657 137 373H133C133 376.866 136.134 380 140 380V376ZM137 373C137 371.343 138.343 370 140 370V366C136.134 366 133 369.134 133 373H137ZM163 373C163 374.657 161.657 376 160 376V380C163.866 380 167 376.866 167 373H163ZM160 370C161.657 370 163 371.343 163 373H167C167 369.134 163.866 366 160 366V370ZM140 393C138.343 393 137 391.657 137 390H133C133 393.866 136.134 397 140 397V393ZM137 390C137 388.343 138.343 387 140 387V383C136.134 383 133 386.134 133 390H137ZM153 453C153 454.657 151.657 456 150 456V460C153.866 460 157 456.866 157 453H153ZM150 456C148.343 456 147 454.657 147 453H143C143 456.866 146.134 460 150 460V456ZM163 390C163 391.657 161.657 393 160 393V397C163.866 397 167 393.866 167 390H163ZM160 387C161.657 387 163 388.343 163 390H167C167 386.134 163.866 383 160 383V387ZM155 356H145V360H155V356ZM145 407H155V403H145V407ZM153 405V453H157V405H153ZM147 453V405H143V453H147ZM140 370H160V366H140V370ZM160 376H140V380H160V376ZM140 387H160V383H140V387ZM160 393H140V397H160V393ZM147 358V311.912H143V358H147ZM145.834 310.094C142.387 308.512 140 305.033 140 301H136C136 306.653 139.351 311.52 144.166 313.73L145.834 310.094ZM153 311.912V358H157V311.912H153ZM160 301C160 305.033 157.613 308.512 154.166 310.094L155.834 313.73C160.649 311.52 164 306.653 164 301H160ZM128.197 233C124.016 233 120.502 231.868 117.561 229.662L115.161 232.862C118.864 235.64 123.241 237 128.197 237V233ZM117.775 229.848C115.247 227.319 114 224.299 114 220.67H110C110 225.348 111.66 229.389 114.946 232.676L117.775 229.848ZM114 220.67C114 216.679 116.445 212.858 122.373 209.301L120.315 205.871C113.784 209.79 110 214.691 110 220.67H114ZM126.985 204.761C129.874 202.353 131.443 199.322 131.443 195.748H127.443C127.443 197.988 126.52 199.942 124.424 201.688L126.985 204.761ZM131.443 195.748V166.464H127.443V195.748H131.443ZM131.443 166.464C131.443 165.539 131.15 164.614 130.751 163.753C130.342 162.873 129.759 161.929 129.039 160.932C127.6 158.939 125.491 156.568 122.759 153.835L119.93 156.663C122.596 159.33 124.536 161.529 125.797 163.274C126.426 164.146 126.856 164.864 127.122 165.437C127.397 166.029 127.443 166.351 127.443 166.464H131.443ZM122.863 153.948C117.996 148.269 115.869 143.533 115.869 139.673H111.869C111.869 144.951 114.725 150.599 119.826 156.551L122.863 153.948ZM115.869 139.673C115.869 135.836 117.975 131.32 122.814 126.076L119.875 123.363C114.747 128.919 111.869 134.371 111.869 139.673H115.869ZM122.81 126.08C125.539 123.141 127.639 120.618 129.069 118.528C129.784 117.483 130.359 116.506 130.762 115.608C131.154 114.732 131.443 113.8 131.443 112.882H127.443C127.443 113.001 127.394 113.341 127.111 113.972C126.839 114.579 126.402 115.342 125.767 116.27C124.498 118.125 122.548 120.483 119.879 123.359L122.81 126.08ZM131.443 112.882V82.9751H127.443V112.882H131.443ZM131.443 82.9751C131.443 79.4007 129.874 76.3694 126.985 73.9621L124.424 77.0348C126.52 78.7812 127.443 80.7343 127.443 82.9751H131.443ZM122.373 69.4222C116.445 65.8647 114 62.0435 114 58.053H110C110 64.0313 113.784 68.9328 120.315 72.852L122.373 69.4222ZM114 58.053C114 54.0406 115.42 51.1339 118.184 49.061L115.783 45.8612C111.902 48.7727 110 52.9272 110 58.053H114ZM118.184 49.061C121.304 46.7206 124.004 45.7228 126.328 45.7228V41.7228C122.837 41.7228 119.308 43.2171 115.783 45.8612L118.184 49.061ZM126.328 45.7228C129.517 45.7228 133.084 43.9089 136.9 40.94L134.444 37.7828C130.785 40.629 128.122 41.7228 126.328 41.7228V45.7228ZM136.819 40.9998C140.614 38.3432 144.983 37 150 37V33C144.219 33 139.037 34.5644 134.525 37.723L136.819 40.9998ZM150 37C155.019 37 159.139 38.3431 162.477 40.94L164.933 37.7828C160.796 34.5645 155.778 33 150 33V37ZM162.558 40.9998C166.761 43.9422 170.522 45.7228 173.672 45.7228V41.7228C171.839 41.7228 168.955 40.5957 164.852 37.723L162.558 40.9998ZM173.672 45.7228C175.996 45.7228 178.696 46.7206 181.816 49.061L184.217 45.8612C180.692 43.2171 177.163 41.7228 173.672 41.7228V45.7228ZM181.816 49.061C184.58 51.1339 186 54.0406 186 58.053H190C190 52.9272 188.098 48.7727 184.217 45.8612L181.816 49.061ZM186 58.053C186 62.0435 183.555 65.8647 177.627 69.4222L179.685 72.852C186.216 68.9328 190 64.0313 190 58.053H186ZM177.241 69.723C176.484 70.4803 174.891 71.8792 172.392 73.9621L174.953 77.0348C177.437 74.964 179.166 73.4554 180.07 72.5512L177.241 69.723ZM172.258 74.0843C169.811 76.532 168.557 79.5312 168.557 82.9751H172.557C172.557 80.6038 173.381 78.6186 175.086 76.9125L172.258 74.0843ZM168.557 82.9751V112.882H172.557V82.9751H168.557ZM168.557 112.882C168.557 113.77 168.816 114.682 169.177 115.554C169.546 116.447 170.075 117.421 170.735 118.467C172.055 120.557 173.994 123.08 176.514 126.021L179.551 123.418C177.088 120.544 175.289 118.187 174.117 116.331C173.532 115.403 173.126 114.638 172.873 114.025C172.611 113.392 172.557 113.032 172.557 112.882H168.557ZM176.618 126.134C181.88 131.396 184.131 135.896 184.131 139.673H188.131C188.131 134.312 184.983 128.843 179.447 123.306L176.618 126.134ZM184.131 139.673C184.131 143.476 181.855 148.193 176.567 153.888L179.498 156.61C185.008 150.675 188.131 145.007 188.131 139.673H184.131ZM176.563 153.893C174.039 156.628 172.091 159 170.762 160.994C169.5 162.888 168.557 164.779 168.557 166.464H172.557C172.557 166.072 172.861 165.056 174.09 163.212C175.253 161.468 177.043 159.27 179.503 156.606L176.563 153.893ZM168.557 166.464V195.748H172.557V166.464H168.557ZM168.557 195.748C168.557 199.192 169.811 202.191 172.258 204.638L175.086 201.81C173.381 200.104 172.557 198.119 172.557 195.748H168.557ZM172.392 204.761C174.891 206.844 176.484 208.243 177.241 209L180.07 206.172C179.166 205.267 177.437 203.759 174.953 201.688L172.392 204.761ZM177.627 209.301C183.555 212.858 186 216.679 186 220.67H190C190 214.691 186.216 209.79 179.685 205.871L177.627 209.301ZM186 220.67C186 224.207 184.619 227.202 181.699 229.757L184.334 232.767C188.059 229.506 190 225.44 190 220.67H186ZM181.715 229.743C179.237 231.867 175.991 233 171.803 233V237C176.752 237 180.981 235.641 184.318 232.78L181.715 229.743ZM171.803 233C168.818 233 165.565 232.254 162.026 230.68L160.401 234.335C164.337 236.085 168.144 237 171.803 237V233ZM162.185 230.76C158.193 228.542 154.124 227.393 150 227.393V231.393C153.351 231.393 156.758 232.32 160.242 234.256L162.185 230.76ZM150 227.393C145.876 227.393 141.807 228.542 137.815 230.76L139.758 234.256C143.242 232.32 146.649 231.393 150 231.393V227.393ZM137.974 230.68C134.435 232.254 131.182 233 128.197 233V237C131.856 237 135.663 236.085 139.599 234.335L137.974 230.68ZM119.93 72.5512L124.291 76.9125L127.119 74.0843L122.759 69.723L119.93 72.5512ZM124.291 201.81L119.93 206.172L122.759 209L127.119 204.638L124.291 201.81ZM140 59C140 53.4772 144.477 49 150 49V45C142.268 45 136 51.268 136 59H140ZM150 49C155.523 49 160 53.4772 160 59H164C164 51.268 157.732 45 150 45V49ZM140 134C138.343 134 137 132.657 137 131H133C133 134.866 136.134 138 140 138V134ZM137 131C137 129.343 138.343 128 140 128V124C136.134 124 133 127.134 133 131H137ZM163 131C163 132.657 161.657 134 160 134V138C163.866 138 167 134.866 167 131H163ZM160 128C161.657 128 163 129.343 163 131H167C167 127.134 163.866 124 160 124V128ZM140 151C138.343 151 137 149.657 137 148H133C133 151.866 136.134 155 140 155V151ZM137 148C137 146.343 138.343 145 140 145V141C136.134 141 133 144.134 133 148H137ZM153 211C153 212.657 151.657 214 150 214V218C153.866 218 157 214.866 157 211H153ZM150 214C148.343 214 147 212.657 147 211H143C143 214.866 146.134 218 150 218V214ZM163 148C163 149.657 161.657 151 160 151V155C163.866 155 167 151.866 167 148H163ZM160 145C161.657 145 163 146.343 163 148H167C167 144.134 163.866 141 160 141V145ZM155 114H145V118H155V114ZM145 165H155V161H145V165ZM153 163V211H157V163H153ZM147 211V163H143V211H147ZM140 128H160V124H140V128ZM160 134H140V138H160V134ZM140 145H160V141H140V145ZM160 151H140V155H160V151ZM147 116V69.9119H143V116H147ZM145.834 68.0942C142.387 66.5122 140 63.0328 140 59H136C136 64.6532 139.351 69.5196 144.166 71.7296L145.834 68.0942ZM153 69.9119V116H157V69.9119H153ZM160 59C160 63.0328 157.613 66.5122 154.166 68.0942L155.834 71.7296C160.649 69.5196 164 64.6532 164 59H160Z" fill="white" mask="url(#path-2-inside-1_170_433)"/>
</svg>
