<svg width="512" height="512" viewBox="0 0 512 512" fill="none" xmlns="http://www.w3.org/2000/svg">
<path d="M0 0H512V512H0V0Z" fill="white"/>
<path fill-rule="evenodd" clip-rule="evenodd" d="M234.197 477C229.628 477 225.683 475.754 222.361 473.262C219.454 470.354 218 466.823 218 462.67C218 457.685 221.115 453.324 227.344 449.586L231.705 445.224C234.197 443.147 235.443 440.655 235.443 437.748V408.464C235.443 406.387 232.743 402.649 227.344 397.249C222.361 391.434 219.869 386.242 219.869 381.673C219.869 377.104 222.361 372.119 227.344 366.72C232.743 360.904 235.443 356.958 235.443 354.882V324.975C235.443 322.068 234.197 319.575 231.705 317.498L227.344 313.137C221.115 309.399 218 305.037 218 300.053C218 295.484 219.661 291.953 222.984 289.461C226.306 286.969 229.421 285.723 232.328 285.723C234.82 285.723 237.934 284.269 241.672 281.361C245.825 278.454 250.601 277 256 277C261.399 277 265.967 278.454 269.705 281.361C273.858 284.269 277.18 285.723 279.672 285.723C282.579 285.723 285.694 286.969 289.016 289.461C292.339 291.953 294 295.484 294 300.053C294 305.037 290.885 309.399 284.656 313.137C283.825 313.968 282.164 315.422 279.672 317.498C277.596 319.575 276.557 322.068 276.557 324.975V354.882C276.557 356.958 279.049 360.904 284.033 366.72C289.432 372.119 292.131 377.104 292.131 381.673C292.131 386.242 289.432 391.434 284.033 397.249C279.049 402.649 276.557 406.387 276.557 408.464V437.748C276.557 440.655 277.596 443.147 279.672 445.224C282.164 447.301 283.825 448.755 284.656 449.586C290.885 453.324 294 457.685 294 462.67C294 466.823 292.339 470.354 289.016 473.262C286.109 475.754 282.372 477 277.803 477C274.481 477 270.951 476.169 267.213 474.508C263.475 472.431 259.738 471.393 256 471.393C252.262 471.393 248.525 472.431 244.787 474.508C241.049 476.169 237.519 477 234.197 477ZM244 301C244 294.373 249.373 289 256 289C262.627 289 268 294.373 268 301C268 305.843 265.131 310.016 261 311.912V358H251V311.912C246.869 310.016 244 305.843 244 301ZM241 373C241 375.761 243.239 378 246 378H266C268.761 378 271 375.761 271 373C271 370.239 268.761 368 266 368H246C243.239 368 241 370.239 241 373ZM246 395C243.239 395 241 392.761 241 390C241 387.239 243.239 385 246 385H266C268.761 385 271 387.239 271 390C271 392.761 268.761 395 266 395H246ZM256 458C258.761 458 261 455.761 261 453V405H251V453C251 455.761 253.239 458 256 458Z" fill="#008000"/>
<path fill-rule="evenodd" clip-rule="evenodd" d="M234.197 235C229.628 235 225.683 233.754 222.361 231.262C219.454 228.354 218 224.823 218 220.67C218 215.685 221.115 211.324 227.344 207.586L231.705 203.224C234.197 201.147 235.443 198.655 235.443 195.748V166.464C235.443 164.387 232.743 160.649 227.344 155.249C222.361 149.434 219.869 144.242 219.869 139.673C219.869 135.104 222.361 130.119 227.344 124.72C232.743 118.904 235.443 114.958 235.443 112.882V82.9751C235.443 80.0675 234.197 77.5753 231.705 75.4984L227.344 71.1371C221.115 67.3988 218 63.0374 218 58.053C218 53.4839 219.661 49.9533 222.984 47.4611C226.306 44.9688 229.421 43.7228 232.328 43.7228C234.82 43.7228 237.934 42.269 241.672 39.3614C245.825 36.4538 250.601 35 256 35C261.399 35 265.967 36.4538 269.705 39.3614C273.858 42.269 277.18 43.7228 279.672 43.7228C282.579 43.7228 285.694 44.9688 289.016 47.4611C292.339 49.9533 294 53.4839 294 58.053C294 63.0374 290.885 67.3988 284.656 71.1371C283.825 71.9678 282.164 73.4216 279.672 75.4984C277.596 77.5753 276.557 80.0675 276.557 82.9751V112.882C276.557 114.958 279.049 118.904 284.033 124.72C289.432 130.119 292.131 135.104 292.131 139.673C292.131 144.242 289.432 149.434 284.033 155.249C279.049 160.649 276.557 164.387 276.557 166.464V195.748C276.557 198.655 277.596 201.147 279.672 203.224C282.164 205.301 283.825 206.755 284.656 207.586C290.885 211.324 294 215.685 294 220.67C294 224.823 292.339 228.354 289.016 231.262C286.109 233.754 282.372 235 277.803 235C274.481 235 270.951 234.169 267.213 232.508C263.475 230.431 259.738 229.393 256 229.393C252.262 229.393 248.525 230.431 244.787 232.508C241.049 234.169 237.519 235 234.197 235ZM244 59C244 52.3726 249.373 47 256 47C262.627 47 268 52.3726 268 59C268 63.843 265.131 68.0159 261 69.9119V116H251V69.9119C246.869 68.0159 244 63.843 244 59ZM241 131C241 133.761 243.239 136 246 136H266C268.761 136 271 133.761 271 131C271 128.239 268.761 126 266 126H246C243.239 126 241 128.239 241 131ZM246 153C243.239 153 241 150.761 241 148C241 145.239 243.239 143 246 143H266C268.761 143 271 145.239 271 148C271 150.761 268.761 153 266 153H246ZM256 216C258.761 216 261 213.761 261 211V163H251V211C251 213.761 253.239 216 256 216Z" fill="#008000"/>
<path fill-rule="evenodd" clip-rule="evenodd" d="M340.197 477C335.628 477 331.683 475.754 328.361 473.262C325.454 470.354 324 466.823 324 462.67C324 457.685 327.115 453.324 333.344 449.586L337.705 445.224C340.197 443.147 341.443 440.655 341.443 437.748V408.464C341.443 406.387 338.743 402.649 333.344 397.249C328.361 391.434 325.869 386.242 325.869 381.673C325.869 377.104 328.361 372.119 333.344 366.72C338.743 360.904 341.443 356.958 341.443 354.882V324.975C341.443 322.068 340.197 319.575 337.705 317.498L333.344 313.137C327.115 309.399 324 305.037 324 300.053C324 295.484 325.661 291.953 328.984 289.461C332.306 286.969 335.421 285.723 338.328 285.723C340.82 285.723 343.934 284.269 347.672 281.361C351.825 278.454 356.601 277 362 277C367.399 277 371.967 278.454 375.705 281.361C379.858 284.269 383.18 285.723 385.672 285.723C388.579 285.723 391.694 286.969 395.016 289.461C398.339 291.953 400 295.484 400 300.053C400 305.037 396.885 309.399 390.656 313.137C389.825 313.968 388.164 315.422 385.672 317.498C383.596 319.575 382.557 322.068 382.557 324.975V354.882C382.557 356.958 385.049 360.904 390.033 366.72C395.432 372.119 398.131 377.104 398.131 381.673C398.131 386.242 395.432 391.434 390.033 397.249C385.049 402.649 382.557 406.387 382.557 408.464V437.748C382.557 440.655 383.596 443.147 385.672 445.224C388.164 447.301 389.825 448.755 390.656 449.586C396.885 453.324 400 457.685 400 462.67C400 466.823 398.339 470.354 395.016 473.262C392.109 475.754 388.372 477 383.803 477C380.481 477 376.951 476.169 373.213 474.508C369.475 472.431 365.738 471.393 362 471.393C358.262 471.393 354.525 472.431 350.787 474.508C347.049 476.169 343.519 477 340.197 477ZM350 301C350 294.373 355.373 289 362 289C368.627 289 374 294.373 374 301C374 305.843 371.131 310.016 367 311.912V358H357V311.912C352.869 310.016 350 305.843 350 301ZM347 373C347 375.761 349.239 378 352 378H372C374.761 378 377 375.761 377 373C377 370.239 374.761 368 372 368H352C349.239 368 347 370.239 347 373ZM352 395C349.239 395 347 392.761 347 390C347 387.239 349.239 385 352 385H372C374.761 385 377 387.239 377 390C377 392.761 374.761 395 372 395H352ZM362 458C364.761 458 367 455.761 367 453V405H357V453C357 455.761 359.239 458 362 458Z" fill="#008000"/>
<path fill-rule="evenodd" clip-rule="evenodd" d="M340.197 235C335.628 235 331.683 233.754 328.361 231.262C325.454 228.354 324 224.823 324 220.67C324 215.685 327.115 211.324 333.344 207.586L337.705 203.224C340.197 201.147 341.443 198.655 341.443 195.748V166.464C341.443 164.387 338.743 160.649 333.344 155.249C328.361 149.434 325.869 144.242 325.869 139.673C325.869 135.104 328.361 130.119 333.344 124.72C338.743 118.904 341.443 114.958 341.443 112.882V82.9751C341.443 80.0675 340.197 77.5753 337.705 75.4984L333.344 71.1371C327.115 67.3988 324 63.0374 324 58.053C324 53.4839 325.661 49.9533 328.984 47.4611C332.306 44.9688 335.421 43.7228 338.328 43.7228C340.82 43.7228 343.934 42.269 347.672 39.3614C351.825 36.4538 356.601 35 362 35C367.399 35 371.967 36.4538 375.705 39.3614C379.858 42.269 383.18 43.7228 385.672 43.7228C388.579 43.7228 391.694 44.9688 395.016 47.4611C398.339 49.9533 400 53.4839 400 58.053C400 63.0374 396.885 67.3988 390.656 71.1371C389.825 71.9678 388.164 73.4216 385.672 75.4984C383.596 77.5753 382.557 80.0675 382.557 82.9751V112.882C382.557 114.958 385.049 118.904 390.033 124.72C395.432 130.119 398.131 135.104 398.131 139.673C398.131 144.242 395.432 149.434 390.033 155.249C385.049 160.649 382.557 164.387 382.557 166.464V195.748C382.557 198.655 383.596 201.147 385.672 203.224C388.164 205.301 389.825 206.755 390.656 207.586C396.885 211.324 400 215.685 400 220.67C400 224.823 398.339 228.354 395.016 231.262C392.109 233.754 388.372 235 383.803 235C380.481 235 376.951 234.169 373.213 232.508C369.475 230.431 365.738 229.393 362 229.393C358.262 229.393 354.525 230.431 350.787 232.508C347.049 234.169 343.519 235 340.197 235ZM350 59C350 52.3726 355.373 47 362 47C368.627 47 374 52.3726 374 59C374 63.843 371.131 68.0159 367 69.9119V116H357V69.9119C352.869 68.0159 350 63.843 350 59ZM347 131C347 133.761 349.239 136 352 136H372C374.761 136 377 133.761 377 131C377 128.239 374.761 126 372 126H352C349.239 126 347 128.239 347 131ZM352 153C349.239 153 347 150.761 347 148C347 145.239 349.239 143 352 143H372C374.761 143 377 145.239 377 148C377 150.761 374.761 153 372 153H352ZM362 216C364.761 216 367 213.761 367 211V163H357V211C357 213.761 359.239 216 362 216Z" fill="#008000"/>
<path fill-rule="evenodd" clip-rule="evenodd" d="M128.197 477C123.628 477 119.683 475.754 116.361 473.262C113.454 470.354 112 466.823 112 462.67C112 457.685 115.115 453.324 121.344 449.586L125.705 445.224C128.197 443.147 129.443 440.655 129.443 437.748V408.464C129.443 406.387 126.743 402.649 121.344 397.249C116.361 391.434 113.869 386.242 113.869 381.673C113.869 377.104 116.361 372.119 121.344 366.72C126.743 360.904 129.443 356.958 129.443 354.882V324.975C129.443 322.068 128.197 319.575 125.705 317.498L121.344 313.137C115.115 309.399 112 305.037 112 300.053C112 295.484 113.661 291.953 116.984 289.461C120.306 286.969 123.421 285.723 126.328 285.723C128.82 285.723 131.934 284.269 135.672 281.361C139.825 278.454 144.601 277 150 277C155.399 277 159.967 278.454 163.705 281.361C167.858 284.269 171.18 285.723 173.672 285.723C176.579 285.723 179.694 286.969 183.016 289.461C186.339 291.953 188 295.484 188 300.053C188 305.037 184.885 309.399 178.656 313.137C177.825 313.968 176.164 315.422 173.672 317.498C171.596 319.575 170.557 322.068 170.557 324.975V354.882C170.557 356.958 173.049 360.904 178.033 366.72C183.432 372.119 186.131 377.104 186.131 381.673C186.131 386.242 183.432 391.434 178.033 397.249C173.049 402.649 170.557 406.387 170.557 408.464V437.748C170.557 440.655 171.596 443.147 173.672 445.224C176.164 447.301 177.825 448.755 178.656 449.586C184.885 453.324 188 457.685 188 462.67C188 466.823 186.339 470.354 183.016 473.262C180.109 475.754 176.372 477 171.803 477C168.481 477 164.951 476.169 161.213 474.508C157.475 472.431 153.738 471.393 150 471.393C146.262 471.393 142.525 472.431 138.787 474.508C135.049 476.169 131.519 477 128.197 477ZM138 301C138 294.373 143.373 289 150 289C156.627 289 162 294.373 162 301C162 305.843 159.131 310.016 155 311.912V358H145V311.912C140.869 310.016 138 305.843 138 301ZM135 373C135 375.761 137.239 378 140 378H160C162.761 378 165 375.761 165 373C165 370.239 162.761 368 160 368H140C137.239 368 135 370.239 135 373ZM140 395C137.239 395 135 392.761 135 390C135 387.239 137.239 385 140 385H160C162.761 385 165 387.239 165 390C165 392.761 162.761 395 160 395H140ZM150 458C152.761 458 155 455.761 155 453V405H145V453C145 455.761 147.239 458 150 458Z" fill="#008000"/>
<path fill-rule="evenodd" clip-rule="evenodd" d="M128.197 235C123.628 235 119.683 233.754 116.361 231.262C113.454 228.354 112 224.823 112 220.67C112 215.685 115.115 211.324 121.344 207.586L125.705 203.224C128.197 201.147 129.443 198.655 129.443 195.748V166.464C129.443 164.387 126.743 160.649 121.344 155.249C116.361 149.434 113.869 144.242 113.869 139.673C113.869 135.104 116.361 130.119 121.344 124.72C126.743 118.904 129.443 114.958 129.443 112.882V82.9751C129.443 80.0675 128.197 77.5753 125.705 75.4984L121.344 71.1371C115.115 67.3988 112 63.0374 112 58.053C112 53.4839 113.661 49.9533 116.984 47.4611C120.306 44.9688 123.421 43.7228 126.328 43.7228C128.82 43.7228 131.934 42.269 135.672 39.3614C139.825 36.4538 144.601 35 150 35C155.399 35 159.967 36.4538 163.705 39.3614C167.858 42.269 171.18 43.7228 173.672 43.7228C176.579 43.7228 179.694 44.9688 183.016 47.4611C186.339 49.9533 188 53.4839 188 58.053C188 63.0374 184.885 67.3988 178.656 71.1371C177.825 71.9678 176.164 73.4216 173.672 75.4984C171.596 77.5753 170.557 80.0675 170.557 82.9751V112.882C170.557 114.958 173.049 118.904 178.033 124.72C183.432 130.119 186.131 135.104 186.131 139.673C186.131 144.242 183.432 149.434 178.033 155.249C173.049 160.649 170.557 164.387 170.557 166.464V195.748C170.557 198.655 171.596 201.147 173.672 203.224C176.164 205.301 177.825 206.755 178.656 207.586C184.885 211.324 188 215.685 188 220.67C188 224.823 186.339 228.354 183.016 231.262C180.109 233.754 176.372 235 171.803 235C168.481 235 164.951 234.169 161.213 232.508C157.475 230.431 153.738 229.393 150 229.393C146.262 229.393 142.525 230.431 138.787 232.508C135.049 234.169 131.519 235 128.197 235ZM138 59C138 52.3726 143.373 47 150 47C156.627 47 162 52.3726 162 59C162 63.843 159.131 68.0159 155 69.9119V116H145V69.9119C140.869 68.0159 138 63.843 138 59ZM135 131C135 133.761 137.239 136 140 136H160C162.761 136 165 133.761 165 131C165 128.239 162.761 126 160 126H140C137.239 126 135 128.239 135 131ZM140 153C137.239 153 135 150.761 135 148C135 145.239 137.239 143 140 143H160C162.761 143 165 145.239 165 148C165 150.761 162.761 153 160 153H140ZM150 216C152.761 216 155 213.761 155 211V163H145V211C145 213.761 147.239 216 150 216Z" fill="#008000"/>
</svg>
