<svg width="512" height="512" viewBox="0 0 512 512" fill="none" xmlns="http://www.w3.org/2000/svg">
<path d="M1 1H511V511H1V1Z" fill="white" stroke="white" stroke-width="2"/>
<mask id="path-2-inside-1_170_469" fill="white">
<path d="M164.192 91C164.192 96.6288 159.629 101.192 154 101.192C148.371 101.192 143.808 96.6288 143.808 91C143.808 85.3712 148.371 80.8082 154 80.8082C159.629 80.8082 164.192 85.3712 164.192 91Z"/>
<path d="M162.918 67.412C162.918 72.3372 158.925 76.3299 154 76.3299C149.075 76.3299 145.082 72.3372 145.082 67.412C145.082 62.4868 149.075 58.4941 154 58.4941C158.925 58.4941 162.918 62.4868 162.918 67.412Z"/>
<path d="M184.808 83.6281C184.808 88.5533 180.815 92.546 175.89 92.546C170.964 92.546 166.972 88.5533 166.972 83.6281C166.972 78.7029 170.964 74.7102 175.89 74.7102C180.815 74.7102 184.808 78.7029 184.808 83.6281Z"/>
<path d="M176.7 109.57C176.7 114.495 172.708 118.488 167.782 118.488C162.857 118.488 158.865 114.495 158.865 109.57C158.865 104.644 162.857 100.652 167.782 100.652C172.708 100.652 176.7 104.644 176.7 109.57Z"/>
<path fill-rule="evenodd" clip-rule="evenodd" d="M197.315 91C197.315 114.922 177.922 134.315 154 134.315C130.078 134.315 110.685 114.922 110.685 91C110.685 67.0777 130.078 47.6849 154 47.6849C177.922 47.6849 197.315 67.0777 197.315 91ZM189.672 83.6284C189.672 91.2401 183.502 97.4106 175.89 97.4106C175.263 97.4106 174.646 97.3687 174.042 97.2877C178.507 99.5679 181.565 104.212 181.565 109.57C181.565 117.182 175.394 123.352 167.783 123.352C160.171 123.352 154.001 117.182 154.001 109.57C154.001 117.182 147.83 123.352 140.218 123.352C132.606 123.352 126.436 117.182 126.436 109.57C126.436 104.212 129.494 99.568 133.959 97.2877C133.355 97.3687 132.738 97.4106 132.111 97.4106C124.499 97.4106 118.329 91.2401 118.329 83.6284C118.329 76.0167 124.499 69.8462 132.111 69.8462C135.887 69.8462 139.309 71.3648 141.798 73.8247C140.789 71.9093 140.218 69.7275 140.218 67.4123C140.218 59.8006 146.389 53.6301 154.001 53.6301C161.612 53.6301 167.783 59.8006 167.783 67.4123C167.783 69.7272 167.212 71.9089 166.204 73.8242C168.693 71.3646 172.114 69.8462 175.89 69.8462C183.502 69.8462 189.672 76.0167 189.672 83.6284Z"/>
<path d="M141.029 83.6281C141.029 88.5533 137.036 92.546 132.111 92.546C127.185 92.546 123.193 88.5533 123.193 83.6281C123.193 78.7029 127.185 74.7102 132.111 74.7102C137.036 74.7102 141.029 78.7029 141.029 83.6281Z"/>
<path d="M149.136 109.57C149.136 114.495 145.143 118.488 140.218 118.488C135.293 118.488 131.3 114.495 131.3 109.57C131.3 104.644 135.293 100.652 140.218 100.652C145.143 100.652 149.136 104.644 149.136 109.57Z"/>
<path d="M368.192 189C368.192 194.629 363.629 199.192 358 199.192C352.371 199.192 347.808 194.629 347.808 189C347.808 183.371 352.371 178.808 358 178.808C363.629 178.808 368.192 183.371 368.192 189Z"/>
<path d="M366.918 165.412C366.918 170.337 362.925 174.33 358 174.33C353.075 174.33 349.082 170.337 349.082 165.412C349.082 160.487 353.075 156.494 358 156.494C362.925 156.494 366.918 160.487 366.918 165.412Z"/>
<path d="M388.808 181.628C388.808 186.553 384.815 190.546 379.89 190.546C374.964 190.546 370.972 186.553 370.972 181.628C370.972 176.703 374.964 172.71 379.89 172.71C384.815 172.71 388.808 176.703 388.808 181.628Z"/>
<path d="M380.7 207.57C380.7 212.495 376.708 216.488 371.782 216.488C366.857 216.488 362.865 212.495 362.865 207.57C362.865 202.644 366.857 198.652 371.782 198.652C376.708 198.652 380.7 202.644 380.7 207.57Z"/>
<path fill-rule="evenodd" clip-rule="evenodd" d="M401.315 189C401.315 212.922 381.922 232.315 358 232.315C334.078 232.315 314.685 212.922 314.685 189C314.685 165.078 334.078 145.685 358 145.685C381.922 145.685 401.315 165.078 401.315 189ZM393.672 181.628C393.672 189.24 387.502 195.411 379.89 195.411C379.263 195.411 378.646 195.369 378.042 195.288C382.507 197.568 385.565 202.212 385.565 207.57C385.565 215.182 379.394 221.352 371.783 221.352C364.171 221.352 358.001 215.182 358.001 207.57C358.001 215.182 351.83 221.352 344.218 221.352C336.606 221.352 330.436 215.182 330.436 207.57C330.436 202.212 333.494 197.568 337.959 195.288C337.355 195.369 336.738 195.411 336.111 195.411C328.499 195.411 322.329 189.24 322.329 181.628C322.329 174.017 328.499 167.846 336.111 167.846C339.887 167.846 343.309 169.365 345.798 171.825C344.789 169.909 344.218 167.727 344.218 165.412C344.218 157.801 350.389 151.63 358.001 151.63C365.612 151.63 371.783 157.801 371.783 165.412C371.783 167.727 371.212 169.909 370.204 171.824C372.693 169.365 376.114 167.846 379.89 167.846C387.502 167.846 393.672 174.017 393.672 181.628Z"/>
<path d="M345.029 181.628C345.029 186.553 341.036 190.546 336.111 190.546C331.185 190.546 327.193 186.553 327.193 181.628C327.193 176.703 331.185 172.71 336.111 172.71C341.036 172.71 345.029 176.703 345.029 181.628Z"/>
<path d="M353.136 207.57C353.136 212.495 349.143 216.488 344.218 216.488C339.293 216.488 335.3 212.495 335.3 207.57C335.3 202.644 339.293 198.652 344.218 198.652C349.143 198.652 353.136 202.644 353.136 207.57Z"/>
<path d="M266.192 140C266.192 145.629 261.629 150.192 256 150.192C250.371 150.192 245.808 145.629 245.808 140C245.808 134.371 250.371 129.808 256 129.808C261.629 129.808 266.192 134.371 266.192 140Z"/>
<path d="M264.918 116.412C264.918 121.337 260.925 125.33 256 125.33C251.075 125.33 247.082 121.337 247.082 116.412C247.082 111.487 251.075 107.494 256 107.494C260.925 107.494 264.918 111.487 264.918 116.412Z"/>
<path d="M286.808 132.628C286.808 137.553 282.815 141.546 277.89 141.546C272.964 141.546 268.972 137.553 268.972 132.628C268.972 127.703 272.964 123.71 277.89 123.71C282.815 123.71 286.808 127.703 286.808 132.628Z"/>
<path d="M278.7 158.57C278.7 163.495 274.708 167.488 269.782 167.488C264.857 167.488 260.865 163.495 260.865 158.57C260.865 153.644 264.857 149.652 269.782 149.652C274.708 149.652 278.7 153.644 278.7 158.57Z"/>
<path fill-rule="evenodd" clip-rule="evenodd" d="M299.315 140C299.315 163.922 279.922 183.315 256 183.315C232.078 183.315 212.685 163.922 212.685 140C212.685 116.078 232.078 96.6849 256 96.6849C279.922 96.6849 299.315 116.078 299.315 140ZM291.672 132.628C291.672 140.24 285.502 146.411 277.89 146.411C277.263 146.411 276.646 146.369 276.042 146.288C280.507 148.568 283.565 153.212 283.565 158.57C283.565 166.182 277.394 172.352 269.783 172.352C262.171 172.352 256.001 166.182 256.001 158.57C256.001 166.182 249.83 172.352 242.218 172.352C234.606 172.352 228.436 166.182 228.436 158.57C228.436 153.212 231.494 148.568 235.959 146.288C235.355 146.369 234.738 146.411 234.111 146.411C226.499 146.411 220.329 140.24 220.329 132.628C220.329 125.017 226.499 118.846 234.111 118.846C237.887 118.846 241.309 120.365 243.798 122.825C242.789 120.909 242.218 118.727 242.218 116.412C242.218 108.801 248.389 102.63 256.001 102.63C263.612 102.63 269.783 108.801 269.783 116.412C269.783 118.727 269.212 120.909 268.204 122.824C270.693 120.365 274.114 118.846 277.89 118.846C285.502 118.846 291.672 125.017 291.672 132.628Z"/>
<path d="M243.029 132.628C243.029 137.553 239.036 141.546 234.111 141.546C229.185 141.546 225.193 137.553 225.193 132.628C225.193 127.703 229.185 123.71 234.111 123.71C239.036 123.71 243.029 127.703 243.029 132.628Z"/>
<path d="M251.136 158.57C251.136 163.495 247.143 167.488 242.218 167.488C237.293 167.488 233.3 163.495 233.3 158.57C233.3 153.644 237.293 149.652 242.218 149.652C247.143 149.652 251.136 153.644 251.136 158.57Z"/>
<path fill-rule="evenodd" clip-rule="evenodd" d="M197.362 479C162.92 479 135 451.08 135 416.638C135 389.668 152.121 366.697 176.087 358C152.121 349.303 135 326.332 135 299.362C135 264.92 162.92 237 197.362 237C224.332 237 247.303 254.121 256 278.087C264.697 254.121 287.668 237 314.638 237C316.082 237 317.514 237.049 318.933 237.146C304.941 225.778 296 208.433 296 189C296 188.45 296.007 187.901 296.021 187.355C285.222 196.491 271.254 202 256 202C221.758 202 194 174.242 194 140C194 139.45 194.007 138.901 194.021 138.355C183.222 147.491 169.254 153 154 153C119.758 153 92 125.242 92 91C92 56.7583 119.758 29 154 29C188.242 29 216 56.7583 216 91C216 91.5502 215.993 92.0987 215.979 92.6455C226.778 83.5088 240.746 78 256 78C290.242 78 318 105.758 318 140C318 140.55 317.993 141.099 317.979 141.645C328.778 132.509 342.746 127 358 127C392.242 127 420 154.758 420 189C420 223.242 392.242 251 358 251C356.604 251 355.218 250.954 353.844 250.863C367.969 262.296 377 279.774 377 299.362C377 326.332 359.879 349.303 335.913 358C359.879 366.697 377 389.668 377 416.638C377 451.08 349.08 479 314.638 479C287.668 479 264.697 461.879 256 437.913C247.303 461.879 224.332 479 197.362 479ZM197.362 464.865C223.996 464.865 245.588 443.273 245.588 416.638C245.588 390.004 223.996 368.412 197.362 368.412C170.727 368.412 149.135 390.004 149.135 416.638C149.135 443.273 170.727 464.865 197.362 464.865ZM314.638 464.865C341.273 464.865 362.865 443.273 362.865 416.638C362.865 390.004 341.273 368.412 314.638 368.412C288.004 368.412 266.412 390.004 266.412 416.638C266.412 443.273 288.004 464.865 314.638 464.865ZM197.362 347.588C223.996 347.588 245.588 325.996 245.588 299.362C245.588 272.727 223.996 251.135 197.362 251.135C170.727 251.135 149.135 272.727 149.135 299.362C149.135 325.996 170.727 347.588 197.362 347.588ZM314.638 347.588C341.273 347.588 362.865 325.996 362.865 299.362C362.865 272.727 341.273 251.135 314.638 251.135C288.004 251.135 266.412 272.727 266.412 299.362C266.412 325.996 288.004 347.588 314.638 347.588ZM218.636 358C235.963 351.712 249.712 337.963 256 320.636C262.288 337.963 276.037 351.712 293.364 358C276.037 364.288 262.288 378.037 256 395.364C249.712 378.037 235.963 364.288 218.636 358ZM154 138.947C180.48 138.947 201.947 117.48 201.947 91C201.947 64.5198 180.48 43.0533 154 43.0533C127.52 43.0533 106.053 64.5198 106.053 91C106.053 117.48 127.52 138.947 154 138.947ZM358 236.947C384.48 236.947 405.947 215.48 405.947 189C405.947 162.52 384.48 141.053 358 141.053C331.52 141.053 310.053 162.52 310.053 189C310.053 215.48 331.52 236.947 358 236.947ZM256 187.947C282.48 187.947 303.947 166.48 303.947 140C303.947 113.52 282.48 92.0533 256 92.0533C229.52 92.0533 208.053 113.52 208.053 140C208.053 166.48 229.52 187.947 256 187.947Z"/>
</mask>
<path d="M164.192 91C164.192 96.6288 159.629 101.192 154 101.192C148.371 101.192 143.808 96.6288 143.808 91C143.808 85.3712 148.371 80.8082 154 80.8082C159.629 80.8082 164.192 85.3712 164.192 91Z" fill="#969696"/>
<path d="M162.918 67.412C162.918 72.3372 158.925 76.3299 154 76.3299C149.075 76.3299 145.082 72.3372 145.082 67.412C145.082 62.4868 149.075 58.4941 154 58.4941C158.925 58.4941 162.918 62.4868 162.918 67.412Z" fill="#969696"/>
<path d="M184.808 83.6281C184.808 88.5533 180.815 92.546 175.89 92.546C170.964 92.546 166.972 88.5533 166.972 83.6281C166.972 78.7029 170.964 74.7102 175.89 74.7102C180.815 74.7102 184.808 78.7029 184.808 83.6281Z" fill="#969696"/>
<path d="M176.7 109.57C176.7 114.495 172.708 118.488 167.782 118.488C162.857 118.488 158.865 114.495 158.865 109.57C158.865 104.644 162.857 100.652 167.782 100.652C172.708 100.652 176.7 104.644 176.7 109.57Z" fill="#969696"/>
<path fill-rule="evenodd" clip-rule="evenodd" d="M197.315 91C197.315 114.922 177.922 134.315 154 134.315C130.078 134.315 110.685 114.922 110.685 91C110.685 67.0777 130.078 47.6849 154 47.6849C177.922 47.6849 197.315 67.0777 197.315 91ZM189.672 83.6284C189.672 91.2401 183.502 97.4106 175.89 97.4106C175.263 97.4106 174.646 97.3687 174.042 97.2877C178.507 99.5679 181.565 104.212 181.565 109.57C181.565 117.182 175.394 123.352 167.783 123.352C160.171 123.352 154.001 117.182 154.001 109.57C154.001 117.182 147.83 123.352 140.218 123.352C132.606 123.352 126.436 117.182 126.436 109.57C126.436 104.212 129.494 99.568 133.959 97.2877C133.355 97.3687 132.738 97.4106 132.111 97.4106C124.499 97.4106 118.329 91.2401 118.329 83.6284C118.329 76.0167 124.499 69.8462 132.111 69.8462C135.887 69.8462 139.309 71.3648 141.798 73.8247C140.789 71.9093 140.218 69.7275 140.218 67.4123C140.218 59.8006 146.389 53.6301 154.001 53.6301C161.612 53.6301 167.783 59.8006 167.783 67.4123C167.783 69.7272 167.212 71.9089 166.204 73.8242C168.693 71.3646 172.114 69.8462 175.89 69.8462C183.502 69.8462 189.672 76.0167 189.672 83.6284Z" fill="#969696"/>
<path d="M141.029 83.6281C141.029 88.5533 137.036 92.546 132.111 92.546C127.185 92.546 123.193 88.5533 123.193 83.6281C123.193 78.7029 127.185 74.7102 132.111 74.7102C137.036 74.7102 141.029 78.7029 141.029 83.6281Z" fill="#969696"/>
<path d="M149.136 109.57C149.136 114.495 145.143 118.488 140.218 118.488C135.293 118.488 131.3 114.495 131.3 109.57C131.3 104.644 135.293 100.652 140.218 100.652C145.143 100.652 149.136 104.644 149.136 109.57Z" fill="#969696"/>
<path d="M368.192 189C368.192 194.629 363.629 199.192 358 199.192C352.371 199.192 347.808 194.629 347.808 189C347.808 183.371 352.371 178.808 358 178.808C363.629 178.808 368.192 183.371 368.192 189Z" fill="#969696"/>
<path d="M366.918 165.412C366.918 170.337 362.925 174.33 358 174.33C353.075 174.33 349.082 170.337 349.082 165.412C349.082 160.487 353.075 156.494 358 156.494C362.925 156.494 366.918 160.487 366.918 165.412Z" fill="#969696"/>
<path d="M388.808 181.628C388.808 186.553 384.815 190.546 379.89 190.546C374.964 190.546 370.972 186.553 370.972 181.628C370.972 176.703 374.964 172.71 379.89 172.71C384.815 172.71 388.808 176.703 388.808 181.628Z" fill="#969696"/>
<path d="M380.7 207.57C380.7 212.495 376.708 216.488 371.782 216.488C366.857 216.488 362.865 212.495 362.865 207.57C362.865 202.644 366.857 198.652 371.782 198.652C376.708 198.652 380.7 202.644 380.7 207.57Z" fill="#969696"/>
<path fill-rule="evenodd" clip-rule="evenodd" d="M401.315 189C401.315 212.922 381.922 232.315 358 232.315C334.078 232.315 314.685 212.922 314.685 189C314.685 165.078 334.078 145.685 358 145.685C381.922 145.685 401.315 165.078 401.315 189ZM393.672 181.628C393.672 189.24 387.502 195.411 379.89 195.411C379.263 195.411 378.646 195.369 378.042 195.288C382.507 197.568 385.565 202.212 385.565 207.57C385.565 215.182 379.394 221.352 371.783 221.352C364.171 221.352 358.001 215.182 358.001 207.57C358.001 215.182 351.83 221.352 344.218 221.352C336.606 221.352 330.436 215.182 330.436 207.57C330.436 202.212 333.494 197.568 337.959 195.288C337.355 195.369 336.738 195.411 336.111 195.411C328.499 195.411 322.329 189.24 322.329 181.628C322.329 174.017 328.499 167.846 336.111 167.846C339.887 167.846 343.309 169.365 345.798 171.825C344.789 169.909 344.218 167.727 344.218 165.412C344.218 157.801 350.389 151.63 358.001 151.63C365.612 151.63 371.783 157.801 371.783 165.412C371.783 167.727 371.212 169.909 370.204 171.824C372.693 169.365 376.114 167.846 379.89 167.846C387.502 167.846 393.672 174.017 393.672 181.628Z" fill="#969696"/>
<path d="M345.029 181.628C345.029 186.553 341.036 190.546 336.111 190.546C331.185 190.546 327.193 186.553 327.193 181.628C327.193 176.703 331.185 172.71 336.111 172.71C341.036 172.71 345.029 176.703 345.029 181.628Z" fill="#969696"/>
<path d="M353.136 207.57C353.136 212.495 349.143 216.488 344.218 216.488C339.293 216.488 335.3 212.495 335.3 207.57C335.3 202.644 339.293 198.652 344.218 198.652C349.143 198.652 353.136 202.644 353.136 207.57Z" fill="#969696"/>
<path d="M266.192 140C266.192 145.629 261.629 150.192 256 150.192C250.371 150.192 245.808 145.629 245.808 140C245.808 134.371 250.371 129.808 256 129.808C261.629 129.808 266.192 134.371 266.192 140Z" fill="#969696"/>
<path d="M264.918 116.412C264.918 121.337 260.925 125.33 256 125.33C251.075 125.33 247.082 121.337 247.082 116.412C247.082 111.487 251.075 107.494 256 107.494C260.925 107.494 264.918 111.487 264.918 116.412Z" fill="#969696"/>
<path d="M286.808 132.628C286.808 137.553 282.815 141.546 277.89 141.546C272.964 141.546 268.972 137.553 268.972 132.628C268.972 127.703 272.964 123.71 277.89 123.71C282.815 123.71 286.808 127.703 286.808 132.628Z" fill="#969696"/>
<path d="M278.7 158.57C278.7 163.495 274.708 167.488 269.782 167.488C264.857 167.488 260.865 163.495 260.865 158.57C260.865 153.644 264.857 149.652 269.782 149.652C274.708 149.652 278.7 153.644 278.7 158.57Z" fill="#969696"/>
<path fill-rule="evenodd" clip-rule="evenodd" d="M299.315 140C299.315 163.922 279.922 183.315 256 183.315C232.078 183.315 212.685 163.922 212.685 140C212.685 116.078 232.078 96.6849 256 96.6849C279.922 96.6849 299.315 116.078 299.315 140ZM291.672 132.628C291.672 140.24 285.502 146.411 277.89 146.411C277.263 146.411 276.646 146.369 276.042 146.288C280.507 148.568 283.565 153.212 283.565 158.57C283.565 166.182 277.394 172.352 269.783 172.352C262.171 172.352 256.001 166.182 256.001 158.57C256.001 166.182 249.83 172.352 242.218 172.352C234.606 172.352 228.436 166.182 228.436 158.57C228.436 153.212 231.494 148.568 235.959 146.288C235.355 146.369 234.738 146.411 234.111 146.411C226.499 146.411 220.329 140.24 220.329 132.628C220.329 125.017 226.499 118.846 234.111 118.846C237.887 118.846 241.309 120.365 243.798 122.825C242.789 120.909 242.218 118.727 242.218 116.412C242.218 108.801 248.389 102.63 256.001 102.63C263.612 102.63 269.783 108.801 269.783 116.412C269.783 118.727 269.212 120.909 268.204 122.824C270.693 120.365 274.114 118.846 277.89 118.846C285.502 118.846 291.672 125.017 291.672 132.628Z" fill="#969696"/>
<path d="M243.029 132.628C243.029 137.553 239.036 141.546 234.111 141.546C229.185 141.546 225.193 137.553 225.193 132.628C225.193 127.703 229.185 123.71 234.111 123.71C239.036 123.71 243.029 127.703 243.029 132.628Z" fill="#969696"/>
<path d="M251.136 158.57C251.136 163.495 247.143 167.488 242.218 167.488C237.293 167.488 233.3 163.495 233.3 158.57C233.3 153.644 237.293 149.652 242.218 149.652C247.143 149.652 251.136 153.644 251.136 158.57Z" fill="#969696"/>
<path fill-rule="evenodd" clip-rule="evenodd" d="M197.362 479C162.92 479 135 451.08 135 416.638C135 389.668 152.121 366.697 176.087 358C152.121 349.303 135 326.332 135 299.362C135 264.92 162.92 237 197.362 237C224.332 237 247.303 254.121 256 278.087C264.697 254.121 287.668 237 314.638 237C316.082 237 317.514 237.049 318.933 237.146C304.941 225.778 296 208.433 296 189C296 188.45 296.007 187.901 296.021 187.355C285.222 196.491 271.254 202 256 202C221.758 202 194 174.242 194 140C194 139.45 194.007 138.901 194.021 138.355C183.222 147.491 169.254 153 154 153C119.758 153 92 125.242 92 91C92 56.7583 119.758 29 154 29C188.242 29 216 56.7583 216 91C216 91.5502 215.993 92.0987 215.979 92.6455C226.778 83.5088 240.746 78 256 78C290.242 78 318 105.758 318 140C318 140.55 317.993 141.099 317.979 141.645C328.778 132.509 342.746 127 358 127C392.242 127 420 154.758 420 189C420 223.242 392.242 251 358 251C356.604 251 355.218 250.954 353.844 250.863C367.969 262.296 377 279.774 377 299.362C377 326.332 359.879 349.303 335.913 358C359.879 366.697 377 389.668 377 416.638C377 451.08 349.08 479 314.638 479C287.668 479 264.697 461.879 256 437.913C247.303 461.879 224.332 479 197.362 479ZM197.362 464.865C223.996 464.865 245.588 443.273 245.588 416.638C245.588 390.004 223.996 368.412 197.362 368.412C170.727 368.412 149.135 390.004 149.135 416.638C149.135 443.273 170.727 464.865 197.362 464.865ZM314.638 464.865C341.273 464.865 362.865 443.273 362.865 416.638C362.865 390.004 341.273 368.412 314.638 368.412C288.004 368.412 266.412 390.004 266.412 416.638C266.412 443.273 288.004 464.865 314.638 464.865ZM197.362 347.588C223.996 347.588 245.588 325.996 245.588 299.362C245.588 272.727 223.996 251.135 197.362 251.135C170.727 251.135 149.135 272.727 149.135 299.362C149.135 325.996 170.727 347.588 197.362 347.588ZM314.638 347.588C341.273 347.588 362.865 325.996 362.865 299.362C362.865 272.727 341.273 251.135 314.638 251.135C288.004 251.135 266.412 272.727 266.412 299.362C266.412 325.996 288.004 347.588 314.638 347.588ZM218.636 358C235.963 351.712 249.712 337.963 256 320.636C262.288 337.963 276.037 351.712 293.364 358C276.037 364.288 262.288 378.037 256 395.364C249.712 378.037 235.963 364.288 218.636 358ZM154 138.947C180.48 138.947 201.947 117.48 201.947 91C201.947 64.5198 180.48 43.0533 154 43.0533C127.52 43.0533 106.053 64.5198 106.053 91C106.053 117.48 127.52 138.947 154 138.947ZM358 236.947C384.48 236.947 405.947 215.48 405.947 189C405.947 162.52 384.48 141.053 358 141.053C331.52 141.053 310.053 162.52 310.053 189C310.053 215.48 331.52 236.947 358 236.947ZM256 187.947C282.48 187.947 303.947 166.48 303.947 140C303.947 113.52 282.48 92.0533 256 92.0533C229.52 92.0533 208.053 113.52 208.053 140C208.053 166.48 229.52 187.947 256 187.947Z" fill="#969696"/>
<path d="M164.192 91C164.192 96.6288 159.629 101.192 154 101.192C148.371 101.192 143.808 96.6288 143.808 91C143.808 85.3712 148.371 80.8082 154 80.8082C159.629 80.8082 164.192 85.3712 164.192 91Z" stroke="white" stroke-width="4" mask="url(#path-2-inside-1_170_469)"/>
<path d="M162.918 67.412C162.918 72.3372 158.925 76.3299 154 76.3299C149.075 76.3299 145.082 72.3372 145.082 67.412C145.082 62.4868 149.075 58.4941 154 58.4941C158.925 58.4941 162.918 62.4868 162.918 67.412Z" stroke="white" stroke-width="4" mask="url(#path-2-inside-1_170_469)"/>
<path d="M184.808 83.6281C184.808 88.5533 180.815 92.546 175.89 92.546C170.964 92.546 166.972 88.5533 166.972 83.6281C166.972 78.7029 170.964 74.7102 175.89 74.7102C180.815 74.7102 184.808 78.7029 184.808 83.6281Z" stroke="white" stroke-width="4" mask="url(#path-2-inside-1_170_469)"/>
<path d="M176.7 109.57C176.7 114.495 172.708 118.488 167.782 118.488C162.857 118.488 158.865 114.495 158.865 109.57C158.865 104.644 162.857 100.652 167.782 100.652C172.708 100.652 176.7 104.644 176.7 109.57Z" stroke="white" stroke-width="4" mask="url(#path-2-inside-1_170_469)"/>
<path fill-rule="evenodd" clip-rule="evenodd" d="M197.315 91C197.315 114.922 177.922 134.315 154 134.315C130.078 134.315 110.685 114.922 110.685 91C110.685 67.0777 130.078 47.6849 154 47.6849C177.922 47.6849 197.315 67.0777 197.315 91ZM189.672 83.6284C189.672 91.2401 183.502 97.4106 175.89 97.4106C175.263 97.4106 174.646 97.3687 174.042 97.2877C178.507 99.5679 181.565 104.212 181.565 109.57C181.565 117.182 175.394 123.352 167.783 123.352C160.171 123.352 154.001 117.182 154.001 109.57C154.001 117.182 147.83 123.352 140.218 123.352C132.606 123.352 126.436 117.182 126.436 109.57C126.436 104.212 129.494 99.568 133.959 97.2877C133.355 97.3687 132.738 97.4106 132.111 97.4106C124.499 97.4106 118.329 91.2401 118.329 83.6284C118.329 76.0167 124.499 69.8462 132.111 69.8462C135.887 69.8462 139.309 71.3648 141.798 73.8247C140.789 71.9093 140.218 69.7275 140.218 67.4123C140.218 59.8006 146.389 53.6301 154.001 53.6301C161.612 53.6301 167.783 59.8006 167.783 67.4123C167.783 69.7272 167.212 71.9089 166.204 73.8242C168.693 71.3646 172.114 69.8462 175.89 69.8462C183.502 69.8462 189.672 76.0167 189.672 83.6284Z" stroke="white" stroke-width="4" mask="url(#path-2-inside-1_170_469)"/>
<path d="M141.029 83.6281C141.029 88.5533 137.036 92.546 132.111 92.546C127.185 92.546 123.193 88.5533 123.193 83.6281C123.193 78.7029 127.185 74.7102 132.111 74.7102C137.036 74.7102 141.029 78.7029 141.029 83.6281Z" stroke="white" stroke-width="4" mask="url(#path-2-inside-1_170_469)"/>
<path d="M149.136 109.57C149.136 114.495 145.143 118.488 140.218 118.488C135.293 118.488 131.3 114.495 131.3 109.57C131.3 104.644 135.293 100.652 140.218 100.652C145.143 100.652 149.136 104.644 149.136 109.57Z" stroke="white" stroke-width="4" mask="url(#path-2-inside-1_170_469)"/>
<path d="M368.192 189C368.192 194.629 363.629 199.192 358 199.192C352.371 199.192 347.808 194.629 347.808 189C347.808 183.371 352.371 178.808 358 178.808C363.629 178.808 368.192 183.371 368.192 189Z" stroke="white" stroke-width="4" mask="url(#path-2-inside-1_170_469)"/>
<path d="M366.918 165.412C366.918 170.337 362.925 174.33 358 174.33C353.075 174.33 349.082 170.337 349.082 165.412C349.082 160.487 353.075 156.494 358 156.494C362.925 156.494 366.918 160.487 366.918 165.412Z" stroke="white" stroke-width="4" mask="url(#path-2-inside-1_170_469)"/>
<path d="M388.808 181.628C388.808 186.553 384.815 190.546 379.89 190.546C374.964 190.546 370.972 186.553 370.972 181.628C370.972 176.703 374.964 172.71 379.89 172.71C384.815 172.71 388.808 176.703 388.808 181.628Z" stroke="white" stroke-width="4" mask="url(#path-2-inside-1_170_469)"/>
<path d="M380.7 207.57C380.7 212.495 376.708 216.488 371.782 216.488C366.857 216.488 362.865 212.495 362.865 207.57C362.865 202.644 366.857 198.652 371.782 198.652C376.708 198.652 380.7 202.644 380.7 207.57Z" stroke="white" stroke-width="4" mask="url(#path-2-inside-1_170_469)"/>
<path fill-rule="evenodd" clip-rule="evenodd" d="M401.315 189C401.315 212.922 381.922 232.315 358 232.315C334.078 232.315 314.685 212.922 314.685 189C314.685 165.078 334.078 145.685 358 145.685C381.922 145.685 401.315 165.078 401.315 189ZM393.672 181.628C393.672 189.24 387.502 195.411 379.89 195.411C379.263 195.411 378.646 195.369 378.042 195.288C382.507 197.568 385.565 202.212 385.565 207.57C385.565 215.182 379.394 221.352 371.783 221.352C364.171 221.352 358.001 215.182 358.001 207.57C358.001 215.182 351.83 221.352 344.218 221.352C336.606 221.352 330.436 215.182 330.436 207.57C330.436 202.212 333.494 197.568 337.959 195.288C337.355 195.369 336.738 195.411 336.111 195.411C328.499 195.411 322.329 189.24 322.329 181.628C322.329 174.017 328.499 167.846 336.111 167.846C339.887 167.846 343.309 169.365 345.798 171.825C344.789 169.909 344.218 167.727 344.218 165.412C344.218 157.801 350.389 151.63 358.001 151.63C365.612 151.63 371.783 157.801 371.783 165.412C371.783 167.727 371.212 169.909 370.204 171.824C372.693 169.365 376.114 167.846 379.89 167.846C387.502 167.846 393.672 174.017 393.672 181.628Z" stroke="white" stroke-width="4" mask="url(#path-2-inside-1_170_469)"/>
<path d="M345.029 181.628C345.029 186.553 341.036 190.546 336.111 190.546C331.185 190.546 327.193 186.553 327.193 181.628C327.193 176.703 331.185 172.71 336.111 172.71C341.036 172.71 345.029 176.703 345.029 181.628Z" stroke="white" stroke-width="4" mask="url(#path-2-inside-1_170_469)"/>
<path d="M353.136 207.57C353.136 212.495 349.143 216.488 344.218 216.488C339.293 216.488 335.3 212.495 335.3 207.57C335.3 202.644 339.293 198.652 344.218 198.652C349.143 198.652 353.136 202.644 353.136 207.57Z" stroke="white" stroke-width="4" mask="url(#path-2-inside-1_170_469)"/>
<path d="M266.192 140C266.192 145.629 261.629 150.192 256 150.192C250.371 150.192 245.808 145.629 245.808 140C245.808 134.371 250.371 129.808 256 129.808C261.629 129.808 266.192 134.371 266.192 140Z" stroke="white" stroke-width="4" mask="url(#path-2-inside-1_170_469)"/>
<path d="M264.918 116.412C264.918 121.337 260.925 125.33 256 125.33C251.075 125.33 247.082 121.337 247.082 116.412C247.082 111.487 251.075 107.494 256 107.494C260.925 107.494 264.918 111.487 264.918 116.412Z" stroke="white" stroke-width="4" mask="url(#path-2-inside-1_170_469)"/>
<path d="M286.808 132.628C286.808 137.553 282.815 141.546 277.89 141.546C272.964 141.546 268.972 137.553 268.972 132.628C268.972 127.703 272.964 123.71 277.89 123.71C282.815 123.71 286.808 127.703 286.808 132.628Z" stroke="white" stroke-width="4" mask="url(#path-2-inside-1_170_469)"/>
<path d="M278.7 158.57C278.7 163.495 274.708 167.488 269.782 167.488C264.857 167.488 260.865 163.495 260.865 158.57C260.865 153.644 264.857 149.652 269.782 149.652C274.708 149.652 278.7 153.644 278.7 158.57Z" stroke="white" stroke-width="4" mask="url(#path-2-inside-1_170_469)"/>
<path fill-rule="evenodd" clip-rule="evenodd" d="M299.315 140C299.315 163.922 279.922 183.315 256 183.315C232.078 183.315 212.685 163.922 212.685 140C212.685 116.078 232.078 96.6849 256 96.6849C279.922 96.6849 299.315 116.078 299.315 140ZM291.672 132.628C291.672 140.24 285.502 146.411 277.89 146.411C277.263 146.411 276.646 146.369 276.042 146.288C280.507 148.568 283.565 153.212 283.565 158.57C283.565 166.182 277.394 172.352 269.783 172.352C262.171 172.352 256.001 166.182 256.001 158.57C256.001 166.182 249.83 172.352 242.218 172.352C234.606 172.352 228.436 166.182 228.436 158.57C228.436 153.212 231.494 148.568 235.959 146.288C235.355 146.369 234.738 146.411 234.111 146.411C226.499 146.411 220.329 140.24 220.329 132.628C220.329 125.017 226.499 118.846 234.111 118.846C237.887 118.846 241.309 120.365 243.798 122.825C242.789 120.909 242.218 118.727 242.218 116.412C242.218 108.801 248.389 102.63 256.001 102.63C263.612 102.63 269.783 108.801 269.783 116.412C269.783 118.727 269.212 120.909 268.204 122.824C270.693 120.365 274.114 118.846 277.89 118.846C285.502 118.846 291.672 125.017 291.672 132.628Z" stroke="white" stroke-width="4" mask="url(#path-2-inside-1_170_469)"/>
<path d="M243.029 132.628C243.029 137.553 239.036 141.546 234.111 141.546C229.185 141.546 225.193 137.553 225.193 132.628C225.193 127.703 229.185 123.71 234.111 123.71C239.036 123.71 243.029 127.703 243.029 132.628Z" stroke="white" stroke-width="4" mask="url(#path-2-inside-1_170_469)"/>
<path d="M251.136 158.57C251.136 163.495 247.143 167.488 242.218 167.488C237.293 167.488 233.3 163.495 233.3 158.57C233.3 153.644 237.293 149.652 242.218 149.652C247.143 149.652 251.136 153.644 251.136 158.57Z" stroke="white" stroke-width="4" mask="url(#path-2-inside-1_170_469)"/>
<path fill-rule="evenodd" clip-rule="evenodd" d="M197.362 479C162.92 479 135 451.08 135 416.638C135 389.668 152.121 366.697 176.087 358C152.121 349.303 135 326.332 135 299.362C135 264.92 162.92 237 197.362 237C224.332 237 247.303 254.121 256 278.087C264.697 254.121 287.668 237 314.638 237C316.082 237 317.514 237.049 318.933 237.146C304.941 225.778 296 208.433 296 189C296 188.45 296.007 187.901 296.021 187.355C285.222 196.491 271.254 202 256 202C221.758 202 194 174.242 194 140C194 139.45 194.007 138.901 194.021 138.355C183.222 147.491 169.254 153 154 153C119.758 153 92 125.242 92 91C92 56.7583 119.758 29 154 29C188.242 29 216 56.7583 216 91C216 91.5502 215.993 92.0987 215.979 92.6455C226.778 83.5088 240.746 78 256 78C290.242 78 318 105.758 318 140C318 140.55 317.993 141.099 317.979 141.645C328.778 132.509 342.746 127 358 127C392.242 127 420 154.758 420 189C420 223.242 392.242 251 358 251C356.604 251 355.218 250.954 353.844 250.863C367.969 262.296 377 279.774 377 299.362C377 326.332 359.879 349.303 335.913 358C359.879 366.697 377 389.668 377 416.638C377 451.08 349.08 479 314.638 479C287.668 479 264.697 461.879 256 437.913C247.303 461.879 224.332 479 197.362 479ZM197.362 464.865C223.996 464.865 245.588 443.273 245.588 416.638C245.588 390.004 223.996 368.412 197.362 368.412C170.727 368.412 149.135 390.004 149.135 416.638C149.135 443.273 170.727 464.865 197.362 464.865ZM314.638 464.865C341.273 464.865 362.865 443.273 362.865 416.638C362.865 390.004 341.273 368.412 314.638 368.412C288.004 368.412 266.412 390.004 266.412 416.638C266.412 443.273 288.004 464.865 314.638 464.865ZM197.362 347.588C223.996 347.588 245.588 325.996 245.588 299.362C245.588 272.727 223.996 251.135 197.362 251.135C170.727 251.135 149.135 272.727 149.135 299.362C149.135 325.996 170.727 347.588 197.362 347.588ZM314.638 347.588C341.273 347.588 362.865 325.996 362.865 299.362C362.865 272.727 341.273 251.135 314.638 251.135C288.004 251.135 266.412 272.727 266.412 299.362C266.412 325.996 288.004 347.588 314.638 347.588ZM218.636 358C235.963 351.712 249.712 337.963 256 320.636C262.288 337.963 276.037 351.712 293.364 358C276.037 364.288 262.288 378.037 256 395.364C249.712 378.037 235.963 364.288 218.636 358ZM154 138.947C180.48 138.947 201.947 117.48 201.947 91C201.947 64.5198 180.48 43.0533 154 43.0533C127.52 43.0533 106.053 64.5198 106.053 91C106.053 117.48 127.52 138.947 154 138.947ZM358 236.947C384.48 236.947 405.947 215.48 405.947 189C405.947 162.52 384.48 141.053 358 141.053C331.52 141.053 310.053 162.52 310.053 189C310.053 215.48 331.52 236.947 358 236.947ZM256 187.947C282.48 187.947 303.947 166.48 303.947 140C303.947 113.52 282.48 92.0533 256 92.0533C229.52 92.0533 208.053 113.52 208.053 140C208.053 166.48 229.52 187.947 256 187.947Z" stroke="white" stroke-width="4" mask="url(#path-2-inside-1_170_469)"/>
<mask id="path-3-inside-2_170_469" fill="white">
<path d="M207.612 416.638C207.612 422.299 203.022 426.889 197.361 426.889C191.699 426.889 187.109 422.299 187.109 416.638C187.109 410.976 191.699 406.386 197.361 406.386C203.022 406.386 207.612 410.976 207.612 416.638Z"/>
<path d="M206.331 392.912C206.331 397.866 202.315 401.882 197.361 401.882C192.407 401.882 188.391 397.866 188.391 392.912C188.391 387.958 192.407 383.942 197.361 383.942C202.315 383.942 206.331 387.958 206.331 392.912Z"/>
<path d="M228.348 409.223C228.348 414.177 224.332 418.193 219.378 418.193C214.424 418.193 210.408 414.177 210.408 409.223C210.408 404.269 214.424 400.253 219.378 400.253C224.332 400.253 228.348 404.269 228.348 409.223Z"/>
<path d="M220.193 435.315C220.193 440.269 216.177 444.285 211.223 444.285C206.27 444.285 202.254 440.269 202.254 435.315C202.254 430.362 206.27 426.346 211.223 426.346C216.177 426.346 220.193 430.362 220.193 435.315Z"/>
<path fill-rule="evenodd" clip-rule="evenodd" d="M240.928 416.638C240.928 440.699 221.422 460.205 197.361 460.205C173.299 460.205 153.793 440.699 153.793 416.638C153.793 392.576 173.299 373.07 197.361 373.07C221.422 373.07 240.928 392.576 240.928 416.638ZM233.241 409.223C233.241 416.879 227.034 423.085 219.378 423.085C218.748 423.085 218.127 423.043 217.519 422.962C222.011 425.255 225.086 429.926 225.086 435.316C225.086 442.972 218.88 449.178 211.224 449.178C203.568 449.178 197.361 442.972 197.361 435.316C197.361 442.972 191.154 449.178 183.498 449.178C175.842 449.178 169.636 442.972 169.636 435.316C169.636 429.926 172.711 425.255 177.203 422.962C176.595 423.043 175.974 423.085 175.344 423.085C167.688 423.085 161.481 416.879 161.481 409.223C161.481 401.567 167.688 395.36 175.344 395.36C179.142 395.36 182.583 396.888 185.087 399.362C184.073 397.435 183.499 395.241 183.499 392.912C183.499 385.256 189.705 379.05 197.361 379.05C205.017 379.05 211.224 385.256 211.224 392.912C211.224 395.241 210.65 397.435 209.635 399.362C212.139 396.888 215.58 395.36 219.378 395.36C227.034 395.36 233.241 401.567 233.241 409.223Z"/>
<path d="M184.314 409.223C184.314 414.177 180.298 418.193 175.344 418.193C170.39 418.193 166.374 414.177 166.374 409.223C166.374 404.269 170.39 400.253 175.344 400.253C180.298 400.253 184.314 404.269 184.314 409.223Z"/>
<path d="M192.468 435.315C192.468 440.269 188.452 444.285 183.498 444.285C178.544 444.285 174.528 440.269 174.528 435.315C174.528 430.362 178.544 426.346 183.498 426.346C188.452 426.346 192.468 430.362 192.468 435.315Z"/>
<path d="M324.889 416.638C324.889 422.299 320.299 426.889 314.638 426.889C308.976 426.889 304.386 422.299 304.386 416.638C304.386 410.976 308.976 406.386 314.638 406.386C320.299 406.386 324.889 410.976 324.889 416.638Z"/>
<path d="M323.608 392.912C323.608 397.866 319.592 401.882 314.638 401.882C309.684 401.882 305.668 397.866 305.668 392.912C305.668 387.958 309.684 383.942 314.638 383.942C319.592 383.942 323.608 387.958 323.608 392.912Z"/>
<path d="M345.625 409.223C345.625 414.177 341.609 418.193 336.655 418.193C331.701 418.193 327.685 414.177 327.685 409.223C327.685 404.269 331.701 400.253 336.655 400.253C341.609 400.253 345.625 404.269 345.625 409.223Z"/>
<path d="M337.47 435.315C337.47 440.269 333.454 444.285 328.5 444.285C323.546 444.285 319.53 440.269 319.53 435.315C319.53 430.362 323.546 426.346 328.5 426.346C333.454 426.346 337.47 430.362 337.47 435.315Z"/>
<path fill-rule="evenodd" clip-rule="evenodd" d="M358.205 416.638C358.205 440.699 338.699 460.205 314.638 460.205C290.576 460.205 271.07 440.699 271.07 416.638C271.07 392.576 290.576 373.07 314.638 373.07C338.699 373.07 358.205 392.576 358.205 416.638ZM350.518 409.223C350.518 416.879 344.311 423.085 336.655 423.085C336.025 423.085 335.404 423.043 334.796 422.962C339.288 425.255 342.363 429.926 342.363 435.316C342.363 442.972 336.157 449.178 328.501 449.178C320.845 449.178 314.638 442.972 314.638 435.316C314.638 442.972 308.431 449.178 300.775 449.178C293.119 449.178 286.913 442.972 286.913 435.316C286.913 429.926 289.988 425.255 294.48 422.962C293.872 423.043 293.251 423.085 292.621 423.085C284.965 423.085 278.758 416.879 278.758 409.223C278.758 401.567 284.965 395.36 292.621 395.36C296.419 395.36 299.86 396.888 302.364 399.362C301.35 397.435 300.776 395.241 300.776 392.912C300.776 385.256 306.982 379.05 314.638 379.05C322.294 379.05 328.501 385.256 328.501 392.912C328.501 395.241 327.927 397.435 326.912 399.362C329.416 396.888 332.857 395.36 336.655 395.36C344.311 395.36 350.518 401.567 350.518 409.223Z"/>
<path d="M301.59 409.223C301.59 414.177 297.574 418.193 292.621 418.193C287.667 418.193 283.651 414.177 283.651 409.223C283.651 404.269 287.667 400.253 292.621 400.253C297.574 400.253 301.59 404.269 301.59 409.223Z"/>
<path d="M309.745 435.315C309.745 440.269 305.729 444.285 300.775 444.285C295.821 444.285 291.805 440.269 291.805 435.315C291.805 430.362 295.821 426.346 300.775 426.346C305.729 426.346 309.745 430.362 309.745 435.315Z"/>
<path d="M207.612 299.361C207.612 305.022 203.022 309.612 197.361 309.612C191.699 309.612 187.109 305.022 187.109 299.361C187.109 293.699 191.699 289.109 197.361 289.109C203.022 289.109 207.612 293.699 207.612 299.361Z"/>
<path d="M206.331 275.635C206.331 280.589 202.315 284.605 197.361 284.605C192.407 284.605 188.391 280.589 188.391 275.635C188.391 270.681 192.407 266.665 197.361 266.665C202.315 266.665 206.331 270.681 206.331 275.635Z"/>
<path d="M228.348 291.946C228.348 296.9 224.332 300.916 219.378 300.916C214.424 300.916 210.408 296.9 210.408 291.946C210.408 286.992 214.424 282.976 219.378 282.976C224.332 282.976 228.348 286.992 228.348 291.946Z"/>
<path d="M220.193 318.039C220.193 322.992 216.177 327.008 211.223 327.008C206.27 327.008 202.254 322.992 202.254 318.039C202.254 313.085 206.27 309.069 211.223 309.069C216.177 309.069 220.193 313.085 220.193 318.039Z"/>
<path fill-rule="evenodd" clip-rule="evenodd" d="M240.928 299.361C240.928 323.422 221.422 342.928 197.361 342.928C173.299 342.928 153.793 323.422 153.793 299.361C153.793 275.299 173.299 255.793 197.361 255.793C221.422 255.793 240.928 275.299 240.928 299.361ZM233.241 291.946C233.241 299.602 227.034 305.809 219.378 305.809C218.748 305.809 218.127 305.766 217.519 305.685C222.011 307.979 225.086 312.65 225.086 318.039C225.086 325.695 218.88 331.901 211.224 331.901C203.568 331.901 197.361 325.695 197.361 318.039C197.361 325.695 191.154 331.901 183.498 331.901C175.842 331.901 169.636 325.695 169.636 318.039C169.636 312.65 172.711 307.979 177.203 305.685C176.595 305.766 175.974 305.809 175.344 305.809C167.688 305.809 161.481 299.602 161.481 291.946C161.481 284.29 167.688 278.083 175.344 278.083C179.142 278.083 182.583 279.611 185.087 282.085C184.073 280.159 183.499 277.964 183.499 275.635C183.499 267.979 189.705 261.773 197.361 261.773C205.017 261.773 211.224 267.979 211.224 275.635C211.224 277.964 210.65 280.158 209.635 282.085C212.139 279.611 215.58 278.083 219.378 278.083C227.034 278.083 233.241 284.29 233.241 291.946Z"/>
<path d="M184.314 291.946C184.314 296.9 180.298 300.916 175.344 300.916C170.39 300.916 166.374 296.9 166.374 291.946C166.374 286.992 170.39 282.976 175.344 282.976C180.298 282.976 184.314 286.992 184.314 291.946Z"/>
<path d="M192.468 318.039C192.468 322.992 188.452 327.008 183.498 327.008C178.544 327.008 174.528 322.992 174.528 318.039C174.528 313.085 178.544 309.069 183.498 309.069C188.452 309.069 192.468 313.085 192.468 318.039Z"/>
<path d="M324.889 299.361C324.889 305.022 320.299 309.612 314.638 309.612C308.976 309.612 304.386 305.022 304.386 299.361C304.386 293.699 308.976 289.109 314.638 289.109C320.299 289.109 324.889 293.699 324.889 299.361Z"/>
<path d="M323.608 275.635C323.608 280.589 319.592 284.605 314.638 284.605C309.684 284.605 305.668 280.589 305.668 275.635C305.668 270.681 309.684 266.665 314.638 266.665C319.592 266.665 323.608 270.681 323.608 275.635Z"/>
<path d="M345.625 291.946C345.625 296.9 341.609 300.916 336.655 300.916C331.701 300.916 327.685 296.9 327.685 291.946C327.685 286.992 331.701 282.976 336.655 282.976C341.609 282.976 345.625 286.992 345.625 291.946Z"/>
<path d="M337.47 318.039C337.47 322.992 333.454 327.008 328.5 327.008C323.546 327.008 319.53 322.992 319.53 318.039C319.53 313.085 323.546 309.069 328.5 309.069C333.454 309.069 337.47 313.085 337.47 318.039Z"/>
<path fill-rule="evenodd" clip-rule="evenodd" d="M358.205 299.361C358.205 323.422 338.699 342.928 314.638 342.928C290.576 342.928 271.07 323.422 271.07 299.361C271.07 275.299 290.576 255.793 314.638 255.793C338.699 255.793 358.205 275.299 358.205 299.361ZM350.518 291.946C350.518 299.602 344.311 305.809 336.655 305.809C336.025 305.809 335.404 305.766 334.796 305.685C339.288 307.979 342.363 312.65 342.363 318.039C342.363 325.695 336.157 331.901 328.501 331.901C320.845 331.901 314.638 325.695 314.638 318.039C314.638 325.695 308.431 331.901 300.775 331.901C293.119 331.901 286.913 325.695 286.913 318.039C286.913 312.65 289.988 307.979 294.48 305.685C293.872 305.766 293.251 305.809 292.621 305.809C284.965 305.809 278.758 299.602 278.758 291.946C278.758 284.29 284.965 278.083 292.621 278.083C296.419 278.083 299.86 279.611 302.364 282.085C301.35 280.159 300.776 277.964 300.776 275.635C300.776 267.979 306.982 261.773 314.638 261.773C322.294 261.773 328.501 267.979 328.501 275.635C328.501 277.964 327.927 280.158 326.912 282.085C329.416 279.611 332.857 278.083 336.655 278.083C344.311 278.083 350.518 284.29 350.518 291.946Z"/>
<path d="M301.59 291.946C301.59 296.9 297.574 300.916 292.621 300.916C287.667 300.916 283.651 296.9 283.651 291.946C283.651 286.992 287.667 282.976 292.621 282.976C297.574 282.976 301.59 286.992 301.59 291.946Z"/>
<path d="M309.745 318.039C309.745 322.992 305.729 327.008 300.775 327.008C295.821 327.008 291.805 322.992 291.805 318.039C291.805 313.085 295.821 309.069 300.775 309.069C305.729 309.069 309.745 313.085 309.745 318.039Z"/>
</mask>
<path d="M207.612 416.638C207.612 422.299 203.022 426.889 197.361 426.889C191.699 426.889 187.109 422.299 187.109 416.638C187.109 410.976 191.699 406.386 197.361 406.386C203.022 406.386 207.612 410.976 207.612 416.638Z" fill="#969696"/>
<path d="M206.331 392.912C206.331 397.866 202.315 401.882 197.361 401.882C192.407 401.882 188.391 397.866 188.391 392.912C188.391 387.958 192.407 383.942 197.361 383.942C202.315 383.942 206.331 387.958 206.331 392.912Z" fill="#969696"/>
<path d="M228.348 409.223C228.348 414.177 224.332 418.193 219.378 418.193C214.424 418.193 210.408 414.177 210.408 409.223C210.408 404.269 214.424 400.253 219.378 400.253C224.332 400.253 228.348 404.269 228.348 409.223Z" fill="#969696"/>
<path d="M220.193 435.315C220.193 440.269 216.177 444.285 211.223 444.285C206.27 444.285 202.254 440.269 202.254 435.315C202.254 430.362 206.27 426.346 211.223 426.346C216.177 426.346 220.193 430.362 220.193 435.315Z" fill="#969696"/>
<path fill-rule="evenodd" clip-rule="evenodd" d="M240.928 416.638C240.928 440.699 221.422 460.205 197.361 460.205C173.299 460.205 153.793 440.699 153.793 416.638C153.793 392.576 173.299 373.07 197.361 373.07C221.422 373.07 240.928 392.576 240.928 416.638ZM233.241 409.223C233.241 416.879 227.034 423.085 219.378 423.085C218.748 423.085 218.127 423.043 217.519 422.962C222.011 425.255 225.086 429.926 225.086 435.316C225.086 442.972 218.88 449.178 211.224 449.178C203.568 449.178 197.361 442.972 197.361 435.316C197.361 442.972 191.154 449.178 183.498 449.178C175.842 449.178 169.636 442.972 169.636 435.316C169.636 429.926 172.711 425.255 177.203 422.962C176.595 423.043 175.974 423.085 175.344 423.085C167.688 423.085 161.481 416.879 161.481 409.223C161.481 401.567 167.688 395.36 175.344 395.36C179.142 395.36 182.583 396.888 185.087 399.362C184.073 397.435 183.499 395.241 183.499 392.912C183.499 385.256 189.705 379.05 197.361 379.05C205.017 379.05 211.224 385.256 211.224 392.912C211.224 395.241 210.65 397.435 209.635 399.362C212.139 396.888 215.58 395.36 219.378 395.36C227.034 395.36 233.241 401.567 233.241 409.223Z" fill="#969696"/>
<path d="M184.314 409.223C184.314 414.177 180.298 418.193 175.344 418.193C170.39 418.193 166.374 414.177 166.374 409.223C166.374 404.269 170.39 400.253 175.344 400.253C180.298 400.253 184.314 404.269 184.314 409.223Z" fill="#969696"/>
<path d="M192.468 435.315C192.468 440.269 188.452 444.285 183.498 444.285C178.544 444.285 174.528 440.269 174.528 435.315C174.528 430.362 178.544 426.346 183.498 426.346C188.452 426.346 192.468 430.362 192.468 435.315Z" fill="#969696"/>
<path d="M324.889 416.638C324.889 422.299 320.299 426.889 314.638 426.889C308.976 426.889 304.386 422.299 304.386 416.638C304.386 410.976 308.976 406.386 314.638 406.386C320.299 406.386 324.889 410.976 324.889 416.638Z" fill="#969696"/>
<path d="M323.608 392.912C323.608 397.866 319.592 401.882 314.638 401.882C309.684 401.882 305.668 397.866 305.668 392.912C305.668 387.958 309.684 383.942 314.638 383.942C319.592 383.942 323.608 387.958 323.608 392.912Z" fill="#969696"/>
<path d="M345.625 409.223C345.625 414.177 341.609 418.193 336.655 418.193C331.701 418.193 327.685 414.177 327.685 409.223C327.685 404.269 331.701 400.253 336.655 400.253C341.609 400.253 345.625 404.269 345.625 409.223Z" fill="#969696"/>
<path d="M337.47 435.315C337.47 440.269 333.454 444.285 328.5 444.285C323.546 444.285 319.53 440.269 319.53 435.315C319.53 430.362 323.546 426.346 328.5 426.346C333.454 426.346 337.47 430.362 337.47 435.315Z" fill="#969696"/>
<path fill-rule="evenodd" clip-rule="evenodd" d="M358.205 416.638C358.205 440.699 338.699 460.205 314.638 460.205C290.576 460.205 271.07 440.699 271.07 416.638C271.07 392.576 290.576 373.07 314.638 373.07C338.699 373.07 358.205 392.576 358.205 416.638ZM350.518 409.223C350.518 416.879 344.311 423.085 336.655 423.085C336.025 423.085 335.404 423.043 334.796 422.962C339.288 425.255 342.363 429.926 342.363 435.316C342.363 442.972 336.157 449.178 328.501 449.178C320.845 449.178 314.638 442.972 314.638 435.316C314.638 442.972 308.431 449.178 300.775 449.178C293.119 449.178 286.913 442.972 286.913 435.316C286.913 429.926 289.988 425.255 294.48 422.962C293.872 423.043 293.251 423.085 292.621 423.085C284.965 423.085 278.758 416.879 278.758 409.223C278.758 401.567 284.965 395.36 292.621 395.36C296.419 395.36 299.86 396.888 302.364 399.362C301.35 397.435 300.776 395.241 300.776 392.912C300.776 385.256 306.982 379.05 314.638 379.05C322.294 379.05 328.501 385.256 328.501 392.912C328.501 395.241 327.927 397.435 326.912 399.362C329.416 396.888 332.857 395.36 336.655 395.36C344.311 395.36 350.518 401.567 350.518 409.223Z" fill="#969696"/>
<path d="M301.59 409.223C301.59 414.177 297.574 418.193 292.621 418.193C287.667 418.193 283.651 414.177 283.651 409.223C283.651 404.269 287.667 400.253 292.621 400.253C297.574 400.253 301.59 404.269 301.59 409.223Z" fill="#969696"/>
<path d="M309.745 435.315C309.745 440.269 305.729 444.285 300.775 444.285C295.821 444.285 291.805 440.269 291.805 435.315C291.805 430.362 295.821 426.346 300.775 426.346C305.729 426.346 309.745 430.362 309.745 435.315Z" fill="#969696"/>
<path d="M207.612 299.361C207.612 305.022 203.022 309.612 197.361 309.612C191.699 309.612 187.109 305.022 187.109 299.361C187.109 293.699 191.699 289.109 197.361 289.109C203.022 289.109 207.612 293.699 207.612 299.361Z" fill="#969696"/>
<path d="M206.331 275.635C206.331 280.589 202.315 284.605 197.361 284.605C192.407 284.605 188.391 280.589 188.391 275.635C188.391 270.681 192.407 266.665 197.361 266.665C202.315 266.665 206.331 270.681 206.331 275.635Z" fill="#969696"/>
<path d="M228.348 291.946C228.348 296.9 224.332 300.916 219.378 300.916C214.424 300.916 210.408 296.9 210.408 291.946C210.408 286.992 214.424 282.976 219.378 282.976C224.332 282.976 228.348 286.992 228.348 291.946Z" fill="#969696"/>
<path d="M220.193 318.039C220.193 322.992 216.177 327.008 211.223 327.008C206.27 327.008 202.254 322.992 202.254 318.039C202.254 313.085 206.27 309.069 211.223 309.069C216.177 309.069 220.193 313.085 220.193 318.039Z" fill="#969696"/>
<path fill-rule="evenodd" clip-rule="evenodd" d="M240.928 299.361C240.928 323.422 221.422 342.928 197.361 342.928C173.299 342.928 153.793 323.422 153.793 299.361C153.793 275.299 173.299 255.793 197.361 255.793C221.422 255.793 240.928 275.299 240.928 299.361ZM233.241 291.946C233.241 299.602 227.034 305.809 219.378 305.809C218.748 305.809 218.127 305.766 217.519 305.685C222.011 307.979 225.086 312.65 225.086 318.039C225.086 325.695 218.88 331.901 211.224 331.901C203.568 331.901 197.361 325.695 197.361 318.039C197.361 325.695 191.154 331.901 183.498 331.901C175.842 331.901 169.636 325.695 169.636 318.039C169.636 312.65 172.711 307.979 177.203 305.685C176.595 305.766 175.974 305.809 175.344 305.809C167.688 305.809 161.481 299.602 161.481 291.946C161.481 284.29 167.688 278.083 175.344 278.083C179.142 278.083 182.583 279.611 185.087 282.085C184.073 280.159 183.499 277.964 183.499 275.635C183.499 267.979 189.705 261.773 197.361 261.773C205.017 261.773 211.224 267.979 211.224 275.635C211.224 277.964 210.65 280.158 209.635 282.085C212.139 279.611 215.58 278.083 219.378 278.083C227.034 278.083 233.241 284.29 233.241 291.946Z" fill="#969696"/>
<path d="M184.314 291.946C184.314 296.9 180.298 300.916 175.344 300.916C170.39 300.916 166.374 296.9 166.374 291.946C166.374 286.992 170.39 282.976 175.344 282.976C180.298 282.976 184.314 286.992 184.314 291.946Z" fill="#969696"/>
<path d="M192.468 318.039C192.468 322.992 188.452 327.008 183.498 327.008C178.544 327.008 174.528 322.992 174.528 318.039C174.528 313.085 178.544 309.069 183.498 309.069C188.452 309.069 192.468 313.085 192.468 318.039Z" fill="#969696"/>
<path d="M324.889 299.361C324.889 305.022 320.299 309.612 314.638 309.612C308.976 309.612 304.386 305.022 304.386 299.361C304.386 293.699 308.976 289.109 314.638 289.109C320.299 289.109 324.889 293.699 324.889 299.361Z" fill="#969696"/>
<path d="M323.608 275.635C323.608 280.589 319.592 284.605 314.638 284.605C309.684 284.605 305.668 280.589 305.668 275.635C305.668 270.681 309.684 266.665 314.638 266.665C319.592 266.665 323.608 270.681 323.608 275.635Z" fill="#969696"/>
<path d="M345.625 291.946C345.625 296.9 341.609 300.916 336.655 300.916C331.701 300.916 327.685 296.9 327.685 291.946C327.685 286.992 331.701 282.976 336.655 282.976C341.609 282.976 345.625 286.992 345.625 291.946Z" fill="#969696"/>
<path d="M337.47 318.039C337.47 322.992 333.454 327.008 328.5 327.008C323.546 327.008 319.53 322.992 319.53 318.039C319.53 313.085 323.546 309.069 328.5 309.069C333.454 309.069 337.47 313.085 337.47 318.039Z" fill="#969696"/>
<path fill-rule="evenodd" clip-rule="evenodd" d="M358.205 299.361C358.205 323.422 338.699 342.928 314.638 342.928C290.576 342.928 271.07 323.422 271.07 299.361C271.07 275.299 290.576 255.793 314.638 255.793C338.699 255.793 358.205 275.299 358.205 299.361ZM350.518 291.946C350.518 299.602 344.311 305.809 336.655 305.809C336.025 305.809 335.404 305.766 334.796 305.685C339.288 307.979 342.363 312.65 342.363 318.039C342.363 325.695 336.157 331.901 328.501 331.901C320.845 331.901 314.638 325.695 314.638 318.039C314.638 325.695 308.431 331.901 300.775 331.901C293.119 331.901 286.913 325.695 286.913 318.039C286.913 312.65 289.988 307.979 294.48 305.685C293.872 305.766 293.251 305.809 292.621 305.809C284.965 305.809 278.758 299.602 278.758 291.946C278.758 284.29 284.965 278.083 292.621 278.083C296.419 278.083 299.86 279.611 302.364 282.085C301.35 280.159 300.776 277.964 300.776 275.635C300.776 267.979 306.982 261.773 314.638 261.773C322.294 261.773 328.501 267.979 328.501 275.635C328.501 277.964 327.927 280.158 326.912 282.085C329.416 279.611 332.857 278.083 336.655 278.083C344.311 278.083 350.518 284.29 350.518 291.946Z" fill="#969696"/>
<path d="M301.59 291.946C301.59 296.9 297.574 300.916 292.621 300.916C287.667 300.916 283.651 296.9 283.651 291.946C283.651 286.992 287.667 282.976 292.621 282.976C297.574 282.976 301.59 286.992 301.59 291.946Z" fill="#969696"/>
<path d="M309.745 318.039C309.745 322.992 305.729 327.008 300.775 327.008C295.821 327.008 291.805 322.992 291.805 318.039C291.805 313.085 295.821 309.069 300.775 309.069C305.729 309.069 309.745 313.085 309.745 318.039Z" fill="#969696"/>
<path d="M177.203 422.962L178.112 424.743L176.937 420.98L177.203 422.962ZM185.087 399.362L183.682 400.785L186.857 398.43L185.087 399.362ZM209.635 399.362L207.866 398.43L211.041 400.784L209.635 399.362ZM217.519 422.962L217.785 420.98L216.61 424.743L217.519 422.962ZM294.48 422.962L295.389 424.743L294.214 420.98L294.48 422.962ZM302.364 399.362L300.958 400.785L304.134 398.43L302.364 399.362ZM326.912 399.362L325.143 398.43L328.318 400.784L326.912 399.362ZM334.796 422.962L335.062 420.98L333.887 424.743L334.796 422.962ZM177.203 305.685L178.112 307.466L176.937 303.703L177.203 305.685ZM185.087 282.085L183.682 283.508L186.857 281.153L185.087 282.085ZM209.635 282.085L207.866 281.153L211.041 283.507L209.635 282.085ZM217.519 305.685L217.785 303.703L216.61 307.466L217.519 305.685ZM294.48 305.685L295.389 307.466L294.214 303.703L294.48 305.685ZM302.364 282.085L300.958 283.508L304.134 281.153L302.364 282.085ZM326.912 282.085L325.143 281.153L328.318 283.507L326.912 282.085ZM334.796 305.685L335.062 303.703L333.887 307.466L334.796 305.685ZM238.928 416.638C238.928 439.595 220.318 458.205 197.361 458.205V462.205C222.527 462.205 242.928 441.804 242.928 416.638H238.928ZM197.361 458.205C174.403 458.205 155.793 439.595 155.793 416.638H151.793C151.793 441.804 172.194 462.205 197.361 462.205V458.205ZM155.793 416.638C155.793 393.68 174.403 375.07 197.361 375.07V371.07C172.194 371.07 151.793 391.471 151.793 416.638H155.793ZM197.361 375.07C220.318 375.07 238.928 393.68 238.928 416.638H242.928C242.928 391.471 222.527 371.07 197.361 371.07V375.07ZM205.612 416.638C205.612 421.195 201.918 424.889 197.361 424.889V428.889C204.127 428.889 209.612 423.404 209.612 416.638H205.612ZM197.361 424.889C192.804 424.889 189.109 421.195 189.109 416.638H185.109C185.109 423.404 190.594 428.889 197.361 428.889V424.889ZM189.109 416.638C189.109 412.081 192.804 408.386 197.361 408.386V404.386C190.594 404.386 185.109 409.871 185.109 416.638H189.109ZM197.361 408.386C201.918 408.386 205.612 412.081 205.612 416.638H209.612C209.612 409.871 204.127 404.386 197.361 404.386V408.386ZM231.241 409.223C231.241 415.774 225.93 421.085 219.378 421.085V425.085C228.139 425.085 235.241 417.984 235.241 409.223H231.241ZM219.378 397.36C225.93 397.36 231.241 402.671 231.241 409.223H235.241C235.241 400.462 228.139 393.36 219.378 393.36V397.36ZM226.348 409.223C226.348 413.072 223.227 416.193 219.378 416.193V420.193C225.436 420.193 230.348 415.281 230.348 409.223H226.348ZM219.378 416.193C215.529 416.193 212.408 413.072 212.408 409.223H208.408C208.408 415.281 213.319 420.193 219.378 420.193V416.193ZM212.408 409.223C212.408 405.373 215.529 402.253 219.378 402.253V398.253C213.319 398.253 208.408 403.164 208.408 409.223H212.408ZM219.378 402.253C223.227 402.253 226.348 405.373 226.348 409.223H230.348C230.348 403.164 225.436 398.253 219.378 398.253V402.253ZM175.344 421.085C168.792 421.085 163.481 415.774 163.481 409.223H159.481C159.481 417.984 166.583 425.085 175.344 425.085V421.085ZM163.481 409.223C163.481 402.671 168.792 397.36 175.344 397.36V393.36C166.583 393.36 159.481 400.462 159.481 409.223H163.481ZM182.314 409.223C182.314 413.072 179.193 416.193 175.344 416.193V420.193C181.402 420.193 186.314 415.281 186.314 409.223H182.314ZM175.344 416.193C171.494 416.193 168.374 413.072 168.374 409.223H164.374C164.374 415.281 169.285 420.193 175.344 420.193V416.193ZM168.374 409.223C168.374 405.373 171.494 402.253 175.344 402.253V398.253C169.285 398.253 164.374 403.164 164.374 409.223H168.374ZM175.344 402.253C179.193 402.253 182.314 405.373 182.314 409.223H186.314C186.314 403.164 181.402 398.253 175.344 398.253V402.253ZM223.086 435.316C223.086 441.867 217.775 447.178 211.224 447.178V451.178C219.984 451.178 227.086 444.076 227.086 435.316H223.086ZM211.224 447.178C204.672 447.178 199.361 441.867 199.361 435.316H195.361C195.361 444.076 202.463 451.178 211.224 451.178V447.178ZM218.193 435.315C218.193 439.165 215.073 442.285 211.223 442.285V446.285C217.282 446.285 222.193 441.374 222.193 435.315H218.193ZM211.223 442.285C207.374 442.285 204.254 439.165 204.254 435.315H200.254C200.254 441.374 205.165 446.285 211.223 446.285V442.285ZM204.254 435.315C204.254 431.466 207.374 428.346 211.223 428.346V424.346C205.165 424.346 200.254 429.257 200.254 435.315H204.254ZM211.223 428.346C215.073 428.346 218.193 431.466 218.193 435.315H222.193C222.193 429.257 217.282 424.346 211.223 424.346V428.346ZM195.361 435.316C195.361 441.867 190.05 447.178 183.498 447.178V451.178C192.259 451.178 199.361 444.076 199.361 435.316H195.361ZM183.498 447.178C176.947 447.178 171.636 441.867 171.636 435.316H167.636C167.636 444.076 174.738 451.178 183.498 451.178V447.178ZM190.468 435.315C190.468 439.165 187.347 442.285 183.498 442.285V446.285C189.557 446.285 194.468 441.374 194.468 435.315H190.468ZM183.498 442.285C179.649 442.285 176.528 439.165 176.528 435.315H172.528C172.528 441.374 177.44 446.285 183.498 446.285V442.285ZM176.528 435.315C176.528 431.466 179.649 428.346 183.498 428.346V424.346C177.44 424.346 172.528 429.257 172.528 435.315H176.528ZM183.498 428.346C187.347 428.346 190.468 431.466 190.468 435.315H194.468C194.468 429.257 189.557 424.346 183.498 424.346V428.346ZM185.499 392.912C185.499 386.361 190.81 381.05 197.361 381.05V377.05C188.601 377.05 181.499 384.152 181.499 392.912H185.499ZM197.361 381.05C203.913 381.05 209.224 386.361 209.224 392.912H213.224C213.224 384.152 206.122 377.05 197.361 377.05V381.05ZM204.331 392.912C204.331 396.761 201.21 399.882 197.361 399.882V403.882C203.419 403.882 208.331 398.971 208.331 392.912H204.331ZM197.361 399.882C193.511 399.882 190.391 396.761 190.391 392.912H186.391C186.391 398.971 191.302 403.882 197.361 403.882V399.882ZM190.391 392.912C190.391 389.063 193.511 385.942 197.361 385.942V381.942C191.302 381.942 186.391 386.854 186.391 392.912H190.391ZM197.361 385.942C201.21 385.942 204.331 389.063 204.331 392.912H208.331C208.331 386.854 203.419 381.942 197.361 381.942V385.942ZM171.636 435.316C171.636 430.707 174.264 426.708 178.112 424.743L176.293 421.181C171.159 423.803 167.636 429.146 167.636 435.316H171.636ZM176.937 420.98C176.417 421.049 175.885 421.085 175.344 421.085V425.085C176.063 425.085 176.773 425.037 177.468 424.944L176.937 420.98ZM186.857 398.43C185.99 396.784 185.499 394.909 185.499 392.912H181.499C181.499 395.573 182.156 398.087 183.318 400.294L186.857 398.43ZM175.344 397.36C178.595 397.36 181.537 398.665 183.682 400.785L186.493 397.939C183.63 395.11 179.689 393.36 175.344 393.36V397.36ZM209.224 392.912C209.224 394.908 208.732 396.784 207.866 398.43L211.405 400.293C212.567 398.086 213.224 395.573 213.224 392.912H209.224ZM211.041 400.784C213.186 398.665 216.128 397.36 219.378 397.36V393.36C215.033 393.36 211.093 395.11 208.23 397.939L211.041 400.784ZM216.61 424.743C220.458 426.708 223.086 430.707 223.086 435.316H227.086C227.086 429.146 223.564 423.803 218.429 421.181L216.61 424.743ZM219.378 421.085C218.837 421.085 218.305 421.049 217.785 420.98L217.254 424.944C217.95 425.037 218.659 425.085 219.378 425.085V421.085ZM356.205 416.638C356.205 439.595 337.595 458.205 314.638 458.205V462.205C339.804 462.205 360.205 441.804 360.205 416.638H356.205ZM314.638 458.205C291.68 458.205 273.07 439.595 273.07 416.638H269.07C269.07 441.804 289.471 462.205 314.638 462.205V458.205ZM273.07 416.638C273.07 393.68 291.68 375.07 314.638 375.07V371.07C289.471 371.07 269.07 391.471 269.07 416.638H273.07ZM314.638 375.07C337.595 375.07 356.205 393.68 356.205 416.638H360.205C360.205 391.471 339.804 371.07 314.638 371.07V375.07ZM322.889 416.638C322.889 421.195 319.195 424.889 314.638 424.889V428.889C321.404 428.889 326.889 423.404 326.889 416.638H322.889ZM314.638 424.889C310.081 424.889 306.386 421.195 306.386 416.638H302.386C302.386 423.404 307.871 428.889 314.638 428.889V424.889ZM306.386 416.638C306.386 412.081 310.081 408.386 314.638 408.386V404.386C307.871 404.386 302.386 409.871 302.386 416.638H306.386ZM314.638 408.386C319.195 408.386 322.889 412.081 322.889 416.638H326.889C326.889 409.871 321.404 404.386 314.638 404.386V408.386ZM348.518 409.223C348.518 415.774 343.207 421.085 336.655 421.085V425.085C345.416 425.085 352.518 417.984 352.518 409.223H348.518ZM336.655 397.36C343.207 397.36 348.518 402.671 348.518 409.223H352.518C352.518 400.462 345.416 393.36 336.655 393.36V397.36ZM343.625 409.223C343.625 413.072 340.504 416.193 336.655 416.193V420.193C342.713 420.193 347.625 415.281 347.625 409.223H343.625ZM336.655 416.193C332.806 416.193 329.685 413.072 329.685 409.223H325.685C325.685 415.281 330.596 420.193 336.655 420.193V416.193ZM329.685 409.223C329.685 405.373 332.806 402.253 336.655 402.253V398.253C330.596 398.253 325.685 403.164 325.685 409.223H329.685ZM336.655 402.253C340.504 402.253 343.625 405.373 343.625 409.223H347.625C347.625 403.164 342.713 398.253 336.655 398.253V402.253ZM292.621 421.085C286.069 421.085 280.758 415.774 280.758 409.223H276.758C276.758 417.984 283.86 425.085 292.621 425.085V421.085ZM280.758 409.223C280.758 402.671 286.069 397.36 292.621 397.36V393.36C283.86 393.36 276.758 400.462 276.758 409.223H280.758ZM299.59 409.223C299.59 413.072 296.47 416.193 292.621 416.193V420.193C298.679 420.193 303.59 415.281 303.59 409.223H299.59ZM292.621 416.193C288.771 416.193 285.651 413.072 285.651 409.223H281.651C281.651 415.281 286.562 420.193 292.621 420.193V416.193ZM285.651 409.223C285.651 405.373 288.771 402.253 292.621 402.253V398.253C286.562 398.253 281.651 403.164 281.651 409.223H285.651ZM292.621 402.253C296.47 402.253 299.59 405.373 299.59 409.223H303.59C303.59 403.164 298.679 398.253 292.621 398.253V402.253ZM340.363 435.316C340.363 441.867 335.052 447.178 328.501 447.178V451.178C337.261 451.178 344.363 444.076 344.363 435.316H340.363ZM328.501 447.178C321.949 447.178 316.638 441.867 316.638 435.316H312.638C312.638 444.076 319.74 451.178 328.501 451.178V447.178ZM335.47 435.315C335.47 439.165 332.35 442.285 328.5 442.285V446.285C334.559 446.285 339.47 441.374 339.47 435.315H335.47ZM328.5 442.285C324.651 442.285 321.53 439.165 321.53 435.315H317.53C317.53 441.374 322.442 446.285 328.5 446.285V442.285ZM321.53 435.315C321.53 431.466 324.651 428.346 328.5 428.346V424.346C322.442 424.346 317.53 429.257 317.53 435.315H321.53ZM328.5 428.346C332.35 428.346 335.47 431.466 335.47 435.315H339.47C339.47 429.257 334.559 424.346 328.5 424.346V428.346ZM312.638 435.316C312.638 441.867 307.327 447.178 300.775 447.178V451.178C309.536 451.178 316.638 444.076 316.638 435.316H312.638ZM300.775 447.178C294.224 447.178 288.913 441.867 288.913 435.316H284.913C284.913 444.076 292.015 451.178 300.775 451.178V447.178ZM307.745 435.315C307.745 439.165 304.624 442.285 300.775 442.285V446.285C306.834 446.285 311.745 441.374 311.745 435.315H307.745ZM300.775 442.285C296.926 442.285 293.805 439.165 293.805 435.315H289.805C289.805 441.374 294.717 446.285 300.775 446.285V442.285ZM293.805 435.315C293.805 431.466 296.926 428.346 300.775 428.346V424.346C294.717 424.346 289.805 429.257 289.805 435.315H293.805ZM300.775 428.346C304.624 428.346 307.745 431.466 307.745 435.315H311.745C311.745 429.257 306.834 424.346 300.775 424.346V428.346ZM302.776 392.912C302.776 386.361 308.087 381.05 314.638 381.05V377.05C305.877 377.05 298.776 384.152 298.776 392.912H302.776ZM314.638 381.05C321.19 381.05 326.501 386.361 326.501 392.912H330.501C330.501 384.152 323.399 377.05 314.638 377.05V381.05ZM321.608 392.912C321.608 396.761 318.487 399.882 314.638 399.882V403.882C320.696 403.882 325.608 398.971 325.608 392.912H321.608ZM314.638 399.882C310.788 399.882 307.668 396.761 307.668 392.912H303.668C303.668 398.971 308.579 403.882 314.638 403.882V399.882ZM307.668 392.912C307.668 389.063 310.788 385.942 314.638 385.942V381.942C308.579 381.942 303.668 386.854 303.668 392.912H307.668ZM314.638 385.942C318.487 385.942 321.608 389.063 321.608 392.912H325.608C325.608 386.854 320.696 381.942 314.638 381.942V385.942ZM288.913 435.316C288.913 430.707 291.541 426.708 295.389 424.743L293.57 421.181C288.436 423.803 284.913 429.146 284.913 435.316H288.913ZM294.214 420.98C293.694 421.049 293.162 421.085 292.621 421.085V425.085C293.34 425.085 294.049 425.037 294.745 424.944L294.214 420.98ZM304.134 398.43C303.267 396.784 302.776 394.909 302.776 392.912H298.776C298.776 395.573 299.432 398.087 300.595 400.294L304.134 398.43ZM292.621 397.36C295.872 397.36 298.814 398.665 300.958 400.785L303.77 397.939C300.907 395.11 296.966 393.36 292.621 393.36V397.36ZM326.501 392.912C326.501 394.908 326.009 396.784 325.143 398.43L328.682 400.293C329.844 398.086 330.501 395.573 330.501 392.912H326.501ZM328.318 400.784C330.463 398.665 333.405 397.36 336.655 397.36V393.36C332.31 393.36 328.37 395.11 325.507 397.939L328.318 400.784ZM333.887 424.743C337.735 426.708 340.363 430.707 340.363 435.316H344.363C344.363 429.146 340.84 423.803 335.706 421.181L333.887 424.743ZM336.655 421.085C336.114 421.085 335.582 421.049 335.062 420.98L334.531 424.944C335.226 425.037 335.936 425.085 336.655 425.085V421.085ZM238.928 299.361C238.928 322.318 220.318 340.928 197.361 340.928V344.928C222.527 344.928 242.928 324.527 242.928 299.361H238.928ZM197.361 340.928C174.403 340.928 155.793 322.318 155.793 299.361H151.793C151.793 324.527 172.194 344.928 197.361 344.928V340.928ZM155.793 299.361C155.793 276.403 174.403 257.793 197.361 257.793V253.793C172.194 253.793 151.793 274.194 151.793 299.361H155.793ZM197.361 257.793C220.318 257.793 238.928 276.403 238.928 299.361H242.928C242.928 274.194 222.527 253.793 197.361 253.793V257.793ZM205.612 299.361C205.612 303.918 201.918 307.612 197.361 307.612V311.612C204.127 311.612 209.612 306.127 209.612 299.361H205.612ZM197.361 307.612C192.804 307.612 189.109 303.918 189.109 299.361H185.109C185.109 306.127 190.594 311.612 197.361 311.612V307.612ZM189.109 299.361C189.109 294.804 192.804 291.109 197.361 291.109V287.109C190.594 287.109 185.109 292.594 185.109 299.361H189.109ZM197.361 291.109C201.918 291.109 205.612 294.804 205.612 299.361H209.612C209.612 292.594 204.127 287.109 197.361 287.109V291.109ZM231.241 291.946C231.241 298.498 225.93 303.809 219.378 303.809V307.809C228.139 307.809 235.241 300.707 235.241 291.946H231.241ZM219.378 280.083C225.93 280.083 231.241 285.395 231.241 291.946H235.241C235.241 283.185 228.139 276.083 219.378 276.083V280.083ZM226.348 291.946C226.348 295.795 223.227 298.916 219.378 298.916V302.916C225.436 302.916 230.348 298.004 230.348 291.946H226.348ZM219.378 298.916C215.529 298.916 212.408 295.795 212.408 291.946H208.408C208.408 298.004 213.319 302.916 219.378 302.916V298.916ZM212.408 291.946C212.408 288.096 215.529 284.976 219.378 284.976V280.976C213.319 280.976 208.408 285.887 208.408 291.946H212.408ZM219.378 284.976C223.227 284.976 226.348 288.096 226.348 291.946H230.348C230.348 285.887 225.436 280.976 219.378 280.976V284.976ZM175.344 303.809C168.792 303.809 163.481 298.498 163.481 291.946H159.481C159.481 300.707 166.583 307.809 175.344 307.809V303.809ZM163.481 291.946C163.481 285.395 168.792 280.083 175.344 280.083V276.083C166.583 276.083 159.481 283.185 159.481 291.946H163.481ZM182.314 291.946C182.314 295.795 179.193 298.916 175.344 298.916V302.916C181.402 302.916 186.314 298.004 186.314 291.946H182.314ZM175.344 298.916C171.494 298.916 168.374 295.795 168.374 291.946H164.374C164.374 298.004 169.285 302.916 175.344 302.916V298.916ZM168.374 291.946C168.374 288.096 171.494 284.976 175.344 284.976V280.976C169.285 280.976 164.374 285.887 164.374 291.946H168.374ZM175.344 284.976C179.193 284.976 182.314 288.096 182.314 291.946H186.314C186.314 285.887 181.402 280.976 175.344 280.976V284.976ZM223.086 318.039C223.086 324.59 217.775 329.901 211.224 329.901V333.901C219.984 333.901 227.086 326.799 227.086 318.039H223.086ZM211.224 329.901C204.672 329.901 199.361 324.59 199.361 318.039H195.361C195.361 326.799 202.463 333.901 211.224 333.901V329.901ZM218.193 318.039C218.193 321.888 215.073 325.008 211.223 325.008V329.008C217.282 329.008 222.193 324.097 222.193 318.039H218.193ZM211.223 325.008C207.374 325.008 204.254 321.888 204.254 318.039H200.254C200.254 324.097 205.165 329.008 211.223 329.008V325.008ZM204.254 318.039C204.254 314.189 207.374 311.069 211.223 311.069V307.069C205.165 307.069 200.254 311.98 200.254 318.039H204.254ZM211.223 311.069C215.073 311.069 218.193 314.189 218.193 318.039H222.193C222.193 311.98 217.282 307.069 211.223 307.069V311.069ZM195.361 318.039C195.361 324.59 190.05 329.901 183.498 329.901V333.901C192.259 333.901 199.361 326.8 199.361 318.039H195.361ZM183.498 329.901C176.947 329.901 171.636 324.59 171.636 318.039H167.636C167.636 326.799 174.738 333.901 183.498 333.901V329.901ZM190.468 318.039C190.468 321.888 187.347 325.008 183.498 325.008V329.008C189.557 329.008 194.468 324.097 194.468 318.039H190.468ZM183.498 325.008C179.649 325.008 176.528 321.888 176.528 318.039H172.528C172.528 324.097 177.44 329.008 183.498 329.008V325.008ZM176.528 318.039C176.528 314.189 179.649 311.069 183.498 311.069V307.069C177.44 307.069 172.528 311.98 172.528 318.039H176.528ZM183.498 311.069C187.347 311.069 190.468 314.189 190.468 318.039H194.468C194.468 311.98 189.557 307.069 183.498 307.069V311.069ZM185.499 275.635C185.499 269.084 190.81 263.773 197.361 263.773V259.773C188.601 259.773 181.499 266.875 181.499 275.635H185.499ZM197.361 263.773C203.913 263.773 209.224 269.084 209.224 275.635H213.224C213.224 266.875 206.122 259.773 197.361 259.773V263.773ZM204.331 275.635C204.331 279.484 201.21 282.605 197.361 282.605V286.605C203.419 286.605 208.331 281.694 208.331 275.635H204.331ZM197.361 282.605C193.511 282.605 190.391 279.484 190.391 275.635H186.391C186.391 281.694 191.302 286.605 197.361 286.605V282.605ZM190.391 275.635C190.391 271.786 193.511 268.665 197.361 268.665V264.665C191.302 264.665 186.391 269.577 186.391 275.635H190.391ZM197.361 268.665C201.21 268.665 204.331 271.786 204.331 275.635H208.331C208.331 269.577 203.419 264.665 197.361 264.665V268.665ZM171.636 318.039C171.636 313.43 174.264 309.431 178.112 307.466L176.293 303.904C171.159 306.526 167.636 311.869 167.636 318.039H171.636ZM176.937 303.703C176.417 303.772 175.885 303.809 175.344 303.809V307.809C176.063 307.809 176.773 307.761 177.468 307.667L176.937 303.703ZM186.857 281.153C185.99 279.507 185.499 277.632 185.499 275.635H181.499C181.499 278.296 182.156 280.81 183.318 283.017L186.857 281.153ZM175.344 280.083C178.595 280.083 181.537 281.388 183.682 283.508L186.493 280.663C183.63 277.833 179.689 276.083 175.344 276.083V280.083ZM209.224 275.635C209.224 277.631 208.732 279.507 207.866 281.153L211.405 283.016C212.567 280.81 213.224 278.296 213.224 275.635H209.224ZM211.041 283.507C213.186 281.388 216.128 280.083 219.378 280.083V276.083C215.033 276.083 211.093 277.833 208.23 280.662L211.041 283.507ZM216.61 307.466C220.458 309.431 223.086 313.43 223.086 318.039H227.086C227.086 311.869 223.564 306.526 218.429 303.904L216.61 307.466ZM219.378 303.809C218.837 303.809 218.305 303.772 217.785 303.703L217.254 307.667C217.95 307.761 218.659 307.809 219.378 307.809V303.809ZM356.205 299.361C356.205 322.318 337.595 340.928 314.638 340.928V344.928C339.804 344.928 360.205 324.527 360.205 299.361H356.205ZM314.638 340.928C291.68 340.928 273.07 322.318 273.07 299.361H269.07C269.07 324.527 289.471 344.928 314.638 344.928V340.928ZM273.07 299.361C273.07 276.403 291.68 257.793 314.638 257.793V253.793C289.471 253.793 269.07 274.194 269.07 299.361H273.07ZM314.638 257.793C337.595 257.793 356.205 276.403 356.205 299.361H360.205C360.205 274.194 339.804 253.793 314.638 253.793V257.793ZM322.889 299.361C322.889 303.918 319.195 307.612 314.638 307.612V311.612C321.404 311.612 326.889 306.127 326.889 299.361H322.889ZM314.638 307.612C310.081 307.612 306.386 303.918 306.386 299.361H302.386C302.386 306.127 307.871 311.612 314.638 311.612V307.612ZM306.386 299.361C306.386 294.804 310.081 291.109 314.638 291.109V287.109C307.871 287.109 302.386 292.594 302.386 299.361H306.386ZM314.638 291.109C319.195 291.109 322.889 294.804 322.889 299.361H326.889C326.889 292.594 321.404 287.109 314.638 287.109V291.109ZM348.518 291.946C348.518 298.498 343.207 303.809 336.655 303.809V307.809C345.416 307.809 352.518 300.707 352.518 291.946H348.518ZM336.655 280.083C343.207 280.083 348.518 285.395 348.518 291.946H352.518C352.518 283.185 345.416 276.083 336.655 276.083V280.083ZM343.625 291.946C343.625 295.795 340.504 298.916 336.655 298.916V302.916C342.713 302.916 347.625 298.004 347.625 291.946H343.625ZM336.655 298.916C332.806 298.916 329.685 295.795 329.685 291.946H325.685C325.685 298.004 330.596 302.916 336.655 302.916V298.916ZM329.685 291.946C329.685 288.096 332.806 284.976 336.655 284.976V280.976C330.596 280.976 325.685 285.887 325.685 291.946H329.685ZM336.655 284.976C340.504 284.976 343.625 288.096 343.625 291.946H347.625C347.625 285.887 342.713 280.976 336.655 280.976V284.976ZM292.621 303.809C286.069 303.809 280.758 298.498 280.758 291.946H276.758C276.758 300.707 283.86 307.809 292.621 307.809V303.809ZM280.758 291.946C280.758 285.395 286.069 280.083 292.621 280.083V276.083C283.86 276.083 276.758 283.185 276.758 291.946H280.758ZM299.59 291.946C299.59 295.795 296.47 298.916 292.621 298.916V302.916C298.679 302.916 303.59 298.004 303.59 291.946H299.59ZM292.621 298.916C288.771 298.916 285.651 295.795 285.651 291.946H281.651C281.651 298.004 286.562 302.916 292.621 302.916V298.916ZM285.651 291.946C285.651 288.096 288.771 284.976 292.621 284.976V280.976C286.562 280.976 281.651 285.887 281.651 291.946H285.651ZM292.621 284.976C296.47 284.976 299.59 288.096 299.59 291.946H303.59C303.59 285.887 298.679 280.976 292.621 280.976V284.976ZM340.363 318.039C340.363 324.59 335.052 329.901 328.501 329.901V333.901C337.261 333.901 344.363 326.799 344.363 318.039H340.363ZM328.501 329.901C321.949 329.901 316.638 324.59 316.638 318.039H312.638C312.638 326.799 319.74 333.901 328.501 333.901V329.901ZM335.47 318.039C335.47 321.888 332.35 325.008 328.5 325.008V329.008C334.559 329.008 339.47 324.097 339.47 318.039H335.47ZM328.5 325.008C324.651 325.008 321.53 321.888 321.53 318.039H317.53C317.53 324.097 322.442 329.008 328.5 329.008V325.008ZM321.53 318.039C321.53 314.189 324.651 311.069 328.5 311.069V307.069C322.442 307.069 317.53 311.98 317.53 318.039H321.53ZM328.5 311.069C332.35 311.069 335.47 314.189 335.47 318.039H339.47C339.47 311.98 334.559 307.069 328.5 307.069V311.069ZM312.638 318.039C312.638 324.59 307.327 329.901 300.775 329.901V333.901C309.536 333.901 316.638 326.8 316.638 318.039H312.638ZM300.775 329.901C294.224 329.901 288.913 324.59 288.913 318.039H284.913C284.913 326.799 292.015 333.901 300.775 333.901V329.901ZM307.745 318.039C307.745 321.888 304.624 325.008 300.775 325.008V329.008C306.834 329.008 311.745 324.097 311.745 318.039H307.745ZM300.775 325.008C296.926 325.008 293.805 321.888 293.805 318.039H289.805C289.805 324.097 294.717 329.008 300.775 329.008V325.008ZM293.805 318.039C293.805 314.189 296.926 311.069 300.775 311.069V307.069C294.717 307.069 289.805 311.98 289.805 318.039H293.805ZM300.775 311.069C304.624 311.069 307.745 314.189 307.745 318.039H311.745C311.745 311.98 306.834 307.069 300.775 307.069V311.069ZM302.776 275.635C302.776 269.084 308.087 263.773 314.638 263.773V259.773C305.877 259.773 298.776 266.875 298.776 275.635H302.776ZM314.638 263.773C321.19 263.773 326.501 269.084 326.501 275.635H330.501C330.501 266.875 323.399 259.773 314.638 259.773V263.773ZM321.608 275.635C321.608 279.484 318.487 282.605 314.638 282.605V286.605C320.696 286.605 325.608 281.694 325.608 275.635H321.608ZM314.638 282.605C310.788 282.605 307.668 279.484 307.668 275.635H303.668C303.668 281.694 308.579 286.605 314.638 286.605V282.605ZM307.668 275.635C307.668 271.786 310.788 268.665 314.638 268.665V264.665C308.579 264.665 303.668 269.577 303.668 275.635H307.668ZM314.638 268.665C318.487 268.665 321.608 271.786 321.608 275.635H325.608C325.608 269.577 320.696 264.665 314.638 264.665V268.665ZM288.913 318.039C288.913 313.43 291.541 309.431 295.389 307.466L293.57 303.904C288.436 306.526 284.913 311.869 284.913 318.039H288.913ZM294.214 303.703C293.694 303.772 293.162 303.809 292.621 303.809V307.809C293.34 307.809 294.049 307.761 294.745 307.667L294.214 303.703ZM304.134 281.153C303.267 279.507 302.776 277.632 302.776 275.635H298.776C298.776 278.296 299.432 280.81 300.595 283.017L304.134 281.153ZM292.621 280.083C295.872 280.083 298.814 281.388 300.958 283.508L303.77 280.663C300.907 277.833 296.966 276.083 292.621 276.083V280.083ZM326.501 275.635C326.501 277.631 326.009 279.507 325.143 281.153L328.682 283.016C329.844 280.81 330.501 278.296 330.501 275.635H326.501ZM328.318 283.507C330.463 281.388 333.405 280.083 336.655 280.083V276.083C332.31 276.083 328.37 277.833 325.507 280.662L328.318 283.507ZM333.887 307.466C337.735 309.431 340.363 313.43 340.363 318.039H344.363C344.363 311.869 340.84 306.526 335.706 303.904L333.887 307.466ZM336.655 303.809C336.114 303.809 335.582 303.772 335.062 303.703L334.531 307.667C335.226 307.761 335.936 307.809 336.655 307.809V303.809Z" fill="white" mask="url(#path-3-inside-2_170_469)"/>
</svg>
