<svg width="512" height="512" viewBox="0 0 512 512" fill="none" xmlns="http://www.w3.org/2000/svg">
<path d="M0 0H512V512H0V0Z" fill="white"/>
<path d="M164.192 91C164.192 96.6288 159.629 101.192 154 101.192C148.371 101.192 143.808 96.6288 143.808 91C143.808 85.3712 148.371 80.8082 154 80.8082C159.629 80.8082 164.192 85.3712 164.192 91Z" fill="#000085"/>
<path d="M162.918 67.412C162.918 72.3372 158.925 76.3299 154 76.3299C149.075 76.3299 145.082 72.3372 145.082 67.412C145.082 62.4868 149.075 58.4941 154 58.4941C158.925 58.4941 162.918 62.4868 162.918 67.412Z" fill="#000085"/>
<path d="M184.808 83.6281C184.808 88.5533 180.815 92.546 175.89 92.546C170.964 92.546 166.972 88.5533 166.972 83.6281C166.972 78.7029 170.964 74.7102 175.89 74.7102C180.815 74.7102 184.808 78.7029 184.808 83.6281Z" fill="#000085"/>
<path d="M176.7 109.57C176.7 114.495 172.708 118.488 167.782 118.488C162.857 118.488 158.865 114.495 158.865 109.57C158.865 104.644 162.857 100.652 167.782 100.652C172.708 100.652 176.7 104.644 176.7 109.57Z" fill="#000085"/>
<path fill-rule="evenodd" clip-rule="evenodd" d="M197.315 91C197.315 114.922 177.922 134.315 154 134.315C130.078 134.315 110.685 114.922 110.685 91C110.685 67.0777 130.078 47.6849 154 47.6849C177.922 47.6849 197.315 67.0777 197.315 91ZM189.672 83.6284C189.672 91.2401 183.502 97.4106 175.89 97.4106C175.263 97.4106 174.646 97.3687 174.042 97.2877C178.507 99.5679 181.565 104.212 181.565 109.57C181.565 117.182 175.394 123.352 167.783 123.352C160.171 123.352 154.001 117.182 154.001 109.57C154.001 117.182 147.83 123.352 140.218 123.352C132.606 123.352 126.436 117.182 126.436 109.57C126.436 104.212 129.494 99.568 133.959 97.2877C133.355 97.3687 132.738 97.4106 132.111 97.4106C124.499 97.4106 118.329 91.2401 118.329 83.6284C118.329 76.0167 124.499 69.8462 132.111 69.8462C135.887 69.8462 139.309 71.3648 141.798 73.8247C140.789 71.9093 140.218 69.7275 140.218 67.4123C140.218 59.8006 146.389 53.6301 154.001 53.6301C161.612 53.6301 167.783 59.8006 167.783 67.4123C167.783 69.7272 167.212 71.9089 166.204 73.8242C168.693 71.3646 172.114 69.8462 175.89 69.8462C183.502 69.8462 189.672 76.0167 189.672 83.6284Z" fill="#000085"/>
<path d="M141.029 83.6281C141.029 88.5533 137.036 92.546 132.111 92.546C127.185 92.546 123.193 88.5533 123.193 83.6281C123.193 78.7029 127.185 74.7102 132.111 74.7102C137.036 74.7102 141.029 78.7029 141.029 83.6281Z" fill="#000085"/>
<path d="M149.136 109.57C149.136 114.495 145.143 118.488 140.218 118.488C135.293 118.488 131.3 114.495 131.3 109.57C131.3 104.644 135.293 100.652 140.218 100.652C145.143 100.652 149.136 104.644 149.136 109.57Z" fill="#000085"/>
<path d="M368.192 189C368.192 194.629 363.629 199.192 358 199.192C352.371 199.192 347.808 194.629 347.808 189C347.808 183.371 352.371 178.808 358 178.808C363.629 178.808 368.192 183.371 368.192 189Z" fill="#000085"/>
<path d="M366.918 165.412C366.918 170.337 362.925 174.33 358 174.33C353.075 174.33 349.082 170.337 349.082 165.412C349.082 160.487 353.075 156.494 358 156.494C362.925 156.494 366.918 160.487 366.918 165.412Z" fill="#000085"/>
<path d="M388.808 181.628C388.808 186.553 384.815 190.546 379.89 190.546C374.964 190.546 370.972 186.553 370.972 181.628C370.972 176.703 374.964 172.71 379.89 172.71C384.815 172.71 388.808 176.703 388.808 181.628Z" fill="#000085"/>
<path d="M380.7 207.57C380.7 212.495 376.708 216.488 371.782 216.488C366.857 216.488 362.865 212.495 362.865 207.57C362.865 202.644 366.857 198.652 371.782 198.652C376.708 198.652 380.7 202.644 380.7 207.57Z" fill="#000085"/>
<path fill-rule="evenodd" clip-rule="evenodd" d="M401.315 189C401.315 212.922 381.922 232.315 358 232.315C334.078 232.315 314.685 212.922 314.685 189C314.685 165.078 334.078 145.685 358 145.685C381.922 145.685 401.315 165.078 401.315 189ZM393.672 181.628C393.672 189.24 387.502 195.411 379.89 195.411C379.263 195.411 378.646 195.369 378.042 195.288C382.507 197.568 385.565 202.212 385.565 207.57C385.565 215.182 379.394 221.352 371.783 221.352C364.171 221.352 358.001 215.182 358.001 207.57C358.001 215.182 351.83 221.352 344.218 221.352C336.606 221.352 330.436 215.182 330.436 207.57C330.436 202.212 333.494 197.568 337.959 195.288C337.355 195.369 336.738 195.411 336.111 195.411C328.499 195.411 322.329 189.24 322.329 181.628C322.329 174.017 328.499 167.846 336.111 167.846C339.887 167.846 343.309 169.365 345.798 171.825C344.789 169.909 344.218 167.727 344.218 165.412C344.218 157.801 350.389 151.63 358.001 151.63C365.612 151.63 371.783 157.801 371.783 165.412C371.783 167.727 371.212 169.909 370.204 171.824C372.693 169.365 376.114 167.846 379.89 167.846C387.502 167.846 393.672 174.017 393.672 181.628Z" fill="#000085"/>
<path d="M345.029 181.628C345.029 186.553 341.036 190.546 336.111 190.546C331.185 190.546 327.193 186.553 327.193 181.628C327.193 176.703 331.185 172.71 336.111 172.71C341.036 172.71 345.029 176.703 345.029 181.628Z" fill="#000085"/>
<path d="M353.136 207.57C353.136 212.495 349.143 216.488 344.218 216.488C339.293 216.488 335.3 212.495 335.3 207.57C335.3 202.644 339.293 198.652 344.218 198.652C349.143 198.652 353.136 202.644 353.136 207.57Z" fill="#000085"/>
<path d="M266.192 140C266.192 145.629 261.629 150.192 256 150.192C250.371 150.192 245.808 145.629 245.808 140C245.808 134.371 250.371 129.808 256 129.808C261.629 129.808 266.192 134.371 266.192 140Z" fill="#000085"/>
<path d="M264.918 116.412C264.918 121.337 260.925 125.33 256 125.33C251.075 125.33 247.082 121.337 247.082 116.412C247.082 111.487 251.075 107.494 256 107.494C260.925 107.494 264.918 111.487 264.918 116.412Z" fill="#000085"/>
<path d="M286.808 132.628C286.808 137.553 282.815 141.546 277.89 141.546C272.964 141.546 268.972 137.553 268.972 132.628C268.972 127.703 272.964 123.71 277.89 123.71C282.815 123.71 286.808 127.703 286.808 132.628Z" fill="#000085"/>
<path d="M278.7 158.57C278.7 163.495 274.708 167.488 269.782 167.488C264.857 167.488 260.865 163.495 260.865 158.57C260.865 153.644 264.857 149.652 269.782 149.652C274.708 149.652 278.7 153.644 278.7 158.57Z" fill="#000085"/>
<path fill-rule="evenodd" clip-rule="evenodd" d="M299.315 140C299.315 163.922 279.922 183.315 256 183.315C232.078 183.315 212.685 163.922 212.685 140C212.685 116.078 232.078 96.6849 256 96.6849C279.922 96.6849 299.315 116.078 299.315 140ZM291.672 132.628C291.672 140.24 285.502 146.411 277.89 146.411C277.263 146.411 276.646 146.369 276.042 146.288C280.507 148.568 283.565 153.212 283.565 158.57C283.565 166.182 277.394 172.352 269.783 172.352C262.171 172.352 256.001 166.182 256.001 158.57C256.001 166.182 249.83 172.352 242.218 172.352C234.606 172.352 228.436 166.182 228.436 158.57C228.436 153.212 231.494 148.568 235.959 146.288C235.355 146.369 234.738 146.411 234.111 146.411C226.499 146.411 220.329 140.24 220.329 132.628C220.329 125.017 226.499 118.846 234.111 118.846C237.887 118.846 241.309 120.365 243.798 122.825C242.789 120.909 242.218 118.727 242.218 116.412C242.218 108.801 248.389 102.63 256.001 102.63C263.612 102.63 269.783 108.801 269.783 116.412C269.783 118.727 269.212 120.909 268.204 122.824C270.693 120.365 274.114 118.846 277.89 118.846C285.502 118.846 291.672 125.017 291.672 132.628Z" fill="#000085"/>
<path d="M243.029 132.628C243.029 137.553 239.036 141.546 234.111 141.546C229.185 141.546 225.193 137.553 225.193 132.628C225.193 127.703 229.185 123.71 234.111 123.71C239.036 123.71 243.029 127.703 243.029 132.628Z" fill="#000085"/>
<path d="M251.136 158.57C251.136 163.495 247.143 167.488 242.218 167.488C237.293 167.488 233.3 163.495 233.3 158.57C233.3 153.644 237.293 149.652 242.218 149.652C247.143 149.652 251.136 153.644 251.136 158.57Z" fill="#000085"/>
<path fill-rule="evenodd" clip-rule="evenodd" d="M197.362 479C162.92 479 135 451.08 135 416.638C135 389.668 152.121 366.697 176.087 358C152.121 349.303 135 326.332 135 299.362C135 264.92 162.92 237 197.362 237C224.332 237 247.303 254.121 256 278.087C264.697 254.121 287.668 237 314.638 237C316.082 237 317.514 237.049 318.933 237.146C304.941 225.778 296 208.433 296 189C296 188.45 296.007 187.901 296.021 187.355C285.222 196.491 271.254 202 256 202C221.758 202 194 174.242 194 140C194 139.45 194.007 138.901 194.021 138.355C183.222 147.491 169.254 153 154 153C119.758 153 92 125.242 92 91C92 56.7583 119.758 29 154 29C188.242 29 216 56.7583 216 91C216 91.5502 215.993 92.0987 215.979 92.6455C226.778 83.5088 240.746 78 256 78C290.242 78 318 105.758 318 140C318 140.55 317.993 141.099 317.979 141.645C328.778 132.509 342.746 127 358 127C392.242 127 420 154.758 420 189C420 223.242 392.242 251 358 251C356.604 251 355.218 250.954 353.844 250.863C367.969 262.296 377 279.774 377 299.362C377 326.332 359.879 349.303 335.913 358C359.879 366.697 377 389.668 377 416.638C377 451.08 349.08 479 314.638 479C287.668 479 264.697 461.879 256 437.913C247.303 461.879 224.332 479 197.362 479ZM197.362 464.865C223.996 464.865 245.588 443.273 245.588 416.638C245.588 390.004 223.996 368.412 197.362 368.412C170.727 368.412 149.135 390.004 149.135 416.638C149.135 443.273 170.727 464.865 197.362 464.865ZM314.638 464.865C341.273 464.865 362.865 443.273 362.865 416.638C362.865 390.004 341.273 368.412 314.638 368.412C288.004 368.412 266.412 390.004 266.412 416.638C266.412 443.273 288.004 464.865 314.638 464.865ZM197.362 347.588C223.996 347.588 245.588 325.996 245.588 299.362C245.588 272.727 223.996 251.135 197.362 251.135C170.727 251.135 149.135 272.727 149.135 299.362C149.135 325.996 170.727 347.588 197.362 347.588ZM314.638 347.588C341.273 347.588 362.865 325.996 362.865 299.362C362.865 272.727 341.273 251.135 314.638 251.135C288.004 251.135 266.412 272.727 266.412 299.362C266.412 325.996 288.004 347.588 314.638 347.588ZM218.636 358C235.963 351.712 249.712 337.963 256 320.636C262.288 337.963 276.037 351.712 293.364 358C276.037 364.288 262.288 378.037 256 395.364C249.712 378.037 235.963 364.288 218.636 358ZM154 138.947C180.48 138.947 201.947 117.48 201.947 91C201.947 64.5198 180.48 43.0533 154 43.0533C127.52 43.0533 106.053 64.5198 106.053 91C106.053 117.48 127.52 138.947 154 138.947ZM358 236.947C384.48 236.947 405.947 215.48 405.947 189C405.947 162.52 384.48 141.053 358 141.053C331.52 141.053 310.053 162.52 310.053 189C310.053 215.48 331.52 236.947 358 236.947ZM256 187.947C282.48 187.947 303.947 166.48 303.947 140C303.947 113.52 282.48 92.0533 256 92.0533C229.52 92.0533 208.053 113.52 208.053 140C208.053 166.48 229.52 187.947 256 187.947Z" fill="#000085"/>
<path d="M207.612 416.638C207.612 422.299 203.022 426.889 197.361 426.889C191.699 426.889 187.109 422.299 187.109 416.638C187.109 410.976 191.699 406.386 197.361 406.386C203.022 406.386 207.612 410.976 207.612 416.638Z" fill="#A80000"/>
<path d="M206.331 392.912C206.331 397.866 202.315 401.882 197.361 401.882C192.407 401.882 188.391 397.866 188.391 392.912C188.391 387.958 192.407 383.942 197.361 383.942C202.315 383.942 206.331 387.958 206.331 392.912Z" fill="#A80000"/>
<path d="M228.348 409.223C228.348 414.177 224.332 418.193 219.378 418.193C214.424 418.193 210.408 414.177 210.408 409.223C210.408 404.269 214.424 400.253 219.378 400.253C224.332 400.253 228.348 404.269 228.348 409.223Z" fill="#A80000"/>
<path d="M220.193 435.315C220.193 440.269 216.177 444.285 211.223 444.285C206.27 444.285 202.254 440.269 202.254 435.315C202.254 430.362 206.27 426.346 211.223 426.346C216.177 426.346 220.193 430.362 220.193 435.315Z" fill="#A80000"/>
<path fill-rule="evenodd" clip-rule="evenodd" d="M240.928 416.638C240.928 440.699 221.422 460.205 197.361 460.205C173.299 460.205 153.793 440.699 153.793 416.638C153.793 392.576 173.299 373.07 197.361 373.07C221.422 373.07 240.928 392.576 240.928 416.638ZM233.241 409.223C233.241 416.879 227.034 423.085 219.378 423.085C218.748 423.085 218.127 423.043 217.519 422.962C222.011 425.255 225.086 429.926 225.086 435.316C225.086 442.972 218.88 449.178 211.224 449.178C203.568 449.178 197.361 442.972 197.361 435.316C197.361 442.972 191.154 449.178 183.498 449.178C175.842 449.178 169.636 442.972 169.636 435.316C169.636 429.926 172.711 425.255 177.203 422.962C176.595 423.043 175.974 423.085 175.344 423.085C167.688 423.085 161.481 416.879 161.481 409.223C161.481 401.567 167.688 395.36 175.344 395.36C179.142 395.36 182.583 396.888 185.087 399.362C184.073 397.435 183.499 395.241 183.499 392.912C183.499 385.256 189.705 379.05 197.361 379.05C205.017 379.05 211.224 385.256 211.224 392.912C211.224 395.241 210.65 397.435 209.635 399.362C212.139 396.888 215.58 395.36 219.378 395.36C227.034 395.36 233.241 401.567 233.241 409.223Z" fill="#A80000"/>
<path d="M184.314 409.223C184.314 414.177 180.298 418.193 175.344 418.193C170.39 418.193 166.374 414.177 166.374 409.223C166.374 404.269 170.39 400.253 175.344 400.253C180.298 400.253 184.314 404.269 184.314 409.223Z" fill="#A80000"/>
<path d="M192.468 435.315C192.468 440.269 188.452 444.285 183.498 444.285C178.544 444.285 174.528 440.269 174.528 435.315C174.528 430.362 178.544 426.346 183.498 426.346C188.452 426.346 192.468 430.362 192.468 435.315Z" fill="#A80000"/>
<path d="M324.889 416.638C324.889 422.299 320.299 426.889 314.638 426.889C308.976 426.889 304.386 422.299 304.386 416.638C304.386 410.976 308.976 406.386 314.638 406.386C320.299 406.386 324.889 410.976 324.889 416.638Z" fill="#A80000"/>
<path d="M323.608 392.912C323.608 397.866 319.592 401.882 314.638 401.882C309.684 401.882 305.668 397.866 305.668 392.912C305.668 387.958 309.684 383.942 314.638 383.942C319.592 383.942 323.608 387.958 323.608 392.912Z" fill="#A80000"/>
<path d="M345.625 409.223C345.625 414.177 341.609 418.193 336.655 418.193C331.701 418.193 327.685 414.177 327.685 409.223C327.685 404.269 331.701 400.253 336.655 400.253C341.609 400.253 345.625 404.269 345.625 409.223Z" fill="#A80000"/>
<path d="M337.47 435.315C337.47 440.269 333.454 444.285 328.5 444.285C323.546 444.285 319.53 440.269 319.53 435.315C319.53 430.362 323.546 426.346 328.5 426.346C333.454 426.346 337.47 430.362 337.47 435.315Z" fill="#A80000"/>
<path fill-rule="evenodd" clip-rule="evenodd" d="M358.205 416.638C358.205 440.699 338.699 460.205 314.638 460.205C290.576 460.205 271.07 440.699 271.07 416.638C271.07 392.576 290.576 373.07 314.638 373.07C338.699 373.07 358.205 392.576 358.205 416.638ZM350.518 409.223C350.518 416.879 344.311 423.085 336.655 423.085C336.025 423.085 335.404 423.043 334.796 422.962C339.288 425.255 342.363 429.926 342.363 435.316C342.363 442.972 336.157 449.178 328.501 449.178C320.845 449.178 314.638 442.972 314.638 435.316C314.638 442.972 308.431 449.178 300.775 449.178C293.119 449.178 286.913 442.972 286.913 435.316C286.913 429.926 289.988 425.255 294.48 422.962C293.872 423.043 293.251 423.085 292.621 423.085C284.965 423.085 278.758 416.879 278.758 409.223C278.758 401.567 284.965 395.36 292.621 395.36C296.419 395.36 299.86 396.888 302.364 399.362C301.35 397.435 300.776 395.241 300.776 392.912C300.776 385.256 306.982 379.05 314.638 379.05C322.294 379.05 328.501 385.256 328.501 392.912C328.501 395.241 327.927 397.435 326.912 399.362C329.416 396.888 332.857 395.36 336.655 395.36C344.311 395.36 350.518 401.567 350.518 409.223Z" fill="#A80000"/>
<path d="M301.59 409.223C301.59 414.177 297.574 418.193 292.621 418.193C287.667 418.193 283.651 414.177 283.651 409.223C283.651 404.269 287.667 400.253 292.621 400.253C297.574 400.253 301.59 404.269 301.59 409.223Z" fill="#A80000"/>
<path d="M309.745 435.315C309.745 440.269 305.729 444.285 300.775 444.285C295.821 444.285 291.805 440.269 291.805 435.315C291.805 430.362 295.821 426.346 300.775 426.346C305.729 426.346 309.745 430.362 309.745 435.315Z" fill="#A80000"/>
<path d="M207.612 299.361C207.612 305.022 203.022 309.612 197.361 309.612C191.699 309.612 187.109 305.022 187.109 299.361C187.109 293.699 191.699 289.109 197.361 289.109C203.022 289.109 207.612 293.699 207.612 299.361Z" fill="#A80000"/>
<path d="M206.331 275.635C206.331 280.589 202.315 284.605 197.361 284.605C192.407 284.605 188.391 280.589 188.391 275.635C188.391 270.681 192.407 266.665 197.361 266.665C202.315 266.665 206.331 270.681 206.331 275.635Z" fill="#A80000"/>
<path d="M228.348 291.946C228.348 296.9 224.332 300.916 219.378 300.916C214.424 300.916 210.408 296.9 210.408 291.946C210.408 286.992 214.424 282.976 219.378 282.976C224.332 282.976 228.348 286.992 228.348 291.946Z" fill="#A80000"/>
<path d="M220.193 318.039C220.193 322.992 216.177 327.008 211.223 327.008C206.27 327.008 202.254 322.992 202.254 318.039C202.254 313.085 206.27 309.069 211.223 309.069C216.177 309.069 220.193 313.085 220.193 318.039Z" fill="#A80000"/>
<path fill-rule="evenodd" clip-rule="evenodd" d="M240.928 299.361C240.928 323.422 221.422 342.928 197.361 342.928C173.299 342.928 153.793 323.422 153.793 299.361C153.793 275.299 173.299 255.793 197.361 255.793C221.422 255.793 240.928 275.299 240.928 299.361ZM233.241 291.946C233.241 299.602 227.034 305.809 219.378 305.809C218.748 305.809 218.127 305.766 217.519 305.685C222.011 307.979 225.086 312.65 225.086 318.039C225.086 325.695 218.88 331.901 211.224 331.901C203.568 331.901 197.361 325.695 197.361 318.039C197.361 325.695 191.154 331.901 183.498 331.901C175.842 331.901 169.636 325.695 169.636 318.039C169.636 312.65 172.711 307.979 177.203 305.685C176.595 305.766 175.974 305.809 175.344 305.809C167.688 305.809 161.481 299.602 161.481 291.946C161.481 284.29 167.688 278.083 175.344 278.083C179.142 278.083 182.583 279.611 185.087 282.085C184.073 280.159 183.499 277.964 183.499 275.635C183.499 267.979 189.705 261.773 197.361 261.773C205.017 261.773 211.224 267.979 211.224 275.635C211.224 277.964 210.65 280.158 209.635 282.085C212.139 279.611 215.58 278.083 219.378 278.083C227.034 278.083 233.241 284.29 233.241 291.946Z" fill="#A80000"/>
<path d="M184.314 291.946C184.314 296.9 180.298 300.916 175.344 300.916C170.39 300.916 166.374 296.9 166.374 291.946C166.374 286.992 170.39 282.976 175.344 282.976C180.298 282.976 184.314 286.992 184.314 291.946Z" fill="#A80000"/>
<path d="M192.468 318.039C192.468 322.992 188.452 327.008 183.498 327.008C178.544 327.008 174.528 322.992 174.528 318.039C174.528 313.085 178.544 309.069 183.498 309.069C188.452 309.069 192.468 313.085 192.468 318.039Z" fill="#A80000"/>
<path d="M324.889 299.361C324.889 305.022 320.299 309.612 314.638 309.612C308.976 309.612 304.386 305.022 304.386 299.361C304.386 293.699 308.976 289.109 314.638 289.109C320.299 289.109 324.889 293.699 324.889 299.361Z" fill="#A80000"/>
<path d="M323.608 275.635C323.608 280.589 319.592 284.605 314.638 284.605C309.684 284.605 305.668 280.589 305.668 275.635C305.668 270.681 309.684 266.665 314.638 266.665C319.592 266.665 323.608 270.681 323.608 275.635Z" fill="#A80000"/>
<path d="M345.625 291.946C345.625 296.9 341.609 300.916 336.655 300.916C331.701 300.916 327.685 296.9 327.685 291.946C327.685 286.992 331.701 282.976 336.655 282.976C341.609 282.976 345.625 286.992 345.625 291.946Z" fill="#A80000"/>
<path d="M337.47 318.039C337.47 322.992 333.454 327.008 328.5 327.008C323.546 327.008 319.53 322.992 319.53 318.039C319.53 313.085 323.546 309.069 328.5 309.069C333.454 309.069 337.47 313.085 337.47 318.039Z" fill="#A80000"/>
<path fill-rule="evenodd" clip-rule="evenodd" d="M358.205 299.361C358.205 323.422 338.699 342.928 314.638 342.928C290.576 342.928 271.07 323.422 271.07 299.361C271.07 275.299 290.576 255.793 314.638 255.793C338.699 255.793 358.205 275.299 358.205 299.361ZM350.518 291.946C350.518 299.602 344.311 305.809 336.655 305.809C336.025 305.809 335.404 305.766 334.796 305.685C339.288 307.979 342.363 312.65 342.363 318.039C342.363 325.695 336.157 331.901 328.501 331.901C320.845 331.901 314.638 325.695 314.638 318.039C314.638 325.695 308.431 331.901 300.775 331.901C293.119 331.901 286.913 325.695 286.913 318.039C286.913 312.65 289.988 307.979 294.48 305.685C293.872 305.766 293.251 305.809 292.621 305.809C284.965 305.809 278.758 299.602 278.758 291.946C278.758 284.29 284.965 278.083 292.621 278.083C296.419 278.083 299.86 279.611 302.364 282.085C301.35 280.159 300.776 277.964 300.776 275.635C300.776 267.979 306.982 261.773 314.638 261.773C322.294 261.773 328.501 267.979 328.501 275.635C328.501 277.964 327.927 280.158 326.912 282.085C329.416 279.611 332.857 278.083 336.655 278.083C344.311 278.083 350.518 284.29 350.518 291.946Z" fill="#A80000"/>
<path d="M301.59 291.946C301.59 296.9 297.574 300.916 292.621 300.916C287.667 300.916 283.651 296.9 283.651 291.946C283.651 286.992 287.667 282.976 292.621 282.976C297.574 282.976 301.59 286.992 301.59 291.946Z" fill="#A80000"/>
<path d="M309.745 318.039C309.745 322.992 305.729 327.008 300.775 327.008C295.821 327.008 291.805 322.992 291.805 318.039C291.805 313.085 295.821 309.069 300.775 309.069C305.729 309.069 309.745 313.085 309.745 318.039Z" fill="#A80000"/>
</svg>
