<svg width="512" height="512" viewBox="0 0 512 512" fill="none" xmlns="http://www.w3.org/2000/svg">
<path d="M1 1H511V511H1V1Z" fill="white" stroke="white" stroke-width="2"/>
<mask id="path-2-inside-1_170_429" fill="white">
<path fill-rule="evenodd" clip-rule="evenodd" d="M235.305 322C230.706 322 226.734 320.778 223.39 318.333C220.463 315.481 219 312.019 219 307.944C219 305.093 219.836 302.852 221.508 301.222C223.181 299.185 226.107 296.741 230.288 293.889C234.469 291.037 236.559 288.593 236.559 286.556V282.278C236.559 280.241 234.051 276.981 229.034 272.5C224.435 268.019 222.136 263.944 222.136 260.278C222.136 256.611 224.435 252.537 229.034 248.056C234.051 243.574 236.559 240.315 236.559 238.278V234C236.559 231.963 234.887 229.926 231.542 227.889C228.198 225.444 225.271 223.204 222.763 221.167C220.254 218.722 219 215.87 219 212.611C219 208.13 220.463 204.667 223.39 202.222C226.316 199.778 229.243 198.556 232.169 198.556C234.678 198.556 237.814 197.13 241.576 194.278C245.757 191.426 250.565 190 256 190C261.435 190 266.034 191.426 269.797 194.278C273.977 197.13 277.322 198.556 279.831 198.556C282.757 198.556 285.684 199.778 288.61 202.222C291.537 204.667 293 208.13 293 212.611C293 215.463 292.164 217.907 290.492 219.944C288.819 221.574 285.893 223.815 281.712 226.667C277.531 229.519 275.441 231.963 275.441 234V238.278C275.441 240.315 277.74 243.574 282.339 248.056C287.356 252.537 289.864 256.611 289.864 260.278C289.864 263.944 287.356 268.019 282.339 272.5C277.74 276.981 275.441 280.241 275.441 282.278V286.556C275.441 288.593 277.113 290.833 280.458 293.278C283.802 295.315 286.729 297.556 289.237 300C291.746 302.037 293 304.685 293 307.944C293 312.019 291.328 315.481 287.983 318.333C285.056 320.778 281.294 322 276.695 322C273.35 322 270.006 321.185 266.661 319.556C263.734 317.519 260.181 316.5 256 316.5C251.819 316.5 248.056 317.519 244.712 319.556C241.785 321.185 238.65 322 235.305 322ZM241 261C241 263.761 243.239 266 246 266H266C268.761 266 271 263.761 271 261C271 258.239 268.761 256 266 256H246C243.239 256 241 258.239 241 261ZM256 309C258.761 309 261 306.761 261 304V274H251V304C251 306.761 253.239 309 256 309ZM251 248H261V222.912C265.131 221.016 268 216.843 268 212C268 205.373 262.627 200 256 200C249.373 200 244 205.373 244 212C244 216.843 246.869 221.016 251 222.912V248Z"/>
<path fill-rule="evenodd" clip-rule="evenodd" d="M235.305 477C230.706 477 226.734 475.778 223.39 473.333C220.463 470.481 219 467.019 219 462.944C219 460.093 219.836 457.852 221.508 456.222C223.181 454.185 226.107 451.741 230.288 448.889C234.469 446.037 236.559 443.593 236.559 441.556V437.278C236.559 435.241 234.051 431.981 229.034 427.5C224.435 423.019 222.136 418.944 222.136 415.278C222.136 411.611 224.435 407.537 229.034 403.056C234.051 398.574 236.559 395.315 236.559 393.278V389C236.559 386.963 234.887 384.926 231.542 382.889C228.198 380.444 225.271 378.204 222.763 376.167C220.254 373.722 219 370.87 219 367.611C219 363.13 220.463 359.667 223.39 357.222C226.316 354.778 229.243 353.556 232.169 353.556C234.678 353.556 237.814 352.13 241.576 349.278C245.757 346.426 250.565 345 256 345C261.435 345 266.034 346.426 269.797 349.278C273.977 352.13 277.322 353.556 279.831 353.556C282.757 353.556 285.684 354.778 288.61 357.222C291.537 359.667 293 363.13 293 367.611C293 370.463 292.164 372.907 290.492 374.944C288.819 376.574 285.893 378.815 281.712 381.667C277.531 384.519 275.441 386.963 275.441 389V393.278C275.441 395.315 277.74 398.574 282.339 403.056C287.356 407.537 289.864 411.611 289.864 415.278C289.864 418.944 287.356 423.019 282.339 427.5C277.74 431.981 275.441 435.241 275.441 437.278V441.556C275.441 443.593 277.113 445.833 280.458 448.278C283.802 450.315 286.729 452.556 289.237 455C291.746 457.037 293 459.685 293 462.944C293 467.019 291.328 470.481 287.983 473.333C285.056 475.778 281.294 477 276.695 477C273.35 477 270.006 476.185 266.661 474.556C263.734 472.519 260.181 471.5 256 471.5C251.819 471.5 248.056 472.519 244.712 474.556C241.785 476.185 238.65 477 235.305 477ZM241 416C241 418.761 243.239 421 246 421H266C268.761 421 271 418.761 271 416C271 413.239 268.761 411 266 411H246C243.239 411 241 413.239 241 416ZM256 464C258.761 464 261 461.761 261 459V429H251V459C251 461.761 253.239 464 256 464ZM251 403H261V377.912C265.131 376.016 268 371.843 268 367C268 360.373 262.627 355 256 355C249.373 355 244 360.373 244 367C244 371.843 246.869 376.016 251 377.912V403Z"/>
<path fill-rule="evenodd" clip-rule="evenodd" d="M345.305 477C340.706 477 336.734 475.778 333.39 473.333C330.463 470.481 329 467.019 329 462.944C329 460.093 329.836 457.852 331.508 456.222C333.181 454.185 336.107 451.741 340.288 448.889C344.469 446.037 346.559 443.593 346.559 441.556V437.278C346.559 435.241 344.051 431.981 339.034 427.5C334.435 423.019 332.136 418.944 332.136 415.278C332.136 411.611 334.435 407.537 339.034 403.056C344.051 398.574 346.559 395.315 346.559 393.278V389C346.559 386.963 344.887 384.926 341.542 382.889C338.198 380.444 335.271 378.204 332.763 376.167C330.254 373.722 329 370.87 329 367.611C329 363.13 330.463 359.667 333.39 357.222C336.316 354.778 339.243 353.556 342.169 353.556C344.678 353.556 347.814 352.13 351.576 349.278C355.757 346.426 360.565 345 366 345C371.435 345 376.034 346.426 379.797 349.278C383.977 352.13 387.322 353.556 389.831 353.556C392.757 353.556 395.684 354.778 398.61 357.222C401.537 359.667 403 363.13 403 367.611C403 370.463 402.164 372.907 400.492 374.944C398.819 376.574 395.893 378.815 391.712 381.667C387.531 384.519 385.441 386.963 385.441 389V393.278C385.441 395.315 387.74 398.574 392.339 403.056C397.356 407.537 399.864 411.611 399.864 415.278C399.864 418.944 397.356 423.019 392.339 427.5C387.74 431.981 385.441 435.241 385.441 437.278V441.556C385.441 443.593 387.113 445.833 390.458 448.278C393.802 450.315 396.729 452.556 399.237 455C401.746 457.037 403 459.685 403 462.944C403 467.019 401.328 470.481 397.983 473.333C395.056 475.778 391.294 477 386.695 477C383.35 477 380.006 476.185 376.661 474.556C373.734 472.519 370.181 471.5 366 471.5C361.819 471.5 358.056 472.519 354.712 474.556C351.785 476.185 348.65 477 345.305 477ZM351 416C351 418.761 353.239 421 356 421H376C378.761 421 381 418.761 381 416C381 413.239 378.761 411 376 411H356C353.239 411 351 413.239 351 416ZM366 464C368.761 464 371 461.761 371 459V429H361V459C361 461.761 363.239 464 366 464ZM361 403H371V377.912C375.131 376.016 378 371.843 378 367C378 360.373 372.627 355 366 355C359.373 355 354 360.373 354 367C354 371.843 356.869 376.016 361 377.912V403Z"/>
<path fill-rule="evenodd" clip-rule="evenodd" d="M345.305 322C340.706 322 336.734 320.778 333.39 318.333C330.463 315.481 329 312.019 329 307.944C329 305.093 329.836 302.852 331.508 301.222C333.181 299.185 336.107 296.741 340.288 293.889C344.469 291.037 346.559 288.593 346.559 286.556V282.278C346.559 280.241 344.051 276.981 339.034 272.5C334.435 268.019 332.136 263.944 332.136 260.278C332.136 256.611 334.435 252.537 339.034 248.056C344.051 243.574 346.559 240.315 346.559 238.278V234C346.559 231.963 344.887 229.926 341.542 227.889C338.198 225.444 335.271 223.204 332.763 221.167C330.254 218.722 329 215.87 329 212.611C329 208.13 330.463 204.667 333.39 202.222C336.316 199.778 339.243 198.556 342.169 198.556C344.678 198.556 347.814 197.13 351.576 194.278C355.757 191.426 360.565 190 366 190C371.435 190 376.034 191.426 379.797 194.278C383.977 197.13 387.322 198.556 389.831 198.556C392.757 198.556 395.684 199.778 398.61 202.222C401.537 204.667 403 208.13 403 212.611C403 215.463 402.164 217.907 400.492 219.944C398.819 221.574 395.893 223.815 391.712 226.667C387.531 229.519 385.441 231.963 385.441 234V238.278C385.441 240.315 387.74 243.574 392.339 248.056C397.356 252.537 399.864 256.611 399.864 260.278C399.864 263.944 397.356 268.019 392.339 272.5C387.74 276.981 385.441 280.241 385.441 282.278V286.556C385.441 288.593 387.113 290.833 390.458 293.278C393.802 295.315 396.729 297.556 399.237 300C401.746 302.037 403 304.685 403 307.944C403 312.019 401.328 315.481 397.983 318.333C395.056 320.778 391.294 322 386.695 322C383.35 322 380.006 321.185 376.661 319.556C373.734 317.519 370.181 316.5 366 316.5C361.819 316.5 358.056 317.519 354.712 319.556C351.785 321.185 348.65 322 345.305 322ZM351 261C351 263.761 353.239 266 356 266H376C378.761 266 381 263.761 381 261C381 258.239 378.761 256 376 256H356C353.239 256 351 258.239 351 261ZM366 309C368.761 309 371 306.761 371 304V274H361V304C361 306.761 363.239 309 366 309ZM361 248H371V222.912C375.131 221.016 378 216.843 378 212C378 205.373 372.627 200 366 200C359.373 200 354 205.373 354 212C354 216.843 356.869 221.016 361 222.912V248Z"/>
<path fill-rule="evenodd" clip-rule="evenodd" d="M125.305 322C120.706 322 116.734 320.778 113.39 318.333C110.463 315.481 109 312.019 109 307.944C109 305.093 109.836 302.852 111.508 301.222C113.181 299.185 116.107 296.741 120.288 293.889C124.469 291.037 126.559 288.593 126.559 286.556V282.278C126.559 280.241 124.051 276.981 119.034 272.5C114.435 268.019 112.136 263.944 112.136 260.278C112.136 256.611 114.435 252.537 119.034 248.056C124.051 243.574 126.559 240.315 126.559 238.278V234C126.559 231.963 124.887 229.926 121.542 227.889C118.198 225.444 115.271 223.204 112.763 221.167C110.254 218.722 109 215.87 109 212.611C109 208.13 110.463 204.667 113.39 202.222C116.316 199.778 119.243 198.556 122.169 198.556C124.678 198.556 127.814 197.13 131.576 194.278C135.757 191.426 140.565 190 146 190C151.435 190 156.034 191.426 159.797 194.278C163.977 197.13 167.322 198.556 169.831 198.556C172.757 198.556 175.684 199.778 178.61 202.222C181.537 204.667 183 208.13 183 212.611C183 215.463 182.164 217.907 180.492 219.944C178.819 221.574 175.893 223.815 171.712 226.667C167.531 229.519 165.441 231.963 165.441 234V238.278C165.441 240.315 167.74 243.574 172.339 248.056C177.356 252.537 179.864 256.611 179.864 260.278C179.864 263.944 177.356 268.019 172.339 272.5C167.74 276.981 165.441 280.241 165.441 282.278V286.556C165.441 288.593 167.113 290.833 170.458 293.278C173.802 295.315 176.729 297.556 179.237 300C181.746 302.037 183 304.685 183 307.944C183 312.019 181.328 315.481 177.983 318.333C175.056 320.778 171.294 322 166.695 322C163.35 322 160.006 321.185 156.661 319.556C153.734 317.519 150.181 316.5 146 316.5C141.819 316.5 138.056 317.519 134.712 319.556C131.785 321.185 128.65 322 125.305 322ZM131 261C131 263.761 133.239 266 136 266H156C158.761 266 161 263.761 161 261C161 258.239 158.761 256 156 256H136C133.239 256 131 258.239 131 261ZM146 309C148.761 309 151 306.761 151 304V274H141V304C141 306.761 143.239 309 146 309ZM141 248H151V222.912C155.131 221.016 158 216.843 158 212C158 205.373 152.627 200 146 200C139.373 200 134 205.373 134 212C134 216.843 136.869 221.016 141 222.912V248Z"/>
<path fill-rule="evenodd" clip-rule="evenodd" d="M125.305 477C120.706 477 116.734 475.778 113.39 473.333C110.463 470.481 109 467.019 109 462.944C109 460.093 109.836 457.852 111.508 456.222C113.181 454.185 116.107 451.741 120.288 448.889C124.469 446.037 126.559 443.593 126.559 441.556V437.278C126.559 435.241 124.051 431.981 119.034 427.5C114.435 423.019 112.136 418.944 112.136 415.278C112.136 411.611 114.435 407.537 119.034 403.056C124.051 398.574 126.559 395.315 126.559 393.278V389C126.559 386.963 124.887 384.926 121.542 382.889C118.198 380.444 115.271 378.204 112.763 376.167C110.254 373.722 109 370.87 109 367.611C109 363.13 110.463 359.667 113.39 357.222C116.316 354.778 119.243 353.556 122.169 353.556C124.678 353.556 127.814 352.13 131.576 349.278C135.757 346.426 140.565 345 146 345C151.435 345 156.034 346.426 159.797 349.278C163.977 352.13 167.322 353.556 169.831 353.556C172.757 353.556 175.684 354.778 178.61 357.222C181.537 359.667 183 363.13 183 367.611C183 370.463 182.164 372.907 180.492 374.944C178.819 376.574 175.893 378.815 171.712 381.667C167.531 384.519 165.441 386.963 165.441 389V393.278C165.441 395.315 167.74 398.574 172.339 403.056C177.356 407.537 179.864 411.611 179.864 415.278C179.864 418.944 177.356 423.019 172.339 427.5C167.74 431.981 165.441 435.241 165.441 437.278V441.556C165.441 443.593 167.113 445.833 170.458 448.278C173.802 450.315 176.729 452.556 179.237 455C181.746 457.037 183 459.685 183 462.944C183 467.019 181.328 470.481 177.983 473.333C175.056 475.778 171.294 477 166.695 477C163.35 477 160.006 476.185 156.661 474.556C153.734 472.519 150.181 471.5 146 471.5C141.819 471.5 138.056 472.519 134.712 474.556C131.785 476.185 128.65 477 125.305 477ZM131 416C131 418.761 133.239 421 136 421H156C158.761 421 161 418.761 161 416C161 413.239 158.761 411 156 411H136C133.239 411 131 413.239 131 416ZM146 464C148.761 464 151 461.761 151 459V429H141V459C141 461.761 143.239 464 146 464ZM141 403H151V377.912C155.131 376.016 158 371.843 158 367C158 360.373 152.627 355 146 355C139.373 355 134 360.373 134 367C134 371.843 136.869 376.016 141 377.912V403Z"/>
</mask>
<path fill-rule="evenodd" clip-rule="evenodd" d="M235.305 322C230.706 322 226.734 320.778 223.39 318.333C220.463 315.481 219 312.019 219 307.944C219 305.093 219.836 302.852 221.508 301.222C223.181 299.185 226.107 296.741 230.288 293.889C234.469 291.037 236.559 288.593 236.559 286.556V282.278C236.559 280.241 234.051 276.981 229.034 272.5C224.435 268.019 222.136 263.944 222.136 260.278C222.136 256.611 224.435 252.537 229.034 248.056C234.051 243.574 236.559 240.315 236.559 238.278V234C236.559 231.963 234.887 229.926 231.542 227.889C228.198 225.444 225.271 223.204 222.763 221.167C220.254 218.722 219 215.87 219 212.611C219 208.13 220.463 204.667 223.39 202.222C226.316 199.778 229.243 198.556 232.169 198.556C234.678 198.556 237.814 197.13 241.576 194.278C245.757 191.426 250.565 190 256 190C261.435 190 266.034 191.426 269.797 194.278C273.977 197.13 277.322 198.556 279.831 198.556C282.757 198.556 285.684 199.778 288.61 202.222C291.537 204.667 293 208.13 293 212.611C293 215.463 292.164 217.907 290.492 219.944C288.819 221.574 285.893 223.815 281.712 226.667C277.531 229.519 275.441 231.963 275.441 234V238.278C275.441 240.315 277.74 243.574 282.339 248.056C287.356 252.537 289.864 256.611 289.864 260.278C289.864 263.944 287.356 268.019 282.339 272.5C277.74 276.981 275.441 280.241 275.441 282.278V286.556C275.441 288.593 277.113 290.833 280.458 293.278C283.802 295.315 286.729 297.556 289.237 300C291.746 302.037 293 304.685 293 307.944C293 312.019 291.328 315.481 287.983 318.333C285.056 320.778 281.294 322 276.695 322C273.35 322 270.006 321.185 266.661 319.556C263.734 317.519 260.181 316.5 256 316.5C251.819 316.5 248.056 317.519 244.712 319.556C241.785 321.185 238.65 322 235.305 322ZM241 261C241 263.761 243.239 266 246 266H266C268.761 266 271 263.761 271 261C271 258.239 268.761 256 266 256H246C243.239 256 241 258.239 241 261ZM256 309C258.761 309 261 306.761 261 304V274H251V304C251 306.761 253.239 309 256 309ZM251 248H261V222.912C265.131 221.016 268 216.843 268 212C268 205.373 262.627 200 256 200C249.373 200 244 205.373 244 212C244 216.843 246.869 221.016 251 222.912V248Z" fill="#969696"/>
<path fill-rule="evenodd" clip-rule="evenodd" d="M235.305 477C230.706 477 226.734 475.778 223.39 473.333C220.463 470.481 219 467.019 219 462.944C219 460.093 219.836 457.852 221.508 456.222C223.181 454.185 226.107 451.741 230.288 448.889C234.469 446.037 236.559 443.593 236.559 441.556V437.278C236.559 435.241 234.051 431.981 229.034 427.5C224.435 423.019 222.136 418.944 222.136 415.278C222.136 411.611 224.435 407.537 229.034 403.056C234.051 398.574 236.559 395.315 236.559 393.278V389C236.559 386.963 234.887 384.926 231.542 382.889C228.198 380.444 225.271 378.204 222.763 376.167C220.254 373.722 219 370.87 219 367.611C219 363.13 220.463 359.667 223.39 357.222C226.316 354.778 229.243 353.556 232.169 353.556C234.678 353.556 237.814 352.13 241.576 349.278C245.757 346.426 250.565 345 256 345C261.435 345 266.034 346.426 269.797 349.278C273.977 352.13 277.322 353.556 279.831 353.556C282.757 353.556 285.684 354.778 288.61 357.222C291.537 359.667 293 363.13 293 367.611C293 370.463 292.164 372.907 290.492 374.944C288.819 376.574 285.893 378.815 281.712 381.667C277.531 384.519 275.441 386.963 275.441 389V393.278C275.441 395.315 277.74 398.574 282.339 403.056C287.356 407.537 289.864 411.611 289.864 415.278C289.864 418.944 287.356 423.019 282.339 427.5C277.74 431.981 275.441 435.241 275.441 437.278V441.556C275.441 443.593 277.113 445.833 280.458 448.278C283.802 450.315 286.729 452.556 289.237 455C291.746 457.037 293 459.685 293 462.944C293 467.019 291.328 470.481 287.983 473.333C285.056 475.778 281.294 477 276.695 477C273.35 477 270.006 476.185 266.661 474.556C263.734 472.519 260.181 471.5 256 471.5C251.819 471.5 248.056 472.519 244.712 474.556C241.785 476.185 238.65 477 235.305 477ZM241 416C241 418.761 243.239 421 246 421H266C268.761 421 271 418.761 271 416C271 413.239 268.761 411 266 411H246C243.239 411 241 413.239 241 416ZM256 464C258.761 464 261 461.761 261 459V429H251V459C251 461.761 253.239 464 256 464ZM251 403H261V377.912C265.131 376.016 268 371.843 268 367C268 360.373 262.627 355 256 355C249.373 355 244 360.373 244 367C244 371.843 246.869 376.016 251 377.912V403Z" fill="#969696"/>
<path fill-rule="evenodd" clip-rule="evenodd" d="M345.305 477C340.706 477 336.734 475.778 333.39 473.333C330.463 470.481 329 467.019 329 462.944C329 460.093 329.836 457.852 331.508 456.222C333.181 454.185 336.107 451.741 340.288 448.889C344.469 446.037 346.559 443.593 346.559 441.556V437.278C346.559 435.241 344.051 431.981 339.034 427.5C334.435 423.019 332.136 418.944 332.136 415.278C332.136 411.611 334.435 407.537 339.034 403.056C344.051 398.574 346.559 395.315 346.559 393.278V389C346.559 386.963 344.887 384.926 341.542 382.889C338.198 380.444 335.271 378.204 332.763 376.167C330.254 373.722 329 370.87 329 367.611C329 363.13 330.463 359.667 333.39 357.222C336.316 354.778 339.243 353.556 342.169 353.556C344.678 353.556 347.814 352.13 351.576 349.278C355.757 346.426 360.565 345 366 345C371.435 345 376.034 346.426 379.797 349.278C383.977 352.13 387.322 353.556 389.831 353.556C392.757 353.556 395.684 354.778 398.61 357.222C401.537 359.667 403 363.13 403 367.611C403 370.463 402.164 372.907 400.492 374.944C398.819 376.574 395.893 378.815 391.712 381.667C387.531 384.519 385.441 386.963 385.441 389V393.278C385.441 395.315 387.74 398.574 392.339 403.056C397.356 407.537 399.864 411.611 399.864 415.278C399.864 418.944 397.356 423.019 392.339 427.5C387.74 431.981 385.441 435.241 385.441 437.278V441.556C385.441 443.593 387.113 445.833 390.458 448.278C393.802 450.315 396.729 452.556 399.237 455C401.746 457.037 403 459.685 403 462.944C403 467.019 401.328 470.481 397.983 473.333C395.056 475.778 391.294 477 386.695 477C383.35 477 380.006 476.185 376.661 474.556C373.734 472.519 370.181 471.5 366 471.5C361.819 471.5 358.056 472.519 354.712 474.556C351.785 476.185 348.65 477 345.305 477ZM351 416C351 418.761 353.239 421 356 421H376C378.761 421 381 418.761 381 416C381 413.239 378.761 411 376 411H356C353.239 411 351 413.239 351 416ZM366 464C368.761 464 371 461.761 371 459V429H361V459C361 461.761 363.239 464 366 464ZM361 403H371V377.912C375.131 376.016 378 371.843 378 367C378 360.373 372.627 355 366 355C359.373 355 354 360.373 354 367C354 371.843 356.869 376.016 361 377.912V403Z" fill="#969696"/>
<path fill-rule="evenodd" clip-rule="evenodd" d="M345.305 322C340.706 322 336.734 320.778 333.39 318.333C330.463 315.481 329 312.019 329 307.944C329 305.093 329.836 302.852 331.508 301.222C333.181 299.185 336.107 296.741 340.288 293.889C344.469 291.037 346.559 288.593 346.559 286.556V282.278C346.559 280.241 344.051 276.981 339.034 272.5C334.435 268.019 332.136 263.944 332.136 260.278C332.136 256.611 334.435 252.537 339.034 248.056C344.051 243.574 346.559 240.315 346.559 238.278V234C346.559 231.963 344.887 229.926 341.542 227.889C338.198 225.444 335.271 223.204 332.763 221.167C330.254 218.722 329 215.87 329 212.611C329 208.13 330.463 204.667 333.39 202.222C336.316 199.778 339.243 198.556 342.169 198.556C344.678 198.556 347.814 197.13 351.576 194.278C355.757 191.426 360.565 190 366 190C371.435 190 376.034 191.426 379.797 194.278C383.977 197.13 387.322 198.556 389.831 198.556C392.757 198.556 395.684 199.778 398.61 202.222C401.537 204.667 403 208.13 403 212.611C403 215.463 402.164 217.907 400.492 219.944C398.819 221.574 395.893 223.815 391.712 226.667C387.531 229.519 385.441 231.963 385.441 234V238.278C385.441 240.315 387.74 243.574 392.339 248.056C397.356 252.537 399.864 256.611 399.864 260.278C399.864 263.944 397.356 268.019 392.339 272.5C387.74 276.981 385.441 280.241 385.441 282.278V286.556C385.441 288.593 387.113 290.833 390.458 293.278C393.802 295.315 396.729 297.556 399.237 300C401.746 302.037 403 304.685 403 307.944C403 312.019 401.328 315.481 397.983 318.333C395.056 320.778 391.294 322 386.695 322C383.35 322 380.006 321.185 376.661 319.556C373.734 317.519 370.181 316.5 366 316.5C361.819 316.5 358.056 317.519 354.712 319.556C351.785 321.185 348.65 322 345.305 322ZM351 261C351 263.761 353.239 266 356 266H376C378.761 266 381 263.761 381 261C381 258.239 378.761 256 376 256H356C353.239 256 351 258.239 351 261ZM366 309C368.761 309 371 306.761 371 304V274H361V304C361 306.761 363.239 309 366 309ZM361 248H371V222.912C375.131 221.016 378 216.843 378 212C378 205.373 372.627 200 366 200C359.373 200 354 205.373 354 212C354 216.843 356.869 221.016 361 222.912V248Z" fill="#969696"/>
<path fill-rule="evenodd" clip-rule="evenodd" d="M125.305 322C120.706 322 116.734 320.778 113.39 318.333C110.463 315.481 109 312.019 109 307.944C109 305.093 109.836 302.852 111.508 301.222C113.181 299.185 116.107 296.741 120.288 293.889C124.469 291.037 126.559 288.593 126.559 286.556V282.278C126.559 280.241 124.051 276.981 119.034 272.5C114.435 268.019 112.136 263.944 112.136 260.278C112.136 256.611 114.435 252.537 119.034 248.056C124.051 243.574 126.559 240.315 126.559 238.278V234C126.559 231.963 124.887 229.926 121.542 227.889C118.198 225.444 115.271 223.204 112.763 221.167C110.254 218.722 109 215.87 109 212.611C109 208.13 110.463 204.667 113.39 202.222C116.316 199.778 119.243 198.556 122.169 198.556C124.678 198.556 127.814 197.13 131.576 194.278C135.757 191.426 140.565 190 146 190C151.435 190 156.034 191.426 159.797 194.278C163.977 197.13 167.322 198.556 169.831 198.556C172.757 198.556 175.684 199.778 178.61 202.222C181.537 204.667 183 208.13 183 212.611C183 215.463 182.164 217.907 180.492 219.944C178.819 221.574 175.893 223.815 171.712 226.667C167.531 229.519 165.441 231.963 165.441 234V238.278C165.441 240.315 167.74 243.574 172.339 248.056C177.356 252.537 179.864 256.611 179.864 260.278C179.864 263.944 177.356 268.019 172.339 272.5C167.74 276.981 165.441 280.241 165.441 282.278V286.556C165.441 288.593 167.113 290.833 170.458 293.278C173.802 295.315 176.729 297.556 179.237 300C181.746 302.037 183 304.685 183 307.944C183 312.019 181.328 315.481 177.983 318.333C175.056 320.778 171.294 322 166.695 322C163.35 322 160.006 321.185 156.661 319.556C153.734 317.519 150.181 316.5 146 316.5C141.819 316.5 138.056 317.519 134.712 319.556C131.785 321.185 128.65 322 125.305 322ZM131 261C131 263.761 133.239 266 136 266H156C158.761 266 161 263.761 161 261C161 258.239 158.761 256 156 256H136C133.239 256 131 258.239 131 261ZM146 309C148.761 309 151 306.761 151 304V274H141V304C141 306.761 143.239 309 146 309ZM141 248H151V222.912C155.131 221.016 158 216.843 158 212C158 205.373 152.627 200 146 200C139.373 200 134 205.373 134 212C134 216.843 136.869 221.016 141 222.912V248Z" fill="#969696"/>
<path fill-rule="evenodd" clip-rule="evenodd" d="M125.305 477C120.706 477 116.734 475.778 113.39 473.333C110.463 470.481 109 467.019 109 462.944C109 460.093 109.836 457.852 111.508 456.222C113.181 454.185 116.107 451.741 120.288 448.889C124.469 446.037 126.559 443.593 126.559 441.556V437.278C126.559 435.241 124.051 431.981 119.034 427.5C114.435 423.019 112.136 418.944 112.136 415.278C112.136 411.611 114.435 407.537 119.034 403.056C124.051 398.574 126.559 395.315 126.559 393.278V389C126.559 386.963 124.887 384.926 121.542 382.889C118.198 380.444 115.271 378.204 112.763 376.167C110.254 373.722 109 370.87 109 367.611C109 363.13 110.463 359.667 113.39 357.222C116.316 354.778 119.243 353.556 122.169 353.556C124.678 353.556 127.814 352.13 131.576 349.278C135.757 346.426 140.565 345 146 345C151.435 345 156.034 346.426 159.797 349.278C163.977 352.13 167.322 353.556 169.831 353.556C172.757 353.556 175.684 354.778 178.61 357.222C181.537 359.667 183 363.13 183 367.611C183 370.463 182.164 372.907 180.492 374.944C178.819 376.574 175.893 378.815 171.712 381.667C167.531 384.519 165.441 386.963 165.441 389V393.278C165.441 395.315 167.74 398.574 172.339 403.056C177.356 407.537 179.864 411.611 179.864 415.278C179.864 418.944 177.356 423.019 172.339 427.5C167.74 431.981 165.441 435.241 165.441 437.278V441.556C165.441 443.593 167.113 445.833 170.458 448.278C173.802 450.315 176.729 452.556 179.237 455C181.746 457.037 183 459.685 183 462.944C183 467.019 181.328 470.481 177.983 473.333C175.056 475.778 171.294 477 166.695 477C163.35 477 160.006 476.185 156.661 474.556C153.734 472.519 150.181 471.5 146 471.5C141.819 471.5 138.056 472.519 134.712 474.556C131.785 476.185 128.65 477 125.305 477ZM131 416C131 418.761 133.239 421 136 421H156C158.761 421 161 418.761 161 416C161 413.239 158.761 411 156 411H136C133.239 411 131 413.239 131 416ZM146 464C148.761 464 151 461.761 151 459V429H141V459C141 461.761 143.239 464 146 464ZM141 403H151V377.912C155.131 376.016 158 371.843 158 367C158 360.373 152.627 355 146 355C139.373 355 134 360.373 134 367C134 371.843 136.869 376.016 141 377.912V403Z" fill="#969696"/>
<path fill-rule="evenodd" clip-rule="evenodd" d="M235.305 322C230.706 322 226.734 320.778 223.39 318.333C220.463 315.481 219 312.019 219 307.944C219 305.093 219.836 302.852 221.508 301.222C223.181 299.185 226.107 296.741 230.288 293.889C234.469 291.037 236.559 288.593 236.559 286.556V282.278C236.559 280.241 234.051 276.981 229.034 272.5C224.435 268.019 222.136 263.944 222.136 260.278C222.136 256.611 224.435 252.537 229.034 248.056C234.051 243.574 236.559 240.315 236.559 238.278V234C236.559 231.963 234.887 229.926 231.542 227.889C228.198 225.444 225.271 223.204 222.763 221.167C220.254 218.722 219 215.87 219 212.611C219 208.13 220.463 204.667 223.39 202.222C226.316 199.778 229.243 198.556 232.169 198.556C234.678 198.556 237.814 197.13 241.576 194.278C245.757 191.426 250.565 190 256 190C261.435 190 266.034 191.426 269.797 194.278C273.977 197.13 277.322 198.556 279.831 198.556C282.757 198.556 285.684 199.778 288.61 202.222C291.537 204.667 293 208.13 293 212.611C293 215.463 292.164 217.907 290.492 219.944C288.819 221.574 285.893 223.815 281.712 226.667C277.531 229.519 275.441 231.963 275.441 234V238.278C275.441 240.315 277.74 243.574 282.339 248.056C287.356 252.537 289.864 256.611 289.864 260.278C289.864 263.944 287.356 268.019 282.339 272.5C277.74 276.981 275.441 280.241 275.441 282.278V286.556C275.441 288.593 277.113 290.833 280.458 293.278C283.802 295.315 286.729 297.556 289.237 300C291.746 302.037 293 304.685 293 307.944C293 312.019 291.328 315.481 287.983 318.333C285.056 320.778 281.294 322 276.695 322C273.35 322 270.006 321.185 266.661 319.556C263.734 317.519 260.181 316.5 256 316.5C251.819 316.5 248.056 317.519 244.712 319.556C241.785 321.185 238.65 322 235.305 322ZM241 261C241 263.761 243.239 266 246 266H266C268.761 266 271 263.761 271 261C271 258.239 268.761 256 266 256H246C243.239 256 241 258.239 241 261ZM256 309C258.761 309 261 306.761 261 304V274H251V304C251 306.761 253.239 309 256 309ZM251 248H261V222.912C265.131 221.016 268 216.843 268 212C268 205.373 262.627 200 256 200C249.373 200 244 205.373 244 212C244 216.843 246.869 221.016 251 222.912V248Z" stroke="white" stroke-width="4" mask="url(#path-2-inside-1_170_429)"/>
<path fill-rule="evenodd" clip-rule="evenodd" d="M235.305 477C230.706 477 226.734 475.778 223.39 473.333C220.463 470.481 219 467.019 219 462.944C219 460.093 219.836 457.852 221.508 456.222C223.181 454.185 226.107 451.741 230.288 448.889C234.469 446.037 236.559 443.593 236.559 441.556V437.278C236.559 435.241 234.051 431.981 229.034 427.5C224.435 423.019 222.136 418.944 222.136 415.278C222.136 411.611 224.435 407.537 229.034 403.056C234.051 398.574 236.559 395.315 236.559 393.278V389C236.559 386.963 234.887 384.926 231.542 382.889C228.198 380.444 225.271 378.204 222.763 376.167C220.254 373.722 219 370.87 219 367.611C219 363.13 220.463 359.667 223.39 357.222C226.316 354.778 229.243 353.556 232.169 353.556C234.678 353.556 237.814 352.13 241.576 349.278C245.757 346.426 250.565 345 256 345C261.435 345 266.034 346.426 269.797 349.278C273.977 352.13 277.322 353.556 279.831 353.556C282.757 353.556 285.684 354.778 288.61 357.222C291.537 359.667 293 363.13 293 367.611C293 370.463 292.164 372.907 290.492 374.944C288.819 376.574 285.893 378.815 281.712 381.667C277.531 384.519 275.441 386.963 275.441 389V393.278C275.441 395.315 277.74 398.574 282.339 403.056C287.356 407.537 289.864 411.611 289.864 415.278C289.864 418.944 287.356 423.019 282.339 427.5C277.74 431.981 275.441 435.241 275.441 437.278V441.556C275.441 443.593 277.113 445.833 280.458 448.278C283.802 450.315 286.729 452.556 289.237 455C291.746 457.037 293 459.685 293 462.944C293 467.019 291.328 470.481 287.983 473.333C285.056 475.778 281.294 477 276.695 477C273.35 477 270.006 476.185 266.661 474.556C263.734 472.519 260.181 471.5 256 471.5C251.819 471.5 248.056 472.519 244.712 474.556C241.785 476.185 238.65 477 235.305 477ZM241 416C241 418.761 243.239 421 246 421H266C268.761 421 271 418.761 271 416C271 413.239 268.761 411 266 411H246C243.239 411 241 413.239 241 416ZM256 464C258.761 464 261 461.761 261 459V429H251V459C251 461.761 253.239 464 256 464ZM251 403H261V377.912C265.131 376.016 268 371.843 268 367C268 360.373 262.627 355 256 355C249.373 355 244 360.373 244 367C244 371.843 246.869 376.016 251 377.912V403Z" stroke="white" stroke-width="4" mask="url(#path-2-inside-1_170_429)"/>
<path fill-rule="evenodd" clip-rule="evenodd" d="M345.305 477C340.706 477 336.734 475.778 333.39 473.333C330.463 470.481 329 467.019 329 462.944C329 460.093 329.836 457.852 331.508 456.222C333.181 454.185 336.107 451.741 340.288 448.889C344.469 446.037 346.559 443.593 346.559 441.556V437.278C346.559 435.241 344.051 431.981 339.034 427.5C334.435 423.019 332.136 418.944 332.136 415.278C332.136 411.611 334.435 407.537 339.034 403.056C344.051 398.574 346.559 395.315 346.559 393.278V389C346.559 386.963 344.887 384.926 341.542 382.889C338.198 380.444 335.271 378.204 332.763 376.167C330.254 373.722 329 370.87 329 367.611C329 363.13 330.463 359.667 333.39 357.222C336.316 354.778 339.243 353.556 342.169 353.556C344.678 353.556 347.814 352.13 351.576 349.278C355.757 346.426 360.565 345 366 345C371.435 345 376.034 346.426 379.797 349.278C383.977 352.13 387.322 353.556 389.831 353.556C392.757 353.556 395.684 354.778 398.61 357.222C401.537 359.667 403 363.13 403 367.611C403 370.463 402.164 372.907 400.492 374.944C398.819 376.574 395.893 378.815 391.712 381.667C387.531 384.519 385.441 386.963 385.441 389V393.278C385.441 395.315 387.74 398.574 392.339 403.056C397.356 407.537 399.864 411.611 399.864 415.278C399.864 418.944 397.356 423.019 392.339 427.5C387.74 431.981 385.441 435.241 385.441 437.278V441.556C385.441 443.593 387.113 445.833 390.458 448.278C393.802 450.315 396.729 452.556 399.237 455C401.746 457.037 403 459.685 403 462.944C403 467.019 401.328 470.481 397.983 473.333C395.056 475.778 391.294 477 386.695 477C383.35 477 380.006 476.185 376.661 474.556C373.734 472.519 370.181 471.5 366 471.5C361.819 471.5 358.056 472.519 354.712 474.556C351.785 476.185 348.65 477 345.305 477ZM351 416C351 418.761 353.239 421 356 421H376C378.761 421 381 418.761 381 416C381 413.239 378.761 411 376 411H356C353.239 411 351 413.239 351 416ZM366 464C368.761 464 371 461.761 371 459V429H361V459C361 461.761 363.239 464 366 464ZM361 403H371V377.912C375.131 376.016 378 371.843 378 367C378 360.373 372.627 355 366 355C359.373 355 354 360.373 354 367C354 371.843 356.869 376.016 361 377.912V403Z" stroke="white" stroke-width="4" mask="url(#path-2-inside-1_170_429)"/>
<path fill-rule="evenodd" clip-rule="evenodd" d="M345.305 322C340.706 322 336.734 320.778 333.39 318.333C330.463 315.481 329 312.019 329 307.944C329 305.093 329.836 302.852 331.508 301.222C333.181 299.185 336.107 296.741 340.288 293.889C344.469 291.037 346.559 288.593 346.559 286.556V282.278C346.559 280.241 344.051 276.981 339.034 272.5C334.435 268.019 332.136 263.944 332.136 260.278C332.136 256.611 334.435 252.537 339.034 248.056C344.051 243.574 346.559 240.315 346.559 238.278V234C346.559 231.963 344.887 229.926 341.542 227.889C338.198 225.444 335.271 223.204 332.763 221.167C330.254 218.722 329 215.87 329 212.611C329 208.13 330.463 204.667 333.39 202.222C336.316 199.778 339.243 198.556 342.169 198.556C344.678 198.556 347.814 197.13 351.576 194.278C355.757 191.426 360.565 190 366 190C371.435 190 376.034 191.426 379.797 194.278C383.977 197.13 387.322 198.556 389.831 198.556C392.757 198.556 395.684 199.778 398.61 202.222C401.537 204.667 403 208.13 403 212.611C403 215.463 402.164 217.907 400.492 219.944C398.819 221.574 395.893 223.815 391.712 226.667C387.531 229.519 385.441 231.963 385.441 234V238.278C385.441 240.315 387.74 243.574 392.339 248.056C397.356 252.537 399.864 256.611 399.864 260.278C399.864 263.944 397.356 268.019 392.339 272.5C387.74 276.981 385.441 280.241 385.441 282.278V286.556C385.441 288.593 387.113 290.833 390.458 293.278C393.802 295.315 396.729 297.556 399.237 300C401.746 302.037 403 304.685 403 307.944C403 312.019 401.328 315.481 397.983 318.333C395.056 320.778 391.294 322 386.695 322C383.35 322 380.006 321.185 376.661 319.556C373.734 317.519 370.181 316.5 366 316.5C361.819 316.5 358.056 317.519 354.712 319.556C351.785 321.185 348.65 322 345.305 322ZM351 261C351 263.761 353.239 266 356 266H376C378.761 266 381 263.761 381 261C381 258.239 378.761 256 376 256H356C353.239 256 351 258.239 351 261ZM366 309C368.761 309 371 306.761 371 304V274H361V304C361 306.761 363.239 309 366 309ZM361 248H371V222.912C375.131 221.016 378 216.843 378 212C378 205.373 372.627 200 366 200C359.373 200 354 205.373 354 212C354 216.843 356.869 221.016 361 222.912V248Z" stroke="white" stroke-width="4" mask="url(#path-2-inside-1_170_429)"/>
<path fill-rule="evenodd" clip-rule="evenodd" d="M125.305 322C120.706 322 116.734 320.778 113.39 318.333C110.463 315.481 109 312.019 109 307.944C109 305.093 109.836 302.852 111.508 301.222C113.181 299.185 116.107 296.741 120.288 293.889C124.469 291.037 126.559 288.593 126.559 286.556V282.278C126.559 280.241 124.051 276.981 119.034 272.5C114.435 268.019 112.136 263.944 112.136 260.278C112.136 256.611 114.435 252.537 119.034 248.056C124.051 243.574 126.559 240.315 126.559 238.278V234C126.559 231.963 124.887 229.926 121.542 227.889C118.198 225.444 115.271 223.204 112.763 221.167C110.254 218.722 109 215.87 109 212.611C109 208.13 110.463 204.667 113.39 202.222C116.316 199.778 119.243 198.556 122.169 198.556C124.678 198.556 127.814 197.13 131.576 194.278C135.757 191.426 140.565 190 146 190C151.435 190 156.034 191.426 159.797 194.278C163.977 197.13 167.322 198.556 169.831 198.556C172.757 198.556 175.684 199.778 178.61 202.222C181.537 204.667 183 208.13 183 212.611C183 215.463 182.164 217.907 180.492 219.944C178.819 221.574 175.893 223.815 171.712 226.667C167.531 229.519 165.441 231.963 165.441 234V238.278C165.441 240.315 167.74 243.574 172.339 248.056C177.356 252.537 179.864 256.611 179.864 260.278C179.864 263.944 177.356 268.019 172.339 272.5C167.74 276.981 165.441 280.241 165.441 282.278V286.556C165.441 288.593 167.113 290.833 170.458 293.278C173.802 295.315 176.729 297.556 179.237 300C181.746 302.037 183 304.685 183 307.944C183 312.019 181.328 315.481 177.983 318.333C175.056 320.778 171.294 322 166.695 322C163.35 322 160.006 321.185 156.661 319.556C153.734 317.519 150.181 316.5 146 316.5C141.819 316.5 138.056 317.519 134.712 319.556C131.785 321.185 128.65 322 125.305 322ZM131 261C131 263.761 133.239 266 136 266H156C158.761 266 161 263.761 161 261C161 258.239 158.761 256 156 256H136C133.239 256 131 258.239 131 261ZM146 309C148.761 309 151 306.761 151 304V274H141V304C141 306.761 143.239 309 146 309ZM141 248H151V222.912C155.131 221.016 158 216.843 158 212C158 205.373 152.627 200 146 200C139.373 200 134 205.373 134 212C134 216.843 136.869 221.016 141 222.912V248Z" stroke="white" stroke-width="4" mask="url(#path-2-inside-1_170_429)"/>
<path fill-rule="evenodd" clip-rule="evenodd" d="M125.305 477C120.706 477 116.734 475.778 113.39 473.333C110.463 470.481 109 467.019 109 462.944C109 460.093 109.836 457.852 111.508 456.222C113.181 454.185 116.107 451.741 120.288 448.889C124.469 446.037 126.559 443.593 126.559 441.556V437.278C126.559 435.241 124.051 431.981 119.034 427.5C114.435 423.019 112.136 418.944 112.136 415.278C112.136 411.611 114.435 407.537 119.034 403.056C124.051 398.574 126.559 395.315 126.559 393.278V389C126.559 386.963 124.887 384.926 121.542 382.889C118.198 380.444 115.271 378.204 112.763 376.167C110.254 373.722 109 370.87 109 367.611C109 363.13 110.463 359.667 113.39 357.222C116.316 354.778 119.243 353.556 122.169 353.556C124.678 353.556 127.814 352.13 131.576 349.278C135.757 346.426 140.565 345 146 345C151.435 345 156.034 346.426 159.797 349.278C163.977 352.13 167.322 353.556 169.831 353.556C172.757 353.556 175.684 354.778 178.61 357.222C181.537 359.667 183 363.13 183 367.611C183 370.463 182.164 372.907 180.492 374.944C178.819 376.574 175.893 378.815 171.712 381.667C167.531 384.519 165.441 386.963 165.441 389V393.278C165.441 395.315 167.74 398.574 172.339 403.056C177.356 407.537 179.864 411.611 179.864 415.278C179.864 418.944 177.356 423.019 172.339 427.5C167.74 431.981 165.441 435.241 165.441 437.278V441.556C165.441 443.593 167.113 445.833 170.458 448.278C173.802 450.315 176.729 452.556 179.237 455C181.746 457.037 183 459.685 183 462.944C183 467.019 181.328 470.481 177.983 473.333C175.056 475.778 171.294 477 166.695 477C163.35 477 160.006 476.185 156.661 474.556C153.734 472.519 150.181 471.5 146 471.5C141.819 471.5 138.056 472.519 134.712 474.556C131.785 476.185 128.65 477 125.305 477ZM131 416C131 418.761 133.239 421 136 421H156C158.761 421 161 418.761 161 416C161 413.239 158.761 411 156 411H136C133.239 411 131 413.239 131 416ZM146 464C148.761 464 151 461.761 151 459V429H141V459C141 461.761 143.239 464 146 464ZM141 403H151V377.912C155.131 376.016 158 371.843 158 367C158 360.373 152.627 355 146 355C139.373 355 134 360.373 134 367C134 371.843 136.869 376.016 141 377.912V403Z" stroke="white" stroke-width="4" mask="url(#path-2-inside-1_170_429)"/>
<mask id="path-3-inside-2_170_429" fill="white">
<path fill-rule="evenodd" clip-rule="evenodd" d="M235.305 167C230.706 167 226.734 165.778 223.39 163.333C220.463 160.481 219 157.019 219 152.944C219 150.093 219.836 147.852 221.508 146.222C223.181 144.185 226.107 141.741 230.288 138.889C234.469 136.037 236.559 133.593 236.559 131.556V127.278C236.559 125.241 234.051 121.981 229.034 117.5C224.435 113.019 222.136 108.944 222.136 105.278C222.136 101.611 224.435 97.537 229.034 93.0556C234.051 88.5741 236.559 85.3148 236.559 83.2778V79C236.559 76.963 234.887 74.9259 231.542 72.8889C228.198 70.4444 225.271 68.2037 222.763 66.1667C220.254 63.7222 219 60.8704 219 57.6111C219 53.1296 220.463 49.6667 223.39 47.2222C226.316 44.7778 229.243 43.5556 232.169 43.5556C234.678 43.5556 237.814 42.1296 241.576 39.2778C245.757 36.4259 250.565 35 256 35C261.435 35 266.034 36.4259 269.797 39.2778C273.977 42.1296 277.322 43.5556 279.831 43.5556C282.757 43.5556 285.684 44.7778 288.61 47.2222C291.537 49.6667 293 53.1296 293 57.6111C293 60.463 292.164 62.9074 290.492 64.9444C288.819 66.5741 285.893 68.8148 281.712 71.6667C277.531 74.5185 275.441 76.963 275.441 79V83.2778C275.441 85.3148 277.74 88.5741 282.339 93.0556C287.356 97.537 289.864 101.611 289.864 105.278C289.864 108.944 287.356 113.019 282.339 117.5C277.74 121.981 275.441 125.241 275.441 127.278V131.556C275.441 133.593 277.113 135.833 280.458 138.278C283.802 140.315 286.729 142.556 289.237 145C291.746 147.037 293 149.685 293 152.944C293 157.019 291.328 160.481 287.983 163.333C285.056 165.778 281.294 167 276.695 167C273.35 167 270.006 166.185 266.661 164.556C263.734 162.519 260.181 161.5 256 161.5C251.819 161.5 248.056 162.519 244.712 164.556C241.785 166.185 238.65 167 235.305 167ZM241 106C241 108.761 243.239 111 246 111H266C268.761 111 271 108.761 271 106C271 103.239 268.761 101 266 101H246C243.239 101 241 103.239 241 106ZM256 154C258.761 154 261 151.761 261 149V119H251V149C251 151.761 253.239 154 256 154ZM251 93H261V67.9119C265.131 66.0159 268 61.843 268 57C268 50.3726 262.627 45 256 45C249.373 45 244 50.3726 244 57C244 61.843 246.869 66.0159 251 67.9119V93Z"/>
</mask>
<path fill-rule="evenodd" clip-rule="evenodd" d="M235.305 167C230.706 167 226.734 165.778 223.39 163.333C220.463 160.481 219 157.019 219 152.944C219 150.093 219.836 147.852 221.508 146.222C223.181 144.185 226.107 141.741 230.288 138.889C234.469 136.037 236.559 133.593 236.559 131.556V127.278C236.559 125.241 234.051 121.981 229.034 117.5C224.435 113.019 222.136 108.944 222.136 105.278C222.136 101.611 224.435 97.537 229.034 93.0556C234.051 88.5741 236.559 85.3148 236.559 83.2778V79C236.559 76.963 234.887 74.9259 231.542 72.8889C228.198 70.4444 225.271 68.2037 222.763 66.1667C220.254 63.7222 219 60.8704 219 57.6111C219 53.1296 220.463 49.6667 223.39 47.2222C226.316 44.7778 229.243 43.5556 232.169 43.5556C234.678 43.5556 237.814 42.1296 241.576 39.2778C245.757 36.4259 250.565 35 256 35C261.435 35 266.034 36.4259 269.797 39.2778C273.977 42.1296 277.322 43.5556 279.831 43.5556C282.757 43.5556 285.684 44.7778 288.61 47.2222C291.537 49.6667 293 53.1296 293 57.6111C293 60.463 292.164 62.9074 290.492 64.9444C288.819 66.5741 285.893 68.8148 281.712 71.6667C277.531 74.5185 275.441 76.963 275.441 79V83.2778C275.441 85.3148 277.74 88.5741 282.339 93.0556C287.356 97.537 289.864 101.611 289.864 105.278C289.864 108.944 287.356 113.019 282.339 117.5C277.74 121.981 275.441 125.241 275.441 127.278V131.556C275.441 133.593 277.113 135.833 280.458 138.278C283.802 140.315 286.729 142.556 289.237 145C291.746 147.037 293 149.685 293 152.944C293 157.019 291.328 160.481 287.983 163.333C285.056 165.778 281.294 167 276.695 167C273.35 167 270.006 166.185 266.661 164.556C263.734 162.519 260.181 161.5 256 161.5C251.819 161.5 248.056 162.519 244.712 164.556C241.785 166.185 238.65 167 235.305 167ZM241 106C241 108.761 243.239 111 246 111H266C268.761 111 271 108.761 271 106C271 103.239 268.761 101 266 101H246C243.239 101 241 103.239 241 106ZM256 154C258.761 154 261 151.761 261 149V119H251V149C251 151.761 253.239 154 256 154ZM251 93H261V67.9119C265.131 66.0159 268 61.843 268 57C268 50.3726 262.627 45 256 45C249.373 45 244 50.3726 244 57C244 61.843 246.869 66.0159 251 67.9119V93Z" fill="#969696"/>
<path d="M223.39 163.333L221.994 164.766L222.095 164.865L222.21 164.948L223.39 163.333ZM221.508 146.222L222.904 147.655L222.984 147.577L223.054 147.491L221.508 146.222ZM229.034 117.5L227.638 118.932L227.669 118.963L227.702 118.992L229.034 117.5ZM229.034 93.0556L227.702 91.564L227.669 91.5929L227.638 91.6232L229.034 93.0556ZM231.542 72.8889L230.362 74.5036L230.43 74.5532L230.502 74.597L231.542 72.8889ZM222.763 66.1667L221.367 67.5991L221.432 67.6622L221.502 67.7192L222.763 66.1667ZM241.576 39.2778L240.449 37.6256L240.408 37.6537L240.368 37.6839L241.576 39.2778ZM269.797 39.2778L268.589 40.8717L268.628 40.9019L268.67 40.93L269.797 39.2778ZM290.492 64.9444L291.887 66.3768L291.967 66.2993L292.037 66.2135L290.492 64.9444ZM282.339 93.0556L280.943 94.4879L280.974 94.5182L281.007 94.5471L282.339 93.0556ZM282.339 117.5L281.007 116.008L280.974 116.037L280.943 116.068L282.339 117.5ZM280.458 138.278L279.278 139.893L279.345 139.942L279.417 139.986L280.458 138.278ZM289.237 145L287.841 146.432L287.906 146.496L287.976 146.553L289.237 145ZM287.983 163.333L289.265 164.868L289.273 164.862L289.281 164.855L287.983 163.333ZM266.661 164.556L265.518 166.197L265.646 166.286L265.785 166.354L266.661 164.556ZM244.712 164.556L245.685 166.303L245.719 166.284L245.752 166.264L244.712 164.556ZM261 93V95H263V93H261ZM251 93H249V95H251V93ZM251 119V117H249V119H251ZM261 119H263V117H261V119ZM251 67.9119H253V66.6293L251.834 66.0942L251 67.9119ZM261 67.9119L260.166 66.0942L259 66.6293V67.9119H261ZM235.305 165C231.081 165 227.534 163.885 224.57 161.719L222.21 164.948C225.934 167.67 230.331 169 235.305 169V165ZM224.786 161.901C222.244 159.424 221 156.477 221 152.944H217C217 157.56 218.682 161.539 221.994 164.766L224.786 161.901ZM221 152.944C221 150.504 221.701 148.827 222.904 147.655L220.113 144.79C217.971 146.877 217 149.681 217 152.944H221ZM223.054 147.491C224.541 145.68 227.275 143.365 231.415 140.541L229.161 137.237C224.939 140.116 221.821 142.69 219.963 144.953L223.054 147.491ZM231.415 140.541C233.578 139.066 235.305 137.627 236.512 136.217C237.697 134.831 238.559 133.259 238.559 131.556H234.559C234.559 131.889 234.377 132.558 233.472 133.617C232.587 134.651 231.179 135.86 229.161 137.237L231.415 140.541ZM238.559 131.556V127.278H234.559V131.556H238.559ZM238.559 127.278C238.559 125.551 237.557 123.768 236.263 122.086C234.901 120.316 232.917 118.287 230.366 116.008L227.702 118.992C230.168 121.195 231.947 123.036 233.093 124.525C234.307 126.103 234.559 126.968 234.559 127.278H238.559ZM230.43 116.068C225.948 111.7 224.136 108.119 224.136 105.278H220.136C220.136 109.77 222.922 114.337 227.638 118.932L230.43 116.068ZM224.136 105.278C224.136 102.437 225.948 98.8555 230.43 94.4879L227.638 91.6232C222.922 96.2185 220.136 100.786 220.136 105.278H224.136ZM230.366 94.5471C232.917 92.2687 234.901 90.2396 236.263 88.4698C237.557 86.7881 238.559 85.0049 238.559 83.2778H234.559C234.559 83.5877 234.307 84.4527 233.093 86.0302C231.947 87.5197 230.168 89.3609 227.702 91.564L230.366 94.5471ZM238.559 83.2778V79H234.559V83.2778H238.559ZM238.559 79C238.559 75.8147 235.996 73.2594 232.583 71.1808L230.502 74.597C233.778 76.5924 234.559 78.1112 234.559 79H238.559ZM232.722 71.2742C229.398 68.8445 226.499 66.6248 224.023 64.6141L221.502 67.7192C224.043 69.7826 226.997 72.0444 230.362 74.5036L232.722 71.2742ZM224.159 64.7343C222.004 62.6351 221 60.2879 221 57.6111H217C217 61.4529 218.504 64.8094 221.367 67.5991L224.159 64.7343ZM221 57.6111C221 53.6071 222.282 50.7535 224.672 48.7572L222.108 45.6873C218.645 48.5799 217 52.6522 217 57.6111H221ZM224.672 48.7572C227.349 46.5209 229.838 45.5556 232.169 45.5556V41.5556C228.648 41.5556 225.283 43.0347 222.108 45.6873L224.672 48.7572ZM232.169 45.5556C235.358 45.5556 238.938 43.7866 242.784 40.8717L240.368 37.6839C236.689 40.4727 233.998 41.5556 232.169 41.5556V45.5556ZM242.703 40.93C246.527 38.3217 250.936 37 256 37V33C250.194 33 244.987 34.5301 240.449 37.6256L242.703 40.93ZM256 37C261.068 37 265.225 38.322 268.589 40.8717L271.005 37.6839C266.843 34.5298 261.802 33 256 33V37ZM268.67 40.93C272.904 43.8183 276.68 45.5556 279.831 45.5556V41.5556C277.964 41.5556 275.051 40.441 270.924 37.6256L268.67 40.93ZM279.831 45.5556C282.162 45.5556 284.651 46.5209 287.328 48.7572L289.892 45.6873C286.717 43.0347 283.352 41.5556 279.831 41.5556V45.5556ZM287.328 48.7572C289.718 50.7535 291 53.6071 291 57.6111H295C295 52.6522 293.355 48.5799 289.892 45.6873L287.328 48.7572ZM291 57.6111C291 60.0409 290.3 62.0264 288.946 63.6754L292.037 66.2135C294.028 63.7885 295 60.8851 295 57.6111H291ZM289.096 63.5121C287.557 65.0118 284.754 67.1706 280.585 70.0145L282.839 73.3189C287.031 70.459 290.082 68.1363 291.887 66.3768L289.096 63.5121ZM280.585 70.0145C278.422 71.49 276.695 72.9287 275.488 74.339C274.303 75.725 273.441 77.2963 273.441 79H277.441C277.441 78.6667 277.623 77.9972 278.528 76.9387C279.413 75.9047 280.821 74.6952 282.839 73.3189L280.585 70.0145ZM273.441 79V83.2778H277.441V79H273.441ZM273.441 83.2778C273.441 84.9489 274.335 86.7074 275.531 88.403C276.781 90.1745 278.602 92.2065 280.943 94.4879L283.735 91.6232C281.477 89.4231 279.849 87.5848 278.799 86.097C277.696 84.5333 277.441 83.6437 277.441 83.2778H273.441ZM281.007 94.5471C285.925 98.9408 287.864 102.506 287.864 105.278H291.864C291.864 100.716 288.787 96.1333 283.671 91.564L281.007 94.5471ZM287.864 105.278C287.864 108.049 285.925 111.615 281.007 116.008L283.671 118.992C288.787 114.422 291.864 109.84 291.864 105.278H287.864ZM280.943 116.068C278.602 118.349 276.781 120.381 275.531 122.153C274.335 123.848 273.441 125.607 273.441 127.278H277.441C277.441 126.912 277.696 126.022 278.799 124.459C279.849 122.971 281.477 121.132 283.735 118.932L280.943 116.068ZM273.441 127.278V131.556H277.441V127.278H273.441ZM273.441 131.556C273.441 133.14 274.092 134.621 275.092 135.96C276.09 137.297 277.514 138.604 279.278 139.893L281.638 136.663C280.057 135.508 278.972 134.471 278.298 133.568C277.625 132.666 277.441 132.008 277.441 131.556H273.441ZM279.417 139.986C282.648 141.954 285.453 144.104 287.841 146.432L290.633 143.568C288.005 141.007 284.956 138.676 281.498 136.57L279.417 139.986ZM287.976 146.553C290.013 148.206 291 150.282 291 152.944H295C295 149.089 293.479 145.868 290.498 143.447L287.976 146.553ZM291 152.944C291 156.382 289.624 159.306 286.685 161.811L289.281 164.855C293.031 161.657 295 157.655 295 152.944H291ZM286.701 161.798C284.204 163.884 280.926 165 276.695 165V169C281.662 169 285.909 167.672 289.265 164.868L286.701 161.798ZM276.695 165C273.687 165 270.64 164.269 267.537 162.758L265.785 166.354C269.372 168.101 273.014 169 276.695 169V165ZM267.804 162.914C264.487 160.605 260.517 159.5 256 159.5V163.5C259.845 163.5 262.982 164.432 265.518 166.197L267.804 162.914ZM256 159.5C251.478 159.5 247.351 160.607 243.672 162.847L245.752 166.264C248.762 164.431 252.16 163.5 256 163.5V159.5ZM243.739 162.808C241.109 164.272 238.309 165 235.305 165V169C238.991 169 242.461 168.098 245.685 166.303L243.739 162.808ZM246 109C244.343 109 243 107.657 243 106H239C239 109.866 242.134 113 246 113V109ZM243 106C243 104.343 244.343 103 246 103V99C242.134 99 239 102.134 239 106H243ZM259 149C259 150.657 257.657 152 256 152V156C259.866 156 263 152.866 263 149H259ZM256 152C254.343 152 253 150.657 253 149H249C249 152.866 252.134 156 256 156V152ZM269 106C269 107.657 267.657 109 266 109V113C269.866 113 273 109.866 273 106H269ZM266 103C267.657 103 269 104.343 269 106H273C273 102.134 269.866 99 266 99V103ZM246 103H266V99H246V103ZM266 109H246V113H266V109ZM261 91H251V95H261V91ZM251 121H261V117H251V121ZM259 119V149H263V119H259ZM253 149V119H249V149H253ZM246 57C246 51.4772 250.477 47 256 47V43C248.268 43 242 49.268 242 57H246ZM256 47C261.523 47 266 51.4772 266 57H270C270 49.268 263.732 43 256 43V47ZM251.834 66.0942C248.387 64.5122 246 61.0328 246 57H242C242 62.6532 245.351 67.5196 250.166 69.7296L251.834 66.0942ZM253 93V67.9119H249V93H253ZM266 57C266 61.0328 263.613 64.5122 260.166 66.0942L261.834 69.7296C266.649 67.5196 270 62.6532 270 57H266ZM259 67.9119V93H263V67.9119H259Z" fill="white" mask="url(#path-3-inside-2_170_429)"/>
</svg>
