<svg width="512" height="512" viewBox="0 0 512 512" fill="none" xmlns="http://www.w3.org/2000/svg">
<path d="M0 0H512V512H0V0Z" fill="white"/>
<path d="M211.599 419.509C211.599 425.092 207.073 429.617 201.491 429.617C195.908 429.617 191.383 425.092 191.383 419.509C191.383 413.927 195.908 409.401 201.491 409.401C207.073 409.401 211.599 413.927 211.599 419.509Z" fill="#000085"/>
<path d="M210.335 396.115C210.335 401 206.376 404.96 201.491 404.96C196.606 404.96 192.646 401 192.646 396.115C192.646 391.23 196.606 387.27 201.491 387.27C206.376 387.27 210.335 391.23 210.335 396.115Z" fill="#000085"/>
<path d="M232.045 412.198C232.045 417.083 228.085 421.043 223.201 421.043C218.316 421.043 214.356 417.083 214.356 412.198C214.356 407.313 218.316 403.353 223.201 403.353C228.085 403.353 232.045 407.313 232.045 412.198Z" fill="#000085"/>
<path d="M224.005 437.926C224.005 442.811 220.045 446.771 215.16 446.771C210.275 446.771 206.315 442.811 206.315 437.926C206.315 433.042 210.275 429.082 215.16 429.082C220.045 429.082 224.005 433.042 224.005 437.926Z" fill="#000085"/>
<path fill-rule="evenodd" clip-rule="evenodd" d="M244.45 419.509C244.45 443.235 225.216 462.469 201.491 462.469C177.765 462.469 158.531 443.235 158.531 419.509C158.531 395.784 177.765 376.55 201.491 376.55C225.216 376.55 244.45 395.784 244.45 419.509ZM236.87 412.198C236.87 419.747 230.75 425.867 223.201 425.867C222.579 425.867 221.967 425.826 221.368 425.745C225.797 428.007 228.829 432.613 228.829 437.927C228.829 445.476 222.709 451.596 215.16 451.596C207.611 451.596 201.491 445.476 201.491 437.927C201.491 445.476 195.371 451.596 187.822 451.596C180.273 451.596 174.153 445.476 174.153 437.927C174.153 432.613 177.186 428.007 181.614 425.745C181.015 425.826 180.403 425.867 179.781 425.867C172.232 425.867 166.112 419.747 166.112 412.198C166.112 404.649 172.232 398.529 179.781 398.529C183.527 398.529 186.92 400.035 189.389 402.475C188.388 400.575 187.822 398.412 187.822 396.115C187.822 388.566 193.942 382.446 201.491 382.446C209.04 382.446 215.16 388.566 215.16 396.115C215.16 398.411 214.594 400.575 213.594 402.475C216.063 400.035 219.456 398.529 223.201 398.529C230.75 398.529 236.87 404.649 236.87 412.198Z" fill="#000085"/>
<path d="M188.626 412.198C188.626 417.083 184.666 421.043 179.781 421.043C174.896 421.043 170.937 417.083 170.937 412.198C170.937 407.313 174.896 403.353 179.781 403.353C184.666 403.353 188.626 407.313 188.626 412.198Z" fill="#000085"/>
<path d="M196.666 437.926C196.666 442.811 192.707 446.771 187.822 446.771C182.937 446.771 178.977 442.811 178.977 437.926C178.977 433.042 182.937 429.082 187.822 429.082C192.707 429.082 196.666 433.042 196.666 437.926Z" fill="#000085"/>
<path d="M320.605 419.509C320.605 425.092 316.079 429.617 310.497 429.617C304.914 429.617 300.389 425.092 300.389 419.509C300.389 413.927 304.914 409.401 310.497 409.401C316.079 409.401 320.605 413.927 320.605 419.509Z" fill="#000085"/>
<path d="M319.342 396.115C319.342 401 315.382 404.96 310.497 404.96C305.612 404.96 301.652 401 301.652 396.115C301.652 391.23 305.612 387.27 310.497 387.27C315.382 387.27 319.342 391.23 319.342 396.115Z" fill="#000085"/>
<path d="M341.051 412.198C341.051 417.083 337.092 421.043 332.207 421.043C327.322 421.043 323.362 417.083 323.362 412.198C323.362 407.313 327.322 403.353 332.207 403.353C337.092 403.353 341.051 407.313 341.051 412.198Z" fill="#000085"/>
<path d="M333.011 437.926C333.011 442.811 329.051 446.771 324.166 446.771C319.281 446.771 315.322 442.811 315.322 437.926C315.322 433.042 319.281 429.082 324.166 429.082C329.051 429.082 333.011 433.042 333.011 437.926Z" fill="#000085"/>
<path fill-rule="evenodd" clip-rule="evenodd" d="M353.456 419.509C353.456 443.235 334.223 462.469 310.497 462.469C286.771 462.469 267.538 443.235 267.538 419.509C267.538 395.784 286.771 376.55 310.497 376.55C334.223 376.55 353.456 395.784 353.456 419.509ZM345.876 412.198C345.876 419.747 339.756 425.867 332.207 425.867C331.586 425.867 330.974 425.826 330.374 425.745C334.803 428.007 337.835 432.613 337.835 437.927C337.835 445.476 331.716 451.596 324.166 451.596C316.617 451.596 310.497 445.476 310.497 437.927C310.497 445.476 304.377 451.596 296.828 451.596C289.279 451.596 283.159 445.476 283.159 437.927C283.159 432.613 286.192 428.007 290.621 425.745C290.021 425.826 289.409 425.867 288.788 425.867C281.238 425.867 275.119 419.747 275.119 412.198C275.119 404.649 281.238 398.529 288.788 398.529C292.533 398.529 295.926 400.035 298.395 402.475C297.395 400.575 296.829 398.412 296.829 396.115C296.829 388.566 302.948 382.446 310.497 382.446C318.047 382.446 324.166 388.566 324.166 396.115C324.166 398.411 323.6 400.575 322.6 402.475C325.069 400.035 328.462 398.529 332.207 398.529C339.756 398.529 345.876 404.649 345.876 412.198Z" fill="#000085"/>
<path d="M297.632 412.198C297.632 417.083 293.672 421.043 288.787 421.043C283.903 421.043 279.943 417.083 279.943 412.198C279.943 407.313 283.903 403.353 288.787 403.353C293.672 403.353 297.632 407.313 297.632 412.198Z" fill="#000085"/>
<path d="M305.673 437.926C305.673 442.811 301.713 446.771 296.828 446.771C291.943 446.771 287.983 442.811 287.983 437.926C287.983 433.042 291.943 429.082 296.828 429.082C301.713 429.082 305.673 433.042 305.673 437.926Z" fill="#000085"/>
<path fill-rule="evenodd" clip-rule="evenodd" d="M236.87 412.198C236.87 419.747 230.75 425.867 223.201 425.867C222.579 425.867 221.967 425.826 221.368 425.745C225.797 428.007 228.829 432.613 228.829 437.927C228.829 445.476 222.709 451.596 215.16 451.596C207.611 451.596 201.491 445.476 201.491 437.927C201.491 445.476 195.371 451.596 187.822 451.596C180.273 451.596 174.153 445.476 174.153 437.927C174.153 432.613 177.186 428.007 181.614 425.745C181.015 425.826 180.403 425.867 179.781 425.867C172.232 425.867 166.112 419.747 166.112 412.198C166.112 404.649 172.232 398.529 179.781 398.529C183.527 398.529 186.92 400.035 189.389 402.475C188.388 400.575 187.822 398.412 187.822 396.115C187.822 388.566 193.942 382.446 201.491 382.446C209.04 382.446 215.16 388.566 215.16 396.115C215.16 398.411 214.594 400.575 213.594 402.475C216.063 400.035 219.456 398.529 223.201 398.529C230.75 398.529 236.87 404.649 236.87 412.198ZM201.491 429.617C207.073 429.617 211.599 425.092 211.599 419.509C211.599 413.927 207.073 409.401 201.491 409.401C195.908 409.401 191.383 413.927 191.383 419.509C191.383 425.092 195.908 429.617 201.491 429.617ZM223.201 421.043C228.085 421.043 232.045 417.083 232.045 412.198C232.045 407.313 228.085 403.353 223.201 403.353C218.316 403.353 214.356 407.313 214.356 412.198C214.356 417.083 218.316 421.043 223.201 421.043ZM179.781 421.043C184.666 421.043 188.626 417.083 188.626 412.198C188.626 407.313 184.666 403.353 179.781 403.353C174.896 403.353 170.937 407.313 170.937 412.198C170.937 417.083 174.896 421.043 179.781 421.043ZM215.16 446.771C220.045 446.771 224.005 442.811 224.005 437.926C224.005 433.042 220.045 429.082 215.16 429.082C210.275 429.082 206.315 433.042 206.315 437.926C206.315 442.811 210.275 446.771 215.16 446.771ZM187.822 446.771C192.707 446.771 196.666 442.811 196.666 437.926C196.666 433.042 192.707 429.082 187.822 429.082C182.937 429.082 178.977 433.042 178.977 437.926C178.977 442.811 182.937 446.771 187.822 446.771ZM201.491 404.96C206.376 404.96 210.335 401 210.335 396.115C210.335 391.23 206.376 387.27 201.491 387.27C196.606 387.27 192.646 391.23 192.646 396.115C192.646 401 196.606 404.96 201.491 404.96ZM244.45 419.509C244.45 443.235 225.216 462.469 201.491 462.469C177.765 462.469 158.531 443.235 158.531 419.509C158.531 395.784 177.765 376.55 201.491 376.55C225.216 376.55 244.45 395.784 244.45 419.509Z" fill="#000085"/>
<path fill-rule="evenodd" clip-rule="evenodd" d="M310.497 462.469C334.223 462.469 353.456 443.235 353.456 419.509C353.456 395.784 334.223 376.55 310.497 376.55C286.771 376.55 267.538 395.784 267.538 419.509C267.538 443.235 286.771 462.469 310.497 462.469ZM332.207 425.867C339.756 425.867 345.876 419.747 345.876 412.198C345.876 404.649 339.756 398.529 332.207 398.529C328.462 398.529 325.069 400.035 322.6 402.475C323.6 400.575 324.166 398.411 324.166 396.115C324.166 388.566 318.047 382.446 310.497 382.446C302.948 382.446 296.829 388.566 296.829 396.115C296.829 398.412 297.395 400.575 298.395 402.475C295.926 400.035 292.533 398.529 288.788 398.529C281.238 398.529 275.119 404.649 275.119 412.198C275.119 419.747 281.238 425.867 288.788 425.867C289.409 425.867 290.021 425.826 290.621 425.745C286.192 428.007 283.159 432.613 283.159 437.927C283.159 445.476 289.279 451.596 296.828 451.596C304.377 451.596 310.497 445.476 310.497 437.927C310.497 445.476 316.617 451.596 324.166 451.596C331.716 451.596 337.835 445.476 337.835 437.927C337.835 432.613 334.803 428.007 330.374 425.745C330.974 425.826 331.586 425.867 332.207 425.867ZM320.605 419.509C320.605 425.092 316.079 429.617 310.497 429.617C304.914 429.617 300.389 425.092 300.389 419.509C300.389 413.927 304.914 409.401 310.497 409.401C316.079 409.401 320.605 413.927 320.605 419.509ZM341.051 412.198C341.051 417.083 337.092 421.043 332.207 421.043C327.322 421.043 323.362 417.083 323.362 412.198C323.362 407.313 327.322 403.353 332.207 403.353C337.092 403.353 341.051 407.313 341.051 412.198ZM297.632 412.198C297.632 417.083 293.672 421.043 288.787 421.043C283.903 421.043 279.943 417.083 279.943 412.198C279.943 407.313 283.903 403.353 288.787 403.353C293.672 403.353 297.632 407.313 297.632 412.198ZM333.011 437.926C333.011 442.811 329.051 446.771 324.166 446.771C319.281 446.771 315.322 442.811 315.322 437.926C315.322 433.042 319.281 429.082 324.166 429.082C329.051 429.082 333.011 433.042 333.011 437.926ZM305.673 437.926C305.673 442.811 301.713 446.771 296.828 446.771C291.943 446.771 287.983 442.811 287.983 437.926C287.983 433.042 291.943 429.082 296.828 429.082C301.713 429.082 305.673 433.042 305.673 437.926ZM319.342 396.115C319.342 401 315.382 404.96 310.497 404.96C305.612 404.96 301.652 401 301.652 396.115C301.652 391.23 305.612 387.27 310.497 387.27C315.382 387.27 319.342 391.23 319.342 396.115Z" fill="#000085"/>
<path d="M211.599 310.503C211.599 316.086 207.073 320.611 201.491 320.611C195.908 320.611 191.383 316.086 191.383 310.503C191.383 304.921 195.908 300.395 201.491 300.395C207.073 300.395 211.599 304.921 211.599 310.503Z" fill="#000085"/>
<path d="M210.335 287.109C210.335 291.994 206.376 295.954 201.491 295.954C196.606 295.954 192.646 291.994 192.646 287.109C192.646 282.224 196.606 278.264 201.491 278.264C206.376 278.264 210.335 282.224 210.335 287.109Z" fill="#000085"/>
<path d="M232.045 303.192C232.045 308.077 228.085 312.036 223.201 312.036C218.316 312.036 214.356 308.077 214.356 303.192C214.356 298.307 218.316 294.347 223.201 294.347C228.085 294.347 232.045 298.307 232.045 303.192Z" fill="#000085"/>
<path d="M224.005 328.92C224.005 333.805 220.045 337.765 215.16 337.765C210.275 337.765 206.315 333.805 206.315 328.92C206.315 324.035 210.275 320.076 215.16 320.076C220.045 320.076 224.005 324.035 224.005 328.92Z" fill="#000085"/>
<path fill-rule="evenodd" clip-rule="evenodd" d="M244.45 310.503C244.45 334.229 225.216 353.462 201.491 353.462C177.765 353.462 158.531 334.229 158.531 310.503C158.531 286.777 177.765 267.544 201.491 267.544C225.216 267.544 244.45 286.777 244.45 310.503ZM236.87 303.192C236.87 310.741 230.75 316.861 223.201 316.861C222.579 316.861 221.967 316.82 221.368 316.739C225.797 319.001 228.829 323.606 228.829 328.921C228.829 336.47 222.709 342.589 215.16 342.589C207.611 342.589 201.491 336.47 201.491 328.921C201.491 336.47 195.371 342.589 187.822 342.589C180.273 342.589 174.153 336.47 174.153 328.921C174.153 323.606 177.186 319.001 181.614 316.739C181.015 316.82 180.403 316.861 179.781 316.861C172.232 316.861 166.112 310.741 166.112 303.192C166.112 295.643 172.232 289.523 179.781 289.523C183.527 289.523 186.92 291.029 189.389 293.469C188.388 291.569 187.822 289.405 187.822 287.109C187.822 279.56 193.942 273.44 201.491 273.44C209.04 273.44 215.16 279.56 215.16 287.109C215.16 289.405 214.594 291.569 213.594 293.468C216.063 291.029 219.456 289.523 223.201 289.523C230.75 289.523 236.87 295.643 236.87 303.192Z" fill="#000085"/>
<path d="M188.626 303.192C188.626 308.077 184.666 312.036 179.781 312.036C174.896 312.036 170.937 308.077 170.937 303.192C170.937 298.307 174.896 294.347 179.781 294.347C184.666 294.347 188.626 298.307 188.626 303.192Z" fill="#000085"/>
<path d="M196.666 328.92C196.666 333.805 192.707 337.765 187.822 337.765C182.937 337.765 178.977 333.805 178.977 328.92C178.977 324.035 182.937 320.076 187.822 320.076C192.707 320.076 196.666 324.035 196.666 328.92Z" fill="#000085"/>
<path d="M320.605 310.503C320.605 316.086 316.079 320.611 310.497 320.611C304.914 320.611 300.389 316.086 300.389 310.503C300.389 304.921 304.914 300.395 310.497 300.395C316.079 300.395 320.605 304.921 320.605 310.503Z" fill="#000085"/>
<path d="M319.342 287.109C319.342 291.994 315.382 295.954 310.497 295.954C305.612 295.954 301.652 291.994 301.652 287.109C301.652 282.224 305.612 278.264 310.497 278.264C315.382 278.264 319.342 282.224 319.342 287.109Z" fill="#000085"/>
<path d="M341.051 303.192C341.051 308.077 337.092 312.036 332.207 312.036C327.322 312.036 323.362 308.077 323.362 303.192C323.362 298.307 327.322 294.347 332.207 294.347C337.092 294.347 341.051 298.307 341.051 303.192Z" fill="#000085"/>
<path d="M333.011 328.92C333.011 333.805 329.051 337.765 324.166 337.765C319.281 337.765 315.322 333.805 315.322 328.92C315.322 324.035 319.281 320.076 324.166 320.076C329.051 320.076 333.011 324.035 333.011 328.92Z" fill="#000085"/>
<path fill-rule="evenodd" clip-rule="evenodd" d="M353.456 310.503C353.456 334.229 334.223 353.462 310.497 353.462C286.771 353.462 267.538 334.229 267.538 310.503C267.538 286.777 286.771 267.544 310.497 267.544C334.223 267.544 353.456 286.777 353.456 310.503ZM345.876 303.192C345.876 310.741 339.756 316.861 332.207 316.861C331.586 316.861 330.974 316.82 330.374 316.739C334.803 319.001 337.835 323.606 337.835 328.921C337.835 336.47 331.716 342.589 324.166 342.589C316.617 342.589 310.497 336.47 310.497 328.921C310.497 336.47 304.377 342.589 296.828 342.589C289.279 342.589 283.159 336.47 283.159 328.921C283.159 323.606 286.192 319.001 290.621 316.739C290.021 316.82 289.409 316.861 288.788 316.861C281.238 316.861 275.119 310.741 275.119 303.192C275.119 295.643 281.238 289.523 288.788 289.523C292.533 289.523 295.926 291.029 298.395 293.469C297.395 291.569 296.829 289.405 296.829 287.109C296.829 279.56 302.948 273.44 310.497 273.44C318.047 273.44 324.166 279.56 324.166 287.109C324.166 289.405 323.6 291.569 322.6 293.468C325.069 291.029 328.462 289.523 332.207 289.523C339.756 289.523 345.876 295.643 345.876 303.192Z" fill="#000085"/>
<path d="M297.632 303.192C297.632 308.077 293.672 312.036 288.787 312.036C283.903 312.036 279.943 308.077 279.943 303.192C279.943 298.307 283.903 294.347 288.787 294.347C293.672 294.347 297.632 298.307 297.632 303.192Z" fill="#000085"/>
<path d="M305.673 328.92C305.673 333.805 301.713 337.765 296.828 337.765C291.943 337.765 287.983 333.805 287.983 328.92C287.983 324.035 291.943 320.076 296.828 320.076C301.713 320.076 305.673 324.035 305.673 328.92Z" fill="#000085"/>
<path fill-rule="evenodd" clip-rule="evenodd" d="M236.87 303.192C236.87 310.741 230.75 316.861 223.201 316.861C222.579 316.861 221.967 316.82 221.368 316.739C225.797 319.001 228.829 323.606 228.829 328.921C228.829 336.47 222.709 342.589 215.16 342.589C207.611 342.589 201.491 336.47 201.491 328.921C201.491 336.47 195.371 342.589 187.822 342.589C180.273 342.589 174.153 336.47 174.153 328.921C174.153 323.606 177.186 319.001 181.614 316.739C181.015 316.82 180.403 316.861 179.781 316.861C172.232 316.861 166.112 310.741 166.112 303.192C166.112 295.643 172.232 289.523 179.781 289.523C183.527 289.523 186.92 291.029 189.389 293.469C188.388 291.569 187.822 289.405 187.822 287.109C187.822 279.56 193.942 273.44 201.491 273.44C209.04 273.44 215.16 279.56 215.16 287.109C215.16 289.405 214.594 291.569 213.594 293.468C216.063 291.029 219.456 289.523 223.201 289.523C230.75 289.523 236.87 295.643 236.87 303.192ZM201.491 320.611C207.073 320.611 211.599 316.086 211.599 310.503C211.599 304.921 207.073 300.395 201.491 300.395C195.908 300.395 191.383 304.921 191.383 310.503C191.383 316.086 195.908 320.611 201.491 320.611ZM223.201 312.036C228.085 312.036 232.045 308.077 232.045 303.192C232.045 298.307 228.085 294.347 223.201 294.347C218.316 294.347 214.356 298.307 214.356 303.192C214.356 308.077 218.316 312.036 223.201 312.036ZM179.781 312.036C184.666 312.036 188.626 308.077 188.626 303.192C188.626 298.307 184.666 294.347 179.781 294.347C174.896 294.347 170.937 298.307 170.937 303.192C170.937 308.077 174.896 312.036 179.781 312.036ZM215.16 337.765C220.045 337.765 224.005 333.805 224.005 328.92C224.005 324.035 220.045 320.076 215.16 320.076C210.275 320.076 206.315 324.035 206.315 328.92C206.315 333.805 210.275 337.765 215.16 337.765ZM187.822 337.765C192.707 337.765 196.666 333.805 196.666 328.92C196.666 324.035 192.707 320.076 187.822 320.076C182.937 320.076 178.977 324.035 178.977 328.92C178.977 333.805 182.937 337.765 187.822 337.765ZM201.491 295.954C206.376 295.954 210.335 291.994 210.335 287.109C210.335 282.224 206.376 278.264 201.491 278.264C196.606 278.264 192.646 282.224 192.646 287.109C192.646 291.994 196.606 295.954 201.491 295.954ZM244.45 310.503C244.45 334.229 225.216 353.462 201.491 353.462C177.765 353.462 158.531 334.229 158.531 310.503C158.531 286.777 177.765 267.544 201.491 267.544C225.216 267.544 244.45 286.777 244.45 310.503Z" fill="#000085"/>
<path fill-rule="evenodd" clip-rule="evenodd" d="M310.497 353.462C334.223 353.462 353.456 334.229 353.456 310.503C353.456 286.777 334.223 267.544 310.497 267.544C286.771 267.544 267.538 286.777 267.538 310.503C267.538 334.229 286.771 353.462 310.497 353.462ZM332.207 316.861C339.756 316.861 345.876 310.741 345.876 303.192C345.876 295.643 339.756 289.523 332.207 289.523C328.462 289.523 325.069 291.029 322.6 293.468C323.6 291.569 324.166 289.405 324.166 287.109C324.166 279.56 318.047 273.44 310.497 273.44C302.948 273.44 296.829 279.56 296.829 287.109C296.829 289.405 297.395 291.569 298.395 293.469C295.926 291.029 292.533 289.523 288.788 289.523C281.238 289.523 275.119 295.643 275.119 303.192C275.119 310.741 281.238 316.861 288.788 316.861C289.409 316.861 290.021 316.82 290.621 316.739C286.192 319.001 283.159 323.606 283.159 328.921C283.159 336.47 289.279 342.589 296.828 342.589C304.377 342.589 310.497 336.47 310.497 328.921C310.497 336.47 316.617 342.589 324.166 342.589C331.716 342.589 337.835 336.47 337.835 328.921C337.835 323.606 334.803 319.001 330.374 316.739C330.974 316.82 331.586 316.861 332.207 316.861ZM320.605 310.503C320.605 316.086 316.079 320.611 310.497 320.611C304.914 320.611 300.389 316.086 300.389 310.503C300.389 304.921 304.914 300.395 310.497 300.395C316.079 300.395 320.605 304.921 320.605 310.503ZM341.051 303.192C341.051 308.077 337.092 312.036 332.207 312.036C327.322 312.036 323.362 308.077 323.362 303.192C323.362 298.307 327.322 294.347 332.207 294.347C337.092 294.347 341.051 298.307 341.051 303.192ZM297.632 303.192C297.632 308.077 293.672 312.036 288.787 312.036C283.903 312.036 279.943 308.077 279.943 303.192C279.943 298.307 283.903 294.347 288.787 294.347C293.672 294.347 297.632 298.307 297.632 303.192ZM333.011 328.92C333.011 333.805 329.051 337.765 324.166 337.765C319.281 337.765 315.322 333.805 315.322 328.92C315.322 324.035 319.281 320.076 324.166 320.076C329.051 320.076 333.011 324.035 333.011 328.92ZM305.673 328.92C305.673 333.805 301.713 337.765 296.828 337.765C291.943 337.765 287.983 333.805 287.983 328.92C287.983 324.035 291.943 320.076 296.828 320.076C301.713 320.076 305.673 324.035 305.673 328.92ZM319.342 287.109C319.342 291.994 315.382 295.954 310.497 295.954C305.612 295.954 301.652 291.994 301.652 287.109C301.652 282.224 305.612 278.264 310.497 278.264C315.382 278.264 319.342 282.224 319.342 287.109Z" fill="#000085"/>
<path fill-rule="evenodd" clip-rule="evenodd" d="M236.87 303.192C236.87 310.741 230.75 316.861 223.201 316.861C222.579 316.861 221.967 316.82 221.368 316.739C225.797 319.001 228.829 323.606 228.829 328.921C228.829 336.47 222.709 342.589 215.16 342.589C207.611 342.589 201.491 336.47 201.491 328.921C201.491 336.47 195.371 342.589 187.822 342.589C180.273 342.589 174.153 336.47 174.153 328.921C174.153 323.606 177.186 319.001 181.614 316.739C181.015 316.82 180.403 316.861 179.781 316.861C172.232 316.861 166.112 310.741 166.112 303.192C166.112 295.643 172.232 289.523 179.781 289.523C183.527 289.523 186.92 291.029 189.389 293.469C188.388 291.569 187.822 289.405 187.822 287.109C187.822 279.56 193.942 273.44 201.491 273.44C209.04 273.44 215.16 279.56 215.16 287.109C215.16 289.405 214.594 291.569 213.594 293.468C216.063 291.029 219.456 289.523 223.201 289.523C230.75 289.523 236.87 295.643 236.87 303.192ZM201.491 320.611C207.073 320.611 211.599 316.086 211.599 310.503C211.599 304.921 207.073 300.395 201.491 300.395C195.908 300.395 191.383 304.921 191.383 310.503C191.383 316.086 195.908 320.611 201.491 320.611ZM223.201 312.036C228.085 312.036 232.045 308.077 232.045 303.192C232.045 298.307 228.085 294.347 223.201 294.347C218.316 294.347 214.356 298.307 214.356 303.192C214.356 308.077 218.316 312.036 223.201 312.036ZM179.781 312.036C184.666 312.036 188.626 308.077 188.626 303.192C188.626 298.307 184.666 294.347 179.781 294.347C174.896 294.347 170.937 298.307 170.937 303.192C170.937 308.077 174.896 312.036 179.781 312.036ZM215.16 337.765C220.045 337.765 224.005 333.805 224.005 328.92C224.005 324.035 220.045 320.076 215.16 320.076C210.275 320.076 206.315 324.035 206.315 328.92C206.315 333.805 210.275 337.765 215.16 337.765ZM187.822 337.765C192.707 337.765 196.666 333.805 196.666 328.92C196.666 324.035 192.707 320.076 187.822 320.076C182.937 320.076 178.977 324.035 178.977 328.92C178.977 333.805 182.937 337.765 187.822 337.765ZM201.491 295.954C206.376 295.954 210.335 291.994 210.335 287.109C210.335 282.224 206.376 278.264 201.491 278.264C196.606 278.264 192.646 282.224 192.646 287.109C192.646 291.994 196.606 295.954 201.491 295.954ZM244.45 310.503C244.45 334.229 225.216 353.462 201.491 353.462C177.765 353.462 158.531 334.229 158.531 310.503C158.531 286.777 177.765 267.544 201.491 267.544C225.216 267.544 244.45 286.777 244.45 310.503ZM345.876 303.192C345.876 310.741 339.756 316.861 332.207 316.861C331.586 316.861 330.974 316.82 330.374 316.739C334.803 319.001 337.835 323.606 337.835 328.921C337.835 336.47 331.716 342.589 324.166 342.589C316.617 342.589 310.497 336.47 310.497 328.921C310.497 336.47 304.377 342.589 296.828 342.589C289.279 342.589 283.159 336.47 283.159 328.921C283.159 323.606 286.192 319.001 290.621 316.739C290.021 316.82 289.409 316.861 288.788 316.861C281.238 316.861 275.119 310.741 275.119 303.192C275.119 295.643 281.238 289.523 288.788 289.523C292.533 289.523 295.926 291.029 298.395 293.469C297.395 291.569 296.829 289.405 296.829 287.109C296.829 279.56 302.948 273.44 310.497 273.44C318.047 273.44 324.166 279.56 324.166 287.109C324.166 289.405 323.6 291.569 322.6 293.468C325.069 291.029 328.462 289.523 332.207 289.523C339.756 289.523 345.876 295.643 345.876 303.192ZM310.497 320.611C316.079 320.611 320.605 316.086 320.605 310.503C320.605 304.921 316.079 300.395 310.497 300.395C304.914 300.395 300.389 304.921 300.389 310.503C300.389 316.086 304.914 320.611 310.497 320.611ZM332.207 312.036C337.092 312.036 341.051 308.077 341.051 303.192C341.051 298.307 337.092 294.347 332.207 294.347C327.322 294.347 323.362 298.307 323.362 303.192C323.362 308.077 327.322 312.036 332.207 312.036ZM288.787 312.036C293.672 312.036 297.632 308.077 297.632 303.192C297.632 298.307 293.672 294.347 288.787 294.347C283.903 294.347 279.943 298.307 279.943 303.192C279.943 308.077 283.903 312.036 288.787 312.036ZM324.166 337.765C329.051 337.765 333.011 333.805 333.011 328.92C333.011 324.035 329.051 320.076 324.166 320.076C319.281 320.076 315.322 324.035 315.322 328.92C315.322 333.805 319.281 337.765 324.166 337.765ZM296.828 337.765C301.713 337.765 305.673 333.805 305.673 328.92C305.673 324.035 301.713 320.076 296.828 320.076C291.943 320.076 287.983 324.035 287.983 328.92C287.983 333.805 291.943 337.765 296.828 337.765ZM310.497 295.954C315.382 295.954 319.342 291.994 319.342 287.109C319.342 282.224 315.382 278.264 310.497 278.264C305.612 278.264 301.652 282.224 301.652 287.109C301.652 291.994 305.612 295.954 310.497 295.954ZM353.456 310.503C353.456 334.229 334.223 353.462 310.497 353.462C286.771 353.462 267.538 334.229 267.538 310.503C267.538 286.777 286.771 267.544 310.497 267.544C334.223 267.544 353.456 286.777 353.456 310.503Z" fill="#000085"/>
<path fill-rule="evenodd" clip-rule="evenodd" d="M310.497 462.469C334.223 462.469 353.456 443.235 353.456 419.509C353.456 395.784 334.223 376.55 310.497 376.55C286.771 376.55 267.538 395.784 267.538 419.509C267.538 443.235 286.771 462.469 310.497 462.469ZM244.45 419.509C244.45 443.235 225.216 462.469 201.491 462.469C177.765 462.469 158.531 443.235 158.531 419.509C158.531 395.784 177.765 376.55 201.491 376.55C225.216 376.55 244.45 395.784 244.45 419.509ZM236.87 412.198C236.87 419.747 230.75 425.867 223.201 425.867C222.579 425.867 221.967 425.826 221.368 425.745C225.797 428.007 228.829 432.613 228.829 437.927C228.829 445.476 222.709 451.596 215.16 451.596C207.611 451.596 201.491 445.476 201.491 437.927C201.491 445.476 195.371 451.596 187.822 451.596C180.273 451.596 174.153 445.476 174.153 437.927C174.153 432.613 177.186 428.007 181.614 425.745C181.015 425.826 180.403 425.867 179.781 425.867C172.232 425.867 166.112 419.747 166.112 412.198C166.112 404.649 172.232 398.529 179.781 398.529C183.527 398.529 186.92 400.035 189.389 402.475C188.388 400.575 187.822 398.412 187.822 396.115C187.822 388.566 193.942 382.446 201.491 382.446C209.04 382.446 215.16 388.566 215.16 396.115C215.16 398.411 214.594 400.575 213.594 402.475C216.063 400.035 219.456 398.529 223.201 398.529C230.75 398.529 236.87 404.649 236.87 412.198ZM201.491 429.617C207.073 429.617 211.599 425.092 211.599 419.509C211.599 413.927 207.073 409.401 201.491 409.401C195.908 409.401 191.383 413.927 191.383 419.509C191.383 425.092 195.908 429.617 201.491 429.617ZM223.201 421.043C228.085 421.043 232.045 417.083 232.045 412.198C232.045 407.313 228.085 403.353 223.201 403.353C218.316 403.353 214.356 407.313 214.356 412.198C214.356 417.083 218.316 421.043 223.201 421.043ZM179.781 421.043C184.666 421.043 188.626 417.083 188.626 412.198C188.626 407.313 184.666 403.353 179.781 403.353C174.896 403.353 170.937 407.313 170.937 412.198C170.937 417.083 174.896 421.043 179.781 421.043ZM215.16 446.771C220.045 446.771 224.005 442.811 224.005 437.926C224.005 433.042 220.045 429.082 215.16 429.082C210.275 429.082 206.315 433.042 206.315 437.926C206.315 442.811 210.275 446.771 215.16 446.771ZM187.822 446.771C192.707 446.771 196.666 442.811 196.666 437.926C196.666 433.042 192.707 429.082 187.822 429.082C182.937 429.082 178.977 433.042 178.977 437.926C178.977 442.811 182.937 446.771 187.822 446.771ZM201.491 404.96C206.376 404.96 210.335 401 210.335 396.115C210.335 391.23 206.376 387.27 201.491 387.27C196.606 387.27 192.646 391.23 192.646 396.115C192.646 401 196.606 404.96 201.491 404.96ZM332.207 425.867C339.756 425.867 345.876 419.747 345.876 412.198C345.876 404.649 339.756 398.529 332.207 398.529C328.462 398.529 325.069 400.035 322.6 402.475C323.6 400.575 324.166 398.411 324.166 396.115C324.166 388.566 318.047 382.446 310.497 382.446C302.948 382.446 296.829 388.566 296.829 396.115C296.829 398.412 297.395 400.575 298.395 402.475C295.926 400.035 292.533 398.529 288.788 398.529C281.238 398.529 275.119 404.649 275.119 412.198C275.119 419.747 281.238 425.867 288.788 425.867C289.409 425.867 290.021 425.826 290.621 425.745C286.192 428.007 283.159 432.613 283.159 437.927C283.159 445.476 289.279 451.596 296.828 451.596C304.377 451.596 310.497 445.476 310.497 437.927C310.497 445.476 316.617 451.596 324.166 451.596C331.716 451.596 337.835 445.476 337.835 437.927C337.835 432.613 334.803 428.007 330.374 425.745C330.974 425.826 331.586 425.867 332.207 425.867ZM320.605 419.509C320.605 425.092 316.079 429.617 310.497 429.617C304.914 429.617 300.389 425.092 300.389 419.509C300.389 413.927 304.914 409.401 310.497 409.401C316.079 409.401 320.605 413.927 320.605 419.509ZM341.051 412.198C341.051 417.083 337.092 421.043 332.207 421.043C327.322 421.043 323.362 417.083 323.362 412.198C323.362 407.313 327.322 403.353 332.207 403.353C337.092 403.353 341.051 407.313 341.051 412.198ZM297.632 412.198C297.632 417.083 293.672 421.043 288.787 421.043C283.903 421.043 279.943 417.083 279.943 412.198C279.943 407.313 283.903 403.353 288.787 403.353C293.672 403.353 297.632 407.313 297.632 412.198ZM333.011 437.926C333.011 442.811 329.051 446.771 324.166 446.771C319.281 446.771 315.322 442.811 315.322 437.926C315.322 433.042 319.281 429.082 324.166 429.082C329.051 429.082 333.011 433.042 333.011 437.926ZM305.673 437.926C305.673 442.811 301.713 446.771 296.828 446.771C291.943 446.771 287.983 442.811 287.983 437.926C287.983 433.042 291.943 429.082 296.828 429.082C301.713 429.082 305.673 433.042 305.673 437.926ZM319.342 396.115C319.342 401 315.382 404.96 310.497 404.96C305.612 404.96 301.652 401 301.652 396.115C301.652 391.23 305.612 387.27 310.497 387.27C315.382 387.27 319.342 391.23 319.342 396.115Z" fill="#000085"/>
<path d="M212.53 201.497C212.53 207.079 208.005 211.605 202.422 211.605C196.84 211.605 192.314 207.079 192.314 201.497C192.314 195.914 196.84 191.389 202.422 191.389C208.005 191.389 212.53 195.914 212.53 201.497Z" fill="#000085"/>
<path d="M211.267 178.103C211.267 182.987 207.307 186.947 202.423 186.947C197.538 186.947 193.578 182.987 193.578 178.103C193.578 173.218 197.538 169.258 202.423 169.258C207.307 169.258 211.267 173.218 211.267 178.103Z" fill="#000085"/>
<path d="M232.977 194.186C232.977 199.07 229.017 203.03 224.132 203.03C219.247 203.03 215.288 199.07 215.288 194.186C215.288 189.301 219.247 185.341 224.132 185.341C229.017 185.341 232.977 189.301 232.977 194.186Z" fill="#000085"/>
<path d="M224.936 219.914C224.936 224.799 220.976 228.759 216.092 228.759C211.207 228.759 207.247 224.799 207.247 219.914C207.247 215.029 211.207 211.069 216.092 211.069C220.976 211.069 224.936 215.029 224.936 219.914Z" fill="#000085"/>
<path fill-rule="evenodd" clip-rule="evenodd" d="M245.382 201.497C245.382 225.223 226.148 244.456 202.422 244.456C178.697 244.456 159.463 225.223 159.463 201.497C159.463 177.771 178.697 158.538 202.422 158.538C226.148 158.538 245.382 177.771 245.382 201.497ZM237.801 194.186C237.801 201.735 231.682 207.855 224.133 207.855C223.511 207.855 222.899 207.813 222.3 207.733C226.728 209.994 229.761 214.6 229.761 219.914C229.761 227.463 223.641 233.583 216.092 233.583C208.543 233.583 202.423 227.463 202.423 219.914C202.423 227.463 196.303 233.583 188.754 233.583C181.205 233.583 175.085 227.463 175.085 219.914C175.085 214.6 178.117 209.994 182.546 207.733C181.946 207.813 181.335 207.855 180.713 207.855C173.164 207.855 167.044 201.735 167.044 194.186C167.044 186.637 173.164 180.517 180.713 180.517C184.458 180.517 187.852 182.023 190.32 184.463C189.32 182.563 188.754 180.399 188.754 178.103C188.754 170.554 194.874 164.434 202.423 164.434C209.972 164.434 216.092 170.554 216.092 178.103C216.092 180.399 215.526 182.563 214.526 184.462C216.995 182.023 220.388 180.517 224.133 180.517C231.682 180.517 237.801 186.637 237.801 194.186Z" fill="#000085"/>
<path d="M189.557 194.186C189.557 199.07 185.598 203.03 180.713 203.03C175.828 203.03 171.868 199.07 171.868 194.186C171.868 189.301 175.828 185.341 180.713 185.341C185.598 185.341 189.557 189.301 189.557 194.186Z" fill="#000085"/>
<path d="M197.598 219.914C197.598 224.799 193.638 228.759 188.753 228.759C183.869 228.759 179.909 224.799 179.909 219.914C179.909 215.029 183.869 211.069 188.753 211.069C193.638 211.069 197.598 215.029 197.598 219.914Z" fill="#000085"/>
<path d="M321.537 201.497C321.537 207.079 317.011 211.605 311.429 211.605C305.846 211.605 301.321 207.079 301.321 201.497C301.321 195.914 305.846 191.389 311.429 191.389C317.011 191.389 321.537 195.914 321.537 201.497Z" fill="#000085"/>
<path d="M320.273 178.103C320.273 182.987 316.313 186.947 311.429 186.947C306.544 186.947 302.584 182.987 302.584 178.103C302.584 173.218 306.544 169.258 311.429 169.258C316.313 169.258 320.273 173.218 320.273 178.103Z" fill="#000085"/>
<path d="M341.983 194.186C341.983 199.07 338.023 203.03 333.138 203.03C328.254 203.03 324.294 199.07 324.294 194.186C324.294 189.301 328.254 185.341 333.138 185.341C338.023 185.341 341.983 189.301 341.983 194.186Z" fill="#000085"/>
<path d="M333.942 219.914C333.942 224.799 329.983 228.759 325.098 228.759C320.213 228.759 316.253 224.799 316.253 219.914C316.253 215.029 320.213 211.069 325.098 211.069C329.983 211.069 333.942 215.029 333.942 219.914Z" fill="#000085"/>
<path fill-rule="evenodd" clip-rule="evenodd" d="M354.388 201.497C354.388 225.223 335.154 244.456 311.429 244.456C287.703 244.456 268.469 225.223 268.469 201.497C268.469 177.771 287.703 158.538 311.429 158.538C335.154 158.538 354.388 177.771 354.388 201.497ZM346.808 194.186C346.808 201.735 340.688 207.855 333.139 207.855C332.517 207.855 331.905 207.813 331.306 207.733C335.735 209.994 338.767 214.6 338.767 219.914C338.767 227.463 332.647 233.583 325.098 233.583C317.549 233.583 311.429 227.463 311.429 219.914C311.429 227.463 305.309 233.583 297.76 233.583C290.211 233.583 284.091 227.463 284.091 219.914C284.091 214.6 287.123 209.994 291.552 207.733C290.953 207.813 290.341 207.855 289.719 207.855C282.17 207.855 276.05 201.735 276.05 194.186C276.05 186.637 282.17 180.517 289.719 180.517C293.464 180.517 296.858 182.023 299.327 184.463C298.326 182.563 297.76 180.399 297.76 178.103C297.76 170.554 303.88 164.434 311.429 164.434C318.978 164.434 325.098 170.554 325.098 178.103C325.098 180.399 324.532 182.563 323.532 184.462C326.001 182.023 329.394 180.517 333.139 180.517C340.688 180.517 346.808 186.637 346.808 194.186Z" fill="#000085"/>
<path d="M298.564 194.186C298.564 199.07 294.604 203.03 289.719 203.03C284.834 203.03 280.874 199.07 280.874 194.186C280.874 189.301 284.834 185.341 289.719 185.341C294.604 185.341 298.564 189.301 298.564 194.186Z" fill="#000085"/>
<path d="M306.604 219.914C306.604 224.799 302.644 228.759 297.76 228.759C292.875 228.759 288.915 224.799 288.915 219.914C288.915 215.029 292.875 211.069 297.76 211.069C302.644 211.069 306.604 215.029 306.604 219.914Z" fill="#000085"/>
<path fill-rule="evenodd" clip-rule="evenodd" d="M237.801 194.186C237.801 201.735 231.682 207.855 224.133 207.855C223.511 207.855 222.899 207.813 222.3 207.733C226.728 209.994 229.761 214.6 229.761 219.914C229.761 227.463 223.641 233.583 216.092 233.583C208.543 233.583 202.423 227.463 202.423 219.914C202.423 227.463 196.303 233.583 188.754 233.583C181.205 233.583 175.085 227.463 175.085 219.914C175.085 214.6 178.117 209.994 182.546 207.733C181.946 207.813 181.335 207.855 180.713 207.855C173.164 207.855 167.044 201.735 167.044 194.186C167.044 186.637 173.164 180.517 180.713 180.517C184.458 180.517 187.852 182.023 190.32 184.463C189.32 182.563 188.754 180.399 188.754 178.103C188.754 170.554 194.874 164.434 202.423 164.434C209.972 164.434 216.092 170.554 216.092 178.103C216.092 180.399 215.526 182.563 214.526 184.462C216.995 182.023 220.388 180.517 224.133 180.517C231.682 180.517 237.801 186.637 237.801 194.186ZM202.422 211.605C208.005 211.605 212.53 207.079 212.53 201.497C212.53 195.914 208.005 191.389 202.422 191.389C196.84 191.389 192.314 195.914 192.314 201.497C192.314 207.079 196.84 211.605 202.422 211.605ZM224.132 203.03C229.017 203.03 232.977 199.07 232.977 194.186C232.977 189.301 229.017 185.341 224.132 185.341C219.247 185.341 215.288 189.301 215.288 194.186C215.288 199.07 219.247 203.03 224.132 203.03ZM180.713 203.03C185.598 203.03 189.557 199.07 189.557 194.186C189.557 189.301 185.598 185.341 180.713 185.341C175.828 185.341 171.868 189.301 171.868 194.186C171.868 199.07 175.828 203.03 180.713 203.03ZM216.092 228.759C220.976 228.759 224.936 224.799 224.936 219.914C224.936 215.029 220.976 211.069 216.092 211.069C211.207 211.069 207.247 215.029 207.247 219.914C207.247 224.799 211.207 228.759 216.092 228.759ZM188.753 228.759C193.638 228.759 197.598 224.799 197.598 219.914C197.598 215.029 193.638 211.069 188.753 211.069C183.869 211.069 179.909 215.029 179.909 219.914C179.909 224.799 183.869 228.759 188.753 228.759ZM202.423 186.947C207.307 186.947 211.267 182.987 211.267 178.103C211.267 173.218 207.307 169.258 202.423 169.258C197.538 169.258 193.578 173.218 193.578 178.103C193.578 182.987 197.538 186.947 202.423 186.947ZM245.382 201.497C245.382 225.223 226.148 244.456 202.422 244.456C178.697 244.456 159.463 225.223 159.463 201.497C159.463 177.771 178.697 158.538 202.422 158.538C226.148 158.538 245.382 177.771 245.382 201.497Z" fill="#000085"/>
<path fill-rule="evenodd" clip-rule="evenodd" d="M311.429 244.456C335.154 244.456 354.388 225.223 354.388 201.497C354.388 177.771 335.154 158.538 311.429 158.538C287.703 158.538 268.469 177.771 268.469 201.497C268.469 225.223 287.703 244.456 311.429 244.456ZM333.139 207.855C340.688 207.855 346.808 201.735 346.808 194.186C346.808 186.637 340.688 180.517 333.139 180.517C329.394 180.517 326.001 182.023 323.532 184.462C324.532 182.563 325.098 180.399 325.098 178.103C325.098 170.554 318.978 164.434 311.429 164.434C303.88 164.434 297.76 170.554 297.76 178.103C297.76 180.399 298.326 182.563 299.327 184.463C296.858 182.023 293.464 180.517 289.719 180.517C282.17 180.517 276.05 186.637 276.05 194.186C276.05 201.735 282.17 207.855 289.719 207.855C290.341 207.855 290.953 207.813 291.552 207.733C287.123 209.994 284.091 214.6 284.091 219.914C284.091 227.463 290.211 233.583 297.76 233.583C305.309 233.583 311.429 227.463 311.429 219.914C311.429 227.463 317.549 233.583 325.098 233.583C332.647 233.583 338.767 227.463 338.767 219.914C338.767 214.6 335.735 209.994 331.306 207.733C331.905 207.813 332.517 207.855 333.139 207.855ZM321.537 201.497C321.537 207.079 317.011 211.605 311.429 211.605C305.846 211.605 301.321 207.079 301.321 201.497C301.321 195.914 305.846 191.389 311.429 191.389C317.011 191.389 321.537 195.914 321.537 201.497ZM341.983 194.186C341.983 199.07 338.023 203.03 333.138 203.03C328.254 203.03 324.294 199.07 324.294 194.186C324.294 189.301 328.254 185.341 333.138 185.341C338.023 185.341 341.983 189.301 341.983 194.186ZM298.564 194.186C298.564 199.07 294.604 203.03 289.719 203.03C284.834 203.03 280.874 199.07 280.874 194.186C280.874 189.301 284.834 185.341 289.719 185.341C294.604 185.341 298.564 189.301 298.564 194.186ZM333.942 219.914C333.942 224.799 329.983 228.759 325.098 228.759C320.213 228.759 316.253 224.799 316.253 219.914C316.253 215.029 320.213 211.069 325.098 211.069C329.983 211.069 333.942 215.029 333.942 219.914ZM306.604 219.914C306.604 224.799 302.644 228.759 297.76 228.759C292.875 228.759 288.915 224.799 288.915 219.914C288.915 215.029 292.875 211.069 297.76 211.069C302.644 211.069 306.604 215.029 306.604 219.914ZM320.273 178.103C320.273 182.987 316.313 186.947 311.429 186.947C306.544 186.947 302.584 182.987 302.584 178.103C302.584 173.218 306.544 169.258 311.429 169.258C316.313 169.258 320.273 173.218 320.273 178.103Z" fill="#000085"/>
<path d="M212.53 92.4907C212.53 98.0732 208.005 102.599 202.422 102.599C196.84 102.599 192.314 98.0732 192.314 92.4907C192.314 86.9082 196.84 82.3826 202.422 82.3826C208.005 82.3826 212.53 86.9082 212.53 92.4907Z" fill="#000085"/>
<path d="M211.267 69.0965C211.267 73.9812 207.307 77.9411 202.423 77.9411C197.538 77.9411 193.578 73.9812 193.578 69.0965C193.578 64.2117 197.538 60.2519 202.423 60.2519C207.307 60.2519 211.267 64.2117 211.267 69.0965Z" fill="#000085"/>
<path d="M232.977 85.1793C232.977 90.0641 229.017 94.024 224.132 94.024C219.247 94.024 215.288 90.0641 215.288 85.1793C215.288 80.2946 219.247 76.3347 224.132 76.3347C229.017 76.3347 232.977 80.2946 232.977 85.1793Z" fill="#000085"/>
<path d="M224.936 110.908C224.936 115.793 220.976 119.752 216.092 119.752C211.207 119.752 207.247 115.793 207.247 110.908C207.247 106.023 211.207 102.063 216.092 102.063C220.976 102.063 224.936 106.023 224.936 110.908Z" fill="#000085"/>
<path fill-rule="evenodd" clip-rule="evenodd" d="M245.382 92.4907C245.382 116.216 226.148 135.45 202.422 135.45C178.697 135.45 159.463 116.216 159.463 92.4907C159.463 68.7649 178.697 49.5314 202.422 49.5314C226.148 49.5314 245.382 68.7649 245.382 92.4907ZM237.801 85.1796C237.801 92.7288 231.682 98.8486 224.133 98.8486C223.511 98.8486 222.899 98.8071 222.3 98.7268C226.728 100.988 229.761 105.594 229.761 110.908C229.761 118.457 223.641 124.577 216.092 124.577C208.543 124.577 202.423 118.457 202.423 110.908C202.423 118.457 196.303 124.577 188.754 124.577C181.205 124.577 175.085 118.457 175.085 110.908C175.085 105.594 178.117 100.988 182.546 98.7268C181.946 98.8071 181.335 98.8486 180.713 98.8486C173.164 98.8486 167.044 92.7288 167.044 85.1796C167.044 77.6305 173.164 71.5107 180.713 71.5107C184.458 71.5107 187.852 73.0168 190.32 75.4565C189.32 73.5568 188.754 71.3929 188.754 69.0968C188.754 61.5476 194.874 55.4278 202.423 55.4278C209.972 55.4278 216.092 61.5476 216.092 69.0968C216.092 71.3927 215.526 73.5564 214.526 75.4559C216.995 73.0166 220.388 71.5107 224.133 71.5107C231.682 71.5107 237.801 77.6305 237.801 85.1796Z" fill="#000085"/>
<path d="M189.557 85.1793C189.557 90.0641 185.598 94.024 180.713 94.024C175.828 94.024 171.868 90.0641 171.868 85.1793C171.868 80.2946 175.828 76.3347 180.713 76.3347C185.598 76.3347 189.557 80.2946 189.557 85.1793Z" fill="#000085"/>
<path d="M197.598 110.908C197.598 115.793 193.638 119.752 188.753 119.752C183.869 119.752 179.909 115.793 179.909 110.908C179.909 106.023 183.869 102.063 188.753 102.063C193.638 102.063 197.598 106.023 197.598 110.908Z" fill="#000085"/>
<path d="M321.537 92.4907C321.537 98.0732 317.011 102.599 311.429 102.599C305.846 102.599 301.321 98.0732 301.321 92.4907C301.321 86.9082 305.846 82.3826 311.429 82.3826C317.011 82.3826 321.537 86.9082 321.537 92.4907Z" fill="#000085"/>
<path d="M320.273 69.0965C320.273 73.9812 316.313 77.9411 311.429 77.9411C306.544 77.9411 302.584 73.9812 302.584 69.0965C302.584 64.2117 306.544 60.2519 311.429 60.2519C316.313 60.2519 320.273 64.2117 320.273 69.0965Z" fill="#000085"/>
<path d="M341.983 85.1793C341.983 90.0641 338.023 94.024 333.138 94.024C328.254 94.024 324.294 90.0641 324.294 85.1793C324.294 80.2946 328.254 76.3347 333.138 76.3347C338.023 76.3347 341.983 80.2946 341.983 85.1793Z" fill="#000085"/>
<path d="M333.942 110.908C333.942 115.793 329.983 119.752 325.098 119.752C320.213 119.752 316.253 115.793 316.253 110.908C316.253 106.023 320.213 102.063 325.098 102.063C329.983 102.063 333.942 106.023 333.942 110.908Z" fill="#000085"/>
<path fill-rule="evenodd" clip-rule="evenodd" d="M354.388 92.4907C354.388 116.216 335.154 135.45 311.429 135.45C287.703 135.45 268.469 116.216 268.469 92.4907C268.469 68.7649 287.703 49.5314 311.429 49.5314C335.154 49.5314 354.388 68.7649 354.388 92.4907ZM346.808 85.1796C346.808 92.7288 340.688 98.8486 333.139 98.8486C332.517 98.8486 331.905 98.8071 331.306 98.7268C335.735 100.988 338.767 105.594 338.767 110.908C338.767 118.457 332.647 124.577 325.098 124.577C317.549 124.577 311.429 118.457 311.429 110.908C311.429 118.457 305.309 124.577 297.76 124.577C290.211 124.577 284.091 118.457 284.091 110.908C284.091 105.594 287.123 100.988 291.552 98.7268C290.953 98.8071 290.341 98.8486 289.719 98.8486C282.17 98.8486 276.05 92.7288 276.05 85.1796C276.05 77.6305 282.17 71.5107 289.719 71.5107C293.464 71.5107 296.858 73.0168 299.327 75.4565C298.326 73.5568 297.76 71.3929 297.76 69.0968C297.76 61.5476 303.88 55.4278 311.429 55.4278C318.978 55.4278 325.098 61.5476 325.098 69.0968C325.098 71.3927 324.532 73.5564 323.532 75.4559C326.001 73.0166 329.394 71.5107 333.139 71.5107C340.688 71.5107 346.808 77.6305 346.808 85.1796Z" fill="#000085"/>
<path d="M298.564 85.1793C298.564 90.0641 294.604 94.024 289.719 94.024C284.834 94.024 280.874 90.0641 280.874 85.1793C280.874 80.2946 284.834 76.3347 289.719 76.3347C294.604 76.3347 298.564 80.2946 298.564 85.1793Z" fill="#000085"/>
<path d="M306.604 110.908C306.604 115.793 302.644 119.752 297.76 119.752C292.875 119.752 288.915 115.793 288.915 110.908C288.915 106.023 292.875 102.063 297.76 102.063C302.644 102.063 306.604 106.023 306.604 110.908Z" fill="#000085"/>
<path fill-rule="evenodd" clip-rule="evenodd" d="M237.801 85.1796C237.801 92.7288 231.682 98.8486 224.133 98.8486C223.511 98.8486 222.899 98.8071 222.3 98.7268C226.728 100.988 229.761 105.594 229.761 110.908C229.761 118.457 223.641 124.577 216.092 124.577C208.543 124.577 202.423 118.457 202.423 110.908C202.423 118.457 196.303 124.577 188.754 124.577C181.205 124.577 175.085 118.457 175.085 110.908C175.085 105.594 178.117 100.988 182.546 98.7268C181.946 98.8071 181.335 98.8486 180.713 98.8486C173.164 98.8486 167.044 92.7288 167.044 85.1796C167.044 77.6305 173.164 71.5107 180.713 71.5107C184.458 71.5107 187.852 73.0168 190.32 75.4565C189.32 73.5568 188.754 71.3929 188.754 69.0968C188.754 61.5476 194.874 55.4278 202.423 55.4278C209.972 55.4278 216.092 61.5476 216.092 69.0968C216.092 71.3927 215.526 73.5564 214.526 75.4559C216.995 73.0166 220.388 71.5107 224.133 71.5107C231.682 71.5107 237.801 77.6305 237.801 85.1796ZM202.422 102.599C208.005 102.599 212.53 98.0732 212.53 92.4907C212.53 86.9082 208.005 82.3826 202.422 82.3826C196.84 82.3826 192.314 86.9082 192.314 92.4907C192.314 98.0732 196.84 102.599 202.422 102.599ZM224.132 94.024C229.017 94.024 232.977 90.0641 232.977 85.1793C232.977 80.2946 229.017 76.3347 224.132 76.3347C219.247 76.3347 215.288 80.2946 215.288 85.1793C215.288 90.0641 219.247 94.024 224.132 94.024ZM180.713 94.024C185.598 94.024 189.557 90.0641 189.557 85.1793C189.557 80.2946 185.598 76.3347 180.713 76.3347C175.828 76.3347 171.868 80.2946 171.868 85.1793C171.868 90.0641 175.828 94.024 180.713 94.024ZM216.092 119.752C220.976 119.752 224.936 115.793 224.936 110.908C224.936 106.023 220.976 102.063 216.092 102.063C211.207 102.063 207.247 106.023 207.247 110.908C207.247 115.793 211.207 119.752 216.092 119.752ZM188.753 119.752C193.638 119.752 197.598 115.793 197.598 110.908C197.598 106.023 193.638 102.063 188.753 102.063C183.869 102.063 179.909 106.023 179.909 110.908C179.909 115.793 183.869 119.752 188.753 119.752ZM202.423 77.9411C207.307 77.9411 211.267 73.9812 211.267 69.0965C211.267 64.2117 207.307 60.2519 202.423 60.2519C197.538 60.2519 193.578 64.2117 193.578 69.0965C193.578 73.9812 197.538 77.9411 202.423 77.9411ZM245.382 92.4907C245.382 116.216 226.148 135.45 202.422 135.45C178.697 135.45 159.463 116.216 159.463 92.4907C159.463 68.7649 178.697 49.5314 202.422 49.5314C226.148 49.5314 245.382 68.7649 245.382 92.4907Z" fill="#000085"/>
<path fill-rule="evenodd" clip-rule="evenodd" d="M311.429 135.45C335.154 135.45 354.388 116.216 354.388 92.4907C354.388 68.7649 335.154 49.5314 311.429 49.5314C287.703 49.5314 268.469 68.7649 268.469 92.4907C268.469 116.216 287.703 135.45 311.429 135.45ZM333.139 98.8486C340.688 98.8486 346.808 92.7288 346.808 85.1796C346.808 77.6305 340.688 71.5107 333.139 71.5107C329.394 71.5107 326.001 73.0166 323.532 75.4559C324.532 73.5564 325.098 71.3927 325.098 69.0968C325.098 61.5476 318.978 55.4278 311.429 55.4278C303.88 55.4278 297.76 61.5476 297.76 69.0968C297.76 71.3929 298.326 73.5568 299.327 75.4565C296.858 73.0168 293.464 71.5107 289.719 71.5107C282.17 71.5107 276.05 77.6305 276.05 85.1796C276.05 92.7288 282.17 98.8486 289.719 98.8486C290.341 98.8486 290.953 98.8071 291.552 98.7268C287.123 100.988 284.091 105.594 284.091 110.908C284.091 118.457 290.211 124.577 297.76 124.577C305.309 124.577 311.429 118.457 311.429 110.908C311.429 118.457 317.549 124.577 325.098 124.577C332.647 124.577 338.767 118.457 338.767 110.908C338.767 105.594 335.735 100.988 331.306 98.7268C331.905 98.8071 332.517 98.8486 333.139 98.8486ZM321.537 92.4907C321.537 98.0732 317.011 102.599 311.429 102.599C305.846 102.599 301.321 98.0732 301.321 92.4907C301.321 86.9082 305.846 82.3826 311.429 82.3826C317.011 82.3826 321.537 86.9082 321.537 92.4907ZM341.983 85.1793C341.983 90.0641 338.023 94.024 333.138 94.024C328.254 94.024 324.294 90.0641 324.294 85.1793C324.294 80.2946 328.254 76.3347 333.138 76.3347C338.023 76.3347 341.983 80.2946 341.983 85.1793ZM298.564 85.1793C298.564 90.0641 294.604 94.024 289.719 94.024C284.834 94.024 280.874 90.0641 280.874 85.1793C280.874 80.2946 284.834 76.3347 289.719 76.3347C294.604 76.3347 298.564 80.2946 298.564 85.1793ZM333.942 110.908C333.942 115.793 329.983 119.752 325.098 119.752C320.213 119.752 316.253 115.793 316.253 110.908C316.253 106.023 320.213 102.063 325.098 102.063C329.983 102.063 333.942 106.023 333.942 110.908ZM306.604 110.908C306.604 115.793 302.644 119.752 297.76 119.752C292.875 119.752 288.915 115.793 288.915 110.908C288.915 106.023 292.875 102.063 297.76 102.063C302.644 102.063 306.604 106.023 306.604 110.908ZM320.273 69.0965C320.273 73.9812 316.313 77.9411 311.429 77.9411C306.544 77.9411 302.584 73.9812 302.584 69.0965C302.584 64.2117 306.544 60.2519 311.429 60.2519C316.313 60.2519 320.273 64.2117 320.273 69.0965Z" fill="#000085"/>
<path fill-rule="evenodd" clip-rule="evenodd" d="M237.801 85.1796C237.801 92.7288 231.682 98.8486 224.133 98.8486C223.511 98.8486 222.899 98.8071 222.3 98.7268C226.728 100.988 229.761 105.594 229.761 110.908C229.761 118.457 223.641 124.577 216.092 124.577C208.543 124.577 202.423 118.457 202.423 110.908C202.423 118.457 196.303 124.577 188.754 124.577C181.205 124.577 175.085 118.457 175.085 110.908C175.085 105.594 178.117 100.988 182.546 98.7268C181.946 98.8071 181.335 98.8486 180.713 98.8486C173.164 98.8486 167.044 92.7288 167.044 85.1796C167.044 77.6305 173.164 71.5107 180.713 71.5107C184.458 71.5107 187.852 73.0168 190.32 75.4565C189.32 73.5568 188.754 71.3929 188.754 69.0968C188.754 61.5476 194.874 55.4278 202.423 55.4278C209.972 55.4278 216.092 61.5476 216.092 69.0968C216.092 71.3927 215.526 73.5564 214.526 75.4559C216.995 73.0166 220.388 71.5107 224.133 71.5107C231.682 71.5107 237.801 77.6305 237.801 85.1796ZM202.422 102.599C208.005 102.599 212.53 98.0732 212.53 92.4907C212.53 86.9082 208.005 82.3826 202.422 82.3826C196.84 82.3826 192.314 86.9082 192.314 92.4907C192.314 98.0732 196.84 102.599 202.422 102.599ZM224.132 94.024C229.017 94.024 232.977 90.0641 232.977 85.1793C232.977 80.2946 229.017 76.3347 224.132 76.3347C219.247 76.3347 215.288 80.2946 215.288 85.1793C215.288 90.0641 219.247 94.024 224.132 94.024ZM180.713 94.024C185.598 94.024 189.557 90.0641 189.557 85.1793C189.557 80.2946 185.598 76.3347 180.713 76.3347C175.828 76.3347 171.868 80.2946 171.868 85.1793C171.868 90.0641 175.828 94.024 180.713 94.024ZM216.092 119.752C220.976 119.752 224.936 115.793 224.936 110.908C224.936 106.023 220.976 102.063 216.092 102.063C211.207 102.063 207.247 106.023 207.247 110.908C207.247 115.793 211.207 119.752 216.092 119.752ZM188.753 119.752C193.638 119.752 197.598 115.793 197.598 110.908C197.598 106.023 193.638 102.063 188.753 102.063C183.869 102.063 179.909 106.023 179.909 110.908C179.909 115.793 183.869 119.752 188.753 119.752ZM202.423 77.9411C207.307 77.9411 211.267 73.9812 211.267 69.0965C211.267 64.2117 207.307 60.2519 202.423 60.2519C197.538 60.2519 193.578 64.2117 193.578 69.0965C193.578 73.9812 197.538 77.9411 202.423 77.9411ZM245.382 92.4907C245.382 116.216 226.148 135.45 202.422 135.45C178.697 135.45 159.463 116.216 159.463 92.4907C159.463 68.7649 178.697 49.5314 202.422 49.5314C226.148 49.5314 245.382 68.7649 245.382 92.4907ZM346.808 85.1796C346.808 92.7288 340.688 98.8486 333.139 98.8486C332.517 98.8486 331.905 98.8071 331.306 98.7268C335.735 100.988 338.767 105.594 338.767 110.908C338.767 118.457 332.647 124.577 325.098 124.577C317.549 124.577 311.429 118.457 311.429 110.908C311.429 118.457 305.309 124.577 297.76 124.577C290.211 124.577 284.091 118.457 284.091 110.908C284.091 105.594 287.123 100.988 291.552 98.7268C290.953 98.8071 290.341 98.8486 289.719 98.8486C282.17 98.8486 276.05 92.7288 276.05 85.1796C276.05 77.6305 282.17 71.5107 289.719 71.5107C293.464 71.5107 296.858 73.0168 299.327 75.4565C298.326 73.5568 297.76 71.3929 297.76 69.0968C297.76 61.5476 303.88 55.4278 311.429 55.4278C318.978 55.4278 325.098 61.5476 325.098 69.0968C325.098 71.3927 324.532 73.5564 323.532 75.4559C326.001 73.0166 329.394 71.5107 333.139 71.5107C340.688 71.5107 346.808 77.6305 346.808 85.1796ZM311.429 102.599C317.011 102.599 321.537 98.0732 321.537 92.4907C321.537 86.9082 317.011 82.3826 311.429 82.3826C305.846 82.3826 301.321 86.9082 301.321 92.4907C301.321 98.0732 305.846 102.599 311.429 102.599ZM333.138 94.024C338.023 94.024 341.983 90.0641 341.983 85.1793C341.983 80.2946 338.023 76.3347 333.138 76.3347C328.254 76.3347 324.294 80.2946 324.294 85.1793C324.294 90.0641 328.254 94.024 333.138 94.024ZM289.719 94.024C294.604 94.024 298.564 90.0641 298.564 85.1793C298.564 80.2946 294.604 76.3347 289.719 76.3347C284.834 76.3347 280.874 80.2946 280.874 85.1793C280.874 90.0641 284.834 94.024 289.719 94.024ZM325.098 119.752C329.983 119.752 333.942 115.793 333.942 110.908C333.942 106.023 329.983 102.063 325.098 102.063C320.213 102.063 316.253 106.023 316.253 110.908C316.253 115.793 320.213 119.752 325.098 119.752ZM297.76 119.752C302.644 119.752 306.604 115.793 306.604 110.908C306.604 106.023 302.644 102.063 297.76 102.063C292.875 102.063 288.915 106.023 288.915 110.908C288.915 115.793 292.875 119.752 297.76 119.752ZM311.429 77.9411C316.313 77.9411 320.273 73.9812 320.273 69.0965C320.273 64.2117 316.313 60.2519 311.429 60.2519C306.544 60.2519 302.584 64.2117 302.584 69.0965C302.584 73.9812 306.544 77.9411 311.429 77.9411ZM354.388 92.4907C354.388 116.216 335.154 135.45 311.429 135.45C287.703 135.45 268.469 116.216 268.469 92.4907C268.469 68.7649 287.703 49.5314 311.429 49.5314C335.154 49.5314 354.388 68.7649 354.388 92.4907Z" fill="#000085"/>
<path fill-rule="evenodd" clip-rule="evenodd" d="M311.429 244.456C335.154 244.456 354.388 225.223 354.388 201.497C354.388 177.771 335.154 158.538 311.429 158.538C287.703 158.538 268.469 177.771 268.469 201.497C268.469 225.223 287.703 244.456 311.429 244.456ZM245.382 201.497C245.382 225.223 226.148 244.456 202.422 244.456C178.697 244.456 159.463 225.223 159.463 201.497C159.463 177.771 178.697 158.538 202.422 158.538C226.148 158.538 245.382 177.771 245.382 201.497ZM237.801 194.186C237.801 201.735 231.682 207.855 224.133 207.855C223.511 207.855 222.899 207.813 222.3 207.733C226.728 209.994 229.761 214.6 229.761 219.914C229.761 227.463 223.641 233.583 216.092 233.583C208.543 233.583 202.423 227.463 202.423 219.914C202.423 227.463 196.303 233.583 188.754 233.583C181.205 233.583 175.085 227.463 175.085 219.914C175.085 214.6 178.117 209.994 182.546 207.733C181.946 207.813 181.335 207.855 180.713 207.855C173.164 207.855 167.044 201.735 167.044 194.186C167.044 186.637 173.164 180.517 180.713 180.517C184.458 180.517 187.852 182.023 190.32 184.463C189.32 182.563 188.754 180.399 188.754 178.103C188.754 170.554 194.874 164.434 202.423 164.434C209.972 164.434 216.092 170.554 216.092 178.103C216.092 180.399 215.526 182.563 214.526 184.462C216.995 182.023 220.388 180.517 224.133 180.517C231.682 180.517 237.801 186.637 237.801 194.186ZM202.422 211.605C208.005 211.605 212.53 207.079 212.53 201.497C212.53 195.914 208.005 191.389 202.422 191.389C196.84 191.389 192.314 195.914 192.314 201.497C192.314 207.079 196.84 211.605 202.422 211.605ZM224.132 203.03C229.017 203.03 232.977 199.07 232.977 194.186C232.977 189.301 229.017 185.341 224.132 185.341C219.247 185.341 215.288 189.301 215.288 194.186C215.288 199.07 219.247 203.03 224.132 203.03ZM180.713 203.03C185.598 203.03 189.557 199.07 189.557 194.186C189.557 189.301 185.598 185.341 180.713 185.341C175.828 185.341 171.868 189.301 171.868 194.186C171.868 199.07 175.828 203.03 180.713 203.03ZM216.092 228.759C220.976 228.759 224.936 224.799 224.936 219.914C224.936 215.029 220.976 211.069 216.092 211.069C211.207 211.069 207.247 215.029 207.247 219.914C207.247 224.799 211.207 228.759 216.092 228.759ZM188.753 228.759C193.638 228.759 197.598 224.799 197.598 219.914C197.598 215.029 193.638 211.069 188.753 211.069C183.869 211.069 179.909 215.029 179.909 219.914C179.909 224.799 183.869 228.759 188.753 228.759ZM202.423 186.947C207.307 186.947 211.267 182.987 211.267 178.103C211.267 173.218 207.307 169.258 202.423 169.258C197.538 169.258 193.578 173.218 193.578 178.103C193.578 182.987 197.538 186.947 202.423 186.947ZM333.139 207.855C340.688 207.855 346.808 201.735 346.808 194.186C346.808 186.637 340.688 180.517 333.139 180.517C329.394 180.517 326.001 182.023 323.532 184.462C324.532 182.563 325.098 180.399 325.098 178.103C325.098 170.554 318.978 164.434 311.429 164.434C303.88 164.434 297.76 170.554 297.76 178.103C297.76 180.399 298.326 182.563 299.327 184.463C296.858 182.023 293.464 180.517 289.719 180.517C282.17 180.517 276.05 186.637 276.05 194.186C276.05 201.735 282.17 207.855 289.719 207.855C290.341 207.855 290.953 207.813 291.552 207.733C287.123 209.994 284.091 214.6 284.091 219.914C284.091 227.463 290.211 233.583 297.76 233.583C305.309 233.583 311.429 227.463 311.429 219.914C311.429 227.463 317.549 233.583 325.098 233.583C332.647 233.583 338.767 227.463 338.767 219.914C338.767 214.6 335.735 209.994 331.306 207.733C331.905 207.813 332.517 207.855 333.139 207.855ZM321.537 201.497C321.537 207.079 317.011 211.605 311.429 211.605C305.846 211.605 301.321 207.079 301.321 201.497C301.321 195.914 305.846 191.389 311.429 191.389C317.011 191.389 321.537 195.914 321.537 201.497ZM341.983 194.186C341.983 199.07 338.023 203.03 333.138 203.03C328.254 203.03 324.294 199.07 324.294 194.186C324.294 189.301 328.254 185.341 333.138 185.341C338.023 185.341 341.983 189.301 341.983 194.186ZM298.564 194.186C298.564 199.07 294.604 203.03 289.719 203.03C284.834 203.03 280.874 199.07 280.874 194.186C280.874 189.301 284.834 185.341 289.719 185.341C294.604 185.341 298.564 189.301 298.564 194.186ZM333.942 219.914C333.942 224.799 329.983 228.759 325.098 228.759C320.213 228.759 316.253 224.799 316.253 219.914C316.253 215.029 320.213 211.069 325.098 211.069C329.983 211.069 333.942 215.029 333.942 219.914ZM306.604 219.914C306.604 224.799 302.644 228.759 297.76 228.759C292.875 228.759 288.915 224.799 288.915 219.914C288.915 215.029 292.875 211.069 297.76 211.069C302.644 211.069 306.604 215.029 306.604 219.914ZM320.273 178.103C320.273 182.987 316.313 186.947 311.429 186.947C306.544 186.947 302.584 182.987 302.584 178.103C302.584 173.218 306.544 169.258 311.429 169.258C316.313 169.258 320.273 173.218 320.273 178.103Z" fill="#000085"/>
<path fill-rule="evenodd" clip-rule="evenodd" d="M201.491 481C167.53 481 140 453.47 140 419.509C140 395.833 153.381 375.282 172.994 365.006C153.381 354.731 140 334.18 140 310.503C140 286.638 153.596 265.948 173.465 255.756C154.104 245.402 140.932 224.987 140.932 201.497C140.932 177.82 154.313 157.269 173.926 146.994C154.313 136.718 140.932 116.167 140.932 92.4907C140.932 58.5303 168.462 31 202.422 31C226.099 31 246.65 44.3815 256.925 63.994C267.201 44.3815 287.752 31 311.429 31C345.389 31 372.919 58.5303 372.919 92.4907C372.919 116.167 359.538 136.718 339.925 146.994C359.538 157.269 372.919 177.82 372.919 201.497C372.919 225.362 359.323 246.052 339.455 256.244C358.816 266.598 371.988 287.013 371.988 310.503C371.988 334.18 358.606 354.731 338.994 365.006C358.606 375.282 371.988 395.833 371.988 419.509C371.988 453.47 344.457 481 310.497 481C286.82 481 266.269 467.619 255.994 448.006C245.718 467.619 225.167 481 201.491 481ZM201.491 467.062C227.753 467.062 249.043 445.772 249.043 419.509C249.043 393.247 227.753 371.957 201.491 371.957C175.228 371.957 153.938 393.247 153.938 419.509C153.938 445.772 175.228 467.062 201.491 467.062ZM310.497 467.062C336.76 467.062 358.05 445.772 358.05 419.509C358.05 393.247 336.76 371.957 310.497 371.957C284.234 371.957 262.944 393.247 262.944 419.509C262.944 445.772 284.234 467.062 310.497 467.062ZM201.491 358.056C227.753 358.056 249.043 336.766 249.043 310.503C249.043 284.24 227.753 262.95 201.491 262.95C175.228 262.95 153.938 284.24 153.938 310.503C153.938 336.766 175.228 358.056 201.491 358.056ZM310.497 358.056C336.76 358.056 358.05 336.766 358.05 310.503C358.05 284.24 336.76 262.95 310.497 262.95C284.234 262.95 262.944 284.24 262.944 310.503C262.944 336.766 284.234 358.056 310.497 358.056ZM229.987 365.006C241.081 359.194 250.181 350.094 255.994 339C261.806 350.094 270.906 359.194 282 365.006C270.906 370.819 261.806 379.919 255.994 391.013C250.181 379.919 241.081 370.819 229.987 365.006ZM202.422 249.05C228.685 249.05 249.975 227.76 249.975 201.497C249.975 175.234 228.685 153.944 202.422 153.944C176.16 153.944 154.87 175.234 154.87 201.497C154.87 227.76 176.16 249.05 202.422 249.05ZM311.429 249.05C337.691 249.05 358.981 227.76 358.981 201.497C358.981 175.234 337.691 153.944 311.429 153.944C285.166 153.944 263.876 175.234 263.876 201.497C263.876 227.76 285.166 249.05 311.429 249.05ZM202.422 140.043C228.685 140.043 249.975 118.753 249.975 92.4907C249.975 66.228 228.685 44.9379 202.422 44.9379C176.16 44.9379 154.87 66.228 154.87 92.4907C154.87 118.753 176.16 140.043 202.422 140.043ZM311.429 140.043C337.691 140.043 358.981 118.753 358.981 92.4907C358.981 66.228 337.691 44.9379 311.429 44.9379C285.166 44.9379 263.876 66.228 263.876 92.4907C263.876 118.753 285.166 140.043 311.429 140.043ZM230.919 146.994C242.013 141.181 251.113 132.081 256.925 120.987C262.738 132.081 271.838 141.181 282.932 146.994C271.838 152.806 262.738 161.906 256.925 173C251.113 161.906 242.013 152.806 230.919 146.994ZM230.448 256.244C241.756 250.444 251.031 241.244 256.925 229.994C262.657 240.933 271.586 249.935 282.471 255.756C271.164 261.556 261.888 270.756 255.994 282.006C250.262 271.067 241.333 262.065 230.448 256.244Z" fill="#000085"/>
<path fill-rule="evenodd" clip-rule="evenodd" d="M201.491 353.462C225.216 353.462 244.45 334.229 244.45 310.503C244.45 286.777 225.216 267.544 201.491 267.544C177.765 267.544 158.531 286.777 158.531 310.503C158.531 334.229 177.765 353.462 201.491 353.462ZM353.456 310.503C353.456 334.229 334.223 353.462 310.497 353.462C286.771 353.462 267.538 334.229 267.538 310.503C267.538 286.777 286.771 267.544 310.497 267.544C334.223 267.544 353.456 286.777 353.456 310.503ZM345.876 303.192C345.876 310.741 339.756 316.861 332.207 316.861C331.586 316.861 330.974 316.82 330.374 316.739C334.803 319.001 337.835 323.606 337.835 328.921C337.835 336.47 331.716 342.589 324.166 342.589C316.617 342.589 310.497 336.47 310.497 328.921C310.497 336.47 304.377 342.589 296.828 342.589C289.279 342.589 283.159 336.47 283.159 328.921C283.159 323.606 286.192 319.001 290.621 316.739C290.021 316.82 289.409 316.861 288.788 316.861C281.238 316.861 275.119 310.741 275.119 303.192C275.119 295.643 281.238 289.523 288.788 289.523C292.533 289.523 295.926 291.029 298.395 293.469C297.395 291.569 296.829 289.405 296.829 287.109C296.829 279.56 302.948 273.44 310.497 273.44C318.047 273.44 324.166 279.56 324.166 287.109C324.166 289.405 323.6 291.569 322.6 293.468C325.069 291.029 328.462 289.523 332.207 289.523C339.756 289.523 345.876 295.643 345.876 303.192ZM310.497 320.611C316.079 320.611 320.605 316.086 320.605 310.503C320.605 304.921 316.079 300.395 310.497 300.395C304.914 300.395 300.389 304.921 300.389 310.503C300.389 316.086 304.914 320.611 310.497 320.611ZM332.207 312.036C337.092 312.036 341.051 308.077 341.051 303.192C341.051 298.307 337.092 294.347 332.207 294.347C327.322 294.347 323.362 298.307 323.362 303.192C323.362 308.077 327.322 312.036 332.207 312.036ZM288.787 312.036C293.672 312.036 297.632 308.077 297.632 303.192C297.632 298.307 293.672 294.347 288.787 294.347C283.903 294.347 279.943 298.307 279.943 303.192C279.943 308.077 283.903 312.036 288.787 312.036ZM324.166 337.765C329.051 337.765 333.011 333.805 333.011 328.92C333.011 324.035 329.051 320.076 324.166 320.076C319.281 320.076 315.322 324.035 315.322 328.92C315.322 333.805 319.281 337.765 324.166 337.765ZM296.828 337.765C301.713 337.765 305.673 333.805 305.673 328.92C305.673 324.035 301.713 320.076 296.828 320.076C291.943 320.076 287.983 324.035 287.983 328.92C287.983 333.805 291.943 337.765 296.828 337.765ZM310.497 295.954C315.382 295.954 319.342 291.994 319.342 287.109C319.342 282.224 315.382 278.264 310.497 278.264C305.612 278.264 301.652 282.224 301.652 287.109C301.652 291.994 305.612 295.954 310.497 295.954ZM223.201 316.861C230.75 316.861 236.87 310.741 236.87 303.192C236.87 295.643 230.75 289.523 223.201 289.523C219.456 289.523 216.063 291.029 213.594 293.468C214.594 291.569 215.16 289.405 215.16 287.109C215.16 279.56 209.04 273.44 201.491 273.44C193.942 273.44 187.822 279.56 187.822 287.109C187.822 289.405 188.388 291.569 189.389 293.469C186.92 291.029 183.527 289.523 179.781 289.523C172.232 289.523 166.112 295.643 166.112 303.192C166.112 310.741 172.232 316.861 179.781 316.861C180.403 316.861 181.015 316.82 181.614 316.739C177.186 319.001 174.153 323.606 174.153 328.921C174.153 336.47 180.273 342.589 187.822 342.589C195.371 342.589 201.491 336.47 201.491 328.921C201.491 336.47 207.611 342.589 215.16 342.589C222.709 342.589 228.829 336.47 228.829 328.921C228.829 323.606 225.797 319.001 221.368 316.739C221.967 316.82 222.579 316.861 223.201 316.861ZM211.599 310.503C211.599 316.086 207.073 320.611 201.491 320.611C195.908 320.611 191.383 316.086 191.383 310.503C191.383 304.921 195.908 300.395 201.491 300.395C207.073 300.395 211.599 304.921 211.599 310.503ZM232.045 303.192C232.045 308.077 228.085 312.036 223.201 312.036C218.316 312.036 214.356 308.077 214.356 303.192C214.356 298.307 218.316 294.347 223.201 294.347C228.085 294.347 232.045 298.307 232.045 303.192ZM188.626 303.192C188.626 308.077 184.666 312.036 179.781 312.036C174.896 312.036 170.937 308.077 170.937 303.192C170.937 298.307 174.896 294.347 179.781 294.347C184.666 294.347 188.626 298.307 188.626 303.192ZM224.005 328.92C224.005 333.805 220.045 337.765 215.16 337.765C210.275 337.765 206.315 333.805 206.315 328.92C206.315 324.035 210.275 320.076 215.16 320.076C220.045 320.076 224.005 324.035 224.005 328.92ZM196.666 328.92C196.666 333.805 192.707 337.765 187.822 337.765C182.937 337.765 178.977 333.805 178.977 328.92C178.977 324.035 182.937 320.076 187.822 320.076C192.707 320.076 196.666 324.035 196.666 328.92ZM210.335 287.109C210.335 291.994 206.376 295.954 201.491 295.954C196.606 295.954 192.646 291.994 192.646 287.109C192.646 282.224 196.606 278.264 201.491 278.264C206.376 278.264 210.335 282.224 210.335 287.109ZM345.876 412.198C345.876 419.747 339.756 425.867 332.207 425.867C331.586 425.867 330.974 425.826 330.374 425.745C334.803 428.007 337.835 432.613 337.835 437.927C337.835 445.476 331.716 451.596 324.166 451.596C316.617 451.596 310.497 445.476 310.497 437.927C310.497 445.476 304.377 451.596 296.828 451.596C289.279 451.596 283.159 445.476 283.159 437.927C283.159 432.613 286.192 428.007 290.621 425.745C290.021 425.826 289.409 425.867 288.788 425.867C281.238 425.867 275.119 419.747 275.119 412.198C275.119 404.649 281.238 398.529 288.788 398.529C292.533 398.529 295.926 400.035 298.395 402.475C297.395 400.575 296.829 398.412 296.829 396.115C296.829 388.566 302.948 382.446 310.497 382.446C318.047 382.446 324.166 388.566 324.166 396.115C324.166 398.411 323.6 400.575 322.6 402.475C325.069 400.035 328.462 398.529 332.207 398.529C339.756 398.529 345.876 404.649 345.876 412.198ZM310.497 429.617C316.079 429.617 320.605 425.092 320.605 419.509C320.605 413.927 316.079 409.401 310.497 409.401C304.914 409.401 300.389 413.927 300.389 419.509C300.389 425.092 304.914 429.617 310.497 429.617ZM332.207 421.043C337.092 421.043 341.051 417.083 341.051 412.198C341.051 407.313 337.092 403.353 332.207 403.353C327.322 403.353 323.362 407.313 323.362 412.198C323.362 417.083 327.322 421.043 332.207 421.043ZM288.787 421.043C293.672 421.043 297.632 417.083 297.632 412.198C297.632 407.313 293.672 403.353 288.787 403.353C283.903 403.353 279.943 407.313 279.943 412.198C279.943 417.083 283.903 421.043 288.787 421.043ZM324.166 446.771C329.051 446.771 333.011 442.811 333.011 437.926C333.011 433.042 329.051 429.082 324.166 429.082C319.281 429.082 315.322 433.042 315.322 437.926C315.322 442.811 319.281 446.771 324.166 446.771ZM296.828 446.771C301.713 446.771 305.673 442.811 305.673 437.926C305.673 433.042 301.713 429.082 296.828 429.082C291.943 429.082 287.983 433.042 287.983 437.926C287.983 442.811 291.943 446.771 296.828 446.771ZM310.497 404.96C315.382 404.96 319.342 401 319.342 396.115C319.342 391.23 315.382 387.27 310.497 387.27C305.612 387.27 301.652 391.23 301.652 396.115C301.652 401 305.612 404.96 310.497 404.96ZM353.456 419.509C353.456 443.235 334.223 462.469 310.497 462.469C286.771 462.469 267.538 443.235 267.538 419.509C267.538 395.784 286.771 376.55 310.497 376.55C334.223 376.55 353.456 395.784 353.456 419.509ZM201.491 462.469C225.216 462.469 244.45 443.235 244.45 419.509C244.45 395.784 225.216 376.55 201.491 376.55C177.765 376.55 158.531 395.784 158.531 419.509C158.531 443.235 177.765 462.469 201.491 462.469ZM223.201 425.867C230.75 425.867 236.87 419.747 236.87 412.198C236.87 404.649 230.75 398.529 223.201 398.529C219.456 398.529 216.063 400.035 213.594 402.475C214.594 400.575 215.16 398.411 215.16 396.115C215.16 388.566 209.04 382.446 201.491 382.446C193.942 382.446 187.822 388.566 187.822 396.115C187.822 398.412 188.388 400.575 189.389 402.475C186.92 400.035 183.527 398.529 179.781 398.529C172.232 398.529 166.112 404.649 166.112 412.198C166.112 419.747 172.232 425.867 179.781 425.867C180.403 425.867 181.015 425.826 181.614 425.745C177.186 428.007 174.153 432.613 174.153 437.927C174.153 445.476 180.273 451.596 187.822 451.596C195.371 451.596 201.491 445.476 201.491 437.927C201.491 445.476 207.611 451.596 215.16 451.596C222.709 451.596 228.829 445.476 228.829 437.927C228.829 432.613 225.797 428.007 221.368 425.745C221.967 425.826 222.579 425.867 223.201 425.867ZM211.599 419.509C211.599 425.092 207.073 429.617 201.491 429.617C195.908 429.617 191.383 425.092 191.383 419.509C191.383 413.927 195.908 409.401 201.491 409.401C207.073 409.401 211.599 413.927 211.599 419.509ZM232.045 412.198C232.045 417.083 228.085 421.043 223.201 421.043C218.316 421.043 214.356 417.083 214.356 412.198C214.356 407.313 218.316 403.353 223.201 403.353C228.085 403.353 232.045 407.313 232.045 412.198ZM188.626 412.198C188.626 417.083 184.666 421.043 179.781 421.043C174.896 421.043 170.937 417.083 170.937 412.198C170.937 407.313 174.896 403.353 179.781 403.353C184.666 403.353 188.626 407.313 188.626 412.198ZM224.005 437.926C224.005 442.811 220.045 446.771 215.16 446.771C210.275 446.771 206.315 442.811 206.315 437.926C206.315 433.042 210.275 429.082 215.16 429.082C220.045 429.082 224.005 433.042 224.005 437.926ZM196.666 437.926C196.666 442.811 192.707 446.771 187.822 446.771C182.937 446.771 178.977 442.811 178.977 437.926C178.977 433.042 182.937 429.082 187.822 429.082C192.707 429.082 196.666 433.042 196.666 437.926ZM210.335 396.115C210.335 401 206.376 404.96 201.491 404.96C196.606 404.96 192.646 401 192.646 396.115C192.646 391.23 196.606 387.27 201.491 387.27C206.376 387.27 210.335 391.23 210.335 396.115Z" fill="#000085"/>
<path fill-rule="evenodd" clip-rule="evenodd" d="M346.808 194.186C346.808 201.735 340.688 207.855 333.139 207.855C332.517 207.855 331.905 207.813 331.306 207.733C335.735 209.994 338.767 214.6 338.767 219.914C338.767 227.463 332.647 233.583 325.098 233.583C317.549 233.583 311.429 227.463 311.429 219.914C311.429 227.463 305.309 233.583 297.76 233.583C290.211 233.583 284.091 227.463 284.091 219.914C284.091 214.6 287.123 209.994 291.552 207.733C290.953 207.813 290.341 207.855 289.719 207.855C282.17 207.855 276.05 201.735 276.05 194.186C276.05 186.637 282.17 180.517 289.719 180.517C293.464 180.517 296.858 182.023 299.327 184.463C298.326 182.563 297.76 180.399 297.76 178.103C297.76 170.554 303.88 164.434 311.429 164.434C318.978 164.434 325.098 170.554 325.098 178.103C325.098 180.399 324.532 182.563 323.532 184.462C326.001 182.023 329.394 180.517 333.139 180.517C340.688 180.517 346.808 186.637 346.808 194.186ZM311.429 211.605C317.011 211.605 321.537 207.079 321.537 201.497C321.537 195.914 317.011 191.389 311.429 191.389C305.846 191.389 301.321 195.914 301.321 201.497C301.321 207.079 305.846 211.605 311.429 211.605ZM333.138 203.03C338.023 203.03 341.983 199.07 341.983 194.186C341.983 189.301 338.023 185.341 333.138 185.341C328.254 185.341 324.294 189.301 324.294 194.186C324.294 199.07 328.254 203.03 333.138 203.03ZM289.719 203.03C294.604 203.03 298.564 199.07 298.564 194.186C298.564 189.301 294.604 185.341 289.719 185.341C284.834 185.341 280.874 189.301 280.874 194.186C280.874 199.07 284.834 203.03 289.719 203.03ZM325.098 228.759C329.983 228.759 333.942 224.799 333.942 219.914C333.942 215.029 329.983 211.069 325.098 211.069C320.213 211.069 316.253 215.029 316.253 219.914C316.253 224.799 320.213 228.759 325.098 228.759ZM297.76 228.759C302.644 228.759 306.604 224.799 306.604 219.914C306.604 215.029 302.644 211.069 297.76 211.069C292.875 211.069 288.915 215.029 288.915 219.914C288.915 224.799 292.875 228.759 297.76 228.759ZM311.429 186.947C316.313 186.947 320.273 182.987 320.273 178.103C320.273 173.218 316.313 169.258 311.429 169.258C306.544 169.258 302.584 173.218 302.584 178.103C302.584 182.987 306.544 186.947 311.429 186.947ZM354.388 201.497C354.388 225.223 335.154 244.456 311.429 244.456C287.703 244.456 268.469 225.223 268.469 201.497C268.469 177.771 287.703 158.538 311.429 158.538C335.154 158.538 354.388 177.771 354.388 201.497ZM346.808 85.1796C346.808 92.7288 340.688 98.8486 333.139 98.8486C332.517 98.8486 331.905 98.8071 331.306 98.7268C335.735 100.988 338.767 105.594 338.767 110.908C338.767 118.457 332.647 124.577 325.098 124.577C317.549 124.577 311.429 118.457 311.429 110.908C311.429 118.457 305.309 124.577 297.76 124.577C290.211 124.577 284.091 118.457 284.091 110.908C284.091 105.594 287.123 100.988 291.552 98.7268C290.953 98.8071 290.341 98.8486 289.719 98.8486C282.17 98.8486 276.05 92.7288 276.05 85.1796C276.05 77.6305 282.17 71.5107 289.719 71.5107C293.464 71.5107 296.858 73.0168 299.327 75.4565C298.326 73.5568 297.76 71.3929 297.76 69.0968C297.76 61.5476 303.88 55.4278 311.429 55.4278C318.978 55.4278 325.098 61.5476 325.098 69.0968C325.098 71.3927 324.532 73.5564 323.532 75.4559C326.001 73.0166 329.394 71.5107 333.139 71.5107C340.688 71.5107 346.808 77.6305 346.808 85.1796ZM311.429 102.599C317.011 102.599 321.537 98.0732 321.537 92.4907C321.537 86.9082 317.011 82.3826 311.429 82.3826C305.846 82.3826 301.321 86.9082 301.321 92.4907C301.321 98.0732 305.846 102.599 311.429 102.599ZM333.138 94.024C338.023 94.024 341.983 90.0641 341.983 85.1793C341.983 80.2946 338.023 76.3347 333.138 76.3347C328.254 76.3347 324.294 80.2946 324.294 85.1793C324.294 90.0641 328.254 94.024 333.138 94.024ZM289.719 94.024C294.604 94.024 298.564 90.0641 298.564 85.1793C298.564 80.2946 294.604 76.3347 289.719 76.3347C284.834 76.3347 280.874 80.2946 280.874 85.1793C280.874 90.0641 284.834 94.024 289.719 94.024ZM325.098 119.752C329.983 119.752 333.942 115.793 333.942 110.908C333.942 106.023 329.983 102.063 325.098 102.063C320.213 102.063 316.253 106.023 316.253 110.908C316.253 115.793 320.213 119.752 325.098 119.752ZM297.76 119.752C302.644 119.752 306.604 115.793 306.604 110.908C306.604 106.023 302.644 102.063 297.76 102.063C292.875 102.063 288.915 106.023 288.915 110.908C288.915 115.793 292.875 119.752 297.76 119.752ZM311.429 77.9411C316.313 77.9411 320.273 73.9812 320.273 69.0965C320.273 64.2117 316.313 60.2519 311.429 60.2519C306.544 60.2519 302.584 64.2117 302.584 69.0965C302.584 73.9812 306.544 77.9411 311.429 77.9411ZM354.388 92.4907C354.388 116.216 335.154 135.45 311.429 135.45C287.703 135.45 268.469 116.216 268.469 92.4907C268.469 68.7649 287.703 49.5314 311.429 49.5314C335.154 49.5314 354.388 68.7649 354.388 92.4907ZM202.422 244.456C226.148 244.456 245.382 225.223 245.382 201.497C245.382 177.771 226.148 158.538 202.422 158.538C178.697 158.538 159.463 177.771 159.463 201.497C159.463 225.223 178.697 244.456 202.422 244.456ZM224.133 207.855C231.682 207.855 237.801 201.735 237.801 194.186C237.801 186.637 231.682 180.517 224.133 180.517C220.388 180.517 216.995 182.023 214.526 184.462C215.526 182.563 216.092 180.399 216.092 178.103C216.092 170.554 209.972 164.434 202.423 164.434C194.874 164.434 188.754 170.554 188.754 178.103C188.754 180.399 189.32 182.563 190.32 184.463C187.852 182.023 184.458 180.517 180.713 180.517C173.164 180.517 167.044 186.637 167.044 194.186C167.044 201.735 173.164 207.855 180.713 207.855C181.335 207.855 181.946 207.813 182.546 207.733C178.117 209.994 175.085 214.6 175.085 219.914C175.085 227.463 181.205 233.583 188.754 233.583C196.303 233.583 202.423 227.463 202.423 219.914C202.423 227.463 208.543 233.583 216.092 233.583C223.641 233.583 229.761 227.463 229.761 219.914C229.761 214.6 226.728 209.994 222.3 207.733C222.899 207.813 223.511 207.855 224.133 207.855ZM212.53 201.497C212.53 207.079 208.005 211.605 202.422 211.605C196.84 211.605 192.314 207.079 192.314 201.497C192.314 195.914 196.84 191.389 202.422 191.389C208.005 191.389 212.53 195.914 212.53 201.497ZM232.977 194.186C232.977 199.07 229.017 203.03 224.132 203.03C219.247 203.03 215.288 199.07 215.288 194.186C215.288 189.301 219.247 185.341 224.132 185.341C229.017 185.341 232.977 189.301 232.977 194.186ZM189.557 194.186C189.557 199.07 185.598 203.03 180.713 203.03C175.828 203.03 171.868 199.07 171.868 194.186C171.868 189.301 175.828 185.341 180.713 185.341C185.598 185.341 189.557 189.301 189.557 194.186ZM224.936 219.914C224.936 224.799 220.976 228.759 216.092 228.759C211.207 228.759 207.247 224.799 207.247 219.914C207.247 215.029 211.207 211.069 216.092 211.069C220.976 211.069 224.936 215.029 224.936 219.914ZM197.598 219.914C197.598 224.799 193.638 228.759 188.753 228.759C183.869 228.759 179.909 224.799 179.909 219.914C179.909 215.029 183.869 211.069 188.753 211.069C193.638 211.069 197.598 215.029 197.598 219.914ZM211.267 178.103C211.267 182.987 207.307 186.947 202.423 186.947C197.538 186.947 193.578 182.987 193.578 178.103C193.578 173.218 197.538 169.258 202.423 169.258C207.307 169.258 211.267 173.218 211.267 178.103ZM237.801 85.1796C237.801 92.7288 231.682 98.8486 224.133 98.8486C223.511 98.8486 222.899 98.8071 222.3 98.7268C226.728 100.988 229.761 105.594 229.761 110.908C229.761 118.457 223.641 124.577 216.092 124.577C208.543 124.577 202.423 118.457 202.423 110.908C202.423 118.457 196.303 124.577 188.754 124.577C181.205 124.577 175.085 118.457 175.085 110.908C175.085 105.594 178.117 100.988 182.546 98.7268C181.946 98.8071 181.335 98.8486 180.713 98.8486C173.164 98.8486 167.044 92.7288 167.044 85.1796C167.044 77.6305 173.164 71.5107 180.713 71.5107C184.458 71.5107 187.852 73.0168 190.32 75.4565C189.32 73.5568 188.754 71.3929 188.754 69.0968C188.754 61.5476 194.874 55.4278 202.423 55.4278C209.972 55.4278 216.092 61.5476 216.092 69.0968C216.092 71.3927 215.526 73.5564 214.526 75.4559C216.995 73.0166 220.388 71.5107 224.133 71.5107C231.682 71.5107 237.801 77.6305 237.801 85.1796ZM202.422 102.599C208.005 102.599 212.53 98.0732 212.53 92.4907C212.53 86.9082 208.005 82.3826 202.422 82.3826C196.84 82.3826 192.314 86.9082 192.314 92.4907C192.314 98.0732 196.84 102.599 202.422 102.599ZM224.132 94.024C229.017 94.024 232.977 90.0641 232.977 85.1793C232.977 80.2946 229.017 76.3347 224.132 76.3347C219.247 76.3347 215.288 80.2946 215.288 85.1793C215.288 90.0641 219.247 94.024 224.132 94.024ZM180.713 94.024C185.598 94.024 189.557 90.0641 189.557 85.1793C189.557 80.2946 185.598 76.3347 180.713 76.3347C175.828 76.3347 171.868 80.2946 171.868 85.1793C171.868 90.0641 175.828 94.024 180.713 94.024ZM216.092 119.752C220.976 119.752 224.936 115.793 224.936 110.908C224.936 106.023 220.976 102.063 216.092 102.063C211.207 102.063 207.247 106.023 207.247 110.908C207.247 115.793 211.207 119.752 216.092 119.752ZM188.753 119.752C193.638 119.752 197.598 115.793 197.598 110.908C197.598 106.023 193.638 102.063 188.753 102.063C183.869 102.063 179.909 106.023 179.909 110.908C179.909 115.793 183.869 119.752 188.753 119.752ZM202.423 77.9411C207.307 77.9411 211.267 73.9812 211.267 69.0965C211.267 64.2117 207.307 60.2519 202.423 60.2519C197.538 60.2519 193.578 64.2117 193.578 69.0965C193.578 73.9812 197.538 77.9411 202.423 77.9411ZM245.382 92.4907C245.382 116.216 226.148 135.45 202.422 135.45C178.697 135.45 159.463 116.216 159.463 92.4907C159.463 68.7649 178.697 49.5314 202.422 49.5314C226.148 49.5314 245.382 68.7649 245.382 92.4907Z" fill="#000085"/>
</svg>
