<svg width="512" height="512" viewBox="0 0 512 512" fill="none" xmlns="http://www.w3.org/2000/svg">
<path d="M1 1H511V511H1V1Z" fill="white" stroke="white" stroke-width="2"/>
<mask id="path-2-inside-1_170_426" fill="white">
<path fill-rule="evenodd" clip-rule="evenodd" d="M340.197 477C335.628 477 331.683 475.754 328.361 473.262C325.454 470.354 324 466.823 324 462.67C324 457.685 327.115 453.324 333.344 449.586L337.705 445.224C340.197 443.147 341.443 440.655 341.443 437.748V408.464C341.443 406.387 338.743 402.649 333.344 397.249C328.361 391.434 325.869 386.242 325.869 381.673L324.594 386.609C320.849 389.752 315.075 391.322 307.273 391.319C299.74 391.637 294.932 392.669 292.852 394.415L288.483 398.081C286.402 399.827 285.188 403.029 284.841 407.686C284.877 409.931 284.784 412.137 284.561 414.303C284.667 414.404 284.764 414.498 284.851 414.586C291.081 418.324 294.195 422.685 294.195 427.67C294.195 431.823 292.534 435.354 289.212 438.262C286.305 440.754 282.567 442 277.999 442C274.676 442 271.146 441.169 267.408 439.508C263.671 437.431 259.933 436.393 256.195 436.393C252.458 436.393 248.72 437.431 244.982 439.508C241.244 441.169 237.714 442 234.392 442C229.824 442 225.878 440.754 222.556 438.262C219.649 435.354 218.195 431.823 218.195 427.67C218.195 422.685 221.31 418.324 227.54 414.586L227.725 414.4C227.562 412.804 227.443 411.06 227.367 409.17C227.142 403.523 225.989 399.827 223.908 398.081L219.539 394.415C217.458 392.669 212.517 391.797 204.715 391.8C197.181 391.482 191.542 389.752 187.797 386.609L186.131 381.673C186.131 386.242 183.432 391.434 178.033 397.249C173.049 402.649 170.557 406.387 170.557 408.464V437.748C170.557 440.655 171.596 443.147 173.672 445.224C176.164 447.301 177.825 448.755 178.656 449.586C184.885 453.324 188 457.685 188 462.67C188 466.823 186.339 470.354 183.016 473.262C180.109 475.754 176.372 477 171.803 477C168.481 477 164.951 476.169 161.213 474.508C157.475 472.431 153.738 471.393 150 471.393C146.262 471.393 142.525 472.431 138.787 474.508C135.049 476.169 131.519 477 128.197 477C123.628 477 119.683 475.754 116.361 473.262C113.454 470.354 112 466.823 112 462.67C112 457.685 115.115 453.324 121.344 449.586L125.705 445.224C128.197 443.147 129.443 440.655 129.443 437.748V408.464C129.443 406.387 126.743 402.649 121.344 397.249C116.361 391.434 113.869 386.242 113.869 381.673C113.869 377.104 116.361 372.119 121.344 366.72C126.743 360.904 129.443 356.958 129.443 354.882V324.975C129.443 322.068 128.197 319.575 125.705 317.498L121.344 313.137C115.115 309.399 112 305.037 112 300.053C112 295.484 113.661 291.953 116.984 289.461C120.306 286.969 123.421 285.723 126.328 285.723C128.82 285.723 131.934 284.269 135.672 281.361C139.825 278.454 144.601 277 150 277C155.399 277 159.967 278.454 163.705 281.361C167.858 284.269 171.18 285.723 173.672 285.723C176.579 285.723 179.694 286.969 183.016 289.461C185.929 291.905 189.534 296.651 190.539 299.678C191.129 302.355 191.536 306.518 191.762 312.165C191.987 317.811 193.14 321.508 195.221 323.254L199.59 326.92C201.671 328.666 206.478 329.698 214.011 330.016C221.813 330.013 227.587 331.583 231.332 334.726C235.077 337.868 237.626 343.282 238.979 350.966C240.6 358.329 242.451 362.884 244.531 364.63L248.901 368.296L263.49 368.296L267.859 364.63C269.94 362.884 271.657 358.169 273.009 350.485C274.63 343.122 277.314 337.868 281.059 334.726C284.804 331.583 290.443 329.853 297.976 329.535C305.779 329.538 310.72 328.666 312.801 326.92L317.17 323.254C319.251 321.508 320.256 318.481 320.187 314.173C320.534 309.516 320.941 305.353 321.41 301.686C322.294 297.669 325.655 292.254 328.984 289.461C332.306 286.969 335.421 285.723 338.328 285.723C340.82 285.723 343.934 284.269 347.672 281.361C351.825 278.454 356.601 277 362 277C367.399 277 371.967 278.454 375.705 281.361C379.858 284.269 383.18 285.723 385.672 285.723C388.579 285.723 391.694 286.969 395.016 289.461C398.339 291.953 400 295.484 400 300.053C400 305.037 396.885 309.399 390.656 313.137C389.825 313.968 388.164 315.422 385.672 317.498C383.596 319.575 382.557 322.068 382.557 324.975V354.882C382.557 356.958 385.049 360.904 390.033 366.72C395.432 372.119 398.131 377.104 398.131 381.673C398.131 386.242 395.432 391.434 390.033 397.249C385.049 402.649 382.557 406.387 382.557 408.464V437.748C382.557 440.655 383.596 443.147 385.672 445.224C388.164 447.301 389.825 448.755 390.656 449.586C396.885 453.324 400 457.685 400 462.67C400 466.823 398.339 470.354 395.016 473.262C392.109 475.754 388.372 477 383.803 477C380.481 477 376.951 476.169 373.213 474.508C369.475 472.431 365.738 471.393 362 471.393C358.262 471.393 354.525 472.431 350.787 474.508C347.049 476.169 343.519 477 340.197 477ZM362 289C355.373 289 350 294.373 350 301C350 305.843 352.869 310.016 357 311.912V358H367V311.912C371.131 310.016 374 305.843 374 301C374 294.373 368.627 289 362 289ZM347 373C347 375.761 349.239 378 352 378H372C374.761 378 377 375.761 377 373C377 370.239 374.761 368 372 368H352C349.239 368 347 370.239 347 373ZM347 390C347 392.761 349.239 395 352 395H372C374.761 395 377 392.761 377 390C377 387.239 374.761 385 372 385H352C349.239 385 347 387.239 347 390ZM362 458C364.761 458 367 455.761 367 453V405H357V453C357 455.761 359.239 458 362 458ZM150 289C143.373 289 138 294.373 138 301C138 305.843 140.869 310.016 145 311.912V358H155V311.912C159.131 310.016 162 305.843 162 301C162 294.373 156.627 289 150 289ZM135 373C135 375.761 137.239 378 140 378H160C162.761 378 165 375.761 165 373C165 370.239 162.761 368 160 368H140C137.239 368 135 370.239 135 373ZM135 390C135 392.761 137.239 395 140 395H160C162.761 395 165 392.761 165 390C165 387.239 162.761 385 160 385H140C137.239 385 135 387.239 135 390ZM150 458C152.761 458 155 455.761 155 453V405H145V453C145 455.761 147.239 458 150 458ZM256.195 423C258.957 423 261.195 420.761 261.195 418V402.127L292.024 376.258L285.597 368.598L256.195 393.268L226.794 368.598L220.366 376.258L251.195 402.127V418C251.195 420.761 253.434 423 256.195 423ZM343.2 326.79C341.425 324.675 338.271 324.399 336.156 326.174L311.642 346.743L318.07 354.404L342.583 333.834C344.699 332.059 344.975 328.906 343.2 326.79ZM315.948 370.543L296.022 346.796C294.247 344.681 291.093 344.405 288.978 346.18C286.862 347.955 286.586 351.109 288.361 353.224L308.288 376.971C310.063 379.087 313.216 379.363 315.332 377.588C317.447 375.813 317.723 372.659 315.948 370.543ZM169.191 326.79C167.416 328.906 167.692 332.059 169.808 333.834L194.321 354.404L200.749 346.743L176.235 326.174C174.12 324.399 170.966 324.675 169.191 326.79ZM217.012 346.03L197.086 369.777C195.311 371.893 195.587 375.047 197.702 376.822C199.817 378.597 202.971 378.321 204.746 376.205L224.672 352.458C226.447 350.343 226.172 347.189 224.056 345.414C221.941 343.639 218.787 343.915 217.012 346.03Z"/>
<path fill-rule="evenodd" clip-rule="evenodd" d="M340.197 235C335.628 235 331.683 233.754 328.361 231.262C325.448 228.818 322.663 223.35 321.657 220.323C321.067 217.645 320.66 213.483 320.434 207.836C320.209 202.189 319.056 198.493 316.975 196.747L312.606 193.081C310.525 191.335 305.718 190.303 298.185 189.985C290.383 189.988 284.609 188.418 280.864 185.275C277.119 182.133 274.57 176.719 273.217 169.035C271.596 161.671 269.745 157.117 267.665 155.371L263.295 151.705L248.706 151.705L244.337 155.371C242.256 157.117 240.54 161.832 239.187 169.516C237.566 176.879 234.883 182.133 231.137 185.275C227.392 188.418 221.753 190.148 214.22 190.466C206.417 190.463 201.476 191.335 199.395 193.081L195.026 196.747C192.946 198.493 191.94 201.52 192.009 205.828C191.662 210.485 191.255 214.647 190.787 218.315C189.902 222.332 186.345 228.468 183.016 231.262C180.109 233.754 176.372 235 171.803 235C168.481 235 164.951 234.169 161.213 232.508C157.475 230.431 153.738 229.393 150 229.393C146.262 229.393 142.525 230.431 138.787 232.508C135.049 234.169 131.519 235 128.197 235C123.628 235 119.683 233.754 116.361 231.262C113.454 228.354 112 224.823 112 220.67C112 215.685 115.115 211.324 121.344 207.586L125.705 203.224C128.197 201.147 129.443 198.655 129.443 195.748V166.464C129.443 164.387 126.743 160.649 121.344 155.249C116.361 149.434 113.869 144.242 113.869 139.673C113.869 135.104 116.361 130.119 121.344 124.72C126.743 118.904 129.443 114.958 129.443 112.882V82.9751C129.443 80.0675 128.197 77.5753 125.705 75.4984L121.344 71.1371C115.115 67.3988 112 63.0374 112 58.053C112 53.4839 113.661 49.9533 116.984 47.4611C120.306 44.9688 123.421 43.7228 126.328 43.7228C128.82 43.7228 131.934 42.269 135.672 39.3614C139.825 36.4538 144.601 35 150 35C155.399 35 159.967 36.4538 163.705 39.3614C167.858 42.269 171.18 43.7228 173.672 43.7228C176.579 43.7228 179.694 44.9688 183.016 47.4611C186.339 49.9533 188 53.4839 188 58.053C188 63.0374 184.885 67.3988 178.656 71.1371C177.825 71.9678 176.164 73.4216 173.672 75.4984C171.596 77.5753 170.557 80.0675 170.557 82.9751V112.882C170.557 114.958 173.049 118.904 178.033 124.72C183.432 130.119 186.131 135.104 186.131 139.673L187.602 133.392C191.347 130.249 197.121 128.679 204.923 128.682C212.457 128.364 217.264 127.332 219.344 125.586L223.714 121.92C225.794 120.174 227.008 116.972 227.355 112.315C227.319 110.07 227.412 107.864 227.635 105.698C227.529 105.597 227.433 105.503 227.345 105.415C221.116 101.677 218.001 97.3156 218.001 92.3312C218.001 88.1775 219.662 84.6468 222.984 81.7393C225.892 79.2471 229.629 78.0009 234.198 78.0009C237.52 78.0009 241.05 78.8317 244.788 80.4932C248.525 82.57 252.263 83.6084 256.001 83.6084C259.739 83.6084 263.476 82.57 267.214 80.4932C270.952 78.8317 274.482 78.0009 277.804 78.0009C282.372 78.0009 286.318 79.2471 289.64 81.7393C292.547 84.6468 294.001 88.1775 294.001 92.3312C294.001 97.3156 290.886 101.677 284.657 105.415L284.471 105.601C284.634 107.197 284.753 108.941 284.829 110.831C285.054 116.478 286.207 120.174 288.288 121.92L292.657 125.586C294.738 127.332 299.679 128.204 307.481 128.201C315.015 128.519 320.654 130.249 324.399 133.392L325.869 139.673C325.869 135.104 328.361 130.119 333.344 124.72C338.743 118.904 341.443 114.958 341.443 112.882V82.9751C341.443 80.0675 340.197 77.5753 337.705 75.4984L333.344 71.1371C327.115 67.3988 324 63.0374 324 58.053C324 53.4839 325.661 49.9533 328.984 47.4611C332.306 44.9688 335.421 43.7228 338.328 43.7228C340.82 43.7228 343.934 42.269 347.672 39.3614C351.825 36.4538 356.601 35 362 35C367.399 35 371.967 36.4538 375.705 39.3614C379.858 42.269 383.18 43.7228 385.672 43.7228C388.579 43.7228 391.694 44.9688 395.016 47.4611C398.339 49.9533 400 53.4839 400 58.053C400 63.0374 396.885 67.3988 390.656 71.1371C389.825 71.9678 388.164 73.4216 385.672 75.4984C383.596 77.5753 382.557 80.0675 382.557 82.9751V112.882C382.557 114.958 385.049 118.904 390.033 124.72C395.432 130.119 398.131 135.104 398.131 139.673C398.131 144.242 395.432 149.434 390.033 155.249C385.049 160.649 382.557 164.387 382.557 166.464V195.748C382.557 198.655 383.596 201.147 385.672 203.224C388.164 205.301 389.825 206.755 390.656 207.586C396.885 211.324 400 215.685 400 220.67C400 224.823 398.339 228.354 395.016 231.262C392.109 233.754 388.372 235 383.803 235C380.481 235 376.951 234.169 373.213 232.508C369.475 230.431 365.738 229.393 362 229.393C358.262 229.393 354.525 230.431 350.787 232.508C347.049 234.169 343.519 235 340.197 235ZM362 47C355.373 47 350 52.3726 350 59C350 63.843 352.869 68.0159 357 69.9119V116H367V69.9119C371.131 68.0159 374 63.843 374 59C374 52.3726 368.627 47 362 47ZM347 131C347 133.761 349.239 136 352 136H372C374.761 136 377 133.761 377 131C377 128.239 374.761 126 372 126H352C349.239 126 347 128.239 347 131ZM347 148C347 150.761 349.239 153 352 153H372C374.761 153 377 150.761 377 148C377 145.239 374.761 143 372 143H352C349.239 143 347 145.239 347 148ZM362 216C364.761 216 367 213.761 367 211V163H357V211C357 213.761 359.239 216 362 216ZM150 47C143.373 47 138 52.3726 138 59C138 63.843 140.869 68.0159 145 69.9119V116H155V69.9119C159.131 68.0159 162 63.843 162 59C162 52.3726 156.627 47 150 47ZM135 131C135 133.761 137.239 136 140 136H160C162.761 136 165 133.761 165 131C165 128.239 162.761 126 160 126H140C137.239 126 135 128.239 135 131ZM135 148C135 150.761 137.239 153 140 153H160C162.761 153 165 150.761 165 148C165 145.239 162.761 143 160 143H140C137.239 143 135 145.239 135 148ZM150 216C152.761 216 155 213.761 155 211V163H145V211C145 213.761 147.239 216 150 216ZM256.001 97.0009C253.239 97.0009 251.001 99.2395 251.001 102.001V117.874L220.172 143.743L226.6 151.403L256.001 126.733L285.402 151.403L291.83 143.743L261.001 117.874V102.001C261.001 99.2395 258.762 97.0009 256.001 97.0009ZM168.996 193.211C170.771 195.326 173.925 195.602 176.041 193.827L200.554 173.258L194.126 165.597L169.613 186.167C167.497 187.942 167.221 191.095 168.996 193.211ZM196.248 149.457L216.174 173.205C217.949 175.32 221.103 175.596 223.219 173.821C225.334 172.046 225.61 168.892 223.835 166.777L203.909 143.03C202.133 140.914 198.98 140.638 196.864 142.413C194.749 144.188 194.473 147.342 196.248 149.457ZM343.005 193.211C344.78 191.095 344.504 187.942 342.389 186.167L317.875 165.597L311.447 173.258L335.961 193.827C338.076 195.602 341.23 195.326 343.005 193.211ZM295.184 173.971L315.111 150.224C316.886 148.108 316.61 144.954 314.494 143.179C312.379 141.404 309.225 141.68 307.45 143.796L287.524 167.543C285.749 169.658 286.025 172.812 288.14 174.587C290.255 176.362 293.409 176.086 295.184 173.971Z"/>
</mask>
<path fill-rule="evenodd" clip-rule="evenodd" d="M340.197 477C335.628 477 331.683 475.754 328.361 473.262C325.454 470.354 324 466.823 324 462.67C324 457.685 327.115 453.324 333.344 449.586L337.705 445.224C340.197 443.147 341.443 440.655 341.443 437.748V408.464C341.443 406.387 338.743 402.649 333.344 397.249C328.361 391.434 325.869 386.242 325.869 381.673L324.594 386.609C320.849 389.752 315.075 391.322 307.273 391.319C299.74 391.637 294.932 392.669 292.852 394.415L288.483 398.081C286.402 399.827 285.188 403.029 284.841 407.686C284.877 409.931 284.784 412.137 284.561 414.303C284.667 414.404 284.764 414.498 284.851 414.586C291.081 418.324 294.195 422.685 294.195 427.67C294.195 431.823 292.534 435.354 289.212 438.262C286.305 440.754 282.567 442 277.999 442C274.676 442 271.146 441.169 267.408 439.508C263.671 437.431 259.933 436.393 256.195 436.393C252.458 436.393 248.72 437.431 244.982 439.508C241.244 441.169 237.714 442 234.392 442C229.824 442 225.878 440.754 222.556 438.262C219.649 435.354 218.195 431.823 218.195 427.67C218.195 422.685 221.31 418.324 227.54 414.586L227.725 414.4C227.562 412.804 227.443 411.06 227.367 409.17C227.142 403.523 225.989 399.827 223.908 398.081L219.539 394.415C217.458 392.669 212.517 391.797 204.715 391.8C197.181 391.482 191.542 389.752 187.797 386.609L186.131 381.673C186.131 386.242 183.432 391.434 178.033 397.249C173.049 402.649 170.557 406.387 170.557 408.464V437.748C170.557 440.655 171.596 443.147 173.672 445.224C176.164 447.301 177.825 448.755 178.656 449.586C184.885 453.324 188 457.685 188 462.67C188 466.823 186.339 470.354 183.016 473.262C180.109 475.754 176.372 477 171.803 477C168.481 477 164.951 476.169 161.213 474.508C157.475 472.431 153.738 471.393 150 471.393C146.262 471.393 142.525 472.431 138.787 474.508C135.049 476.169 131.519 477 128.197 477C123.628 477 119.683 475.754 116.361 473.262C113.454 470.354 112 466.823 112 462.67C112 457.685 115.115 453.324 121.344 449.586L125.705 445.224C128.197 443.147 129.443 440.655 129.443 437.748V408.464C129.443 406.387 126.743 402.649 121.344 397.249C116.361 391.434 113.869 386.242 113.869 381.673C113.869 377.104 116.361 372.119 121.344 366.72C126.743 360.904 129.443 356.958 129.443 354.882V324.975C129.443 322.068 128.197 319.575 125.705 317.498L121.344 313.137C115.115 309.399 112 305.037 112 300.053C112 295.484 113.661 291.953 116.984 289.461C120.306 286.969 123.421 285.723 126.328 285.723C128.82 285.723 131.934 284.269 135.672 281.361C139.825 278.454 144.601 277 150 277C155.399 277 159.967 278.454 163.705 281.361C167.858 284.269 171.18 285.723 173.672 285.723C176.579 285.723 179.694 286.969 183.016 289.461C185.929 291.905 189.534 296.651 190.539 299.678C191.129 302.355 191.536 306.518 191.762 312.165C191.987 317.811 193.14 321.508 195.221 323.254L199.59 326.92C201.671 328.666 206.478 329.698 214.011 330.016C221.813 330.013 227.587 331.583 231.332 334.726C235.077 337.868 237.626 343.282 238.979 350.966C240.6 358.329 242.451 362.884 244.531 364.63L248.901 368.296L263.49 368.296L267.859 364.63C269.94 362.884 271.657 358.169 273.009 350.485C274.63 343.122 277.314 337.868 281.059 334.726C284.804 331.583 290.443 329.853 297.976 329.535C305.779 329.538 310.72 328.666 312.801 326.92L317.17 323.254C319.251 321.508 320.256 318.481 320.187 314.173C320.534 309.516 320.941 305.353 321.41 301.686C322.294 297.669 325.655 292.254 328.984 289.461C332.306 286.969 335.421 285.723 338.328 285.723C340.82 285.723 343.934 284.269 347.672 281.361C351.825 278.454 356.601 277 362 277C367.399 277 371.967 278.454 375.705 281.361C379.858 284.269 383.18 285.723 385.672 285.723C388.579 285.723 391.694 286.969 395.016 289.461C398.339 291.953 400 295.484 400 300.053C400 305.037 396.885 309.399 390.656 313.137C389.825 313.968 388.164 315.422 385.672 317.498C383.596 319.575 382.557 322.068 382.557 324.975V354.882C382.557 356.958 385.049 360.904 390.033 366.72C395.432 372.119 398.131 377.104 398.131 381.673C398.131 386.242 395.432 391.434 390.033 397.249C385.049 402.649 382.557 406.387 382.557 408.464V437.748C382.557 440.655 383.596 443.147 385.672 445.224C388.164 447.301 389.825 448.755 390.656 449.586C396.885 453.324 400 457.685 400 462.67C400 466.823 398.339 470.354 395.016 473.262C392.109 475.754 388.372 477 383.803 477C380.481 477 376.951 476.169 373.213 474.508C369.475 472.431 365.738 471.393 362 471.393C358.262 471.393 354.525 472.431 350.787 474.508C347.049 476.169 343.519 477 340.197 477ZM362 289C355.373 289 350 294.373 350 301C350 305.843 352.869 310.016 357 311.912V358H367V311.912C371.131 310.016 374 305.843 374 301C374 294.373 368.627 289 362 289ZM347 373C347 375.761 349.239 378 352 378H372C374.761 378 377 375.761 377 373C377 370.239 374.761 368 372 368H352C349.239 368 347 370.239 347 373ZM347 390C347 392.761 349.239 395 352 395H372C374.761 395 377 392.761 377 390C377 387.239 374.761 385 372 385H352C349.239 385 347 387.239 347 390ZM362 458C364.761 458 367 455.761 367 453V405H357V453C357 455.761 359.239 458 362 458ZM150 289C143.373 289 138 294.373 138 301C138 305.843 140.869 310.016 145 311.912V358H155V311.912C159.131 310.016 162 305.843 162 301C162 294.373 156.627 289 150 289ZM135 373C135 375.761 137.239 378 140 378H160C162.761 378 165 375.761 165 373C165 370.239 162.761 368 160 368H140C137.239 368 135 370.239 135 373ZM135 390C135 392.761 137.239 395 140 395H160C162.761 395 165 392.761 165 390C165 387.239 162.761 385 160 385H140C137.239 385 135 387.239 135 390ZM150 458C152.761 458 155 455.761 155 453V405H145V453C145 455.761 147.239 458 150 458ZM256.195 423C258.957 423 261.195 420.761 261.195 418V402.127L292.024 376.258L285.597 368.598L256.195 393.268L226.794 368.598L220.366 376.258L251.195 402.127V418C251.195 420.761 253.434 423 256.195 423ZM343.2 326.79C341.425 324.675 338.271 324.399 336.156 326.174L311.642 346.743L318.07 354.404L342.583 333.834C344.699 332.059 344.975 328.906 343.2 326.79ZM315.948 370.543L296.022 346.796C294.247 344.681 291.093 344.405 288.978 346.18C286.862 347.955 286.586 351.109 288.361 353.224L308.288 376.971C310.063 379.087 313.216 379.363 315.332 377.588C317.447 375.813 317.723 372.659 315.948 370.543ZM169.191 326.79C167.416 328.906 167.692 332.059 169.808 333.834L194.321 354.404L200.749 346.743L176.235 326.174C174.12 324.399 170.966 324.675 169.191 326.79ZM217.012 346.03L197.086 369.777C195.311 371.893 195.587 375.047 197.702 376.822C199.817 378.597 202.971 378.321 204.746 376.205L224.672 352.458C226.447 350.343 226.172 347.189 224.056 345.414C221.941 343.639 218.787 343.915 217.012 346.03Z" fill="#969696"/>
<path fill-rule="evenodd" clip-rule="evenodd" d="M340.197 235C335.628 235 331.683 233.754 328.361 231.262C325.448 228.818 322.663 223.35 321.657 220.323C321.067 217.645 320.66 213.483 320.434 207.836C320.209 202.189 319.056 198.493 316.975 196.747L312.606 193.081C310.525 191.335 305.718 190.303 298.185 189.985C290.383 189.988 284.609 188.418 280.864 185.275C277.119 182.133 274.57 176.719 273.217 169.035C271.596 161.671 269.745 157.117 267.665 155.371L263.295 151.705L248.706 151.705L244.337 155.371C242.256 157.117 240.54 161.832 239.187 169.516C237.566 176.879 234.883 182.133 231.137 185.275C227.392 188.418 221.753 190.148 214.22 190.466C206.417 190.463 201.476 191.335 199.395 193.081L195.026 196.747C192.946 198.493 191.94 201.52 192.009 205.828C191.662 210.485 191.255 214.647 190.787 218.315C189.902 222.332 186.345 228.468 183.016 231.262C180.109 233.754 176.372 235 171.803 235C168.481 235 164.951 234.169 161.213 232.508C157.475 230.431 153.738 229.393 150 229.393C146.262 229.393 142.525 230.431 138.787 232.508C135.049 234.169 131.519 235 128.197 235C123.628 235 119.683 233.754 116.361 231.262C113.454 228.354 112 224.823 112 220.67C112 215.685 115.115 211.324 121.344 207.586L125.705 203.224C128.197 201.147 129.443 198.655 129.443 195.748V166.464C129.443 164.387 126.743 160.649 121.344 155.249C116.361 149.434 113.869 144.242 113.869 139.673C113.869 135.104 116.361 130.119 121.344 124.72C126.743 118.904 129.443 114.958 129.443 112.882V82.9751C129.443 80.0675 128.197 77.5753 125.705 75.4984L121.344 71.1371C115.115 67.3988 112 63.0374 112 58.053C112 53.4839 113.661 49.9533 116.984 47.4611C120.306 44.9688 123.421 43.7228 126.328 43.7228C128.82 43.7228 131.934 42.269 135.672 39.3614C139.825 36.4538 144.601 35 150 35C155.399 35 159.967 36.4538 163.705 39.3614C167.858 42.269 171.18 43.7228 173.672 43.7228C176.579 43.7228 179.694 44.9688 183.016 47.4611C186.339 49.9533 188 53.4839 188 58.053C188 63.0374 184.885 67.3988 178.656 71.1371C177.825 71.9678 176.164 73.4216 173.672 75.4984C171.596 77.5753 170.557 80.0675 170.557 82.9751V112.882C170.557 114.958 173.049 118.904 178.033 124.72C183.432 130.119 186.131 135.104 186.131 139.673L187.602 133.392C191.347 130.249 197.121 128.679 204.923 128.682C212.457 128.364 217.264 127.332 219.344 125.586L223.714 121.92C225.794 120.174 227.008 116.972 227.355 112.315C227.319 110.07 227.412 107.864 227.635 105.698C227.529 105.597 227.433 105.503 227.345 105.415C221.116 101.677 218.001 97.3156 218.001 92.3312C218.001 88.1775 219.662 84.6468 222.984 81.7393C225.892 79.2471 229.629 78.0009 234.198 78.0009C237.52 78.0009 241.05 78.8317 244.788 80.4932C248.525 82.57 252.263 83.6084 256.001 83.6084C259.739 83.6084 263.476 82.57 267.214 80.4932C270.952 78.8317 274.482 78.0009 277.804 78.0009C282.372 78.0009 286.318 79.2471 289.64 81.7393C292.547 84.6468 294.001 88.1775 294.001 92.3312C294.001 97.3156 290.886 101.677 284.657 105.415L284.471 105.601C284.634 107.197 284.753 108.941 284.829 110.831C285.054 116.478 286.207 120.174 288.288 121.92L292.657 125.586C294.738 127.332 299.679 128.204 307.481 128.201C315.015 128.519 320.654 130.249 324.399 133.392L325.869 139.673C325.869 135.104 328.361 130.119 333.344 124.72C338.743 118.904 341.443 114.958 341.443 112.882V82.9751C341.443 80.0675 340.197 77.5753 337.705 75.4984L333.344 71.1371C327.115 67.3988 324 63.0374 324 58.053C324 53.4839 325.661 49.9533 328.984 47.4611C332.306 44.9688 335.421 43.7228 338.328 43.7228C340.82 43.7228 343.934 42.269 347.672 39.3614C351.825 36.4538 356.601 35 362 35C367.399 35 371.967 36.4538 375.705 39.3614C379.858 42.269 383.18 43.7228 385.672 43.7228C388.579 43.7228 391.694 44.9688 395.016 47.4611C398.339 49.9533 400 53.4839 400 58.053C400 63.0374 396.885 67.3988 390.656 71.1371C389.825 71.9678 388.164 73.4216 385.672 75.4984C383.596 77.5753 382.557 80.0675 382.557 82.9751V112.882C382.557 114.958 385.049 118.904 390.033 124.72C395.432 130.119 398.131 135.104 398.131 139.673C398.131 144.242 395.432 149.434 390.033 155.249C385.049 160.649 382.557 164.387 382.557 166.464V195.748C382.557 198.655 383.596 201.147 385.672 203.224C388.164 205.301 389.825 206.755 390.656 207.586C396.885 211.324 400 215.685 400 220.67C400 224.823 398.339 228.354 395.016 231.262C392.109 233.754 388.372 235 383.803 235C380.481 235 376.951 234.169 373.213 232.508C369.475 230.431 365.738 229.393 362 229.393C358.262 229.393 354.525 230.431 350.787 232.508C347.049 234.169 343.519 235 340.197 235ZM362 47C355.373 47 350 52.3726 350 59C350 63.843 352.869 68.0159 357 69.9119V116H367V69.9119C371.131 68.0159 374 63.843 374 59C374 52.3726 368.627 47 362 47ZM347 131C347 133.761 349.239 136 352 136H372C374.761 136 377 133.761 377 131C377 128.239 374.761 126 372 126H352C349.239 126 347 128.239 347 131ZM347 148C347 150.761 349.239 153 352 153H372C374.761 153 377 150.761 377 148C377 145.239 374.761 143 372 143H352C349.239 143 347 145.239 347 148ZM362 216C364.761 216 367 213.761 367 211V163H357V211C357 213.761 359.239 216 362 216ZM150 47C143.373 47 138 52.3726 138 59C138 63.843 140.869 68.0159 145 69.9119V116H155V69.9119C159.131 68.0159 162 63.843 162 59C162 52.3726 156.627 47 150 47ZM135 131C135 133.761 137.239 136 140 136H160C162.761 136 165 133.761 165 131C165 128.239 162.761 126 160 126H140C137.239 126 135 128.239 135 131ZM135 148C135 150.761 137.239 153 140 153H160C162.761 153 165 150.761 165 148C165 145.239 162.761 143 160 143H140C137.239 143 135 145.239 135 148ZM150 216C152.761 216 155 213.761 155 211V163H145V211C145 213.761 147.239 216 150 216ZM256.001 97.0009C253.239 97.0009 251.001 99.2395 251.001 102.001V117.874L220.172 143.743L226.6 151.403L256.001 126.733L285.402 151.403L291.83 143.743L261.001 117.874V102.001C261.001 99.2395 258.762 97.0009 256.001 97.0009ZM168.996 193.211C170.771 195.326 173.925 195.602 176.041 193.827L200.554 173.258L194.126 165.597L169.613 186.167C167.497 187.942 167.221 191.095 168.996 193.211ZM196.248 149.457L216.174 173.205C217.949 175.32 221.103 175.596 223.219 173.821C225.334 172.046 225.61 168.892 223.835 166.777L203.909 143.03C202.133 140.914 198.98 140.638 196.864 142.413C194.749 144.188 194.473 147.342 196.248 149.457ZM343.005 193.211C344.78 191.095 344.504 187.942 342.389 186.167L317.875 165.597L311.447 173.258L335.961 193.827C338.076 195.602 341.23 195.326 343.005 193.211ZM295.184 173.971L315.111 150.224C316.886 148.108 316.61 144.954 314.494 143.179C312.379 141.404 309.225 141.68 307.45 143.796L287.524 167.543C285.749 169.658 286.025 172.812 288.14 174.587C290.255 176.362 293.409 176.086 295.184 173.971Z" fill="#969696"/>
<path d="M334.051 450.293C334.881 449.463 336.337 448.007 338.412 445.931L336.998 444.517C334.92 446.595 333.469 448.047 332.637 448.879L334.051 450.293ZM329.068 230.555C326.35 227.837 325 224.561 325 220.67H323C323 225.086 324.557 228.871 327.653 231.969L329.068 230.555ZM338.412 74.7914C336.336 72.7148 334.882 71.2605 334.051 70.43L332.637 71.8441C333.468 72.6752 334.921 74.1283 336.998 76.2055L338.412 74.7914ZM122.051 450.293C122.881 449.463 124.336 448.008 126.412 445.931L124.998 444.517C122.921 446.595 121.468 448.047 120.637 448.879L122.051 450.293ZM126.412 316.791C124.337 314.716 122.881 313.26 122.051 312.43L120.637 313.844C121.469 314.676 122.92 316.127 124.998 318.205L126.412 316.791ZM122.051 208.293C122.879 207.465 124.339 206.005 126.412 203.931L124.998 202.517C122.918 204.597 121.471 206.045 120.637 206.879L122.051 208.293ZM126.412 74.7914C124.336 72.7152 122.881 71.26 122.051 70.43L120.637 71.8441C121.468 72.6756 122.921 74.1279 124.998 76.2055L126.412 74.7914ZM283.949 104.708C283.891 104.767 283.829 104.829 283.764 104.894L285.178 106.308C285.243 106.243 285.305 106.181 285.364 106.122L283.949 104.708ZM228.247 415.293C228.304 415.235 228.369 415.171 228.432 415.107L227.018 413.693C226.952 413.759 226.892 413.819 226.832 413.879L228.247 415.293ZM328.361 473.262L326.946 474.676L327.047 474.776L327.161 474.862L328.361 473.262ZM333.344 449.586L334.373 451.301L334.585 451.174L334.759 451L333.344 449.586ZM337.705 445.224L336.424 443.688L336.355 443.746L336.291 443.81L337.705 445.224ZM333.344 397.249L331.826 398.551L331.876 398.609L331.93 398.663L333.344 397.249ZM325.869 381.673H327.869L323.932 381.173L325.869 381.673ZM328.984 289.461L327.783 287.861L327.74 287.894L327.698 287.929L328.984 289.461ZM347.672 281.361L346.525 279.723L346.484 279.752L346.444 279.783L347.672 281.361ZM375.705 281.361L374.477 282.94L374.517 282.971L374.558 283L375.705 281.361ZM390.656 313.137L389.627 311.422L389.416 311.549L389.241 311.723L390.656 313.137ZM385.672 317.498L384.392 315.962L384.322 316.02L384.258 316.084L385.672 317.498ZM390.033 366.72L388.514 368.021L388.564 368.079L388.618 368.134L390.033 366.72ZM390.033 397.249L388.567 395.888L388.563 395.893L390.033 397.249ZM385.672 445.224L384.258 446.638L384.322 446.703L384.392 446.761L385.672 445.224ZM390.656 449.586L389.241 451L389.416 451.174L389.627 451.301L390.656 449.586ZM395.016 473.262L396.318 474.78L396.326 474.773L396.334 474.767L395.016 473.262ZM373.213 474.508L372.242 476.256L372.319 476.299L372.401 476.335L373.213 474.508ZM350.787 474.508L351.599 476.335L351.681 476.299L351.758 476.256L350.787 474.508ZM367 358V360H369V358H367ZM357 358H355V360H357V358ZM357 405V403H355V405H357ZM367 405H369V403H367V405ZM357 311.912H359V310.629L357.834 310.094L357 311.912ZM367 311.912L366.166 310.094L365 310.629V311.912H367ZM328.361 231.262L327.075 232.794L327.117 232.829L327.161 232.862L328.361 231.262ZM325.869 139.673L323.921 140.129L327.869 139.673H325.869ZM333.344 124.72L331.879 123.359L331.875 123.363L333.344 124.72ZM337.705 75.4984L336.291 76.9125L336.355 76.9767L336.424 77.0348L337.705 75.4984ZM333.344 71.1371L334.759 69.723L334.585 69.5489L334.373 69.4222L333.344 71.1371ZM347.672 39.3614L346.525 37.723L346.484 37.7519L346.444 37.7828L347.672 39.3614ZM375.705 39.3614L374.477 40.94L374.517 40.9709L374.558 40.9998L375.705 39.3614ZM390.656 71.1371L389.627 69.4222L389.416 69.5489L389.241 69.723L390.656 71.1371ZM385.672 75.4984L384.392 73.9621L384.322 74.0202L384.258 74.0843L385.672 75.4984ZM390.033 124.72L388.514 126.021L388.564 126.079L388.618 126.134L390.033 124.72ZM390.033 155.249L388.567 153.888L388.563 153.893L390.033 155.249ZM385.672 203.224L384.258 204.638L384.322 204.703L384.392 204.761L385.672 203.224ZM390.656 207.586L389.241 209L389.416 209.174L389.627 209.301L390.656 207.586ZM395.016 231.262L396.318 232.78L396.326 232.773L396.334 232.767L395.016 231.262ZM373.213 232.508L372.242 234.256L372.319 234.299L372.401 234.335L373.213 232.508ZM350.787 232.508L351.599 234.335L351.681 234.299L351.758 234.256L350.787 232.508ZM367 116V118H369V116H367ZM357 116H355V118H357V116ZM357 163V161H355V163H357ZM367 163H369V161H367V163ZM357 69.9119H359V68.6293L357.834 68.0942L357 69.9119ZM367 69.9119L366.166 68.0942L365 68.6293V69.9119H367ZM116.361 473.262L114.946 474.676L115.047 474.776L115.161 474.862L116.361 473.262ZM121.344 449.586L122.373 451.301L122.585 451.174L122.759 451L121.344 449.586ZM125.705 445.224L124.424 443.688L124.355 443.746L124.291 443.81L125.705 445.224ZM121.344 397.249L119.826 398.551L119.876 398.609L119.93 398.663L121.344 397.249ZM121.344 366.72L119.879 365.359L119.875 365.363L121.344 366.72ZM125.705 317.498L124.291 318.913L124.355 318.977L124.424 319.035L125.705 317.498ZM121.344 313.137L122.759 311.723L122.585 311.549L122.373 311.422L121.344 313.137ZM135.672 281.361L134.525 279.723L134.484 279.752L134.444 279.783L135.672 281.361ZM163.705 281.361L162.477 282.94L162.517 282.971L162.558 283L163.705 281.361ZM183.016 289.461L184.302 287.929L184.26 287.894L184.217 287.861L183.016 289.461ZM186.131 381.673L188.026 381.033L184.131 381.673H186.131ZM178.033 397.249L176.567 395.888L176.563 395.893L178.033 397.249ZM173.672 445.224L172.258 446.638L172.322 446.703L172.392 446.761L173.672 445.224ZM178.656 449.586L177.241 451L177.416 451.174L177.627 451.301L178.656 449.586ZM183.016 473.262L184.318 474.78L184.326 474.773L184.334 474.767L183.016 473.262ZM161.213 474.508L160.242 476.256L160.319 476.299L160.401 476.335L161.213 474.508ZM138.787 474.508L139.599 476.335L139.681 476.299L139.758 476.256L138.787 474.508ZM155 358V360H157V358H155ZM145 358H143V360H145V358ZM145 405V403H143V405H145ZM155 405H157V403H155V405ZM145 311.912H147V310.629L145.834 310.094L145 311.912ZM155 311.912L154.166 310.094L153 310.629V311.912H155ZM116.361 231.262L114.946 232.676L115.047 232.776L115.161 232.862L116.361 231.262ZM121.344 207.586L122.373 209.301L122.585 209.174L122.759 209L121.344 207.586ZM125.705 203.224L124.424 201.688L124.355 201.746L124.291 201.81L125.705 203.224ZM121.344 155.249L119.826 156.551L119.876 156.609L119.93 156.663L121.344 155.249ZM121.344 124.72L119.879 123.359L119.875 123.363L121.344 124.72ZM125.705 75.4984L124.291 76.9125L124.355 76.9767L124.424 77.0348L125.705 75.4984ZM121.344 71.1371L122.759 69.723L122.585 69.5489L122.373 69.4222L121.344 71.1371ZM135.672 39.3614L134.525 37.723L134.484 37.7519L134.444 37.7828L135.672 39.3614ZM163.705 39.3614L162.477 40.94L162.517 40.9709L162.558 40.9998L163.705 39.3614ZM178.656 71.1371L177.627 69.4222L177.416 69.5489L177.241 69.723L178.656 71.1371ZM173.672 75.4984L172.392 73.9621L172.322 74.0202L172.258 74.0843L173.672 75.4984ZM178.033 124.72L176.514 126.021L176.564 126.079L176.618 126.134L178.033 124.72ZM186.131 139.673H184.131L188.078 140.129L186.131 139.673ZM183.016 231.262L181.731 229.73L181.723 229.736L181.715 229.743L183.016 231.262ZM161.213 232.508L160.242 234.256L160.319 234.299L160.401 234.335L161.213 232.508ZM138.787 232.508L139.599 234.335L139.681 234.299L139.758 234.256L138.787 232.508ZM155 116V118H157V116H155ZM145 116H143V118H145V116ZM145 163V161H143V163H145ZM155 163H157V161H155V163ZM145 69.9119H147V68.6293L145.834 68.0942L145 69.9119ZM155 69.9119L154.166 68.0942L153 68.6293V69.9119H155ZM289.64 81.7393L291.054 80.3252L290.954 80.2246L290.84 80.1394L289.64 81.7393ZM284.657 105.415L283.627 103.7L283.416 103.827L283.242 104.001L284.657 105.415ZM227.345 105.415L228.759 104.001L228.585 103.827L228.374 103.7L227.345 105.415ZM222.984 81.7393L221.683 80.2209L221.675 80.2275L221.667 80.2342L222.984 81.7393ZM244.788 80.4932L245.759 78.7449L245.681 78.7017L245.6 78.6656L244.788 80.4932ZM267.214 80.4932L266.402 78.6656L266.32 78.7017L266.243 78.7449L267.214 80.4932ZM248.706 151.705L248.706 149.705L247.978 149.705L247.42 150.172L248.706 151.705ZM244.337 155.371L245.622 156.903L244.337 155.371ZM239.187 169.516L241.14 169.946L241.149 169.904L241.157 169.862L239.187 169.516ZM214.22 190.466L214.219 192.466L214.262 192.466L214.304 192.464L214.22 190.466ZM199.395 193.081L200.681 194.613L200.681 194.613L199.395 193.081ZM195.026 196.747L193.741 195.215L193.741 195.215L195.026 196.747ZM192.009 205.828L194.004 205.977L194.01 205.886L194.009 205.796L192.009 205.828ZM190.787 218.315L192.74 218.745L192.759 218.657L192.77 218.568L190.787 218.315ZM187.602 133.392L186.317 131.86L185.807 132.288L185.655 132.936L187.602 133.392ZM204.923 128.682L204.923 130.682L204.965 130.682L205.008 130.68L204.923 128.682ZM219.344 125.586L220.63 127.118L219.344 125.586ZM223.714 121.92L222.428 120.388L223.714 121.92ZM227.355 112.315L229.349 112.464L229.356 112.374L229.355 112.283L227.355 112.315ZM169.613 186.167L168.327 184.635L168.327 184.635L169.613 186.167ZM176.041 193.827L174.755 192.295L174.755 192.295L176.041 193.827ZM226.6 151.403L225.067 152.689L226.353 154.221L227.885 152.935L226.6 151.403ZM220.172 143.743L218.886 142.211L217.354 143.496L218.64 145.028L220.172 143.743ZM216.174 173.205L214.642 174.49L214.642 174.49L216.174 173.205ZM196.248 149.457L197.78 148.172L197.78 148.172L196.248 149.457ZM203.909 143.03L202.376 144.315L202.376 144.315L203.909 143.03ZM223.835 166.777L225.367 165.491L225.367 165.491L223.835 166.777ZM194.126 165.597L195.658 164.312L194.373 162.78L192.841 164.065L194.126 165.597ZM200.554 173.258L201.84 174.79L203.372 173.504L202.086 171.972L200.554 173.258ZM284.829 110.831L286.827 110.751L284.829 110.831ZM288.288 121.92L289.573 120.388L288.288 121.92ZM292.657 125.586L291.372 127.118L292.657 125.586ZM307.481 128.201L307.566 126.203L307.523 126.201L307.481 126.201L307.481 128.201ZM324.399 133.392L326.347 132.936L326.195 132.288L325.685 131.86L324.399 133.392ZM321.657 220.323L319.704 220.753L319.726 220.855L319.759 220.954L321.657 220.323ZM316.975 196.747L315.69 198.279L315.69 198.279L316.975 196.747ZM312.606 193.081L313.892 191.549L313.892 191.549L312.606 193.081ZM298.185 189.985L298.269 187.987L298.227 187.985L298.184 187.985L298.185 189.985ZM273.217 169.035L275.187 168.689L275.18 168.647L275.171 168.605L273.217 169.035ZM267.665 155.371L266.379 156.903L267.665 155.371ZM263.295 151.705L264.581 150.172L264.023 149.705L263.295 149.705L263.295 151.705ZM335.961 193.827L334.675 195.359L334.675 195.359L335.961 193.827ZM342.389 186.167L341.103 187.699L341.103 187.699L342.389 186.167ZM291.83 143.743L293.362 145.028L294.647 143.496L293.115 142.211L291.83 143.743ZM285.402 151.403L284.116 152.935L285.648 154.221L286.934 152.689L285.402 151.403ZM315.111 150.224L316.643 151.509L316.643 151.509L315.111 150.224ZM295.184 173.971L293.652 172.685L293.652 172.685L295.184 173.971ZM287.524 167.543L285.992 166.257L285.992 166.257L287.524 167.543ZM307.45 143.796L308.982 145.081L308.982 145.081L307.45 143.796ZM311.447 173.258L309.915 171.972L308.63 173.504L310.162 174.79L311.447 173.258ZM317.875 165.597L319.161 164.065L317.629 162.78L316.343 164.312L317.875 165.597ZM222.556 438.262L221.142 439.676L221.242 439.776L221.356 439.862L222.556 438.262ZM227.54 414.586L228.569 416.301L228.78 416.174L228.954 416L227.54 414.586ZM284.851 414.586L283.437 416L283.611 416.174L283.822 416.301L284.851 414.586ZM289.212 438.262L290.513 439.78L290.521 439.773L290.529 439.767L289.212 438.262ZM267.408 439.508L266.437 441.256L266.515 441.299L266.596 441.335L267.408 439.508ZM244.982 439.508L245.795 441.335L245.876 441.299L245.954 441.256L244.982 439.508ZM263.49 368.296L263.49 370.296L264.218 370.296L264.776 369.829L263.49 368.296ZM267.859 364.63L266.574 363.098L267.859 364.63ZM273.009 350.485L271.056 350.055L271.047 350.097L271.039 350.139L273.009 350.485ZM297.976 329.535L297.977 327.535L297.935 327.535L297.892 327.537L297.976 329.535ZM312.801 326.92L314.086 328.452L312.801 326.92ZM317.17 323.254L315.884 321.722L317.17 323.254ZM320.187 314.173L318.193 314.024L318.186 314.115L318.187 314.205L320.187 314.173ZM321.41 301.686L319.456 301.256L319.437 301.344L319.426 301.433L321.41 301.686ZM324.594 386.609L325.879 388.141L326.37 387.729L326.53 387.109L324.594 386.609ZM307.273 391.319L307.274 389.319L307.231 389.319L307.189 389.321L307.273 391.319ZM292.852 394.415L291.566 392.883L292.852 394.415ZM288.483 398.081L289.768 399.613L288.483 398.081ZM284.841 407.686L282.847 407.537L282.84 407.627L282.842 407.718L284.841 407.686ZM342.583 333.834L343.869 335.366L343.869 335.366L342.583 333.834ZM336.156 326.174L334.87 324.642L334.87 324.642L336.156 326.174ZM285.597 368.598L287.129 367.312L285.843 365.78L284.311 367.066L285.597 368.598ZM292.024 376.258L293.31 377.79L294.842 376.505L293.557 374.973L292.024 376.258ZM296.022 346.796L294.49 348.082L294.49 348.082L296.022 346.796ZM315.948 370.543L317.48 369.258L317.48 369.258L315.948 370.543ZM308.288 376.971L309.82 375.686L309.82 375.686L308.288 376.971ZM288.361 353.224L286.829 354.51L286.829 354.51L288.361 353.224ZM318.07 354.404L316.538 355.689L317.823 357.221L319.356 355.936L318.07 354.404ZM311.642 346.743L310.356 345.211L308.824 346.497L310.11 348.029L311.642 346.743ZM227.367 409.17L229.366 409.09L227.367 409.17ZM223.908 398.081L222.623 399.613L223.908 398.081ZM219.539 394.415L220.825 392.883L219.539 394.415ZM204.715 391.8L204.631 393.798L204.673 393.8L204.715 393.8L204.715 391.8ZM187.797 386.609L185.902 387.249L186.081 387.78L186.511 388.141L187.797 386.609ZM190.539 299.678L192.492 299.248L192.47 299.146L192.437 299.047L190.539 299.678ZM195.221 323.254L196.506 321.722L195.221 323.254ZM199.59 326.92L198.305 328.452L199.59 326.92ZM214.011 330.016L213.927 332.014L213.969 332.016L214.012 332.016L214.011 330.016ZM238.979 350.966L237.009 351.312L237.016 351.354L237.025 351.396L238.979 350.966ZM244.531 364.63L245.817 363.098L244.531 364.63ZM248.901 368.296L247.615 369.829L248.173 370.296L248.901 370.296L248.901 368.296ZM176.235 326.174L177.521 324.642L177.521 324.642L176.235 326.174ZM169.808 333.834L168.522 335.366L168.522 335.366L169.808 333.834ZM220.366 376.258L218.834 374.973L217.549 376.505L219.081 377.79L220.366 376.258ZM226.794 368.598L228.08 367.066L226.548 365.78L225.262 367.312L226.794 368.598ZM197.086 369.777L195.554 368.492L197.086 369.777ZM217.012 346.03L218.544 347.316L217.012 346.03ZM224.672 352.458L226.205 353.744L224.672 352.458ZM204.746 376.205L203.214 374.92L204.746 376.205ZM200.749 346.743L202.281 348.029L203.566 346.497L202.034 345.211L200.749 346.743ZM194.321 354.404L193.035 355.936L194.567 357.221L195.853 355.689L194.321 354.404ZM256.001 126.733L257.286 125.201L256.001 124.122L254.715 125.201L256.001 126.733ZM251.001 117.874L252.286 119.406L253.001 118.807V117.874H251.001ZM261.001 117.874H259.001V118.807L259.715 119.406L261.001 117.874ZM227.635 105.698L229.624 105.903L229.725 104.93L229.018 104.253L227.635 105.698ZM284.471 105.601L283.057 104.187L282.385 104.859L282.481 105.804L284.471 105.601ZM256.195 393.268L254.91 394.8L256.195 395.879L257.481 394.8L256.195 393.268ZM251.195 402.127H253.195V401.194L252.481 400.595L251.195 402.127ZM261.195 402.127L259.91 400.595L259.195 401.194V402.127H261.195ZM227.725 414.4L229.139 415.814L229.811 415.142L229.715 414.197L227.725 414.4ZM284.561 414.303L282.572 414.098L282.472 415.071L283.179 415.748L284.561 414.303ZM340.197 475C336.016 475 332.502 473.868 329.561 471.662L327.161 474.862C330.864 477.64 335.241 479 340.197 479V475ZM329.775 471.848C327.247 469.319 326 466.299 326 462.67H322C322 467.348 323.66 471.389 326.946 474.676L329.775 471.848ZM326 462.67C326 458.679 328.445 454.858 334.373 451.301L332.315 447.871C325.784 451.79 322 456.691 322 462.67H326ZM338.985 446.761C341.874 444.353 343.443 441.322 343.443 437.748H339.443C339.443 439.988 338.52 441.942 336.424 443.688L338.985 446.761ZM343.443 437.748V408.464H339.443V437.748H343.443ZM343.443 408.464C343.443 407.539 343.15 406.614 342.751 405.753C342.342 404.873 341.759 403.929 341.039 402.932C339.6 400.939 337.491 398.568 334.759 395.835L331.93 398.663C334.596 401.33 336.536 403.529 337.797 405.274C338.426 406.146 338.856 406.864 339.122 407.437C339.397 408.029 339.443 408.351 339.443 408.464H343.443ZM334.863 395.948C329.996 390.269 327.869 385.533 327.869 381.673H323.869C323.869 386.951 326.725 392.599 331.826 398.551L334.863 395.948ZM330.184 291.061C333.304 288.721 336.004 287.723 338.328 287.723V283.723C334.837 283.723 331.308 285.217 327.783 287.861L330.184 291.061ZM338.328 287.723C341.517 287.723 345.084 285.909 348.9 282.94L346.444 279.783C342.785 282.629 340.122 283.723 338.328 283.723V287.723ZM348.819 283C352.614 280.343 356.983 279 362 279V275C356.219 275 351.037 276.564 346.525 279.723L348.819 283ZM362 279C367.019 279 371.139 280.343 374.477 282.94L376.933 279.783C372.796 276.564 367.778 275 362 275V279ZM374.558 283C378.761 285.942 382.522 287.723 385.672 287.723V283.723C383.839 283.723 380.955 282.596 376.852 279.723L374.558 283ZM385.672 287.723C387.996 287.723 390.696 288.721 393.816 291.061L396.217 287.861C392.692 285.217 389.163 283.723 385.672 283.723V287.723ZM393.816 291.061C396.58 293.134 398 296.041 398 300.053H402C402 294.927 400.098 290.773 396.217 287.861L393.816 291.061ZM398 300.053C398 304.043 395.555 307.865 389.627 311.422L391.685 314.852C398.216 310.933 402 306.031 402 300.053H398ZM389.241 311.723C388.484 312.48 386.891 313.879 384.392 315.962L386.953 319.035C389.437 316.964 391.166 315.455 392.07 314.551L389.241 311.723ZM384.258 316.084C381.811 318.532 380.557 321.531 380.557 324.975H384.557C384.557 322.604 385.381 320.619 387.086 318.913L384.258 316.084ZM380.557 324.975V354.882H384.557V324.975H380.557ZM380.557 354.882C380.557 355.77 380.816 356.682 381.177 357.554C381.546 358.447 382.075 359.421 382.735 360.467C384.055 362.557 385.994 365.08 388.514 368.021L391.551 365.418C389.088 362.544 387.289 360.187 386.117 358.331C385.532 357.403 385.126 356.638 384.873 356.025C384.611 355.392 384.557 355.032 384.557 354.882H380.557ZM388.618 368.134C393.88 373.396 396.131 377.896 396.131 381.673H400.131C400.131 376.312 396.983 370.843 391.447 365.306L388.618 368.134ZM396.131 381.673C396.131 385.476 393.855 390.193 388.567 395.888L391.499 398.61C397.008 392.675 400.131 387.007 400.131 381.673H396.131ZM388.563 395.893C386.039 398.628 384.091 401 382.762 402.994C381.499 404.888 380.557 406.779 380.557 408.464H384.557C384.557 408.072 384.861 407.056 386.09 405.212C387.253 403.467 389.043 401.27 391.503 398.606L388.563 395.893ZM380.557 408.464V437.748H384.557V408.464H380.557ZM380.557 437.748C380.557 441.192 381.811 444.191 384.258 446.638L387.086 443.81C385.381 442.104 384.557 440.119 384.557 437.748H380.557ZM384.392 446.761C386.891 448.844 388.484 450.243 389.241 451L392.07 448.172C391.166 447.267 389.437 445.759 386.953 443.688L384.392 446.761ZM389.627 451.301C395.555 454.858 398 458.679 398 462.67H402C402 456.691 398.216 451.79 391.685 447.871L389.627 451.301ZM398 462.67C398 466.207 396.619 469.202 393.699 471.757L396.334 474.767C400.059 471.506 402 467.44 402 462.67H398ZM393.715 471.743C391.237 473.867 387.991 475 383.803 475V479C388.752 479 392.981 477.641 396.318 474.78L393.715 471.743ZM383.803 475C380.818 475 377.565 474.254 374.026 472.68L372.401 476.335C376.337 478.085 380.144 479 383.803 479V475ZM374.185 472.76C370.193 470.542 366.124 469.393 362 469.393V473.393C365.351 473.393 368.758 474.32 372.242 476.256L374.185 472.76ZM362 469.393C357.876 469.393 353.807 470.542 349.815 472.76L351.758 476.256C355.242 474.32 358.649 473.393 362 473.393V469.393ZM349.974 472.68C346.435 474.254 343.182 475 340.197 475V479C343.856 479 347.663 478.085 351.599 476.335L349.974 472.68ZM336.291 443.81L331.93 448.172L334.759 451L339.119 446.638L336.291 443.81ZM352 301C352 295.477 356.477 291 362 291V287C354.268 287 348 293.268 348 301H352ZM362 291C367.523 291 372 295.477 372 301H376C376 293.268 369.732 287 362 287V291ZM352 376C350.343 376 349 374.657 349 373H345C345 376.866 348.134 380 352 380V376ZM349 373C349 371.343 350.343 370 352 370V366C348.134 366 345 369.134 345 373H349ZM375 373C375 374.657 373.657 376 372 376V380C375.866 380 379 376.866 379 373H375ZM372 370C373.657 370 375 371.343 375 373H379C379 369.134 375.866 366 372 366V370ZM352 393C350.343 393 349 391.657 349 390H345C345 393.866 348.134 397 352 397V393ZM349 390C349 388.343 350.343 387 352 387V383C348.134 383 345 386.134 345 390H349ZM365 453C365 454.657 363.657 456 362 456V460C365.866 460 369 456.866 369 453H365ZM362 456C360.343 456 359 454.657 359 453H355C355 456.866 358.134 460 362 460V456ZM375 390C375 391.657 373.657 393 372 393V397C375.866 397 379 393.866 379 390H375ZM372 387C373.657 387 375 388.343 375 390H379C379 386.134 375.866 383 372 383V387ZM367 356H357V360H367V356ZM357 407H367V403H357V407ZM365 405V453H369V405H365ZM359 453V405H355V453H359ZM352 370H372V366H352V370ZM372 376H352V380H372V376ZM352 387H372V383H352V387ZM372 393H352V397H372V393ZM359 358V311.912H355V358H359ZM357.834 310.094C354.387 308.512 352 305.033 352 301H348C348 306.653 351.351 311.52 356.166 313.73L357.834 310.094ZM365 311.912V358H369V311.912H365ZM372 301C372 305.033 369.613 308.512 366.166 310.094L367.834 313.73C372.649 311.52 376 306.653 376 301H372ZM340.197 233C336.016 233 332.502 231.868 329.561 229.662L327.161 232.862C330.864 235.64 335.241 237 340.197 237V233ZM327.869 139.673C327.869 135.836 329.975 131.32 334.814 126.076L331.875 123.363C326.747 128.919 323.869 134.371 323.869 139.673H327.869ZM334.81 126.08C337.539 123.141 339.639 120.618 341.069 118.528C341.784 117.483 342.359 116.506 342.762 115.608C343.154 114.732 343.443 113.8 343.443 112.882H339.443C339.443 113.001 339.394 113.341 339.111 113.972C338.839 114.579 338.402 115.342 337.767 116.27C336.498 118.125 334.548 120.483 331.879 123.359L334.81 126.08ZM343.443 112.882V82.9751H339.443V112.882H343.443ZM343.443 82.9751C343.443 79.4007 341.874 76.3694 338.985 73.9621L336.424 77.0348C338.52 78.7812 339.443 80.7343 339.443 82.9751H343.443ZM334.373 69.4222C328.445 65.8647 326 62.0435 326 58.053H322C322 64.0313 325.784 68.9328 332.315 72.852L334.373 69.4222ZM326 58.053C326 54.0406 327.42 51.1339 330.184 49.061L327.783 45.8612C323.902 48.7727 322 52.9272 322 58.053H326ZM330.184 49.061C333.304 46.7206 336.004 45.7228 338.328 45.7228V41.7228C334.837 41.7228 331.308 43.2171 327.783 45.8612L330.184 49.061ZM338.328 45.7228C341.517 45.7228 345.084 43.9089 348.9 40.94L346.444 37.7828C342.785 40.629 340.122 41.7228 338.328 41.7228V45.7228ZM348.819 40.9998C352.614 38.3432 356.983 37 362 37V33C356.219 33 351.037 34.5644 346.525 37.723L348.819 40.9998ZM362 37C367.019 37 371.139 38.3431 374.477 40.94L376.933 37.7828C372.796 34.5645 367.778 33 362 33V37ZM374.558 40.9998C378.761 43.9422 382.522 45.7228 385.672 45.7228V41.7228C383.839 41.7228 380.955 40.5957 376.852 37.723L374.558 40.9998ZM385.672 45.7228C387.996 45.7228 390.696 46.7206 393.816 49.061L396.217 45.8612C392.692 43.2171 389.163 41.7228 385.672 41.7228V45.7228ZM393.816 49.061C396.58 51.1339 398 54.0406 398 58.053H402C402 52.9272 400.098 48.7727 396.217 45.8612L393.816 49.061ZM398 58.053C398 62.0435 395.555 65.8647 389.627 69.4222L391.685 72.852C398.216 68.9328 402 64.0313 402 58.053H398ZM389.241 69.723C388.484 70.4803 386.891 71.8792 384.392 73.9621L386.953 77.0348C389.437 74.964 391.166 73.4554 392.07 72.5512L389.241 69.723ZM384.258 74.0843C381.811 76.532 380.557 79.5311 380.557 82.9751H384.557C384.557 80.6039 385.381 78.6186 387.086 76.9125L384.258 74.0843ZM380.557 82.9751V112.882H384.557V82.9751H380.557ZM380.557 112.882C380.557 113.77 380.816 114.682 381.177 115.554C381.546 116.447 382.075 117.421 382.735 118.467C384.055 120.557 385.994 123.08 388.514 126.021L391.551 123.418C389.088 120.544 387.289 118.187 386.117 116.331C385.532 115.403 385.126 114.638 384.873 114.025C384.611 113.392 384.557 113.032 384.557 112.882H380.557ZM388.618 126.134C393.88 131.396 396.131 135.896 396.131 139.673H400.131C400.131 134.312 396.983 128.843 391.447 123.306L388.618 126.134ZM396.131 139.673C396.131 143.476 393.855 148.193 388.567 153.888L391.499 156.61C397.008 150.675 400.131 145.007 400.131 139.673H396.131ZM388.563 153.893C386.039 156.628 384.091 159 382.762 160.994C381.499 162.888 380.557 164.779 380.557 166.464H384.557C384.557 166.072 384.861 165.056 386.09 163.212C387.253 161.468 389.043 159.27 391.503 156.606L388.563 153.893ZM380.557 166.464V195.748H384.557V166.464H380.557ZM380.557 195.748C380.557 199.192 381.811 202.191 384.258 204.638L387.086 201.81C385.381 200.104 384.557 198.119 384.557 195.748H380.557ZM384.392 204.761C386.891 206.844 388.484 208.243 389.241 209L392.07 206.172C391.166 205.267 389.437 203.759 386.953 201.688L384.392 204.761ZM389.627 209.301C395.555 212.858 398 216.679 398 220.67H402C402 214.691 398.216 209.79 391.685 205.871L389.627 209.301ZM398 220.67C398 224.207 396.619 227.202 393.699 229.757L396.334 232.767C400.059 229.506 402 225.44 402 220.67H398ZM393.715 229.743C391.237 231.867 387.991 233 383.803 233V237C388.752 237 392.981 235.641 396.318 232.78L393.715 229.743ZM383.803 233C380.818 233 377.565 232.254 374.026 230.68L372.401 234.335C376.337 236.085 380.144 237 383.803 237V233ZM374.185 230.76C370.193 228.542 366.124 227.393 362 227.393V231.393C365.351 231.393 368.758 232.32 372.242 234.256L374.185 230.76ZM362 227.393C357.876 227.393 353.807 228.542 349.815 230.76L351.758 234.256C355.242 232.32 358.649 231.393 362 231.393V227.393ZM349.974 230.68C346.435 232.254 343.182 233 340.197 233V237C343.856 237 347.663 236.085 351.599 234.335L349.974 230.68ZM331.93 72.5512L336.291 76.9125L339.119 74.0843L334.759 69.723L331.93 72.5512ZM352 59C352 53.4772 356.477 49 362 49V45C354.268 45 348 51.268 348 59H352ZM362 49C367.523 49 372 53.4772 372 59H376C376 51.268 369.732 45 362 45V49ZM352 134C350.343 134 349 132.657 349 131H345C345 134.866 348.134 138 352 138V134ZM349 131C349 129.343 350.343 128 352 128V124C348.134 124 345 127.134 345 131H349ZM375 131C375 132.657 373.657 134 372 134V138C375.866 138 379 134.866 379 131H375ZM372 128C373.657 128 375 129.343 375 131H379C379 127.134 375.866 124 372 124V128ZM352 151C350.343 151 349 149.657 349 148H345C345 151.866 348.134 155 352 155V151ZM349 148C349 146.343 350.343 145 352 145V141C348.134 141 345 144.134 345 148H349ZM365 211C365 212.657 363.657 214 362 214V218C365.866 218 369 214.866 369 211H365ZM362 214C360.343 214 359 212.657 359 211H355C355 214.866 358.134 218 362 218V214ZM375 148C375 149.657 373.657 151 372 151V155C375.866 155 379 151.866 379 148H375ZM372 145C373.657 145 375 146.343 375 148H379C379 144.134 375.866 141 372 141V145ZM367 114H357V118H367V114ZM357 165H367V161H357V165ZM365 163V211H369V163H365ZM359 211V163H355V211H359ZM352 128H372V124H352V128ZM372 134H352V138H372V134ZM352 145H372V141H352V145ZM372 151H352V155H372V151ZM359 116V69.9119H355V116H359ZM357.834 68.0942C354.387 66.5122 352 63.0328 352 59H348C348 64.6532 351.351 69.5196 356.166 71.7296L357.834 68.0942ZM365 69.9119V116H369V69.9119H365ZM372 59C372 63.0328 369.613 66.5122 366.166 68.0942L367.834 71.7296C372.649 69.5196 376 64.6532 376 59H372ZM128.197 475C124.016 475 120.502 473.868 117.561 471.662L115.161 474.862C118.864 477.64 123.241 479 128.197 479V475ZM117.775 471.848C115.247 469.319 114 466.299 114 462.67H110C110 467.348 111.66 471.389 114.946 474.676L117.775 471.848ZM114 462.67C114 458.679 116.445 454.858 122.373 451.301L120.315 447.871C113.784 451.79 110 456.691 110 462.67H114ZM126.985 446.761C129.874 444.353 131.443 441.322 131.443 437.748H127.443C127.443 439.988 126.52 441.942 124.424 443.688L126.985 446.761ZM131.443 437.748V408.464H127.443V437.748H131.443ZM131.443 408.464C131.443 407.539 131.15 406.614 130.751 405.753C130.342 404.873 129.759 403.929 129.039 402.932C127.6 400.939 125.491 398.568 122.759 395.835L119.93 398.663C122.596 401.33 124.536 403.529 125.797 405.274C126.426 406.146 126.856 406.864 127.122 407.437C127.397 408.029 127.443 408.351 127.443 408.464H131.443ZM122.863 395.948C117.996 390.269 115.869 385.533 115.869 381.673H111.869C111.869 386.951 114.725 392.599 119.826 398.551L122.863 395.948ZM115.869 381.673C115.869 377.836 117.975 373.32 122.814 368.076L119.875 365.363C114.747 370.919 111.869 376.371 111.869 381.673H115.869ZM122.81 368.08C125.539 365.141 127.639 362.618 129.069 360.528C129.784 359.483 130.359 358.506 130.762 357.608C131.154 356.732 131.443 355.8 131.443 354.882H127.443C127.443 355.001 127.394 355.341 127.111 355.972C126.839 356.579 126.402 357.342 125.767 358.27C124.498 360.125 122.548 362.483 119.879 365.359L122.81 368.08ZM131.443 354.882V324.975H127.443V354.882H131.443ZM131.443 324.975C131.443 321.401 129.874 318.369 126.985 315.962L124.424 319.035C126.52 320.781 127.443 322.734 127.443 324.975H131.443ZM122.373 311.422C116.445 307.865 114 304.043 114 300.053H110C110 306.031 113.784 310.933 120.315 314.852L122.373 311.422ZM114 300.053C114 296.041 115.42 293.134 118.184 291.061L115.783 287.861C111.902 290.773 110 294.927 110 300.053H114ZM118.184 291.061C121.304 288.721 124.004 287.723 126.328 287.723V283.723C122.837 283.723 119.308 285.217 115.783 287.861L118.184 291.061ZM126.328 287.723C129.517 287.723 133.084 285.909 136.9 282.94L134.444 279.783C130.785 282.629 128.122 283.723 126.328 283.723V287.723ZM136.819 283C140.614 280.343 144.983 279 150 279V275C144.219 275 139.037 276.564 134.525 279.723L136.819 283ZM150 279C155.019 279 159.139 280.343 162.477 282.94L164.933 279.783C160.796 276.564 155.778 275 150 275V279ZM162.558 283C166.761 285.942 170.522 287.723 173.672 287.723V283.723C171.839 283.723 168.955 282.596 164.852 279.723L162.558 283ZM173.672 287.723C175.996 287.723 178.696 288.721 181.816 291.061L184.217 287.861C180.692 285.217 177.163 283.723 173.672 283.723V287.723ZM184.131 381.673C184.131 385.476 181.855 390.193 176.567 395.888L179.498 398.61C185.008 392.675 188.131 387.007 188.131 381.673H184.131ZM176.563 395.893C174.039 398.628 172.091 401 170.762 402.994C169.5 404.888 168.557 406.779 168.557 408.464H172.557C172.557 408.072 172.861 407.056 174.09 405.212C175.253 403.467 177.043 401.27 179.503 398.606L176.563 395.893ZM168.557 408.464V437.748H172.557V408.464H168.557ZM168.557 437.748C168.557 441.192 169.811 444.191 172.258 446.638L175.086 443.81C173.381 442.104 172.557 440.119 172.557 437.748H168.557ZM172.392 446.761C174.891 448.844 176.484 450.243 177.241 451L180.07 448.172C179.166 447.267 177.437 445.759 174.953 443.688L172.392 446.761ZM177.627 451.301C183.555 454.858 186 458.679 186 462.67H190C190 456.691 186.216 451.79 179.685 447.871L177.627 451.301ZM186 462.67C186 466.207 184.619 469.202 181.699 471.757L184.334 474.767C188.059 471.506 190 467.44 190 462.67H186ZM181.715 471.743C179.237 473.867 175.991 475 171.803 475V479C176.752 479 180.981 477.641 184.318 474.78L181.715 471.743ZM171.803 475C168.818 475 165.565 474.254 162.026 472.68L160.401 476.335C164.337 478.085 168.144 479 171.803 479V475ZM162.185 472.76C158.193 470.542 154.124 469.393 150 469.393V473.393C153.351 473.393 156.758 474.32 160.242 476.256L162.185 472.76ZM150 469.393C145.876 469.393 141.807 470.542 137.815 472.76L139.758 476.256C143.242 474.32 146.649 473.393 150 473.393V469.393ZM137.974 472.68C134.435 474.254 131.182 475 128.197 475V479C131.856 479 135.663 478.085 139.599 476.335L137.974 472.68ZM119.93 314.551L124.291 318.913L127.119 316.084L122.759 311.723L119.93 314.551ZM124.291 443.81L119.93 448.172L122.759 451L127.119 446.638L124.291 443.81ZM140 301C140 295.477 144.477 291 150 291V287C142.268 287 136 293.268 136 301H140ZM150 291C155.523 291 160 295.477 160 301H164C164 293.268 157.732 287 150 287V291ZM140 376C138.343 376 137 374.657 137 373H133C133 376.866 136.134 380 140 380V376ZM137 373C137 371.343 138.343 370 140 370V366C136.134 366 133 369.134 133 373H137ZM163 373C163 374.657 161.657 376 160 376V380C163.866 380 167 376.866 167 373H163ZM160 370C161.657 370 163 371.343 163 373H167C167 369.134 163.866 366 160 366V370ZM140 393C138.343 393 137 391.657 137 390H133C133 393.866 136.134 397 140 397V393ZM137 390C137 388.343 138.343 387 140 387V383C136.134 383 133 386.134 133 390H137ZM153 453C153 454.657 151.657 456 150 456V460C153.866 460 157 456.866 157 453H153ZM150 456C148.343 456 147 454.657 147 453H143C143 456.866 146.134 460 150 460V456ZM163 390C163 391.657 161.657 393 160 393V397C163.866 397 167 393.866 167 390H163ZM160 387C161.657 387 163 388.343 163 390H167C167 386.134 163.866 383 160 383V387ZM155 356H145V360H155V356ZM145 407H155V403H145V407ZM153 405V453H157V405H153ZM147 453V405H143V453H147ZM140 370H160V366H140V370ZM160 376H140V380H160V376ZM140 387H160V383H140V387ZM160 393H140V397H160V393ZM147 358V311.912H143V358H147ZM145.834 310.094C142.387 308.512 140 305.033 140 301H136C136 306.653 139.351 311.52 144.166 313.73L145.834 310.094ZM153 311.912V358H157V311.912H153ZM160 301C160 305.033 157.613 308.512 154.166 310.094L155.834 313.73C160.649 311.52 164 306.653 164 301H160ZM128.197 233C124.016 233 120.502 231.868 117.561 229.662L115.161 232.862C118.864 235.64 123.241 237 128.197 237V233ZM117.775 229.848C115.247 227.319 114 224.299 114 220.67H110C110 225.348 111.66 229.389 114.946 232.676L117.775 229.848ZM114 220.67C114 216.679 116.445 212.858 122.373 209.301L120.315 205.871C113.784 209.79 110 214.691 110 220.67H114ZM126.985 204.761C129.874 202.353 131.443 199.322 131.443 195.748H127.443C127.443 197.988 126.52 199.942 124.424 201.688L126.985 204.761ZM131.443 195.748V166.464H127.443V195.748H131.443ZM131.443 166.464C131.443 165.539 131.15 164.614 130.751 163.753C130.342 162.873 129.759 161.929 129.039 160.932C127.6 158.939 125.491 156.568 122.759 153.835L119.93 156.663C122.596 159.33 124.536 161.529 125.797 163.274C126.426 164.146 126.856 164.864 127.122 165.437C127.397 166.029 127.443 166.351 127.443 166.464H131.443ZM122.863 153.948C117.996 148.269 115.869 143.533 115.869 139.673H111.869C111.869 144.951 114.725 150.599 119.826 156.551L122.863 153.948ZM115.869 139.673C115.869 135.836 117.975 131.32 122.814 126.076L119.875 123.363C114.747 128.919 111.869 134.371 111.869 139.673H115.869ZM122.81 126.08C125.539 123.141 127.639 120.618 129.069 118.528C129.784 117.483 130.359 116.506 130.762 115.608C131.154 114.732 131.443 113.8 131.443 112.882H127.443C127.443 113.001 127.394 113.341 127.111 113.972C126.839 114.579 126.402 115.342 125.767 116.27C124.498 118.125 122.548 120.483 119.879 123.359L122.81 126.08ZM131.443 112.882V82.9751H127.443V112.882H131.443ZM131.443 82.9751C131.443 79.4007 129.874 76.3694 126.985 73.9621L124.424 77.0348C126.52 78.7812 127.443 80.7343 127.443 82.9751H131.443ZM122.373 69.4222C116.445 65.8647 114 62.0435 114 58.053H110C110 64.0313 113.784 68.9328 120.315 72.852L122.373 69.4222ZM114 58.053C114 54.0406 115.42 51.1339 118.184 49.061L115.783 45.8612C111.902 48.7727 110 52.9272 110 58.053H114ZM118.184 49.061C121.304 46.7206 124.004 45.7228 126.328 45.7228V41.7228C122.837 41.7228 119.308 43.2171 115.783 45.8612L118.184 49.061ZM126.328 45.7228C129.517 45.7228 133.084 43.9089 136.9 40.94L134.444 37.7828C130.785 40.629 128.122 41.7228 126.328 41.7228V45.7228ZM136.819 40.9998C140.614 38.3432 144.983 37 150 37V33C144.219 33 139.037 34.5644 134.525 37.723L136.819 40.9998ZM150 37C155.019 37 159.139 38.3431 162.477 40.94L164.933 37.7828C160.796 34.5645 155.778 33 150 33V37ZM162.558 40.9998C166.761 43.9422 170.522 45.7228 173.672 45.7228V41.7228C171.839 41.7228 168.955 40.5957 164.852 37.723L162.558 40.9998ZM173.672 45.7228C175.996 45.7228 178.696 46.7206 181.816 49.061L184.217 45.8612C180.692 43.2171 177.163 41.7228 173.672 41.7228V45.7228ZM181.816 49.061C184.58 51.1339 186 54.0406 186 58.053H190C190 52.9272 188.098 48.7727 184.217 45.8612L181.816 49.061ZM186 58.053C186 62.0435 183.555 65.8647 177.627 69.4222L179.685 72.852C186.216 68.9328 190 64.0313 190 58.053H186ZM177.241 69.723C176.484 70.4803 174.891 71.8792 172.392 73.9621L174.953 77.0348C177.437 74.964 179.166 73.4554 180.07 72.5512L177.241 69.723ZM172.258 74.0843C169.811 76.532 168.557 79.5312 168.557 82.9751H172.557C172.557 80.6038 173.381 78.6186 175.086 76.9125L172.258 74.0843ZM168.557 82.9751V112.882H172.557V82.9751H168.557ZM168.557 112.882C168.557 113.77 168.816 114.682 169.177 115.554C169.546 116.447 170.075 117.421 170.735 118.467C172.055 120.557 173.994 123.08 176.514 126.021L179.551 123.418C177.088 120.544 175.289 118.187 174.117 116.331C173.532 115.403 173.126 114.638 172.873 114.025C172.611 113.392 172.557 113.032 172.557 112.882H168.557ZM176.618 126.134C181.88 131.396 184.131 135.896 184.131 139.673H188.131C188.131 134.312 184.983 128.843 179.447 123.306L176.618 126.134ZM181.715 229.743C179.237 231.867 175.991 233 171.803 233V237C176.752 237 180.981 235.641 184.318 232.78L181.715 229.743ZM171.803 233C168.818 233 165.565 232.254 162.026 230.68L160.401 234.335C164.337 236.085 168.144 237 171.803 237V233ZM162.185 230.76C158.193 228.542 154.124 227.393 150 227.393V231.393C153.351 231.393 156.758 232.32 160.242 234.256L162.185 230.76ZM150 227.393C145.876 227.393 141.807 228.542 137.815 230.76L139.758 234.256C143.242 232.32 146.649 231.393 150 231.393V227.393ZM137.974 230.68C134.435 232.254 131.182 233 128.197 233V237C131.856 237 135.663 236.085 139.599 234.335L137.974 230.68ZM119.93 72.5512L124.291 76.9125L127.119 74.0843L122.759 69.723L119.93 72.5512ZM124.291 201.81L119.93 206.172L122.759 209L127.119 204.638L124.291 201.81ZM140 59C140 53.4772 144.477 49 150 49V45C142.268 45 136 51.268 136 59H140ZM150 49C155.523 49 160 53.4772 160 59H164C164 51.268 157.732 45 150 45V49ZM140 134C138.343 134 137 132.657 137 131H133C133 134.866 136.134 138 140 138V134ZM137 131C137 129.343 138.343 128 140 128V124C136.134 124 133 127.134 133 131H137ZM163 131C163 132.657 161.657 134 160 134V138C163.866 138 167 134.866 167 131H163ZM160 128C161.657 128 163 129.343 163 131H167C167 127.134 163.866 124 160 124V128ZM140 151C138.343 151 137 149.657 137 148H133C133 151.866 136.134 155 140 155V151ZM137 148C137 146.343 138.343 145 140 145V141C136.134 141 133 144.134 133 148H137ZM153 211C153 212.657 151.657 214 150 214V218C153.866 218 157 214.866 157 211H153ZM150 214C148.343 214 147 212.657 147 211H143C143 214.866 146.134 218 150 218V214ZM163 148C163 149.657 161.657 151 160 151V155C163.866 155 167 151.866 167 148H163ZM160 145C161.657 145 163 146.343 163 148H167C167 144.134 163.866 141 160 141V145ZM155 114H145V118H155V114ZM145 165H155V161H145V165ZM153 163V211H157V163H153ZM147 211V163H143V211H147ZM140 128H160V124H140V128ZM160 134H140V138H160V134ZM140 145H160V141H140V145ZM160 151H140V155H160V151ZM147 116V69.9119H143V116H147ZM145.834 68.0942C142.387 66.5122 140 63.0328 140 59H136C136 64.6532 139.351 69.5196 144.166 71.7296L145.834 68.0942ZM153 69.9119V116H157V69.9119H153ZM160 59C160 63.0328 157.613 66.5122 154.166 68.0942L155.834 71.7296C160.649 69.5196 164 64.6532 164 59H160ZM277.804 80.0009C281.985 80.0009 285.499 81.1328 288.44 83.3392L290.84 80.1394C287.137 77.3613 282.76 76.0009 277.804 76.0009V80.0009ZM288.226 83.1534C290.754 85.6816 292.001 88.7017 292.001 92.3312H296.001C296.001 87.6532 294.341 83.6121 291.054 80.3252L288.226 83.1534ZM292.001 92.3312C292.001 96.3217 289.556 100.143 283.627 103.7L285.686 107.13C292.217 103.211 296.001 98.3095 296.001 92.3312H292.001ZM228.374 103.7C222.446 100.143 220.001 96.3217 220.001 92.3312H216.001C216.001 98.3095 219.785 103.211 226.316 107.13L228.374 103.7ZM220.001 92.3312C220.001 88.794 221.382 85.7992 224.302 83.2443L221.667 80.2342C217.942 83.4945 216.001 87.5609 216.001 92.3312H220.001ZM224.286 83.2577C226.764 81.1338 230.01 80.0009 234.198 80.0009V76.0009C229.248 76.0009 225.02 77.3603 221.683 80.2209L224.286 83.2577ZM234.198 80.0009C237.183 80.0009 240.436 80.7473 243.975 82.3207L245.6 78.6656C241.664 76.916 237.857 76.0009 234.198 76.0009V80.0009ZM243.816 82.2414C247.808 84.4593 251.877 85.6084 256.001 85.6084V81.6084C252.649 81.6084 249.243 80.6807 245.759 78.7449L243.816 82.2414ZM256.001 85.6084C260.125 85.6084 264.194 84.4593 268.185 82.2414L266.243 78.7449C262.759 80.6807 259.352 81.6084 256.001 81.6084V85.6084ZM268.026 82.3207C271.566 80.7473 274.818 80.0009 277.804 80.0009V76.0009C274.145 76.0009 270.337 76.916 266.402 78.6656L268.026 82.3207ZM253.001 102.001C253.001 100.344 254.344 99.0009 256.001 99.0009V95.0009C252.135 95.0009 249.001 98.135 249.001 102.001H253.001ZM256.001 99.0009C257.658 99.0009 259.001 100.344 259.001 102.001H263.001C263.001 98.135 259.867 95.0009 256.001 95.0009V99.0009ZM247.42 150.172L243.051 153.839L245.622 156.903L249.992 153.237L247.42 150.172ZM243.051 153.839C241.599 155.057 240.502 157.082 239.61 159.532C238.696 162.042 237.904 165.268 237.217 169.169L241.157 169.862C241.823 166.08 242.565 163.106 243.368 160.901C244.193 158.636 244.994 157.43 245.622 156.903L243.051 153.839ZM237.234 169.086C235.659 176.239 233.119 181.001 229.852 183.743L232.423 186.807C236.646 183.264 239.473 177.52 241.14 169.946L237.234 169.086ZM229.852 183.743C226.584 186.485 221.453 188.159 214.135 188.468L214.304 192.464C222.053 192.137 228.2 190.35 232.423 186.807L229.852 183.743ZM214.22 188.466C210.259 188.465 206.945 188.684 204.314 189.148C201.746 189.601 199.562 190.33 198.11 191.549L200.681 194.613C201.309 194.086 202.636 193.506 205.009 193.087C207.32 192.68 210.378 192.465 214.219 192.466L214.22 188.466ZM198.11 191.549L193.741 195.215L196.312 198.279L200.681 194.613L198.11 191.549ZM193.741 195.215C190.983 197.529 189.936 201.303 190.009 205.86L194.009 205.796C193.944 201.738 194.908 199.457 196.312 198.279L193.741 195.215ZM190.015 205.679C189.67 210.31 189.265 214.437 188.803 218.062L192.77 218.568C193.244 214.858 193.655 210.66 194.004 205.977L190.015 205.679ZM188.833 217.885C188.453 219.612 187.452 221.947 186.098 224.226C184.744 226.508 183.158 228.532 181.731 229.73L184.302 232.794C186.204 231.198 188.06 228.757 189.538 226.268C191.017 223.777 192.236 221.034 192.74 218.745L188.833 217.885ZM188.888 134.924C192.112 132.218 197.327 130.679 204.923 130.682L204.924 126.682C196.915 126.679 190.582 128.28 186.317 131.86L188.888 134.924ZM205.008 130.68C208.834 130.518 212.043 130.173 214.598 129.625C217.101 129.087 219.211 128.308 220.63 127.118L218.059 124.054C217.397 124.609 216.063 125.219 213.759 125.714C211.508 126.197 208.546 126.527 204.839 126.683L205.008 130.68ZM220.63 127.118L224.999 123.452L222.428 120.388L218.059 124.054L220.63 127.118ZM224.999 123.452C227.706 121.18 228.989 117.297 229.349 112.464L225.36 112.167C225.027 116.648 223.882 119.168 222.428 120.388L224.999 123.452ZM174.755 192.295C173.486 193.36 171.594 193.194 170.529 191.925L167.464 194.496C169.949 197.458 174.365 197.844 177.326 195.359L174.755 192.295ZM170.529 191.925C169.464 190.656 169.629 188.764 170.898 187.699L168.327 184.635C165.366 187.12 164.979 191.535 167.464 194.496L170.529 191.925ZM228.132 150.118L221.704 142.457L218.64 145.028L225.067 152.689L228.132 150.118ZM217.707 171.919L197.78 148.172L194.716 150.743L214.642 174.49L217.707 171.919ZM202.376 144.315L222.303 168.063L225.367 165.491L205.441 141.744L202.376 144.315ZM170.898 187.699L195.412 167.13L192.841 164.065L168.327 184.635L170.898 187.699ZM192.594 166.883L199.022 174.543L202.086 171.972L195.658 164.312L192.594 166.883ZM199.268 171.726L174.755 192.295L177.326 195.359L201.84 174.79L199.268 171.726ZM222.303 168.063C223.368 169.332 223.202 171.224 221.933 172.289L224.504 175.353C227.466 172.868 227.852 168.453 225.367 165.491L222.303 168.063ZM221.933 172.289C220.664 173.354 218.772 173.188 217.707 171.919L214.642 174.49C217.127 177.452 221.543 177.838 224.504 175.353L221.933 172.289ZM198.15 143.945C199.419 142.88 201.311 143.046 202.376 144.315L205.441 141.744C202.956 138.782 198.54 138.396 195.579 140.881L198.15 143.945ZM197.78 148.172C196.715 146.903 196.881 145.01 198.15 143.945L195.579 140.881C192.617 143.366 192.231 147.782 194.716 150.743L197.78 148.172ZM282.83 110.91C282.947 113.837 283.307 116.361 283.953 118.434C284.598 120.499 285.569 122.249 287.002 123.452L289.573 120.388C288.926 119.844 288.281 118.873 287.772 117.242C287.265 115.619 286.936 113.472 286.827 110.751L282.83 110.91ZM287.002 123.452L291.372 127.118L293.943 124.054L289.573 120.388L287.002 123.452ZM291.372 127.118C292.824 128.337 295.008 129.066 297.576 129.519C300.206 129.983 303.521 130.202 307.482 130.201L307.481 126.201C303.64 126.202 300.582 125.987 298.271 125.58C295.898 125.161 294.571 124.581 293.943 124.054L291.372 127.118ZM307.397 130.199C314.715 130.508 319.846 132.182 323.114 134.924L325.685 131.86C321.462 128.316 315.315 126.53 307.566 126.203L307.397 130.199ZM329.646 229.73C328.455 228.73 327.17 226.989 326.025 225.01C324.896 223.058 324.009 221.058 323.555 219.693L319.759 220.954C320.311 222.615 321.319 224.862 322.562 227.012C323.79 229.134 325.353 231.349 327.075 232.794L329.646 229.73ZM323.61 219.893C323.061 217.397 322.657 213.382 322.433 207.757L318.436 207.916C318.662 213.584 319.074 217.894 319.704 220.753L323.61 219.893ZM322.433 207.757C322.316 204.83 321.956 202.306 321.31 200.233C320.665 198.168 319.694 196.418 318.261 195.215L315.69 198.279C316.337 198.823 316.982 199.794 317.491 201.424C317.998 203.048 318.327 205.195 318.436 207.916L322.433 207.757ZM318.261 195.215L313.892 191.549L311.32 194.613L315.69 198.279L318.261 195.215ZM313.892 191.549C312.473 190.358 310.363 189.58 307.86 189.042C305.304 188.494 302.096 188.149 298.269 187.987L298.101 191.984C301.807 192.14 304.769 192.47 307.02 192.953C309.325 193.448 310.658 194.058 311.32 194.613L313.892 191.549ZM298.184 187.985C290.589 187.988 285.374 186.449 282.149 183.743L279.578 186.807C283.844 190.387 290.176 191.988 298.185 191.985L298.184 187.985ZM282.149 183.743C278.925 181.037 276.504 176.169 275.187 168.689L271.248 169.382C272.636 177.27 275.313 183.228 279.578 186.807L282.149 183.743ZM275.171 168.605C274.347 164.865 273.45 161.765 272.466 159.343C271.502 156.972 270.369 155.029 268.95 153.839L266.379 156.903C267.041 157.458 267.873 158.666 268.76 160.849C269.627 162.982 270.467 165.842 271.264 169.465L275.171 168.605ZM268.95 153.839L264.581 150.172L262.01 153.237L266.379 156.903L268.95 153.839ZM341.103 187.699C342.372 188.764 342.538 190.656 341.473 191.925L344.537 194.496C347.022 191.535 346.636 187.12 343.674 184.635L341.103 187.699ZM341.473 191.925C340.408 193.194 338.516 193.36 337.246 192.295L334.675 195.359C337.637 197.844 342.052 197.458 344.537 194.496L341.473 191.925ZM290.298 142.457L283.87 150.117L286.934 152.689L293.362 145.028L290.298 142.457ZM313.578 148.938L293.652 172.685L296.716 175.256L316.643 151.509L313.578 148.938ZM289.056 168.829L308.982 145.081L305.918 142.51L285.992 166.257L289.056 168.829ZM337.246 192.295L312.733 171.726L310.162 174.79L334.675 195.359L337.246 192.295ZM312.979 174.543L319.407 166.883L316.343 164.312L309.915 171.972L312.979 174.543ZM316.59 167.129L341.103 187.699L343.674 184.635L319.161 164.065L316.59 167.129ZM308.982 145.081C310.047 143.812 311.939 143.646 313.209 144.711L315.78 141.647C312.818 139.162 308.403 139.549 305.918 142.51L308.982 145.081ZM313.209 144.711C314.478 145.776 314.643 147.669 313.578 148.938L316.643 151.509C319.128 148.548 318.741 144.132 315.78 141.647L313.209 144.711ZM289.426 173.055C288.156 171.99 287.991 170.098 289.056 168.829L285.992 166.257C283.507 169.219 283.893 173.634 286.854 176.119L289.426 173.055ZM293.652 172.685C292.587 173.955 290.695 174.12 289.426 173.055L286.854 176.119C289.816 178.604 294.231 178.218 296.716 175.256L293.652 172.685ZM234.392 440C230.211 440 226.697 438.868 223.756 436.662L221.356 439.862C225.059 442.64 229.437 444 234.392 444V440ZM223.97 436.848C221.442 434.319 220.195 431.299 220.195 427.67H216.195C216.195 432.348 217.855 436.389 221.142 439.676L223.97 436.848ZM220.195 427.67C220.195 423.679 222.641 419.858 228.569 416.301L226.51 412.871C219.98 416.79 216.195 421.691 216.195 427.67H220.195ZM283.822 416.301C289.75 419.858 292.195 423.679 292.195 427.67H296.195C296.195 421.691 292.411 416.79 285.88 412.871L283.822 416.301ZM292.195 427.67C292.195 431.207 290.814 434.202 287.895 436.757L290.529 439.767C294.254 436.506 296.195 432.44 296.195 427.67H292.195ZM287.91 436.743C285.433 438.867 282.186 440 277.999 440V444C282.948 444 287.177 442.641 290.513 439.78L287.91 436.743ZM277.999 440C275.013 440 271.76 439.254 268.221 437.68L266.596 441.335C270.532 443.085 274.339 444 277.999 444V440ZM268.38 437.76C264.388 435.542 260.319 434.393 256.195 434.393V438.393C259.547 438.393 262.953 439.32 266.437 441.256L268.38 437.76ZM256.195 434.393C252.071 434.393 248.002 435.542 244.011 437.76L245.954 441.256C249.437 439.32 252.844 438.393 256.195 438.393V434.393ZM244.17 437.68C240.63 439.254 237.378 440 234.392 440V444C238.051 444 241.859 443.085 245.795 441.335L244.17 437.68ZM259.195 418C259.195 419.657 257.852 421 256.195 421V425C260.061 425 263.195 421.866 263.195 418H259.195ZM256.195 421C254.538 421 253.195 419.657 253.195 418H249.195C249.195 421.866 252.329 425 256.195 425V421ZM264.776 369.829L269.145 366.162L266.574 363.098L262.205 366.764L264.776 369.829ZM269.145 366.162C270.597 364.944 271.694 362.919 272.587 360.469C273.5 357.959 274.292 354.733 274.979 350.832L271.039 350.139C270.374 353.921 269.631 356.895 268.828 359.1C268.004 361.365 267.202 362.571 266.574 363.098L269.145 366.162ZM274.962 350.915C276.537 343.762 279.077 339 282.344 336.258L279.773 333.194C275.55 336.737 272.724 342.481 271.056 350.055L274.962 350.915ZM282.344 336.258C285.612 333.516 290.743 331.842 298.061 331.533L297.892 327.537C290.143 327.864 283.996 329.65 279.773 333.194L282.344 336.258ZM297.976 331.535C301.937 331.536 305.251 331.317 307.882 330.853C310.45 330.4 312.634 329.671 314.086 328.452L311.515 325.388C310.887 325.915 309.56 326.495 307.187 326.914C304.876 327.321 301.818 327.536 297.977 327.535L297.976 331.535ZM314.086 328.452L318.456 324.786L315.884 321.722L311.515 325.388L314.086 328.452ZM318.456 324.786C321.213 322.472 322.26 318.698 322.187 314.141L318.187 314.205C318.253 318.263 317.288 320.544 315.884 321.722L318.456 324.786ZM322.181 314.321C322.526 309.691 322.931 305.564 323.393 301.939L319.426 301.433C318.952 305.143 318.541 309.341 318.193 314.024L322.181 314.321ZM323.363 302.116C323.741 300.398 324.687 298.254 325.98 296.169C327.269 294.089 328.811 292.217 330.269 290.993L327.698 287.929C325.828 289.498 324.024 291.731 322.58 294.061C321.139 296.386 319.962 298.957 319.456 301.256L323.363 302.116ZM323.308 385.077C320.084 387.783 314.869 389.322 307.274 389.319L307.272 393.319C315.281 393.322 321.614 391.721 325.879 388.141L323.308 385.077ZM307.189 389.321C303.362 389.483 300.154 389.828 297.598 390.376C295.095 390.914 292.985 391.692 291.566 392.883L294.137 395.947C294.799 395.392 296.133 394.782 298.437 394.287C300.689 393.804 303.651 393.474 307.357 393.318L307.189 389.321ZM291.566 392.883L287.197 396.549L289.768 399.613L294.137 395.947L291.566 392.883ZM287.197 396.549C284.49 398.821 283.207 402.704 282.847 407.537L286.836 407.834C287.17 403.353 288.314 400.833 289.768 399.613L287.197 396.549ZM337.441 327.706C338.71 326.641 340.603 326.807 341.668 328.076L344.732 325.505C342.247 322.543 337.831 322.157 334.87 324.642L337.441 327.706ZM341.668 328.076C342.733 329.345 342.567 331.237 341.298 332.302L343.869 335.366C346.83 332.881 347.217 328.466 344.732 325.505L341.668 328.076ZM284.064 369.883L290.492 377.544L293.557 374.973L287.129 367.312L284.064 369.883ZM294.49 348.082L314.416 371.829L317.48 369.258L297.554 345.511L294.49 348.082ZM309.82 375.686L289.893 351.938L286.829 354.51L306.756 378.257L309.82 375.686ZM341.298 332.302L316.784 352.871L319.356 355.936L343.869 335.366L341.298 332.302ZM319.602 353.118L313.174 345.458L310.11 348.029L316.538 355.689L319.602 353.118ZM312.928 348.275L337.441 327.706L334.87 324.642L310.356 345.211L312.928 348.275ZM289.893 351.938C288.828 350.669 288.994 348.777 290.263 347.712L287.692 344.648C284.73 347.133 284.344 351.548 286.829 354.51L289.893 351.938ZM290.263 347.712C291.532 346.647 293.425 346.812 294.49 348.082L297.554 345.511C295.069 342.549 290.653 342.163 287.692 344.648L290.263 347.712ZM314.046 376.056C312.777 377.121 310.885 376.955 309.82 375.686L306.756 378.257C309.241 381.218 313.656 381.605 316.617 379.12L314.046 376.056ZM314.416 371.829C315.481 373.098 315.315 374.991 314.046 376.056L316.617 379.12C319.579 376.635 319.965 372.219 317.48 369.258L314.416 371.829ZM229.366 409.09C229.249 406.164 228.889 403.64 228.243 401.567C227.599 399.502 226.627 397.752 225.194 396.549L222.623 399.613C223.27 400.157 223.916 401.128 224.424 402.759C224.931 404.382 225.26 406.529 225.369 409.25L229.366 409.09ZM225.194 396.549L220.825 392.883L218.253 395.947L222.623 399.613L225.194 396.549ZM220.825 392.883C219.372 391.664 217.188 390.935 214.62 390.482C211.99 390.018 208.676 389.799 204.714 389.8L204.715 393.8C208.556 393.799 211.614 394.014 213.925 394.421C216.298 394.84 217.625 395.42 218.253 395.947L220.825 392.883ZM204.799 389.802C197.481 389.493 192.35 387.819 189.083 385.077L186.511 388.141C190.734 391.684 196.882 393.471 204.631 393.798L204.799 389.802ZM181.731 290.993C183.037 292.089 184.563 293.762 185.888 295.544C187.232 297.351 188.238 299.094 188.641 300.308L192.437 299.047C191.835 297.235 190.536 295.091 189.098 293.157C187.642 291.199 185.908 289.277 184.302 287.929L181.731 290.993ZM188.586 300.108C189.136 302.604 189.539 306.619 189.763 312.244L193.76 312.085C193.534 306.417 193.122 302.107 192.492 299.248L188.586 300.108ZM189.763 312.244C189.88 315.171 190.24 317.695 190.886 319.768C191.531 321.833 192.502 323.583 193.935 324.786L196.506 321.722C195.859 321.178 195.214 320.207 194.705 318.576C194.198 316.953 193.869 314.806 193.76 312.085L189.763 312.244ZM193.935 324.786L198.305 328.452L200.876 325.388L196.506 321.722L193.935 324.786ZM198.305 328.452C199.723 329.642 201.833 330.421 204.336 330.959C206.892 331.507 210.1 331.852 213.927 332.014L214.096 328.017C210.389 327.861 207.427 327.531 205.176 327.048C202.872 326.553 201.538 325.943 200.876 325.388L198.305 328.452ZM214.012 332.016C221.607 332.013 226.822 333.552 230.047 336.258L232.618 333.194C228.352 329.614 222.02 328.013 214.011 328.016L214.012 332.016ZM230.047 336.258C233.271 338.964 235.692 343.832 237.009 351.312L240.948 350.619C239.56 342.731 236.884 336.773 232.618 333.194L230.047 336.258ZM237.025 351.396C237.849 355.136 238.746 358.236 239.73 360.658C240.694 363.029 241.827 364.972 243.246 366.162L245.817 363.098C245.155 362.543 244.323 361.335 243.436 359.152C242.569 357.019 241.73 354.159 240.932 350.536L237.025 351.396ZM243.246 366.162L247.615 369.829L250.186 366.764L245.817 363.098L243.246 366.162ZM171.093 332.302C169.824 331.237 169.658 329.345 170.723 328.076L167.659 325.505C165.174 328.466 165.56 332.881 168.522 335.366L171.093 332.302ZM170.723 328.076C171.788 326.807 173.681 326.641 174.95 327.706L177.521 324.642C174.559 322.157 170.144 322.543 167.659 325.505L170.723 328.076ZM221.899 377.544L228.326 369.883L225.262 367.312L218.834 374.973L221.899 377.544ZM198.618 371.063L218.544 347.316L215.48 344.744L195.554 368.492L198.618 371.063ZM223.14 351.172L203.214 374.92L206.278 377.491L226.205 353.744L223.14 351.172ZM174.95 327.706L199.463 348.275L202.034 345.211L177.521 324.642L174.95 327.706ZM199.217 345.458L192.789 353.118L195.853 355.689L202.281 348.029L199.217 345.458ZM195.607 352.871L171.093 332.302L168.522 335.366L193.035 355.936L195.607 352.871ZM203.214 374.92C202.149 376.189 200.257 376.355 198.987 375.29L196.416 378.354C199.378 380.839 203.793 380.452 206.278 377.491L203.214 374.92ZM198.987 375.29C197.718 374.224 197.553 372.332 198.618 371.063L195.554 368.492C193.068 371.453 193.455 375.869 196.416 378.354L198.987 375.29ZM222.771 346.946C224.04 348.011 224.205 349.903 223.14 351.172L226.205 353.744C228.69 350.782 228.303 346.367 225.342 343.882L222.771 346.946ZM218.544 347.316C219.609 346.046 221.501 345.881 222.771 346.946L225.342 343.882C222.38 341.397 217.965 341.783 215.48 344.744L218.544 347.316ZM286.687 149.871L257.286 125.201L254.715 128.265L284.116 152.935L286.687 149.871ZM254.715 125.201L225.314 149.871L227.885 152.935L257.286 128.265L254.715 125.201ZM221.457 145.275L252.286 119.406L249.715 116.342L218.886 142.211L221.457 145.275ZM253.001 117.874V102.001H249.001V117.874H253.001ZM259.715 119.406L290.544 145.275L293.115 142.211L262.286 116.342L259.715 119.406ZM259.001 102.001V117.874H263.001V102.001H259.001ZM229.355 112.283C229.32 110.114 229.41 107.988 229.624 105.903L225.645 105.494C225.414 107.741 225.318 110.026 225.355 112.347L229.355 112.283ZM229.018 104.253C228.921 104.16 228.835 104.076 228.759 104.001L225.931 106.829C226.03 106.929 226.138 107.034 226.252 107.143L229.018 104.253ZM285.885 107.015L286.071 106.829L283.242 104.001L283.057 104.187L285.885 107.015ZM282.481 105.804C282.639 107.353 282.756 109.055 282.83 110.91L286.827 110.751C286.75 108.827 286.629 107.042 286.461 105.398L282.481 105.804ZM225.509 370.13L254.91 394.8L257.481 391.736L228.08 367.066L225.509 370.13ZM257.481 394.8L286.882 370.13L284.311 367.066L254.91 391.736L257.481 394.8ZM252.481 400.595L221.652 374.726L219.081 377.79L249.91 403.659L252.481 400.595ZM253.195 418V402.127H249.195V418H253.195ZM290.739 374.726L259.91 400.595L262.481 403.659L293.31 377.79L290.739 374.726ZM259.195 402.127V418H263.195V402.127H259.195ZM229.715 414.197C229.557 412.648 229.44 410.946 229.366 409.09L225.369 409.25C225.446 411.174 225.568 412.959 225.735 414.603L229.715 414.197ZM226.311 412.986L226.125 413.172L228.954 416L229.139 415.814L226.311 412.986ZM282.842 407.718C282.876 409.886 282.786 412.013 282.572 414.098L286.551 414.507C286.782 412.26 286.878 409.975 286.841 407.654L282.842 407.718ZM283.179 415.748C283.276 415.841 283.361 415.924 283.437 416L286.265 413.172C286.166 413.072 286.058 412.967 285.944 412.857L283.179 415.748ZM184.236 382.312L185.902 387.249L189.692 385.97L188.026 381.033L184.236 382.312ZM326.53 387.109L327.805 382.173L323.932 381.173L322.657 386.109L326.53 387.109ZM185.655 132.936L184.184 139.217L188.078 140.129L189.55 133.848L185.655 132.936ZM248.901 370.296L263.49 370.296L263.49 366.296L248.901 366.296L248.901 370.296ZM248.706 153.705L263.295 153.705L263.295 149.705L248.706 149.705L248.706 153.705ZM327.816 139.217L326.347 132.936L322.452 133.848L323.921 140.129L327.816 139.217Z" fill="white" mask="url(#path-2-inside-1_170_426)"/>
</svg>
