<svg width="512" height="512" viewBox="0 0 512 512" fill="none" xmlns="http://www.w3.org/2000/svg">
<path d="M0 0H512V512H0V0Z" fill="white"/>
<path fill-rule="evenodd" clip-rule="evenodd" d="M340.197 477C335.628 477 331.683 475.754 328.361 473.262C325.454 470.354 324 466.823 324 462.67C324 457.685 327.115 453.324 333.344 449.586L337.705 445.224C340.197 443.147 341.443 440.655 341.443 437.748V408.464C341.443 406.387 338.743 402.649 333.344 397.249C328.361 391.434 325.869 386.242 325.869 381.673L324.594 386.609C320.849 389.752 315.075 391.322 307.273 391.319C299.74 391.637 294.932 392.669 292.852 394.415L288.483 398.081C286.402 399.827 285.188 403.029 284.841 407.686C284.877 409.931 284.784 412.137 284.561 414.303C284.667 414.404 284.764 414.498 284.851 414.586C291.081 418.324 294.195 422.685 294.195 427.67C294.195 431.823 292.534 435.354 289.212 438.262C286.305 440.754 282.567 442 277.999 442C274.676 442 271.146 441.169 267.408 439.508C263.671 437.431 259.933 436.393 256.195 436.393C252.458 436.393 248.72 437.431 244.982 439.508C241.244 441.169 237.714 442 234.392 442C229.824 442 225.878 440.754 222.556 438.262C219.649 435.354 218.195 431.823 218.195 427.67C218.195 422.685 221.31 418.324 227.54 414.586L227.725 414.4C227.562 412.804 227.443 411.06 227.367 409.17C227.142 403.523 225.989 399.827 223.908 398.081L219.539 394.415C217.458 392.669 212.517 391.797 204.715 391.8C197.181 391.482 191.542 389.752 187.797 386.609L186.131 381.673C186.131 386.242 183.432 391.434 178.033 397.249C173.049 402.649 170.557 406.387 170.557 408.464V437.748C170.557 440.655 171.596 443.147 173.672 445.224C176.164 447.301 177.825 448.755 178.656 449.586C184.885 453.324 188 457.685 188 462.67C188 466.823 186.339 470.354 183.016 473.262C180.109 475.754 176.372 477 171.803 477C168.481 477 164.951 476.169 161.213 474.508C157.475 472.431 153.738 471.393 150 471.393C146.262 471.393 142.525 472.431 138.787 474.508C135.049 476.169 131.519 477 128.197 477C123.628 477 119.683 475.754 116.361 473.262C113.454 470.354 112 466.823 112 462.67C112 457.685 115.115 453.324 121.344 449.586L125.705 445.224C128.197 443.147 129.443 440.655 129.443 437.748V408.464C129.443 406.387 126.743 402.649 121.344 397.249C116.361 391.434 113.869 386.242 113.869 381.673C113.869 377.104 116.361 372.119 121.344 366.72C126.743 360.904 129.443 356.958 129.443 354.882V324.975C129.443 322.068 128.197 319.575 125.705 317.498L121.344 313.137C115.115 309.399 112 305.037 112 300.053C112 295.484 113.661 291.953 116.984 289.461C120.306 286.969 123.421 285.723 126.328 285.723C128.82 285.723 131.934 284.269 135.672 281.361C139.825 278.454 144.601 277 150 277C155.399 277 159.967 278.454 163.705 281.361C167.858 284.269 171.18 285.723 173.672 285.723C176.579 285.723 179.694 286.969 183.016 289.461C185.929 291.905 189.534 296.651 190.539 299.678C191.129 302.355 191.536 306.518 191.762 312.165C191.987 317.811 193.14 321.508 195.221 323.254L199.59 326.92C201.671 328.666 206.478 329.698 214.011 330.016C221.813 330.013 227.587 331.583 231.332 334.726C235.077 337.868 237.626 343.282 238.979 350.966C240.6 358.329 242.451 362.884 244.531 364.63L248.901 368.296L263.49 368.296L267.859 364.63C269.94 362.884 271.657 358.169 273.009 350.485C274.63 343.122 277.314 337.868 281.059 334.726C284.804 331.583 290.443 329.853 297.976 329.535C305.779 329.538 310.72 328.666 312.801 326.92L317.17 323.254C319.251 321.508 320.256 318.481 320.187 314.173C320.534 309.516 320.941 305.353 321.41 301.686C322.294 297.669 325.655 292.254 328.984 289.461C332.306 286.969 335.421 285.723 338.328 285.723C340.82 285.723 343.934 284.269 347.672 281.361C351.825 278.454 356.601 277 362 277C367.399 277 371.967 278.454 375.705 281.361C379.858 284.269 383.18 285.723 385.672 285.723C388.579 285.723 391.694 286.969 395.016 289.461C398.339 291.953 400 295.484 400 300.053C400 305.037 396.885 309.399 390.656 313.137C389.825 313.968 388.164 315.422 385.672 317.498C383.596 319.575 382.557 322.068 382.557 324.975V354.882C382.557 356.958 385.049 360.904 390.033 366.72C395.432 372.119 398.131 377.104 398.131 381.673C398.131 386.242 395.432 391.434 390.033 397.249C385.049 402.649 382.557 406.387 382.557 408.464V437.748C382.557 440.655 383.596 443.147 385.672 445.224C388.164 447.301 389.825 448.755 390.656 449.586C396.885 453.324 400 457.685 400 462.67C400 466.823 398.339 470.354 395.016 473.262C392.109 475.754 388.372 477 383.803 477C380.481 477 376.951 476.169 373.213 474.508C369.475 472.431 365.738 471.393 362 471.393C358.262 471.393 354.525 472.431 350.787 474.508C347.049 476.169 343.519 477 340.197 477ZM362 289C355.373 289 350 294.373 350 301C350 305.843 352.869 310.016 357 311.912V358H367V311.912C371.131 310.016 374 305.843 374 301C374 294.373 368.627 289 362 289ZM347 373C347 375.761 349.239 378 352 378H372C374.761 378 377 375.761 377 373C377 370.239 374.761 368 372 368H352C349.239 368 347 370.239 347 373ZM347 390C347 392.761 349.239 395 352 395H372C374.761 395 377 392.761 377 390C377 387.239 374.761 385 372 385H352C349.239 385 347 387.239 347 390ZM362 458C364.761 458 367 455.761 367 453V405H357V453C357 455.761 359.239 458 362 458ZM150 289C143.373 289 138 294.373 138 301C138 305.843 140.869 310.016 145 311.912V358H155V311.912C159.131 310.016 162 305.843 162 301C162 294.373 156.627 289 150 289ZM135 373C135 375.761 137.239 378 140 378H160C162.761 378 165 375.761 165 373C165 370.239 162.761 368 160 368H140C137.239 368 135 370.239 135 373ZM135 390C135 392.761 137.239 395 140 395H160C162.761 395 165 392.761 165 390C165 387.239 162.761 385 160 385H140C137.239 385 135 387.239 135 390ZM150 458C152.761 458 155 455.761 155 453V405H145V453C145 455.761 147.239 458 150 458ZM256.195 423C258.957 423 261.195 420.761 261.195 418V402.127L292.024 376.258L285.597 368.598L256.195 393.268L226.794 368.598L220.366 376.258L251.195 402.127V418C251.195 420.761 253.434 423 256.195 423ZM343.2 326.79C341.425 324.675 338.271 324.399 336.156 326.174L311.642 346.743L318.07 354.404L342.583 333.834C344.699 332.059 344.975 328.906 343.2 326.79ZM315.948 370.543L296.022 346.796C294.247 344.681 291.093 344.405 288.978 346.18C286.862 347.955 286.586 351.109 288.361 353.224L308.288 376.971C310.063 379.087 313.216 379.363 315.332 377.588C317.447 375.813 317.723 372.659 315.948 370.543ZM169.191 326.79C167.416 328.906 167.692 332.059 169.808 333.834L194.321 354.404L200.749 346.743L176.235 326.174C174.12 324.399 170.966 324.675 169.191 326.79ZM217.012 346.03L197.086 369.777C195.311 371.893 195.587 375.047 197.702 376.822C199.817 378.597 202.971 378.321 204.746 376.205L224.672 352.458C226.447 350.343 226.172 347.189 224.056 345.414C221.941 343.639 218.787 343.915 217.012 346.03Z" fill="#008000"/>
<path fill-rule="evenodd" clip-rule="evenodd" d="M340.197 235C335.628 235 331.683 233.754 328.361 231.262C325.448 228.818 322.663 223.35 321.657 220.323C321.067 217.645 320.66 213.483 320.434 207.836C320.209 202.189 319.056 198.493 316.975 196.747L312.606 193.081C310.525 191.335 305.718 190.303 298.185 189.985C290.383 189.988 284.609 188.418 280.864 185.275C277.119 182.133 274.57 176.719 273.217 169.035C271.596 161.671 269.745 157.117 267.665 155.371L263.295 151.705L248.706 151.705L244.337 155.371C242.256 157.117 240.54 161.832 239.187 169.516C237.566 176.879 234.883 182.133 231.137 185.275C227.392 188.418 221.753 190.148 214.22 190.466C206.417 190.463 201.476 191.335 199.395 193.081L195.026 196.747C192.946 198.493 191.94 201.52 192.009 205.828C191.662 210.485 191.255 214.647 190.787 218.315C189.902 222.332 186.345 228.468 183.016 231.262C180.109 233.754 176.372 235 171.803 235C168.481 235 164.951 234.169 161.213 232.508C157.475 230.431 153.738 229.393 150 229.393C146.262 229.393 142.525 230.431 138.787 232.508C135.049 234.169 131.519 235 128.197 235C123.628 235 119.683 233.754 116.361 231.262C113.454 228.354 112 224.823 112 220.67C112 215.685 115.115 211.324 121.344 207.586L125.705 203.224C128.197 201.147 129.443 198.655 129.443 195.748V166.464C129.443 164.387 126.743 160.649 121.344 155.249C116.361 149.434 113.869 144.242 113.869 139.673C113.869 135.104 116.361 130.119 121.344 124.72C126.743 118.904 129.443 114.958 129.443 112.882V82.9751C129.443 80.0675 128.197 77.5753 125.705 75.4984L121.344 71.1371C115.115 67.3988 112 63.0374 112 58.053C112 53.4839 113.661 49.9533 116.984 47.4611C120.306 44.9688 123.421 43.7228 126.328 43.7228C128.82 43.7228 131.934 42.269 135.672 39.3614C139.825 36.4538 144.601 35 150 35C155.399 35 159.967 36.4538 163.705 39.3614C167.858 42.269 171.18 43.7228 173.672 43.7228C176.579 43.7228 179.694 44.9688 183.016 47.4611C186.339 49.9533 188 53.4839 188 58.053C188 63.0374 184.885 67.3988 178.656 71.1371C177.825 71.9678 176.164 73.4216 173.672 75.4984C171.596 77.5753 170.557 80.0675 170.557 82.9751V112.882C170.557 114.958 173.049 118.904 178.033 124.72C183.432 130.119 186.131 135.104 186.131 139.673L187.602 133.392C191.347 130.249 197.121 128.679 204.923 128.682C212.457 128.364 217.264 127.332 219.344 125.586L223.714 121.92C225.794 120.174 227.008 116.972 227.355 112.315C227.319 110.07 227.412 107.864 227.635 105.698C227.529 105.597 227.433 105.503 227.345 105.415C221.116 101.677 218.001 97.3156 218.001 92.3312C218.001 88.1775 219.662 84.6468 222.984 81.7393C225.892 79.2471 229.629 78.0009 234.198 78.0009C237.52 78.0009 241.05 78.8317 244.788 80.4932C248.525 82.57 252.263 83.6084 256.001 83.6084C259.739 83.6084 263.476 82.57 267.214 80.4932C270.952 78.8317 274.482 78.0009 277.804 78.0009C282.372 78.0009 286.318 79.2471 289.64 81.7393C292.547 84.6468 294.001 88.1775 294.001 92.3312C294.001 97.3156 290.886 101.677 284.657 105.415L284.471 105.601C284.634 107.197 284.753 108.941 284.829 110.831C285.054 116.478 286.207 120.174 288.288 121.92L292.657 125.586C294.738 127.332 299.679 128.204 307.481 128.201C315.015 128.519 320.654 130.249 324.399 133.392L325.869 139.673C325.869 135.104 328.361 130.119 333.344 124.72C338.743 118.904 341.443 114.958 341.443 112.882V82.9751C341.443 80.0675 340.197 77.5753 337.705 75.4984L333.344 71.1371C327.115 67.3988 324 63.0374 324 58.053C324 53.4839 325.661 49.9533 328.984 47.4611C332.306 44.9688 335.421 43.7228 338.328 43.7228C340.82 43.7228 343.934 42.269 347.672 39.3614C351.825 36.4538 356.601 35 362 35C367.399 35 371.967 36.4538 375.705 39.3614C379.858 42.269 383.18 43.7228 385.672 43.7228C388.579 43.7228 391.694 44.9688 395.016 47.4611C398.339 49.9533 400 53.4839 400 58.053C400 63.0374 396.885 67.3988 390.656 71.1371C389.825 71.9678 388.164 73.4216 385.672 75.4984C383.596 77.5753 382.557 80.0675 382.557 82.9751V112.882C382.557 114.958 385.049 118.904 390.033 124.72C395.432 130.119 398.131 135.104 398.131 139.673C398.131 144.242 395.432 149.434 390.033 155.249C385.049 160.649 382.557 164.387 382.557 166.464V195.748C382.557 198.655 383.596 201.147 385.672 203.224C388.164 205.301 389.825 206.755 390.656 207.586C396.885 211.324 400 215.685 400 220.67C400 224.823 398.339 228.354 395.016 231.262C392.109 233.754 388.372 235 383.803 235C380.481 235 376.951 234.169 373.213 232.508C369.475 230.431 365.738 229.393 362 229.393C358.262 229.393 354.525 230.431 350.787 232.508C347.049 234.169 343.519 235 340.197 235ZM362 47C355.373 47 350 52.3726 350 59C350 63.843 352.869 68.0159 357 69.9119V116H367V69.9119C371.131 68.0159 374 63.843 374 59C374 52.3726 368.627 47 362 47ZM347 131C347 133.761 349.239 136 352 136H372C374.761 136 377 133.761 377 131C377 128.239 374.761 126 372 126H352C349.239 126 347 128.239 347 131ZM347 148C347 150.761 349.239 153 352 153H372C374.761 153 377 150.761 377 148C377 145.239 374.761 143 372 143H352C349.239 143 347 145.239 347 148ZM362 216C364.761 216 367 213.761 367 211V163H357V211C357 213.761 359.239 216 362 216ZM150 47C143.373 47 138 52.3726 138 59C138 63.843 140.869 68.0159 145 69.9119V116H155V69.9119C159.131 68.0159 162 63.843 162 59C162 52.3726 156.627 47 150 47ZM135 131C135 133.761 137.239 136 140 136H160C162.761 136 165 133.761 165 131C165 128.239 162.761 126 160 126H140C137.239 126 135 128.239 135 131ZM135 148C135 150.761 137.239 153 140 153H160C162.761 153 165 150.761 165 148C165 145.239 162.761 143 160 143H140C137.239 143 135 145.239 135 148ZM150 216C152.761 216 155 213.761 155 211V163H145V211C145 213.761 147.239 216 150 216ZM256.001 97.0009C253.239 97.0009 251.001 99.2395 251.001 102.001V117.874L220.172 143.743L226.6 151.403L256.001 126.733L285.402 151.403L291.83 143.743L261.001 117.874V102.001C261.001 99.2395 258.762 97.0009 256.001 97.0009ZM168.996 193.211C170.771 195.326 173.925 195.602 176.041 193.827L200.554 173.258L194.126 165.597L169.613 186.167C167.497 187.942 167.221 191.095 168.996 193.211ZM196.248 149.457L216.174 173.205C217.949 175.32 221.103 175.596 223.219 173.821C225.334 172.046 225.61 168.892 223.835 166.777L203.909 143.03C202.133 140.914 198.98 140.638 196.864 142.413C194.749 144.188 194.473 147.342 196.248 149.457ZM343.005 193.211C344.78 191.095 344.504 187.942 342.389 186.167L317.875 165.597L311.447 173.258L335.961 193.827C338.076 195.602 341.23 195.326 343.005 193.211ZM295.184 173.971L315.111 150.224C316.886 148.108 316.61 144.954 314.494 143.179C312.379 141.404 309.225 141.68 307.45 143.796L287.524 167.543C285.749 169.658 286.025 172.812 288.14 174.587C290.255 176.362 293.409 176.086 295.184 173.971Z" fill="#008000"/>
</svg>
