<svg width="512" height="512" viewBox="0 0 512 512" fill="none" xmlns="http://www.w3.org/2000/svg">
<path d="M1 1H511V511H1V1Z" fill="white" stroke="white" stroke-width="2"/>
<path d="M326.527 137.433C325.629 129.347 325.148 122.947 325.079 118.22C326.604 118.68 328.189 120.228 329.758 123.366L329.779 123.408L329.804 123.449C332.206 127.292 334.374 131.625 336.305 136.453L336.312 136.47L336.319 136.487C338.273 140.884 339.471 143.764 339.941 145.172L339.943 145.18L339.946 145.187C341.656 150.072 343.13 153.883 344.367 156.604C344.985 157.964 345.552 159.072 346.071 159.914C346.568 160.722 347.089 161.403 347.647 161.776L347.777 161.862L347.927 161.905C354.638 163.823 361.121 166.942 367.376 171.272C373.57 175.56 376.452 180.169 376.452 185.075C376.452 192.24 370.638 198.816 358.035 204.635C345.473 209.948 333.178 212.594 321.146 212.594C309.499 212.594 299.589 211.623 291.4 209.697C283.779 207.79 276.114 203.731 268.405 197.47C261.634 191.665 256.335 186.364 252.492 181.568C249.227 176.414 247.558 169.805 247.558 161.675C247.558 138.779 248.779 123.069 251.171 114.436C252.634 110.046 253.737 106.371 254.475 103.418C255.21 100.478 255.602 98.1854 255.602 96.5938C255.602 95.9952 255.46 95.0525 255.217 93.8383C254.969 92.5975 254.599 90.996 254.11 89.0387L253.92 88.2813H253.139C249.609 88.2813 246.931 89.2871 245.691 91.7059C245.376 92.1979 245.11 92.8895 244.868 93.7046C244.611 94.571 244.361 95.6576 244.113 96.9551C243.619 99.5513 243.128 103.054 242.639 107.452L242.638 107.462L242.637 107.472C241.697 117.812 234.378 129.293 220.298 141.917C206.711 154.049 191.42 164.729 174.423 173.956C166.157 178.332 159.19 181.602 153.515 183.776C147.814 185.959 143.506 187 140.527 187C138.663 187 136.943 186.359 135.346 185.008C136.101 184.275 137.314 183.36 139.05 182.264C141.326 180.827 144.401 179.137 148.287 177.194L147.839 176.3L148.287 177.194C161.975 170.35 174.448 163.014 185.704 155.183L185.716 155.175L185.728 155.167C197.06 146.791 207.135 135.477 215.964 121.252L216.259 120.778L216.009 120.278C215.428 119.116 214.264 117.852 212.653 116.488C211.03 115.115 208.871 113.574 206.191 111.867C203.815 109.962 202.077 108.211 200.938 106.616C199.789 105.008 199.296 103.625 199.296 102.444C199.296 101.896 199.647 101.11 200.793 100.079C201.915 99.069 203.653 97.9582 206.055 96.7569L206.09 96.7397L206.123 96.72C211.088 93.7408 214.455 90.434 216.034 86.7502L216.135 86.5133L216.11 86.2568C215.619 81.3489 214.883 76.4416 213.901 71.5351C212.929 66.6726 212.458 63.0966 212.458 60.7625C212.458 58.4617 212.918 56.1499 213.849 53.8214L213.86 53.7941L213.869 53.7662C214.758 51.099 215.8 49.4492 216.898 48.6005C222.316 48.6165 226.823 49.0398 230.433 49.8551C234.123 50.6883 236.809 51.9157 238.587 53.4713L238.637 53.5145L238.691 53.5508C242.924 56.3727 246.477 60.3859 249.337 65.6289L249.586 66.0863L250.104 66.1439L256.685 66.8751L257.489 66.9644L257.744 66.1975C258.223 64.762 258.946 62.8327 259.918 60.4026L259.929 60.3754L259.938 60.3475C260.87 57.5531 262.091 56.6438 263.377 56.6438C265.276 56.6438 266.551 56.8864 267.317 57.2694L267.381 57.3012L267.448 57.3237C269.036 57.8528 270.853 58.1063 272.883 58.1063C275.751 58.1063 279.363 57.2 283.675 55.4754C287.995 53.7472 293.09 51.1674 298.953 47.7485C299.975 47.2352 302.67 45.7647 307.006 43.3554L307.042 43.3358L307.075 43.3133C311.413 40.4215 314.865 39.0938 317.489 39.0938C318.96 39.0938 320.181 39.558 321.208 40.4824C322.256 41.4256 323.156 42.8979 323.853 44.9912L323.859 45.0088L323.866 45.0261C325.295 48.8378 325.996 52.3744 325.996 55.6438C325.996 57.2314 325.031 59.377 322.751 62.1366C320.5 64.8621 317.088 68.0417 312.482 71.6776L312.436 71.7139L312.395 71.7554C312.325 71.8253 312.15 71.944 311.763 72.0408C311.381 72.1361 310.86 72.1937 310.177 72.1937C309.366 72.1937 308.282 71.9909 306.9 71.5347C305.721 70.9669 304.096 70.7312 302.133 70.7312C290.822 70.7312 280.937 72.4523 272.502 75.9253L272.044 76.1142L271.917 76.5936C265.567 100.525 262.377 120.605 262.377 136.812C262.377 142.198 262.621 146.579 263.119 149.939C263.609 153.248 264.367 155.738 265.521 157.181C269.537 162.201 276.001 167.151 284.829 172.055L284.848 172.066L284.867 172.076C293.712 176.498 301.428 178.763 307.983 178.763C315.453 178.763 321.76 177.018 326.838 173.463L327.182 173.222L327.251 172.808C327.753 169.796 327.996 165.095 327.996 158.75C327.996 154.309 327.504 147.197 326.528 137.444L326.527 137.433Z" fill="#969696" stroke="white" stroke-width="2"/>
<mask id="path-3-inside-1_170_499" fill="white">
<path d="M197.564 318.894C187.327 318.894 176.358 317.675 164.658 315.237C152.958 312.312 144.914 308.169 140.527 302.806C141.014 302.319 143.208 300.856 147.108 298.419C151.008 295.981 155.396 294.762 160.271 294.762C166.121 294.762 173.189 295.981 181.477 298.419C183.427 298.906 186.839 299.637 191.714 300.612C197.077 301.587 202.439 302.075 207.802 302.075C217.552 302.075 224.133 301.1 227.546 299.15C230.958 297.2 232.664 292.813 232.664 285.988C232.664 284.525 231.202 283.55 228.277 283.062C225.839 282.088 224.133 280.869 223.158 279.406C223.158 276.969 224.133 274.775 226.083 272.825C228.521 270.387 230.471 267.95 231.933 265.513C233.396 263.075 235.346 259.906 237.783 256.006C240.221 252.106 242.171 249.181 243.633 247.231C245.583 245.281 247.777 244.306 250.214 244.306C251.677 244.306 252.896 245.037 253.871 246.5C254.846 247.963 255.333 249.669 255.333 251.619C255.333 257.956 254.114 264.781 251.677 272.094C249.727 279.406 248.264 285.256 247.289 289.644C248.752 292.081 250.458 293.3 252.408 293.3C255.333 293.3 259.477 287.694 264.839 276.481C270.689 265.269 273.614 257.225 273.614 252.35C273.614 249.425 271.908 246.744 268.496 244.306C265.571 241.869 263.621 239.675 262.646 237.725C264.108 234.8 267.277 231.144 272.152 226.756C277.027 222.369 282.389 219.2 288.239 217.25C292.139 218.713 295.552 222.125 298.477 227.487C301.402 232.362 302.864 237.969 302.864 244.306C302.864 249.181 300.914 255.031 297.014 261.856C292.627 267.706 290.189 274.044 289.702 280.869C296.527 279.894 301.889 278.919 305.789 277.944C321.389 275.019 335.527 273.556 348.202 273.556C363.802 273.556 372.821 275.262 375.258 278.675C371.846 285.5 366.483 290.619 359.171 294.031C352.833 293.544 339.671 293.3 319.683 293.3C309.933 293.3 299.696 294.519 288.971 296.956C278.733 299.394 265.814 302.806 250.214 307.194C240.464 310.119 230.714 312.8 220.964 315.237C211.702 317.675 203.902 318.894 197.564 318.894ZM316.758 480.5C310.421 480.5 298.721 477.331 281.658 470.994C265.083 464.169 253.383 458.562 246.558 454.175C244.608 454.662 242.171 456.125 239.246 458.562C236.321 461 234.127 462.219 232.664 462.219C227.789 462.219 223.158 461.487 218.771 460.025C214.383 458.075 211.214 456.856 209.264 456.369C209.264 457.831 209.021 460.513 208.533 464.413C208.533 467.825 208.046 470.75 207.071 473.188C206.096 475.137 204.389 476.112 201.952 476.112C197.564 476.112 193.421 470.75 189.521 460.025C186.108 448.812 184.158 442.231 183.671 440.281H174.896C165.633 440.281 157.102 438.819 149.302 435.894C141.502 432.969 137.602 428.825 137.602 423.462L138.333 418.344C142.72 418.344 148.814 418.831 156.614 419.806C164.414 420.781 170.508 421.269 174.896 421.269H177.821C177.333 415.906 176.114 409.569 174.164 402.256C171.239 387.631 169.777 379.1 169.777 376.663C169.777 375.688 170.752 374.225 172.702 372.275C178.552 373.25 182.452 375.687 184.402 379.587C186.839 383 189.033 388.606 190.983 396.406C193.908 407.131 196.833 415.175 199.758 420.537C206.583 420.537 212.677 419.806 218.039 418.344C223.402 416.394 226.571 415.175 227.546 414.688L228.277 393.481C226.814 393.481 222.914 394.7 216.577 397.138C215.602 398.6 214.383 400.794 212.921 403.719C211.458 406.644 209.508 409.325 207.071 411.763C204.146 410.3 201.464 405.425 199.027 397.138C197.077 388.363 196.102 379.1 196.102 369.35C196.102 350.825 197.077 337.419 199.027 329.131C215.114 326.694 236.808 321.819 264.108 314.506C281.171 309.631 292.871 307.194 299.208 307.194C309.446 307.194 314.564 310.606 314.564 317.431C314.564 318.894 312.858 325.231 309.446 336.444C306.033 347.169 304.327 360.331 304.327 375.931C304.327 383.731 304.814 392.019 305.789 400.794C322.364 402.256 339.914 406.644 358.439 413.956C376.964 420.781 386.227 431.262 386.227 445.4C386.227 453.687 383.058 460.025 376.721 464.413C370.383 468.8 362.339 470.994 352.589 470.994C350.639 470.994 348.202 471.481 345.277 472.456C342.352 473.431 340.158 474.163 338.696 474.65C328.946 478.55 321.633 480.5 316.758 480.5ZM244.364 348.144C251.189 347.169 256.796 346.194 261.183 345.219C266.058 343.756 270.689 342.781 275.077 342.294L275.808 325.475C271.421 326.45 266.302 327.912 260.452 329.862C254.602 331.325 249.971 332.3 246.558 332.788C246.071 335.713 245.583 338.394 245.096 340.831C244.608 343.269 244.364 345.706 244.364 348.144ZM216.577 353.262C219.502 353.262 221.939 353.019 223.889 352.531C226.327 352.044 228.277 351.556 229.739 351.069C229.739 347.169 230.227 342.294 231.202 336.444L213.652 339.369V352.531L216.577 353.262ZM244.364 376.663C251.189 376.175 260.939 373.981 273.614 370.081C273.614 362.769 273.858 357.162 274.346 353.262C263.621 356.675 253.627 359.113 244.364 360.575V376.663ZM214.383 381.781C216.821 381.781 221.452 381.294 228.277 380.319V363.5C224.377 363.987 220.964 364.475 218.039 364.962C215.114 365.45 213.652 366.181 213.652 367.156C213.652 368.131 213.652 369.594 213.652 371.544L214.383 381.781ZM245.827 409.569C256.552 407.619 266.058 404.937 274.346 401.525C274.346 393.237 274.102 386.9 273.614 382.512C269.714 383.487 265.327 384.706 260.452 386.169C256.064 387.144 251.189 388.362 245.827 389.825V409.569ZM290.433 461.487C294.821 461.487 299.452 459.781 304.327 456.369C309.202 452.469 312.858 450.031 315.296 449.056C317.733 448.081 322.364 447.35 329.189 446.862C336.502 445.887 341.864 444.425 345.277 442.475C349.177 440.525 351.127 436.869 351.127 431.506C351.127 427.606 346.008 423.95 335.771 420.537C325.533 416.637 316.271 414.444 307.983 413.956C307.983 415.419 308.227 417.856 308.714 421.269C309.689 424.194 310.177 426.875 310.177 429.312C310.177 431.75 309.446 434.431 307.983 437.356C304.571 439.794 300.183 441.988 294.821 443.938C289.458 445.887 284.827 446.862 280.927 446.862C279.952 445.4 279.221 443.938 278.733 442.475C278.246 440.525 277.514 438.819 276.539 437.356C273.614 438.331 270.446 440.038 267.033 442.475C263.621 444.913 260.452 446.619 257.527 447.594C259.477 450.519 264.352 453.687 272.152 457.1C279.952 460.025 286.046 461.487 290.433 461.487ZM250.214 434.431C252.652 434.431 256.064 433.456 260.452 431.506C265.327 429.556 270.446 427.85 275.808 426.387C274.833 421.025 274.589 417.125 275.077 414.688C270.202 415.175 264.839 416.394 258.989 418.344C253.139 420.294 248.996 421.756 246.558 422.731C246.558 425.656 246.802 428.337 247.289 430.775C248.264 433.212 249.239 434.431 250.214 434.431ZM207.802 447.594C214.627 446.131 222.427 443.45 231.202 439.55C228.764 436.625 227.546 432.725 227.546 427.85L202.683 435.894L207.802 447.594Z"/>
</mask>
<path d="M197.564 318.894C187.327 318.894 176.358 317.675 164.658 315.237C152.958 312.312 144.914 308.169 140.527 302.806C141.014 302.319 143.208 300.856 147.108 298.419C151.008 295.981 155.396 294.762 160.271 294.762C166.121 294.762 173.189 295.981 181.477 298.419C183.427 298.906 186.839 299.637 191.714 300.612C197.077 301.587 202.439 302.075 207.802 302.075C217.552 302.075 224.133 301.1 227.546 299.15C230.958 297.2 232.664 292.813 232.664 285.988C232.664 284.525 231.202 283.55 228.277 283.062C225.839 282.088 224.133 280.869 223.158 279.406C223.158 276.969 224.133 274.775 226.083 272.825C228.521 270.387 230.471 267.95 231.933 265.513C233.396 263.075 235.346 259.906 237.783 256.006C240.221 252.106 242.171 249.181 243.633 247.231C245.583 245.281 247.777 244.306 250.214 244.306C251.677 244.306 252.896 245.037 253.871 246.5C254.846 247.963 255.333 249.669 255.333 251.619C255.333 257.956 254.114 264.781 251.677 272.094C249.727 279.406 248.264 285.256 247.289 289.644C248.752 292.081 250.458 293.3 252.408 293.3C255.333 293.3 259.477 287.694 264.839 276.481C270.689 265.269 273.614 257.225 273.614 252.35C273.614 249.425 271.908 246.744 268.496 244.306C265.571 241.869 263.621 239.675 262.646 237.725C264.108 234.8 267.277 231.144 272.152 226.756C277.027 222.369 282.389 219.2 288.239 217.25C292.139 218.713 295.552 222.125 298.477 227.487C301.402 232.362 302.864 237.969 302.864 244.306C302.864 249.181 300.914 255.031 297.014 261.856C292.627 267.706 290.189 274.044 289.702 280.869C296.527 279.894 301.889 278.919 305.789 277.944C321.389 275.019 335.527 273.556 348.202 273.556C363.802 273.556 372.821 275.262 375.258 278.675C371.846 285.5 366.483 290.619 359.171 294.031C352.833 293.544 339.671 293.3 319.683 293.3C309.933 293.3 299.696 294.519 288.971 296.956C278.733 299.394 265.814 302.806 250.214 307.194C240.464 310.119 230.714 312.8 220.964 315.237C211.702 317.675 203.902 318.894 197.564 318.894ZM316.758 480.5C310.421 480.5 298.721 477.331 281.658 470.994C265.083 464.169 253.383 458.562 246.558 454.175C244.608 454.662 242.171 456.125 239.246 458.562C236.321 461 234.127 462.219 232.664 462.219C227.789 462.219 223.158 461.487 218.771 460.025C214.383 458.075 211.214 456.856 209.264 456.369C209.264 457.831 209.021 460.513 208.533 464.413C208.533 467.825 208.046 470.75 207.071 473.188C206.096 475.137 204.389 476.112 201.952 476.112C197.564 476.112 193.421 470.75 189.521 460.025C186.108 448.812 184.158 442.231 183.671 440.281H174.896C165.633 440.281 157.102 438.819 149.302 435.894C141.502 432.969 137.602 428.825 137.602 423.462L138.333 418.344C142.72 418.344 148.814 418.831 156.614 419.806C164.414 420.781 170.508 421.269 174.896 421.269H177.821C177.333 415.906 176.114 409.569 174.164 402.256C171.239 387.631 169.777 379.1 169.777 376.663C169.777 375.688 170.752 374.225 172.702 372.275C178.552 373.25 182.452 375.687 184.402 379.587C186.839 383 189.033 388.606 190.983 396.406C193.908 407.131 196.833 415.175 199.758 420.537C206.583 420.537 212.677 419.806 218.039 418.344C223.402 416.394 226.571 415.175 227.546 414.688L228.277 393.481C226.814 393.481 222.914 394.7 216.577 397.138C215.602 398.6 214.383 400.794 212.921 403.719C211.458 406.644 209.508 409.325 207.071 411.763C204.146 410.3 201.464 405.425 199.027 397.138C197.077 388.363 196.102 379.1 196.102 369.35C196.102 350.825 197.077 337.419 199.027 329.131C215.114 326.694 236.808 321.819 264.108 314.506C281.171 309.631 292.871 307.194 299.208 307.194C309.446 307.194 314.564 310.606 314.564 317.431C314.564 318.894 312.858 325.231 309.446 336.444C306.033 347.169 304.327 360.331 304.327 375.931C304.327 383.731 304.814 392.019 305.789 400.794C322.364 402.256 339.914 406.644 358.439 413.956C376.964 420.781 386.227 431.262 386.227 445.4C386.227 453.687 383.058 460.025 376.721 464.413C370.383 468.8 362.339 470.994 352.589 470.994C350.639 470.994 348.202 471.481 345.277 472.456C342.352 473.431 340.158 474.163 338.696 474.65C328.946 478.55 321.633 480.5 316.758 480.5ZM244.364 348.144C251.189 347.169 256.796 346.194 261.183 345.219C266.058 343.756 270.689 342.781 275.077 342.294L275.808 325.475C271.421 326.45 266.302 327.912 260.452 329.862C254.602 331.325 249.971 332.3 246.558 332.788C246.071 335.713 245.583 338.394 245.096 340.831C244.608 343.269 244.364 345.706 244.364 348.144ZM216.577 353.262C219.502 353.262 221.939 353.019 223.889 352.531C226.327 352.044 228.277 351.556 229.739 351.069C229.739 347.169 230.227 342.294 231.202 336.444L213.652 339.369V352.531L216.577 353.262ZM244.364 376.663C251.189 376.175 260.939 373.981 273.614 370.081C273.614 362.769 273.858 357.162 274.346 353.262C263.621 356.675 253.627 359.113 244.364 360.575V376.663ZM214.383 381.781C216.821 381.781 221.452 381.294 228.277 380.319V363.5C224.377 363.987 220.964 364.475 218.039 364.962C215.114 365.45 213.652 366.181 213.652 367.156C213.652 368.131 213.652 369.594 213.652 371.544L214.383 381.781ZM245.827 409.569C256.552 407.619 266.058 404.937 274.346 401.525C274.346 393.237 274.102 386.9 273.614 382.512C269.714 383.487 265.327 384.706 260.452 386.169C256.064 387.144 251.189 388.362 245.827 389.825V409.569ZM290.433 461.487C294.821 461.487 299.452 459.781 304.327 456.369C309.202 452.469 312.858 450.031 315.296 449.056C317.733 448.081 322.364 447.35 329.189 446.862C336.502 445.887 341.864 444.425 345.277 442.475C349.177 440.525 351.127 436.869 351.127 431.506C351.127 427.606 346.008 423.95 335.771 420.537C325.533 416.637 316.271 414.444 307.983 413.956C307.983 415.419 308.227 417.856 308.714 421.269C309.689 424.194 310.177 426.875 310.177 429.312C310.177 431.75 309.446 434.431 307.983 437.356C304.571 439.794 300.183 441.988 294.821 443.938C289.458 445.887 284.827 446.862 280.927 446.862C279.952 445.4 279.221 443.938 278.733 442.475C278.246 440.525 277.514 438.819 276.539 437.356C273.614 438.331 270.446 440.038 267.033 442.475C263.621 444.913 260.452 446.619 257.527 447.594C259.477 450.519 264.352 453.687 272.152 457.1C279.952 460.025 286.046 461.487 290.433 461.487ZM250.214 434.431C252.652 434.431 256.064 433.456 260.452 431.506C265.327 429.556 270.446 427.85 275.808 426.387C274.833 421.025 274.589 417.125 275.077 414.688C270.202 415.175 264.839 416.394 258.989 418.344C253.139 420.294 248.996 421.756 246.558 422.731C246.558 425.656 246.802 428.337 247.289 430.775C248.264 433.212 249.239 434.431 250.214 434.431ZM207.802 447.594C214.627 446.131 222.427 443.45 231.202 439.55C228.764 436.625 227.546 432.725 227.546 427.85L202.683 435.894L207.802 447.594Z" fill="#969696" stroke="white" stroke-width="4" mask="url(#path-3-inside-1_170_499)"/>
</svg>
