<svg width="512" height="512" viewBox="0 0 512 512" fill="none" xmlns="http://www.w3.org/2000/svg">
<path d="M0 0H512V512H0V0Z" fill="white"/>
<path d="M321.146 213.594C309.446 213.594 299.452 212.619 291.164 210.669C283.364 208.719 275.564 204.575 267.764 198.238C260.939 192.388 255.577 187.025 251.677 182.15C248.264 176.788 246.558 169.963 246.558 161.675C246.558 138.763 247.777 122.919 250.214 114.144C253.139 105.369 254.602 99.5188 254.602 96.5938C254.602 95.6188 254.114 93.1813 253.139 89.2813C249.727 89.2813 247.533 90.2563 246.558 92.2063C245.583 93.6688 244.608 98.7875 243.633 107.563C242.658 118.288 235.102 129.988 220.964 142.663C207.314 154.85 191.958 165.575 174.896 174.838C158.321 183.613 146.864 188 140.527 188C138.089 188 135.895 187.025 133.945 185.075C135.408 183.125 140.039 180.2 147.839 176.3C161.489 169.475 173.921 162.163 185.133 154.363C196.346 146.075 206.339 134.863 215.114 120.725C214.139 118.775 210.971 116.094 205.608 112.681C200.733 108.781 198.296 105.369 198.296 102.444C198.296 100.494 200.733 98.3 205.608 95.8625C210.483 92.9375 213.652 89.7688 215.114 86.3563C214.627 81.4813 213.896 76.6062 212.921 71.7312C211.946 66.8562 211.458 63.2 211.458 60.7625C211.458 58.325 211.946 55.8875 212.921 53.45C213.896 50.525 215.114 48.575 216.577 47.6C227.789 47.6 235.346 49.3063 239.246 52.7188C243.633 55.6438 247.289 59.7875 250.214 65.15L256.796 65.8813C257.283 64.4188 258.014 62.4688 258.989 60.0312C259.964 57.1062 261.427 55.6438 263.377 55.6438C265.327 55.6438 266.789 55.8875 267.764 56.375C269.227 56.8625 270.933 57.1063 272.883 57.1063C278.246 57.1063 286.777 53.6938 298.477 46.8688C299.452 46.3813 302.133 44.9188 306.521 42.4813C310.908 39.5563 314.564 38.0938 317.489 38.0938C320.902 38.0938 323.339 40.2875 324.802 44.675C326.264 48.575 326.996 52.2313 326.996 55.6438C326.996 59.5438 322.364 65.15 313.102 72.4625C312.614 72.95 311.639 73.1937 310.177 73.1937C309.202 73.1937 307.983 72.95 306.521 72.4625C305.546 71.975 304.083 71.7312 302.133 71.7312C290.921 71.7312 281.171 73.4375 272.883 76.85C266.546 100.737 263.377 120.725 263.377 136.812C263.377 147.538 264.352 154.119 266.302 156.556C270.202 161.431 276.539 166.306 285.314 171.181C294.089 175.569 301.646 177.763 307.983 177.763C315.296 177.763 321.389 176.056 326.264 172.644C326.752 169.719 326.996 165.087 326.996 158.75C326.996 154.362 326.508 147.294 325.533 137.544C324.558 128.769 324.071 121.944 324.071 117.069C326.508 117.069 328.702 119.019 330.652 122.919C333.089 126.819 335.283 131.206 337.233 136.081C339.183 140.469 340.402 143.394 340.889 144.856C344.302 154.606 346.739 159.969 348.202 160.944C355.027 162.894 361.608 166.062 367.946 170.45C374.283 174.837 377.452 179.712 377.452 185.075C377.452 192.875 371.114 199.7 358.439 205.55C345.764 210.912 333.333 213.594 321.146 213.594Z" fill="black"/>
<path d="M197.564 318.894C187.327 318.894 176.358 317.675 164.658 315.237C152.958 312.312 144.914 308.169 140.527 302.806C141.014 302.319 143.208 300.856 147.108 298.419C151.008 295.981 155.396 294.762 160.271 294.762C166.121 294.762 173.189 295.981 181.477 298.419C183.427 298.906 186.839 299.637 191.714 300.612C197.077 301.587 202.439 302.075 207.802 302.075C217.552 302.075 224.133 301.1 227.546 299.15C230.958 297.2 232.664 292.813 232.664 285.988C232.664 284.525 231.202 283.55 228.277 283.062C225.839 282.088 224.133 280.869 223.158 279.406C223.158 276.969 224.133 274.775 226.083 272.825C228.521 270.387 230.471 267.95 231.933 265.513C233.396 263.075 235.346 259.906 237.783 256.006C240.221 252.106 242.171 249.181 243.633 247.231C245.583 245.281 247.777 244.306 250.214 244.306C251.677 244.306 252.896 245.037 253.871 246.5C254.846 247.963 255.333 249.669 255.333 251.619C255.333 257.956 254.114 264.781 251.677 272.094C249.727 279.406 248.264 285.256 247.289 289.644C248.752 292.081 250.458 293.3 252.408 293.3C255.333 293.3 259.477 287.694 264.839 276.481C270.689 265.269 273.614 257.225 273.614 252.35C273.614 249.425 271.908 246.744 268.496 244.306C265.571 241.869 263.621 239.675 262.646 237.725C264.108 234.8 267.277 231.144 272.152 226.756C277.027 222.369 282.389 219.2 288.239 217.25C292.139 218.713 295.552 222.125 298.477 227.487C301.402 232.362 302.864 237.969 302.864 244.306C302.864 249.181 300.914 255.031 297.014 261.856C292.627 267.706 290.189 274.044 289.702 280.869C296.527 279.894 301.889 278.919 305.789 277.944C321.389 275.019 335.527 273.556 348.202 273.556C363.802 273.556 372.821 275.262 375.258 278.675C371.846 285.5 366.483 290.619 359.171 294.031C352.833 293.544 339.671 293.3 319.683 293.3C309.933 293.3 299.696 294.519 288.971 296.956C278.733 299.394 265.814 302.806 250.214 307.194C240.464 310.119 230.714 312.8 220.964 315.237C211.702 317.675 203.902 318.894 197.564 318.894ZM316.758 480.5C310.421 480.5 298.721 477.331 281.658 470.994C265.083 464.169 253.383 458.562 246.558 454.175C244.608 454.662 242.171 456.125 239.246 458.562C236.321 461 234.127 462.219 232.664 462.219C227.789 462.219 223.158 461.487 218.771 460.025C214.383 458.075 211.214 456.856 209.264 456.369C209.264 457.831 209.021 460.513 208.533 464.413C208.533 467.825 208.046 470.75 207.071 473.188C206.096 475.137 204.389 476.112 201.952 476.112C197.564 476.112 193.421 470.75 189.521 460.025C186.108 448.812 184.158 442.231 183.671 440.281H174.896C165.633 440.281 157.102 438.819 149.302 435.894C141.502 432.969 137.602 428.825 137.602 423.462L138.333 418.344C142.72 418.344 148.814 418.831 156.614 419.806C164.414 420.781 170.508 421.269 174.896 421.269H177.821C177.333 415.906 176.114 409.569 174.164 402.256C171.239 387.631 169.777 379.1 169.777 376.663C169.777 375.688 170.752 374.225 172.702 372.275C178.552 373.25 182.452 375.687 184.402 379.587C186.839 383 189.033 388.606 190.983 396.406C193.908 407.131 196.833 415.175 199.758 420.537C206.583 420.537 212.677 419.806 218.039 418.344C223.402 416.394 226.571 415.175 227.546 414.688L228.277 393.481C226.814 393.481 222.914 394.7 216.577 397.138C215.602 398.6 214.383 400.794 212.921 403.719C211.458 406.644 209.508 409.325 207.071 411.763C204.146 410.3 201.464 405.425 199.027 397.138C197.077 388.363 196.102 379.1 196.102 369.35C196.102 350.825 197.077 337.419 199.027 329.131C215.114 326.694 236.808 321.819 264.108 314.506C281.171 309.631 292.871 307.194 299.208 307.194C309.446 307.194 314.564 310.606 314.564 317.431C314.564 318.894 312.858 325.231 309.446 336.444C306.033 347.169 304.327 360.331 304.327 375.931C304.327 383.731 304.814 392.019 305.789 400.794C322.364 402.256 339.914 406.644 358.439 413.956C376.964 420.781 386.227 431.262 386.227 445.4C386.227 453.687 383.058 460.025 376.721 464.413C370.383 468.8 362.339 470.994 352.589 470.994C350.639 470.994 348.202 471.481 345.277 472.456C342.352 473.431 340.158 474.163 338.696 474.65C328.946 478.55 321.633 480.5 316.758 480.5ZM244.364 348.144C251.189 347.169 256.796 346.194 261.183 345.219C266.058 343.756 270.689 342.781 275.077 342.294L275.808 325.475C271.421 326.45 266.302 327.912 260.452 329.862C254.602 331.325 249.971 332.3 246.558 332.788C246.071 335.713 245.583 338.394 245.096 340.831C244.608 343.269 244.364 345.706 244.364 348.144ZM216.577 353.262C219.502 353.262 221.939 353.019 223.889 352.531C226.327 352.044 228.277 351.556 229.739 351.069C229.739 347.169 230.227 342.294 231.202 336.444L213.652 339.369V352.531L216.577 353.262ZM244.364 376.663C251.189 376.175 260.939 373.981 273.614 370.081C273.614 362.769 273.858 357.162 274.346 353.262C263.621 356.675 253.627 359.113 244.364 360.575V376.663ZM214.383 381.781C216.821 381.781 221.452 381.294 228.277 380.319V363.5C224.377 363.987 220.964 364.475 218.039 364.962C215.114 365.45 213.652 366.181 213.652 367.156C213.652 368.131 213.652 369.594 213.652 371.544L214.383 381.781ZM245.827 409.569C256.552 407.619 266.058 404.937 274.346 401.525C274.346 393.237 274.102 386.9 273.614 382.512C269.714 383.487 265.327 384.706 260.452 386.169C256.064 387.144 251.189 388.362 245.827 389.825V409.569ZM290.433 461.487C294.821 461.487 299.452 459.781 304.327 456.369C309.202 452.469 312.858 450.031 315.296 449.056C317.733 448.081 322.364 447.35 329.189 446.862C336.502 445.887 341.864 444.425 345.277 442.475C349.177 440.525 351.127 436.869 351.127 431.506C351.127 427.606 346.008 423.95 335.771 420.537C325.533 416.637 316.271 414.444 307.983 413.956C307.983 415.419 308.227 417.856 308.714 421.269C309.689 424.194 310.177 426.875 310.177 429.312C310.177 431.75 309.446 434.431 307.983 437.356C304.571 439.794 300.183 441.988 294.821 443.938C289.458 445.887 284.827 446.862 280.927 446.862C279.952 445.4 279.221 443.938 278.733 442.475C278.246 440.525 277.514 438.819 276.539 437.356C273.614 438.331 270.446 440.038 267.033 442.475C263.621 444.913 260.452 446.619 257.527 447.594C259.477 450.519 264.352 453.687 272.152 457.1C279.952 460.025 286.046 461.487 290.433 461.487ZM250.214 434.431C252.652 434.431 256.064 433.456 260.452 431.506C265.327 429.556 270.446 427.85 275.808 426.387C274.833 421.025 274.589 417.125 275.077 414.688C270.202 415.175 264.839 416.394 258.989 418.344C253.139 420.294 248.996 421.756 246.558 422.731C246.558 425.656 246.802 428.337 247.289 430.775C248.264 433.212 249.239 434.431 250.214 434.431ZM207.802 447.594C214.627 446.131 222.427 443.45 231.202 439.55C228.764 436.625 227.546 432.725 227.546 427.85L202.683 435.894L207.802 447.594Z" fill="#A80000"/>
</svg>
