<svg width="512" height="512" viewBox="0 0 512 512" fill="none" xmlns="http://www.w3.org/2000/svg">
<path d="M1 1H511V511H1V1Z" fill="white" stroke="white" stroke-width="2"/>
<path d="M215.751 98.5217L215.709 98.3536L215.613 98.2095C214.619 96.7186 214.147 95.5177 213.911 94.3404C213.67 93.1337 213.667 91.9146 213.667 90.3089C213.667 82.0758 215.709 75.983 219.737 70.9181L238.677 54.0817C240.003 53.0214 240.947 52.2683 241.721 51.7571C242.494 51.2466 242.993 51.0516 243.417 51.0092C243.827 50.9682 244.299 51.0579 245.046 51.4016C245.81 51.7532 246.747 52.3133 248.087 53.1176L248.133 53.1454L248.183 53.1681C254.884 56.2609 262.176 62.232 268.73 69.5725C275.276 76.9044 281.027 85.5361 284.677 93.8805L284.695 93.9203L284.716 93.9585C287.865 99.7325 289.341 104.028 289.218 107.848C289.096 111.622 287.404 115.107 283.784 119.244L283.752 119.281L283.723 119.321L273.154 134.118L273.056 134.255L273.008 134.417C270.352 143.448 268.57 152.713 267.687 162.085L267.542 163.626L269.007 163.125L309.169 149.385L309.208 149.372L309.246 149.355C317.668 145.671 324.483 143.314 329.698 142.011C334.928 140.703 338.407 140.492 340.274 140.945C341.674 141.418 343.403 142.386 346.37 144.966C349.363 147.568 353.555 151.757 359.881 158.609L379.912 182.857C384.043 189.067 385 193.092 385 196C385 197.469 384.756 198.648 384.293 199.689C383.829 200.735 383.12 201.693 382.122 202.691C381.012 203.802 380.657 204.125 380.135 204.299C379.864 204.39 379.505 204.449 378.912 204.481C378.317 204.512 377.555 204.512 376.488 204.512C369.997 204.512 365.643 205.602 360.263 207.754L359.993 207.862L359.823 208.098C352.498 218.256 344.758 228.107 336.622 237.627L336.614 237.636C331.328 243.979 327.847 248.525 325.688 252.167C323.517 255.832 322.642 258.651 322.642 261.528C322.642 265.474 320.646 269.452 318.708 271.39C317.376 272.722 315.561 273.476 312.016 273.476C308.428 273.476 303.233 272.703 295.302 271.117L295.247 271.106L295.192 271.101L270.883 268.987L270.84 268.984H270.797H265.512H264.547L264.513 269.948L263.456 299.542L263.455 299.559V299.577V340.797V340.819L263.456 340.841C265.57 388.399 265.566 401.02 264.517 412.563C263.468 421.477 261.368 430.926 258.874 439.197C256.38 447.467 253.513 454.484 250.947 458.605C250.159 459.655 249.594 460.407 249.145 460.933C248.725 461.426 248.501 461.602 248.399 461.659C248.379 461.649 248.351 461.633 248.314 461.608C248.07 461.446 247.755 461.138 247.195 460.577L247.125 460.507L247.042 460.452C246.471 460.072 245.841 459.273 245.19 457.939C244.55 456.628 243.942 454.909 243.355 452.823C242.187 448.67 241.141 443.197 240.089 436.893V361.935V361.926L240.089 361.917C239.65 337.964 239.297 314.009 239.032 290.054L239.032 290.033L239.031 290.012L237.974 269.931L237.908 268.677L236.701 269.022L221.92 273.245C219.802 273.775 217.62 274.37 215.45 274.962L215.442 274.964C213.26 275.559 211.091 276.151 208.989 276.676C204.766 277.732 200.907 278.496 197.87 278.496H190.779C189.432 277.562 188.604 276.67 188.079 275.515C187.508 274.258 187.244 272.58 187.244 269.984V269.821L187.193 269.667L185.079 263.326L185.069 263.298L185.059 263.271C183.932 260.455 181.453 256.912 177.328 252.521C173.191 248.116 167.342 242.801 159.397 236.445C146.813 225.957 135.29 213.391 132.122 209.189C130.015 205.502 128.761 203.229 128.01 200.851C127.264 198.487 127 195.965 127 191.772C127 181.407 129.058 174.225 132.079 169.14L133.398 167.821L134.805 169.227L134.849 169.271L134.898 169.31L153.874 184.068C159.479 189.665 163.492 192.031 167.916 194.639C168.559 195.017 169.21 195.401 169.876 195.801L170.039 195.898L170.226 195.929L176.567 196.986L176.72 197.012L176.873 196.99C178.826 196.711 183.011 195.49 188.221 193.797C193.469 192.091 199.855 189.875 206.268 187.561C219.068 182.942 232.075 177.902 236.366 175.756L236.511 175.684L236.626 175.569L238.74 173.455L239.033 173.162V172.748V167.463V167.437L239.031 167.411L237.974 147.33L237.974 147.32L237.973 147.311C236.917 132.527 235.856 124.977 232.619 117.416C231.017 113.147 229.377 110.106 227.268 107.857C225.139 105.585 222.598 104.191 219.324 103.1L216.674 102.217L215.751 98.5217ZM321.88 171.812L321.71 171.748H321.528H312.016H311.893L311.774 171.778L273.725 181.29L273.659 181.306L273.596 181.332L268.312 183.445L267.881 183.618L267.734 184.058L266.677 187.228L266.634 187.36L266.627 187.498L264.513 232.945L264.512 232.969V232.992V247.789V248.789H265.512H268.641L281.283 249.842L281.387 249.851L281.49 249.838L289.945 248.781L290.34 248.732L290.593 248.424C301.973 234.612 311.925 219.683 320.298 203.866L320.3 203.864C325.579 193.832 328.326 186.786 328.604 181.787C328.745 179.248 328.255 177.158 327.069 175.475C325.89 173.802 324.106 172.647 321.88 171.812ZM239.033 222.423V222.404L239.032 222.384L237.975 194.905L237.922 193.52L236.624 194.007L219.714 200.348L219.684 200.359L219.655 200.373L198.645 209.827L191.457 210.854H188.358H186.277L187.577 212.478L191.759 217.706L209.685 248.285L209.69 248.294L213.912 255.683L214.261 256.294L214.954 256.172L232.922 253.001L232.933 252.999L232.944 252.997L238.229 251.94L239.033 251.779V250.959V222.423Z" fill="#969696" stroke="white" stroke-width="2"/>
</svg>
