<svg width="512" height="512" viewBox="0 0 512 512" fill="none" xmlns="http://www.w3.org/2000/svg">
<path d="M0 0H512V512H0V0Z" fill="white"/>
<path d="M238.033 53.317L219.008 70.2276C214.78 75.5122 212.667 81.8536 212.667 90.3089C212.667 93.4796 212.667 95.5935 214.78 98.7642L215.837 102.992L219.008 104.049C225.35 106.163 228.52 109.333 231.691 117.789C234.862 125.187 235.919 132.585 236.976 147.382L238.033 167.463V172.748L235.919 174.862C227.463 179.089 184.13 194.943 176.732 196L170.39 194.943C165.106 191.772 160.878 189.659 154.537 183.317L135.512 168.52L133.398 166.406L131.285 168.52C128.114 173.805 126 181.203 126 191.772C126 200.228 127.057 202.341 131.285 209.74C134.455 213.967 146.081 226.65 158.764 237.219C174.618 249.902 182.016 258.358 184.13 263.642L186.244 269.984C186.244 275.268 187.301 277.382 190.472 279.496H197.87C204.211 279.496 213.724 276.325 222.179 274.211L236.976 269.984L238.033 290.065C238.298 314.023 238.65 337.98 239.089 361.935V436.976C241.203 449.658 243.317 459.171 246.488 461.284C248.602 463.398 248.602 463.398 251.772 459.171C257.057 450.715 263.398 430.634 265.512 412.667C266.569 401.041 266.569 388.358 264.455 340.797V299.577L265.512 269.984H270.797L295.106 272.098C310.959 275.268 316.244 275.268 319.415 272.098C321.528 269.984 323.642 265.756 323.642 261.528C323.642 256.244 326.813 250.959 337.382 238.276C345.536 228.736 353.293 218.863 360.634 208.683C365.919 206.569 370.146 205.512 376.488 205.512C380.715 205.512 380.715 205.512 382.829 203.398C384.943 201.285 386 199.171 386 196C386 192.829 384.943 188.602 380.715 182.26L360.634 157.951C347.951 144.211 343.724 141.041 340.553 139.984C336.325 138.927 325.756 141.041 308.846 148.439L268.683 162.179C269.56 152.871 271.329 143.669 273.967 134.699L284.537 119.902C291.935 111.447 291.935 105.106 285.593 93.4796C278.195 76.5691 262.341 58.6016 248.602 52.2601C243.317 49.0894 243.317 49.0894 238.033 53.317ZM321.528 172.748C329.984 175.919 329.984 183.317 319.415 203.398C311.073 219.156 301.158 234.028 289.821 247.789L281.366 248.845L268.683 247.789H265.512V232.992L267.626 187.545L268.683 184.374L273.967 182.26L312.016 172.748H321.528ZM238.033 222.423V250.959L232.748 252.016L214.78 255.187L210.553 247.789L192.585 217.138L188.358 211.854H191.528L198.927 210.797L220.065 201.285L236.976 194.943L238.033 222.423Z" fill="#A80000"/>
</svg>
