<svg width="512" height="512" viewBox="0 0 512 512" fill="none" xmlns="http://www.w3.org/2000/svg">
<path d="M0 0H512V512H0V0Z" fill="white"/>
<path d="M202.711 58.1316L204.842 77.3158C205.908 82.6447 210.171 89.0395 216.566 98.6316C227.224 115.684 231.487 127.408 231.487 145.526V149.789L225.092 151.921L199.513 156.184L184.592 159.382L188.855 166.842C192.053 168.974 194.184 171.105 200.579 171.105C206.974 172.171 215.5 171.105 225.092 168.974L232.553 166.842V175.368L233.618 182.829L227.224 183.895C209.105 189.224 190.987 194.553 172.868 197.75L164.342 199.882L157.947 196.684C151.553 193.487 146.224 191.355 143.026 191.355L136.632 195.618L135.566 196.684L137.697 199.882C140.895 207.342 150.487 219.066 169.671 241.447C183.526 257.434 187.789 263.829 187.789 264.895V267.026C185.658 268.092 186.724 270.224 189.921 273.421C192.053 276.618 198.447 279.816 200.579 279.816V280.882C194.976 292.69 186.993 303.212 177.132 311.789L172.868 309.658L168.605 305.395L169.671 309.658L171.803 318.184L165.408 323.513C142.879 339.756 118.987 354.019 94 366.145L97.1974 368.276L108.921 369.342C118.513 369.342 121.711 369.342 129.171 367.211C140.895 362.947 160.079 352.29 176.066 339.5L182.461 335.237L185.658 340.566L216.566 386.395C219.763 392.79 219.763 392.79 219.763 399.184C221.895 418.368 229.355 445.013 237.882 453.54C244.276 461 252.803 458.868 257.066 449.276C259.197 445.013 260.263 439.684 261.329 430.092C262.395 419.434 262.395 416.237 256 382.132C249.415 352.039 247.973 321.048 251.737 290.474V280.882H257.066L263.461 289.408L292.237 333.105C313.553 365.079 324.211 374.671 338.066 374.671C344.461 374.671 350.855 372.54 361.513 367.211L370.039 361.882C375.368 358.684 376.434 358.684 395.618 367.211C403.079 370.408 418 373.605 418 372.54L415.868 368.276C412.671 364.013 406.276 357.618 400.947 354.421C394.553 350.158 374.303 341.632 354.053 333.105C326.342 322.447 307.158 312.855 294.368 302.197C290.105 299 277.316 286.211 274.118 280.882L270.921 278.75L273.053 277.684L279.447 276.618L284.776 275.553L286.908 277.684L297.566 280.882C302.895 280.882 305.026 277.684 306.092 269.158C306.092 262.763 308.224 258.5 314.618 249.974C322.079 240.382 326.342 232.921 330.605 224.395L334.868 216.934L340.197 214.803C345.526 213.737 349.789 211.605 350.855 209.474C352.987 206.276 352.987 202.013 349.789 195.618C344.461 184.961 329.539 170.039 322.079 166.842C319.947 165.776 315.684 166.842 305.026 168.974L253.868 177.5L252.803 178.566V174.303L253.868 166.842V162.579L258.132 160.447L282.645 155.118C300.763 151.921 306.092 148.724 306.092 144.461C306.092 140.197 303.961 138.066 296.5 133.803C291.171 130.605 285.842 128.474 282.645 128.474C279.447 128.474 276.25 129.539 271.987 133.803L256 142.329L254.934 143.395V140.197L259.197 123.145C261.329 116.75 268.789 109.289 276.25 105.026C283.711 100.763 285.842 98.6316 285.842 94.3684C285.842 86.9079 280.513 81.5789 268.789 77.3158L253.868 74.1184C236.27 69.7479 219.137 63.68 202.711 56V58.1316ZM301.829 187.092C307.158 188.158 310.355 190.289 310.355 192.421C310.355 195.618 309.289 199.882 305.026 208.408L300.763 215.868L295.434 212.671C289.039 207.342 287.974 206.276 281.579 206.276C276.25 206.276 270.921 208.408 266.658 211.605L254.934 215.868L250.671 216.934L251.737 209.474V192.421L253.868 191.355L277.316 188.158L301.829 187.092ZM233.618 203.079L234.684 214.803V219.066L231.487 220.132C225.144 221.489 218.743 222.556 212.303 223.329L204.842 224.395L194.184 226.526L190.987 227.592L188.855 224.395L181.395 216.934L177.132 212.671L181.395 210.539C194.184 205.211 213.368 199.882 230.421 195.618C233.618 194.553 233.618 194.553 233.618 203.079ZM291.171 228.658L294.368 229.724L293.303 232.921C289.04 239.825 285.127 246.939 281.579 254.237L279.447 257.434L271.987 258.5L254.934 260.632C251.737 260.632 251.737 260.632 251.737 258.5V235.053C264.821 232.562 277.97 230.429 291.171 228.658ZM234.684 244.645V262.763H228.289L217.632 261.697C214.434 261.697 213.368 260.632 212.303 259.566C208.039 255.303 200.579 242.513 201.645 241.447L217.632 238.25L230.421 236.118H234.684V244.645ZM234.684 283.013C233.844 306.876 232.066 330.697 229.355 354.421C227.224 358.684 225.092 359.75 222.961 359.75L212.303 352.29L192.053 328.842L190.987 326.711L195.25 322.447L219.763 288.342L224.026 281.947H229.355L234.684 283.013Z" fill="black"/>
</svg>
