<svg width="512" height="512" viewBox="0 0 512 512" fill="none" xmlns="http://www.w3.org/2000/svg">
<path d="M0 0H512V512H0V0Z" fill="white"/>
<path d="M305.846 84.0769C302.731 88.2308 299.615 96.5385 290.269 122.5C286.25 133.086 281.745 143.482 276.769 153.654C271.917 148.411 267.407 142.861 263.269 137.038L265.346 131.846C268.462 126.654 269.5 121.462 267.423 118.346C267.423 116.269 263.269 112.115 260.154 111.077C251.846 106.923 245.615 110.038 235.231 124.577L226.923 134.962C221.731 141.192 206.154 152.615 184.346 168.192L171.885 176.5V178.577C173.962 180.654 178.115 181.692 184.346 181.692C190.577 180.654 193.692 179.615 207.192 173.385C218.615 168.192 226.923 165.077 227.962 166.115C227.962 167.154 219.654 183.769 212.385 194.154L198.885 212.846L195.769 209.731L178.115 195.192C168.885 187.134 157.839 181.432 145.923 178.577C143.846 177.538 143.846 177.538 143.846 179.615C143.846 182.731 146.962 190 149.038 193.115L160.462 205.577L184.346 229.462L185.385 231.538L181.231 235.692C155.239 267.386 126.003 296.274 94 321.885C110.514 318.867 126.346 312.886 140.731 304.231C151.115 298 165.654 283.462 179.154 268.923C185.385 260.615 186.423 260.615 190.577 258.538C198.885 254.385 204.077 253.346 209.269 254.385L211.346 255.423L210.308 257.5L207.192 269.962L199.923 274.115C183.686 282.536 168.372 292.629 154.231 304.231L149.038 308.385L151.115 311.5C153.192 313.577 154.231 314.615 156.308 314.615H168.769C170.846 313.577 178.115 309.423 183.308 304.231L196.808 293.846L202 291.769C204.077 291.769 211.346 299.038 213.423 303.192L214.462 305.269L213.423 306.308C209.269 309.423 167.731 328.115 145.923 337.462C133.462 341.615 130.346 342.654 125.154 341.615C118.923 341.615 116.846 340.577 107.5 336.423L101.269 332.269V334.346L107.5 349.923C110.615 355.115 113.731 359.269 116.846 361.346L125.154 362.385H135.538L139.692 361.346L140.731 363.423C147.142 370.536 153.375 377.807 159.423 385.231C165.654 392.5 167.731 393.538 170.846 394.577C176.038 397.692 181.231 398.731 186.423 397.692C193.692 396.654 197.846 392.5 203.038 385.231C213.258 367.151 222.278 348.418 230.038 329.154L238.346 328.115C246.66 327.493 254.968 326.801 263.269 326.038C261.889 335.068 258.324 343.624 252.885 350.962L233.154 369.654L214.462 386.269C211.346 390.423 214.462 396.654 219.654 399.769H231.077C243.538 395.615 266.385 381.077 275.731 372.769L280.923 365.5L285.077 336.423L286.115 322.923L290.269 321.885H313.115C342.192 322.923 348.423 321.885 352.577 315.654L353.615 313.577L352.577 311.5C348.423 307.346 341.154 303.192 332.846 300.077C327.654 299.038 326.615 299.038 321.423 302.154L313.115 304.231C305.842 304.875 298.572 305.568 291.308 306.308H288.192V296.962L290.269 279.308C291.308 277.231 296.5 275.154 304.808 273.077C315.192 269.962 316.231 269.962 316.231 267.885L311.038 258.538C307.923 255.423 305.846 255.423 300.654 256.462C295.462 256.462 291.308 258.538 280.923 263.731L268.462 267.885L263.269 266.846C261.192 264.769 262.231 263.731 264.308 254.385C268.462 239.846 271.577 232.577 276.769 223.231C280.923 212.846 281.962 208.692 280.923 202.462C279.885 196.231 275.731 188.962 269.5 182.731L261.192 176.5L260.154 188.962L258.077 214.923L252.885 246.077L250.808 251.269L245.615 254.385L229 260.615H226.923V257.5L229 250.231L230.038 246.077L236.269 242.962L245.615 236.731L248.731 232.577C248.731 230.5 240.423 226.346 236.269 225.308L226.923 228.423C221.731 232.577 216.538 233.615 212.385 230.5C210.308 230.5 209.269 229.462 209.269 228.423L217.577 214.923C231.733 193.936 244.566 172.086 256 149.5L267.423 163L291.308 203.5C293.385 205.577 292.346 206.615 288.192 213.885L284.038 220.115C284.038 221.154 294.423 220.115 297.538 218.038L302.731 224.269C315.41 244.025 325.53 265.31 332.846 287.615L335.962 293.846L342.192 296.962L369.192 311.5C385.808 322.923 403.462 331.231 408.654 333.308L418 334.346L399.308 299.038C393.077 287.615 384.769 278.269 374.385 269.962C352.309 252.597 333.044 231.931 317.269 208.692L315.192 205.577L322.462 197.269C331.808 188.962 335.962 186.885 339.077 186.885C344.269 186.885 346.346 181.692 344.269 175.462C342.49 171.46 339.765 167.95 336.327 165.237C332.89 162.523 328.844 160.686 324.538 159.885L323.5 163C319.478 174.2 312.691 184.202 303.769 192.077C298.256 184.907 293.391 177.262 289.231 169.231C301.128 151.952 311.882 133.914 321.423 115.231L324.538 111.077V106.923C324.538 103.808 322.462 99.6538 319.346 94.4615C314.154 87.1923 310 82 307.923 82L305.846 84.0769ZM245.615 269.962L243.538 277.231C240.423 283.462 239.385 288.654 239.385 290.731L240.423 292.808C241.462 292.808 247.692 288.654 251.846 283.462L254.962 279.308L259.115 280.346L266.385 281.385H270.538V283.462L269.5 290.731L267.423 308.385C257.108 310.51 246.716 312.242 236.269 313.577L232.115 306.308L229 300.077L222.769 294.885C219.654 292.808 216.538 289.692 215.5 286.577L216.538 283.462C219.654 279.308 230.038 274.115 239.385 271L245.615 269.962ZM206.154 325C210.308 329.154 208.231 335.385 199.923 347.846C192.654 358.231 187.462 364.462 182.269 366.538L175 367.577C167.731 367.577 154.231 362.385 150.077 358.231L148 356.154L149.038 355.115C166.442 342.564 185.264 332.107 205.115 323.962L206.154 325Z" fill="#008000"/>
<path d="M316.231 343.692C311.038 344.731 305.846 345.769 302.731 347.846L301.692 348.885L306.885 356.154C314.154 366.539 317.269 371.731 323.5 387.308C326.615 394.577 329.731 400.808 331.808 401.846C333.885 402.885 344.269 401.846 349.462 399.769C359.846 396.654 368.154 390.423 371.269 384.192C373.346 381.077 373.346 380.039 373.346 375.885L372.308 367.577C369.192 361.346 362.962 356.154 352.577 350.962C342.192 345.769 328.692 342.654 316.231 343.692Z" fill="#008000"/>
</svg>
