<svg width="512" height="512" viewBox="0 0 512 512" fill="none" xmlns="http://www.w3.org/2000/svg">
<path d="M1 1H511V511H1V1Z" fill="white" stroke="white" stroke-width="2"/>
<path d="M258.811 147.766L258.898 147.636L258.941 147.486C260.006 143.755 261.053 141.156 262.87 138.431C264.704 135.679 267.348 132.763 271.674 128.436L283.58 116.53L291.156 108.954L293.696 106.414L294.071 106.789L294.122 106.84L294.178 106.882C295.174 107.629 297.008 109.454 299.333 111.999C301.636 114.52 304.364 117.686 307.128 121.057C312.673 127.819 318.304 135.335 320.963 140.12L320.975 140.143L320.989 140.165C326.359 148.756 327.106 154.686 324.325 158.461L319.009 163.778C309.113 171.489 303.601 180.331 300.308 192.406L300.276 192.521L300.273 192.64L299.191 229.439L299.19 229.471L299.191 229.503L300.273 260.891L300.352 263.191L301.98 261.563L304.02 259.523C314.256 254.735 323.758 248.512 332.239 241.042L332.263 241.021L332.285 240.999C335.037 238.247 336.779 235.956 337.798 233.046C338.805 230.169 339.072 226.774 339.072 221.892V215.812L340.826 214.058C342.884 213.064 346.479 212.04 350.511 211.52C354.635 210.987 359.084 211 362.691 212.03L362.738 212.044L362.787 212.053C368.57 213.104 374.933 216.012 380.12 219.603C382.708 221.395 384.98 223.341 386.727 225.284C388.483 227.237 389.662 229.134 390.145 230.826L390.151 230.847L390.158 230.867C390.705 232.508 391.22 234.06 391.475 235.465C391.727 236.851 391.691 237.923 391.32 238.709C390.375 240.09 388.419 241.596 385.278 243.036C382.122 244.482 377.871 245.816 372.51 246.888L372.481 246.894L372.452 246.901C351.817 252.331 323.597 263.184 304.034 274.053L303.998 274.072L303.965 274.095L300.718 276.259L300.272 276.556V277.091V282.503C300.272 302.032 302.44 326.973 303.529 334.597L303.538 334.658L303.555 334.718C306.831 346.733 312.391 354.753 321.557 357.063C328.2 359.269 338.048 360.349 348.489 360.349C358.965 360.349 370.137 359.261 379.427 357.076C386.459 355.453 390.477 354.651 393.536 354.252C396.576 353.856 398.683 353.855 401.93 353.855C405.224 353.855 407.254 353.861 408.875 354.235C410.408 354.589 411.602 355.282 413.128 356.809C414.264 357.945 414.6 358.312 414.781 358.853C414.874 359.134 414.936 359.504 414.968 360.112C414.998 360.696 415 361.436 415 362.456L412.9 369.807C408.715 378.088 398.222 385.502 385.405 389.779C373.633 392.985 358.606 394.066 334.802 395.148C322.907 395.148 315.409 394.876 309.547 393.943C303.721 393.016 299.491 391.434 294.143 388.76C285.718 384.547 280.517 379.346 277.367 371.042L276.296 353.906V317.138V317.102L276.294 317.067L275.211 301.914L275.21 301.887L275.206 301.861L274.124 293.202L273.91 291.493L272.532 292.526L273.132 293.326C272.532 292.526 272.532 292.527 272.531 292.527L272.531 292.527L272.528 292.529L272.519 292.536L272.481 292.565L272.333 292.676C272.203 292.774 272.012 292.918 271.766 293.105C271.274 293.478 270.562 294.021 269.681 294.698C267.918 296.054 265.478 297.952 262.766 300.122C257.381 304.43 250.89 309.836 246.519 314.196C244.944 315.247 243.753 316.086 242.904 316.881C242.014 317.715 241.442 318.551 241.18 319.601C240.929 320.603 240.986 321.708 241.14 323.005C241.213 323.625 241.313 324.32 241.425 325.094L241.445 325.237C241.566 326.074 241.7 327.013 241.834 328.085L241.837 328.113L241.842 328.14C242.901 333.962 242.626 338.658 241.201 342.933C239.774 347.213 237.169 351.149 233.437 355.418C230.234 358.617 227.686 360.352 225.512 360.956C223.427 361.535 221.577 361.103 219.615 359.631L219.485 359.534L219.331 359.483C218.002 359.04 217.097 358.163 216.375 356.841C215.632 355.479 215.116 353.701 214.573 351.53L214.557 351.464L214.532 351.401L212.367 345.99L212.352 345.951L212.333 345.914L212.302 345.851C211.787 344.822 211.358 343.964 210.951 343.354C210.546 342.746 210.004 342.132 209.168 341.992C208.377 341.86 207.626 342.213 206.963 342.614C206.278 343.028 205.434 343.661 204.391 344.444L204.345 344.479L204.327 344.492L204.31 344.506L174.004 369.4L173.989 369.412L173.975 369.425C154.592 386.654 139.539 397.411 132.018 401.725C127.253 403.303 121.692 404.36 116.655 404.757C111.541 405.161 107.138 404.87 104.659 403.879C102.148 402.874 100.458 401.406 99.3642 399.219C98.2481 396.987 97.7109 393.921 97.7109 389.654V389.531L97.6811 389.412C97.1332 387.22 96.9161 386.04 97.0284 385.03C97.1349 384.07 97.5532 383.163 98.6018 381.586C118.1 357.123 134.161 330.108 146.337 301.292L146.356 301.248L146.37 301.203L158.276 263.321L158.468 262.708L157.991 262.278L136.405 242.851C132.271 237.653 130.165 231.398 129.099 225.056V223.427C139.442 227.922 150.341 231.016 161.509 232.623L161.579 232.633H161.651H161.703C162.199 232.633 162.653 232.633 163.013 232.593C163.378 232.553 163.869 232.453 164.252 232.07C164.635 231.687 164.735 231.196 164.776 230.831C164.812 230.501 164.816 230.093 164.816 229.645L169.065 217.959L169.454 217.181L172.581 229.688L173.659 235.076L173.765 235.608L174.268 235.809L179.6 237.942L193.431 246.453C196.287 250.408 196.265 256.275 193.364 260.199C191.906 261.629 189.408 262.902 186.14 263.817C182.857 264.736 178.89 265.268 174.639 265.268H174.516L174.397 265.298L170.067 266.38L169.444 266.536L169.327 267.168C165.423 288.237 160.735 309.152 155.272 329.871L155.259 329.924L155.25 329.978L152.003 351.624L151.992 351.698V351.773V351.813C151.992 353.673 151.992 355.119 152.062 356.2C152.129 357.236 152.266 358.167 152.702 358.821C152.947 359.189 153.279 359.462 153.694 359.62C154.085 359.769 154.494 359.794 154.874 359.772C155.579 359.733 156.469 359.511 157.469 359.26L157.564 359.237L157.62 359.223L157.673 359.203C162.096 357.544 170.284 353.171 179.615 347.626C188.969 342.068 199.544 335.289 208.768 328.778L208.801 328.755L208.832 328.729L208.965 328.618C212.089 326.015 213.762 324.621 214.762 323.479C215.841 322.245 216.168 321.265 216.697 319.677L216.717 319.619L216.748 319.524L216.76 319.425C220.802 286.663 221.166 253.552 217.845 220.709L217.84 220.661L217.831 220.614C215.639 209.654 211.248 199.757 203.557 190.957C202.332 189.324 201.268 187.93 200.339 186.714C198.794 184.69 197.622 183.156 196.704 181.82C195.262 179.724 194.513 178.209 194.009 176.192L194 176.154L193.988 176.118C191.945 169.991 192.939 161.786 198.005 155.587L199.625 154.777L210.044 157.903L225.173 163.306L225.231 163.326L225.292 163.34L234.983 165.493C247.957 169.821 254.003 172.959 257.053 180.058L262.224 193.504L260.617 195.111C255.539 197.977 251.932 202.789 249.328 209.914C246.711 217.075 245.079 226.652 243.995 239.123L243.993 239.14L243.992 239.158L240.745 301.933L240.638 304.004L242.325 302.799L249.885 297.399C258.124 292.008 266.092 286.213 273.759 280.035L274.122 279.742L274.131 279.277C274.473 262.648 275.916 246.059 278.449 229.621L278.456 229.576L278.459 229.531L280.624 194.896L280.628 194.834L280.624 194.771L279.541 177.454L279.536 177.363L279.514 177.274C277.305 168.442 272.865 161.72 265.086 157.233L259.768 151.916L259.698 151.846L259.616 151.791L257.201 150.181L258.811 147.766Z" fill="#969696" stroke="white" stroke-width="2"/>
</svg>
