<svg width="512" height="512" viewBox="0 0 512 512" fill="none" xmlns="http://www.w3.org/2000/svg">
<path d="M0 0H512V512H0V0Z" fill="white"/>
<path d="M290.449 108.247L282.873 115.823L270.967 127.729C262.308 136.388 260.144 139.635 257.979 147.211L255.814 150.458L259.061 152.623L264.473 158.034C272.049 162.364 276.379 168.858 278.543 177.517L279.626 194.834L277.461 229.469C274.92 245.951 273.474 262.583 273.132 279.256C265.485 285.418 257.538 291.197 249.32 296.573L241.744 301.985L244.991 239.21C247.156 214.316 251.485 201.328 261.226 195.916L263.391 193.752L257.979 179.681C254.732 172.105 248.238 168.858 235.25 164.528L225.509 162.364L210.356 156.952L199.533 153.705L197.368 154.787C191.956 161.281 190.874 169.94 193.039 176.434C194.121 180.764 196.286 182.928 202.78 191.587C210.356 200.246 214.686 209.987 216.85 220.81C220.164 253.578 219.8 286.615 215.768 319.302C214.686 322.55 214.686 322.55 208.192 327.961C189.792 340.949 165.98 355.02 157.322 358.267C152.992 359.349 152.992 359.349 152.992 351.773L156.239 330.126C161.708 309.383 166.402 288.443 170.31 267.35L174.639 266.268C183.298 266.268 190.874 264.103 194.121 260.856C197.368 256.527 197.368 250.033 194.121 245.704L180.051 237.045L174.639 234.88L173.557 229.469L170.31 216.481L169.227 215.398L168.145 217.563L163.816 229.469C163.816 231.633 163.816 231.633 161.651 231.633C150.068 229.966 138.774 226.687 128.099 221.892V225.139C129.181 231.633 131.346 238.127 135.675 243.539L157.322 263.021L145.416 300.903C133.27 329.648 117.247 356.596 97.7933 380.996C95.6286 384.243 95.6286 385.325 96.7109 389.654C96.7109 398.313 98.8756 402.642 104.287 404.807C109.699 406.972 122.687 405.889 132.428 402.642C140.004 398.313 155.157 387.49 174.639 370.172L204.945 345.279C209.274 342.032 209.274 342.032 211.439 346.361L213.603 351.773C214.686 356.102 215.768 359.349 219.015 360.431C223.344 363.678 227.674 362.596 234.168 356.102C241.744 347.443 244.991 339.867 242.826 327.961C241.744 319.302 240.662 319.302 247.156 314.973C255.814 306.314 273.132 293.326 273.132 293.326L274.214 301.985L275.296 317.138V353.937L276.379 371.255C279.626 379.913 285.037 385.325 293.696 389.654C304.519 395.066 311.013 396.148 334.825 396.148C358.636 395.066 373.789 393.984 385.695 390.737C398.683 386.407 409.506 378.831 413.835 370.172L416 362.596C416 358.267 416 358.267 413.835 356.102C410.588 352.855 408.424 352.855 401.93 352.855C395.436 352.855 393.271 352.855 379.201 356.102C360.801 360.431 334.825 360.431 321.837 356.102C313.178 353.937 307.766 346.361 304.519 334.455C303.437 326.879 301.272 301.985 301.272 282.503V277.091L304.519 274.927C324.001 264.103 352.142 253.28 372.707 247.868C383.53 245.704 390.024 242.457 392.189 239.21C393.271 237.045 392.189 233.798 391.106 230.551C388.942 222.975 374.871 213.234 362.966 211.069C355.389 208.904 344.566 211.069 340.237 213.234L338.072 215.398V221.892C338.072 231.633 336.989 234.88 331.578 240.292C323.124 247.737 313.648 253.933 303.437 258.692L301.272 260.856L300.19 229.469L301.272 192.669C304.519 180.764 309.931 172.105 319.672 164.528L325.084 159.117C328.331 154.787 327.248 148.293 321.837 139.635C316.425 129.894 299.108 109.329 294.778 106.082L293.696 105L290.449 108.247Z" fill="black"/>
</svg>
