<svg width="512" height="512" viewBox="0 0 512 512" fill="none" xmlns="http://www.w3.org/2000/svg">
<path d="M0 0H512V512H0V0Z" fill="white"/>
<path d="M260.967 73.1838C250.389 85.2465 241.138 98.411 233.374 112.451H236.558C239.742 112.451 241.864 114.573 242.925 117.757C245.048 124.125 246.109 134.737 245.048 150.656L240.803 188.862C239.742 190.984 222.761 198.413 213.21 200.536C199.414 204.781 193.046 206.903 190.923 209.026C189.862 210.087 194.107 214.332 197.291 215.394C210.519 215.962 223.757 214.531 236.558 211.148C237.619 212.21 233.374 240.864 231.252 255.722L229.129 263.151L223.823 266.334L217.455 268.457L214.271 265.273C194.775 252.792 174.17 242.134 152.718 233.435L148.473 234.496C146.35 237.68 145.289 240.864 147.411 242.986L160.147 249.354C172.882 253.599 189.862 263.151 199.414 271.641L202.597 274.824L191.985 279.07L171.821 287.56L161.208 290.743L158.024 289.682C156.963 288.621 152.718 285.437 148.473 284.376L129.37 273.763L121.941 272.702C118.757 272.702 118.757 272.702 116.635 274.824C115.573 275.886 115.573 275.886 118.757 286.498C126.303 307.717 135.53 328.3 146.35 348.052L153.779 362.91C161.208 380.951 169.698 396.87 173.943 403.238C182.433 413.85 191.985 414.912 199.414 407.483C205.781 402.176 205.781 396.87 201.536 382.012L185.617 345.929C176.066 327.888 171.821 314.091 171.821 307.724C171.821 305.601 171.821 304.54 175.004 302.417C177.127 299.234 185.617 293.927 196.23 288.621L211.087 283.315L214.271 286.498L222.761 299.234L227.006 311.969V313.03L219.578 316.214C206.842 321.52 198.352 324.704 198.352 326.827L201.536 330.01C205.781 336.378 211.087 336.378 221.7 331.072L235.497 325.765L238.68 344.868L236.558 346.991L222.761 351.236C211.087 354.419 203.659 357.603 203.659 358.665L208.965 365.032L212.149 367.155C215.333 368.216 220.639 367.155 228.068 363.971L237.619 360.787L238.68 371.4L237.619 392.625L233.374 391.564L224.884 390.503H219.578L227.006 394.748C249.753 408.751 271.718 423.985 292.805 440.382C299.173 443.566 308.724 445.688 315.092 443.566L321.459 440.382C327.827 436.137 333.133 427.647 354.358 387.319L374.522 351.236C389.38 323.643 394.687 313.03 395.748 303.479C396.809 294.989 394.687 289.682 386.196 278.008C378.187 266.846 370.403 255.523 362.849 244.048C356.481 236.619 349.052 233.435 333.133 232.374H327.827L333.133 227.067C338.439 221.761 340.562 218.577 340.562 214.332C341.623 210.087 339.501 205.842 332.072 199.475L325.704 193.107L323.582 192.046L317.214 195.229L294.928 211.148C279.009 223.884 259.906 236.619 252.477 239.803L245.048 241.925L255.661 211.148L257.783 203.72L260.967 202.658C280.079 196.181 298.852 188.742 317.214 180.372C317.214 178.249 316.153 172.943 312.969 167.637C307.663 157.024 304.479 153.84 300.234 152.779C297.05 151.718 290.682 155.963 280.07 166.575L267.335 175.065L276.886 134.737L281.131 135.799C287.499 138.982 297.05 141.105 301.295 138.982L303.418 133.676C303.418 128.37 303.418 126.247 301.295 120.941C300.234 115.634 295.989 106.083 291.744 98.6542C282.192 84.8577 269.457 70 265.212 70L260.967 73.1838ZM289.621 232.374C291.744 233.435 291.744 236.619 289.621 239.803C288.56 242.986 280.07 247.232 265.212 253.599L239.742 261.028L241.864 249.354L249.293 246.17L264.151 240.864C286.437 230.251 287.499 230.251 289.621 232.374ZM319.337 262.089C328.7 271.973 337.22 282.623 344.807 293.927V301.356C343.746 310.908 342.684 314.091 327.827 345.929C310.847 380.951 303.418 394.748 292.805 405.36C288.56 410.667 287.499 410.667 283.254 409.605L275.825 407.483L257.783 398.993L258.844 393.686L262.028 363.971V353.358L267.335 352.297C280.203 349.164 293.363 347.386 306.601 346.991C309.785 344.868 309.785 336.378 305.54 331.072C303.418 328.949 302.356 327.888 299.173 327.888C298.111 326.827 295.989 327.888 289.621 330.01L272.641 335.317L263.09 338.5V336.378L264.151 318.336L282.192 314.091L300.234 311.969C311.908 311.969 312.969 311.969 316.153 309.846C319.337 306.662 315.092 298.172 308.724 294.989L300.234 293.927C294.532 294.243 288.858 294.953 283.254 296.05C282.192 294.989 287.499 285.437 290.682 280.131L304.479 261.028L311.908 259.967C317.214 259.967 318.275 259.967 319.337 262.089ZM281.131 264.212L269.457 289.682C263.09 302.417 264.151 301.356 255.661 304.54L238.68 309.846L237.619 306.662C234.059 296.645 229.433 287.039 223.823 278.008L238.68 271.641C252.615 268.061 266.809 265.578 281.131 264.212Z" fill="black"/>
</svg>
