<svg width="1800" height="1800" viewBox="0 0 1800 1800" fill="none" xmlns="http://www.w3.org/2000/svg">
<path d="M0 0H1800V1800H0V0Z" fill="white"/>
<path fill-rule="evenodd" clip-rule="evenodd" d="M115 342C115 340.895 114.105 340 113 340H7C5.89543 340 5 340.895 5 342V1310C5 1311.1 5.89543 1312 7 1312H113C114.105 1312 115 1311.1 115 1310V342ZM114 343C114 341.895 113.105 341 112 341H8C6.89543 341 6 341.895 6 343V1309C6 1310.1 6.89543 1311 8 1311H112C113.105 1311 114 1310.1 114 1309V343Z" fill="black"/>
<path fill-rule="evenodd" clip-rule="evenodd" d="M490 5C488.895 5 488 5.89543 488 7V113C488 114.105 488.895 115 490 115H1458C1459.1 115 1460 114.105 1460 113V7C1460 5.89543 1459.1 5 1458 5H490ZM491 6C489.895 6 489 6.89543 489 8V112C489 113.105 489.895 114 491 114H1457C1458.1 114 1459 113.105 1459 112V8C1459 6.89543 1458.1 6 1457 6H491Z" fill="black"/>
<path fill-rule="evenodd" clip-rule="evenodd" d="M1795 490C1795 488.895 1794.1 488 1793 488H1687C1685.9 488 1685 488.895 1685 490V1458C1685 1459.1 1685.9 1460 1687 1460H1793C1794.1 1460 1795 1459.1 1795 1458V490ZM1794 491C1794 489.895 1793.1 489 1792 489H1688C1686.9 489 1686 489.895 1686 491V1457C1686 1458.1 1686.9 1459 1688 1459H1792C1793.1 1459 1794 1458.1 1794 1457V491Z" fill="black"/>
<path fill-rule="evenodd" clip-rule="evenodd" d="M342 1685C340.895 1685 340 1685.9 340 1687V1793C340 1794.1 340.895 1795 342 1795H1310C1311.1 1795 1312 1794.1 1312 1793V1687C1312 1685.9 1311.1 1685 1310 1685H342ZM343 1686C341.895 1686 341 1686.9 341 1688V1792C341 1793.1 341.895 1794 343 1794H1309C1310.1 1794 1311 1793.1 1311 1792V1688C1311 1686.9 1310.1 1686 1309 1686H343Z" fill="black"/>
<path fill-rule="evenodd" clip-rule="evenodd" d="M323 209C323 207.895 322.105 207 321 207H217C215.895 207 215 207.895 215 209V1310C215 1311.1 215.895 1312 217 1312H321C322.105 1312 323 1311.1 323 1310V209ZM322 209.964C322 208.86 321.105 207.964 320 207.964H218C216.895 207.964 216 208.86 216 209.964V1309.04C216 1310.14 216.895 1311.04 218 1311.04H320C321.105 1311.04 322 1310.14 322 1309.04V209.964Z" fill="black"/>
<path fill-rule="evenodd" clip-rule="evenodd" d="M490 214C488.895 214 488 214.895 488 216V320C488 321.105 488.895 322 490 322H1591C1592.1 322 1593 321.105 1593 320V216C1593 214.895 1592.1 214 1591 214H490ZM490.964 215C489.86 215 488.964 215.895 488.964 217V319C488.964 320.105 489.86 321 490.964 321H1590.04C1591.14 321 1592.04 320.105 1592.04 319V217C1592.04 215.895 1591.14 215 1590.04 215H490.964Z" fill="black"/>
<path fill-rule="evenodd" clip-rule="evenodd" d="M1586 490C1586 488.895 1585.1 488 1584 488H1480C1478.9 488 1478 488.895 1478 490V1591C1478 1592.1 1478.9 1593 1480 1593H1584C1585.1 1593 1586 1592.1 1586 1591V490ZM1585 490.964C1585 489.86 1584.1 488.964 1583 488.964H1481C1479.9 488.964 1479 489.86 1479 490.964V1590.04C1479 1591.14 1479.9 1592.04 1481 1592.04H1583C1584.1 1592.04 1585 1591.14 1585 1590.04V490.964Z" fill="black"/>
<path fill-rule="evenodd" clip-rule="evenodd" d="M210 1478C208.895 1478 208 1478.9 208 1480V1584C208 1585.1 208.895 1586 210 1586H1310C1311.1 1586 1312 1585.1 1312 1584V1480C1312 1478.9 1311.1 1478 1310 1478H210ZM210.963 1479C209.859 1479 208.963 1479.9 208.963 1481V1583C208.963 1584.1 209.859 1585 210.963 1585H1309.04C1310.14 1585 1311.04 1584.1 1311.04 1583V1481C1311.04 1479.9 1310.14 1479 1309.04 1479H210.963Z" fill="black"/>
<path fill-rule="evenodd" clip-rule="evenodd" d="M460 480V1320C460 1321.1 460.895 1322 462 1322H478V1338C478 1339.1 478.895 1340 480 1340H1320C1321.1 1340 1322 1339.1 1322 1338V1322H1338C1339.1 1322 1340 1321.1 1340 1320V480C1340 478.895 1339.1 478 1338 478H1322V462C1322 460.895 1321.1 460 1320 460H480C478.895 460 478 460.895 478 462V478H462C460.895 478 460 478.895 460 480ZM677 1121.17V678.828C677 678.298 676.789 677.789 676.414 677.414L478.586 479.586C478.211 479.211 477.702 479 477.172 479H463C461.895 479 461 479.895 461 481V1319C461 1320.1 461.895 1321 463 1321H477.172C477.702 1321 478.211 1320.79 478.586 1320.41L676.414 1122.59C676.789 1122.21 677 1121.7 677 1121.17ZM678.828 677H1121.17C1121.7 677 1122.21 676.789 1122.59 676.414L1320.41 478.586C1320.79 478.211 1321 477.702 1321 477.172V463C1321 461.895 1320.1 461 1319 461H481C479.895 461 479 461.895 479 463V477.172C479 477.702 479.211 478.211 479.586 478.586L677.414 676.414C677.789 676.789 678.298 677 678.828 677ZM1123 678.828V1121.17C1123 1121.7 1123.21 1122.21 1123.59 1122.59L1321.41 1320.41C1321.79 1320.79 1322.3 1321 1322.83 1321H1337C1338.1 1321 1339 1320.1 1339 1319V481C1339 479.895 1338.1 479 1337 479H1322.83C1322.3 479 1321.79 479.211 1321.41 479.586L1123.59 677.414C1123.21 677.789 1123 678.298 1123 678.828ZM1121.17 1123H678.828C678.298 1123 677.789 1123.21 677.414 1123.59L479.586 1321.41C479.211 1321.79 479 1322.3 479 1322.83V1337C479 1338.1 479.895 1339 481 1339H1319C1320.1 1339 1321 1338.1 1321 1337V1322.83C1321 1322.3 1320.79 1321.79 1320.41 1321.41L1122.59 1123.59C1122.21 1123.21 1121.7 1123 1121.17 1123ZM678 678V1122H1122V678H678Z" fill="black"/>
</svg>
