<svg width="512" height="512" viewBox="0 0 512 512" fill="none" xmlns="http://www.w3.org/2000/svg">
<path d="M1 1H511V511H1V1Z" fill="white" stroke="white" stroke-width="2"/>
<path d="M328.999 114.404L328.999 114.404L329.012 114.402C335.117 113.384 341.196 114.394 345.225 116.372C350.823 121.176 356.866 125.437 363.272 129.098C372.261 134.385 379.356 138.855 384.592 142.914C389.846 146.985 393.12 150.562 394.605 154.027L394.61 154.039C396.68 158.695 397.401 162.98 396.79 166.283C396.19 169.519 394.32 171.836 391.016 172.78L390.866 172.823L390.736 172.91C390.509 173.061 390.026 173.246 389.201 173.407C388.404 173.563 387.385 173.679 386.17 173.752C383.742 173.898 380.609 173.867 377.058 173.669C369.96 173.275 361.275 172.222 353.386 170.644L353.331 170.633L353.275 170.629L316.237 167.454C316.236 167.454 316.236 167.454 316.235 167.454C310.377 166.921 305.804 166.916 302.401 167.325C299.054 167.726 296.641 168.549 295.331 169.86L295.292 169.899L295.257 169.942L291.024 175.234L290.465 175.933L291.097 176.566L294.273 179.741L294.409 179.877L294.586 179.953C298.199 181.501 300.677 183.265 302.255 185.33C303.82 187.375 304.563 189.797 304.563 192.792C304.563 194.863 304.366 196.369 303.906 197.535C303.46 198.664 302.744 199.531 301.579 200.288C300.382 201.066 298.711 201.728 296.359 202.398C294.024 203.062 291.093 203.715 287.404 204.506L278.98 205.559L278.64 205.601L278.397 205.844C278.223 206.018 278.084 206.251 277.984 206.432C277.869 206.638 277.747 206.89 277.619 207.171C277.363 207.735 277.065 208.468 276.747 209.305C276.111 210.98 275.376 213.116 274.71 215.249C274.045 217.378 273.44 219.526 273.067 221.219C272.882 222.062 272.747 222.823 272.696 223.425C272.671 223.723 272.663 224.021 272.692 224.287C272.715 224.498 272.781 224.926 273.105 225.25L273.506 225.651L274.055 225.513L286.755 222.338L286.889 222.305L287.009 222.236L294.374 218.028C303.779 213.852 308.769 212.921 314.723 214.892C332.278 222.89 348.285 233.921 362.009 247.478C369.39 254.858 372.455 257.933 375.53 264.052L377.59 272.291C377.577 275.234 377.08 277.124 375.516 279.41C373.864 281.824 371.044 284.651 366.258 289.438C354.549 300.087 339.695 318.127 332.261 328.747L332.25 328.764L332.239 328.781C319.018 349.412 307.339 370.993 297.299 393.345C294.771 396.356 292.557 398.037 289.394 399.011C286.121 400.018 281.772 400.289 274.897 400.289L254.871 399.235C242.099 397.113 229.332 397.114 215.526 399.231H185.01C174.733 397.145 168.976 391.072 168.976 384.355C168.976 382.899 169.214 381.798 169.986 380.695C170.791 379.546 172.234 378.311 174.841 376.746L174.861 376.734L174.881 376.721L178.056 374.604L178.699 374.175L178.447 373.445C162.675 327.891 146.175 282.593 128.954 237.568L133.309 234.084C133.436 234.13 133.593 234.198 133.783 234.29C134.241 234.515 134.827 234.858 135.529 235.318C136.929 236.236 138.72 237.569 140.757 239.212C144.829 242.496 149.83 246.97 154.569 251.709L164.094 261.234L164.51 261.65L165.076 261.489L172.485 259.372L172.505 259.366L172.526 259.359C182.019 256.195 193.713 251.949 201.221 247.671C202.505 247.158 203.498 246.76 204.251 246.426C205.003 246.091 205.602 245.784 206.041 245.433C206.526 245.044 206.824 244.596 206.965 244.035C207.078 243.582 207.078 243.073 207.077 242.608L207.077 242.535V242.487L207.073 242.438L202.844 199.094C202.846 194.871 203.122 192.173 203.821 190.54C204.157 189.756 204.568 189.277 205.049 188.979C205.538 188.676 206.199 188.5 207.136 188.5C208.375 188.5 209.577 189.054 210.758 190.368C211.957 191.703 213.094 193.782 214.131 196.699C216.204 202.529 217.783 211.423 218.84 223.571L218.842 223.599L218.846 223.626L219.904 231.035L220.187 233.015L221.602 231.6L223.718 229.484L223.719 229.483C234.337 218.833 244.251 207.505 253.399 195.569C254.981 193.982 255.903 192.796 256.372 191.389C256.819 190.047 256.821 188.582 256.82 186.604L258.863 180.476L259.705 178.793L265.662 176.807L265.766 176.772L265.86 176.716L276.444 170.366L276.57 170.29L276.669 170.181L287.253 158.539L287.345 158.437L287.407 158.314L288.466 156.197L289.189 154.75H287.571H285.841C284.482 153.614 282.196 152.871 279.13 152.381C275.75 151.84 271.198 151.575 265.366 151.575C238.782 150.514 207.992 154.77 160.372 164.294L160.361 164.296L160.351 164.299L141.3 168.532C136.6 169.577 131.923 170.093 127.923 169.964C123.922 169.835 120.762 169.065 118.889 167.691C116.738 165.539 115 163.716 115 161.041V160.764L118.476 159.895L118.483 159.893C143.333 153.49 168.373 147.847 193.567 142.973L193.603 142.966L193.638 142.956C238.193 130.935 283.384 121.402 328.999 114.404ZM253.998 229.732L254.704 229.515V228.776V221.368V215.018V214.018H253.704H251.587H251.447L251.312 214.056L243.904 216.173L243.814 216.199L243.731 216.24C243.228 216.491 242.793 217.007 242.443 217.493C242.061 218.023 241.662 218.694 241.262 219.442C240.461 220.941 239.619 222.831 238.882 224.707C238.145 226.582 237.502 228.473 237.109 229.979C236.913 230.727 236.77 231.413 236.715 231.969C236.688 232.244 236.678 232.526 236.709 232.787C236.735 233.009 236.811 233.407 237.121 233.717L237.511 234.107L238.049 233.985C243.417 232.77 248.737 231.352 253.998 229.732ZM298.651 239.55L298.477 239.451L298.279 239.426L289.812 238.368L289.767 238.362L289.721 238.361C283.206 238.142 276.693 238.865 270.385 240.509L269.757 240.673L269.651 241.313C262.761 282.718 257.813 324.424 254.823 366.292L254.82 366.328V366.363V373.772V374.772H255.82H257.937H258.06L258.18 374.742L266.646 372.625L267.009 372.535L267.223 372.229C274.671 361.588 285.544 342.489 295.471 323.298C305.383 304.135 314.402 284.783 318.141 273.583C319.737 269.851 320.587 266.804 320.587 264.099C320.587 261.356 319.714 259.045 318.036 256.794C316.367 254.029 313.382 250.793 309.93 247.739C306.447 244.658 302.423 241.706 298.651 239.55ZM241.003 372.655H242.003V371.655V364.295C245.377 329.775 248.199 295.204 250.468 260.593C250.468 260.593 250.468 260.593 250.468 260.593L251.526 245.782L251.623 244.419L250.295 244.738L223.836 251.088L223.296 251.218L223.121 251.744L222.062 254.919L221.996 255.12L222.016 255.33L224.13 277.535L226.245 316.648C226.262 334.716 227.325 352.768 229.426 370.713L229.511 371.435L230.224 371.577L235.515 372.636L235.612 372.655H235.711H241.003ZM207.074 262.561L207.064 262.442L207.026 262.328L205.968 259.153L205.621 258.114L204.618 258.553L170.751 273.37L169.896 273.744L170.21 274.622C181.235 305.505 191.817 336.544 201.951 367.731L201.974 367.802L202.008 367.869L203.066 369.986L203.285 370.423L203.765 370.519L209.056 371.577L209.153 371.597H209.252H215.603H216.883L216.573 370.354L215.528 366.177L212.366 341.931C211.037 315.447 209.273 288.987 207.074 262.561Z" fill="#969696" stroke="white" stroke-width="2"/>
</svg>
