<svg width="512" height="512" viewBox="0 0 512 512" fill="none" xmlns="http://www.w3.org/2000/svg">
<path d="M0 0H512V512H0V0Z" fill="white"/>
<path d="M328.847 113.415C283.195 120.42 237.969 129.96 193.377 141.991C168.163 146.869 143.103 152.517 118.233 158.925L114 159.983V161.041C114 164.217 116.117 166.333 118.233 168.45C122.467 171.625 131.992 171.625 141.517 169.508L160.568 165.275C208.194 155.75 238.887 151.516 265.346 152.575C276.988 152.575 283.338 153.633 285.454 155.75H287.571L286.513 157.866L275.929 169.508L265.346 175.858L258.995 177.975L257.937 180.092L255.82 186.442C255.82 190.676 255.82 191.734 252.645 194.909C243.512 206.829 233.613 218.142 223.011 228.776L220.894 230.893L219.836 223.485C217.719 199.142 213.486 187.5 207.136 187.5C202.902 187.5 201.844 190.676 201.844 199.142L206.077 242.535C206.077 244.652 206.077 244.652 200.786 246.769C193.377 251.002 181.735 255.235 172.21 258.411L164.801 260.527L155.276 251.002C145.751 241.477 135.167 233.01 133.05 233.01L127.759 237.243C145.071 282.483 161.654 327.999 177.502 373.772L174.327 375.889C169.035 379.064 167.976 381.18 167.976 384.355C167.976 391.764 174.327 398.114 184.91 400.231H215.603C229.361 398.114 242.062 398.114 254.762 400.231L274.871 401.289C288.629 401.289 292.863 400.231 298.155 393.881C308.187 371.528 319.861 349.949 333.081 329.321C340.489 318.737 355.306 300.745 366.948 290.161C376.473 280.636 378.59 278.519 378.59 272.169L376.473 263.702C373.298 257.352 370.123 254.177 362.715 246.769C348.893 233.115 332.771 222.009 315.088 213.959C308.738 211.843 303.447 212.901 293.921 217.135L286.513 221.368L273.812 224.543C272.754 223.485 278.046 207.609 279.104 206.551L287.571 205.493C302.388 202.317 305.563 201.259 305.563 192.792C305.563 186.442 302.388 182.209 294.98 179.034L291.805 175.858L296.038 170.567C298.155 168.45 304.505 167.392 316.147 168.45L353.189 171.625C369.065 174.8 388.115 175.858 391.29 173.742C398.699 171.625 399.757 163.158 395.524 153.633C392.349 146.224 381.765 138.816 363.773 128.232C357.384 124.582 351.36 120.329 345.781 115.532C341.547 113.415 335.197 112.357 328.847 113.415ZM253.704 221.368V228.776C248.467 230.389 243.172 231.801 237.828 233.01C236.77 231.952 242.062 218.193 244.178 217.135L251.587 215.018H253.704V221.368ZM298.155 240.418C305.563 244.652 314.03 252.06 317.205 257.352C320.38 261.586 320.38 265.819 317.205 273.228C309.797 295.453 281.221 350.488 266.404 371.655L257.937 373.772H255.82V366.363C258.808 324.526 263.752 282.852 270.637 241.477C276.852 239.857 283.269 239.144 289.688 239.36L298.155 240.418ZM249.47 260.527C247.201 295.143 244.378 329.721 241.003 364.247V371.655H235.711L230.42 370.597C228.322 352.681 227.261 334.659 227.245 316.62L225.128 277.461L223.011 255.235L224.069 252.06L250.528 245.71L249.47 260.527ZM206.077 262.644C208.277 289.072 210.041 315.535 211.369 342.021L214.544 366.363L215.603 370.597H209.252L203.961 369.538L202.902 367.422C192.765 336.226 182.18 305.178 171.151 274.286L205.019 259.469L206.077 262.644Z" fill="black"/>
</svg>
