<svg width="512" height="512" viewBox="0 0 512 512" fill="none" xmlns="http://www.w3.org/2000/svg">
<path d="M1 1H511V511H1V1Z" fill="white" stroke="white" stroke-width="2"/>
<path d="M242.923 255.067L243.63 254.36L242.923 253.653L158.777 169.507C155.262 165.992 155.262 160.294 158.777 156.779C162.291 153.264 167.99 153.264 171.505 156.779L255.651 240.925L256.358 241.632L257.065 240.925L341.212 156.779C344.726 153.264 350.425 153.264 353.94 156.779C357.454 160.293 357.454 165.992 353.94 169.507L269.793 253.653L269.086 254.36L269.793 255.067L353.938 339.213C357.453 342.727 357.453 348.426 353.938 351.941C350.423 355.455 344.725 355.455 341.21 351.941L257.065 267.795L256.358 267.088L255.651 267.795L171.506 351.94C167.991 355.455 162.293 355.455 158.778 351.94C155.263 348.425 155.263 342.727 158.778 339.212L242.923 255.067Z" fill="#969696" stroke="white" stroke-width="2"/>
</svg>
