<svg width="512" height="512" viewBox="0 0 512 512" fill="none" xmlns="http://www.w3.org/2000/svg">
<path d="M0 0H512V512H0V0Z" fill="white"/>
<path d="M172.213 352.647C168.308 356.552 161.976 356.552 158.071 352.647C154.166 348.742 154.166 342.41 158.071 338.505L242.216 254.36L158.07 170.214C154.164 166.309 154.164 159.977 158.07 156.072C161.975 152.167 168.306 152.167 172.212 156.072L256.358 240.218L340.505 156.072C344.41 152.166 350.742 152.166 354.647 156.072C358.552 159.977 358.552 166.308 354.647 170.214L270.5 254.36L354.645 338.506C358.55 342.411 358.55 348.742 354.645 352.648C350.74 356.553 344.408 356.553 340.503 352.648L256.358 268.502L172.213 352.647Z" fill="#969696"/>
</svg>
